<svg xmlns="http://www.w3.org/2000/svg" viewBox="0 0 1648.68 1641.62"><title>path142423</title><g id="Layer_2" data-name="Layer 2"><g id="svg140909"><path id="path142423" d="M836.22.17q-12.08-.36-24.14,0c-218.6,6.72-391,188.21-386.53,406.86A398.86,398.86,0,0,0,547.47,685.29l-3.94,8.22a398.87,398.87,0,0,0-156.91-27.9C168,672.33-4.4,853.82.09,1072.47S184.28,1465.38,403,1463.14a398.88,398.88,0,0,0,354.31-225c-1.78,38.14-3.42,71-6.31,102.12-3.41,36.79-8.61,73-18.07,104.26s-23.18,57.72-43.64,84.51-47.65,53.91-73,72.78-48.73,29.48-60.45,34.78-11.72,5.29,71.17,4.85c47-.28,120.81-.64,197.31-.86,76.5.24,150.31.6,197.31.86,82.9.43,82.89.45,71.17-4.85s-35.14-15.91-60.45-34.78-52.49-46-72.95-72.78-34.18-53.2-43.65-84.51-14.65-67.47-18.07-104.26c-2.91-31.3-4.54-64.4-6.33-102.91a398.88,398.88,0,0,0,362.55,225.78c218.68-2.24,394.78-180.15,394.78-398.85l-.34-16.34c-9-218.52-192.21-389.07-410.8-382.34a398.86,398.86,0,0,0-156,37.59A398.86,398.86,0,0,0,1223.2,398.88l-.34-16.34C1214.29,173.37,1045.46,6.42,836.21.18Z"/></g></g></svg>