<svg xmlns="http://www.w3.org/2000/svg" viewBox="0 0 1357.01 1628.8"><title>d</title><g id="Layer_2" data-name="Layer 2"><g id="svg140909"><path id="path142441" d="M678.51,0,678,.61C676.48,6,672.47,14.14,664.58,30c-16.33,32.91-49,98.74-95.43,175.88A1997.16,1997.16,0,0,1,387.28,460.8C312.14,550.05,222.18,640,154.69,699.6S42.32,788.25,19.86,802.8C10.88,808.61,5.48,812,0,814.4c5.48,2.36,10.88,5.79,19.86,11.6,22.46,14.55,67.35,43.63,134.83,103.2S312.14,1078.75,387.28,1168a1997.16,1997.16,0,0,1,181.87,254.88c46.45,77.14,79.1,143,95.43,175.89,7.89,15.89,11.9,24,13.42,29.42l.51.61.5-.61c1.52-5.4,5.54-13.53,13.42-29.42,16.33-32.92,49-98.75,95.43-175.89A1998.15,1998.15,0,0,1,969.73,1168c75.14-89.25,165.1-179.23,232.59-238.8s112.37-88.65,134.83-103.2c9-5.81,14.38-9.24,19.86-11.6-5.48-2.36-10.88-5.79-19.86-11.6-22.46-14.55-67.35-43.63-134.83-103.2S1044.87,550.05,969.73,460.8A1998.15,1998.15,0,0,1,787.86,205.92C741.41,128.78,708.76,63,692.43,30,684.55,14.14,680.53,6,679,.61Z" style="fill:#d40000"/></g></g></svg>