<svg xmlns="http://www.w3.org/2000/svg" viewBox="0 0 1845.49 1640.43"><title>path3534</title><g id="Layer_2" data-name="Layer 2"><g id="svg140909"><path id="path3534" d="M465.34,0a501.89,501.89,0,0,0-77.76,6.82c-68,11.25-132.35,35.53-189.83,78.07s-108,103.31-141.33,169S7.15,390.24,1.92,451.58,2.2,565,17.83,621.33s41.39,116.92,85,187.17,105.22,150.15,196.18,249.84,211.31,219.18,320.16,319.49,206.2,181.46,303.55,262.6c97.34-81.14,194.67-162.28,303.52-262.6s229.2-219.8,320.16-319.49S1699,878.75,1742.61,808.5s69.41-130.83,85-187.17,21.15-108.42,15.92-169.75-21.22-131.95-54.5-197.66-83.85-126.47-141.33-169S1525.89,18.09,1457.91,6.84s-139.55-9.45-210.39,11.55-140.94,61.18-195,113.12S961.11,246.38,922.76,310.82c-38.36-64.44-75.84-127.37-129.84-179.31S668.81,39.39,598,18.39A451.91,451.91,0,0,0,465.34,0Z" style="fill:#d90000"/></g></g></svg>