<svg xmlns="http://www.w3.org/2000/svg" viewBox="0 0 1640.43 1640.44"><title>path142341</title><g id="Layer_2" data-name="Layer 2"><g id="svg140909"><path id="path142341" d="M820.23,0C733.7,70,647.17,140.08,550.41,226.67S346.67,416.4,265.82,502.45,130.25,657.46,91.44,718.1,29.75,831,15.86,879.66-2.95,973.24,1.7,1026.19s18.86,113.89,48.45,170.61S124.68,1306,175.77,1342.69s108.32,57.68,168.75,67.38a457.81,457.81,0,0,0,69.11,5.89,412.32,412.32,0,0,0,117.89-15.86c63-18.12,125.29-52.8,173.3-97.63a444.42,444.42,0,0,0,48-53.23c-1.65,34.41-3.24,65-5.94,93.66-3.42,36.32-8.62,72-18.08,102.94s-23.17,57-43.64,83.43-47.64,53.23-72.95,71.86-48.73,29.1-60.45,34.34-11.73,5.23,71.16,4.79c47-.27,120.82-.62,197.32-.84,76.49.24,150.3.59,197.31.84,82.89.43,82.89.44,71.17-4.79s-35.14-15.7-60.45-34.34-52.5-45.41-73-71.86-34.18-52.52-43.64-83.43S897,1379.22,893.58,1342.9c-2.69-28.67-4.29-59.24-5.94-93.65a444.16,444.16,0,0,0,48,53.22c48,44.83,110.31,79.51,173.28,97.63s126.6,19.68,187,10,117.64-30.67,168.73-67.38,96-89.18,125.63-145.89,43.79-117.67,48.44-170.61-.24-97.9-14.14-146.53S1587.79,778.74,1549,718.1s-93.52-129.6-174.37-215.65S1186.78,313.26,1090,226.67,906.75,70,820.23,0Z"/></g></g></svg>