<svg xmlns="http://www.w3.org/2000/svg" xmlns:xlink="http://www.w3.org/1999/xlink" viewBox="0 0 123.75 169.58"><defs><style>.cls-1{fill:none;}.cls-2{fill:#fff;}.cls-3{fill:url(#pattern10642);}</style><pattern id="pattern10642" data-name="pattern10642" width="14.14" height="13.75" patternTransform="matrix(1, 0, 0, -1, 27.19, 1089)" patternUnits="userSpaceOnUse" viewBox="0 0 14.14 13.75"><rect class="cls-1" width="14.14" height="13.75"/><g id="g10644"><polygon id="rect10646" class="cls-2" points="3.54 13.75 7.07 10.21 3.54 6.68 0 10.21 3.54 13.75"/><polygon id="rect10648" class="cls-2" points="3.54 7.07 7.07 3.54 3.54 0 0 3.54 3.54 7.07"/><polygon id="rect10650" class="cls-2" points="10.61 13.75 14.14 10.21 10.61 6.68 7.07 10.21 10.61 13.75"/><polygon id="rect10652" class="cls-2" points="10.61 7.07 14.14 3.54 10.61 0 7.07 3.54 10.61 7.07"/></g></pattern></defs><title>Asset 1</title><g id="Layer_2" data-name="Layer 2"><g id="svg2"><path id="path9846" class="cls-3" d="M14.67,0h94.41a14.63,14.63,0,0,1,14.67,14.67V154.92a14.63,14.63,0,0,1-14.67,14.66H14.67A14.63,14.63,0,0,1,0,154.92V14.67A14.63,14.63,0,0,1,14.67,0Z"/></g></g></svg>