<svg xmlns="http://www.w3.org/2000/svg" viewBox="0 0 40.93 62.29"><title>c10</title><g id="Layer_2" data-name="Layer 2"><g id="Layer_1-2" data-name="Layer 1"><g id="c10"><rect x="0.09" y="0.09" width="40.74" height="62.1" rx="3.45" style="fill:#fff"/><path d="M37.39,62.29H3.54A3.55,3.55,0,0,1,0,58.74V3.54A3.55,3.55,0,0,1,3.54,0H37.39a3.55,3.55,0,0,1,3.54,3.54v55.2A3.55,3.55,0,0,1,37.39,62.29ZM3.54.19A3.35,3.35,0,0,0,.19,3.54v55.2A3.36,3.36,0,0,0,3.54,62.1H37.39a3.36,3.36,0,0,0,3.35-3.36V3.54A3.35,3.35,0,0,0,37.39.19Z" style="fill:#2d2d2d"/><path d="M5.42,11.77c0,.1,0,.24,0,.34a1.56,1.56,0,0,0,0,.31,1.34,1.34,0,0,0,.42.91H4.76a1.39,1.39,0,0,0,.42-.91c0-.1,0-.2,0-.31s0-.24,0-.34Z" style="fill:#0c0a35"/><path d="M5.35,12c.1,0,.16.11.34.3a1,1,0,0,0,.69.41.61.61,0,0,0,.55-.23,1.28,1.28,0,0,0,.19-.43,1.16,1.16,0,0,0-.1-.84A.58.58,0,0,0,6.26,11c-.13.08-.17.17-.28.19a0,0,0,0,1-.06-.06c0-.18.17-.2.23-.41A.61.61,0,0,0,5.9,10a1.16,1.16,0,0,0-1.22,0,.54.54,0,0,0-.25.67,4,4,0,0,0,.22.46.08.08,0,0,1-.1.09A2.5,2.5,0,0,1,4.32,11a.6.6,0,0,0-.77.24,1.28,1.28,0,0,0,.1,1.27.61.61,0,0,0,.55.23,1,1,0,0,0,.69-.41c.18-.19.23-.29.33-.3Z" style="fill:#0c0a35"/><path d="M4.45,8.21v.53H2.29V8.21h.79V3.77A6.51,6.51,0,0,1,1.5,5V4.29A5.27,5.27,0,0,0,3.25,2.88h.52V8.21Z" style="fill:#0c0a35"/><path d="M6.94,8.86A1.84,1.84,0,0,1,5.35,8a3.72,3.72,0,0,1-.59-2.14,3.85,3.85,0,0,1,.56-2.12,1.82,1.82,0,0,1,1.6-.86,1.82,1.82,0,0,1,1.64.9A4,4,0,0,1,9.11,5.9,3.74,3.74,0,0,1,8.54,8,1.79,1.79,0,0,1,6.94,8.86Zm0-.57A1.14,1.14,0,0,0,8,7.63,3.39,3.39,0,0,0,8.37,6,4.1,4.1,0,0,0,8,4.16a1.15,1.15,0,0,0-1.1-.72,1.14,1.14,0,0,0-1.07.66,3.64,3.64,0,0,0-.35,1.74,3.67,3.67,0,0,0,.37,1.79A1.18,1.18,0,0,0,6.94,8.29Z" style="fill:#0c0a35"/><path d="M35.51,50.52c0-.1,0-.25,0-.35s0-.2,0-.3a1.4,1.4,0,0,0-.43-.91h1.06a1.39,1.39,0,0,0-.42.91c0,.1,0,.2,0,.3s0,.25,0,.35Z" style="fill:#0c0a35"/><path d="M35.58,50.27c-.1,0-.16-.11-.34-.31a1,1,0,0,0-.69-.41.69.69,0,0,0-.55.23,1.34,1.34,0,0,0-.19.44,1.16,1.16,0,0,0,.1.84.59.59,0,0,0,.76.24c.13-.08.17-.17.29-.19s.06,0,0,.06-.17.2-.23.41-.11.44.25.76a1.19,1.19,0,0,0,1.22,0,.54.54,0,0,0,.25-.68c0-.19-.16-.28-.21-.45a.07.07,0,0,1,.09-.09c.08,0,.13.11.24.18a.59.59,0,0,0,.76-.24,1.11,1.11,0,0,0,.09-.84,1.16,1.16,0,0,0-.19-.44.66.66,0,0,0-.54-.23A1.1,1.1,0,0,0,36,50c-.18.2-.23.29-.33.31Z" style="fill:#0c0a35"/><path d="M36.48,54.08v-.54h2.16v.54h-.79v4.44a6.66,6.66,0,0,1,1.59-1.25V58a5,5,0,0,0-1.76,1.41h-.52V54.08Z" style="fill:#0c0a35"/><path d="M34,53.42a1.85,1.85,0,0,1,1.59.87,3.7,3.7,0,0,1,.59,2.14,3.81,3.81,0,0,1-.56,2.11,1.92,1.92,0,0,1-3.23,0,3.88,3.88,0,0,1-.56-2.12,3.8,3.8,0,0,1,.57-2.08A1.81,1.81,0,0,1,34,53.42ZM34,54a1.14,1.14,0,0,0-1.08.66,3.55,3.55,0,0,0-.35,1.66,4,4,0,0,0,.36,1.81,1.16,1.16,0,0,0,1.1.73,1.14,1.14,0,0,0,1.07-.66,4.51,4.51,0,0,0,0-3.53A1.18,1.18,0,0,0,34,54Z" style="fill:#0c0a35"/><path d="M13.65,8.83c0,.26.11.62.1.88s0,.52,0,.78a3.61,3.61,0,0,1-1.08,2.33c.6,0,2.11,0,2.71,0a3.51,3.51,0,0,1-1.08-2.33,6.78,6.78,0,0,1,0-.78c0-.26.1-.62.1-.88Z" style="fill:#0c0a35"/><path d="M13.83,9.47c-.25,0-.39.28-.85.78a2.65,2.65,0,0,1-1.77,1.05,1.7,1.7,0,0,1-1.4-.59A3,3,0,0,1,9.33,9.6a2.82,2.82,0,0,1,.24-2.15,1.5,1.5,0,0,1,1.95-.61c.32.19.43.43.72.49a.14.14,0,0,0,.15-.16c-.12-.46-.44-.51-.59-1a1.56,1.56,0,0,1,.63-1.94,3,3,0,0,1,3.13,0,1.42,1.42,0,0,1,.64,1.73c-.14.5-.42.73-.56,1.16a.17.17,0,0,0,.23.22c.22-.08.34-.28.62-.45a1.49,1.49,0,0,1,1.94.61,2.87,2.87,0,0,1,.25,2.15,3.17,3.17,0,0,1-.49,1.11,1.68,1.68,0,0,1-1.4.59A2.6,2.6,0,0,1,15,10.25c-.47-.5-.61-.74-.86-.78Z" style="fill:#0c0a35"/><path d="M26.58,8.83c0,.26.1.62.1.88a6.78,6.78,0,0,1,0,.78,3.51,3.51,0,0,1-1.08,2.33c.61,0,2.11,0,2.72,0a3.51,3.51,0,0,1-1.08-2.33,6.78,6.78,0,0,1,0-.78c0-.26.1-.62.1-.88Z" style="fill:#0c0a35"/><path d="M26.76,9.47c-.25,0-.39.28-.85.78a2.65,2.65,0,0,1-1.77,1.05,1.7,1.7,0,0,1-1.4-.59,3.17,3.17,0,0,1-.49-1.11,2.87,2.87,0,0,1,.25-2.15,1.49,1.49,0,0,1,1.94-.61c.33.19.43.43.73.49a.14.14,0,0,0,.15-.16c-.12-.46-.44-.51-.59-1a1.56,1.56,0,0,1,.63-1.94,3,3,0,0,1,3.13,0,1.42,1.42,0,0,1,.64,1.73c-.14.5-.43.73-.56,1.16a.17.17,0,0,0,.23.22c.22-.08.34-.28.61-.45a1.5,1.5,0,0,1,1.95.61,2.87,2.87,0,0,1,.25,2.15,3.17,3.17,0,0,1-.49,1.11,1.7,1.7,0,0,1-1.4.59A2.65,2.65,0,0,1,28,10.25c-.46-.5-.6-.74-.85-.78Z" style="fill:#0c0a35"/><path d="M27.28,53.46c0-.26-.1-.63-.1-.88a6.87,6.87,0,0,1,0-.79,3.49,3.49,0,0,1,1.08-2.32c-.61,0-2.11,0-2.72,0a3.49,3.49,0,0,1,1.08,2.32,6.87,6.87,0,0,1,0,.79c0,.25-.1.62-.1.88Z" style="fill:#0c0a35"/><path d="M27.1,52.82c.25,0,.39-.28.85-.78a2.65,2.65,0,0,1,1.77-1,1.69,1.69,0,0,1,1.4.58,3.3,3.3,0,0,1,.49,1.12,2.87,2.87,0,0,1-.25,2.15,1.51,1.51,0,0,1-1.95.61c-.32-.2-.42-.43-.72-.49a.13.13,0,0,0-.15.16c.12.45.44.51.59,1.05a1.56,1.56,0,0,1-.63,1.94,3,3,0,0,1-3.13,0,1.42,1.42,0,0,1-.64-1.73c.14-.5.43-.73.56-1.16a.18.18,0,0,0-.23-.23c-.22.09-.34.29-.62.46a1.5,1.5,0,0,1-1.94-.61,2.87,2.87,0,0,1-.25-2.15,3.3,3.3,0,0,1,.49-1.12,1.69,1.69,0,0,1,1.4-.58,2.65,2.65,0,0,1,1.77,1c.46.5.6.74.85.78Z" style="fill:#0c0a35"/><path d="M14.35,53.46c0-.26-.1-.63-.1-.88a6.87,6.87,0,0,1,0-.79,3.49,3.49,0,0,1,1.08-2.32c-.6,0-2.11,0-2.71,0a3.58,3.58,0,0,1,1.08,2.32c0,.26,0,.52,0,.79s-.1.62-.1.88Z" style="fill:#0c0a35"/><path d="M14.17,52.82c.25,0,.39-.28.86-.78a2.6,2.6,0,0,1,1.76-1,1.68,1.68,0,0,1,1.4.58,3.3,3.3,0,0,1,.49,1.12,2.87,2.87,0,0,1-.25,2.15,1.5,1.5,0,0,1-1.94.61c-.33-.2-.43-.43-.73-.49a.13.13,0,0,0-.15.16c.12.45.44.51.59,1.05a1.56,1.56,0,0,1-.63,1.94,3,3,0,0,1-3.13,0,1.42,1.42,0,0,1-.64-1.73c.14-.5.43-.73.56-1.16a.18.18,0,0,0-.23-.23c-.22.09-.34.29-.61.46a1.51,1.51,0,0,1-1.95-.61,2.82,2.82,0,0,1-.24-2.15,3.09,3.09,0,0,1,.48-1.12,1.69,1.69,0,0,1,1.4-.58A2.65,2.65,0,0,1,13,52c.46.5.6.74.85.78Z" style="fill:#0c0a35"/><path d="M13.65,26.61c0,.26.11.63.1.88s0,.53,0,.78a3.61,3.61,0,0,1-1.08,2.33c.6,0,2.11,0,2.71,0a3.51,3.51,0,0,1-1.08-2.33,6.69,6.69,0,0,1,0-.78c0-.25.1-.62.1-.88Z" style="fill:#0c0a35"/><path d="M13.83,27.25c-.25,0-.39.28-.85.78a2.65,2.65,0,0,1-1.77,1,1.67,1.67,0,0,1-1.4-.59,3,3,0,0,1-.48-1.11,2.82,2.82,0,0,1,.24-2.15,1.51,1.51,0,0,1,1.95-.61c.32.2.43.43.72.49a.14.14,0,0,0,.15-.16c-.12-.46-.44-.51-.59-1.05A1.56,1.56,0,0,1,12.43,22a3,3,0,0,1,3.13,0,1.42,1.42,0,0,1,.64,1.73c-.14.5-.42.73-.56,1.16a.17.17,0,0,0,.23.22c.22-.08.34-.28.62-.45a1.5,1.5,0,0,1,1.94.61,2.87,2.87,0,0,1,.25,2.15,3.17,3.17,0,0,1-.49,1.11,1.65,1.65,0,0,1-1.4.59A2.6,2.6,0,0,1,15,28c-.47-.5-.61-.74-.86-.78Z" style="fill:#0c0a35"/><path d="M26.58,26.61c0,.26.1.63.1.88a6.69,6.69,0,0,1,0,.78,3.51,3.51,0,0,1-1.08,2.33c.61,0,2.11,0,2.72,0a3.51,3.51,0,0,1-1.08-2.33,6.69,6.69,0,0,1,0-.78c0-.25.1-.62.1-.88Z" style="fill:#0c0a35"/><path d="M26.76,27.25c-.25,0-.39.28-.85.78a2.65,2.65,0,0,1-1.77,1,1.67,1.67,0,0,1-1.4-.59,3.17,3.17,0,0,1-.49-1.11,2.87,2.87,0,0,1,.25-2.15,1.5,1.5,0,0,1,1.94-.61c.33.2.43.43.73.49a.14.14,0,0,0,.15-.16c-.12-.46-.44-.51-.59-1.05A1.56,1.56,0,0,1,25.36,22a3,3,0,0,1,3.13,0,1.42,1.42,0,0,1,.64,1.73c-.14.5-.43.73-.56,1.16a.17.17,0,0,0,.23.22c.22-.08.34-.28.61-.45a1.51,1.51,0,0,1,1.95.61,2.87,2.87,0,0,1,.25,2.15,3.17,3.17,0,0,1-.49,1.11,1.67,1.67,0,0,1-1.4.59A2.65,2.65,0,0,1,28,28c-.46-.5-.6-.74-.85-.78Z" style="fill:#0c0a35"/><path d="M27.28,36.17c0-.26-.1-.63-.1-.89a6.78,6.78,0,0,1,0-.78,3.49,3.49,0,0,1,1.08-2.32c-.61,0-2.11,0-2.72,0a3.49,3.49,0,0,1,1.08,2.32,6.78,6.78,0,0,1,0,.78c0,.26-.1.63-.1.89Z" style="fill:#0c0a35"/><path d="M27.1,35.52c.25,0,.39-.28.85-.78a2.6,2.6,0,0,1,1.77-1,1.69,1.69,0,0,1,1.4.58,3.22,3.22,0,0,1,.49,1.12,2.87,2.87,0,0,1-.25,2.15,1.5,1.5,0,0,1-1.95.6c-.32-.19-.42-.43-.72-.48a.13.13,0,0,0-.15.16c.12.45.44.51.59,1.05a1.54,1.54,0,0,1-.63,1.93,3,3,0,0,1-3.13,0,1.41,1.41,0,0,1-.64-1.72c.14-.5.43-.73.56-1.16a.18.18,0,0,0-.23-.23c-.22.09-.34.29-.62.45a1.49,1.49,0,0,1-1.94-.6,2.87,2.87,0,0,1-.25-2.15,3.22,3.22,0,0,1,.49-1.12,1.69,1.69,0,0,1,1.4-.58,2.6,2.6,0,0,1,1.77,1c.46.5.6.74.85.78Z" style="fill:#0c0a35"/><path d="M14.35,36.17c0-.26-.1-.63-.1-.89a6.78,6.78,0,0,1,0-.78,3.49,3.49,0,0,1,1.08-2.32c-.6,0-2.11,0-2.71,0a3.58,3.58,0,0,1,1.08,2.32c0,.26,0,.52,0,.78s-.1.63-.1.89Z" style="fill:#0c0a35"/><path d="M14.17,35.52c.25,0,.39-.28.86-.78a2.56,2.56,0,0,1,1.76-1,1.68,1.68,0,0,1,1.4.58,3.22,3.22,0,0,1,.49,1.12,2.87,2.87,0,0,1-.25,2.15,1.49,1.49,0,0,1-1.94.6c-.33-.19-.43-.43-.73-.48a.13.13,0,0,0-.15.16c.12.45.44.51.59,1.05a1.54,1.54,0,0,1-.63,1.93,3,3,0,0,1-3.13,0,1.41,1.41,0,0,1-.64-1.72c.14-.5.43-.73.56-1.16a.18.18,0,0,0-.23-.23c-.22.09-.34.29-.61.45a1.5,1.5,0,0,1-1.95-.6,2.82,2.82,0,0,1-.24-2.15,3,3,0,0,1,.48-1.12,1.69,1.69,0,0,1,1.4-.58,2.6,2.6,0,0,1,1.77,1c.46.5.6.74.85.78Z" style="fill:#0c0a35"/><path d="M20.42,17.7c0,.26.1.63.1.89a6.78,6.78,0,0,1,0,.78,3.47,3.47,0,0,1-1.08,2.32c.6,0,2.11,0,2.71,0A3.56,3.56,0,0,1,21,19.37c0-.26,0-.52,0-.78s.11-.63.11-.89Z" style="fill:#0c0a35"/><path d="M20.6,18.35c-.25,0-.39.28-.85.78a2.6,2.6,0,0,1-1.77,1,1.68,1.68,0,0,1-1.4-.58,3.22,3.22,0,0,1-.49-1.12,2.88,2.88,0,0,1,.25-2.15,1.5,1.5,0,0,1,1.94-.6c.33.19.43.43.73.48a.13.13,0,0,0,.15-.16c-.12-.45-.44-.5-.59-1a1.56,1.56,0,0,1,.63-1.94,3,3,0,0,1,3.13,0A1.41,1.41,0,0,1,23,14.78c-.14.51-.43.74-.56,1.16a.18.18,0,0,0,.23.23c.22-.09.34-.29.61-.45a1.51,1.51,0,0,1,1.95.6,2.83,2.83,0,0,1,.24,2.15A3,3,0,0,1,25,19.59a1.69,1.69,0,0,1-1.4.58,2.6,2.6,0,0,1-1.77-1c-.46-.5-.6-.74-.85-.78Z" style="fill:#0c0a35"/><path d="M20.51,44.58c0-.26-.1-.62-.1-.88a6.78,6.78,0,0,1,0-.78,3.56,3.56,0,0,1,1.08-2.33c-.6,0-2.11,0-2.71,0a3.61,3.61,0,0,1,1.08,2.33q0,.39,0,.78c0,.26-.11.62-.11.88Z" style="fill:#0c0a35"/><path d="M20.33,43.94c.25,0,.4-.28.86-.78a2.56,2.56,0,0,1,1.76-1,1.68,1.68,0,0,1,1.41.58,3.12,3.12,0,0,1,.48,1.12A2.92,2.92,0,0,1,24.6,46a1.52,1.52,0,0,1-2,.6c-.33-.19-.43-.43-.73-.49a.13.13,0,0,0-.14.16c.11.46.43.51.58,1a1.56,1.56,0,0,1-.63,1.94,3,3,0,0,1-3.13,0A1.42,1.42,0,0,1,18,47.5c.14-.5.43-.73.56-1.15a.18.18,0,0,0-.23-.23c-.22.09-.33.28-.61.45a1.51,1.51,0,0,1-1.95-.6,2.83,2.83,0,0,1-.24-2.15A3.12,3.12,0,0,1,16,42.7a1.67,1.67,0,0,1,1.4-.58,2.6,2.6,0,0,1,1.77,1c.46.5.6.74.86.78Z" style="fill:#0c0a35"/></g></g></g></svg>