<svg xmlns="http://www.w3.org/2000/svg" viewBox="0 0 40.93 62.29"><title>c2</title><g id="Layer_2" data-name="Layer 2"><g id="Layer_1-2" data-name="Layer 1"><g id="c2"><rect x="0.09" y="0.09" width="40.74" height="62.1" rx="3.45" style="fill:#fff"/><path d="M37.39,62.29H3.54A3.55,3.55,0,0,1,0,58.74V3.54A3.55,3.55,0,0,1,3.54,0H37.39a3.55,3.55,0,0,1,3.54,3.54v55.2A3.55,3.55,0,0,1,37.39,62.29ZM3.54.19A3.35,3.35,0,0,0,.19,3.54v55.2A3.36,3.36,0,0,0,3.54,62.1H37.39a3.36,3.36,0,0,0,3.35-3.36V3.54A3.35,3.35,0,0,0,37.39.19Z" style="fill:#2d2d2d"/><path d="M20.12,8.83c0,.26.1.62.1.88a6.78,6.78,0,0,1,0,.78,3.61,3.61,0,0,1-1.08,2.33c.6,0,2.11,0,2.71,0a3.61,3.61,0,0,1-1.08-2.33,6.78,6.78,0,0,1,0-.78c0-.26.11-.62.11-.88Z" style="fill:#0c0a35"/><path d="M20.3,9.47c-.25,0-.4.28-.86.78a2.63,2.63,0,0,1-1.76,1.05,1.71,1.71,0,0,1-1.41-.59,3.15,3.15,0,0,1-.48-1.11A2.91,2.91,0,0,1,16,7.45,1.51,1.51,0,0,1,18,6.84c.32.19.43.43.73.49a.13.13,0,0,0,.14-.16c-.12-.46-.44-.51-.59-1a1.57,1.57,0,0,1,.64-1.94,3,3,0,0,1,3.13,0,1.43,1.43,0,0,1,.64,1.73c-.14.5-.43.73-.57,1.16a.18.18,0,0,0,.24.22c.22-.08.33-.28.61-.45a1.5,1.5,0,0,1,1.95.61,2.82,2.82,0,0,1,.24,2.15,3.15,3.15,0,0,1-.48,1.11,1.71,1.71,0,0,1-1.4.59,2.65,2.65,0,0,1-1.77-1.05c-.46-.5-.6-.74-.86-.78Z" style="fill:#0c0a35"/><path d="M5.42,11.77c0,.1,0,.24,0,.34s0,.21,0,.31a1.34,1.34,0,0,0,.42.91H4.76a1.39,1.39,0,0,0,.42-.91c0-.1,0-.2,0-.31s0-.24,0-.34Z" style="fill:#0c0a35"/><path d="M5.35,12c.1,0,.16.11.34.3a1,1,0,0,0,.69.41.61.61,0,0,0,.55-.23,1.28,1.28,0,0,0,.19-.43,1.12,1.12,0,0,0-.1-.84A.58.58,0,0,0,6.26,11c-.13.08-.17.17-.28.19a0,0,0,0,1-.06-.06c0-.18.17-.2.23-.41A.61.61,0,0,0,5.9,10a1.16,1.16,0,0,0-1.22,0,.55.55,0,0,0-.25.67,4,4,0,0,0,.22.46c0,.05,0,.11-.09.09A1.66,1.66,0,0,1,4.32,11a.6.6,0,0,0-.77.24,1.28,1.28,0,0,0,.1,1.27.61.61,0,0,0,.55.23,1,1,0,0,0,.69-.41c.18-.19.23-.29.33-.3Z" style="fill:#0c0a35"/><path d="M7.32,8.15v.59H3.24V8.15A22.13,22.13,0,0,0,6.12,5.76a1.81,1.81,0,0,0,.47-1.14,1,1,0,0,0-.4-.85,1.42,1.42,0,0,0-1.83,0,1.37,1.37,0,0,0-.45,1l-.67-.2A2,2,0,0,1,5.3,2.88a2.13,2.13,0,0,1,1.45.5A1.61,1.61,0,0,1,7.3,4.62a2,2,0,0,1-.26,1A4.88,4.88,0,0,1,6,6.69,22.43,22.43,0,0,1,4.15,8.15Z" style="fill:#0c0a35"/><path d="M35.49,50.52c0-.1,0-.25,0-.35s0-.2,0-.3A1.39,1.39,0,0,0,35.1,49h1.06a1.4,1.4,0,0,0-.43.91c0,.1,0,.2,0,.3s0,.25,0,.35Z" style="fill:#0c0a35"/><path d="M35.56,50.27c-.1,0-.15-.11-.33-.31a1.1,1.1,0,0,0-.69-.41.67.67,0,0,0-.55.23,1.16,1.16,0,0,0-.19.44,1.11,1.11,0,0,0,.09.84.6.6,0,0,0,.76.24c.13-.08.17-.17.29-.19a0,0,0,0,1,.06.06c0,.18-.18.2-.23.41a.62.62,0,0,0,.24.76,1.21,1.21,0,0,0,1.23,0,.57.57,0,0,0,.25-.68c-.06-.19-.17-.28-.22-.45a.07.07,0,0,1,.09-.09c.08,0,.13.11.24.18a.59.59,0,0,0,.76-.24,1.16,1.16,0,0,0,.1-.84,1.34,1.34,0,0,0-.19-.44.68.68,0,0,0-.55-.23A1,1,0,0,0,36,50c-.18.2-.24.29-.34.31Z" style="fill:#0c0a35"/><path d="M33.63,54.14v-.6h4.08v.6a21.3,21.3,0,0,0-2.88,2.39,1.81,1.81,0,0,0-.47,1.14,1,1,0,0,0,.4.85,1.4,1.4,0,0,0,.9.32,1.36,1.36,0,0,0,.93-.36,1.33,1.33,0,0,0,.45-1l.67.2a2,2,0,0,1-2.06,1.69,2.07,2.07,0,0,1-1.45-.51,1.58,1.58,0,0,1-.55-1.23,2,2,0,0,1,.26-1,4.88,4.88,0,0,1,1-1.11,20.9,20.9,0,0,1,1.89-1.46Z" style="fill:#0c0a35"/><path d="M20.82,53.46c0-.26-.11-.63-.11-.88a6.87,6.87,0,0,1,0-.79,3.58,3.58,0,0,1,1.08-2.32c-.6,0-2.11,0-2.71,0a3.58,3.58,0,0,1,1.08,2.32,6.87,6.87,0,0,1,0,.79c0,.25-.1.62-.1.88Z" style="fill:#0c0a35"/><path d="M20.63,52.82c.26,0,.4-.28.86-.78a2.65,2.65,0,0,1,1.77-1,1.7,1.7,0,0,1,1.4.58,3.28,3.28,0,0,1,.48,1.12,2.82,2.82,0,0,1-.24,2.15,1.51,1.51,0,0,1-1.95.61c-.32-.2-.43-.43-.73-.49a.13.13,0,0,0-.14.16c.12.45.44.51.59,1.05s.27,1.13-.64,1.94a3,3,0,0,1-3.12,0,1.44,1.44,0,0,1-.65-1.73c.14-.5.43-.73.57-1.16a.19.19,0,0,0-.24-.23c-.21.09-.33.29-.61.46A1.52,1.52,0,0,1,16,54.84a2.92,2.92,0,0,1-.24-2.15,3.28,3.28,0,0,1,.48-1.12A1.71,1.71,0,0,1,17.68,51a2.63,2.63,0,0,1,1.76,1c.46.5.61.74.86.78Z" style="fill:#0c0a35"/></g></g></g></svg>