<svg xmlns="http://www.w3.org/2000/svg" viewBox="0 0 40.93 62.29"><title>c9</title><g id="Layer_2" data-name="Layer 2"><g id="Layer_1-2" data-name="Layer 1"><g id="c9"><rect x="0.09" y="0.09" width="40.74" height="62.1" rx="3.45" style="fill:#fff"/><path d="M37.39,62.29H3.54A3.55,3.55,0,0,1,0,58.74V3.54A3.55,3.55,0,0,1,3.54,0H37.39a3.55,3.55,0,0,1,3.54,3.54v55.2A3.55,3.55,0,0,1,37.39,62.29ZM3.54.19A3.35,3.35,0,0,0,.19,3.54v55.2A3.36,3.36,0,0,0,3.54,62.1H37.39a3.36,3.36,0,0,0,3.35-3.36V3.54A3.35,3.35,0,0,0,37.39.19Z" style="fill:#2d2d2d"/><path d="M5.42,11.77c0,.1,0,.24,0,.34a1.56,1.56,0,0,0,0,.31,1.34,1.34,0,0,0,.42.91H4.76a1.39,1.39,0,0,0,.42-.91c0-.1,0-.2,0-.31s0-.24,0-.34Z" style="fill:#0c0a35"/><path d="M5.35,12c.1,0,.16.11.34.3a1,1,0,0,0,.69.41.61.61,0,0,0,.55-.23,1.28,1.28,0,0,0,.19-.43,1.12,1.12,0,0,0-.1-.84A.58.58,0,0,0,6.26,11c-.13.08-.17.17-.28.19a0,0,0,0,1-.06-.06c0-.18.17-.2.23-.41A.61.61,0,0,0,5.9,10a1.16,1.16,0,0,0-1.22,0,.54.54,0,0,0-.25.67,4,4,0,0,0,.22.46.08.08,0,0,1-.1.09A2.5,2.5,0,0,1,4.32,11a.6.6,0,0,0-.77.24,1.28,1.28,0,0,0,.1,1.27.61.61,0,0,0,.55.23,1,1,0,0,0,.69-.41c.18-.19.23-.29.33-.3Z" style="fill:#0c0a35"/><path d="M3.28,7.7l.58-.21a1.24,1.24,0,0,0,1.2.8A1.36,1.36,0,0,0,6.3,7.6a3.73,3.73,0,0,0,.43-1.88,1.83,1.83,0,0,1-1.7,1,1.8,1.8,0,0,1-1.34-.55,1.84,1.84,0,0,1-.55-1.35,1.92,1.92,0,0,1,.57-1.4,2,2,0,0,1,1.46-.58,2,2,0,0,1,1.66.76,3.41,3.41,0,0,1,.58,2.09A3.93,3.93,0,0,1,6.8,8a2,2,0,0,1-1.74.86A1.74,1.74,0,0,1,3.28,7.7ZM5.19,6.18a1.4,1.4,0,0,0,1.4-1.39,1.3,1.3,0,0,0-.38-.93,1.39,1.39,0,0,0-1-.38,1.25,1.25,0,0,0-1,.4,1.34,1.34,0,0,0-.37,1,1.2,1.2,0,0,0,.41,1A1.37,1.37,0,0,0,5.19,6.18Z" style="fill:#0c0a35"/><path d="M35.49,50.52c0-.1,0-.25,0-.35s0-.2,0-.3A1.39,1.39,0,0,0,35.1,49h1.06a1.34,1.34,0,0,0-.42.91,1.51,1.51,0,0,0,0,.3c0,.1,0,.25,0,.35Z" style="fill:#0c0a35"/><path d="M35.56,50.27c-.1,0-.15-.11-.33-.31a1.1,1.1,0,0,0-.69-.41.67.67,0,0,0-.55.23,1.16,1.16,0,0,0-.19.44,1.11,1.11,0,0,0,.09.84.6.6,0,0,0,.76.24c.13-.08.17-.17.29-.19s.06,0,.06.06-.18.2-.23.41a.62.62,0,0,0,.24.76,1.21,1.21,0,0,0,1.23,0,.57.57,0,0,0,.25-.68c-.06-.19-.17-.28-.22-.45a.07.07,0,0,1,.09-.09c.08,0,.13.11.24.18a.59.59,0,0,0,.76-.24,1.16,1.16,0,0,0,.1-.84,1.34,1.34,0,0,0-.19-.44.68.68,0,0,0-.55-.23A1,1,0,0,0,36,50c-.18.2-.24.29-.34.31Z" style="fill:#0c0a35"/><path d="M37.48,54.59l-.58.21a1.24,1.24,0,0,0-1.2-.8,1.36,1.36,0,0,0-1.24.69A3.71,3.71,0,0,0,34,56.57a1.83,1.83,0,0,1,1.7-1,1.88,1.88,0,0,1,1.89,1.9,1.94,1.94,0,0,1-.57,1.4,2,2,0,0,1-1.46.58,2,2,0,0,1-1.66-.76,3.43,3.43,0,0,1-.57-2.09A3.83,3.83,0,0,1,34,54.29a2,2,0,0,1,1.74-.87A1.74,1.74,0,0,1,37.48,54.59Zm-1.91,1.52a1.36,1.36,0,0,0-1,.41,1.39,1.39,0,0,0-.4,1,1.28,1.28,0,0,0,.38.92,1.36,1.36,0,0,0,1,.39,1.29,1.29,0,0,0,1-.4,1.39,1.39,0,0,0,.36-1,1.19,1.19,0,0,0-.41-1A1.37,1.37,0,0,0,35.57,56.11Z" style="fill:#0c0a35"/><path d="M13.65,8.83c0,.26.1.62.1.88s0,.52,0,.78a3.61,3.61,0,0,1-1.08,2.33c.6,0,2.11,0,2.71,0a3.56,3.56,0,0,1-1.08-2.33,6.78,6.78,0,0,1,0-.78c0-.26.1-.62.1-.88Z" style="fill:#0c0a35"/><path d="M13.83,9.47c-.25,0-.39.28-.85.78a2.65,2.65,0,0,1-1.77,1.05,1.7,1.7,0,0,1-1.4-.59A3.15,3.15,0,0,1,9.33,9.6a2.82,2.82,0,0,1,.24-2.15,1.5,1.5,0,0,1,1.95-.61c.32.19.43.43.72.49a.14.14,0,0,0,.15-.16c-.12-.46-.44-.51-.59-1a1.56,1.56,0,0,1,.63-1.94,3,3,0,0,1,3.13,0,1.42,1.42,0,0,1,.64,1.73c-.14.5-.42.73-.56,1.16a.18.18,0,0,0,.24.22c.21-.08.33-.28.61-.45a1.49,1.49,0,0,1,1.94.61,2.87,2.87,0,0,1,.25,2.15,3.17,3.17,0,0,1-.49,1.11,1.68,1.68,0,0,1-1.4.59A2.6,2.6,0,0,1,15,10.25c-.46-.5-.61-.74-.86-.78Z" style="fill:#0c0a35"/><path d="M26.58,8.83c0,.26.1.62.1.88a6.78,6.78,0,0,1,0,.78,3.55,3.55,0,0,1-1.07,2.33c.6,0,2.1,0,2.71,0a3.51,3.51,0,0,1-1.08-2.33,6.78,6.78,0,0,1,0-.78c0-.26.1-.62.1-.88Z" style="fill:#0c0a35"/><path d="M26.76,9.47c-.25,0-.39.28-.85.78a2.65,2.65,0,0,1-1.77,1.05,1.7,1.7,0,0,1-1.4-.59,3.17,3.17,0,0,1-.49-1.11,2.87,2.87,0,0,1,.25-2.15,1.5,1.5,0,0,1,1.95-.61c.32.19.43.43.72.49a.14.14,0,0,0,.15-.16c-.12-.46-.44-.51-.59-1a1.56,1.56,0,0,1,.63-1.94,3,3,0,0,1,3.13,0,1.42,1.42,0,0,1,.64,1.73c-.14.5-.43.73-.56,1.16a.17.17,0,0,0,.23.22c.22-.08.34-.28.62-.45a1.49,1.49,0,0,1,1.94.61,2.87,2.87,0,0,1,.25,2.15,3.17,3.17,0,0,1-.49,1.11,1.7,1.7,0,0,1-1.4.59A2.6,2.6,0,0,1,28,10.25c-.47-.5-.61-.74-.86-.78Z" style="fill:#0c0a35"/><path d="M27.28,53.46c0-.26-.1-.63-.1-.88a6.87,6.87,0,0,1,0-.79,3.49,3.49,0,0,1,1.08-2.32c-.61,0-2.11,0-2.71,0a3.52,3.52,0,0,1,1.07,2.32,6.87,6.87,0,0,1,0,.79c0,.25-.1.62-.1.88Z" style="fill:#0c0a35"/><path d="M27.1,52.82c.25,0,.39-.28.86-.78a2.6,2.6,0,0,1,1.76-1,1.69,1.69,0,0,1,1.4.58,3.3,3.3,0,0,1,.49,1.12,2.87,2.87,0,0,1-.25,2.15,1.5,1.5,0,0,1-1.94.61c-.33-.2-.43-.43-.73-.49a.13.13,0,0,0-.15.16c.12.45.44.51.59,1.05a1.56,1.56,0,0,1-.63,1.94,3,3,0,0,1-3.13,0,1.42,1.42,0,0,1-.64-1.73c.14-.5.43-.73.56-1.16a.18.18,0,0,0-.23-.23c-.22.09-.34.29-.61.46a1.51,1.51,0,0,1-1.95-.61,2.87,2.87,0,0,1-.25-2.15,3.3,3.3,0,0,1,.49-1.12,1.69,1.69,0,0,1,1.4-.58,2.65,2.65,0,0,1,1.77,1c.46.5.6.74.85.78Z" style="fill:#0c0a35"/><path d="M14.35,53.46c0-.26-.1-.63-.1-.88a6.87,6.87,0,0,1,0-.79,3.54,3.54,0,0,1,1.08-2.32c-.6,0-2.11,0-2.71,0a3.58,3.58,0,0,1,1.08,2.32c0,.26,0,.52,0,.79s-.1.62-.1.88Z" style="fill:#0c0a35"/><path d="M14.17,52.82c.25,0,.4-.28.86-.78a2.6,2.6,0,0,1,1.76-1,1.68,1.68,0,0,1,1.4.58,3.3,3.3,0,0,1,.49,1.12,2.87,2.87,0,0,1-.25,2.15,1.5,1.5,0,0,1-1.94.61c-.33-.2-.43-.43-.73-.49a.12.12,0,0,0-.14.16c.11.45.43.51.58,1.05a1.56,1.56,0,0,1-.63,1.94,3,3,0,0,1-3.13,0,1.42,1.42,0,0,1-.64-1.73c.14-.5.43-.73.56-1.16a.18.18,0,0,0-.23-.23c-.22.09-.34.29-.61.46a1.51,1.51,0,0,1-1.95-.61,2.82,2.82,0,0,1-.24-2.15,3.28,3.28,0,0,1,.48-1.12,1.69,1.69,0,0,1,1.4-.58A2.65,2.65,0,0,1,13,52c.46.5.6.74.85.78Z" style="fill:#0c0a35"/><path d="M13.65,20.88c0,.26.1.63.1.88s0,.53,0,.78a3.61,3.61,0,0,1-1.08,2.33c.6,0,2.11,0,2.71,0a3.56,3.56,0,0,1-1.08-2.33,6.69,6.69,0,0,1,0-.78c0-.25.1-.62.1-.88Z" style="fill:#0c0a35"/><path d="M13.83,21.52c-.25,0-.39.28-.85.78a2.65,2.65,0,0,1-1.77,1.05,1.67,1.67,0,0,1-1.4-.59,3.15,3.15,0,0,1-.48-1.11,2.82,2.82,0,0,1,.24-2.15,1.51,1.51,0,0,1,1.95-.61c.32.2.43.43.72.49a.14.14,0,0,0,.15-.16c-.12-.46-.44-.51-.59-1a1.56,1.56,0,0,1,.63-1.94,3,3,0,0,1,3.13,0A1.42,1.42,0,0,1,16.2,18c-.14.5-.42.73-.56,1.16a.18.18,0,0,0,.24.22c.21-.08.33-.28.61-.45a1.5,1.5,0,0,1,1.94.61,2.87,2.87,0,0,1,.25,2.15,3.17,3.17,0,0,1-.49,1.11,1.65,1.65,0,0,1-1.4.59A2.6,2.6,0,0,1,15,22.3c-.46-.5-.61-.74-.86-.78Z" style="fill:#0c0a35"/><path d="M26.58,20.88c0,.26.1.63.1.88a6.69,6.69,0,0,1,0,.78,3.55,3.55,0,0,1-1.07,2.33c.6,0,2.1,0,2.71,0a3.51,3.51,0,0,1-1.08-2.33,6.69,6.69,0,0,1,0-.78c0-.25.1-.62.1-.88Z" style="fill:#0c0a35"/><path d="M26.76,21.52c-.25,0-.39.28-.85.78a2.65,2.65,0,0,1-1.77,1.05,1.67,1.67,0,0,1-1.4-.59,3.17,3.17,0,0,1-.49-1.11,2.87,2.87,0,0,1,.25-2.15,1.51,1.51,0,0,1,1.95-.61c.32.2.43.43.72.49a.14.14,0,0,0,.15-.16c-.12-.46-.44-.51-.59-1a1.56,1.56,0,0,1,.63-1.94,3,3,0,0,1,3.13,0A1.42,1.42,0,0,1,29.13,18c-.14.5-.43.73-.56,1.16a.17.17,0,0,0,.23.22c.22-.08.34-.28.62-.45a1.5,1.5,0,0,1,1.94.61,2.87,2.87,0,0,1,.25,2.15,3.17,3.17,0,0,1-.49,1.11,1.67,1.67,0,0,1-1.4.59A2.6,2.6,0,0,1,28,22.3c-.47-.5-.61-.74-.86-.78Z" style="fill:#0c0a35"/><path d="M27.28,42c0-.26-.1-.63-.1-.88a6.87,6.87,0,0,1,0-.79A3.49,3.49,0,0,1,28.29,38c-.61,0-2.11,0-2.71,0a3.52,3.52,0,0,1,1.07,2.32,6.87,6.87,0,0,1,0,.79c0,.25-.1.62-.1.88Z" style="fill:#0c0a35"/><path d="M27.1,41.33c.25,0,.39-.28.86-.78a2.6,2.6,0,0,1,1.76-1,1.67,1.67,0,0,1,1.4.59,3.17,3.17,0,0,1,.49,1.11,2.87,2.87,0,0,1-.25,2.15,1.5,1.5,0,0,1-1.94.61c-.33-.2-.43-.43-.73-.49a.13.13,0,0,0-.15.16c.12.46.44.51.59,1a1.54,1.54,0,0,1-.63,1.93,3,3,0,0,1-3.13,0,1.41,1.41,0,0,1-.64-1.72c.14-.5.43-.73.56-1.16a.18.18,0,0,0-.23-.23c-.22.09-.34.29-.61.46a1.51,1.51,0,0,1-1.95-.61,2.87,2.87,0,0,1-.25-2.15,3.17,3.17,0,0,1,.49-1.11,1.67,1.67,0,0,1,1.4-.59,2.65,2.65,0,0,1,1.77,1c.46.5.6.74.85.78Z" style="fill:#0c0a35"/><path d="M14.35,42c0-.26-.1-.63-.1-.88a6.87,6.87,0,0,1,0-.79A3.54,3.54,0,0,1,15.36,38c-.6,0-2.11,0-2.71,0a3.58,3.58,0,0,1,1.08,2.32c0,.26,0,.52,0,.79s-.1.62-.1.88Z" style="fill:#0c0a35"/><path d="M14.17,41.33c.25,0,.4-.28.86-.78a2.6,2.6,0,0,1,1.76-1,1.65,1.65,0,0,1,1.4.59,3.17,3.17,0,0,1,.49,1.11,2.87,2.87,0,0,1-.25,2.15,1.5,1.5,0,0,1-1.94.61c-.33-.2-.43-.43-.73-.49a.12.12,0,0,0-.14.16c.11.46.43.51.58,1a1.54,1.54,0,0,1-.63,1.93,3,3,0,0,1-3.13,0,1.41,1.41,0,0,1-.64-1.72c.14-.5.43-.73.56-1.16a.18.18,0,0,0-.23-.23c-.22.09-.34.29-.61.46a1.51,1.51,0,0,1-1.95-.61,2.82,2.82,0,0,1-.24-2.15,3.15,3.15,0,0,1,.48-1.11,1.67,1.67,0,0,1,1.4-.59,2.65,2.65,0,0,1,1.77,1c.46.5.6.74.85.78Z" style="fill:#0c0a35"/><path d="M20.42,32.05c0,.26.1.63.1.89a6.78,6.78,0,0,1,0,.78A3.49,3.49,0,0,1,19.41,36c.6,0,2.11,0,2.71,0a3.52,3.52,0,0,1-1.07-2.32,6.78,6.78,0,0,1,0-.78c0-.26.1-.63.1-.89Z" style="fill:#0c0a35"/><path d="M20.6,32.7c-.25,0-.39.28-.85.77A2.58,2.58,0,0,1,18,34.52a1.68,1.68,0,0,1-1.4-.58,3.3,3.3,0,0,1-.49-1.12,2.92,2.92,0,0,1,.24-2.15,1.51,1.51,0,0,1,2-.6c.33.19.43.43.73.48a.13.13,0,0,0,.15-.16c-.12-.45-.44-.51-.59-1.05a1.54,1.54,0,0,1,.63-1.93,3,3,0,0,1,3.13,0A1.41,1.41,0,0,1,23,29.13c-.14.5-.43.73-.56,1.16a.18.18,0,0,0,.23.23c.22-.09.34-.29.61-.45a1.5,1.5,0,0,1,1.95.6,2.87,2.87,0,0,1,.25,2.15A3.3,3.3,0,0,1,25,33.94a1.69,1.69,0,0,1-1.4.58,2.58,2.58,0,0,1-1.77-1.05c-.46-.49-.6-.74-.85-.77Z" style="fill:#0c0a35"/></g></g></g></svg>