<svg xmlns="http://www.w3.org/2000/svg" viewBox="0 0 40.93 62.29"><title>ca</title><g id="Layer_2" data-name="Layer 2"><g id="Layer_1-2" data-name="Layer 1"><g id="ca"><rect x="0.09" y="0.09" width="40.74" height="62.1" rx="3.45" style="fill:#fff"/><path d="M37.39,62.29H3.54A3.55,3.55,0,0,1,0,58.74V3.54A3.55,3.55,0,0,1,3.54,0H37.39a3.55,3.55,0,0,1,3.54,3.54v55.2A3.55,3.55,0,0,1,37.39,62.29ZM3.54.19A3.35,3.35,0,0,0,.19,3.54v55.2A3.36,3.36,0,0,0,3.54,62.1H37.39a3.36,3.36,0,0,0,3.35-3.36V3.54A3.35,3.35,0,0,0,37.39.19Z" style="fill:#2d2d2d"/><path d="M5.42,11.77c0,.1,0,.24,0,.34a3,3,0,0,0,0,.31,1.34,1.34,0,0,0,.42.91H4.76a1.39,1.39,0,0,0,.42-.91c0-.1,0-.2,0-.31s0-.24,0-.34Z" style="fill:#0c0a35"/><path d="M5.35,12c.1,0,.16.11.34.3a1,1,0,0,0,.69.41.61.61,0,0,0,.55-.23,1.28,1.28,0,0,0,.19-.43,1.12,1.12,0,0,0-.1-.84A.58.58,0,0,0,6.26,11c-.13.08-.17.17-.28.19a0,0,0,0,1-.06-.06c0-.18.17-.2.23-.41A.61.61,0,0,0,5.9,10a1.16,1.16,0,0,0-1.22,0,.55.55,0,0,0-.25.67,4,4,0,0,0,.22.46c0,.05,0,.11-.09.09A1.66,1.66,0,0,1,4.32,11a.6.6,0,0,0-.77.24,1.28,1.28,0,0,0,.1,1.27.61.61,0,0,0,.55.23,1,1,0,0,0,.69-.41c.18-.19.23-.29.33-.3Z" style="fill:#0c0a35"/><path d="M7.57,8.74H6.83L6.26,7.06H4.12L3.61,8.74H3L4.87,3h.82ZM6.1,6.53,5.21,3.76,4.32,6.53Z" style="fill:#0c0a35"/><path d="M35.49,50.52c0-.1,0-.25,0-.35s0-.2,0-.3A1.39,1.39,0,0,0,35.1,49h1.06a1.4,1.4,0,0,0-.43.91c0,.1,0,.2,0,.3s0,.25,0,.35Z" style="fill:#0c0a35"/><path d="M35.56,50.27c-.1,0-.15-.11-.33-.31a1.1,1.1,0,0,0-.69-.41.67.67,0,0,0-.55.23,1.16,1.16,0,0,0-.19.44,1.11,1.11,0,0,0,.09.84.59.59,0,0,0,.76.24c.13-.08.17-.17.29-.19s.06,0,.06.06-.18.2-.23.41a.62.62,0,0,0,.24.76,1.21,1.21,0,0,0,1.23,0,.57.57,0,0,0,.25-.68c-.06-.19-.17-.28-.22-.45a.07.07,0,0,1,.09-.09c.08,0,.13.11.24.18a.59.59,0,0,0,.76-.24,1.16,1.16,0,0,0,.1-.84,1.34,1.34,0,0,0-.19-.44.68.68,0,0,0-.55-.23A1,1,0,0,0,36,50c-.18.2-.24.29-.34.31Z" style="fill:#0c0a35"/><path d="M33.38,53.54h.73l.58,1.68h2.14l.51-1.68h.6l-1.87,5.75h-.81Zm1.47,2.22.89,2.76.89-2.76Z" style="fill:#0c0a35"/><path d="M20.12,31.68c0,.26.1.62.1.88a6.78,6.78,0,0,1,0,.78,3.61,3.61,0,0,1-1.08,2.33c.6,0,2.11,0,2.71,0a3.61,3.61,0,0,1-1.08-2.33,6.78,6.78,0,0,1,0-.78c0-.26.11-.62.1-.88Z" style="fill:#0c0a35"/><path d="M20.3,32.32c-.25,0-.4.28-.86.78a2.63,2.63,0,0,1-1.76,1,1.69,1.69,0,0,1-1.41-.59,3.15,3.15,0,0,1-.48-1.11A2.91,2.91,0,0,1,16,30.3,1.51,1.51,0,0,1,18,29.69c.32.19.43.43.73.49a.13.13,0,0,0,.14-.16c-.12-.46-.44-.51-.59-1.05A1.57,1.57,0,0,1,18.9,27,3,3,0,0,1,22,27a1.43,1.43,0,0,1,.64,1.73c-.14.5-.43.73-.57,1.16a.18.18,0,0,0,.24.22c.22-.08.33-.28.61-.45a1.5,1.5,0,0,1,1.95.61,2.87,2.87,0,0,1,.24,2.15,3.15,3.15,0,0,1-.48,1.11,1.68,1.68,0,0,1-1.4.59,2.65,2.65,0,0,1-1.77-1c-.46-.5-.6-.74-.86-.78Z" style="fill:#0c0a35"/></g></g></g></svg>