<svg xmlns="http://www.w3.org/2000/svg" xmlns:xlink="http://www.w3.org/1999/xlink" viewBox="0 0 40.93 62.29"><defs><clipPath id="clip-path"><path d="M24.69,47.24a.2.2,0,0,0,.24.19,2.93,2.93,0,0,0,1.59-1,2.36,2.36,0,0,0,.83-1.72c-.24-.1-1.33,0-2.43,1.7A1.55,1.55,0,0,0,24.69,47.24Z" style="fill:none"/></clipPath><clipPath id="clip-path-2"><path d="M24.5,47.07a.29.29,0,0,1-.41.33A4.31,4.31,0,0,1,21.27,45a.11.11,0,0,1,.08-.16,2.69,2.69,0,0,1,2,.18,1.24,1.24,0,0,1,.34.22A2.37,2.37,0,0,1,24.5,47.07Z" style="fill:none"/></clipPath><clipPath id="clip-path-3"><path d="M13.08,42.27a3.48,3.48,0,0,0-2.19,1.29,5.15,5.15,0,0,0-1,2.09,4.71,4.71,0,0,0,.39,2.84A5.46,5.46,0,0,0,11,49.55a17.85,17.85,0,0,0,1.42,1.6,9,9,0,0,0,4.11,2.24,3.88,3.88,0,0,0,2.71-.15,1.24,1.24,0,0,0,.43-.36,1.35,1.35,0,0,0,.17-.6,11.21,11.21,0,0,0-3.18-8.72,6.28,6.28,0,0,0-1.24-.93A3.09,3.09,0,0,0,13.08,42.27Z" style="fill:none"/></clipPath><clipPath id="clip-path-4"><path d="M16.18,15.15a.19.19,0,0,0-.24-.19,2.92,2.92,0,0,0-1.59,1,2.38,2.38,0,0,0-.83,1.72c.25.11,1.33,0,2.44-1.7A1.6,1.6,0,0,0,16.18,15.15Z" style="fill:none"/></clipPath><clipPath id="clip-path-5"><path d="M16.37,15.32c0-.14,0-.3.17-.35a.4.4,0,0,1,.24,0A4.32,4.32,0,0,1,19.6,17.4a.12.12,0,0,1-.07.17,2.69,2.69,0,0,1-2-.18,1.38,1.38,0,0,1-.35-.22A2.4,2.4,0,0,1,16.37,15.32Z" style="fill:none"/></clipPath><clipPath id="clip-path-6"><path d="M18.6,23.86A3.93,3.93,0,0,1,17,23.78a2.55,2.55,0,0,1-1.54-1.08A2.51,2.51,0,0,1,14.83,21a4.71,4.71,0,0,1,.47-2.73,2.65,2.65,0,0,0,2.29,1.65,5.36,5.36,0,0,0,2.49-.64c.67-.34.81-.5,1.42-.84a6.11,6.11,0,0,1-.77,4.05,3.13,3.13,0,0,1-.85.89A2.64,2.64,0,0,1,18.6,23.86Z" style="fill:none"/></clipPath><clipPath id="clip-path-7"><path d="M22.28,38.51a3.75,3.75,0,0,1,1.61.07,3.11,3.11,0,0,1,2.16,2.8,4.81,4.81,0,0,1-.47,2.73,2.67,2.67,0,0,0-2.29-1.66,5.5,5.5,0,0,0-2.49.65c-.67.33-.82.49-1.42.83a6.08,6.08,0,0,1,.77-4A2.78,2.78,0,0,1,21,39,2.46,2.46,0,0,1,22.28,38.51Z" style="fill:none"/></clipPath><clipPath id="clip-path-8"><path d="M27.8,20.12A3.45,3.45,0,0,0,30,18.82a4.91,4.91,0,0,0,1-2.09,4.69,4.69,0,0,0-.39-2.83,5.17,5.17,0,0,0-.74-1.06,17.92,17.92,0,0,0-1.41-1.6A9.12,9.12,0,0,0,24.3,9a3.88,3.88,0,0,0-2.71.16,1.19,1.19,0,0,0-.42.35,1.4,1.4,0,0,0-.18.6,11.2,11.2,0,0,0,3.18,8.72,6.59,6.59,0,0,0,1.24.93A3.18,3.18,0,0,0,27.8,20.12Z" style="fill:none"/></clipPath></defs><title>cj</title><g id="Layer_2" data-name="Layer 2"><g id="Layer_1-2" data-name="Layer 1"><g id="cj"><rect x="0.09" y="0.09" width="40.74" height="62.1" rx="3.45" style="fill:#fff"/><path d="M37.39,62.29H3.54A3.55,3.55,0,0,1,0,58.74V3.54A3.55,3.55,0,0,1,3.54,0H37.39a3.55,3.55,0,0,1,3.54,3.54v55.2A3.55,3.55,0,0,1,37.39,62.29ZM3.54.19A3.35,3.35,0,0,0,.19,3.54v55.2A3.36,3.36,0,0,0,3.54,62.1H37.39a3.36,3.36,0,0,0,3.35-3.36V3.54A3.35,3.35,0,0,0,37.39.19Z" style="fill:#2d2d2d"/><path d="M6.62,31.13a.81.81,0,0,0-.48.16.86.86,0,0,0-.18.4,11.14,11.14,0,0,0,.47,6.89.61.61,0,0,0,.13.22.52.52,0,0,0,.28.13,5.24,5.24,0,0,0,3.09-.49l1.4-.54-1-4.9a1.85,1.85,0,0,0-.21-.64,1.71,1.71,0,0,0-.57-.53A4.73,4.73,0,0,0,6.62,31.13Z" style="fill:#222272"/><path d="M34.13,30.85a.75.75,0,0,0,.48-.16.78.78,0,0,0,.18-.4,11.14,11.14,0,0,0-.47-6.89.61.61,0,0,0-.13-.22.62.62,0,0,0-.27-.13,5.27,5.27,0,0,0-3.1.5l-1.4.53,1,4.9a2,2,0,0,0,.21.64,1.56,1.56,0,0,0,.58.53A4.69,4.69,0,0,0,34.13,30.85Z" style="fill:#222272"/><path d="M28.34,38.46a22.58,22.58,0,0,1-5.64.88,32.5,32.5,0,0,1-5.92-.1c-.88-.11-1.75-.29-2.64-.32-1.47-.05-2,.28-3.43-.05-.23,0-1-.31-1.05-.55,0-1-.17-3.45-.35-2.1-.22,1.65,0-1.48-.1-3.15A42,42,0,0,1,9,27.58c.16-1.82-1.49-3.49.1-4.73a11.22,11.22,0,0,1,5.51-2.06c.74-.06,1,.42,1.78.34,1-.11,1.94-.3,2.91-.43a24.19,24.19,0,0,1,5.89-.07c1.32.15,2.34-.37,4.4,1.11a6,6,0,0,1,2.44,3c.51,1.82-.37,4.11-.21,6A11,11,0,0,1,31,36.21a3.93,3.93,0,0,1-.82,1.25A4.86,4.86,0,0,1,28.34,38.46Z" style="fill:#191956"/><path d="M12.53,23.93a22.59,22.59,0,0,1,5.65-.88,31.52,31.52,0,0,1,5.91.1c.88.11,1.75.28,2.64.31a19.23,19.23,0,0,1,3.88.21c.23.06.33.48.45.65a1.45,1.45,0,0,1,.2.65,42.16,42.16,0,0,0,.4,4.34,43.83,43.83,0,0,1,.22,5.49c-.16,1.83,1.48,3.49-.11,4.74a11.32,11.32,0,0,1-5.51,2.06c-.74,0-1-.43-1.78-.35-1,.11-1.94.3-2.91.44a24.19,24.19,0,0,1-5.89.06c-1.32-.15-2.34.37-4.4-1.11a5.91,5.91,0,0,1-2.44-3c-.51-1.82.37-4.11.21-6a11.24,11.24,0,0,1,.78-5.52,4,4,0,0,1,.82-1.26A4.84,4.84,0,0,1,12.53,23.93Z" style="fill:#191956"/><path d="M32.3,25a.84.84,0,0,1-.35.73c-1.84,1.66-3.19,2.79-4.54,4-1.62,1.42-5.31,4.37-5.67,4.79a32.32,32.32,0,0,1-6.61,5.91c-.76.51-1.2,1.1-2.12,1a7.83,7.83,0,0,1-1.65-.35,5,5,0,0,1-2.9-3.65.92.92,0,0,1,0-.57,1.13,1.13,0,0,1,.36-.36c5-3.65,9.78-6.71,14.3-11,1.54-1.45,2.76-3.2,4.25-4.71.52-.54,1.8-.18,2.82.61A5.45,5.45,0,0,1,32.3,25Z" style="fill:#b70027"/><path d="M21.22,60.06a2.72,2.72,0,0,1-.72,1,.29.29,0,0,1-.18.07.37.37,0,0,1-.23-.12,7,7,0,0,1-1.69-2.32c0-.06,0-.13,0-.17a.16.16,0,0,1,.1,0,9.15,9.15,0,0,1,3.34,0,.16.16,0,0,1,.1.05c.06,0,0,.15,0,.22Z" style="fill:#0c0a35"/><path d="M23.58,44.16a4.28,4.28,0,0,0,.61-.44c.64-.57,1.23-1.15,2.81-2.61.5-.47,1-.59.86-.92s-.84-1.78-3.93-5c-.94-1-2.26-2.44-3.38-2.51-.9-.07-1.9,1.51-4,3.8a19.71,19.71,0,0,0-3.4,4,.9.9,0,0,0-.12.36c0,.36.29.64.57.86a10.06,10.06,0,0,1,2.78,3.17A7.11,7.11,0,0,1,17,46.76a.44.44,0,0,0,.11.25.45.45,0,0,0,.41,0A24.32,24.32,0,0,0,23.58,44.16Z" style="fill:#0c0a35"/><path d="M25.51,53c.12-.13.07-.34,0-.51A7.9,7.9,0,0,1,25.17,50a1.44,1.44,0,0,1,.12-.68c.17-.3.69-.59.94-.83s.37-.22.41-.49-.16-.17-.19-.22a.2.2,0,0,0-.13-.06l-.95-.23c-.12-.38.13-.76.22-1.15a6,6,0,0,0,.23-2,2.16,2.16,0,0,0-1-1.66,2.51,2.51,0,0,0-1.23-.29,5.9,5.9,0,0,0-5.36,3.39,9,9,0,0,0-.48,1.44,9.19,9.19,0,0,0-.33,2.6,4.58,4.58,0,0,0,.79,2.47,4.47,4.47,0,0,0,2.92,1.72,7.56,7.56,0,0,0,3.43-.32,2,2,0,0,0,.71-.34.73.73,0,0,0,.25-.72Z" style="fill:#ffd6a1"/><path d="M18.83,50.06a4.73,4.73,0,0,1,4.24-.2c.07,0,.15.1.13.18a2.63,2.63,0,0,1-2.11.77A4.64,4.64,0,0,1,18.83,50.06Z" style="fill:#fff"/><path d="M21.24,50.54c.27-.08.31-.49.12-.7a.7.7,0,0,0-.77-.13.42.42,0,0,0-.22.14.42.42,0,0,0,.08.53C20.59,50.51,20.72,50.69,21.24,50.54Z" style="fill:#0c0a35"/><path d="M24.69,47.24a.2.2,0,0,0,.24.19,2.93,2.93,0,0,0,1.59-1,2.36,2.36,0,0,0,.83-1.72c-.24-.1-1.33,0-2.43,1.7A1.55,1.55,0,0,0,24.69,47.24Z" style="fill:#222272"/><path d="M24.5,47.07a.29.29,0,0,1-.41.33A4.31,4.31,0,0,1,21.27,45a.11.11,0,0,1,.08-.16,2.69,2.69,0,0,1,2,.18,1.24,1.24,0,0,1,.34.22A2.37,2.37,0,0,1,24.5,47.07Z" style="fill:#222272"/><path d="M22.27,38.53a3.79,3.79,0,0,1,1.62.07,2.65,2.65,0,0,1,1.53,1.08A2.53,2.53,0,0,1,26,41.4a4.82,4.82,0,0,1-.46,2.73,2.68,2.68,0,0,0-2.29-1.66,5.43,5.43,0,0,0-2.49.65c-.68.33-.82.49-1.43.83a6.08,6.08,0,0,1,.77-4A2.89,2.89,0,0,1,21,39,2.46,2.46,0,0,1,22.27,38.53Z" style="fill:#222272"/><path d="M13.08,42.27a3.48,3.48,0,0,0-2.19,1.29,5.15,5.15,0,0,0-1,2.09,4.71,4.71,0,0,0,.39,2.84A5.46,5.46,0,0,0,11,49.55a17.85,17.85,0,0,0,1.42,1.6,9,9,0,0,0,4.11,2.24,3.88,3.88,0,0,0,2.71-.15,1.24,1.24,0,0,0,.43-.36,1.35,1.35,0,0,0,.17-.6,11.21,11.21,0,0,0-3.18-8.72,6.28,6.28,0,0,0-1.24-.93A3.09,3.09,0,0,0,13.08,42.27Z" style="fill:#222272"/><path d="M16.37,59.11a1.5,1.5,0,0,1-.51-.46,13.48,13.48,0,0,1-2.41-4.57,13.18,13.18,0,0,1,2.81,0c1.51.06,3,0,4.54,0l5.39-.12c.23,0,.51,0,.63.21s-.05.59-.26.82a21.82,21.82,0,0,0-2.37,3.61.94.94,0,0,1-.32.39,1.21,1.21,0,0,1-.34.09c-2.67.07-4.33.13-6.51.16A1.58,1.58,0,0,1,16.37,59.11Z" style="fill:#222272"/><g style="clip-path:url(#clip-path)"><path d="M24.7,47.55a9.69,9.69,0,0,0,1.73-1.26,6.83,6.83,0,0,0,1.21-2,.08.08,0,0,0-.12-.09,8.3,8.3,0,0,0-1.07,1.54,17.15,17.15,0,0,1-1.8,1.71s0,.08.05.06Z" style="fill:#b70027"/><path d="M24.62,47.19c.66-.66,2-1.36,2-2.46a.12.12,0,0,0-.2-.08c-.33.36-.51.85-.84,1.22a6.4,6.4,0,0,0-1.05,1.22.08.08,0,0,0,.13.1Z" style="fill:#b70027"/></g><g style="clip-path:url(#clip-path-2)"><path d="M24.51,47.27a11.7,11.7,0,0,0-1.74-1.46,12.27,12.27,0,0,1-1-1c-.32-.35-.52-.77-.84-1.11a.09.09,0,0,0-.15.06,3.62,3.62,0,0,0,1.18,1.88,12.52,12.52,0,0,0,1.11.94c.41.32.95.48,1.34.81.06.05.18,0,.12-.1Z" style="fill:#b70027"/><path d="M24.93,46.7a7.15,7.15,0,0,1-1.39-1.25,9.79,9.79,0,0,1-1.44-1.51A.06.06,0,0,0,22,44a2.88,2.88,0,0,0,1.11,1.65,6.17,6.17,0,0,0,1.76,1.24c.1,0,.17-.13.07-.18Z" style="fill:#b70027"/></g><g style="clip-path:url(#clip-path-3)"><path d="M20.85,52.19c-1.36.55-1.31-2.16-1.23-2.75a3.74,3.74,0,0,0-.2-2.17A7.6,7.6,0,0,0,18,45.66c-.92-1-.49-2.29-.24-3.46,0-.13-.13-.24-.23-.14a3.24,3.24,0,0,0-.46,2.78C17.29,46,18.47,46.6,19,47.51c.73,1.2-.26,2.8.35,4.1.33.69.81,1.25,1.55.76.09-.06,0-.23-.07-.18Z" style="fill:#b70027"/><path d="M20.25,53.43C18.48,53,18.52,51,18.73,49.52a1.87,1.87,0,0,0-1-2.14,4.16,4.16,0,0,1-1.44-1.22c-.55-.85-.16-1.95.05-2.83a2.58,2.58,0,0,0-1.12-2.67c-.11-.07-.2.06-.16.15a3.87,3.87,0,0,1,.53,3.07,4.37,4.37,0,0,0-.08,1.8,3.35,3.35,0,0,0,1.93,2.18c1.32.78.5,2.74.82,4,.23.94.88,1.84,1.93,1.7a.08.08,0,0,0,0-.16Z" style="fill:#b70027"/><path d="M18.45,53.87c-1.52-.49-1.14-2.7-1.09-3.89s-.74-1.62-1.54-2.35c-2.18-2,1-5.43-1.74-7a.22.22,0,0,0-.3.31c.53,1,1.09,1.49.79,2.74a6.13,6.13,0,0,0-.22,2.21,3.7,3.7,0,0,0,1.51,2.59,2.1,2.1,0,0,1,.9,2.11,7.08,7.08,0,0,0,.11,1.72c.17.9.58,1.67,1.55,1.79.12,0,.14-.18,0-.22Z" style="fill:#b70027"/><path d="M16.49,53.92c-1.35-1.09-.23-2.73-.53-4.12-.12-.54-.75-1-1.15-1.33a4.22,4.22,0,0,1-1.51-2.06c-.49-1.53.2-2.79.4-4.28a1.89,1.89,0,0,0-1.54-2.07.24.24,0,0,0-.23.39c.67.66,1.14,1.07,1,2.07-.11.6-.37,1.16-.45,1.76a5.26,5.26,0,0,0,.91,3.81,10,10,0,0,0,1.49,1.33c.78.69.4,1.74.43,2.63s.25,1.89,1.14,2c.08,0,.17-.09.09-.15Z" style="fill:#b70027"/><path d="M14.37,53.77a4.88,4.88,0,0,0,0-2.93c-.49-1-1.49-1.55-2.08-2.49-.8-1.29-.56-3.24-.17-4.62a2.24,2.24,0,0,0-.25-2.21.17.17,0,0,0-.28.11,13.41,13.41,0,0,1-.42,3.28,7.73,7.73,0,0,0,.17,3A4.33,4.33,0,0,0,12.82,50,3,3,0,0,1,14,52.16a14.36,14.36,0,0,0,.13,1.61.11.11,0,0,0,.21,0Z" style="fill:#b70027"/><path d="M13.28,53.66c.34-2-1.41-3.09-2.45-4.59s0-3.17-.14-4.79a3.5,3.5,0,0,0-1.34-2.56.24.24,0,0,0-.36.21,2.94,2.94,0,0,0,.43,1.21,3.74,3.74,0,0,1,.3,2.61A5,5,0,0,0,9.83,49c.89,1.73,2.8,2.64,3.19,4.65a.13.13,0,0,0,.26,0Z" style="fill:#b70027"/></g><path d="M25.49,52.35a1.07,1.07,0,0,0-.47-.09c-3.3.16-6.36.21-9.68.17a1.59,1.59,0,0,0-1.19.53c-.33.35-.84.95-.75,1.35s.67.37,1.47.43c1.13.08,3,0,4.13,0,2.91,0,4.45,0,7.59-.16.38,0,.46-.29.45-.67a.52.52,0,0,0-.17-.39l-1.12-1a.85.85,0,0,0-.25-.17Z" style="fill:#191956"/><path d="M27.37,40h0a.2.2,0,0,0-.24.25v0a.21.21,0,0,0,.35.1.22.22,0,0,0-.09-.36Z" style="fill:#f70032"/><path d="M26.76,39.17a.26.26,0,0,0,0,.52.26.26,0,0,0,0-.52Z" style="fill:#f70032"/><path d="M26.1,38.41a.24.24,0,0,0,0,.48.24.24,0,0,0,0-.48Z" style="fill:#f70032"/><path d="M25.6,37.71v0c-.13-.28-.57,0-.42.24l0,0a.26.26,0,0,0,.33.09.24.24,0,0,0,.08-.33Z" style="fill:#f70032"/><path d="M24.93,37.15a.28.28,0,0,0-.13-.33.21.21,0,0,0-.23,0,.25.25,0,0,0-.11.26V37a.56.56,0,0,0,0,.18.25.25,0,0,0,.24.18.26.26,0,0,0,.23-.18Z" style="fill:#f70032"/><path d="M24,36.07l0,0a.25.25,0,0,0-.36,0l0,0a.22.22,0,0,0,0,.32l0,0a.25.25,0,0,0,.36,0l0,0a.22.22,0,0,0,0-.32Z" style="fill:#f70032"/><path d="M23,35.64h0a.23.23,0,0,0,.24-.1h0a.21.21,0,0,0-.29-.29s-.07.06-.1.1a.2.2,0,0,0,.12.29Z" style="fill:#f70032"/><path d="M22.5,34.64a.27.27,0,0,0-.08-.07c-.25-.14-.46.26-.22.37h0a.21.21,0,0,0,.29-.3Z" style="fill:#f70032"/><path d="M21.46,33.84a.21.21,0,0,0,0,.41.21.21,0,0,0,0-.41Z" style="fill:#f70032"/><path d="M19.56,34.07V34a.22.22,0,0,0,.26.26.23.23,0,0,0,.16-.13.23.23,0,0,0-.14-.34c-.15,0-.35.12-.28.29Z" style="fill:#f70032"/><path d="M19,34.43a.24.24,0,0,0,0,.48.24.24,0,0,0,0-.48Z" style="fill:#f70032"/><path d="M18.34,35.09a.25.25,0,0,0,0,.49.25.25,0,0,0,0-.49Z" style="fill:#f70032"/><path d="M17.71,35.87a.21.21,0,0,0,0,.41.21.21,0,0,0,0-.41Z" style="fill:#f70032"/><path d="M16.77,36.86A.22.22,0,0,0,17,37a.2.2,0,0,0,.2-.26.2.2,0,0,0-.25-.14.2.2,0,0,0-.15.24Z" style="fill:#f70032"/><path d="M16.31,37.3a.26.26,0,0,0,0,.51.26.26,0,0,0,0-.51Z" style="fill:#f70032"/><path d="M15.53,38.07a.27.27,0,0,0,0,.53.27.27,0,0,0,0-.53Z" style="fill:#f70032"/><path d="M15,38.89a.19.19,0,0,0,0,.38.19.19,0,0,0,0-.38Z" style="fill:#f70032"/><path d="M14.44,39.54a.16.16,0,1,0,0,.33.16.16,0,0,0,0-.33Z" style="fill:#f70032"/><path d="M13.85,40.33a.24.24,0,0,0,0,.47.24.24,0,0,0,0-.47Z" style="fill:#f70032"/><path d="M22,51.41a3.29,3.29,0,0,1-1,0c-.29,0-.94.06-.68.52s.79.28,1.12.23.75-.2.8-.58c0-.13-.14-.21-.25-.19Z" style="fill:#0c0a35"/><path d="M21.09,48.69c-.19.19.11-.13.14-.16a.85.85,0,0,0,.1-.28,1.45,1.45,0,0,0,0-.51,1.14,1.14,0,0,0-.69-1.08.7.7,0,0,0-.78,1l.13.18c-.15-.19-.05-.07,0,0s-.06-.16,0,0L20,48a2.74,2.74,0,0,0,.15.4l.06.13s.34.37.14.16a.51.51,0,0,0,.7,0Z" style="fill:#f70032"/><path d="M23.43,58.48a8.13,8.13,0,0,0,.86-1.3,2.27,2.27,0,0,0,.43-1.58.51.51,0,0,0-.93-.12,8.89,8.89,0,0,0-.47,1.46,2.84,2.84,0,0,0-.21,1.46.19.19,0,0,0,.32.08Z" style="fill:#f70032"/><path d="M21.92,58.54a4.22,4.22,0,0,0,.66-1.77c.12-.52.26-1.14-.23-1.5a.58.58,0,0,0-.8.21,3.35,3.35,0,0,0-.12,1.23,5,5,0,0,0,.14,1.73.21.21,0,0,0,.35.1Z" style="fill:#f70032"/><path d="M20.25,58.54a8,8,0,0,0,.44-2.95.6.6,0,0,0-1.19,0,7.34,7.34,0,0,0,.36,2.95.23.23,0,0,0,.39,0Z" style="fill:#f70032"/><path d="M18.86,58.55a2.94,2.94,0,0,0,0-1.32c-.07-.52-.15-1-.25-1.57-.12-.68-1.16-.5-1.17.16a4.41,4.41,0,0,0,1.14,2.81.18.18,0,0,0,.3-.08Z" style="fill:#f70032"/><path d="M17.13,58.39c.2-.57-.29-1.2-.48-1.72s-.21-1.18-.82-1.28a.57.57,0,0,0-.69.69,3.75,3.75,0,0,0,.54,1.1,3.81,3.81,0,0,0,1.21,1.31.16.16,0,0,0,.24-.1Z" style="fill:#f70032"/><path d="M24.23,55.57a.25.25,0,0,0,0,.49.25.25,0,0,0,0-.49Z" style="fill:#0c0a35"/><path d="M22.08,55.44a.26.26,0,0,0,0,.51.26.26,0,0,0,0-.51Z" style="fill:#0c0a35"/><path d="M20.13,55.34a.28.28,0,0,0,0,.56.28.28,0,0,0,0-.56Z" style="fill:#0c0a35"/><path d="M18.1,55.55a.26.26,0,0,0,0,.52.26.26,0,0,0,0-.52Z" style="fill:#0c0a35"/><path d="M15.84,55.73a.24.24,0,0,0,0,.47.24.24,0,0,0,0-.47Z" style="fill:#0c0a35"/><path d="M24.84,52.89a1.92,1.92,0,0,0,.36,1,.42.42,0,0,0,.56.15.41.41,0,0,0,.08-.64c-.22-.23-.42-.48-.65-.71a.21.21,0,0,0-.35.15Z" style="fill:#0c0a35"/><path d="M23.85,53.07a1.82,1.82,0,0,1,0,.41,1.73,1.73,0,0,0,.07.55.38.38,0,0,0,.35.27.36.36,0,0,0,.37-.37,4,4,0,0,0-.12-.6,1.3,1.3,0,0,0-.3-.49.23.23,0,0,0-.39.23Z" style="fill:#0c0a35"/><path d="M22.6,52.93c0-.08,0,.1,0,.12a1.87,1.87,0,0,0,0,.34,4.46,4.46,0,0,1-.07.51.4.4,0,0,0,.27.48.39.39,0,0,0,.48-.27,1.77,1.77,0,0,0,0-.76,1,1,0,0,0-.13-.37.49.49,0,0,0-.12-.13l-.08-.06a.19.19,0,0,0-.32.14Z" style="fill:#0c0a35"/><path d="M21.33,52.81a.74.74,0,0,0-.37.52,1.82,1.82,0,0,0,0,.77.4.4,0,0,0,.76,0,2.12,2.12,0,0,0,0-.71c0-.08,0-.17,0-.26l0-.11s-.07-.2-.05-.1a.18.18,0,0,0-.26-.11Z" style="fill:#0c0a35"/><path d="M19.77,52.85a.82.82,0,0,0-.32.47,1.83,1.83,0,0,0-.16.69c0,.25.31.49.55.32a1,1,0,0,0,.34-.79.73.73,0,0,0-.2-.66.18.18,0,0,0-.21,0Z" style="fill:#0c0a35"/><path d="M18.48,52.79c-.11.16-.24.3-.34.47s-.2.35-.28.53a.37.37,0,0,0,0,.38l0,0a.33.33,0,0,0,.34.14c.31,0,.39-.42.48-.67a2.69,2.69,0,0,0,.15-.79c0-.21-.27-.26-.37-.1Z" style="fill:#0c0a35"/><path d="M16.91,52.83s-.12.1,0,0a.44.44,0,0,0-.14.13l-.16.29a1.66,1.66,0,0,0-.32.67.37.37,0,0,0,.47.36c.29-.09.43-.41.52-.69a.86.86,0,0,0,0-.75.2.2,0,0,0-.31,0Z" style="fill:#0c0a35"/><path d="M15.31,52.82l0,0,.18,0a.74.74,0,0,0-.62.31c-.22.22-.5.4-.52.73a.44.44,0,0,0,.31.42c.39.16.74-.26.9-.55s.25-.64,0-.85a1.11,1.11,0,0,0,.07.16v0a.21.21,0,0,0-.31-.18Z" style="fill:#0c0a35"/><path d="M23.92,56.47a.28.28,0,0,0,0,.56.28.28,0,0,0,0-.56Z" style="fill:#0c0a35"/><path d="M23.64,57.29a.2.2,0,0,0,0,.4.2.2,0,0,0,0-.4Z" style="fill:#0c0a35"/><path d="M22.08,56.37a.27.27,0,0,0,0,.53.27.27,0,0,0,0-.53Z" style="fill:#0c0a35"/><path d="M22,57.2a.22.22,0,0,0,0,.43.22.22,0,0,0,0-.43Z" style="fill:#0c0a35"/><path d="M20.13,56.38a.22.22,0,0,0,0,.43.22.22,0,0,0,0-.43Z" style="fill:#0c0a35"/><path d="M20.21,57.18a.23.23,0,0,0,0,.46.23.23,0,0,0,0-.46Z" style="fill:#0c0a35"/><path d="M18.09,56.84l0,0a.21.21,0,0,0,.31,0l0,0a.25.25,0,0,0-.18-.42.25.25,0,0,0-.17.42Z" style="fill:#0c0a35"/><path d="M18.53,57.27a.18.18,0,0,0,0,.36.18.18,0,0,0,0-.36Z" style="fill:#0c0a35"/><path d="M16.08,56.87a.2.2,0,0,0,0-.4c-.25,0-.26.41,0,.4Z" style="fill:#0c0a35"/><path d="M16.43,57.12a.25.25,0,0,0,0,.5.25.25,0,0,0,0-.5Z" style="fill:#0c0a35"/><path d="M20.82,36.72c0-.32,0-.64,0-1s0-.63-.29-.76a.18.18,0,0,0-.23.06c-.16.22-.05.53,0,.77s.09.63.16,1,.34.14.35-.05Z" style="fill:#990028"/><path d="M22,37.46c.11-.18.2-.37.29-.55a2.06,2.06,0,0,0,.25-.57c.05-.28-.34-.49-.48-.21s-.17.4-.25.59a1.44,1.44,0,0,0-.16.64.19.19,0,0,0,.35.1Z" style="fill:#990028"/><path d="M23.21,38a1,1,0,0,0,.52-.51c.06-.18-.14-.29-.29-.22a2.6,2.6,0,0,0-.45.37.21.21,0,0,0,.22.36Z" style="fill:#990028"/><path d="M19.46,37.36a1.76,1.76,0,0,0-.16-.54.86.86,0,0,0-.48-.57.28.28,0,0,0-.34.34,2,2,0,0,0,.3.56c.12.17.29.38.51.37a.17.17,0,0,0,.17-.16Z" style="fill:#990028"/><path d="M18.48,38.25a1.45,1.45,0,0,0-.41-.51,1.51,1.51,0,0,0-.26-.18.66.66,0,0,0-.39-.08.25.25,0,0,0-.17.43,1.55,1.55,0,0,0,.23.21,1.35,1.35,0,0,1,.26.15,2.5,2.5,0,0,0,.5.29c.2.07.31-.16.24-.31Z" style="fill:#990028"/><path d="M17.42,39.12a3.79,3.79,0,0,0-.4-.3l-.19-.14a.81.81,0,0,0-.29-.09.22.22,0,0,0-.21.36,1.45,1.45,0,0,0,.21.22l.26.14a.76.76,0,0,0,.55.08.16.16,0,0,0,.07-.27Z" style="fill:#990028"/><path d="M16.56,40.15a1.52,1.52,0,0,0-.37-.39,1,1,0,0,0-.53-.24c-.24,0-.33.29-.19.45a1.53,1.53,0,0,0,.44.27,1,1,0,0,0,.52.15.16.16,0,0,0,.13-.24Z" style="fill:#990028"/><path d="M15.87,41a1.38,1.38,0,0,0-.85-.53.22.22,0,0,0-.16.38,1.38,1.38,0,0,0,.92.36.12.12,0,0,0,.09-.21Z" style="fill:#990028"/><path d="M8.68,30.23c.36,0,.41-.37.05-.4s-.42.37-.05.4Z" style="fill:#222272"/><path d="M9.55,30.29a.37.37,0,0,0,.3.17c.22,0,.42-.19.23-.32L10,30.09q-.11,0-.06,0c-.21-.13-.51.06-.4.23Z" style="fill:#222272"/><path d="M10.76,30.53c.33,0,.37-.34,0-.37s-.37.34,0,.37Z" style="fill:#222272"/><path d="M31.1,30.64c.34-.07.22-.45-.11-.37s-.23.44.11.37Z" style="fill:#222272"/><path d="M32.11,30h0c-.19,0-.38.09-.33.24s.27.16.42.07h0c.14-.09.08-.28-.1-.3Z" style="fill:#222272"/><path d="M16.94,29c.17,0,.17-.19,0-.19s-.16.19,0,.19Z" style="fill:#222272"/><path d="M31.21,29.2c.25,0,.25-.28,0-.28s-.25.28,0,.28Z" style="fill:#222272"/><path d="M17.58,26.45a1.43,1.43,0,0,0,.77,0c.07,0,.07-.11,0-.14a1.34,1.34,0,0,0-.77,0,.09.09,0,0,0,0,.18Z" style="fill:#222272"/><path d="M14.67,27.66a1.69,1.69,0,0,0,.34.11l.18,0,.15,0s.08,0,.06-.06-.43-.18-.61-.26-.26.1-.12.16Z" style="fill:#222272"/><path d="M16.38,29.6c0,.15,0,.38.2.46s.23,0,.25-.07-.1-.32-.22-.43-.24,0-.23,0Z" style="fill:#222272"/><path d="M22.81,26.65l.29.22a.47.47,0,0,0,.31.16.06.06,0,0,0,.06-.07c0-.1-.13-.16-.21-.22a3.15,3.15,0,0,0-.29-.22c-.11-.07-.27.06-.16.13Z" style="fill:#222272"/><path d="M21.9,28c.07.07.23.3.4.23s-.1-.27-.16-.34-.34,0-.24.11Z" style="fill:#222272"/><path d="M34.8,34.42c-.61.18.05,4.34-2.95,5.94a2.11,2.11,0,0,1-1.94,0,1.65,1.65,0,0,1-.4-.39,5.21,5.21,0,0,1-1.11-3.14,10.61,10.61,0,0,1,.54-3.18,4.14,4.14,0,0,1-1.81-.87,1.31,1.31,0,0,1,0-1.85,4.52,4.52,0,0,1,2.15-1.14A3.51,3.51,0,0,1,30,29.6a5,5,0,0,1,1.09.08c1.11.18,2.22.37,3.32.59.19,0,2.11.11,2.48,1.38C37.34,33.35,36.63,33.9,34.8,34.42Z" style="fill:#0c0a35"/><path d="M20.66,33.26h0c-.2-.09-.42.09-.31.26l0,0a.25.25,0,0,0,.36,0,.18.18,0,0,0-.05-.31Z" style="fill:#f70032"/><path d="M34.21,34a2.1,2.1,0,0,0,1.46-1.21A1.3,1.3,0,0,0,35.09,31c-.42-.17-1.12,0-1,.41s.37.63.34,1a1.25,1.25,0,0,1-.69,1.08c-.38.18,0,.6.44.48Z" style="fill:#990028"/><path d="M32.26,33.43h0a.43.43,0,0,0,.4,0A2,2,0,0,0,33.15,31c-.15-.29-.74-.24-.88,0a2.32,2.32,0,0,0,0,1.45,2.51,2.51,0,0,1,0,.67c0,.12-.15.26,0,.36Z" style="fill:#990028"/><path d="M30.82,33.1A6.84,6.84,0,0,0,31,31.91a11.31,11.31,0,0,1,.46-1.27c.13-.39-.64-.5-.93-.27a2.09,2.09,0,0,0-.13,2.77c.1.11.38.08.42,0Z" style="fill:#990028"/><path d="M29.19,32.53c-.19-.49-.46-1,0-1.48.27-.28.79-.41.73-.8,0-.07-.1-.11-.19-.12a1.78,1.78,0,0,0-1.55.8c-.37.5,0,1.36.59,1.73.16.12.52.07.44-.13Z" style="fill:#990028"/><path d="M31,39.54a.15.15,0,1,0,0,.29.15.15,0,1,0,0-.29Z" style="fill:#f70032"/><path d="M31.88,39a.22.22,0,1,0-.05.43.22.22,0,1,0,.05-.43Z" style="fill:#f70032"/><path d="M30.7,38.67a.13.13,0,1,0,0,.25c.19,0,.22-.24,0-.25Z" style="fill:#f70032"/><path d="M32.66,38.05a.22.22,0,0,0-.14-.11c-.14-.06-.31.06-.28.19h0a.38.38,0,0,1,0-.1v0a.19.19,0,0,0,.18.26.21.21,0,0,0,.23-.27Z" style="fill:#f70032"/><path d="M33,37h0a.15.15,0,0,0,0,.28l0,0c.13.06.31,0,.33-.13S33.1,36.94,33,37Z" style="fill:#f70032"/><path d="M31.2,36.94a.28.28,0,0,0,.16-.09c.12-.13-.06-.31-.23-.24h.11c-.12,0-.26,0-.27.14s.1.21.23.19Z" style="fill:#f70032"/><path d="M30.4,37.59c-.22,0-.25.26,0,.28s.25-.26,0-.28Z" style="fill:#f70032"/><path d="M29.92,38.39h0c-.14-.09-.33,0-.26.18v0c.12.22.5,0,.27-.19Z" style="fill:#f70032"/><path d="M30.12,39.37v0c0-.15-.27-.17-.32,0l0,0c-.09.24.38.28.35,0Z" style="fill:#f70032"/><path d="M29.55,37a.14.14,0,0,0,0-.12c-.09-.13-.35-.09-.32.08V37c0,.16.32.16.34,0Z" style="fill:#f70032"/><path d="M29.79,35.52h0a.18.18,0,0,0-.21.15v0c0,.16.22.25.36.16a.18.18,0,0,0-.12-.33Z" style="fill:#f70032"/><path d="M31.73,35.51a.26.26,0,0,0-.15-.12c-.16,0-.33.06-.3.2v0l0-.15h0a.21.21,0,0,0,.17.33c.17,0,.34-.15.25-.29Z" style="fill:#f70032"/><path d="M33,35.47a.19.19,0,1,0,0,.37.19.19,0,1,0,0-.37Z" style="fill:#f70032"/><path d="M34.14,34.58v0c0-.16-.33-.19-.37,0v0c-.09.27.4.31.38,0Z" style="fill:#f70032"/><path d="M32.71,34a.35.35,0,0,0-.37-.08.18.18,0,0,0-.08.29s.05,0,.06.06c.21.2.6-.06.39-.27Z" style="fill:#f70032"/><path d="M31.13,34.5h0c-.15,0-.33.12-.2.23a.42.42,0,0,0,.12.08c.26.11.38-.31.09-.31Z" style="fill:#f70032"/><path d="M29.78,34.67a.14.14,0,1,0,0,.27.14.14,0,1,0,0-.27Z" style="fill:#f70032"/><path d="M29.5,33.41c-.31,0-.36.38-.05.4s.36-.38.05-.4Z" style="fill:#f70032"/><path d="M31.17,33.85a.35.35,0,0,0-.3-.11.2.2,0,0,0-.1.36s0,0,0,0c.21.21.6-.06.38-.26Z" style="fill:#f70032"/><path d="M32.21,36h0c-.18,0-.25.23-.09.33h0a.25.25,0,0,0,.35-.08.21.21,0,0,0-.25-.27Z" style="fill:#f70032"/><path d="M31.69,33.08v0c0-.15-.31-.18-.36,0a0,0,0,0,1,0,0c-.08.26.39.3.37,0Z" style="fill:#f70032"/><path d="M35.08,32.42c-.3,0-.34.3,0,.32s.34-.3,0-.32Z" style="fill:#f70032"/><path d="M32.83,31.86c-.22,0-.25.23,0,.25s.25-.23,0-.25Z" style="fill:#f70032"/><path d="M30.37,31.59h0a.12.12,0,0,0,0,.23l0,0c.14.06.32,0,.34-.1s-.16-.2-.3-.16Z" style="fill:#f70032"/><path d="M28.54,31c-.3,0-.34.29,0,.32s.34-.3,0-.32Z" style="fill:#f70032"/><path d="M12.4,30.85h-.1c-.3.09-.21.37.1.33l.1,0c.21-.09.14-.32-.1-.31Z" style="fill:#f70032"/><path d="M10.05,31.74h0a.14.14,0,0,0,0-.19.31.31,0,0,0-.3-.08h0c-.24,0-.27.28-.09.35h0l-.12-.11h0a.32.32,0,0,0,.48,0Z" style="fill:#f70032"/><path d="M24.87,34.87c-.05-.15-.07-.35-.25-.44s-.1,0-.1,0a1.43,1.43,0,0,0,.15.44c0,.1.23.06.2-.05Z" style="fill:#222272"/><path d="M26.92,33.1a.86.86,0,0,0-.64-.19c-.06,0-.08.07-.05.1s.33.15.48.26.35-.06.21-.17Z" style="fill:#222272"/><path d="M30.11,28.82a1.34,1.34,0,0,0-.77,0,.08.08,0,0,0,0,.14,1.34,1.34,0,0,0,.77,0,.09.09,0,0,0,0-.18Z" style="fill:#222272"/><path d="M25.43,36.54l.22-.24.1-.12a.65.65,0,0,0,.09-.16c.05-.12-.13-.23-.24-.16a.64.64,0,0,0-.14.08,1,1,0,0,0-.12.16,1,1,0,0,0-.11.34.12.12,0,0,0,.2.1Z" style="fill:#222272"/><path d="M26.14,32.2a2.24,2.24,0,0,0-.34-.11,1.35,1.35,0,0,0-.18,0,.39.39,0,0,0-.15,0s-.08,0-.07.05.43.19.61.27.26-.1.13-.16Z" style="fill:#222272"/><path d="M10.1,35.3a1.57,1.57,0,0,0-.88-.14c-.06,0-.08.09,0,.11a4.37,4.37,0,0,0,.83.19c.1,0,.18-.12.07-.16Z" style="fill:#222272"/><path d="M13.35,23.56c-.16,0-.52-.14-.62,0s0,.05,0,.07.17.06.28.07a1.45,1.45,0,0,0,.36,0c.1,0,.07-.14,0-.15Z" style="fill:#222272"/><path d="M10.79,34.91c0-.17,0-.63-.29-.61s-.14.17-.11.26a2.35,2.35,0,0,1,.11.35.15.15,0,0,0,.29,0Z" style="fill:#222272"/><path d="M14,25.34a3.15,3.15,0,0,1-.29-.22.58.58,0,0,0-.31-.16.06.06,0,0,0-.06.08c0,.09.13.15.21.22l.29.22c.11.07.27-.06.16-.14Z" style="fill:#222272"/><path d="M28.08,38c-.07-.15-.17-.37-.37-.42a.07.07,0,0,0-.09.06c0,.15.17.27.23.41s.29.07.23,0Z" style="fill:#222272"/><path d="M19.65,2.33a2.63,2.63,0,0,1,.72-1,.3.3,0,0,1,.18-.08.37.37,0,0,1,.23.12,6.94,6.94,0,0,1,1.69,2.33.15.15,0,0,1,0,.17.16.16,0,0,1-.1,0,8.93,8.93,0,0,1-3.34,0s-.08,0-.1,0,0-.16,0-.23Z" style="fill:#0c0a35"/><path d="M17.29,18.22a5.32,5.32,0,0,0-.61.45c-.64.57-1.23,1.15-2.81,2.61-.5.46-1,.58-.85.92s.83,1.77,3.92,5c.95,1,2.26,2.44,3.38,2.52.91.06,1.81-1.24,3.94-3.53a21.65,21.65,0,0,0,3.49-4.29,1,1,0,0,0,.13-.37c0-.35-.29-.63-.58-.85a10.06,10.06,0,0,1-2.78-3.17,7.63,7.63,0,0,1-.66-1.86.44.44,0,0,0-.11-.25c-.1-.1-.27-.06-.41,0A24.29,24.29,0,0,0,17.29,18.22Z" style="fill:#0c0a35"/><path d="M15.36,9.4c-.12.13-.07.33,0,.5a8.31,8.31,0,0,1,.37,2.47,1.43,1.43,0,0,1-.13.68c-.16.31-.69.6-.94.84s-.37.22-.41.49.17.17.19.21a.21.21,0,0,0,.13.07l.95.22c.12.38-.13.77-.22,1.15a6.32,6.32,0,0,0-.23,2,2.16,2.16,0,0,0,1,1.66,2.61,2.61,0,0,0,1.23.28,5.91,5.91,0,0,0,5.36-3.38,8.49,8.49,0,0,0,.48-1.45,8.8,8.8,0,0,0,.33-2.6,4.65,4.65,0,0,0-.78-2.46,4.48,4.48,0,0,0-2.92-1.72,7.67,7.67,0,0,0-3.43.31,1.86,1.86,0,0,0-.72.35.7.7,0,0,0-.24.72Z" style="fill:#ffd6a1"/><path d="M22.05,12.33a4.77,4.77,0,0,1-4.24.2c-.08,0-.16-.1-.14-.18a2.61,2.61,0,0,1,2.11-.77A4.58,4.58,0,0,1,22.05,12.33Z" style="fill:#fff"/><path d="M19.63,11.84c-.27.08-.31.5-.12.7a.72.72,0,0,0,.78.14.45.45,0,0,0,.21-.15.39.39,0,0,0-.08-.52C20.28,11.87,20.16,11.69,19.63,11.84Z" style="fill:#0c0a35"/><path d="M16.18,15.15a.19.19,0,0,0-.24-.19,2.92,2.92,0,0,0-1.59,1,2.38,2.38,0,0,0-.83,1.72c.25.11,1.33,0,2.44-1.7A1.6,1.6,0,0,0,16.18,15.15Z" style="fill:#222272"/><path d="M16.37,15.32c0-.14,0-.3.17-.35a.4.4,0,0,1,.24,0A4.32,4.32,0,0,1,19.6,17.4a.12.12,0,0,1-.07.17,2.69,2.69,0,0,1-2-.18,1.38,1.38,0,0,1-.35-.22A2.4,2.4,0,0,1,16.37,15.32Z" style="fill:#222272"/><path d="M18.6,23.86A3.93,3.93,0,0,1,17,23.78a2.55,2.55,0,0,1-1.54-1.08A2.51,2.51,0,0,1,14.83,21a4.71,4.71,0,0,1,.47-2.73,2.65,2.65,0,0,0,2.29,1.65,5.36,5.36,0,0,0,2.49-.64c.67-.34.81-.5,1.42-.84a6.11,6.11,0,0,1-.77,4.05,3.13,3.13,0,0,1-.85.89A2.64,2.64,0,0,1,18.6,23.86Z" style="fill:#222272"/><path d="M27.8,20.12A3.45,3.45,0,0,0,30,18.82a4.91,4.91,0,0,0,1-2.09,4.69,4.69,0,0,0-.39-2.83,5.17,5.17,0,0,0-.74-1.06,17.92,17.92,0,0,0-1.41-1.6A9.12,9.12,0,0,0,24.3,9a3.88,3.88,0,0,0-2.71.16,1.19,1.19,0,0,0-.42.35,1.4,1.4,0,0,0-.18.6,11.2,11.2,0,0,0,3.18,8.72,6.59,6.59,0,0,0,1.24.93A3.18,3.18,0,0,0,27.8,20.12Z" style="fill:#222272"/><path d="M24.5,3.28a1.63,1.63,0,0,1,.52.46A13.89,13.89,0,0,1,27.43,8.3a12.66,12.66,0,0,1-2.82,0c-1.51-.07-3,0-4.53,0l-5.4.11a.7.7,0,0,1-.63-.2c-.18-.26,0-.59.26-.82a21.91,21.91,0,0,0,2.37-3.62A1,1,0,0,1,17,3.44a1.35,1.35,0,0,1,.34-.1c2.68-.06,4.33-.13,6.51-.15A1.58,1.58,0,0,1,24.5,3.28Z" style="fill:#222272"/><g style="clip-path:url(#clip-path-4)"><path d="M16.17,14.84a8.79,8.79,0,0,0-1.72,1.25,6.62,6.62,0,0,0-1.21,2c0,.08,0,.15.11.09a8,8,0,0,0,1.07-1.54,17.06,17.06,0,0,1,1.8-1.7s0-.09,0-.06Z" style="fill:#b70027"/><path d="M16.25,15.19c-.65.66-2,1.36-2,2.46a.12.12,0,0,0,.2.08c.34-.36.51-.84.84-1.22a6.11,6.11,0,0,0,1-1.22.08.08,0,0,0-.13-.1Z" style="fill:#b70027"/></g><g style="clip-path:url(#clip-path-5)"><path d="M16.36,15.12a11.3,11.3,0,0,0,1.75,1.46c.35.32.69.66,1,1s.52.78.84,1.12a.1.1,0,0,0,.16-.06,3.6,3.6,0,0,0-1.19-1.88,9.86,9.86,0,0,0-1.11-.94c-.41-.32-.95-.48-1.33-.81-.07-.06-.19,0-.13.1Z" style="fill:#b70027"/><path d="M15.94,15.69a7.15,7.15,0,0,1,1.39,1.25,10.82,10.82,0,0,1,1.45,1.5.05.05,0,0,0,.1,0,2.85,2.85,0,0,0-1.11-1.65A6.27,6.27,0,0,0,16,15.51a.1.1,0,0,0-.08.18Z" style="fill:#b70027"/></g><g style="clip-path:url(#clip-path-6)"><path d="M14.79,18.06c1.39.4,0,2.37-.18,3.09s.57,2,.77,2.74a.12.12,0,0,0,.23,0,2.26,2.26,0,0,0-.3-1.54,1.76,1.76,0,0,1,.12-1.94,1.64,1.64,0,0,0,.37-.67c0-.67,0-2-1-1.86-.1,0-.14.15,0,.18Z" style="fill:#b70027"/><path d="M15.8,18.38a2.28,2.28,0,0,1,.26,2.12c-.19.32-.52.6-.54,1a2.33,2.33,0,0,0,.35,1.31A3,3,0,0,1,16,25.34a.13.13,0,0,0,.22.13,1.94,1.94,0,0,0,.7-1.58c0-1-1.24-1.69-.64-2.7a2,2,0,0,0,.49-1.57A1.59,1.59,0,0,0,16,18.23a.12.12,0,0,0-.16.15Z" style="fill:#b70027"/><path d="M16.92,18.77a2.51,2.51,0,0,1,.32,1.63c-.08.52-.4.88-.43,1.41a2.26,2.26,0,0,0,.43,1.05,2.92,2.92,0,0,1,.07,2.74.14.14,0,0,0,.21.16,1.66,1.66,0,0,0,.77-1.47c0-1-1.11-2-.85-2.95.16-.58.83-2.69-.46-2.68a.08.08,0,0,0-.06.11Z" style="fill:#b70027"/><path d="M18,18.94c.46.9.22,1.21,0,2a1.22,1.22,0,0,0,0,.82,13.51,13.51,0,0,0,.95,1.42c.47.75-.11,1.29-.11,2a.15.15,0,0,0,.23.13c1-.65.82-1.82.26-2.71-.13-.2-.33-.43-.47-.62-.5-.62-.05-1.14,0-1.75a1.51,1.51,0,0,0-.66-1.45.11.11,0,0,0-.17.14Z" style="fill:#b70027"/><path d="M19.15,18.8a3.47,3.47,0,0,1,.15,2.31,1.51,1.51,0,0,0,.14.78,3.05,3.05,0,0,0,.43.65,2.48,2.48,0,0,1,.63,2.1.2.2,0,0,0,.34.15c.73-.81.31-1.69-.32-2.45a2.33,2.33,0,0,1-.5-2.16,1.93,1.93,0,0,0-.76-1.47.07.07,0,0,0-.11.09Z" style="fill:#b70027"/><path d="M20,18.44c.65.86.08,2,.58,2.88.3.56.83,1.33,1.55,1.21a.16.16,0,0,0,.1-.18,1.32,1.32,0,0,0-.43-.6A2.93,2.93,0,0,1,21,20.41c-.23-.79-.1-1.53-.78-2.11-.1-.08-.27,0-.19.14Z" style="fill:#b70027"/><path d="M21.05,18.32c-.1.79.51,2.26,1.43,2.31a.15.15,0,0,0,.14-.18c-.31-.77-1.16-1.3-1.28-2.17,0-.18-.27-.1-.29,0Z" style="fill:#b70027"/></g><g style="clip-path:url(#clip-path-7)"><path d="M26.08,44.3c-1.38-.39,0-2.37.19-3.08s-.57-2-.77-2.74a.12.12,0,0,0-.23,0A2.22,2.22,0,0,0,25.56,40,1.73,1.73,0,0,1,25.45,42a1.62,1.62,0,0,0-.37.68c0,.67,0,2,1,1.86a.1.1,0,0,0,0-.19Z" style="fill:#b70027"/><path d="M25.07,44a2.29,2.29,0,0,1-.25-2.12c.18-.32.51-.59.54-1A2.28,2.28,0,0,0,25,39.55,2.93,2.93,0,0,1,24.9,37a.13.13,0,0,0-.22-.13,1.94,1.94,0,0,0-.7,1.58c0,1,1.24,1.69.64,2.69a2.07,2.07,0,0,0-.5,1.57,1.62,1.62,0,0,0,.8,1.4.11.11,0,0,0,.15-.16Z" style="fill:#b70027"/><path d="M24,43.6A2.55,2.55,0,0,1,23.64,42c.08-.51.4-.87.42-1.41a2.11,2.11,0,0,0-.42-1,2.92,2.92,0,0,1-.08-2.74.15.15,0,0,0-.21-.17,1.7,1.7,0,0,0-.77,1.48c0,1,1.12,2,.86,3-.16.58-.83,2.68.45,2.67a.06.06,0,0,0,.06-.1Z" style="fill:#b70027"/><path d="M22.88,43.43c-.46-.9-.22-1.22,0-2.06a1.14,1.14,0,0,0,.05-.81A13.55,13.55,0,0,0,22,39.13c-.47-.75.11-1.28.1-2,0-.11-.13-.2-.22-.13-1,.64-.82,1.82-.26,2.71.12.19.33.43.47.61.5.63,0,1.15-.06,1.76a1.55,1.55,0,0,0,.66,1.44c.1.08.24,0,.18-.13Z" style="fill:#b70027"/><path d="M21.73,43.57a3.47,3.47,0,0,1-.15-2.31,1.4,1.4,0,0,0-.15-.78,2.16,2.16,0,0,0-.43-.65,2.53,2.53,0,0,1-.62-2.11.21.21,0,0,0-.35-.14c-.72.81-.31,1.68.32,2.45a2.3,2.3,0,0,1,.51,2.15,1.92,1.92,0,0,0,.76,1.47.07.07,0,0,0,.11-.08Z" style="fill:#b70027"/><path d="M20.83,43.92c-.65-.85-.07-2-.57-2.87-.3-.56-.83-1.33-1.55-1.21a.13.13,0,0,0-.1.17,1.27,1.27,0,0,0,.42.6A3,3,0,0,1,19.87,42c.23.79.1,1.53.78,2.11.1.08.27,0,.18-.15Z" style="fill:#b70027"/><path d="M19.83,44c.1-.79-.51-2.25-1.44-2.3a.13.13,0,0,0-.13.17c.31.77,1.16,1.31,1.28,2.17,0,.18.27.11.29,0Z" style="fill:#b70027"/></g><g style="clip-path:url(#clip-path-8)"><path d="M20,10.2c1.36-.55,1.31,2.15,1.23,2.74a3.73,3.73,0,0,0,.21,2.17,7.05,7.05,0,0,0,1.38,1.61c.92,1,.49,2.3.24,3.47,0,.13.13.24.23.13a3.25,3.25,0,0,0,.47-2.77c-.2-1.12-1.38-1.76-1.93-2.67-.73-1.2.26-2.8-.35-4.11-.33-.69-.81-1.24-1.55-.75-.09.06,0,.22.07.18Z" style="fill:#b70027"/><path d="M20.62,9c1.78.47,1.73,2.46,1.52,3.92a1.88,1.88,0,0,0,1,2.14,4.11,4.11,0,0,1,1.43,1.22c.55.84.16,1.94,0,2.83a2.55,2.55,0,0,0,1.12,2.67c.1.07.2-.06.15-.16a3.85,3.85,0,0,1-.53-3.06,4.37,4.37,0,0,0,.08-1.8,3.37,3.37,0,0,0-1.93-2.19c-1.32-.77-.49-2.73-.81-4-.24-.94-.89-1.83-1.94-1.7-.08,0-.12.14,0,.16Z" style="fill:#b70027"/><path d="M22.43,8.51c1.51.5,1.13,2.71,1.09,3.9s.73,1.62,1.53,2.35c2.18,2-1,5.42,1.74,7a.23.23,0,0,0,.31-.31c-.53-1-1.09-1.5-.8-2.74a6.18,6.18,0,0,0,.22-2.22A3.68,3.68,0,0,0,25,13.91a2,2,0,0,1-.89-2.1A7,7,0,0,0,24,10.09c-.16-.91-.58-1.67-1.54-1.79-.13,0-.14.18,0,.21Z" style="fill:#b70027"/><path d="M24.38,8.47c1.36,1.08.23,2.73.53,4.11.12.54.76,1,1.15,1.34A4.09,4.09,0,0,1,27.57,16c.5,1.54-.2,2.8-.4,4.29a1.88,1.88,0,0,0,1.54,2.06.24.24,0,0,0,.23-.39c-.66-.65-1.13-1.07-1-2.07.12-.59.38-1.15.45-1.76a5.23,5.23,0,0,0-.91-3.8A9.44,9.44,0,0,0,26,13c-.78-.7-.4-1.75-.43-2.64s-.25-1.89-1.14-2c-.08,0-.17.09-.09.15Z" style="fill:#b70027"/><path d="M26.5,8.61a4.84,4.84,0,0,0,0,2.94C27,12.56,28,13.1,28.59,14c.8,1.29.56,3.24.17,4.61A2.25,2.25,0,0,0,29,20.87c.09.11.28,0,.28-.12a14,14,0,0,1,.42-3.28,7.48,7.48,0,0,0-.17-2.94,4.29,4.29,0,0,0-1.49-2.13,3,3,0,0,1-1.2-2.17c-.05-.55,0-1.08-.14-1.62,0-.1-.19-.1-.21,0Z" style="fill:#b70027"/><path d="M27.59,8.72c-.34,2.06,1.42,3.1,2.45,4.6s0,3.16.14,4.79a3.55,3.55,0,0,0,1.34,2.56.24.24,0,0,0,.36-.21,3,3,0,0,0-.42-1.21,3.81,3.81,0,0,1-.31-2.61A5,5,0,0,0,31,13.37c-.89-1.73-2.8-2.63-3.19-4.65a.14.14,0,0,0-.26,0Z" style="fill:#b70027"/></g><path d="M15.38,10a1,1,0,0,0,.47.09c3.3-.15,6.36-.2,9.68-.17a1.56,1.56,0,0,0,1.2-.53c.32-.34.83-.94.74-1.34S26.8,7.7,26,7.65c-1.13-.09-3,0-4.13,0-2.91,0-4.45,0-7.59.15-.38,0-.45.3-.45.67a.54.54,0,0,0,.18.4l1.11,1a.9.9,0,0,0,.26.17Z" style="fill:#191956"/><path d="M13.5,22.34h0a.2.2,0,0,0,.24-.25v0a.22.22,0,0,0-.36-.09.21.21,0,0,0,.09.35Z" style="fill:#f70032"/><path d="M14.11,23.22a.26.26,0,0,0,0-.52.26.26,0,0,0,0,.52Z" style="fill:#f70032"/><path d="M14.77,24a.24.24,0,0,0,0-.48.24.24,0,0,0,0,.48Z" style="fill:#f70032"/><path d="M15.27,24.68s0,0,0,0c.12.27.56,0,.41-.25l0,0a.24.24,0,0,0-.33-.09.24.24,0,0,0-.08.33Z" style="fill:#f70032"/><path d="M15.94,25.23a.29.29,0,0,0,.13.34.27.27,0,0,0,.23,0,.26.26,0,0,0,.11-.27h0v.12a.54.54,0,0,0,0-.18.25.25,0,0,0-.24-.17.25.25,0,0,0-.23.17Z" style="fill:#f70032"/><path d="M16.83,26.32l0,0a.26.26,0,0,0,.36,0l0,0a.24.24,0,0,0,0-.33l0,0a.26.26,0,0,0-.36,0l0,0a.24.24,0,0,0,0,.33Z" style="fill:#f70032"/><path d="M17.87,26.75h0a.2.2,0,0,0-.24.1h0a.21.21,0,0,0,.28.29A.21.21,0,0,0,18,27a.19.19,0,0,0-.11-.28Z" style="fill:#f70032"/><path d="M18.37,27.75a.22.22,0,0,0,.09.07c.24.13.46-.26.21-.37h0a.21.21,0,0,0-.29.3Z" style="fill:#f70032"/><path d="M19.41,28.54a.2.2,0,0,0,0-.4.2.2,0,0,0,0,.4Z" style="fill:#f70032"/><path d="M21.31,28.32v.09h0a.21.21,0,0,0-.26-.26.25.25,0,0,0-.16.12.23.23,0,0,0,.14.34c.15,0,.35-.11.28-.28Z" style="fill:#f70032"/><path d="M21.91,28a.25.25,0,0,0,0-.49.25.25,0,0,0,0,.49Z" style="fill:#f70032"/><path d="M22.53,27.3a.25.25,0,0,0,0-.49.25.25,0,0,0,0,.49Z" style="fill:#f70032"/><path d="M23.16,26.52a.21.21,0,0,0,0-.42.21.21,0,0,0,0,.42Z" style="fill:#f70032"/><path d="M24.1,25.52a.23.23,0,0,0-.2-.15.21.21,0,0,0-.2.25.21.21,0,0,0,.25.15c.09,0,.19-.15.15-.25Z" style="fill:#f70032"/><path d="M24.56,25.08a.26.26,0,0,0,0-.51.26.26,0,0,0,0,.51Z" style="fill:#f70032"/><path d="M25.34,24.31a.27.27,0,0,0,0-.53.27.27,0,0,0,0,.53Z" style="fill:#f70032"/><path d="M25.89,23.49a.19.19,0,0,0,0-.37.19.19,0,0,0,0,.37Z" style="fill:#f70032"/><path d="M26.43,22.85a.17.17,0,0,0,0-.33.17.17,0,0,0,0,.33Z" style="fill:#f70032"/><path d="M27,22.06a.24.24,0,0,0,0-.47.24.24,0,0,0,0,.47Z" style="fill:#f70032"/><path d="M18.84,11a3.71,3.71,0,0,1,1,0c.29,0,.93-.06.67-.51s-.78-.28-1.12-.24-.75.21-.8.59c0,.13.14.2.25.18Z" style="fill:#0c0a35"/><path d="M19.78,13.7c.19-.19-.11.13-.13.16a.9.9,0,0,0-.11.27,1.51,1.51,0,0,0,0,.52,1.18,1.18,0,0,0,.69,1.08.7.7,0,0,0,.79-1l-.14-.18c.15.19.05.06,0,0s.06.16,0,0l-.06-.17a3.25,3.25,0,0,0-.15-.4l-.06-.12-.14-.16a.5.5,0,0,0-.7,0Z" style="fill:#f70032"/><path d="M17.44,3.9a8.7,8.7,0,0,0-.86,1.31,2.38,2.38,0,0,0-.43,1.58.51.51,0,0,0,.93.12,9,9,0,0,0,.48-1.47A2.88,2.88,0,0,0,17.76,4a.19.19,0,0,0-.32-.09Z" style="fill:#f70032"/><path d="M19,3.85a4,4,0,0,0-.65,1.76c-.13.53-.27,1.14.22,1.51a.59.59,0,0,0,.81-.21,3.66,3.66,0,0,0,.12-1.24,5.58,5.58,0,0,0-.14-1.73A.22.22,0,0,0,19,3.85Z" style="fill:#f70032"/><path d="M20.62,3.85a7.9,7.9,0,0,0-.44,2.94.6.6,0,0,0,1.19,0A7.29,7.29,0,0,0,21,3.85a.23.23,0,0,0-.39,0Z" style="fill:#f70032"/><path d="M22,3.83a3,3,0,0,0,0,1.33c.07.52.15,1,.25,1.57s1.16.49,1.17-.16a4.4,4.4,0,0,0-1.14-2.82.18.18,0,0,0-.3.08Z" style="fill:#f70032"/><path d="M23.74,4c-.2.57.29,1.21.48,1.72S24.43,6.89,25,7a.57.57,0,0,0,.69-.69,3.58,3.58,0,0,0-.54-1.09A3.81,3.81,0,0,0,24,3.9a.17.17,0,0,0-.24.09Z" style="fill:#f70032"/><path d="M16.64,6.82a.25.25,0,0,0,0-.49.25.25,0,0,0,0,.49Z" style="fill:#0c0a35"/><path d="M18.79,6.94a.25.25,0,0,0,0-.5.25.25,0,0,0,0,.5Z" style="fill:#0c0a35"/><path d="M20.74,7.05a.28.28,0,0,0,0-.56.28.28,0,0,0,0,.56Z" style="fill:#0c0a35"/><path d="M22.77,6.83a.26.26,0,0,0,0-.51.26.26,0,1,0,0,.51Z" style="fill:#0c0a35"/><path d="M25,6.65a.24.24,0,0,0,0-.47.24.24,0,0,0,0,.47Z" style="fill:#0c0a35"/><path d="M16,9.5a1.93,1.93,0,0,0-.36-1.06.42.42,0,0,0-.56-.14.41.41,0,0,0-.08.64c.22.23.42.48.65.7A.2.2,0,0,0,16,9.5Z" style="fill:#0c0a35"/><path d="M17,9.32a1.39,1.39,0,0,1,0-.41,2,2,0,0,0-.06-.55.38.38,0,0,0-.36-.27c-.18,0-.4.17-.37.37a3.22,3.22,0,0,0,.13.6,1.23,1.23,0,0,0,.29.49.24.24,0,0,0,.4-.23Z" style="fill:#0c0a35"/><path d="M18.27,9.46c0,.08,0-.1,0-.13a1.84,1.84,0,0,0,0-.33,4.63,4.63,0,0,1,.07-.52.39.39,0,1,0-.75-.21,1.77,1.77,0,0,0,0,.76,1,1,0,0,0,.13.37.81.81,0,0,0,.12.14s.15.12.09.05a.18.18,0,0,0,.31-.13Z" style="fill:#0c0a35"/><path d="M19.54,9.57a.73.73,0,0,0,.37-.51,1.67,1.67,0,0,0,0-.77.4.4,0,0,0-.76,0,2.06,2.06,0,0,0,0,.7,2.51,2.51,0,0,1,0,.27l0,.11s.08.19.05.1a.18.18,0,0,0,.26.1Z" style="fill:#0c0a35"/><path d="M21.1,9.53a.8.8,0,0,0,.32-.46,2.18,2.18,0,0,0,.17-.69c0-.25-.31-.5-.55-.32a1,1,0,0,0-.35.78.72.72,0,0,0,.2.66.17.17,0,0,0,.21,0Z" style="fill:#0c0a35"/><path d="M22.39,9.6a4.14,4.14,0,0,0,.34-.48L23,8.6a.42.42,0,0,0,0-.38l0,0A.32.32,0,0,0,22.65,8c-.31,0-.39.42-.48.66a2.76,2.76,0,0,0-.15.8c0,.21.27.26.37.1Z" style="fill:#0c0a35"/><path d="M24,9.56s.12-.11,0,0a.62.62,0,0,0,.14-.14l.17-.28a1.75,1.75,0,0,0,.31-.68.38.38,0,0,0-.47-.36,1,1,0,0,0-.52.69.88.88,0,0,0,0,.76.21.21,0,0,0,.31,0Z" style="fill:#0c0a35"/><path d="M25.56,9.56h0l-.17,0c.25,0,.45-.15.62-.31s.49-.4.51-.74a.42.42,0,0,0-.31-.41c-.39-.17-.74.26-.89.55s-.26.64,0,.85a.77.77,0,0,0-.07-.16,0,0,0,0,1,0,0,.21.21,0,0,0,.31.18Z" style="fill:#0c0a35"/><path d="M17,5.91a.28.28,0,0,0,0-.55.28.28,0,0,0,0,.55Z" style="fill:#0c0a35"/><path d="M17.23,5.09a.2.2,0,0,0,0-.39.2.2,0,1,0,0,.39Z" style="fill:#0c0a35"/><path d="M18.79,6a.27.27,0,0,0,0-.53.27.27,0,0,0,0,.53Z" style="fill:#0c0a35"/><path d="M18.83,5.19a.22.22,0,0,0,0-.43.22.22,0,0,0,0,.43Z" style="fill:#0c0a35"/><path d="M20.74,6a.22.22,0,0,0,0-.43.22.22,0,0,0,0,.43Z" style="fill:#0c0a35"/><path d="M20.66,5.2a.23.23,0,0,0,0-.46.23.23,0,0,0,0,.46Z" style="fill:#0c0a35"/><path d="M22.79,5.54l0,0a.23.23,0,0,0-.31,0l0,0a.25.25,0,0,0,.17.42.25.25,0,0,0,.18-.42Z" style="fill:#0c0a35"/><path d="M22.34,5.12a.19.19,0,0,0,0-.37.19.19,0,0,0,0,.37Z" style="fill:#0c0a35"/><path d="M24.8,5.51c-.27,0-.29.4,0,.4s.26-.41,0-.4Z" style="fill:#0c0a35"/><path d="M24.44,5.26a.25.25,0,0,0,0-.5.25.25,0,0,0,0,.5Z" style="fill:#0c0a35"/><path d="M20.06,25.67c0,.32,0,.64,0,1s0,.64.29.76a.18.18,0,0,0,.23-.06c.17-.21.05-.53,0-.77s-.09-.63-.16-.94-.34-.15-.34.05Z" style="fill:#990028"/><path d="M18.84,24.93a5.61,5.61,0,0,0-.29.54,2.31,2.31,0,0,0-.25.58c-.05.28.34.49.49.2s.16-.39.24-.59a1.41,1.41,0,0,0,.16-.64.19.19,0,0,0-.35-.09Z" style="fill:#990028"/><path d="M17.67,24.37c-.21.12-.46.27-.53.51a.2.2,0,0,0,.29.23c.18-.08.3-.26.45-.37s0-.51-.21-.37Z" style="fill:#990028"/><path d="M21.42,25a1.26,1.26,0,0,0,.16.54.8.8,0,0,0,.47.57c.21.08.39-.15.34-.34a1.74,1.74,0,0,0-.3-.55c-.12-.18-.28-.38-.51-.38a.16.16,0,0,0-.16.16Z" style="fill:#990028"/><path d="M22.39,24.14a1.51,1.51,0,0,0,.41.5,1.57,1.57,0,0,0,.26.19.65.65,0,0,0,.39.07.24.24,0,0,0,.17-.42,1.15,1.15,0,0,0-.23-.21l-.26-.15a2.5,2.5,0,0,0-.5-.29c-.19-.08-.31.16-.24.31Z" style="fill:#990028"/><path d="M23.45,23.27c.12.11.27.19.4.29l.2.14a.73.73,0,0,0,.28.1.22.22,0,0,0,.21-.36,1.1,1.1,0,0,0-.21-.22,2.2,2.2,0,0,0-.26-.15.81.81,0,0,0-.55-.08.17.17,0,0,0-.07.28Z" style="fill:#990028"/><path d="M24.31,22.24a1.48,1.48,0,0,0,.37.38,1,1,0,0,0,.53.25.27.27,0,0,0,.19-.45,1.52,1.52,0,0,0-.43-.28,1.1,1.1,0,0,0-.53-.14.16.16,0,0,0-.13.24Z" style="fill:#990028"/><path d="M25,21.37a1.32,1.32,0,0,0,.86.52.22.22,0,0,0,.15-.38,1.36,1.36,0,0,0-.92-.36.13.13,0,0,0-.09.22Z" style="fill:#990028"/><path d="M9.77,31.75c-.33.07-.22.44.12.37s.22-.45-.12-.37Z" style="fill:#222272"/><path d="M8.76,32.41h0c.19,0,.38-.1.34-.24s-.28-.17-.43-.08l0,0c-.15.08-.09.28.09.29Z" style="fill:#222272"/><path d="M23.93,33.35c-.17,0-.17.18,0,.18s.16-.18,0-.18Z" style="fill:#222272"/><path d="M10.06,33.27c-.25,0-.25.28,0,.28s.25-.28,0-.28Z" style="fill:#222272"/><path d="M28,36.07a1.34,1.34,0,0,0-.77,0,.08.08,0,0,0,0,.14,1.34,1.34,0,0,0,.77,0,.09.09,0,0,0,0-.18Z" style="fill:#222272"/><path d="M27.05,34.48l-.34-.11-.18,0-.15,0s-.08,0-.06.06.43.18.61.26.26-.09.12-.16Z" style="fill:#222272"/><path d="M25.06,33.08c0-.15,0-.38-.2-.46s-.23,0-.25.08.1.31.22.42.24.06.23,0Z" style="fill:#222272"/><path d="M12.56,33.26c-.06-.07-.23-.31-.4-.24s.11.28.16.34.35,0,.24-.1Z" style="fill:#222272"/><path d="M6.08,28C6.68,27.79,6,23.62,9,22a2.11,2.11,0,0,1,1.94,0,1.83,1.83,0,0,1,.4.38,5.23,5.23,0,0,1,1.11,3.14,10.61,10.61,0,0,1-.53,3.19,4.14,4.14,0,0,1,1.81.87,1.31,1.31,0,0,1,0,1.84,4.45,4.45,0,0,1-2.15,1.15,3.51,3.51,0,0,1-.66.13,4.45,4.45,0,0,1-1.09-.08c-1.11-.17-2.22-.37-3.31-.59-.2,0-2.12-.11-2.48-1.37C3.53,29,4.25,28.49,6.08,28Z" style="fill:#0c0a35"/><path d="M20.21,29.12h0c.2.1.42-.09.31-.26v0a.27.27,0,0,0-.37,0,.19.19,0,0,0,.05.31Z" style="fill:#f70032"/><path d="M6.66,28.41A2.11,2.11,0,0,0,5.2,29.63a1.31,1.31,0,0,0,.58,1.78c.43.17,1.12,0,1-.41a2.51,2.51,0,0,1-.34-1A1.25,1.25,0,0,1,7.1,28.9c.39-.18,0-.6-.44-.49Z" style="fill:#990028"/><path d="M8.61,29h0a.44.44,0,0,0-.39,0,2,2,0,0,0-.49,2.48c.15.3.74.25.89,0a2.47,2.47,0,0,0,0-1.45,2.09,2.09,0,0,1,0-.66c0-.12.15-.27-.06-.36Z" style="fill:#990028"/><path d="M10.05,29.29a6.7,6.7,0,0,0-.18,1.19,9.63,9.63,0,0,1-.46,1.27c-.13.38.64.5.93.27a2.08,2.08,0,0,0,.13-2.77c-.09-.11-.38-.09-.42,0Z" style="fill:#990028"/><path d="M11.68,29.86c.19.49.46,1,0,1.47-.27.28-.8.41-.74.8,0,.07.1.11.19.13a1.78,1.78,0,0,0,1.55-.8c.37-.5,0-1.36-.59-1.74-.16-.11-.51-.06-.44.14Z" style="fill:#990028"/><path d="M9.89,22.84c.22,0,.26-.26,0-.28s-.26.27,0,.28Z" style="fill:#f70032"/><path d="M9,23.44c.33,0,.38-.4.06-.43a.22.22,0,1,0-.06.43Z" style="fill:#f70032"/><path d="M10.17,23.72c.2,0,.23-.24,0-.25s-.23.23,0,.25Z" style="fill:#f70032"/><path d="M8.21,24.33a.32.32,0,0,0,.14.12c.14.06.32-.07.28-.19h0a.28.28,0,0,1,0,.09v0c.06-.11,0-.24-.18-.25a.2.2,0,0,0-.23.26Z" style="fill:#f70032"/><path d="M7.91,25.41H8a.15.15,0,0,0,0-.28H8c-.13-.06-.31,0-.33.12s.15.22.29.18Z" style="fill:#f70032"/><path d="M9.67,25.45a.25.25,0,0,0-.16.08c-.11.13.06.32.24.25H9.63c.13,0,.26,0,.27-.14s-.1-.21-.23-.19Z" style="fill:#f70032"/><path d="M10.47,24.8a.15.15,0,1,0,0-.29.15.15,0,1,0,0,.29Z" style="fill:#f70032"/><path d="M11,24l0,0c.13.08.32-.05.25-.18v0c-.12-.22-.5,0-.27.18Z" style="fill:#f70032"/><path d="M10.75,23a0,0,0,0,1,0,0c0,.14.28.16.33,0v0c.09-.24-.38-.28-.35,0Z" style="fill:#f70032"/><path d="M11.32,25.43a.13.13,0,0,0,0,.12c.09.14.36.1.32-.08v0c0-.16-.32-.15-.34,0Z" style="fill:#f70032"/><path d="M11.08,26.86h0a.2.2,0,0,0,.22-.14v0c0-.17-.22-.26-.35-.16a.17.17,0,0,0,.11.32Z" style="fill:#f70032"/><path d="M9.14,26.88a.36.36,0,0,0,.15.12c.16.05.33-.07.3-.21h0s0,.1,0,.15v0a.2.2,0,0,0-.17-.32c-.17,0-.34.15-.25.29Z" style="fill:#f70032"/><path d="M7.9,26.91a.19.19,0,1,0,0-.37.19.19,0,1,0,0,.37Z" style="fill:#f70032"/><path d="M6.73,27.8v0c0,.16.33.18.38,0v0c.08-.27-.41-.32-.39,0Z" style="fill:#f70032"/><path d="M8.17,28.4a.32.32,0,0,0,.36.09.18.18,0,0,0,.08-.3l-.06-.05c-.21-.2-.59.06-.38.26Z" style="fill:#f70032"/><path d="M9.74,27.89h0c.15,0,.33-.12.2-.24l-.12-.07c-.25-.11-.38.31-.09.31Z" style="fill:#f70032"/><path d="M11.09,27.71c.2,0,.24-.24,0-.26s-.24.25,0,.26Z" style="fill:#f70032"/><path d="M11.37,29a.21.21,0,1,0,.05-.41.21.21,0,1,0-.05.41Z" style="fill:#f70032"/><path d="M9.7,28.54a.33.33,0,0,0,.31.1.19.19,0,0,0,.1-.35s0,0,0,0c-.21-.2-.59.06-.38.27Z" style="fill:#f70032"/><path d="M8.67,26.38h0c.18,0,.25-.23.09-.34h0a.24.24,0,0,0-.34.09c-.07.13.07.3.25.26Z" style="fill:#f70032"/><path d="M9.18,29.3v0c0,.16.31.19.36,0v0c.08-.26-.38-.3-.37,0Z" style="fill:#f70032"/><path d="M5.79,30c.31,0,.35-.3,0-.33s-.34.3,0,.33Z" style="fill:#f70032"/><path d="M8,30.52c.22,0,.25-.22,0-.24s-.25.23,0,.24Z" style="fill:#f70032"/><path d="M10.5,30.79h0a.12.12,0,0,0,0-.23h0c-.13-.06-.32,0-.33.1s.15.19.29.15Z" style="fill:#f70032"/><path d="M12.33,31.35c.3,0,.34-.3,0-.33s-.34.3,0,.33Z" style="fill:#f70032"/><path d="M14.16,28.82c.17,0,.17-.18,0-.18s-.16.18,0,.18Z" style="fill:#222272"/><path d="M16,27.51c0,.15.07.36.24.45a.07.07,0,0,0,.1-.06,1.47,1.47,0,0,0-.15-.43c0-.1-.23-.06-.19,0Z" style="fill:#222272"/><path d="M12.91,27.41a.86.86,0,0,0,.64.19.07.07,0,0,0,0-.11c-.11-.15-.34-.14-.48-.25s-.35.06-.21.17Z" style="fill:#222272"/><path d="M17.65,29a1.34,1.34,0,0,0,.77,0,.08.08,0,0,0,0-.14,1.43,1.43,0,0,0-.77,0,.09.09,0,0,0,0,.18Z" style="fill:#222272"/><path d="M15.44,25.85l-.22.23-.1.12a.7.7,0,0,0-.09.17c0,.11.13.23.24.16a.67.67,0,0,0,.14-.09.79.79,0,0,0,.12-.15.85.85,0,0,0,.11-.34.12.12,0,0,0-.2-.1Z" style="fill:#222272"/><path d="M14.74,30.19l.34.11.17,0,.15,0s.08,0,.07-.06-.43-.18-.61-.26-.26.09-.12.16Z" style="fill:#222272"/><path d="M14.7,31.33c0,.15,0,.38.2.46s.23,0,.25-.08-.1-.31-.22-.42-.24-.06-.23,0Z" style="fill:#222272"/><path d="M30.57,27.42c0,.17,0,.63.3.61.15,0,.13-.16.1-.25a2.15,2.15,0,0,1-.11-.36c0-.16-.27-.16-.29,0Z" style="fill:#222272"/><path d="M20.56,31.19a1,1,0,0,0-.18.65c0,.21-.1.56.18.7s.46-.07.41-.23a.58.58,0,0,1,0-.17c0-.13,0-.26,0-.39a.71.71,0,0,0-.16-.57.15.15,0,0,0-.19,0Z" style="fill:#f70032"/><path d="M20.86,31.37c.13,0,.24.07.37.08a1.55,1.55,0,0,0,.43,0c.14,0,.22-.15.18-.24a.28.28,0,0,0-.32-.13l-.32,0a1.86,1.86,0,0,0-.34.05.1.1,0,1,0,0,.2Z" style="fill:#f70032"/><path d="M20.45,31.22a2.69,2.69,0,0,0-.94-.09c-.2,0-.19.25,0,.29a2.69,2.69,0,0,0,.94,0c.12,0,.11-.14,0-.17Z" style="fill:#f70032"/><path d="M20.68,32.1c-.09,0-.17.06-.17.13s.08.12.17.12.18-.06.18-.12-.08-.13-.18-.13Z" style="fill:#990028"/><path d="M21.69,31.23h0a.18.18,0,0,0-.19-.06c-.09,0-.15.09-.12.15h0a.18.18,0,0,0,.21.09.2.2,0,0,0,.11-.06.11.11,0,0,0,0-.12Z" style="fill:#990028"/><path d="M21.29,31.22h0c-.05,0-.1,0-.08.05h0a0,0,0,0,1,0,0h0s0,.06.06.06a.05.05,0,0,0,.05-.07Z" style="fill:#990028"/><path d="M19.62,31.19c-.07,0-.13,0-.13.09s.06.09.13.09.13,0,.13-.09-.06-.09-.13-.09Z" style="fill:#990028"/><path d="M20.72,31.33a1,1,0,0,0,.18-.64c0-.21.1-.56-.18-.7s-.46.07-.41.22a.58.58,0,0,1,.05.17c0,.14,0,.27,0,.4a.71.71,0,0,0,.16.57.17.17,0,0,0,.19,0Z" style="fill:#f70032"/><path d="M20.61,30.33c.1,0,.17,0,.17-.12s-.07-.13-.17-.13-.17.06-.17.13.07.12.17.12Z" style="fill:#990028"/><path d="M20.67,31.91c.08,0,.08-.09,0-.09s-.08.09,0,.09Z" style="fill:#990028"/><path d="M19.92,31.34c.08,0,.08-.08,0-.08s-.07.08,0,.08Z" style="fill:#990028"/><path d="M25.66,27.56a1,1,0,0,0-.18.65c0,.21-.1.55.18.69s.46-.06.41-.22a.58.58,0,0,1-.05-.17c0-.13,0-.26,0-.39a.73.73,0,0,0-.16-.58.17.17,0,0,0-.19,0Z" style="fill:#f70032"/><path d="M26,27.74l.37.08a1.55,1.55,0,0,0,.43,0c.14,0,.22-.14.18-.23s-.18-.15-.32-.14l-.32,0c-.12,0-.22,0-.34.06s-.13.17,0,.2Z" style="fill:#f70032"/><path d="M25.55,27.59a2.48,2.48,0,0,0-.94-.1.15.15,0,1,0,0,.29,2.47,2.47,0,0,0,.94,0c.12,0,.11-.14,0-.17Z" style="fill:#f70032"/><path d="M25.78,28.47c-.09,0-.17.05-.17.12s.08.13.17.13.18-.06.18-.13-.08-.12-.18-.12Z" style="fill:#990028"/><path d="M26.79,27.6h0a.2.2,0,0,0-.19-.06c-.09,0-.15.09-.12.16h0a.18.18,0,0,0,.21.09.2.2,0,0,0,.11-.06.11.11,0,0,0,0-.12Z" style="fill:#990028"/><path d="M26.39,27.59l0,0c-.05,0-.1,0-.07.06h0a0,0,0,0,1,0,0h0s0,0,.06,0a0,0,0,0,0,.05-.06Z" style="fill:#990028"/><path d="M24.72,27.56c-.07,0-.13,0-.13.09s.06.09.13.09.12,0,.12-.09-.05-.09-.12-.09Z" style="fill:#990028"/><path d="M25.82,27.7a1,1,0,0,0,.18-.65c0-.21.1-.56-.18-.69s-.46.06-.41.22a.58.58,0,0,1,.05.17c0,.13,0,.26,0,.39a.73.73,0,0,0,.16.58.17.17,0,0,0,.19,0Z" style="fill:#f70032"/><path d="M25.71,26.7c.1,0,.17-.06.17-.13s-.07-.12-.17-.12-.17.06-.17.12.08.13.17.13Z" style="fill:#990028"/><path d="M25.77,28.28c.08,0,.08-.09,0-.09s-.08.09,0,.09Z" style="fill:#990028"/><path d="M25,27.71a0,0,0,1,0,0-.09c-.08,0-.08.09,0,.09Z" style="fill:#990028"/><path d="M15.53,34.84a1,1,0,0,0-.19.65c0,.21-.09.55.19.69s.45-.06.4-.22a1.22,1.22,0,0,1,0-.17c0-.13,0-.27,0-.4a.71.71,0,0,0-.16-.57.15.15,0,0,0-.18,0Z" style="fill:#f70032"/><path d="M15.83,35l.36.08a1.55,1.55,0,0,0,.43,0,.2.2,0,0,0,.19-.23c0-.11-.19-.15-.33-.14l-.32,0a3.23,3.23,0,0,0-.33.06c-.14,0-.14.17,0,.2Z" style="fill:#f70032"/><path d="M15.41,34.87a2.45,2.45,0,0,0-.93-.1.15.15,0,1,0,0,.29,2.64,2.64,0,0,0,.93,0c.12,0,.12-.14,0-.17Z" style="fill:#f70032"/><path d="M15.65,35.75c-.1,0-.18,0-.18.12s.08.13.18.13.17-.06.17-.13-.08-.12-.17-.12Z" style="fill:#990028"/><path d="M16.65,34.87h0a.22.22,0,0,0-.2-.06.13.13,0,0,0-.12.16h0a.2.2,0,0,0,.22.09.17.17,0,0,0,.1-.06.1.1,0,0,0,0-.13Z" style="fill:#990028"/><path d="M16.25,34.87l0,0c-.06,0-.11,0-.08.06h0v0h0s0,0,.06,0,.07,0,.05-.06Z" style="fill:#990028"/><path d="M14.58,34.84c-.07,0-.12,0-.12.09s0,.09.12.09.13,0,.13-.09-.06-.09-.13-.09Z" style="fill:#990028"/><path d="M15.68,35a1,1,0,0,0,.19-.65c0-.21.09-.56-.19-.69s-.45.06-.4.22a.61.61,0,0,1,0,.17,2.55,2.55,0,0,1,0,.39.7.7,0,0,0,.16.57.14.14,0,0,0,.18,0Z" style="fill:#f70032"/><path d="M15.57,34c.1,0,.18-.06.18-.13s-.08-.12-.18-.12-.17.06-.17.12.08.13.17.13Z" style="fill:#990028"/><path d="M15.63,35.56c.08,0,.08-.09,0-.09s-.08.09,0,.09Z" style="fill:#990028"/><path d="M14.89,35c.08,0,.08-.09,0-.09s-.08.09,0,.09Z" style="fill:#990028"/><path d="M27.22,25.43a11.69,11.69,0,0,1,1.58-1.31,12.36,12.36,0,0,1,1.52-1.18c.41-.23.13-1-.33-.78a5.45,5.45,0,0,0-1.6,1.27,8.07,8.07,0,0,0-1.52,1.73c-.13.22.18.47.35.27Z" style="fill:#990028"/><path d="M27.61,26.66c.72-.39,1.36-.86,2-1.31.52-.34,1.51-.64,1.68-1.28a.18.18,0,0,0-.12-.22c-.64-.23-1.43.52-1.93.87a6.56,6.56,0,0,0-1.8,1.8c-.06.09.05.18.13.14Z" style="fill:#990028"/><path d="M13.12,35a17.59,17.59,0,0,1-2.45,1.35c-.39.23-1.59,1.08-1,1.65s1.57-.68,1.91-.9a6.23,6.23,0,0,0,2-1.77c.19-.27-.2-.51-.42-.33Z" style="fill:#990028"/><path d="M13.25,36.83c-.93.51-2.42,1.28-2.58,2.45-.05.3.25.66.56.44a9.4,9.4,0,0,0,1.18-1.18,10.19,10.19,0,0,0,1.15-1.4c.13-.2-.12-.41-.31-.31Z" style="fill:#990028"/><path d="M29.08,27.19a1.55,1.55,0,0,0,1.34-.59c.17-.24-.11-.56-.37-.49a2.62,2.62,0,0,0-.68.41A.84.84,0,0,0,29,27a.12.12,0,0,0,.09.15Z" style="fill:#990028"/><path d="M5.42,11.77c0,.1,0,.24,0,.34a1.56,1.56,0,0,0,0,.31,1.34,1.34,0,0,0,.42.91H4.76a1.39,1.39,0,0,0,.42-.91c0-.1,0-.2,0-.31s0-.24,0-.34Z" style="fill:#0c0a35"/><path d="M5.35,12c.1,0,.16.11.34.3a1,1,0,0,0,.69.41.61.61,0,0,0,.55-.23,1.28,1.28,0,0,0,.19-.43,1.12,1.12,0,0,0-.1-.84A.58.58,0,0,0,6.26,11c-.13.08-.17.17-.28.19a0,0,0,0,1-.06-.06c0-.18.17-.2.23-.41A.61.61,0,0,0,5.9,10a1.16,1.16,0,0,0-1.22,0,.54.54,0,0,0-.25.67,4,4,0,0,0,.22.46.08.08,0,0,1-.1.09c-.08,0-.13-.11-.24-.18a.59.59,0,0,0-.76.24,1.28,1.28,0,0,0,.1,1.27.61.61,0,0,0,.55.23,1,1,0,0,0,.69-.41c.18-.19.23-.29.33-.3Z" style="fill:#0c0a35"/><path d="M6.47,3V7A1.86,1.86,0,0,1,6,8.45a1.84,1.84,0,0,1-1.25.41,3,3,0,0,1-.84-.12V8.16a4.36,4.36,0,0,0,.75.08,1.33,1.33,0,0,0,.71-.14.79.79,0,0,0,.31-.37A2.64,2.64,0,0,0,5.75,7V3Z" style="fill:#0c0a35"/><path d="M35.51,50.52c0-.1,0-.25,0-.35s0-.2,0-.3a1.4,1.4,0,0,0-.43-.91h1.06a1.39,1.39,0,0,0-.42.91c0,.1,0,.2,0,.3s0,.25,0,.35Z" style="fill:#0c0a35"/><path d="M35.58,50.27c-.1,0-.16-.11-.34-.31a1,1,0,0,0-.69-.41.69.69,0,0,0-.55.23,1.34,1.34,0,0,0-.19.44,1.16,1.16,0,0,0,.1.84.59.59,0,0,0,.76.24c.13-.08.17-.17.29-.19s.06,0,0,.06-.17.2-.23.41-.11.44.25.76a1.19,1.19,0,0,0,1.22,0,.56.56,0,0,0,.25-.68,4.71,4.71,0,0,0-.22-.45.08.08,0,0,1,.1-.09c.08,0,.13.11.24.18a.59.59,0,0,0,.76-.24,1.11,1.11,0,0,0,.09-.84,1.16,1.16,0,0,0-.19-.44.66.66,0,0,0-.54-.23A1.1,1.1,0,0,0,36,50c-.18.2-.23.29-.33.31Z" style="fill:#0c0a35"/><path d="M34.46,59.29v-4a1.84,1.84,0,0,1,.47-1.46,1.8,1.8,0,0,1,1.25-.42,3,3,0,0,1,.84.12v.59a3.62,3.62,0,0,0-.75-.09,1.32,1.32,0,0,0-.71.15.74.74,0,0,0-.31.37,2.64,2.64,0,0,0-.07.74v4Z" style="fill:#0c0a35"/><path d="M14.77,59.11H6.19a3.1,3.1,0,0,1-3-3.19V15.66a.09.09,0,0,1,.1-.09.09.09,0,0,1,.09.09V55.92a2.92,2.92,0,0,0,2.81,3h8.58a.09.09,0,1,1,0,.18Z" style="fill:#191956"/><path d="M32.78,59.11H25.05a.09.09,0,0,1,0-.18h7.73a.09.09,0,1,1,0,.18Z" style="fill:#191956"/><path d="M37.65,46.92a.09.09,0,0,1-.1-.1V6.36a2.92,2.92,0,0,0-2.81-3H26.27a.09.09,0,0,1-.1-.09.1.1,0,0,1,.1-.1h8.47a3.11,3.11,0,0,1,3,3.19V46.82A.09.09,0,0,1,37.65,46.92Z" style="fill:#191956"/><path d="M15.8,3.36H8.45a.1.1,0,0,1-.1-.09.11.11,0,0,1,.1-.1H15.8a.1.1,0,0,1,.09.1A.09.09,0,0,1,15.8,3.36Z" style="fill:#191956"/></g></g></g></svg>