<svg xmlns="http://www.w3.org/2000/svg" xmlns:xlink="http://www.w3.org/1999/xlink" viewBox="0 0 40.93 62.29"><defs><clipPath id="clip-path"><path d="M13.11,20.46c-.55.06-.82.64-.95,1.18a3.8,3.8,0,0,0-.08.82,4.76,4.76,0,0,0,.72,2.66,2.89,2.89,0,0,0,2.32,1.34,3.92,3.92,0,0,0,1.26-.25A11,11,0,0,0,21,23.38a8.08,8.08,0,0,0,2.23-4.88c0-.1,0-.23-.09-.29a2.53,2.53,0,0,0-1.48-1.44,2.75,2.75,0,0,0-2.16.07,1.9,1.9,0,0,0-.84.72,3.85,3.85,0,0,0-.34,1.27A1.7,1.7,0,0,1,17.69,20a1.78,1.78,0,0,1-.68.24c-.62.12-1.24.21-1.87.27Z" style="fill:none"/></clipPath><clipPath id="clip-path-2"><path d="M14.52,17.91a4,4,0,0,1,1.24-.07,3.12,3.12,0,0,1,2.29,1.33,1.28,1.28,0,0,1,.23.45.91.91,0,0,1-.26.78,1.64,1.64,0,0,1-.75.42,2.92,2.92,0,0,1-3-.92c-.09-.11-.2-.24-.35-.24s-.22.15-.31.28a5.76,5.76,0,0,1-.7.68.79.79,0,0,1-.57.27.75.75,0,0,1-.55-.84,2.11,2.11,0,0,1,.83-1.41A4.93,4.93,0,0,1,14.52,17.91Z" style="fill:none"/></clipPath><clipPath id="clip-path-3"><path d="M26.08,23a2.59,2.59,0,0,0,.64-.55,5.42,5.42,0,0,0,.9-2.9,6.08,6.08,0,0,0-.1-1.2,9.69,9.69,0,0,0-1.86-4.18,3.19,3.19,0,0,0-1.24-1.07c-.22-.09-.46-.14-.69-.21-.52-.15-1-.4-1.54-.55a2.21,2.21,0,0,0-1.6.06,13.28,13.28,0,0,0,.85,5.46A15.54,15.54,0,0,0,23,21.46a4.77,4.77,0,0,0,1.07,1.21,2.28,2.28,0,0,0,1.52.48A1.12,1.12,0,0,0,26.08,23Z" style="fill:#191956"/></clipPath><clipPath id="clip-path-4"><path d="M27.83,41.15c.55,0,.83-.63,1-1.18a3.8,3.8,0,0,0,.08-.82,4.72,4.72,0,0,0-.72-2.65,2.9,2.9,0,0,0-2.31-1.35,4.21,4.21,0,0,0-1.27.25A11,11,0,0,0,20,38.24a8,8,0,0,0-2.22,4.87c0,.11,0,.24.09.29a2.46,2.46,0,0,0,1.47,1.44,2.75,2.75,0,0,0,2.16-.06,1.9,1.9,0,0,0,.84-.72,3.93,3.93,0,0,0,.35-1.27,1.69,1.69,0,0,1,.6-1.14,1.77,1.77,0,0,1,.68-.23c.62-.12,1.24-.21,1.87-.27Z" style="fill:none"/></clipPath><clipPath id="clip-path-5"><path d="M26.43,43.7a3.52,3.52,0,0,1-1.25.07A2.94,2.94,0,0,1,24,43.4a3.26,3.26,0,0,1-1.06-1,1.08,1.08,0,0,1-.22-.44.93.93,0,0,1,.25-.79,1.63,1.63,0,0,1,.75-.41,2.91,2.91,0,0,1,3,.91c.1.12.2.25.35.24s.22-.15.31-.28A6.63,6.63,0,0,1,28,41a.75.75,0,0,1,.58-.26c.36,0,.57.47.54.83A2.14,2.14,0,0,1,28.31,43,5.15,5.15,0,0,1,26.43,43.7Z" style="fill:none"/></clipPath><clipPath id="clip-path-6"><path d="M14.86,38.61a2.41,2.41,0,0,0-.63.56,5.29,5.29,0,0,0-.91,2.89,6.08,6.08,0,0,0,.1,1.2,9.68,9.68,0,0,0,1.86,4.19,3.27,3.27,0,0,0,1.24,1.07,6,6,0,0,0,.69.2c.52.16,1,.41,1.54.56a2.16,2.16,0,0,0,1.6-.07,13.17,13.17,0,0,0-.85-5.46A15.46,15.46,0,0,0,18,40.16a4.63,4.63,0,0,0-1.07-1.22,2.34,2.34,0,0,0-1.52-.48A1.26,1.26,0,0,0,14.86,38.61Z" style="fill:#191956"/></clipPath></defs><title>ck</title><g id="Layer_2" data-name="Layer 2"><g id="Layer_1-2" data-name="Layer 1"><g id="ck"><rect x="0.09" y="0.09" width="40.74" height="62.1" rx="3.45" style="fill:#fff"/><path d="M37.39,62.29H3.54A3.55,3.55,0,0,1,0,58.74V3.54A3.55,3.55,0,0,1,3.54,0H37.39a3.55,3.55,0,0,1,3.54,3.54v55.2A3.55,3.55,0,0,1,37.39,62.29ZM3.54.19A3.35,3.35,0,0,0,.19,3.54v55.2A3.36,3.36,0,0,0,3.54,62.1H37.39a3.36,3.36,0,0,0,3.35-3.36V3.54A3.35,3.35,0,0,0,37.39.19Z" style="fill:#2d2d2d"/><path d="M5,30.08a2.23,2.23,0,0,0,2.08,1.08A21.15,21.15,0,0,0,11,30.89c.35,0,.78-.17.86-.56a1.08,1.08,0,0,0,0-.44,4.79,4.79,0,0,0-.29-.93,3.45,3.45,0,0,0-2-1.61,4.11,4.11,0,0,0-3.38.07A2.47,2.47,0,0,0,5,28.5,1.94,1.94,0,0,0,5,30.08Z" style="fill:#b70027"/><path d="M35.27,31.89a2.26,2.26,0,0,0-2-1.17,22.09,22.09,0,0,0-3.9,0c-.35,0-.79.12-.89.49a1.24,1.24,0,0,0,0,.43,4.69,4.69,0,0,0,.24.91,3.38,3.38,0,0,0,1.93,1.67,4.2,4.2,0,0,0,3.38.14,2.4,2.4,0,0,0,1.1-1A1.84,1.84,0,0,0,35.27,31.89Z" style="fill:#b70027"/><path d="M6.42,25.57A1,1,0,0,1,6.61,25c1.66-2.68,5.51-4.34,9.43-4.79a36.7,36.7,0,0,1,11.72.95,10.7,10.7,0,0,1,2,.57,6.47,6.47,0,0,1,3.34,3.68,5.28,5.28,0,0,0-2.23.63A2.68,2.68,0,0,0,30,28.66a47.82,47.82,0,0,0,1.26,9.19,12.84,12.84,0,0,1-2.91.2c-5.91,0-11.82-.06-17.73-.19a.67.67,0,0,1-.35-.07.32.32,0,0,1-.1-.22c-.59-3.36,0-6.44-.91-9.77-.07-.28,1.38-.91,1.15-1.14A3.21,3.21,0,0,0,9.18,26,4.74,4.74,0,0,0,6.42,25.57Z" style="fill:#141247"/><path d="M34.52,35.77a1.1,1.1,0,0,1-.19.56c-1.66,2.81-5.51,4.56-9.43,5a35.09,35.09,0,0,1-11.72-1,10.76,10.76,0,0,1-2-.6A6.7,6.7,0,0,1,7.79,35.9,5.15,5.15,0,0,0,10,35.24,2.9,2.9,0,0,0,11,32.53,52.71,52.71,0,0,0,9.7,22.87a12.85,12.85,0,0,1,2.91-.21c5.91,0,11.82.07,17.73.21a.67.67,0,0,1,.35.07.34.34,0,0,1,.1.23c.59,3.53,0,6.77.91,10.26.07.29-1.37,1-1.15,1.2a3.25,3.25,0,0,0,1.21.69A4.6,4.6,0,0,0,34.52,35.77Z" style="fill:#141247"/><path d="M31.77,39.11C31.28,39.27,19,33.26,17,32c-2.62-1.59-10-3.9-10.38-4.26a1.74,1.74,0,0,1-.7-1.47,2.44,2.44,0,0,1,.4-1C7,24.12,8,22.89,9.3,22.68c1.51-.24,2.72,1.07,4.07,1.8C19.78,28,25.18,30.17,29.08,32c3.14,1.45,3.8,1.5,5.45,2.45.2.12.45,1-.3,2.15C33.1,38.27,33.1,38.67,31.77,39.11Z" style="fill:#0c0a35"/><path d="M16,21.7a3.22,3.22,0,0,0,1.48-.13,3.27,3.27,0,0,0,1-.73A18.9,18.9,0,0,0,20,19.45a10.8,10.8,0,0,0,2.35-4.81,1.83,1.83,0,0,0,0-1.11A2,2,0,0,0,21,12.62a7.8,7.8,0,0,0-2.22-.52,7.83,7.83,0,0,0-1.36.13l-2.2.34a1.23,1.23,0,0,0-.66.36A2,2,0,0,0,14,14.46a.79.79,0,0,1-.08.43.89.89,0,0,1-.32.29,6.17,6.17,0,0,0-1.91,2.09.78.78,0,0,0-.11.67.64.64,0,0,0,.63.31c.24,0,.48-.09.73-.08l0,1.58a2,2,0,0,0,.16,1,1.58,1.58,0,0,0,1,.65A8.1,8.1,0,0,0,16,21.7Z" style="fill:#ffd6a1"/><path d="M13.11,20.46c-.55.06-.82.64-.95,1.18a3.8,3.8,0,0,0-.08.82,4.76,4.76,0,0,0,.72,2.66,2.89,2.89,0,0,0,2.32,1.34,3.92,3.92,0,0,0,1.26-.25A11,11,0,0,0,21,23.38a8.08,8.08,0,0,0,2.23-4.88c0-.1,0-.23-.09-.29a2.53,2.53,0,0,0-1.48-1.44,2.75,2.75,0,0,0-2.16.07,1.9,1.9,0,0,0-.84.72,3.85,3.85,0,0,0-.34,1.27A1.7,1.7,0,0,1,17.69,20a1.78,1.78,0,0,1-.68.24c-.62.12-1.24.21-1.87.27Z" style="fill:#0c0a35"/><path d="M17.7,15.59A6,6,0,0,1,16,15a2.72,2.72,0,0,1,1.53-.54,5.34,5.34,0,0,1,3.22.31A6.06,6.06,0,0,1,17.7,15.59Z" style="fill:#fff"/><path d="M24.67,11.68a1.45,1.45,0,0,0,.56-.66c.33-.59.63-1.21.91-1.84.1-.22.26-.17.2-.41a2.29,2.29,0,0,0-.47-.85c-.22-.21-.7-.73-.93-.94a9.65,9.65,0,0,0-1.89-1.22,7.54,7.54,0,0,0-4.36-.17,7.57,7.57,0,0,0-1.38.57,3.84,3.84,0,0,0-1.93,1.77,4.5,4.5,0,0,0,0,2.47c.26.3.39.63.65.93a2.32,2.32,0,0,0,.67.58,2.12,2.12,0,0,0,.75.18,26,26,0,0,0,6.36,0C24.13,12.05,24.54,12,24.67,11.68Z" style="fill:#0c0a35"/><path d="M19,4.47a.91.91,0,0,0-.38.19.78.78,0,0,0-.33.47.64.64,0,0,0,.26.58,1.08,1.08,0,0,0,.63.18.73.73,0,0,0,.5-.16.65.65,0,0,0,.16-.21.78.78,0,0,0-.09-.79A.76.76,0,0,0,19,4.47Z" style="fill:#f70032"/><path d="M18.24,15.54a.47.47,0,1,0-.47-.46.47.47,0,0,0,.47.46Z" style="fill:#0c0a35"/><path d="M16.09,14.55a11.77,11.77,0,0,0,2.05-.13,9.93,9.93,0,0,0,2.11,0,.21.21,0,0,0,.09-.35c-.49-.58-1.51-.47-2.2-.42A3.53,3.53,0,0,0,16,14.4c-.07,0,0,.14.06.15Z" style="fill:#0c0a35"/><path d="M13.63,17.72a.19.19,0,0,0-.3-.22c-.2.2.19.46.3.22Z" style="fill:#0c0a35"/><g style="clip-path:url(#clip-path)"><path d="M12.54,20.19a3.69,3.69,0,0,0-.22,1.43c.12.67.64,1.23.51,1.92s-.75,1.5-.54,2.36a0,0,0,0,0,.09,0c-.08-1.05.8-1.58.86-2.51a1.61,1.61,0,0,0-.12-.81,6.08,6.08,0,0,1-.42-2.35c0-.08-.15-.12-.16,0Z" style="fill:#b70027"/><path d="M11.55,21.81a4.33,4.33,0,0,0,.26,1.06,1.57,1.57,0,0,1,0,.68,1.71,1.71,0,0,0-.1.49c0,.07.06.16.15.15.46-.05.55-.59.49-1a3.75,3.75,0,0,0-.64-1.46c-.06-.09-.22-.06-.21.06Z" style="fill:#b70027"/><path d="M12.81,19.8a5.76,5.76,0,0,1,.72,4.48c-.17.59-.78,1.07-.77,1.71a2.43,2.43,0,0,0,.6,1.63c.07.09.19,0,.17-.1a4.7,4.7,0,0,1-.24-1.79,9.28,9.28,0,0,1,.55-1.09A4.74,4.74,0,0,0,14,22.49c-.06-.9-.17-2.42-1.15-2.8-.07,0-.11.06-.07.11Z" style="fill:#b70027"/><path d="M13.5,20.22a3.77,3.77,0,0,1,1.18,2.34,3.86,3.86,0,0,1-.72,2.5,2.4,2.4,0,0,0,.55,2.79c.07.07.23,0,.21-.09-.13-1-.83-1.61-.2-2.72a4.22,4.22,0,0,0,.63-1.81c.09-1.05-.36-2.9-1.55-3.19-.09,0-.18.11-.1.18Z" style="fill:#b70027"/><path d="M14.33,20.1a20.46,20.46,0,0,1,1.5,1.7c.75,1.15-.17,2-.53,3a2.73,2.73,0,0,0,1.07,3.28.15.15,0,0,0,.21-.17c-.38-1.08-1.17-1.68-.74-3a10.2,10.2,0,0,0,.8-2.18c.12-1.2-1.3-2.34-2.21-2.83a.09.09,0,0,0-.1.14Z" style="fill:#b70027"/><path d="M15,19.71a14.67,14.67,0,0,1,2,2c.9,1.22-.1,2-.25,3.15s.52,2.91,1.79,3a.12.12,0,0,0,.08-.19c-.65-.83-1.39-1.33-1.46-2.49-.05-.87.7-1.55.73-2.42,0-1.3-1.7-2.72-2.75-3.16a.08.08,0,0,0-.1.13Z" style="fill:#b70027"/><path d="M16.26,19.78a5.08,5.08,0,0,1,1.85,2,1.89,1.89,0,0,1,.12,2.11,6.93,6.93,0,0,0-.43.75,2.89,2.89,0,0,0,1.48,3.26.13.13,0,0,0,.18-.18C19,26.56,17.61,26,18.29,24.52a3.13,3.13,0,0,0,.61-1.73c-.16-1.12-1.29-3.12-2.6-3.14a.07.07,0,0,0,0,.13Z" style="fill:#b70027"/><path d="M16.7,19c1.19,1.24,3.23,2.26,2.6,4.33-.37,1.25-.52,2.56.65,3.48.07.06.21,0,.17-.11-.37-1.08-.88-1.74-.49-3a3,3,0,0,0,.11-2c-.37-1.33-1.84-2.24-3-2.83,0,0-.09,0-.05.06Z" style="fill:#b70027"/><path d="M17.48,18.8a6.72,6.72,0,0,1,2.58,2.52,4.89,4.89,0,0,1,.32,2.81c-.06,1.06.08,2.79,1.45,2.91.12,0,.16-.15.09-.22A3.25,3.25,0,0,1,21,25.7a3.72,3.72,0,0,1-.13-1.33,8.84,8.84,0,0,0,0-2.18,4.61,4.61,0,0,0-3.37-3.49c-.06,0-.1.07,0,.1Z" style="fill:#b70027"/><path d="M17.81,18.53a7.49,7.49,0,0,1,2.72,1.63,4.23,4.23,0,0,1,.85,3.07c0,1.15-.12,3,1.37,3.28a.14.14,0,0,0,.13-.23,4,4,0,0,1-1-1.31,4.83,4.83,0,0,1-.12-1.74,5.61,5.61,0,0,0-.41-2.5c-.53-1.09-2.19-2.57-3.5-2.29,0,0,0,.08,0,.09Z" style="fill:#b70027"/><path d="M18.18,17.94a5.17,5.17,0,0,1,2.9,1.85c.83.95.85,2.09,1.07,3.26s0,2.73,1.39,3.07c.11,0,.16-.12.07-.18-1.54-1.13-.82-3.8-1.5-5.38a4.77,4.77,0,0,0-3.9-2.79.09.09,0,0,0,0,.17Z" style="fill:#b70027"/><path d="M18.15,17.29a1.31,1.31,0,0,0,.79.15,3.7,3.7,0,0,1,2.13,1.2,5.84,5.84,0,0,1,1.33,1.43c.32.54.52,1.21.8,1.77.8,1.61,1.85,3.22,3.79,2,0,0,0-.11,0-.09-2.76,1.16-3.32-2.92-4.54-4.46-1-1.3-2.55-2.4-4.25-2.14-.05,0-.05.09,0,.11Z" style="fill:#b70027"/><path d="M19,16.61a4.21,4.21,0,0,1,2.79,1.69,4.48,4.48,0,0,0,1.93,1.46c.11,0,.2-.12.12-.2-.43-.41-.93-.73-1.37-1.12s-.71-.9-1.15-1.26A3.59,3.59,0,0,0,19,16.45a.08.08,0,0,0,0,.16Z" style="fill:#b70027"/></g><path d="M14.52,17.91a4,4,0,0,1,1.24-.07,3.12,3.12,0,0,1,2.29,1.33,1.28,1.28,0,0,1,.23.45.91.91,0,0,1-.26.78,1.64,1.64,0,0,1-.75.42,2.92,2.92,0,0,1-3-.92c-.09-.11-.2-.24-.35-.24s-.25.15-.33.27a2.65,2.65,0,0,1-.62.63c-.17.14-.41.35-.63.33a.75.75,0,0,1-.55-.84,2.11,2.11,0,0,1,.83-1.41A4.93,4.93,0,0,1,14.52,17.91Z" style="fill:#191956"/><g style="clip-path:url(#clip-path-2)"><path d="M13,17.8c.64.92-.85,1.82-1.07,2.71a1.13,1.13,0,0,0,.67,1.34c.06,0,.13-.06.09-.12-.78-1.11-.08-1.66.55-2.58a1,1,0,0,0-.15-1.42c-.05,0-.13,0-.09.07Z" style="fill:#b70027"/><path d="M13.5,17.43a3.62,3.62,0,0,1,.11,1.6,6.09,6.09,0,0,1-.55,1,1.18,1.18,0,0,0-.08,1.2.06.06,0,0,0,.12,0c-.11-.86.61-1.36.91-2.1a1.72,1.72,0,0,0-.4-1.77c0-.06-.12,0-.11.06Z" style="fill:#b70027"/><path d="M13.55,16.94c1.12,1.44,1.47,4.47,3.63,4.83.06,0,.09-.06,0-.09a6.19,6.19,0,0,1-2.06-2.42,7.89,7.89,0,0,0-1.55-2.38s-.09,0-.06.06Z" style="fill:#b70027"/><path d="M14.64,17.51c1,1.6,1.67,3.57,3.67,4.25.08,0,.14-.09.08-.15a24.12,24.12,0,0,1-2.1-1.95,14.86,14.86,0,0,0-1.5-2.27.1.1,0,0,0-.15.12Z" style="fill:#b70027"/><path d="M14.75,16.48a11.81,11.81,0,0,0,4.16,4.83s.09,0,.05-.07a35.67,35.67,0,0,1-4.08-4.84c-.06-.07-.18,0-.13.08Z" style="fill:#b70027"/><path d="M15.6,17c1.19,1.1,2.17,2.37,3.3,3.52.05,0,.15,0,.12-.07a6,6,0,0,0-1.26-1.67,15.53,15.53,0,0,0-2-1.93c-.09-.06-.19.08-.12.15Z" style="fill:#b70027"/></g><path d="M26.08,23a2.59,2.59,0,0,0,.64-.55,5.42,5.42,0,0,0,.9-2.9,6.08,6.08,0,0,0-.1-1.2,9.69,9.69,0,0,0-1.86-4.18,3.19,3.19,0,0,0-1.24-1.07c-.22-.09-.46-.14-.69-.21-.52-.15-1-.4-1.54-.55a2.21,2.21,0,0,0-1.6.06,13.28,13.28,0,0,0,.85,5.46A15.54,15.54,0,0,0,23,21.46a4.77,4.77,0,0,0,1.07,1.21,2.28,2.28,0,0,0,1.52.48A1.12,1.12,0,0,0,26.08,23Z" style="fill:#191956"/><g style="clip-path:url(#clip-path-3)"><path d="M20.28,12.74a3.22,3.22,0,0,0,.59,2.57c.5.69.81,1.17.42,2a1.73,1.73,0,0,0-.19,1c.3,1,1.3,1.45,1.5,2.53s-.26,2.45.42,3.41c.07.1.27.08.25-.07a30.92,30.92,0,0,0-.1-3.2,3.5,3.5,0,0,0-.31-1.16c-.29-.48-.75-.76-1.07-1.21s.15-1.36.3-1.93a1.37,1.37,0,0,0-.22-1c-.3-.58-.81-1-1.06-1.6s-.08-1-.36-1.48c-.05-.08-.16,0-.17.05Z" style="fill:#b70027"/><path d="M21,12.31a2.88,2.88,0,0,0,.33,1.37c.24.66.9.94,1.29,1.49.67,1-.13,1.7-.28,2.62a1.19,1.19,0,0,0,.31.95A15,15,0,0,1,24,20c.74,1-.21,1.69-.24,2.62,0,.57.26,1.87,1.1,1.73a.19.19,0,0,0,.11-.28c-.36-.6-.71-.92-.54-1.69a6.76,6.76,0,0,0,.47-1.59c0-.95-.89-1.67-1.61-2.1-.94-.57-.32-1.23-.1-1.94a1.89,1.89,0,0,0-.08-1.4,2.27,2.27,0,0,0-.7-.95,3.88,3.88,0,0,1-1.33-2.08.07.07,0,0,0-.13,0Z" style="fill:#b70027"/><path d="M22.16,12.44A5.93,5.93,0,0,0,23,13.9c.58.78,1.31,1,1,2.19-.19.81-.64,1.64.22,2.22s1.79,1.17,1.61,2.26c-.09.58-.53,1-.69,1.57a1.69,1.69,0,0,0,1,2.17.13.13,0,0,0,.15-.19c-.53-.75-1-1.32-.48-2.24a7.39,7.39,0,0,0,.58-1.16c.31-.92-.48-1.88-1.16-2.37s-1.14-.79-.8-1.83A2.55,2.55,0,0,0,24.52,15a1.79,1.79,0,0,0-.64-.85,13.15,13.15,0,0,1-1.62-1.72s-.12,0-.1.06Z" style="fill:#b70027"/><path d="M23.85,13.06a2.66,2.66,0,0,1,1.27,3.12,1.7,1.7,0,0,0,.39,1.76c.39.44.91.65,1.28,1.14a2.15,2.15,0,0,1,0,2,2.44,2.44,0,0,0,.05,2.11.11.11,0,0,0,.2-.06c.11-1.95,1.49-4-.74-5.27-1.13-.66-.7-1.25-.61-2.25a2.68,2.68,0,0,0-.18-1.4,2.45,2.45,0,0,0-1.62-1.41c-.14,0-.16.18-.07.24Z" style="fill:#b70027"/><path d="M27.08,13.81a2.86,2.86,0,0,0-.9,2.69,2.65,2.65,0,0,0,2.69,1.7.12.12,0,0,0,0-.21c-.94-.4-1.88-.53-2.31-1.6a3.18,3.18,0,0,1,.61-2.45c.08-.09,0-.21-.12-.13Z" style="fill:#b70027"/></g><path d="M24.89,13.55H26a.71.71,0,0,0,.38-.08.33.33,0,0,0,.13-.26c0-.25-.28-.39-.5-.52a2.17,2.17,0,0,1-.37-.31,1.61,1.61,0,0,1,.22-.66c.94-1.93,2.89-6.14,3.35-7a1.58,1.58,0,0,0,1.15.35c.05,0,.1,0,.12-.06s0-.19-.1-.25a6,6,0,0,0-.92-.6c.19-.38.31-.57.46-.93,0-.08.24-.84-.16-.82s-.75.95-.86,1.4a6.4,6.4,0,0,0-1-.42.21.21,0,0,0-.23.33,1.36,1.36,0,0,0,.67.46,71.49,71.49,0,0,0-3.88,6.67.41.41,0,0,1-.15.19c-.08,0-.19,0-.21-.06v-.14c.38-2.65.88-5.22,1.5-7.82.23,0,.46,0,.69.08a.78.78,0,0,0,.37,0,.24.24,0,0,0,.18-.28.37.37,0,0,0-.18-.17,2.18,2.18,0,0,0-.95-.14A4.38,4.38,0,0,0,26,1.26a.23.23,0,0,0-.44,0,7,7,0,0,0-.45,1.16,1.83,1.83,0,0,0-1-.35.16.16,0,0,0-.17.19.61.61,0,0,0,.26.37,1.82,1.82,0,0,0,.6.23A43.33,43.33,0,0,1,22,10.7a.1.1,0,0,1-.2,0,24.58,24.58,0,0,1-.43-4.1c0-1.27,0-2.9,0-4.25,0,0,0-.08.08-.08a3.18,3.18,0,0,0,1,0,.27.27,0,0,0,.19-.1c.09-.15-.1-.32-.26-.37a3.29,3.29,0,0,0-.92,0,0,0,0,0,1,0,0c0-.24,0-.55,0-.78a.8.8,0,0,0-.05-.38.29.29,0,0,0-.32-.17c-.14,0-.18.21-.2.35a6.61,6.61,0,0,0-.08,1s0,0,0,0a5.36,5.36,0,0,0-.8,0,.57.57,0,0,0-.34.13.26.26,0,0,0,.16.42,1.88,1.88,0,0,0,.9-.08,0,0,0,0,1,0,0c-.55,4.31-1,8-1.49,8.33a.24.24,0,0,1-.35-.14A37,37,0,0,1,17.63,5a10.06,10.06,0,0,1-.27-2.55.19.19,0,0,1,.18-.17A1.81,1.81,0,0,0,18.26,2a.31.31,0,0,0,.15-.15c.07-.15-.07-.33-.23-.36a.78.78,0,0,0-.47.09,1,1,0,0,1-.47.14c-.07,0-.13-.74-.32-1.1-.06-.1-.19-.05-.23.06a2.24,2.24,0,0,0,0,1.07.1.1,0,0,1-.09.13L15.69,2c-.2,0-.47.13-.4.32a.33.33,0,0,0,.44.24c.37-.06.59-.13,1-.17.09,3.15.23,5.15.48,8,0,.5-.4.46-.53.21-.57-1-1.41-2.86-2-3.87S13.4,4.66,12.84,3.68a1.61,1.61,0,0,1-.18-.52c0-.12,0-.18.1-.25l.46-.25c.11-.06.18-.24.08-.31a.24.24,0,0,0-.12,0,.89.89,0,0,0-.53.2c-.07,0-.51.28-.69-.55a.53.53,0,0,0-.2-.39c-.3-.18-.51.14-.47.4a1.82,1.82,0,0,0,.29.55.66.66,0,0,1,.12.59c-.08.2-.28.19-.48.29a.7.7,0,0,0-.29.25.19.19,0,0,0,.2.29,1.25,1.25,0,0,0,.48-.26c.21-.18.47-.38.58-.12.87,1.9,1.3,3.39,2.05,5,.24.5.46,1,.67,1.53A1.88,1.88,0,0,1,15,11.77a2,2,0,0,1-.59.52,1.32,1.32,0,0,0-.54.63.52.52,0,0,0,.4.63A13.68,13.68,0,0,0,18,13.4c2.43-.15,4.88.34,7.31.08Z" style="fill:#222272"/><path d="M14.45,13.23a.25.25,0,0,0,0-.5.25.25,0,0,0,0,.5Z" style="fill:#0c0a35"/><path d="M15.3,13.25a.27.27,0,0,0,0-.54.27.27,0,0,0,0,.54Z" style="fill:#0c0a35"/><path d="M16.31,13.25a.27.27,0,0,0,0-.54.27.27,0,0,0,0,.54Z" style="fill:#0c0a35"/><path d="M17.16,13.21a.26.26,0,0,0,0-.51.26.26,0,0,0,0,.51Z" style="fill:#0c0a35"/><path d="M18.2,13.19a.29.29,0,0,0,0-.58.29.29,0,0,0,0,.58Z" style="fill:#0c0a35"/><path d="M19.18,13.14a.29.29,0,0,0,0-.58.29.29,0,0,0,0,.58Z" style="fill:#0c0a35"/><path d="M20.09,13.14h0a.28.28,0,0,0,.24-.41.29.29,0,0,0-.48,0v0c-.12.17.05.38.23.39Z" style="fill:#0c0a35"/><path d="M21,13.16a.26.26,0,0,0,0-.52.26.26,0,0,0,0,.52Z" style="fill:#0c0a35"/><path d="M22,13.28a.28.28,0,0,0,0-.55.28.28,0,0,0,0,.55Z" style="fill:#0c0a35"/><path d="M22.92,13.3a.3.3,0,0,0,0-.59.3.3,0,0,0,0,.59Z" style="fill:#0c0a35"/><path d="M24,13.3a.27.27,0,0,0,0-.54.27.27,0,0,0,0,.54Z" style="fill:#0c0a35"/><path d="M24.86,13.28a.25.25,0,0,0,0-.5.25.25,0,0,0,0,.5Z" style="fill:#0c0a35"/><path d="M25.66,13.3a.27.27,0,0,0,0-.53.27.27,0,0,0,0,.53Z" style="fill:#0c0a35"/><path d="M16.05,10.89v0a.32.32,0,0,0,0-.46h0a.35.35,0,1,0,0,.49Z" style="fill:#990028"/><path d="M18,10.7a.43.43,0,1,0-.43-.43.43.43,0,0,0,.43.43Z" style="fill:#990028"/><path d="M20.65,10.57a.43.43,0,0,0,.43-.43.43.43,0,0,0-.43-.43.44.44,0,0,0-.43.43.43.43,0,0,0,.43.43Z" style="fill:#990028"/><path d="M23.55,10.78h0a.42.42,0,0,0-.41-.69h0a.43.43,0,0,0-.25.62.42.42,0,0,0,.66.08Z" style="fill:#990028"/><path d="M25.38,11.62h0a.39.39,0,0,0,.08-.6l0,0a.4.4,0,0,0-.66.18.38.38,0,0,0,.1.38.4.4,0,0,0,.48.07Z" style="fill:#990028"/><path d="M19,4.56A.27.27,0,0,0,19,4a.27.27,0,0,0,0,.54Z" style="fill:#0c0a35"/><path d="M15.21,9.93h0a.25.25,0,1,0,.51,0h0a.26.26,0,0,0-.51,0Z" style="fill:#0c0a35"/><path d="M17.82,9.75a.31.31,0,0,0,0-.61.31.31,0,0,0,0,.61Z" style="fill:#0c0a35"/><path d="M20.72,9.59a.25.25,0,0,0,0-.5.25.25,0,0,0,0,.5Z" style="fill:#0c0a35"/><path d="M23.51,9.88a.28.28,0,0,0,0-.55.28.28,0,0,0,0,.55Z" style="fill:#0c0a35"/><path d="M25.53,10.76a.25.25,0,0,0,0-.5.25.25,0,0,0,0,.5Z" style="fill:#0c0a35"/><path d="M27.26,28.69a.88.88,0,0,0-.17.73,4,4,0,0,0,.22,1.19,1.44,1.44,0,0,0,.83.83,33,33,0,0,0,4.77-.3,2,2,0,0,0,.64-.15,1.62,1.62,0,0,0,.93-1.25,1.86,1.86,0,0,0-1-1.89,3.72,3.72,0,0,0-2.12-.11,23.9,23.9,0,0,0-3.76.78A.78.78,0,0,0,27.26,28.69Z" style="fill:#222272"/><path d="M26.6,27.66a2.91,2.91,0,0,1,.25-1.86,7.54,7.54,0,0,1,3.4-2.41,3.37,3.37,0,0,1,3.32.64,3,3,0,0,1,.92,2.48A2,2,0,0,1,33,28.07a12.38,12.38,0,0,1-3.06.29c-.85.12-2,.54-2.75.21C26.89,28.44,26.71,28,26.6,27.66Z" style="fill:#191956"/><path d="M31.4,23.93c.68-.41,1.52.61,1.84,1.08a2.06,2.06,0,0,1,.41,1.19.79.79,0,0,1-.92.85.49.49,0,0,1-.36-.46,3.8,3.8,0,0,1,.15-.47,1.58,1.58,0,0,0-.21-.69,3.19,3.19,0,0,0-.91-1.12.23.23,0,0,1,0-.38Z" style="fill:#990028"/><path d="M30.33,24.41c.46-.07.85.72,1,1a1.26,1.26,0,0,1-.15,1.72c-.39.29-.95-.28-.67-.68s-.09-.73-.2-1-.47-1,0-1.05Z" style="fill:#990028"/><path d="M29.29,25.34a2.47,2.47,0,0,1,.25.81,2.77,2.77,0,0,1,.13.94.46.46,0,0,1-.89.12,3.62,3.62,0,0,1-.13-.94,1.63,1.63,0,0,1,.1-.93.31.31,0,0,1,.54,0Z" style="fill:#990028"/><path d="M27.87,26a6.64,6.64,0,0,1,.05.77,5.53,5.53,0,0,0,.28.9.32.32,0,0,1-.54.31c-.44-.49-.69-1.63-.06-2.08a.18.18,0,0,1,.27.1Z" style="fill:#990028"/><path d="M33.37,28.59a.14.14,0,0,1,0-.27.14.14,0,1,1,0,.27Z" style="fill:#f70032"/><path d="M34,29.12A.08.08,0,1,1,34,29a.08.08,0,0,1,0,.16Z" style="fill:#f70032"/><path d="M33.32,29.41a.17.17,0,0,1,0-.33.17.17,0,0,1,0,.33Z" style="fill:#f70032"/><path d="M33.61,30a.11.11,0,0,1,0-.22.11.11,0,1,1,0,.22Z" style="fill:#f70032"/><path d="M32.74,30a0,0,0,1,1,0,0s0,0,0,0Z" style="fill:#f70032"/><path d="M32.68,30a.1.1,0,0,1,0-.2.1.1,0,0,1,0,.2Z" style="fill:#f70032"/><path d="M32.6,28.69a.11.11,0,0,1,0-.21.11.11,0,1,1,0,.21Z" style="fill:#f70032"/><path d="M32.23,29.27a.13.13,0,0,1,0-.26.13.13,0,0,1,0,.26Z" style="fill:#f70032"/><path d="M33.08,30.89a.15.15,0,0,1,0-.3.15.15,0,1,1,0,.3Z" style="fill:#f70032"/><path d="M32,30.5a.14.14,0,0,1,0-.27.14.14,0,0,1,0,.27Z" style="fill:#f70032"/><path d="M31.54,29.84a.12.12,0,0,1,0-.23.12.12,0,0,1,0,.23Z" style="fill:#f70032"/><path d="M31.38,29a.13.13,0,0,1,0-.26.13.13,0,0,1,0,.26Z" style="fill:#f70032"/><path d="M30.45,28.78a.12.12,0,0,1,0-.24.12.12,0,0,1,0,.24Z" style="fill:#f70032"/><path d="M30.56,29.53a.13.13,0,0,1,0-.25.13.13,0,0,1,0,.25Z" style="fill:#f70032"/><path d="M29.87,29.22a.08.08,0,1,1,0-.16.08.08,0,0,1,0,.16Z" style="fill:#f70032"/><path d="M30.77,30.37a.14.14,0,0,1,0-.28.14.14,0,0,1,0,.28Z" style="fill:#f70032"/><path d="M31.25,31a.09.09,0,0,1,0-.18.09.09,0,0,1,0,.18Z" style="fill:#f70032"/><path d="M32.36,31.1h0a.12.12,0,0,1-.2-.08.12.12,0,0,1,.2-.09l0,0a.12.12,0,0,1,0,.14Z" style="fill:#f70032"/><path d="M29.92,30.3a.12.12,0,1,1,0-.24.12.12,0,0,1,0,.24Z" style="fill:#f70032"/><path d="M30.16,31.08a.11.11,0,0,1,0-.21.11.11,0,0,1,0,.21Z" style="fill:#f70032"/><path d="M17.82,31.16a1.88,1.88,0,0,0,.19,1,2.41,2.41,0,0,0,.7.82,2.27,2.27,0,0,0,1.41.5,2.72,2.72,0,0,0,1.29-.24,2.45,2.45,0,0,0,1-.85,2.6,2.6,0,0,0-.22-3.27,2.92,2.92,0,0,0-1.85-.93,2.89,2.89,0,0,0-1.53.31,2.81,2.81,0,0,0-1.09,1,2.68,2.68,0,0,0,.15,3.24,2.6,2.6,0,0,0,.57.53,2.12,2.12,0,0,0,.7.36,2.84,2.84,0,0,0,1.39.11,2.53,2.53,0,0,0,1.69-1.12,2.62,2.62,0,0,0,.2-2.62,2.45,2.45,0,0,0-1.35-1.22,2.5,2.5,0,0,0-2.4.42,2.86,2.86,0,0,0-.82,1.15l.3-.57,0,.05.43-.47,0,0,.53-.34,0,0,.61-.2h0l.66,0h0l.65.14-.08,0,.57.3-.09-.06.46.43-.06-.07L22,30l0-.08c.07.21.13.41.2.61v0c0,.22,0,.45,0,.67a.22.22,0,0,1,0-.08c-.05.22-.1.43-.14.65a.09.09,0,0,1,0-.07l-.3.56.05-.06-.42.46a.18.18,0,0,1,.07,0L21,32.9l.12-.06-.61.2.09,0-.66,0h.15l-.65-.14.14,0L19,32.69a.24.24,0,0,1,.08.06l-.46-.42.07.08-.33-.51a.52.52,0,0,1,.06.13c-.06-.19-.12-.39-.19-.58a.13.13,0,0,1,0,.06l0-.62a.37.37,0,0,1,0,.11c0-.19.08-.39.13-.58l-.05.12.26-.5a1.94,1.94,0,0,1-.21.29c.12-.12.23-.25.34-.37l-.13.11.38-.25-.12.07.42-.14-.15,0,.42,0h0a1.66,1.66,0,0,0-1.11.35,1.49,1.49,0,0,0-.53,1Z" style="fill:#990028"/><path d="M16.31,32c.26-.89.06-1.82.39-2.7A5.53,5.53,0,0,1,17.32,28c.21-.31.78-.46,1.08-.69a.6.6,0,0,0-.64-1,3.82,3.82,0,0,0-2.13,2.27c-.44,1-.72,2.59.2,3.43a.29.29,0,0,0,.48-.08Z" style="fill:#990028"/><path d="M21.6,35.07c2.45,1,4.77-3.57,2.93-5.2a.32.32,0,0,0-.48.15A4.94,4.94,0,0,0,24,31.35a3.59,3.59,0,0,1-.59,1.87,3.13,3.13,0,0,1-1.79,1.38.26.26,0,0,0,0,.47Z" style="fill:#990028"/><path d="M19.75,30.63a3.3,3.3,0,0,1-.62-.15c-.2-.06-.37-.21-.57-.26a.52.52,0,1,0-.08,1c.19,0,.39,0,.59,0a2.13,2.13,0,0,0,.75-.19.21.21,0,0,0-.07-.39Z" style="fill:#0c0a35"/><path d="M19.87,31.36a4.24,4.24,0,0,0-.51,1.5.5.5,0,0,0,1,.08,5.1,5.1,0,0,0,0-.78,2.51,2.51,0,0,0-.1-.77.22.22,0,0,0-.42,0Z" style="fill:#0c0a35"/><path d="M20.39,30.27a5.47,5.47,0,0,0,.38-1.44c.07-.65-.92-.72-1-.08-.06.46-.17,1.24.21,1.6a.26.26,0,0,0,.43-.08Z" style="fill:#0c0a35"/><path d="M20.41,31a1.25,1.25,0,0,0,.8.41c.41.1.94.19,1.23-.2a.54.54,0,0,0-.4-.84.65.65,0,0,0-.31.05c.15-.05-.05,0-.09,0l-.42.05a1.3,1.3,0,0,0-.75.2.27.27,0,0,0-.06.32Z" style="fill:#0c0a35"/><path d="M16.4,29.08v0a.3.3,0,0,0-.17-.38.3.3,0,0,0-.38.18v0a.29.29,0,0,0,.17.37.3.3,0,0,0,.38-.17Z" style="fill:#0c0a35"/><path d="M16.11,30.07a.28.28,0,0,0-.55,0,.28.28,0,0,0,.55,0Z" style="fill:#0c0a35"/><path d="M16.07,31a.23.23,0,0,0-.46,0,.23.23,0,0,0,.46,0Z" style="fill:#0c0a35"/><path d="M17,28a.3.3,0,1,0-.32.27A.31.31,0,0,0,17,28Z" style="fill:#0c0a35"/><path d="M17.54,27.26a.19.19,0,0,0-.37,0,.19.19,0,0,0,.37,0Z" style="fill:#0c0a35"/><path d="M18.26,26.8a.17.17,0,0,0-.33,0,.17.17,0,0,0,.33,0Z" style="fill:#0c0a35"/><path d="M24.36,33.46a.32.32,0,0,0-.3-.34.31.31,0,0,0-.34.29.32.32,0,0,0,.29.35.34.34,0,0,0,.35-.3Z" style="fill:#0c0a35"/><path d="M24.82,32.51a.33.33,0,0,0-.31-.35.33.33,0,0,0-.05.65.33.33,0,0,0,.36-.3Z" style="fill:#0c0a35"/><path d="M23.59,34.28a.24.24,0,0,0-.48,0,.24.24,0,0,0,.48,0Z" style="fill:#0c0a35"/><path d="M22.74,34.68a.18.18,0,0,0-.35,0,.18.18,0,0,0,.35,0Z" style="fill:#0c0a35"/><path d="M24.55,31.16a.26.26,0,0,0-.14.26.24.24,0,0,0,.33.17c.27-.13.07-.56-.19-.43Z" style="fill:#0c0a35"/><path d="M24.33,30.5v0a.22.22,0,0,0,.35.18c.13-.11.07-.38-.12-.37h0a.19.19,0,0,0-.2.17Z" style="fill:#0c0a35"/><path d="M18.92,32.22h0l-.1.19a.32.32,0,0,0,.06-.4.28.28,0,0,0-.52,0,.32.32,0,0,0,0,.27.3.3,0,0,0,.32.16h0a.28.28,0,0,0,.22-.24Z" style="fill:#f70032"/><path d="M21.53,32.33v0a.31.31,0,0,0-.59,0h0a.31.31,0,1,0,.59,0Z" style="fill:#f70032"/><path d="M19.18,29.37a.3.3,0,1,0-.6-.05.3.3,0,1,0,.6.05Z" style="fill:#f70032"/><path d="M21.28,29.19h0a.34.34,0,0,0-.05.58h0a.34.34,0,0,0,.35,0,.35.35,0,1,0-.48-.43h0l.51-.16a.37.37,0,0,0-.34,0Z" style="fill:#f70032"/><path d="M15.8,35.11a.46.46,0,0,0,.18.1.26.26,0,0,0,.28-.11.26.26,0,0,0-.09-.34.21.21,0,0,0-.13,0c-.22-.05-.43.22-.24.4Z" style="fill:#0c0a35"/><path d="M21.36,27.52a.15.15,0,0,0,0-.3.15.15,0,0,0,0,.3Z" style="fill:#0c0a35"/><path d="M17.23,34.05a.14.14,0,0,0,0-.27.14.14,0,0,0,0,.27Z" style="fill:#0c0a35"/><path d="M18.73,36.27a.21.21,0,0,0,0-.42.21.21,0,0,0,0,.42Z" style="fill:#0c0a35"/><path d="M17.93,27.09a.22.22,0,0,0,0-.43.22.22,0,0,0,0,.43Z" style="fill:#0c0a35"/><path d="M16.47,36.81s0,0-.06.09a.22.22,0,0,0,.38.22h0l-.08.07,0,0a.24.24,0,0,0,.08-.3.24.24,0,0,0-.36,0Z" style="fill:#0c0a35"/><path d="M22.26,25.57a.23.23,0,0,0,0-.45.23.23,0,0,0,0,.45Z" style="fill:#0c0a35"/><path d="M12.83,34.22a.28.28,0,0,0-.17.09c-.19.14.05.42.24.31h0a.21.21,0,1,0-.05-.41Z" style="fill:#0c0a35"/><path d="M13.65,35.38v0a.21.21,0,0,0,.36,0v0a.22.22,0,1,0-.38,0Z" style="fill:#0c0a35"/><path d="M25,39.91a3.51,3.51,0,0,0-1.48.13,3.62,3.62,0,0,0-1,.73A18.82,18.82,0,0,0,21,42.16,10.8,10.8,0,0,0,18.64,47a1.79,1.79,0,0,0,0,1.1,2,2,0,0,0,1.29.91,7.48,7.48,0,0,0,2.22.52,6.21,6.21,0,0,0,1.36-.13l2.2-.34a1.11,1.11,0,0,0,.65-.36A2,2,0,0,0,27,47.16a.77.77,0,0,1,.08-.43.87.87,0,0,1,.33-.3,6.06,6.06,0,0,0,1.9-2.09.78.78,0,0,0,.11-.67.64.64,0,0,0-.62-.3c-.25,0-.49.08-.74.08l0-1.59a1.8,1.8,0,0,0-.16-1,1.56,1.56,0,0,0-1-.66A8.1,8.1,0,0,0,25,39.91Z" style="fill:#ffd6a1"/><path d="M27.83,41.15c.55,0,.83-.63,1-1.18a3.8,3.8,0,0,0,.08-.82,4.72,4.72,0,0,0-.72-2.65,2.9,2.9,0,0,0-2.31-1.35,4.21,4.21,0,0,0-1.27.25A11,11,0,0,0,20,38.24a8,8,0,0,0-2.22,4.87c0,.11,0,.24.09.29a2.46,2.46,0,0,0,1.47,1.44,2.75,2.75,0,0,0,2.16-.06,1.9,1.9,0,0,0,.84-.72,3.93,3.93,0,0,0,.35-1.27,1.69,1.69,0,0,1,.6-1.14,1.77,1.77,0,0,1,.68-.23c.62-.12,1.24-.21,1.87-.27Z" style="fill:#0c0a35"/><path d="M23.24,46a6.3,6.3,0,0,1,1.67.55,2.72,2.72,0,0,1-1.53.54,5.38,5.38,0,0,1-3.21-.3A5.91,5.91,0,0,1,23.24,46Z" style="fill:#fff"/><path d="M16.27,49.94a1.43,1.43,0,0,0-.56.65c-.33.6-.63,1.21-.91,1.84-.09.22-.26.18-.2.41a2.29,2.29,0,0,0,.47.85c.22.21.7.73.93.94a9.21,9.21,0,0,0,1.89,1.22,7.45,7.45,0,0,0,4.36.17,7.53,7.53,0,0,0,1.38-.56,3.88,3.88,0,0,0,1.93-1.77,4.54,4.54,0,0,0,0-2.48c-.26-.3-.39-.62-.65-.92a2.52,2.52,0,0,0-.67-.59,2.35,2.35,0,0,0-.75-.18,27.06,27.06,0,0,0-6.36,0C16.81,49.57,16.4,49.6,16.27,49.94Z" style="fill:#0c0a35"/><path d="M22,57.15a1.18,1.18,0,0,0,.39-.19.8.8,0,0,0,.32-.48.63.63,0,0,0-.26-.57,1,1,0,0,0-.63-.18.78.78,0,0,0-.5.15.6.6,0,0,0-.16.22.76.76,0,0,0,.09.78A.78.78,0,0,0,22,57.15Z" style="fill:#f70032"/><path d="M22.7,46.07a.47.47,0,0,0-.46.47.47.47,0,0,0,.93,0,.48.48,0,0,0-.47-.47Z" style="fill:#0c0a35"/><path d="M24.85,47.07a10.86,10.86,0,0,0-2.05.13,9.31,9.31,0,0,0-2.11,0,.2.2,0,0,0-.09.34c.49.59,1.51.48,2.2.42a3.64,3.64,0,0,0,2.12-.73c.06-.06,0-.14-.07-.15Z" style="fill:#0c0a35"/><path d="M27.31,43.89a.19.19,0,0,0,.3.23c.2-.2-.18-.47-.3-.23Z" style="fill:#0c0a35"/><g style="clip-path:url(#clip-path-4)"><path d="M28.4,41.42A3.9,3.9,0,0,0,28.63,40c-.13-.66-.64-1.22-.51-1.92s.74-1.5.53-2.35a0,0,0,0,0-.09,0c.08,1.05-.8,1.58-.86,2.52a1.55,1.55,0,0,0,.12.8,6.14,6.14,0,0,1,.42,2.35c0,.09.15.12.16,0Z" style="fill:#b70027"/><path d="M29.39,39.81a4.33,4.33,0,0,0-.26-1.06,1.61,1.61,0,0,1-.05-.69,1.58,1.58,0,0,0,.1-.49.15.15,0,0,0-.15-.14c-.45,0-.55.59-.49,1a3.71,3.71,0,0,0,.64,1.45c.06.09.22.07.21,0Z" style="fill:#b70027"/><path d="M28.13,41.81a5.69,5.69,0,0,1-.71-4.47c.16-.6.77-1.07.76-1.71a2.46,2.46,0,0,0-.6-1.64c-.07-.09-.19,0-.17.11a4.83,4.83,0,0,1,.25,1.78A9.35,9.35,0,0,1,27.1,37a4.89,4.89,0,0,0-.19,2.15c.06.9.17,2.42,1.15,2.81.07,0,.11-.07.07-.12Z" style="fill:#b70027"/><path d="M27.44,41.4a3.83,3.83,0,0,1-1.18-2.34A3.89,3.89,0,0,1,27,36.55a2.38,2.38,0,0,0-.55-2.78c-.07-.07-.23,0-.21.08.13,1,.83,1.61.2,2.72a4.4,4.4,0,0,0-.63,1.82c-.09,1,.36,2.9,1.55,3.18.09,0,.18-.1.1-.17Z" style="fill:#b70027"/><path d="M26.61,41.52a22.64,22.64,0,0,1-1.5-1.71c-.75-1.14.17-2,.53-3a2.72,2.72,0,0,0-1.07-3.28c-.1-.07-.26,0-.21.16.38,1.08,1.17,1.68.74,3a10.2,10.2,0,0,0-.8,2.18c-.12,1.2,1.3,2.33,2.21,2.82a.08.08,0,0,0,.1-.13Z" style="fill:#b70027"/><path d="M25.94,41.91a15.28,15.28,0,0,1-2-2c-.9-1.22.1-2,.25-3.15s-.52-2.92-1.79-3c-.1,0-.13.12-.07.19.64.83,1.38,1.32,1.45,2.48.06.87-.7,1.56-.73,2.43,0,1.29,1.7,2.71,2.75,3.16.08,0,.17-.06.1-.13Z" style="fill:#b70027"/><path d="M24.68,41.83a5,5,0,0,1-1.85-2,1.91,1.91,0,0,1-.12-2.11,5.48,5.48,0,0,0,.43-.74,2.89,2.89,0,0,0-1.48-3.27.13.13,0,0,0-.18.18c.49,1.13,1.85,1.72,1.17,3.17-.26.55-.7,1.08-.61,1.73.16,1.13,1.29,3.12,2.6,3.15a.08.08,0,0,0,0-.14Z" style="fill:#b70027"/><path d="M24.25,42.61c-1.2-1.24-3.24-2.25-2.61-4.32.37-1.26.52-2.57-.64-3.48-.08-.06-.22,0-.18.1.37,1.09.89,1.74.49,3a3,3,0,0,0-.11,2c.38,1.34,1.84,2.25,3,2.84a0,0,0,0,0,.06-.07Z" style="fill:#b70027"/><path d="M23.46,42.82a6.79,6.79,0,0,1-2.58-2.52,4.91,4.91,0,0,1-.32-2.81c.06-1.07-.08-2.79-1.45-2.92-.12,0-.16.15-.09.23A3.31,3.31,0,0,1,20,35.91a3.53,3.53,0,0,1,.13,1.33,8.84,8.84,0,0,0,0,2.18,4.58,4.58,0,0,0,3.37,3.49c.06,0,.1-.06,0-.09Z" style="fill:#b70027"/><path d="M23.13,43.08a7.21,7.21,0,0,1-2.71-1.62,4.21,4.21,0,0,1-.86-3.07c0-1.15.12-3-1.37-3.28a.13.13,0,0,0-.13.22,4,4,0,0,1,1,1.31,4.89,4.89,0,0,1,.12,1.75,5.59,5.59,0,0,0,.41,2.49c.53,1.09,2.19,2.57,3.5,2.29.05,0,0-.07,0-.09Z" style="fill:#b70027"/><path d="M22.76,43.67a5.2,5.2,0,0,1-2.9-1.85c-.83-.94-.85-2.09-1.07-3.26s0-2.73-1.39-3.06c-.11,0-.16.11-.07.18,1.54,1.12.83,3.8,1.5,5.37a4.77,4.77,0,0,0,3.91,2.79c.09,0,.11-.15,0-.17Z" style="fill:#b70027"/><path d="M22.79,44.32a1.48,1.48,0,0,0-.79-.15A3.69,3.69,0,0,1,19.87,43a6,6,0,0,1-1.33-1.43c-.32-.55-.52-1.21-.8-1.78-.8-1.6-1.85-3.21-3.79-2,0,0,0,.1,0,.08,2.76-1.16,3.32,2.92,4.55,4.47,1,1.3,2.54,2.4,4.24,2.13,0,0,0-.08,0-.11Z" style="fill:#b70027"/><path d="M22,45a4.22,4.22,0,0,1-2.79-1.7,4.48,4.48,0,0,0-1.93-1.46.12.12,0,0,0-.11.2c.42.41.92.74,1.36,1.13s.71.89,1.15,1.26a3.66,3.66,0,0,0,2.32.72c.1,0,.09-.14,0-.15Z" style="fill:#b70027"/></g><path d="M26.43,43.7a3.52,3.52,0,0,1-1.25.07A2.94,2.94,0,0,1,24,43.4a3.26,3.26,0,0,1-1.06-1,1.08,1.08,0,0,1-.22-.44.93.93,0,0,1,.25-.79,1.63,1.63,0,0,1,.75-.41,2.91,2.91,0,0,1,3,.91c.1.12.2.25.35.24s.25-.14.33-.27a3.36,3.36,0,0,1,.62-.63c.17-.14.41-.35.64-.32s.57.47.54.83A2.14,2.14,0,0,1,28.31,43,5.15,5.15,0,0,1,26.43,43.7Z" style="fill:#191956"/><g style="clip-path:url(#clip-path-5)"><path d="M28,43.81c-.64-.91.85-1.81,1.07-2.71a1.13,1.13,0,0,0-.67-1.34c-.06,0-.13.07-.09.12.78,1.11.08,1.66-.55,2.58a1,1,0,0,0,.15,1.42.06.06,0,0,0,.09-.07Z" style="fill:#b70027"/><path d="M27.44,44.18a3.56,3.56,0,0,1-.11-1.59,6.18,6.18,0,0,1,.55-1.05,1.18,1.18,0,0,0,.08-1.2.07.07,0,0,0-.12,0c.11.86-.61,1.36-.91,2.11a1.73,1.73,0,0,0,.4,1.77c.05,0,.12,0,.11-.07Z" style="fill:#b70027"/><path d="M27.39,44.67c-1.12-1.44-1.47-4.47-3.63-4.82a0,0,0,0,0,0,.09,6.05,6.05,0,0,1,2.06,2.42,7.84,7.84,0,0,0,1.55,2.37s.09,0,.06-.06Z" style="fill:#b70027"/><path d="M26.3,44.11c-1-1.61-1.67-3.57-3.67-4.26-.08,0-.14.09-.08.15a22.78,22.78,0,0,1,2.1,2,14.3,14.3,0,0,0,1.5,2.26c.08.07.21,0,.15-.11Z" style="fill:#b70027"/><path d="M26.19,45.13A11.71,11.71,0,0,0,22,40.31s-.09,0-.05.07a35.58,35.58,0,0,1,4.08,4.83.08.08,0,0,0,.13-.08Z" style="fill:#b70027"/><path d="M25.34,44.6c-1.19-1.1-2.17-2.37-3.3-3.52,0,0-.15,0-.12.07a6,6,0,0,0,1.26,1.68,15.45,15.45,0,0,0,2,1.92c.09.07.2-.08.12-.15Z" style="fill:#b70027"/></g><path d="M14.86,38.61a2.41,2.41,0,0,0-.63.56,5.29,5.29,0,0,0-.91,2.89,6.08,6.08,0,0,0,.1,1.2,9.68,9.68,0,0,0,1.86,4.19,3.27,3.27,0,0,0,1.24,1.07,6,6,0,0,0,.69.2c.52.16,1,.41,1.54.56a2.16,2.16,0,0,0,1.6-.07,13.17,13.17,0,0,0-.85-5.46A15.46,15.46,0,0,0,18,40.16a4.63,4.63,0,0,0-1.07-1.22,2.34,2.34,0,0,0-1.52-.48A1.26,1.26,0,0,0,14.86,38.61Z" style="fill:#191956"/><g style="clip-path:url(#clip-path-6)"><path d="M20.66,48.87a3.24,3.24,0,0,0-.59-2.57c-.5-.68-.81-1.17-.42-2a1.72,1.72,0,0,0,.19-1c-.3-1-1.29-1.44-1.5-2.53s.26-2.45-.42-3.41c-.07-.1-.27-.08-.25.07.1,1.08-.1,2.14.1,3.21a3.63,3.63,0,0,0,.31,1.16c.29.47.75.76,1.07,1.21s-.15,1.35-.3,1.92a1.38,1.38,0,0,0,.22,1,17.73,17.73,0,0,1,1.06,1.6c.2.49.08,1,.36,1.47a.09.09,0,0,0,.17-.05Z" style="fill:#b70027"/><path d="M20,49.3a2.88,2.88,0,0,0-.33-1.37c-.24-.65-.9-.93-1.29-1.49-.67-1,.13-1.7.28-2.62a1.19,1.19,0,0,0-.31-1,13.57,13.57,0,0,1-1.39-1.23c-.75-1,.2-1.69.23-2.62,0-.57-.26-1.87-1.1-1.73a.18.18,0,0,0-.11.27c.36.6.71.93.54,1.69a6.84,6.84,0,0,0-.47,1.6c0,.95.89,1.66,1.61,2.1.94.57.33,1.22.1,1.94a1.91,1.91,0,0,0,.08,1.39,2.27,2.27,0,0,0,.7.95,3.91,3.91,0,0,1,1.33,2.09c0,.07.12,0,.13,0Z" style="fill:#b70027"/><path d="M18.78,49.18a6,6,0,0,0-.85-1.47c-.58-.77-1.31-1-1-2.18.19-.82.64-1.64-.22-2.23S14.89,42.14,15.06,41c.09-.57.53-1,.7-1.57a1.69,1.69,0,0,0-1-2.16.13.13,0,0,0-.15.19c.53.74,1,1.32.48,2.23a7.49,7.49,0,0,0-.58,1.17c-.3.91.48,1.88,1.16,2.37s1.14.79.8,1.83a2.52,2.52,0,0,0-.08,1.56,1.73,1.73,0,0,0,.65.86,13,13,0,0,1,1.61,1.71s.12,0,.1,0Z" style="fill:#b70027"/><path d="M17.09,48.55a2.65,2.65,0,0,1-1.27-3.11,1.72,1.72,0,0,0-.39-1.77c-.39-.43-.91-.65-1.28-1.13a2.17,2.17,0,0,1,0-2,2.42,2.42,0,0,0,0-2.1.11.11,0,0,0-.2.05c-.11,2-1.49,4,.74,5.28,1.13.65.7,1.24.62,2.24a2.57,2.57,0,0,0,.17,1.4A2.45,2.45,0,0,0,17,48.79c.14,0,.16-.18.07-.24Z" style="fill:#b70027"/><path d="M13.86,47.8a2.83,2.83,0,0,0,.9-2.69,2.63,2.63,0,0,0-2.69-1.69.11.11,0,0,0,0,.2c.94.41,1.88.54,2.31,1.6a3.18,3.18,0,0,1-.61,2.46.08.08,0,1,0,.12.12Z" style="fill:#b70027"/></g><path d="M16.05,48.06H15a.71.71,0,0,0-.38.09.33.33,0,0,0-.13.25c0,.26.28.4.5.53a1.74,1.74,0,0,1,.37.3,1.57,1.57,0,0,1-.22.66c-.94,1.93-2.89,6.15-3.35,7a1.53,1.53,0,0,0-1.15-.36.16.16,0,0,0-.12.07c-.06.08,0,.18.1.25a6.84,6.84,0,0,0,.92.59c-.19.39-.31.57-.46.94,0,.08-.24.84.16.81s.75-1,.86-1.4a5.58,5.58,0,0,0,1,.43.22.22,0,0,0,.23-.34,1.27,1.27,0,0,0-.67-.45,73,73,0,0,0,3.88-6.68.47.47,0,0,1,.15-.19.15.15,0,0,1,.21.07v.13c-.38,2.66-.88,5.22-1.5,7.83-.23-.05-.46,0-.69-.08a.67.67,0,0,0-.37,0c-.12,0-.22.17-.18.28a.35.35,0,0,0,.18.18,2.17,2.17,0,0,0,.95.13A4.38,4.38,0,0,0,15,60.35a.23.23,0,0,0,.44,0,7.74,7.74,0,0,0,.45-1.16,2,2,0,0,0,1,.35.16.16,0,0,0,.16-.2.59.59,0,0,0-.26-.36,1.63,1.63,0,0,0-.6-.23,43.43,43.43,0,0,1,2.76-7.89.1.1,0,0,1,.2,0,24.58,24.58,0,0,1,.43,4.1c0,1.27,0,2.9,0,4.24a.08.08,0,0,1-.08.08,3.5,3.5,0,0,0-1,0,.33.33,0,0,0-.19.11c-.09.15.1.31.26.36a3,3,0,0,0,.92,0s0,0,0,0c0,.23,0,.54,0,.77a.86.86,0,0,0,0,.39.27.27,0,0,0,.32.16c.14-.05.18-.21.2-.35a6.5,6.5,0,0,0,.08-1s0,0,0,0a4.28,4.28,0,0,0,.8,0,.45.45,0,0,0,.34-.13.26.26,0,0,0-.16-.42,1.9,1.9,0,0,0-.89.09l0,0c.55-4.32,1-8,1.49-8.34a.24.24,0,0,1,.35.14,37.15,37.15,0,0,1,1.29,5.42,9.55,9.55,0,0,1,.27,2.54.21.21,0,0,1-.17.18,2,2,0,0,0-.73.27.43.43,0,0,0-.15.15c-.07.15.07.33.23.37a.79.79,0,0,0,.47-.1,1,1,0,0,1,.47-.13c.07,0,.13.73.32,1.09.06.11.19.06.23-.06a2.23,2.23,0,0,0,0-1.07c0-.06,0-.11.09-.12.28,0,.62-.09.89-.11s.47-.14.41-.33a.36.36,0,0,0-.45-.24c-.37.07-.59.13-1,.18-.09-3.15-.23-5.16-.48-8,0-.49.4-.45.53-.21.57,1,1.41,2.87,1.95,3.88s1.29,2.07,1.85,3a1.66,1.66,0,0,1,.18.53c0,.11,0,.17-.1.24l-.46.26c-.11,0-.18.23-.08.3a.17.17,0,0,0,.12,0,.83.83,0,0,0,.53-.2c.07,0,.51-.28.69.56a.55.55,0,0,0,.2.39c.3.18.51-.15.47-.4a1.46,1.46,0,0,0-.29-.55.68.68,0,0,1-.12-.59c.09-.2.29-.2.48-.29A.78.78,0,0,0,30,58a.19.19,0,0,0-.2-.3,1.21,1.21,0,0,0-.48.27c-.21.17-.47.37-.58.12-.86-1.9-1.3-3.39-2.05-5-.23-.51-.46-1-.67-1.54a1.4,1.4,0,0,1,.48-2.15,1.25,1.25,0,0,0,.54-.62.52.52,0,0,0-.4-.64,14,14,0,0,0-3.65.15c-2.44.15-4.89-.34-7.32-.08Z" style="fill:#222272"/><path d="M26.49,48.39a.25.25,0,0,0,0,.49.25.25,0,0,0,0-.49Z" style="fill:#0c0a35"/><path d="M25.64,48.37a.27.27,0,0,0,0,.53.27.27,0,0,0,0-.53Z" style="fill:#0c0a35"/><path d="M24.63,48.37a.27.27,0,0,0,0,.53.27.27,0,0,0,0-.53Z" style="fill:#0c0a35"/><path d="M23.78,48.41a.26.26,0,0,0,0,.51.26.26,0,0,0,0-.51Z" style="fill:#0c0a35"/><path d="M22.74,48.43a.29.29,0,0,0,0,.57.29.29,0,0,0,0-.57Z" style="fill:#0c0a35"/><path d="M21.76,48.48a.29.29,0,0,0,0,.58.29.29,0,0,0,0-.58Z" style="fill:#0c0a35"/><path d="M20.85,48.47h0a.28.28,0,1,0,.24.41h0c.12-.18,0-.38-.23-.4Z" style="fill:#0c0a35"/><path d="M19.9,48.46a.26.26,0,0,0,0,.51.26.26,0,0,0,0-.51Z" style="fill:#0c0a35"/><path d="M18.92,48.33a.28.28,0,0,0,0,.56.28.28,0,0,0,0-.56Z" style="fill:#0c0a35"/><path d="M18,48.31a.3.3,0,0,0,0,.59.3.3,0,0,0,0-.59Z" style="fill:#0c0a35"/><path d="M17,48.31a.27.27,0,0,0,0,.54.27.27,0,0,0,0-.54Z" style="fill:#0c0a35"/><path d="M16.08,48.33a.25.25,0,0,0,0,.5.25.25,0,0,0,0-.5Z" style="fill:#0c0a35"/><path d="M15.28,48.32a.27.27,0,0,0,0,.53.27.27,0,0,0,0-.53Z" style="fill:#0c0a35"/><path d="M24.89,50.73h0a.32.32,0,0,0,0,.46v0a.35.35,0,1,0,0-.49Z" style="fill:#990028"/><path d="M23,50.92a.43.43,0,0,0,0,.85.43.43,0,1,0,0-.85Z" style="fill:#990028"/><path d="M20.29,51a.43.43,0,0,0-.43.43.43.43,0,0,0,.43.43.43.43,0,0,0,.43-.43.44.44,0,0,0-.43-.43Z" style="fill:#990028"/><path d="M17.39,50.83h0a.42.42,0,0,0-.07.51.44.44,0,0,0,.47.19h0a.42.42,0,1,0-.41-.7Z" style="fill:#990028"/><path d="M15.56,50h0a.39.39,0,0,0-.08.6h0a.4.4,0,0,0,.56-.56.38.38,0,0,0-.48-.06Z" style="fill:#990028"/><path d="M22,57.05a.27.27,0,0,0,0,.54.27.27,0,0,0,0-.54Z" style="fill:#0c0a35"/><path d="M25.74,51.68h0a.26.26,0,0,0-.52,0h0a.26.26,0,0,0,.52,0Z" style="fill:#0c0a35"/><path d="M23.12,51.86a.31.31,0,0,0,0,.62.31.31,0,0,0,0-.62Z" style="fill:#0c0a35"/><path d="M20.22,52a.26.26,0,0,0,0,.51.26.26,0,0,0,0-.51Z" style="fill:#0c0a35"/><path d="M17.43,51.74a.27.27,0,0,0,0,.54.27.27,0,0,0,0-.54Z" style="fill:#0c0a35"/><path d="M15.41,50.86a.25.25,0,0,0,0,.5.25.25,0,0,0,0-.5Z" style="fill:#0c0a35"/><path d="M13.68,32.93a.89.89,0,0,0,.17-.73A3.92,3.92,0,0,0,13.63,31a1.41,1.41,0,0,0-.83-.84,33,33,0,0,0-4.77.3,2.71,2.71,0,0,0-.64.15,1.65,1.65,0,0,0-.93,1.25,1.85,1.85,0,0,0,1,1.89,3.55,3.55,0,0,0,2.12.11,23.15,23.15,0,0,0,3.77-.78A.78.78,0,0,0,13.68,32.93Z" style="fill:#222272"/><path d="M14.34,34a2.87,2.87,0,0,1-.25,1.85,7.45,7.45,0,0,1-3.4,2.42,3.37,3.37,0,0,1-3.32-.65,3,3,0,0,1-.92-2.48,2,2,0,0,1,1.49-1.56A12.86,12.86,0,0,1,11,33.26c.85-.12,2-.54,2.75-.21C14.05,33.17,14.23,33.65,14.34,34Z" style="fill:#191956"/><path d="M9.54,37.68c-.68.42-1.52-.61-1.84-1.07a2.13,2.13,0,0,1-.41-1.19c0-.5.39-1,.92-.85a.48.48,0,0,1,.36.46,4.17,4.17,0,0,1-.15.46,1.54,1.54,0,0,0,.21.69,3.23,3.23,0,0,0,.91,1.13.22.22,0,0,1,0,.37Z" style="fill:#990028"/><path d="M10.61,37.2c-.45.08-.85-.71-1-1a1.26,1.26,0,0,1,.15-1.72c.4-.29.95.28.67.67s.09.74.2,1,.47,1,0,1.05Z" style="fill:#990028"/><path d="M11.65,36.28a2.52,2.52,0,0,1-.25-.82,2.74,2.74,0,0,1-.13-.94.46.46,0,0,1,.89-.12,3.74,3.74,0,0,1,.13.94,1.66,1.66,0,0,1-.1.94.32.32,0,0,1-.54,0Z" style="fill:#990028"/><path d="M13.08,35.63a3.94,3.94,0,0,1-.05-.77,7.83,7.83,0,0,0-.29-.9.32.32,0,0,1,.54-.31c.44.5.69,1.63.06,2.09-.09.07-.23,0-.26-.11Z" style="fill:#990028"/><path d="M7.57,33a.14.14,0,0,1,0,.27.14.14,0,1,1,0-.27Z" style="fill:#f70032"/><path d="M7,32.5a.08.08,0,0,1,0,.16.08.08,0,1,1,0-.16Z" style="fill:#f70032"/><path d="M7.62,32.2a.17.17,0,0,1,0,.33.17.17,0,0,1,0-.33Z" style="fill:#f70032"/><path d="M7.33,31.59a.11.11,0,0,1,0,.22.11.11,0,1,1,0-.22Z" style="fill:#f70032"/><path d="M8.2,31.64s0,0,0,0,0,0,0,0Z" style="fill:#f70032"/><path d="M8.26,31.6a.1.1,0,0,1,0,.2.1.1,0,0,1,0-.2Z" style="fill:#f70032"/><path d="M8.34,32.93a.1.1,0,0,1,0,.2.1.1,0,1,1,0-.2Z" style="fill:#f70032"/><path d="M8.71,32.34a.14.14,0,0,1,0,.27.14.14,0,0,1,0-.27Z" style="fill:#f70032"/><path d="M7.86,30.73a.15.15,0,0,1,0,.3.15.15,0,0,1,0-.3Z" style="fill:#f70032"/><path d="M9,31.12a.13.13,0,0,1,0,.26.13.13,0,0,1,0-.26Z" style="fill:#f70032"/><path d="M9.4,31.77a.12.12,0,0,1,0,.23.12.12,0,0,1,0-.23Z" style="fill:#f70032"/><path d="M9.56,32.66a.13.13,0,0,1,0,.26.13.13,0,0,1,0-.26Z" style="fill:#f70032"/><path d="M10.49,32.83a.12.12,0,0,1,0,.24.12.12,0,1,1,0-.24Z" style="fill:#f70032"/><path d="M10.38,32.08a.13.13,0,0,1,0,.25.13.13,0,0,1,0-.25Z" style="fill:#f70032"/><path d="M11.07,32.39a.08.08,0,1,1,0,.16.08.08,0,0,1,0-.16Z" style="fill:#f70032"/><path d="M10.17,31.24a.14.14,0,0,1,0,.28.14.14,0,0,1,0-.28Z" style="fill:#f70032"/><path d="M9.69,30.58a.09.09,0,1,1,0,.17.09.09,0,0,1,0-.17Z" style="fill:#f70032"/><path d="M8.58,30.52l0,0a.12.12,0,0,1,.2.09.12.12,0,0,1-.2.08h0a.1.1,0,0,1,0-.14Z" style="fill:#f70032"/><path d="M11,31.32a.12.12,0,0,1,0,.24.12.12,0,0,1,0-.24Z" style="fill:#f70032"/><path d="M10.78,30.54a.1.1,0,0,1,0,.2.1.1,0,0,1,0-.2Z" style="fill:#f70032"/><path d="M25.73,24.85a.37.37,0,0,0-.17-.1.24.24,0,0,0-.28.11.26.26,0,0,0,.09.34.29.29,0,0,0,.13.05c.22,0,.42-.23.23-.4Z" style="fill:#0c0a35"/><path d="M13.56,37.87a.15.15,0,1,0,0,.3.15.15,0,0,0,0-.3Z" style="fill:#0c0a35"/><path d="M18.36,34.5a.13.13,0,1,0,0,.27.13.13,0,0,0,0-.27Z" style="fill:#0c0a35"/><path d="M23.31,27.77a.22.22,0,0,0,0,.43.22.22,0,0,0,0-.43Z" style="fill:#0c0a35"/><path d="M18.21,37.8a.21.21,0,1,0,0,.42.21.21,0,0,0,0-.42Z" style="fill:#0c0a35"/><path d="M25.5,28.79a.27.27,0,0,0,.07-.08c.12-.25-.24-.47-.38-.22h0l.08-.08,0,0a.23.23,0,0,0-.08.31.22.22,0,0,0,.35,0Z" style="fill:#0c0a35"/><path d="M24.13,26.17a.23.23,0,0,0,0,.45.23.23,0,0,0,0-.45Z" style="fill:#0c0a35"/><path d="M28.16,23.13a.28.28,0,0,0,.17-.09c.19-.14,0-.42-.24-.31h0a.21.21,0,1,0,.05.41Z" style="fill:#0c0a35"/><path d="M23.68,23.92v0a.21.21,0,0,0-.36,0s0,0,0,0a.22.22,0,0,0,.19.33.22.22,0,0,0,.19-.33Z" style="fill:#0c0a35"/><path d="M5.42,11.77c0,.1,0,.24,0,.34s0,.21,0,.31a1.4,1.4,0,0,0,.43.91H4.76a1.39,1.39,0,0,0,.42-.91c0-.1,0-.2,0-.31s0-.24,0-.34Z" style="fill:#0c0a35"/><path d="M5.35,12c.1,0,.16.11.34.3a1,1,0,0,0,.69.41.62.62,0,0,0,.55-.23,1.28,1.28,0,0,0,.19-.43,1.12,1.12,0,0,0-.1-.84A.58.58,0,0,0,6.26,11c-.13.08-.17.17-.29.19s-.06,0,0-.06.17-.2.23-.41A.61.61,0,0,0,5.9,10a1.16,1.16,0,0,0-1.22,0,.56.56,0,0,0-.26.67c.06.2.17.29.23.46a.08.08,0,0,1-.1.09c-.08,0-.13-.11-.24-.18a.59.59,0,0,0-.76.24,1.28,1.28,0,0,0,.1,1.27.61.61,0,0,0,.55.23,1,1,0,0,0,.69-.41c.18-.19.23-.29.33-.3Z" style="fill:#0c0a35"/><path d="M7.87,8.74H7.08L5.36,5.57,4,7.21V8.74H3.32V3H4V6.33L6.64,3h.78L5.86,5Z" style="fill:#0c0a35"/><path d="M35.51,50.52c0-.1,0-.25,0-.35a1.51,1.51,0,0,0,0-.3,1.34,1.34,0,0,0-.42-.91h1.06a1.39,1.39,0,0,0-.42.91c0,.1,0,.2,0,.3s0,.25,0,.35Z" style="fill:#0c0a35"/><path d="M35.58,50.27c-.1,0-.16-.11-.34-.31a1,1,0,0,0-.69-.41.68.68,0,0,0-.55.23,1.34,1.34,0,0,0-.19.44,1.16,1.16,0,0,0,.1.84.59.59,0,0,0,.76.24c.13-.08.17-.17.29-.19s.06,0,0,.06-.17.2-.23.41-.11.44.25.76a1.19,1.19,0,0,0,1.22,0,.56.56,0,0,0,.25-.68,4.71,4.71,0,0,0-.22-.45.08.08,0,0,1,.1-.09c.08,0,.13.11.24.18a.59.59,0,0,0,.76-.24,1.11,1.11,0,0,0,.09-.84,1.16,1.16,0,0,0-.19-.44.67.67,0,0,0-.55-.23A1.1,1.1,0,0,0,36,50c-.18.2-.23.29-.33.31Z" style="fill:#0c0a35"/><path d="M33.06,53.54h.79l1.72,3.18,1.32-1.64V53.54h.72v5.75h-.72V56l-2.6,3.33h-.78l1.56-2Z" style="fill:#0c0a35"/><path d="M10.34,59.11H6.1a3.1,3.1,0,0,1-2.91-3.19V15.66a.09.09,0,0,1,.1-.09.09.09,0,0,1,.09.09V55.92a2.91,2.91,0,0,0,2.72,3h4.24a.09.09,0,0,1,0,.18Z" style="fill:#191956"/><path d="M32.78,59.11H30.36a.09.09,0,1,1,0-.18h2.42a.09.09,0,1,1,0,.18Z" style="fill:#191956"/><path d="M37.65,46.92a.09.09,0,0,1-.1-.1V6.36a2.92,2.92,0,0,0-2.81-3H30.66a.1.1,0,0,1-.1-.09.11.11,0,0,1,.1-.1h4.08a3.11,3.11,0,0,1,3,3.19V46.82A.09.09,0,0,1,37.65,46.92Z" style="fill:#191956"/><path d="M10.61,3.36H8.45a.09.09,0,0,1-.1-.09.1.1,0,0,1,.1-.1h2.16a.1.1,0,0,1,.1.1A.09.09,0,0,1,10.61,3.36Z" style="fill:#191956"/></g></g></g></svg>