<svg xmlns="http://www.w3.org/2000/svg" xmlns:xlink="http://www.w3.org/1999/xlink" viewBox="0 0 41.08 62.51"><defs><clipPath id="clip-path"><path d="M25.84,56.44C27,55.29,27,49.19,27,49c0-.73-.61-4.67-.32-5.37s.8-.83,1.12-1.34A1.86,1.86,0,0,0,28,40.58a2.09,2.09,0,0,0-1.17-1,4.26,4.26,0,0,0-3.66.33,3.68,3.68,0,0,0-.69.56,1.82,1.82,0,0,0-.4.58,3.64,3.64,0,0,0-.19,1.54,23.33,23.33,0,0,0,.93,4.82,5.33,5.33,0,0,0,.48,1.3C23.87,49.66,22.39,57.07,25.84,56.44Z" style="fill:none"/></clipPath><clipPath id="clip-path-2"><path d="M25.06,57.45a2.45,2.45,0,0,0,1-1.55,5.14,5.14,0,0,0,0-1.3,2.15,2.15,0,0,0-1-.06,35.27,35.27,0,0,1-6.08,0c.44-2.84-.16-5.73-.14-8.61a14,14,0,0,0-.31-4.53c-.43-1.63-1.34-1.7-2.5-1.68a4.92,4.92,0,0,0-3.14.93,3.06,3.06,0,0,0-.6,3.24,2.9,2.9,0,0,0,1.95,1.55.88.88,0,0,1,.54.3.73.73,0,0,1,.08.36l.36,6.28a9.69,9.69,0,0,0,.5,2.55,3.56,3.56,0,0,0,1.86,1.88,4.74,4.74,0,0,0,2.11,1l3.1.15a4.23,4.23,0,0,0,1.28-.07Z" style="fill:none"/></clipPath><clipPath id="clip-path-3"><path d="M15.49,6.26c-1.13,1.16-1.17,7.26-1.18,7.42,0,.73.62,4.67.32,5.37s-.79.82-1.12,1.34a1.83,1.83,0,0,0-.17,1.74,2,2,0,0,0,1.16,1,4.27,4.27,0,0,0,3.67-.32,5.28,5.28,0,0,0,.69-.56,1.69,1.69,0,0,0,.39-.59,3.59,3.59,0,0,0,.19-1.53,22.29,22.29,0,0,0-.93-4.83A5,5,0,0,0,18,14C17.46,13.05,19,5.64,15.49,6.26Z" style="fill:none"/></clipPath><clipPath id="clip-path-4"><path d="M16.28,5.25a2.5,2.5,0,0,0-1,1.55,5.22,5.22,0,0,0,0,1.31,2.29,2.29,0,0,0,1,.06,35.39,35.39,0,0,1,6.09,0c-.45,2.84.16,5.73.14,8.61a14.25,14.25,0,0,0,.3,4.52C23.21,23,24.12,23,25.29,23a5,5,0,0,0,3.13-.93A3.08,3.08,0,0,0,29,18.83a2.9,2.9,0,0,0-2-1.54.83.83,0,0,1-.53-.3.78.78,0,0,1-.09-.37l-.36-6.28a9.69,9.69,0,0,0-.5-2.55,3.57,3.57,0,0,0-1.85-1.88,4.81,4.81,0,0,0-2.12-1l-3.09-.15a4.55,4.55,0,0,0-1.28.06Z" style="fill:none"/></clipPath></defs><title>cq</title><g id="Layer_2" data-name="Layer 2"><g id="Layer_1-2" data-name="Layer 1"><g id="cq"><rect x="0.09" y="0.09" width="40.89" height="62.32" rx="3.46" style="fill:#fff"/><path d="M37.52,62.51h-34A3.56,3.56,0,0,1,0,59V3.56A3.56,3.56,0,0,1,3.56,0h34a3.56,3.56,0,0,1,3.56,3.56V59A3.57,3.57,0,0,1,37.52,62.51ZM3.56.19A3.37,3.37,0,0,0,.19,3.56V59a3.37,3.37,0,0,0,3.37,3.37h34A3.37,3.37,0,0,0,40.89,59V3.56A3.37,3.37,0,0,0,37.52.19Z" style="fill:#2d2d2d"/><path d="M31.77,38.36a2.09,2.09,0,0,1-.25.94,2.48,2.48,0,0,1-1.08.88A11.39,11.39,0,0,1,25,41a2.33,2.33,0,0,0-1.69.34,1.55,1.55,0,0,0-.39.93,6.9,6.9,0,0,0,0,2.08.7.7,0,0,1,0,.43.82.82,0,0,1-.4.3c-1.06.49-3.27,2.39-4.38,2.8-.18-1.25.72-4-.25-5s-2.79-1.31-4.37-1.52-3.3-.5-4.36-1.56a3.78,3.78,0,0,1-1-2.4,10.81,10.81,0,0,1,.18-2.6.61.61,0,0,1,.15-.37.89.89,0,0,1,.63-.12,17.31,17.31,0,0,0,3-.2A35.77,35.77,0,0,1,21.19,34c1,.14,2,.35,3,.49a20.62,20.62,0,0,0,4.44.17,4.71,4.71,0,0,1,1.91.08c.61.21,1.09.82.84,1.35A4.89,4.89,0,0,1,31.77,38.36Z" style="fill:#fcc07e"/><path d="M9.57,24.35a2.1,2.1,0,0,1,.25-1,2.49,2.49,0,0,1,1.08-.88,11.39,11.39,0,0,1,5.49-.83,2.32,2.32,0,0,0,1.68-.35,1.5,1.5,0,0,0,.39-.92,6.66,6.66,0,0,0,0-2.09.7.7,0,0,1,0-.43.78.78,0,0,1,.39-.29c1.06-.5,3.28-2.4,4.38-2.81.19,1.26-.71,4.05.25,5s2.8,1.3,4.38,1.52,3.3.49,4.35,1.55a3.87,3.87,0,0,1,1,2.4A10.44,10.44,0,0,1,33,27.86a.58.58,0,0,1-.15.37.83.83,0,0,1-.63.11,16.36,16.36,0,0,0-3,.21,35.33,35.33,0,0,1-9.07.14c-1-.14-2-.34-3-.48A21.16,21.16,0,0,0,12.73,28,4.94,4.94,0,0,1,10.81,28c-.6-.21-1.09-.82-.84-1.35A4.9,4.9,0,0,1,9.57,24.35Z" style="fill:#fcc07e"/><path d="M30.44,25.13c.36,0,2.63-.89,2.86-.05.34,1.25-.55,3.42-.2,4.46.29.87-1.34,2.13-1.27,3,.12,1.77.55,5.3-.14,5.34s-2.43-.22-3.12-.25c-6.57-.25-10.48-.14-16.27-.4a15.93,15.93,0,0,0-2.59.2c-.54.08-2,1.15-2.18-.15a36.14,36.14,0,0,1,0-5c.07-.84.14-1.69.25-2.53a30.42,30.42,0,0,1,.85-4.29,1,1,0,0,1,.19-.43,1.21,1.21,0,0,1,.53-.3c2.88-1.06,6.13-.82,9.23-.55a23.32,23.32,0,0,1,3.34.45C22.71,24.86,28.87,25,30.44,25.13Z" style="fill:#191956"/><path d="M25.84,56.44C27,55.29,27,49.19,27,49c0-.73-.61-4.67-.32-5.37s.8-.83,1.12-1.34A1.86,1.86,0,0,0,28,40.58a2.09,2.09,0,0,0-1.17-1,4.26,4.26,0,0,0-3.66.33,3.68,3.68,0,0,0-.69.56,1.82,1.82,0,0,0-.4.58,3.64,3.64,0,0,0-.19,1.54,23.33,23.33,0,0,0,.93,4.82,5.33,5.33,0,0,0,.48,1.3C23.87,49.66,22.39,57.07,25.84,56.44Z" style="fill:#0c0a35"/><path d="M7.58,38a.82.82,0,0,1,0-.49A.83.83,0,0,1,8,37.21a39.83,39.83,0,0,0,8-5.74c1.32-1.1,9.45-8,12-10a1.45,1.45,0,0,1,.43-.26,1.55,1.55,0,0,1,.74,0,8.64,8.64,0,0,1,2.82,1,2.88,2.88,0,0,1,1.32,2.89c-2.84,1.42-6.95,5.49-11.36,8.42-1,.65-7.42,6-9.08,8.12a1,1,0,0,1-.32.3,2.72,2.72,0,0,1-1.1,0A6.45,6.45,0,0,1,7.58,38Z" style="fill:#0c0a35"/><path d="M25.2,53.11c1.2-.85,2.28-3.58.51-4.46a.1.1,0,0,0-.14.14A3,3,0,0,1,26.16,51a4.3,4.3,0,0,1-1,2s0,.13.07.09Z" style="fill:#b70027"/><path d="M25.66,48.72a3.1,3.1,0,0,0-.46-.86,2.07,2.07,0,0,0-.7-.74.1.1,0,0,0-.15.11,2,2,0,0,0,.53.74c.23.27.46.53.68.81,0,0,.12,0,.1-.06Z" style="fill:#b70027"/><path d="M24.77,52.52a1.57,1.57,0,0,0,.1-2.82.1.1,0,0,0-.13.13,3.66,3.66,0,0,1,.6,1.05,1.47,1.47,0,0,1-.64,1.49c-.09,0,0,.18.07.15Z" style="fill:#b70027"/><g style="clip-path:url(#clip-path)"><path d="M26.35,57a3.87,3.87,0,0,1-.53-2.83c.18-.94,1.12-1.45,1.48-2.3a4.76,4.76,0,0,0-.87-4.73,5.45,5.45,0,0,1-.82-3.08c0-.89.36-1.77.36-2.68a3.11,3.11,0,0,0-.7-1.74c-.27-.35-.56-.64-.81-1A11.28,11.28,0,0,1,24,37.26c-.05-.11-.24,0-.2.09a7.64,7.64,0,0,0,.76,2c.23.35.53.64.75,1a3.12,3.12,0,0,1,.22,2.17c-.26,1.75-.37,3.25.6,4.84a6.21,6.21,0,0,1,1.18,3.18c0,1.24-1.05,2-1.6,3A3.13,3.13,0,0,0,26.31,57s.05,0,0,0Z" style="fill:#b70027"/><path d="M27,56.22c-.73-.32-.63-1-.27-1.61s.85-.78,1-1.31a.11.11,0,0,0-.15-.12,3.2,3.2,0,0,0-1.48,1.92c-.07.57.26,1.24.91,1.2,0,0,.06-.06,0-.08Z" style="fill:#b70027"/><path d="M28.33,47.61a.85.85,0,0,0-.29-.34,4,4,0,0,1-.75-1,3.09,3.09,0,0,1-.09-3.48,3.22,3.22,0,0,0-1-4.46.11.11,0,0,0-.15.15c.35.55.84.86,1.07,1.51a3.74,3.74,0,0,1,0,2.07A12.45,12.45,0,0,0,26.33,44a2.7,2.7,0,0,0,.38,2.08c.26.33.44.77.71,1.06s.57.31.79.53a.07.07,0,0,0,.12-.07Z" style="fill:#b70027"/><path d="M24.3,46a5.18,5.18,0,0,1,.28-2.67,3.77,3.77,0,0,0,.47-1.66A3.56,3.56,0,0,0,23.17,39a.08.08,0,0,0-.11.12,8.78,8.78,0,0,0,.85,1,2.43,2.43,0,0,1,.47,2.48c-.13.51-.43.92-.54,1.43a6.38,6.38,0,0,0,.27,2,.1.1,0,1,0,.19,0Z" style="fill:#b70027"/><path d="M23.35,44.73a3.75,3.75,0,0,1,.15-2.2,2.35,2.35,0,0,0,.12-1.26,2.56,2.56,0,0,0-1.39-1.87.08.08,0,0,0-.1.12c.83.88,1.44,1.66,1.11,2.94a4.2,4.2,0,0,0-.11,2.33c0,.14.25.08.22-.06Z" style="fill:#b70027"/><path d="M22.63,44.77c-.31-1.07.33-2.27,0-3.39-.19-.69-.71-1.5-1.49-1.52a.12.12,0,0,0-.06.22A3,3,0,0,1,22.33,43c0,.46-.19,1.45.24,1.8a0,0,0,0,0,.06,0Z" style="fill:#b70027"/></g><path d="M17,58.07c0,.07-.1.08-.17.07a7.76,7.76,0,0,1-.82-.25,4.58,4.58,0,0,1-1.85-1.24A6.18,6.18,0,0,1,13,52.82a20,20,0,0,0-.63-4.33c0-.34,2.49-.34,3-.31.13,2,.27,4,.59,6a5.7,5.7,0,0,0,.46,1.66A2.2,2.2,0,0,0,17.61,57a1.84,1.84,0,0,1-1,1.17Z" style="fill:#222272"/><path d="M24.68,55.64a4.09,4.09,0,0,0,.51-3.89,1,1,0,0,1-.1-.42,20,20,0,0,1,1.46-2,.63.63,0,0,0,.12-.31c0-.28-.3-.45-.57-.49a1.94,1.94,0,0,1-.8-.17c-.38-.24-.37-.79-.35-1.24A3.85,3.85,0,0,0,24,44.19a3,3,0,0,0-3.11-.46,4.55,4.55,0,0,0-2.25,2.34,8.26,8.26,0,0,0-.46,1.2,18.44,18.44,0,0,0-.79,4.29,7,7,0,0,0,.11,2.09,3.22,3.22,0,0,0,1,1.78,3.57,3.57,0,0,0,1,.56,6.33,6.33,0,0,0,4.1.17,2.48,2.48,0,0,0,1.19-.67Z" style="fill:#ffd6a1"/><path d="M25.06,57.45a2.45,2.45,0,0,0,1-1.55,5.14,5.14,0,0,0,0-1.3,2.15,2.15,0,0,0-1-.06,35.27,35.27,0,0,1-6.08,0c.44-2.84-.16-5.73-.14-8.61a14,14,0,0,0-.31-4.53c-.43-1.63-1.34-1.7-2.5-1.68a4.92,4.92,0,0,0-3.14.93,3.06,3.06,0,0,0-.6,3.24,2.9,2.9,0,0,0,1.95,1.55.88.88,0,0,1,.54.3.73.73,0,0,1,.08.36l.36,6.28a9.69,9.69,0,0,0,.5,2.55,3.56,3.56,0,0,0,1.86,1.88,4.74,4.74,0,0,0,2.11,1l3.1.15a4.23,4.23,0,0,0,1.28-.07Z" style="fill:#0c0a35"/><path d="M25.27,46a.32.32,0,0,0,0-.22.57.57,0,0,0-.75-.23c-.1.05-.4.24-.49.3a6.55,6.55,0,0,1-1.53.69A3.05,3.05,0,0,1,23.8,47a5.64,5.64,0,0,0,.73.38.65.65,0,0,0,.8-.15.21.21,0,0,0,.05-.13.66.66,0,0,0-.36-.58S25.23,46.26,25.27,46Z" style="fill:#f70032"/><path d="M19.89,53.64a3,3,0,0,0,3.61,0c.06,0,0-.18-.07-.17-.56.05-1.08.31-1.65.38A3.81,3.81,0,0,1,20,53.54a.06.06,0,0,0-.06.1Z" style="fill:#0c0a35"/><path d="M22.92,52c.09.13.16.27.24.4s.15.25.29.22,0,0,.05-.06a.16.16,0,0,0-.06-.13.62.62,0,0,1-.11-.17c-.08-.13-.13-.26-.21-.38a.12.12,0,0,0-.2.12Z" style="fill:#0c0a35"/><path d="M21.71,51.94a2.23,2.23,0,0,0-.2.68c-.06.17-.13.47,0,.6a.08.08,0,0,0,.1,0c.13-.12.14-.4.15-.56a4.17,4.17,0,0,0,0-.71s0,0-.05,0Z" style="fill:#0c0a35"/><path d="M22.17,52a.81.81,0,0,0,.06.57l.12.3c0,.08,0,.16.13.2a.08.08,0,0,0,.08,0c.13-.1,0-.32,0-.45a2.6,2.6,0,0,0-.25-.62.08.08,0,0,0-.14,0Z" style="fill:#0c0a35"/><path d="M20.55,51.78c-.34,0-.91.23-1,.62,0,0,0,.08.07.07a1,1,0,0,0,.41-.24,4.39,4.39,0,0,1,.51-.37,0,0,0,0,0,0-.08Z" style="fill:#0c0a35"/><path d="M21,52.06a1.07,1.07,0,0,0-.54.81c0,.05.05.09.09.07.34-.08.44-.54.51-.84,0,0,0-.06-.06,0Z" style="fill:#0c0a35"/><path d="M21.68,51.72a1.23,1.23,0,0,0,.09-.54c0-.15,0-.35-.12-.46a.08.08,0,0,0-.11,0c-.12.12-.07.31,0,.46a5.23,5.23,0,0,0,.12.54s.05,0,.06,0Z" style="fill:#0c0a35"/><path d="M22.27,51.66c.05-.15.09-.29.13-.43a.54.54,0,0,0,0-.41.08.08,0,0,0-.11,0c-.13.07-.14.23-.17.36a1.57,1.57,0,0,0,0,.48.08.08,0,0,0,.16,0Z" style="fill:#0c0a35"/><path d="M22.85,51.68a1.9,1.9,0,0,0,.26-.37c.06-.12.17-.23.18-.37a.05.05,0,0,0-.05-.06c-.16,0-.23.15-.3.28a3.71,3.71,0,0,0-.19.46.06.06,0,0,0,.1.06Z" style="fill:#0c0a35"/><path d="M21,51.77c.28-.14,0-1-.27-.85s0,.4.06.51.11.39.21.34Z" style="fill:#0c0a35"/><path d="M20.53,51.82a1.84,1.84,0,0,0-.06-.4.54.54,0,0,0-.28-.31.14.14,0,0,0-.13,0c-.11.11,0,.26.11.34l.14.19.17.17s.05,0,.05,0Z" style="fill:#0c0a35"/><path d="M23.86,51.72a3.48,3.48,0,0,1-4.25.11,2.45,2.45,0,0,1,1-.36,7.49,7.49,0,0,1,1.06-.13,5.41,5.41,0,0,1,1.27.11A3.09,3.09,0,0,1,23.86,51.72Z" style="fill:#fff"/><path d="M21.71,51.42a.43.43,0,1,0,.43.43.44.44,0,0,0-.43-.43Z" style="fill:#0c0a35"/><g style="clip-path:url(#clip-path-2)"><path d="M24.75,58.18a1.62,1.62,0,0,0,.81-1.72,2.3,2.3,0,0,0-.36-.94c-.6-1-.24-1.62.14-2.58,0-.06-.06-.13-.12-.09A2.12,2.12,0,0,0,24.45,55c0,.39.3.61.49.93a1.76,1.76,0,0,1-.26,2.17c-.05,0,0,.13.07.09Z" style="fill:#b70027"/><path d="M23.78,58.49a1.89,1.89,0,0,0,.54-1.65,4.38,4.38,0,0,0-.55-1.13c-.58-1,.07-1.79.3-2.7a.11.11,0,0,0-.19-.11,2.83,2.83,0,0,0-.74,2.18,2.58,2.58,0,0,0,.44,1.12,2.18,2.18,0,0,1,.12,2.23s0,.11.08.06Z" style="fill:#b70027"/><path d="M22.59,58.13a2,2,0,0,0,.12-2c-.15-.41-.42-.77-.59-1.18-.29-.73.27-1.43.39-2.14a.11.11,0,0,0-.18-.11,2.41,2.41,0,0,0-.77,2c.1,1.27,1.5,1.94,1,3.37,0,0,0,.06.06,0Z" style="fill:#b70027"/><path d="M21.75,58.23a1.86,1.86,0,0,0-.44-1.8,2.77,2.77,0,0,1-.61-1.65c0-.72.39-1.25.51-1.91,0-.09-.06-.15-.14-.11-.81.36-.88,1.55-.83,2.31.07,1.24,1.45,1.94,1.37,3.15,0,.08.11.09.14,0Z" style="fill:#b70027"/><path d="M20.75,58.46a2.75,2.75,0,0,0-1-2.3c-1.17-1.2.11-2.53.26-3.8a.1.1,0,0,0-.18-.07,4.39,4.39,0,0,0-1,2.89,1.83,1.83,0,0,0,.42,1.06,4.36,4.36,0,0,1,1.43,2.23,0,0,0,0,0,.07,0Z" style="fill:#b70027"/><path d="M19.86,58.12c-.15-.56-.7-1-1-1.49a4.94,4.94,0,0,1-.66-3.74c.23-1,.78-1.85,1-2.84a4.31,4.31,0,0,0-.45-2.28,13.53,13.53,0,0,1-.89-3A6.41,6.41,0,0,1,18.69,42a3.4,3.4,0,0,0-.79-3.59c-.07-.06-.19,0-.13.1,1.24,1.88.48,3.33-.13,5.23-.49,1.54.5,3.43,1.07,4.82.77,1.87-.94,3.79-1,5.72a5.13,5.13,0,0,0,.63,2.19c.36.75.93,1,1.37,1.67,0,.06.13,0,.11-.05Z" style="fill:#b70027"/><path d="M20.25,47.37A3.94,3.94,0,0,1,19,45a17.86,17.86,0,0,1,.27-2.29.1.1,0,0,0-.19,0,3.53,3.53,0,0,0,1.06,4.85c.11.08.25-.05.15-.15Z" style="fill:#b70027"/><path d="M18,57.84a4.87,4.87,0,0,1-1-2,6.48,6.48,0,0,1,.48-3.33c.48-1.43,1.25-2.64.5-4.17A13.93,13.93,0,0,1,16.83,46a5.09,5.09,0,0,1,.45-3.51A3.51,3.51,0,0,0,17,38.61c-.07-.07-.22,0-.18.11a4.38,4.38,0,0,1,.26,2.9,16.56,16.56,0,0,0-.86,2.45,6.7,6.7,0,0,0,.22,2.36,22.34,22.34,0,0,0,1.1,2.38c.7,1.85-1,3.79-1.11,5.66-.09,1.27.19,2.84,1.43,3.45.05,0,.11,0,.08-.08Z" style="fill:#b70027"/><path d="M15.88,56.6a11.14,11.14,0,0,1-.06-2.77c.22-.95.6-1.84.9-2.76.61-1.88-.32-3.32-.95-5a4.32,4.32,0,0,1-.2-3,24.88,24.88,0,0,0,1-2.51c.33-1.47-.55-2.39-1.66-3.12a.14.14,0,0,0-.19.19c.35.67,1,1,1.25,1.77.4,1.06-.37,2.23-.8,3.15a4.79,4.79,0,0,0,.19,4c.31.82.76,1.57,1,2.4A4.83,4.83,0,0,1,16,52a16.3,16.3,0,0,0-.74,2.44,4.41,4.41,0,0,0,.43,2.19.08.08,0,0,0,.16,0Z" style="fill:#b70027"/><path d="M14.61,52.89a4.35,4.35,0,0,0,1-3.36c-.11-1-.45-2.3-1.5-2.66a.15.15,0,0,0-.17.22c1.13,1.64,1.79,3.88.52,5.67-.07.1.09.22.17.13Z" style="fill:#b70027"/><path d="M14.71,45.85a3.1,3.1,0,0,1-.39-3.15,10.12,10.12,0,0,0,1-2.38,2.34,2.34,0,0,0-2-2.43.13.13,0,0,0-.12.22c.56.53,1.28.85,1.54,1.64.32,1-.68,2.16-1,3A2.53,2.53,0,0,0,14.6,46c.07,0,.15,0,.11-.1Z" style="fill:#b70027"/><path d="M13.49,45.49a3.59,3.59,0,0,1-.2-3.41,4.16,4.16,0,0,0,.54-1.75,2.15,2.15,0,0,0-1.79-2c-.09,0-.11.1-.07.15A5.19,5.19,0,0,1,13.27,40c.34.83-.43,1.78-.68,2.55a3.25,3.25,0,0,0,.74,3,.09.09,0,0,0,.16-.09Z" style="fill:#b70027"/></g><path d="M25.79,59.86a6.18,6.18,0,0,1,.22.85.1.1,0,0,1-.13.11c-.16,0-1.3-1-1.77-1.29a.14.14,0,0,0-.21.06,11.86,11.86,0,0,0-.62,2.23.11.11,0,0,1-.19,0,14,14,0,0,1-1.27-2,.05.05,0,0,0-.1,0,20.84,20.84,0,0,1-1,2.15.15.15,0,0,1-.27,0c-.32-.72-.37-1.4-.63-2.15,0-.09-.07-.2-.17-.21s-.18.07-.23.15a13.67,13.67,0,0,1-1.28,2,.18.18,0,0,1-.29-.09c-.19-.82-.12-2.23-.37-2.4s-1.43,1.4-2,1.4c0,0,0,0,0,0A10.56,10.56,0,0,1,15.92,58a14.9,14.9,0,0,1,.47-2.11A6.6,6.6,0,0,0,18.84,57a14.11,14.11,0,0,0,5.86.29.5.5,0,0,1,.32,0,.38.38,0,0,1,.14.19A23.41,23.41,0,0,1,25.79,59.86Z" style="fill:#191956"/><path d="M25.39,59.67a4,4,0,0,0-.4-.73c-.16-.26-.58,0-.4.23a5.38,5.38,0,0,1,.52.66c.1.19.36,0,.28-.16Z" style="fill:#f70032"/><path d="M23.22,60.45c0-.38.21-.9-.15-1.2a.33.33,0,0,0-.54.32c0,.15.13.28.18.44s.11.32.15.48.38.16.36,0Z" style="fill:#f70032"/><path d="M20.85,60.63a4.27,4.27,0,0,0,.27-1.05c0-.43-.65-.43-.66,0a5.28,5.28,0,0,0,.12,1.05c0,.15.23.13.27,0Z" style="fill:#f70032"/><path d="M18.53,60.21a3.88,3.88,0,0,0,.44-.86c.07-.32-.41-.55-.55-.23a7.85,7.85,0,0,0-.22,1,.18.18,0,0,0,.33.13Z" style="fill:#f70032"/><path d="M16.32,59.46c.27-.34,1.08-.59.79-1.17a.33.33,0,0,0-.51-.06.69.69,0,0,0-.14.25,2.61,2.61,0,0,1-.17.28,3.81,3.81,0,0,0-.29.52c-.06.17.2.33.32.18Z" style="fill:#f70032"/><path d="M25,58.15a.15.15,0,0,0,0,.29.15.15,0,0,0,0-.29Z" style="fill:#0c0a35"/><path d="M24.49,58.27a.19.19,0,0,0,0,.37.19.19,0,0,0,0-.37Z" style="fill:#0c0a35"/><path d="M23.94,58.41a.2.2,0,0,0,0,.39.2.2,0,0,0,0-.39Z" style="fill:#0c0a35"/><path d="M23.25,58.53a.19.19,0,0,0,0,.38.19.19,0,0,0,0-.38Z" style="fill:#0c0a35"/><path d="M22.5,58.59a.2.2,0,0,0,0,.39.2.2,0,0,0,0-.39Z" style="fill:#0c0a35"/><path d="M21.79,58.61a.21.21,0,0,0,0,.42.21.21,0,0,0,0-.42Z" style="fill:#0c0a35"/><path d="M21,58.58a.2.2,0,0,0,0,.4.2.2,0,0,0,0-.4Z" style="fill:#0c0a35"/><path d="M20.24,58.47a.23.23,0,0,0,0,.46.23.23,0,0,0,0-.46Z" style="fill:#0c0a35"/><path d="M19.48,58.32a.25.25,0,0,0,0,.49.25.25,0,0,0,0-.49Z" style="fill:#0c0a35"/><path d="M18.7,58.12a.21.21,0,0,0,0,.41.21.21,0,0,0,0-.41Z" style="fill:#0c0a35"/><path d="M18,57.86a.25.25,0,0,0,0,.49.25.25,0,0,0,0-.49Z" style="fill:#0c0a35"/><path d="M17.45,57.63a.22.22,0,0,0,0,.44.22.22,0,0,0,0-.44Z" style="fill:#0c0a35"/><path d="M16.8,57.5h0a.15.15,0,0,0,0,.28h0a.14.14,0,1,0,0-.28Z" style="fill:#0c0a35"/><path d="M16.28,57.36s0,0,0,0,0,0,0,0Z" style="fill:#0c0a35"/><path d="M16.32,57.22a.21.21,0,0,0,0,.41.21.21,0,0,0,0-.41Z" style="fill:#0c0a35"/><path d="M15.89,56.62l-.27-.28c-.07-.07-.19-.15-.28-.07s0,.21.08.27l.29.26c.12.11.3-.06.18-.18Z" style="fill:#191956"/><path d="M15.28,56.91a1.58,1.58,0,0,1-.22-.23.49.49,0,0,0-.27-.22.12.12,0,0,0-.16.11c0,.25.31.44.49.54s.27-.1.16-.2Z" style="fill:#191956"/><path d="M15.84,55.77a1,1,0,0,0-.19-.34.17.17,0,0,0-.29.16c0,.11.11.21.16.32s.4.05.32-.14Z" style="fill:#191956"/><path d="M14.82,55.78a.68.68,0,0,0-.31-.44c-.1,0-.23,0-.19.14a2.75,2.75,0,0,0,.24.41c.08.14.32,0,.26-.11Z" style="fill:#191956"/><path d="M15.07,54.84a3.24,3.24,0,0,0-.13-.41.28.28,0,0,0-.15-.15c.07,0,0,0,0,0h-.07c-.14,0-.13.23-.1.33s.15.25.2.38.33,0,.29-.12Z" style="fill:#191956"/><path d="M15.09,53.46a.9.9,0,0,0-.33-.51.13.13,0,0,0-.2.15c0,.18.22.29.31.45s.27,0,.22-.09Z" style="fill:#191956"/><path d="M14.09,54.54c0-.15,0-.32-.16-.42a.18.18,0,0,0-.21,0,.16.16,0,0,0-.07.19l.13.33a.16.16,0,0,0,.31-.08Z" style="fill:#191956"/><path d="M14,53.31c0-.17,0-.37-.06-.52a.14.14,0,0,0-.24,0,.45.45,0,0,0,0,.28,1.67,1.67,0,0,0,.05.31.14.14,0,0,0,.28-.07Z" style="fill:#191956"/><path d="M13.94,55.49c0-.15,0-.29-.12-.4a.14.14,0,0,0-.23.13.91.91,0,0,0,.17.34.1.1,0,0,0,.18-.07Z" style="fill:#191956"/><path d="M14.38,52.32c0-.12,0-.24,0-.36s-.06-.2-.16-.2-.14.12-.15.2a1.37,1.37,0,0,0,.09.4.12.12,0,0,0,.24,0Z" style="fill:#191956"/><path d="M14.88,51.64a.62.62,0,0,0-.09-.63.16.16,0,0,0-.27.07c-.08.19.09.38.11.56s.22.12.25,0Z" style="fill:#191956"/><path d="M13.58,52c0-.15,0-.38-.2-.44s-.07,0-.09,0,0,.34,0,.51.32.1.29-.08Z" style="fill:#191956"/><path d="M13.9,50.76c-.06-.12-.05-.28-.2-.33a.06.06,0,0,0-.08,0c-.06.12,0,.29.07.4s.27,0,.21-.12Z" style="fill:#191956"/><path d="M14.57,50.1a1.06,1.06,0,0,0-.08-.43.12.12,0,0,0-.22,0c0,.13,0,.27,0,.4a.14.14,0,0,0,.27,0Z" style="fill:#191956"/><path d="M13.25,50.16a1.55,1.55,0,0,0,0-.21.85.85,0,0,0,0-.22s0-.08-.08-.08h0a.13.13,0,0,0-.12.09,1.06,1.06,0,0,0,.07.46c0,.13.26.1.24,0Z" style="fill:#191956"/><path d="M13.77,49.4a1.26,1.26,0,0,0-.06-.38.14.14,0,0,0-.25,0,1.19,1.19,0,0,0,0,.42c0,.18.31.1.28-.08Z" style="fill:#191956"/><path d="M14.62,48.92a.64.64,0,0,0-.14-.36.12.12,0,0,0-.14,0c-.2.07,0,.34,0,.48s.34.12.3-.08Z" style="fill:#191956"/><path d="M13.15,48.85A.37.37,0,0,0,13,48.6a.11.11,0,0,0-.17.1,1.48,1.48,0,0,0,0,.19.13.13,0,1,0,.26,0Z" style="fill:#191956"/><path d="M20.64,48a.89.89,0,1,0,.89.89.9.9,0,0,0-.89-.89Z" style="fill:#f70032"/><path d="M23.21,40.47a.24.24,0,0,0,0,.47.24.24,0,0,0,0-.47Z" style="fill:#f70032"/><path d="M22.67,40a.2.2,0,0,0,0,.39.2.2,0,1,0,0-.39Z" style="fill:#f70032"/><path d="M22.06,39.79a.22.22,0,0,0,0,.43.22.22,0,0,0,0-.43Z" style="fill:#f70032"/><path d="M21.36,39.66a.21.21,0,0,0,0,.42.21.21,0,0,0,0-.42Z" style="fill:#f70032"/><path d="M20.69,39.62a.23.23,0,0,0,0,.45.23.23,0,0,0,0-.45Z" style="fill:#f70032"/><path d="M20,39.64a.23.23,0,0,0,0,.46.23.23,0,0,0,0-.46Z" style="fill:#f70032"/><path d="M19.32,39.78a.2.2,0,0,0,0,.4.2.2,0,0,0,0-.4Z" style="fill:#f70032"/><path d="M18.62,40a.24.24,0,0,0,0,.47.24.24,0,0,0,0-.47Z" style="fill:#f70032"/><path d="M20.72,38.5a.49.49,0,1,0,.49.48.49.49,0,0,0-.49-.48Z" style="fill:#f70032"/><path d="M29.89,31.93a7.6,7.6,0,0,0,0,2.13c.22,0,.73,2.75.85,2.84,1,.76,1.05-.95.89,0-.05.31-.62.64-.42.93a1.7,1.7,0,0,0,1.28-.2,1.66,1.66,0,0,0,.87-1.1,1.11,1.11,0,0,0-.33-1.16c-.11-.11-.25-.21-.35-.33a1.38,1.38,0,0,1-.31-.87A12.28,12.28,0,0,0,31.88,32a.28.28,0,0,0-.16-.2.88.88,0,0,0-.29,0,10.37,10.37,0,0,0-1.12-.06.69.69,0,0,0-.29,0A.18.18,0,0,0,29.89,31.93Z" style="fill:#222272"/><path d="M31.8,48.78c0,.83,0,1.26,0,1.76,0,.18-.19.38-.28.28s-.35-3.46-.85-3.37a23.47,23.47,0,0,0,0,3c0,.23-.14.49-.26.47s-.29-2.87-.58-3.24c-.14-.19-.29,1.84-.47,2.73,0,.23-.2.59-.33.41a9.81,9.81,0,0,1-.19-2.64c0-1-.09-1.24.19-1.68s.43-.16.8-.45c.1-.08.13-.47.14-.6.05-1,0-1.77.07-2.76,0-.78-.38-6.66-.43-7.34a.87.87,0,0,1,.06-.48c.08-.14.25-.4.37,1.48a91.73,91.73,0,0,1,.25,9.44.38.38,0,0,0,.31.37c.24.06.47-.15.93.51A6.14,6.14,0,0,1,31.8,48.78Z" style="fill:#f70032"/><path d="M32.26,39.91a1.07,1.07,0,0,1-.77.48,12.53,12.53,0,0,1-1.68-.16.36.36,0,0,1-.27-.17c0-.06-.14-.35.3-.48a1.54,1.54,0,0,1,.43,0c.34,0,1.17.13,1.2,0s-1.49-.25-2-.57a.29.29,0,0,1-.15-.14c-.09-.18,0-.34.24-.4.45-.14,1.09.24,1.77.26a.05.05,0,0,0,0-.1c-.64-.27-1.54-.53-1.87-1-.11-.17.08-.37.29-.39s1.22.53,1.42.49.07-.15-.18-.27a4.55,4.55,0,0,1-.87-.59.36.36,0,0,1-.11-.39c.07-.2.37-.08.54-.07a3.82,3.82,0,0,1,.86.41c.19.11.12-.3.11-.52s0-.7.18-.76a1.21,1.21,0,0,1,1,.3A.94.94,0,0,1,33,36a2.11,2.11,0,0,1,.22.54A4.75,4.75,0,0,1,32.26,39.91Z" style="fill:#ffd6a1"/><path d="M30.27,40c-.06-.15-.16-.19-.3-.25l-.21,0h-.11l-.06,0a.19.19,0,0,0-.13.23c0-.09,0,.08,0,.09a.27.27,0,0,0,.07.08.57.57,0,0,0,.22.11.55.55,0,0,0,.4,0,.19.19,0,0,0,.09-.21Z" style="fill:#990028"/><path d="M29.88,38.67a.56.56,0,0,0-.49-.19.28.28,0,0,0-.12.46.59.59,0,0,0,.44.15.24.24,0,0,0,.17-.42Z" style="fill:#990028"/><path d="M30.06,37.63s0-.1,0,0,0-.16,0-.1a.74.74,0,0,0-.15-.21.35.35,0,0,0-.32-.11.25.25,0,0,0-.2.18.32.32,0,0,0,.09.29l.06.05h0l.12.08c.16.07.4.06.42-.15Z" style="fill:#990028"/><path d="M30.58,36.68a.58.58,0,0,0-.1-.19.43.43,0,0,0-.26-.2.25.25,0,0,0-.3.3c.06.19.32.4.53.32a.19.19,0,0,0,.13-.23Z" style="fill:#990028"/><path d="M32.27,40a.39.39,0,0,0,0-.21.11.11,0,0,0-.21,0c0,.06,0,.12-.05.18s.18.2.22.06Z" style="fill:#0c0a35"/><path d="M32.36,39.18a.36.36,0,0,0,0-.3c-.06-.15-.3-.14-.29,0a1.27,1.27,0,0,1,0,.2c0,.12.17.16.23.06Z" style="fill:#0c0a35"/><path d="M32.46,38.3c0-.11,0-.22,0-.3a.12.12,0,0,0-.2,0c0,.07,0,.14,0,.22s.21.16.23,0Z" style="fill:#0c0a35"/><path d="M32.43,37.27a.37.37,0,0,0-.16-.24.13.13,0,0,0-.19.14c0,.08.07.13.1.2s.3,0,.25-.1Z" style="fill:#0c0a35"/><path d="M31.39,41.8a1.07,1.07,0,0,0-.83-.44.8.8,0,0,0-.27,0l-.07,0s0,.12,0,.17a1.15,1.15,0,0,0,.51.66,1.78,1.78,0,0,0,1,.31v0A6.73,6.73,0,0,0,31.39,41.8Z" style="fill:#f70032"/><path d="M30.09,40.64a.15.15,0,0,1,0,.07.88.88,0,0,1-.66.64,6.14,6.14,0,0,1-1,.12,2.26,2.26,0,0,1,.26-.42,1.8,1.8,0,0,1,.19-.2A1.19,1.19,0,0,1,30,40.6S30.08,40.62,30.09,40.64Z" style="fill:#f70032"/><path d="M29.08,28.61A3.85,3.85,0,0,0,28.53,31a5.52,5.52,0,0,0,.22,1.34,5.73,5.73,0,0,0,1,1.61c.15.17,0,.5.23.64.69.56,1.63-.11,2.52,0a1.48,1.48,0,0,1,.42-.71c.53-.59,1-.57,1.52-1.48.79-1.28.24-2.77-.66-3.95-.56-.74-1.76-.71-2.59-.69A2.56,2.56,0,0,0,29.08,28.61Z" style="fill:#222272"/><path d="M30.09,32.67a9.57,9.57,0,0,1-.15-2.27c0-.65.6-1.08.56-1.69,0-.36-.52-.55-.7-.2a3.49,3.49,0,0,0-.62,1.89,6.29,6.29,0,0,0,.55,2.42c.1.21.4.06.36-.15Z" style="fill:#990028"/><path d="M31.48,32.88a4.65,4.65,0,0,0,.48-2c0-.69-.18-1.36-.12-2.05.06-.54-.8-.54-.84,0a17.85,17.85,0,0,0,.17,1.78c0,.73,0,1.46-.05,2.19a.19.19,0,0,0,.36.1Z" style="fill:#990028"/><path d="M32.83,33a4,4,0,0,0,.7-2.26c0-.63-.12-1.64-.72-2a.23.23,0,0,0-.33.14c-.21.56.27,1.24.3,1.84a8,8,0,0,1-.29,2.12.19.19,0,0,0,.34.14Z" style="fill:#990028"/><path d="M30,33.83h0a.15.15,0,0,0,.11.11h0a.17.17,0,1,0-.12-.12Z" style="fill:#f70032"/><path d="M30.67,33.61a.18.18,0,0,0,0,.36.18.18,0,0,0,0-.36Z" style="fill:#f70032"/><path d="M31.24,33.63a.16.16,0,0,0,0,.32.16.16,0,0,0,0-.32Z" style="fill:#f70032"/><path d="M31.77,33.62a.19.19,0,0,0,0,.37.19.19,0,0,0,0-.37Z" style="fill:#f70032"/><path d="M32.33,33.66a.18.18,0,0,0,0,.35.18.18,0,0,0,0-.35Z" style="fill:#f70032"/><path d="M26.71,36.85a.19.19,0,0,0,0,.38.19.19,0,0,0,0-.38Z" style="fill:#f70032"/><path d="M27.75,34.68v0a.19.19,0,0,0-.35.05v0a.19.19,0,0,0,.19.24.19.19,0,0,0,.16-.29Z" style="fill:#f70032"/><path d="M28.41,35.73a.16.16,0,0,0,0,.31.16.16,0,0,0,0-.31Z" style="fill:#f70032"/><path d="M29.54,33.62a.2.2,0,0,0,0,.39.2.2,0,0,0,0-.39Z" style="fill:#f70032"/><path d="M28.13,33.12h0a.17.17,0,0,0-.24.14v0a.17.17,0,0,0,.26.14.17.17,0,0,0,0-.29Z" style="fill:#f70032"/><path d="M26.18,35.18v0a.19.19,0,0,0-.37,0v0a.19.19,0,0,0,.19.25.2.2,0,0,0,.19-.25Z" style="fill:#f70032"/><path d="M24.63,36.54a.23.23,0,0,0,0,.46.23.23,0,0,0,0-.46Z" style="fill:#f70032"/><path d="M23.33,34.72a.19.19,0,0,0,0,.38.19.19,0,0,0,0-.38Z" style="fill:#f70032"/><path d="M22.05,36.62a.19.19,0,0,0,0,.37.19.19,0,0,0,0-.37Z" style="fill:#f70032"/><path d="M24.51,33.63a.23.23,0,0,0,.07-.22.15.15,0,0,0-.15-.11.16.16,0,0,0-.16.15v0s0-.06,0-.08h0c-.15.14.09.38.23.22Z" style="fill:#f70032"/><path d="M25.5,31.66a.18.18,0,0,0,0,.36.18.18,0,0,0,0-.36Z" style="fill:#f70032"/><path d="M22.07,35.14a.23.23,0,0,0,0,.46.23.23,0,0,0,0-.46Z" style="fill:#f70032"/><path d="M23.46,36.22h0c-.11-.07-.29,0-.27.15v0a.19.19,0,0,0,.28.16.18.18,0,0,0,0-.32Z" style="fill:#f70032"/><path d="M20.57,35.23a.18.18,0,0,0,0,.36.18.18,0,0,0,0-.36Z" style="fill:#f70032"/><path d="M20.42,36.44a.23.23,0,0,0,0,.45.23.23,0,0,0,0-.45Z" style="fill:#f70032"/><path d="M27.33,36.05a.15.15,0,0,0,0-.11c0-.19-.29-.25-.34,0h0l0-.07h0c-.18.15.12.44.28.21Z" style="fill:#f70032"/><path d="M28,29.75a.16.16,0,1,0,0,.31.16.16,0,0,0,0-.31Z" style="fill:#f70032"/><path d="M27.26,31.94a.22.22,0,0,0,0,.43.22.22,0,0,0,0-.43Z" style="fill:#f70032"/><path d="M25.13,34.07a.23.23,0,0,0,0,.46.23.23,0,0,0,0-.46Z" style="fill:#f70032"/><path d="M26.57,33.51v0a.2.2,0,0,0-.23-.29.17.17,0,0,0-.12.11.2.2,0,0,0,.07.27.21.21,0,0,0,.27-.07Z" style="fill:#f70032"/><path d="M26.56,30.61h0a.21.21,0,0,0-.1.39l0,0a.22.22,0,1,0,.11-.4Z" style="fill:#f70032"/><path d="M28,31.19v0a.17.17,0,0,0-.12-.16.17.17,0,0,0-.2.11v0c-.05.26.36.27.33,0Z" style="fill:#f70032"/><path d="M32.93,26.2v0c0-.22-.33-.21-.34,0v0c0,.22.34.22.34,0Z" style="fill:#f70032"/><path d="M31.47,26.73a.24.24,0,0,0,0,.48.24.24,0,0,0,0-.48Z" style="fill:#f70032"/><path d="M32.54,27.06c-.07,0-.12.05-.11.11v0a.1.1,0,1,0,.12-.12Z" style="fill:#f70032"/><path d="M15.49,6.26c-1.13,1.16-1.17,7.26-1.18,7.42,0,.73.62,4.67.32,5.37s-.79.82-1.12,1.34a1.83,1.83,0,0,0-.17,1.74,2,2,0,0,0,1.16,1,4.27,4.27,0,0,0,3.67-.32,5.28,5.28,0,0,0,.69-.56,1.69,1.69,0,0,0,.39-.59,3.59,3.59,0,0,0,.19-1.53,22.29,22.29,0,0,0-.93-4.83A5,5,0,0,0,18,14C17.46,13.05,19,5.64,15.49,6.26Z" style="fill:#0c0a35"/><path d="M16.13,9.59c-1.19.86-2.28,3.59-.5,4.47a.1.1,0,0,0,.14-.14,2.93,2.93,0,0,1-.59-2.23,4.31,4.31,0,0,1,1-2s0-.14-.08-.1Z" style="fill:#b70027"/><path d="M15.67,14a3.25,3.25,0,0,0,.46.86,2.1,2.1,0,0,0,.71.74c.08,0,.16,0,.14-.11a2,2,0,0,0-.52-.75c-.23-.26-.46-.53-.68-.8a.07.07,0,0,0-.11.06Z" style="fill:#b70027"/><path d="M16.57,10.18A1.58,1.58,0,0,0,16.46,13c.09,0,.19,0,.14-.13A4.11,4.11,0,0,1,16,11.83a1.45,1.45,0,0,1,.65-1.49c.08-.05,0-.19-.07-.16Z" style="fill:#b70027"/><g style="clip-path:url(#clip-path-3)"><path d="M15,5.71a3.91,3.91,0,0,1,.52,2.83c-.17.93-1.12,1.45-1.47,2.3a4.72,4.72,0,0,0,.87,4.72,5.38,5.38,0,0,1,.81,3.08c0,.9-.36,1.78-.35,2.69a2.92,2.92,0,0,0,.7,1.73c.26.36.56.65.8,1a8.25,8.25,0,0,1,.51,1.36.11.11,0,0,0,.2-.08,7.06,7.06,0,0,0-.76-2c-.22-.35-.53-.64-.75-1a3.13,3.13,0,0,1-.22-2.17,6.57,6.57,0,0,0-.6-4.84,6.11,6.11,0,0,1-1.17-3.19c0-1.23,1-2,1.59-3A3.14,3.14,0,0,0,15,5.68s0,0,0,0Z" style="fill:#b70027"/><path d="M14.34,6.49c.73.32.63,1,.27,1.6s-.85.79-1,1.31a.11.11,0,0,0,.16.12,3.18,3.18,0,0,0,1.48-1.91c.06-.58-.26-1.25-.92-1.2,0,0-.06.06,0,.08Z" style="fill:#b70027"/><path d="M13,15.09c0,.16.17.24.29.34a3.94,3.94,0,0,1,.74,1,3.07,3.07,0,0,1,.1,3.48,3.21,3.21,0,0,0,1,4.45c.09,0,.21-.05.15-.14-.34-.55-.83-.86-1.06-1.51a3.83,3.83,0,0,1,0-2.07A14.2,14.2,0,0,0,15,18.69a2.77,2.77,0,0,0-.39-2.08c-.25-.32-.44-.76-.71-1.06s-.57-.3-.79-.53a.07.07,0,0,0-.11.07Z" style="fill:#b70027"/><path d="M17,16.71a5.1,5.1,0,0,1-.27,2.68,3.88,3.88,0,0,0-.48,1.66,3.56,3.56,0,0,0,1.88,2.66c.07.05.17,0,.12-.11a10,10,0,0,0-.86-1A2.46,2.46,0,0,1,17,20.14c.13-.51.44-.92.55-1.44a6.42,6.42,0,0,0-.27-2c0-.12-.2-.13-.2,0Z" style="fill:#b70027"/><path d="M18,18a3.64,3.64,0,0,1-.16,2.19,2.36,2.36,0,0,0-.11,1.26,2.59,2.59,0,0,0,1.38,1.88.08.08,0,0,0,.1-.13c-.83-.88-1.43-1.65-1.11-2.94a4.17,4.17,0,0,0,.12-2.32A.11.11,0,1,0,18,18Z" style="fill:#b70027"/><path d="M18.71,17.93c.31,1.07-.34,2.27,0,3.39.19.69.7,1.51,1.48,1.53a.12.12,0,0,0,.07-.22A3,3,0,0,1,19,19.7c0-.47.2-1.46-.23-1.81,0,0-.08,0-.06,0Z" style="fill:#b70027"/></g><path d="M24.39,4.64c0-.07.09-.09.16-.07a4.84,4.84,0,0,1,.82.25,4.33,4.33,0,0,1,1.85,1.24,6.11,6.11,0,0,1,1.1,3.82A20,20,0,0,0,29,14.21c0,.34-2.5.35-3,.31-.14-2-.27-4-.59-6A6.29,6.29,0,0,0,25,6.84a2.22,2.22,0,0,0-1.23-1.16,1.89,1.89,0,0,1,1-1.18Z" style="fill:#222272"/><path d="M16.65,7.07a4.08,4.08,0,0,0-.5,3.88.92.92,0,0,1,.09.43,19.11,19.11,0,0,1-1.46,2,.58.58,0,0,0-.11.31c0,.27.29.45.57.49a1.9,1.9,0,0,1,.79.17c.38.24.37.78.36,1.23a3.76,3.76,0,0,0,.92,2.91,2.91,2.91,0,0,0,3.1.46,4.58,4.58,0,0,0,2.26-2.33,10.18,10.18,0,0,0,.45-1.2,18.53,18.53,0,0,0,.79-4.29,7,7,0,0,0-.11-2.09,3.22,3.22,0,0,0-1-1.79,3.78,3.78,0,0,0-1-.56,6.47,6.47,0,0,0-4.1-.17,2.39,2.39,0,0,0-1.19.67Z" style="fill:#ffd6a1"/><path d="M16.28,5.25a2.5,2.5,0,0,0-1,1.55,5.22,5.22,0,0,0,0,1.31,2.29,2.29,0,0,0,1,.06,35.39,35.39,0,0,1,6.09,0c-.45,2.84.16,5.73.14,8.61a14.25,14.25,0,0,0,.3,4.52C23.21,23,24.12,23,25.29,23a5,5,0,0,0,3.13-.93A3.08,3.08,0,0,0,29,18.83a2.9,2.9,0,0,0-2-1.54.83.83,0,0,1-.53-.3.78.78,0,0,1-.09-.37l-.36-6.28a9.69,9.69,0,0,0-.5-2.55,3.57,3.57,0,0,0-1.85-1.88,4.81,4.81,0,0,0-2.12-1l-3.09-.15a4.55,4.55,0,0,0-1.28.06Z" style="fill:#0c0a35"/><path d="M16.07,16.68a.28.28,0,0,0,0,.22.59.59,0,0,0,.76.23c.1-.05.39-.25.49-.3a6.11,6.11,0,0,1,1.52-.69,3.13,3.13,0,0,1-1.33-.39c-.25-.14-.45-.26-.72-.38a.67.67,0,0,0-.8.15.25.25,0,0,0-.06.14c0,.4.27.48.37.58S16.11,16.44,16.07,16.68Z" style="fill:#f70032"/><path d="M21.44,9.07a3,3,0,0,0-3.6,0,.1.1,0,0,0,.07.18c.56,0,1.08-.31,1.64-.38a3.64,3.64,0,0,1,1.84.28c.05,0,.09-.06.05-.1Z" style="fill:#0c0a35"/><path d="M18.41,10.69l-.23-.4c-.07-.11-.15-.25-.29-.23a.08.08,0,0,0-.05.07.13.13,0,0,0,.05.13,1,1,0,0,1,.12.17c.07.12.12.26.2.38s.29,0,.2-.12Z" style="fill:#0c0a35"/><path d="M19.63,10.76a2.46,2.46,0,0,0,.19-.67c.06-.18.13-.47,0-.6a.08.08,0,0,0-.11,0,.9.9,0,0,0-.14.56,4.22,4.22,0,0,0,0,.71s0,0,.06,0Z" style="fill:#0c0a35"/><path d="M19.16,10.74a.78.78,0,0,0-.06-.56c0-.1-.08-.2-.11-.3s0-.16-.14-.2-.05,0-.07,0,0,.32,0,.46a2.4,2.4,0,0,0,.26.62.07.07,0,0,0,.13,0Z" style="fill:#0c0a35"/><path d="M20.78,10.93c.35,0,.92-.23,1-.62,0-.05,0-.08-.07-.07a.83.83,0,0,0-.4.24,4.8,4.8,0,0,1-.52.36,0,0,0,0,0,0,.09Z" style="fill:#0c0a35"/><path d="M20.35,10.65a1.09,1.09,0,0,0,.54-.81.08.08,0,0,0-.1-.08c-.34.09-.44.55-.5.84a0,0,0,0,0,.06.05Z" style="fill:#0c0a35"/><path d="M19.65,11a1.47,1.47,0,0,0-.08.55c0,.14,0,.35.11.45a.08.08,0,0,0,.11,0c.12-.12.07-.3.05-.45a4.9,4.9,0,0,0-.13-.55s-.05,0-.06,0Z" style="fill:#0c0a35"/><path d="M19.07,11.05c-.05.14-.09.29-.14.43a.49.49,0,0,0,0,.41.08.08,0,0,0,.1,0c.13-.08.14-.23.18-.37a1.54,1.54,0,0,0,0-.48.08.08,0,0,0-.15,0Z" style="fill:#0c0a35"/><path d="M18.49,11a1.37,1.37,0,0,0-.26.37c-.07.12-.18.22-.19.37a.06.06,0,0,0,.06.06c.16,0,.23-.16.29-.29a3.57,3.57,0,0,0,.19-.45c0-.06-.06-.1-.09-.06Z" style="fill:#0c0a35"/><path d="M20.34,10.94c-.28.14,0,1,.27.85s0-.4-.06-.52-.11-.39-.21-.33Z" style="fill:#0c0a35"/><path d="M20.81,10.88a1.08,1.08,0,0,0,.06.4.5.5,0,0,0,.28.32.14.14,0,0,0,.12,0c.11-.1,0-.25-.11-.33L21,11l-.16-.18s-.05,0-.05,0Z" style="fill:#0c0a35"/><path d="M17.47,11a3.5,3.5,0,0,1,4.25-.1,2.55,2.55,0,0,1-1,.36,7.67,7.67,0,0,1-1.06.13,5.49,5.49,0,0,1-1.28-.11A3.12,3.12,0,0,1,17.47,11Z" style="fill:#fff"/><path d="M19.63,11.29a.44.44,0,0,0,0-.87.44.44,0,1,0,0,.87Z" style="fill:#0c0a35"/><g style="clip-path:url(#clip-path-4)"><path d="M16.58,4.52a1.61,1.61,0,0,0-.8,1.73,2.33,2.33,0,0,0,.35.93c.61,1,.25,1.63-.13,2.58a.08.08,0,0,0,.12.1,2.14,2.14,0,0,0,.76-2.14,2.09,2.09,0,0,0-.49-.93,1.78,1.78,0,0,1,.26-2.17.06.06,0,0,0-.07-.1Z" style="fill:#b70027"/><path d="M17.55,4.21A1.93,1.93,0,0,0,17,5.87,4.92,4.92,0,0,0,17.56,7c.59,1-.06,1.78-.3,2.7a.11.11,0,0,0,.19.11,2.89,2.89,0,0,0,.75-2.18,2.55,2.55,0,0,0-.45-1.12,2.2,2.2,0,0,1-.12-2.24.05.05,0,0,0-.08-.06Z" style="fill:#b70027"/><path d="M18.74,4.58a2,2,0,0,0-.11,2c.14.41.42.77.58,1.17.29.74-.27,1.44-.38,2.15A.1.1,0,0,0,19,10a2.38,2.38,0,0,0,.78-2c-.1-1.28-1.5-1.94-1-3.37a0,0,0,0,0-.06,0Z" style="fill:#b70027"/><path d="M19.59,4.47A1.83,1.83,0,0,0,20,6.27a2.86,2.86,0,0,1,.61,1.66c0,.71-.4,1.25-.51,1.91a.1.1,0,0,0,.14.11c.8-.36.87-1.55.82-2.32C21,6.39,19.65,5.7,19.73,4.49a.07.07,0,0,0-.14,0Z" style="fill:#b70027"/><path d="M20.59,4.25a2.75,2.75,0,0,0,1,2.3c1.18,1.2-.1,2.53-.26,3.8,0,.09.13.14.19.07a4.48,4.48,0,0,0,1-2.89,1.84,1.84,0,0,0-.41-1.07,4.27,4.27,0,0,1-1.43-2.22,0,0,0,0,0-.07,0Z" style="fill:#b70027"/><path d="M21.47,4.59c.15.56.7,1,1,1.49a4.94,4.94,0,0,1,.66,3.74c-.23,1-.77,1.84-1,2.83a4.35,4.35,0,0,0,.46,2.29,14.73,14.73,0,0,1,.89,3,6.55,6.55,0,0,1-.84,2.79,3.36,3.36,0,0,0,.79,3.58c.06.07.18,0,.13-.09-1.25-1.88-.48-3.33.12-5.24.5-1.53-.49-3.42-1.06-4.81-.78-1.87.94-3.8,1-5.72A5.14,5.14,0,0,0,23,6.21c-.35-.76-.93-1-1.36-1.67a.07.07,0,0,0-.12,0Z" style="fill:#b70027"/><path d="M21.08,15.34a3.87,3.87,0,0,1,1.29,2.35,19.74,19.74,0,0,1-.26,2.3c0,.1.13.13.18.05a3.51,3.51,0,0,0-1.06-4.85c-.1-.09-.25.05-.15.15Z" style="fill:#b70027"/><path d="M23.37,4.87a4.88,4.88,0,0,1,1,2,6.4,6.4,0,0,1-.48,3.34c-.47,1.43-1.25,2.63-.5,4.16a12.28,12.28,0,0,1,1.09,2.32,5.1,5.1,0,0,1-.45,3.51,3.49,3.49,0,0,0,.26,3.86c.07.08.22,0,.18-.1a4.33,4.33,0,0,1-.26-2.9,16.92,16.92,0,0,0,.85-2.45,6.55,6.55,0,0,0-.22-2.37,23.29,23.29,0,0,0-1.1-2.38c-.7-1.85,1-3.78,1.12-5.65C25,7,24.68,5.39,23.44,4.79c0,0-.11,0-.07.08Z" style="fill:#b70027"/><path d="M25.46,6.1a11.15,11.15,0,0,1,.05,2.77c-.21,1-.6,1.84-.9,2.77-.6,1.88.32,3.32.95,5a4.2,4.2,0,0,1,.2,3c-.29.88-.81,1.59-1,2.51-.32,1.47.56,2.38,1.67,3.11.12.08.25-.07.19-.18-.35-.67-1-1-1.26-1.78-.39-1.06.38-2.22.81-3.14a4.85,4.85,0,0,0-.19-4c-.31-.81-.76-1.56-1-2.39a4.75,4.75,0,0,1,.38-3.1,18.7,18.7,0,0,0,.74-2.45,4.49,4.49,0,0,0-.44-2.18.08.08,0,0,0-.15,0Z" style="fill:#b70027"/><path d="M26.72,9.81a4.42,4.42,0,0,0-1,3.37c.11,1,.45,2.3,1.5,2.66a.16.16,0,0,0,.18-.23c-1.13-1.63-1.8-3.87-.53-5.67.07-.1-.09-.22-.17-.13Z" style="fill:#b70027"/><path d="M26.62,16.86A3.05,3.05,0,0,1,27,20a10.75,10.75,0,0,0-1,2.38,2.34,2.34,0,0,0,2,2.43c.12,0,.23-.12.13-.21-.56-.53-1.29-.85-1.55-1.64-.32-1,.68-2.17,1-3a2.52,2.52,0,0,0-.89-3.17.08.08,0,0,0-.11.11Z" style="fill:#b70027"/><path d="M27.85,17.21a3.62,3.62,0,0,1,.2,3.41,4.37,4.37,0,0,0-.55,1.75,2.16,2.16,0,0,0,1.8,2c.08,0,.11-.1.06-.15a5.29,5.29,0,0,1-1.29-1.53c-.35-.83.42-1.78.67-2.55a3.26,3.26,0,0,0-.73-3c-.07-.09-.22,0-.16.09Z" style="fill:#b70027"/></g><path d="M15.54,2.84c0-.21-.18-.58-.22-.85a.11.11,0,0,1,.14-.11c.15,0,1.29,1,1.76,1.3a.15.15,0,0,0,.22-.06A12,12,0,0,0,18.05.89a.11.11,0,0,1,.19,0,12.73,12.73,0,0,1,1.27,2,.07.07,0,0,0,.11,0A18.15,18.15,0,0,1,20.6.7a.15.15,0,0,1,.26,0,22.34,22.34,0,0,1,.63,2.16c0,.09.08.19.17.21a.28.28,0,0,0,.24-.16,14.06,14.06,0,0,1,1.27-2,.17.17,0,0,1,.29.08c.2.83.12,2.23.38,2.4S25.27,2,25.83,2c0,0,0,0,0,0a10.49,10.49,0,0,1-.46,2.65A14.85,14.85,0,0,1,25,6.84a6.43,6.43,0,0,0-2.46-1.13,13.9,13.9,0,0,0-5.85-.29.53.53,0,0,1-.33,0,.41.41,0,0,1-.14-.2C16,4.79,15.85,4,15.54,2.84Z" style="fill:#191956"/><path d="M15.94,3a5.18,5.18,0,0,0,.4.73c.17.25.58,0,.4-.24a8.22,8.22,0,0,1-.52-.65c-.1-.19-.36,0-.28.16Z" style="fill:#f70032"/><path d="M18.12,2.26c0,.37-.21.9.14,1.19a.32.32,0,0,0,.54-.31c0-.15-.13-.29-.17-.44s-.12-.32-.16-.49-.37-.16-.35,0Z" style="fill:#f70032"/><path d="M20.48,2.07a5,5,0,0,0-.27,1.06c0,.43.65.43.66,0a4.77,4.77,0,0,0-.11-1.06c0-.14-.24-.12-.28,0Z" style="fill:#f70032"/><path d="M22.8,2.49a4.14,4.14,0,0,0-.43.87c-.08.31.4.55.54.23a6.35,6.35,0,0,0,.22-1,.18.18,0,0,0-.33-.14Z" style="fill:#f70032"/><path d="M25,3.24c-.27.34-1.08.59-.79,1.17a.33.33,0,0,0,.51.07.73.73,0,0,0,.14-.26A2,2,0,0,1,25,3.94a2.39,2.39,0,0,0,.29-.52c.07-.17-.2-.32-.31-.18Z" style="fill:#f70032"/><path d="M16.31,4.55a.15.15,0,0,0,0-.29.15.15,0,0,0,0,.29Z" style="fill:#0c0a35"/><path d="M16.85,4.43a.19.19,0,0,0,0-.37.19.19,0,0,0,0,.37Z" style="fill:#0c0a35"/><path d="M17.4,4.3a.2.2,0,0,0,0-.4.2.2,0,0,0,0,.4Z" style="fill:#0c0a35"/><path d="M18.09,4.17a.19.19,0,0,0,0-.38.19.19,0,0,0,0,.38Z" style="fill:#0c0a35"/><path d="M18.84,4.12a.2.2,0,0,0,0-.39.2.2,0,1,0,0,.39Z" style="fill:#0c0a35"/><path d="M19.55,4.1a.22.22,0,0,0,0-.43.22.22,0,0,0,0,.43Z" style="fill:#0c0a35"/><path d="M20.33,4.13a.2.2,0,0,0,0-.4.2.2,0,0,0,0,.4Z" style="fill:#0c0a35"/><path d="M21.09,4.24a.24.24,0,0,0,0-.47.24.24,0,0,0,0,.47Z" style="fill:#0c0a35"/><path d="M21.86,4.38a.24.24,0,0,0,0-.48.24.24,0,0,0,0,.48Z" style="fill:#0c0a35"/><path d="M22.64,4.59a.21.21,0,0,0,0-.41.21.21,0,0,0,0,.41Z" style="fill:#0c0a35"/><path d="M23.29,4.84a.25.25,0,0,0,0-.49.25.25,0,0,0,0,.49Z" style="fill:#0c0a35"/><path d="M23.89,5.07a.22.22,0,0,0,0-.44.22.22,0,0,0,0,.44Z" style="fill:#0c0a35"/><path d="M24.53,5.21h0a.15.15,0,0,0,0-.28h0a.14.14,0,1,0,0,.28Z" style="fill:#0c0a35"/><path d="M25.05,5.35a0,0,0,1,0,0,0s0,0,0,0Z" style="fill:#0c0a35"/><path d="M25,5.49a.21.21,0,0,0,0-.41.21.21,0,0,0,0,.41Z" style="fill:#0c0a35"/><path d="M25.45,6.09l.27.27c.06.07.19.16.27.07s0-.2-.07-.27l-.29-.26a.13.13,0,0,0-.18.19Z" style="fill:#191956"/><path d="M26.06,5.8a1.51,1.51,0,0,1,.21.23.6.6,0,0,0,.28.22.12.12,0,0,0,.15-.12c0-.25-.3-.44-.49-.53s-.26.1-.15.2Z" style="fill:#191956"/><path d="M25.49,6.94a1.17,1.17,0,0,0,.2.34A.17.17,0,0,0,26,7.12a3.13,3.13,0,0,0-.15-.32c-.09-.18-.41,0-.33.14Z" style="fill:#191956"/><path d="M26.51,6.93a.71.71,0,0,0,.32.44A.13.13,0,0,0,27,7.22a1.85,1.85,0,0,0-.24-.4c-.07-.14-.32-.05-.26.11Z" style="fill:#191956"/><path d="M26.26,7.86a2.83,2.83,0,0,0,.14.41.23.23,0,0,0,.14.16l0,0a.11.11,0,0,0,.08,0c.13,0,.13-.24.09-.33s-.14-.26-.2-.39-.33,0-.29.12Z" style="fill:#191956"/><path d="M26.24,9.25a1,1,0,0,0,.34.51.14.14,0,0,0,.2-.16c-.06-.17-.23-.29-.31-.44s-.27,0-.23.09Z" style="fill:#191956"/><path d="M27.25,8.17c0,.14,0,.31.15.41a.17.17,0,0,0,.29-.16,3.45,3.45,0,0,0-.14-.34.16.16,0,0,0-.3.09Z" style="fill:#191956"/><path d="M27.39,9.4c0,.16,0,.37.05.51a.14.14,0,0,0,.24,0,.42.42,0,0,0,0-.27,1.75,1.75,0,0,0,0-.32.15.15,0,0,0-.28.08Z" style="fill:#191956"/><path d="M27.4,7.22c0,.14,0,.28.12.4s.25,0,.23-.13a.8.8,0,0,0-.18-.34.09.09,0,0,0-.17.07Z" style="fill:#191956"/><path d="M27,10.38c0,.12,0,.24,0,.36s.05.21.15.21.14-.12.15-.21a1.38,1.38,0,0,0-.09-.39.12.12,0,0,0-.23,0Z" style="fill:#191956"/><path d="M26.45,11.06c-.05.19-.08.5.09.64a.17.17,0,0,0,.28-.07c.07-.19-.09-.38-.12-.57s-.22-.11-.25,0Z" style="fill:#191956"/><path d="M27.76,10.69c0,.14,0,.37.19.44a.09.09,0,0,0,.09,0c.12-.15,0-.35,0-.51s-.32-.11-.28.08Z" style="fill:#191956"/><path d="M27.44,12c0,.12,0,.28.19.33a.08.08,0,0,0,.09,0,.59.59,0,0,0-.07-.41c-.06-.14-.27,0-.21.13Z" style="fill:#191956"/><path d="M26.77,12.6a1,1,0,0,0,.08.44.12.12,0,0,0,.22,0c0-.14,0-.27,0-.41s-.26-.17-.26,0Z" style="fill:#191956"/><path d="M28.08,12.55c0,.07,0,.14,0,.21s0,.14,0,.21a.12.12,0,0,0,.09.09h0A.13.13,0,0,0,28.4,13a1.16,1.16,0,0,0-.08-.45c0-.14-.25-.11-.24,0Z" style="fill:#191956"/><path d="M27.57,13.3a1.17,1.17,0,0,0,.05.38c.05.1.24.09.25,0a1.19,1.19,0,0,0,0-.42c0-.19-.31-.11-.27.07Z" style="fill:#191956"/><path d="M26.71,13.79a.67.67,0,0,0,.14.36.19.19,0,0,0,.14,0c.2-.07.05-.34,0-.48s-.33-.12-.3.08Z" style="fill:#191956"/><path d="M28.19,13.86a.3.3,0,0,0,.12.25.12.12,0,0,0,.17-.1c0-.07,0-.12,0-.19a.13.13,0,1,0-.26,0Z" style="fill:#191956"/><path d="M20.69,14.68a.89.89,0,1,0-.89-.89.9.9,0,0,0,.89.89Z" style="fill:#f70032"/><path d="M18.12,22.24a.24.24,0,0,0,0-.47.24.24,0,0,0,0,.47Z" style="fill:#f70032"/><path d="M18.66,22.68a.2.2,0,0,0,0-.39.2.2,0,0,0,0,.39Z" style="fill:#f70032"/><path d="M19.28,22.92a.22.22,0,0,0,0-.43.22.22,0,0,0,0,.43Z" style="fill:#f70032"/><path d="M20,23a.21.21,0,0,0,0-.41A.21.21,0,0,0,20,23Z" style="fill:#f70032"/><path d="M20.65,23.09a.23.23,0,0,0,0-.45.23.23,0,0,0,0,.45Z" style="fill:#f70032"/><path d="M21.32,23.07a.23.23,0,0,0,0-.46.23.23,0,0,0,0,.46Z" style="fill:#f70032"/><path d="M22,22.93a.2.2,0,0,0,0-.4.2.2,0,0,0,0,.4Z" style="fill:#f70032"/><path d="M22.72,22.72a.24.24,0,0,0,0-.47.24.24,0,0,0,0,.47Z" style="fill:#f70032"/><path d="M20.61,24.21a.49.49,0,1,0-.48-.49.49.49,0,0,0,.48.49Z" style="fill:#f70032"/><path d="M11.45,30.78a8.07,8.07,0,0,0,0-2.14c-.22,0-.82-2.5-.93-2.6-1-.75-1,.71-.81-.18.06-.31.63-.64.43-.93a1.7,1.7,0,0,0-1.29.19A1.66,1.66,0,0,0,8,26.22a1.1,1.1,0,0,0,.32,1.16c.12.11.26.22.36.33a1.41,1.41,0,0,1,.3.87,14.18,14.18,0,0,0,.52,2.09.27.27,0,0,0,.17.21,1.16,1.16,0,0,0,.28.05c.37,0,.75.05,1.12.06a.89.89,0,0,0,.29,0A.2.2,0,0,0,11.45,30.78Z" style="fill:#222272"/><path d="M9.54,13.92c0-.83,0-1.26,0-1.75,0-.19.19-.38.29-.29s.34,3.47.84,3.38a23.05,23.05,0,0,0,0-3c0-.23.13-.49.26-.46s.29,2.86.57,3.24c.14.19.3-1.84.47-2.73,0-.24.2-.59.34-.42a9.82,9.82,0,0,1,.18,2.65c0,1,.09,1.24-.19,1.67s-.42.16-.8.46c-.1.08-.12.47-.13.6-.06,1,0,1.77-.07,2.76-.05.78.38,6.65.42,7.34a.75.75,0,0,1-.06.47c-.08.15-.25.41-.36-1.47a89,89,0,0,1-.25-9.44.39.39,0,0,0-.32-.37c-.23-.06-.47.14-.92-.52A5.63,5.63,0,0,1,9.54,13.92Z" style="fill:#f70032"/><path d="M9.07,22.8a1.08,1.08,0,0,1,.77-.48,12.37,12.37,0,0,1,1.68.16.33.33,0,0,1,.27.17c0,.06.14.34-.3.47a1.52,1.52,0,0,1-.42.06c-.34,0-1.18-.13-1.21,0s1.5.26,2,.57a.41.41,0,0,1,.15.14c.09.19,0,.35-.23.41-.46.13-1.1-.24-1.78-.26a0,0,0,0,0,0,.09c.63.27,1.53.53,1.86,1,.11.18-.08.38-.29.4s-1.22-.54-1.42-.49-.06.14.19.27a4.54,4.54,0,0,1,.87.58.36.36,0,0,1,.1.4c-.07.19-.36.08-.53.07A3.46,3.46,0,0,1,9.9,26c-.2-.11-.13.3-.11.52s0,.69-.19.76a1.22,1.22,0,0,1-1-.3.83.83,0,0,1-.26-.23,2.34,2.34,0,0,1-.22-.55A4.71,4.71,0,0,1,9.07,22.8Z" style="fill:#ffd6a1"/><path d="M11.06,22.7a.43.43,0,0,0,.3.24.54.54,0,0,0,.21,0h.12l.05,0a.19.19,0,0,0,.13-.23l0-.09-.07-.09a.55.55,0,0,0-.22-.1.53.53,0,0,0-.41,0,.2.2,0,0,0-.09.21Z" style="fill:#990028"/><path d="M11.45,24a.52.52,0,0,0,.49.19.28.28,0,0,0,.12-.46.56.56,0,0,0-.43-.14.27.27,0,0,0-.22.12.24.24,0,0,0,0,.29Z" style="fill:#990028"/><path d="M11.27,25.08v0l0,.09a.6.6,0,0,0,.14.21.34.34,0,0,0,.33.12.23.23,0,0,0,.19-.18.33.33,0,0,0-.09-.3l0,0s0,0,0,0a.32.32,0,0,0-.12-.08c-.15-.08-.4-.06-.42.15Z" style="fill:#990028"/><path d="M10.76,26a.44.44,0,0,0,.1.19.39.39,0,0,0,.25.2c.18,0,.36-.11.3-.3s-.31-.4-.52-.33a.2.2,0,0,0-.13.24Z" style="fill:#990028"/><path d="M9.06,22.76A.49.49,0,0,0,9,23a.11.11,0,0,0,.22,0s0-.11,0-.17-.18-.21-.23-.06Z" style="fill:#0c0a35"/><path d="M9,23.53a.35.35,0,0,0,0,.3c.05.15.3.14.29,0a.68.68,0,0,1,0-.2c0-.13-.17-.16-.23-.06Z" style="fill:#0c0a35"/><path d="M8.87,24.41a.32.32,0,0,0,.05.3.11.11,0,0,0,.19-.05,1.55,1.55,0,0,0,0-.22.12.12,0,0,0-.23,0Z" style="fill:#0c0a35"/><path d="M8.9,25.44a.37.37,0,0,0,.16.24.13.13,0,0,0,.19-.15,1.86,1.86,0,0,0-.1-.2c-.07-.14-.29,0-.25.11Z" style="fill:#0c0a35"/><path d="M10,20.91a1.06,1.06,0,0,0,.83.44.83.83,0,0,0,.27,0,.11.11,0,0,0,.07,0,.17.17,0,0,0,0-.18,1.11,1.11,0,0,0-.5-.66,1.89,1.89,0,0,0-1-.31s0,0,0,0C9.75,20.4,9.8,20.69,10,20.91Z" style="fill:#f70032"/><path d="M11.24,22.06s0,0,0-.06a.88.88,0,0,1,.66-.64,4.43,4.43,0,0,1,1-.12,3,3,0,0,1-.27.42,1.71,1.71,0,0,1-.18.2,1.19,1.19,0,0,1-1.1.24S11.26,22.09,11.24,22.06Z" style="fill:#f70032"/><path d="M12.25,34.1a3.76,3.76,0,0,0,.55-2.38,4.94,4.94,0,0,0-.22-1.33,5.27,5.27,0,0,0-1-1.61c-.14-.17-.29-.57-.47-.71-.69-.56-1.38.17-2.28.12a1.51,1.51,0,0,1-.41.71c-.54.58-1.62.85-2.07,2.12s0,2.22.86,3.39c.56.74,2.1.63,2.93.61A2.58,2.58,0,0,0,12.25,34.1Z" style="fill:#222272"/><path d="M11.24,30a8.63,8.63,0,0,1,.15,2.27c0,.65-.6,1.08-.56,1.69,0,.35.52.55.71.19a3.63,3.63,0,0,0,.62-1.88,6.26,6.26,0,0,0-.56-2.42c-.09-.22-.4-.06-.36.15Z" style="fill:#990028"/><path d="M9.85,29.82a4.57,4.57,0,0,0-.47,2c-.05.69.18,1.37.11,2.05s.81.55.84,0a15.35,15.35,0,0,0-.17-1.77c0-.73.05-1.46.05-2.2a.2.2,0,0,0-.36-.1Z" style="fill:#990028"/><path d="M8.51,29.7A4,4,0,0,0,7.81,32c0,.64.11,1.65.72,2a.22.22,0,0,0,.32-.13c.21-.56-.27-1.24-.29-1.85a7.21,7.21,0,0,1,.29-2.11.19.19,0,0,0-.34-.15Z" style="fill:#990028"/><path d="M11.33,28.87h0s-.05-.1-.1-.1h0a.17.17,0,0,0-.16.28.17.17,0,0,0,.28-.17Z" style="fill:#f70032"/><path d="M10.66,29.1a.18.18,0,0,0,0-.36.18.18,0,0,0,0,.36Z" style="fill:#f70032"/><path d="M10.1,29.07a.16.16,0,0,0,0-.31.16.16,0,1,0,0,.31Z" style="fill:#f70032"/><path d="M9.56,29.09a.19.19,0,0,0,0-.38.19.19,0,0,0,0,.38Z" style="fill:#f70032"/><path d="M9,29a.17.17,0,0,0,0-.34A.17.17,0,0,0,9,29Z" style="fill:#f70032"/><path d="M20.76,30.3A3,3,0,0,0,21,28.66a.39.39,0,0,0-.78,0,4,4,0,0,0,.27,1.64.14.14,0,0,0,.24,0Z" style="fill:#990028"/><path d="M20.67,31.5a1.76,1.76,0,0,0-.2.94,2.56,2.56,0,0,0,.1,1.17.33.33,0,0,0,.57,0,1.89,1.89,0,0,0,.06-1A2.47,2.47,0,0,0,21,31.5a.17.17,0,0,0-.29,0Z" style="fill:#990028"/><path d="M20.23,30.77a1.37,1.37,0,0,0-1.07-.13c-.37.09-.3.72.09.67a2,2,0,0,0,1-.32.16.16,0,0,0,0-.22Z" style="fill:#990028"/><path d="M21.38,30.78a.58.58,0,0,0,.45.2,1.43,1.43,0,0,0,.65,0,.26.26,0,0,0,.11-.44A.73.73,0,0,0,22,30.4c-.19,0-.47.05-.58.23a.14.14,0,0,0,0,.15Z" style="fill:#990028"/><path d="M20.84,31.07a.17.17,0,0,0,0-.34.17.17,0,0,0,0,.34Z" style="fill:#f70032"/><path d="M14.62,25.85a.19.19,0,1,0,0-.37.19.19,0,0,0,0,.37Z" style="fill:#f70032"/><path d="M13.58,28h0c.07.16.3.1.34-.05h0a.19.19,0,0,0-.18-.24.2.2,0,0,0-.17.29Z" style="fill:#f70032"/><path d="M12.93,27a.16.16,0,0,0,0-.32.16.16,0,0,0,0,.32Z" style="fill:#f70032"/><path d="M11.79,29.09a.2.2,0,0,0,0-.39.2.2,0,0,0,0,.39Z" style="fill:#f70032"/><path d="M12.68,29.42h0a.16.16,0,0,0,.23-.14h0a.17.17,0,1,0-.25.14Z" style="fill:#f70032"/><path d="M15.16,27.52v0a.19.19,0,0,0,.37,0s0,0,0,0a.2.2,0,0,0-.19-.25.2.2,0,0,0-.19.25Z" style="fill:#f70032"/><path d="M16.7,26.17a.24.24,0,0,0,0-.47.24.24,0,0,0,0,.47Z" style="fill:#f70032"/><path d="M17,27.72a.2.2,0,0,0,0-.39.2.2,0,0,0,0,.39Z" style="fill:#f70032"/><path d="M19.28,26.08a.19.19,0,0,0,0-.37.19.19,0,0,0,0,.37Z" style="fill:#f70032"/><path d="M16.82,29.07a.26.26,0,0,0-.07.22.16.16,0,0,0,.16.12.15.15,0,0,0,.15-.16v0l0,.08h0c.15-.15-.09-.38-.23-.23Z" style="fill:#f70032"/><path d="M15.83,31a.18.18,0,0,0,0-.35.18.18,0,0,0,0,.35Z" style="fill:#f70032"/><path d="M20.18,27.42a.24.24,0,0,0,0-.47.24.24,0,0,0,0,.47Z" style="fill:#f70032"/><path d="M12.83,25.19h0a.18.18,0,0,0,.27-.15v0a.19.19,0,0,0-.28-.16.19.19,0,0,0,0,.32Z" style="fill:#f70032"/><path d="M18,25a.18.18,0,0,0,0-.36A.18.18,0,0,0,18,25Z" style="fill:#f70032"/><path d="M21.18,25.88a.22.22,0,0,0,0-.44.22.22,0,0,0,0,.44Z" style="fill:#f70032"/><path d="M22.5,33.7a.19.19,0,0,0,0,.12c0,.19.29.25.34,0h0l0,.07h0c.19-.15-.11-.44-.27-.22Z" style="fill:#f70032"/><path d="M15.85,25.09a.16.16,0,1,0,0-.31.16.16,0,0,0,0,.31Z" style="fill:#f70032"/><path d="M14.08,30.76a.21.21,0,0,0,0-.42.21.21,0,0,0,0,.42Z" style="fill:#f70032"/><path d="M14.89,29.24a.23.23,0,0,0,0-.45.23.23,0,0,0,0,.45Z" style="fill:#f70032"/><path d="M24.16,32.33v0a.2.2,0,0,0,.22.29.18.18,0,0,0,.13-.11.2.2,0,0,0-.07-.27.19.19,0,0,0-.27.07Z" style="fill:#f70032"/><path d="M18.25,27.82h0a.21.21,0,0,0,.2-.15.21.21,0,0,0-.1-.23l0,0a.22.22,0,1,0-.11.41Z" style="fill:#f70032"/><path d="M28.31,37.06v0a.16.16,0,0,0,.12.16.17.17,0,0,0,.2-.11v0c.05-.26-.36-.26-.33,0Z" style="fill:#f70032"/><path d="M13.53,32v0a.17.17,0,0,0,.34,0v0c0-.22-.33-.22-.34,0Z" style="fill:#f70032"/><path d="M18.59,37.1a.25.25,0,0,0,0-.49.25.25,0,0,0,0,.49Z" style="fill:#f70032"/><path d="M8.24,35.78a.2.2,0,1,0,0-.4.2.2,0,0,0,0,.4Z" style="fill:#f70032"/><path d="M9.66,35.53h0a.09.09,0,0,0,.11-.11v0a.1.1,0,0,0-.16,0,.1.1,0,0,0,0,.16Z" style="fill:#f70032"/><path d="M5.52,11.89c0,.1,0,.25,0,.35s0,.2,0,.3a1.39,1.39,0,0,0,.42.91,9.37,9.37,0,0,1-1.06,0,1.34,1.34,0,0,0,.42-.91,1.51,1.51,0,0,0,0-.3c0-.1,0-.25,0-.35Z" style="fill:#0c0a35"/><path d="M5.45,12.14c.1,0,.15.11.33.31a1.1,1.1,0,0,0,.69.41A.67.67,0,0,0,7,12.63a1.16,1.16,0,0,0,.19-.44,1.12,1.12,0,0,0-.09-.84.59.59,0,0,0-.77-.23c-.12.07-.16.16-.28.18A0,0,0,0,1,6,11.24c0-.18.17-.2.23-.41s.11-.44-.25-.76a1.21,1.21,0,0,0-1.22,0,.57.57,0,0,0-.25.68c.06.2.17.29.22.45a.07.07,0,0,1-.09.09c-.09,0-.13-.11-.24-.17a.58.58,0,0,0-.76.23,1.12,1.12,0,0,0-.1.84,1.34,1.34,0,0,0,.19.44.67.67,0,0,0,.55.23A1,1,0,0,0,5,12.45c.18-.2.24-.29.34-.31Z" style="fill:#0c0a35"/><path d="M5.05,8.24a2,2,0,0,1-1.74-.85,3.4,3.4,0,0,1-.63-2.1A3.54,3.54,0,0,1,3.33,3.1,2.09,2.09,0,0,1,5,2.25a2.1,2.1,0,0,1,1.7.81A3.3,3.3,0,0,1,7.4,5.2a3.58,3.58,0,0,1-.5,1.93,2.09,2.09,0,0,1-1.27,1v.08c0,.42.25.63.77.63a3.37,3.37,0,0,0,.66-.06V9.4a2,2,0,0,1-.6.09,1.56,1.56,0,0,1-1-.28A1.27,1.27,0,0,1,5.05,8.24Zm0-.59A1.32,1.32,0,0,0,6.22,7,3.27,3.27,0,0,0,6.65,5.2a3,3,0,0,0-.44-1.74A1.38,1.38,0,0,0,5,2.84a1.35,1.35,0,0,0-1.17.67,3.21,3.21,0,0,0-.44,1.76A3.09,3.09,0,0,0,3.87,7,1.34,1.34,0,0,0,5,7.65Z" style="fill:#0c0a35"/><path d="M35.6,50.64c0-.1,0-.24,0-.34s0-.21,0-.31a1.43,1.43,0,0,0-.42-.91h1.06a1.44,1.44,0,0,0-.43.91c0,.1,0,.21,0,.31s0,.24,0,.34Z" style="fill:#0c0a35"/><path d="M35.67,50.39c-.1,0-.15-.11-.33-.3a1,1,0,0,0-.69-.41.67.67,0,0,0-.55.23,1.28,1.28,0,0,0-.1,1.27.59.59,0,0,0,.76.24c.13-.07.17-.17.29-.19a.05.05,0,0,1,.06.06c0,.18-.18.2-.23.41a.61.61,0,0,0,.24.76,1.18,1.18,0,0,0,1.23,0,.55.55,0,0,0,.25-.67c-.06-.2-.17-.29-.22-.46a.07.07,0,0,1,.09-.09c.08,0,.13.12.24.18a.58.58,0,0,0,.76-.24,1.16,1.16,0,0,0,.1-.84,1.28,1.28,0,0,0-.19-.43.68.68,0,0,0-.55-.23,1,1,0,0,0-.69.41c-.18.19-.24.29-.34.3Z" style="fill:#0c0a35"/><path d="M36.07,54.3a2.05,2.05,0,0,1,1.74.84,3.45,3.45,0,0,1,.63,2.11,3.49,3.49,0,0,1-.65,2.18,2.06,2.06,0,0,1-1.71.85,2.1,2.1,0,0,1-1.7-.81,3.27,3.27,0,0,1-.66-2.13,3.73,3.73,0,0,1,.49-1.94,2.12,2.12,0,0,1,1.28-1v-.08c0-.42-.26-.63-.77-.63a4.43,4.43,0,0,0-.66.05v-.57a2,2,0,0,1,.6-.09,1.56,1.56,0,0,1,1,.28A1.26,1.26,0,0,1,36.07,54.3Zm0,.58a1.31,1.31,0,0,0-1.18.69,3.27,3.27,0,0,0-.43,1.77,3,3,0,0,0,.44,1.73,1.36,1.36,0,0,0,1.17.62A1.33,1.33,0,0,0,37.25,59a3.15,3.15,0,0,0,.43-1.75,3.07,3.07,0,0,0-.43-1.72A1.35,1.35,0,0,0,36.08,54.88Z" style="fill:#0c0a35"/><path d="M14.67,59.24H6.29a3.1,3.1,0,0,1-3-3.19V15.78a.09.09,0,0,1,.18,0V56.05a2.92,2.92,0,0,0,2.82,3h8.38a.09.09,0,0,1,.09.09A.09.09,0,0,1,14.67,59.24Z" style="fill:#191956"/><path d="M32.87,59.24H26.61a.09.09,0,0,1-.1-.1.09.09,0,0,1,.1-.09h6.26a.1.1,0,0,1,.1.09A.1.1,0,0,1,32.87,59.24Z" style="fill:#191956"/><path d="M37.74,47a.09.09,0,0,1-.09-.09V6.49a2.92,2.92,0,0,0-2.82-3H26.57a.1.1,0,0,1-.09-.1.09.09,0,0,1,.09-.09h8.26a3.1,3.1,0,0,1,3,3.19V47A.09.09,0,0,1,37.74,47Z" style="fill:#191956"/><path d="M15,3.49H8.54a.1.1,0,0,1-.09-.1.09.09,0,0,1,.09-.09H15a.09.09,0,0,1,.09.09A.1.1,0,0,1,15,3.49Z" style="fill:#191956"/></g></g></g></svg>