<svg xmlns="http://www.w3.org/2000/svg" viewBox="0 0 40.93 62.29"><title>d10</title><g id="Layer_2" data-name="Layer 2"><g id="Layer_1-2" data-name="Layer 1"><g id="d10"><rect x="0.09" y="0.09" width="40.74" height="62.1" rx="3.45" style="fill:#fff"/><path d="M37.39,62.29H3.54A3.55,3.55,0,0,1,0,58.74V3.54A3.55,3.55,0,0,1,3.54,0H37.39a3.55,3.55,0,0,1,3.54,3.54v55.2A3.55,3.55,0,0,1,37.39,62.29ZM3.54.19A3.35,3.35,0,0,0,.19,3.54v55.2A3.36,3.36,0,0,0,3.54,62.1H37.39a3.36,3.36,0,0,0,3.35-3.36V3.54A3.35,3.35,0,0,0,37.39.19Z" style="fill:#2d2d2d"/><path d="M5.29,12.71a.2.2,0,0,0,.13,0,17.14,17.14,0,0,0,1.3-1.24.27.27,0,0,0,.08-.16.2.2,0,0,0-.08-.12c-.34-.34-.69-.65-1-1-.13-.15-.3-.33-.4-.33h0c-.1,0-.26.18-.4.33-.31.36-.67.67-1,1a.19.19,0,0,0-.07.12c0,.06,0,.11.08.16a15.29,15.29,0,0,0,1.29,1.24.23.23,0,0,0,.14,0Z" style="fill:#d6002b"/><path d="M35.66,52.24a.2.2,0,0,0,.13,0A14,14,0,0,0,37.09,51a.21.21,0,0,0,.08-.16s0-.08-.08-.12c-.33-.33-.69-.65-1-1-.13-.15-.29-.32-.39-.33h-.06c-.1,0-.26.18-.4.33-.31.36-.67.68-1,1a.23.23,0,0,0-.08.12.21.21,0,0,0,.08.16,14,14,0,0,0,1.3,1.24.2.2,0,0,0,.13,0Z" style="fill:#d6002b"/><path d="M4.45,8.21v.53H2.29V8.21h.79V3.77A6.77,6.77,0,0,1,1.5,5V4.29A5.27,5.27,0,0,0,3.25,2.88h.52V8.21Z" style="fill:#d6002b"/><path d="M6.94,8.86A1.86,1.86,0,0,1,5.35,8a3.72,3.72,0,0,1-.59-2.14,3.87,3.87,0,0,1,.56-2.12,1.82,1.82,0,0,1,1.6-.86,1.82,1.82,0,0,1,1.64.9,4,4,0,0,1,.55,2.11A3.75,3.75,0,0,1,8.54,8,1.81,1.81,0,0,1,6.94,8.86Zm0-.57A1.14,1.14,0,0,0,8,7.63,3.39,3.39,0,0,0,8.37,6,4.07,4.07,0,0,0,8,4.16a1.15,1.15,0,0,0-1.1-.72,1.14,1.14,0,0,0-1.07.66,3.64,3.64,0,0,0-.35,1.74,3.6,3.6,0,0,0,.37,1.78A1.17,1.17,0,0,0,6.94,8.29Z" style="fill:#d6002b"/><path d="M36.48,54.08v-.54h2.16v.54h-.79v4.44a6.42,6.42,0,0,1,1.59-1.25V58a5,5,0,0,0-1.76,1.41h-.52V54.08Z" style="fill:#d6002b"/><path d="M34,53.42a1.85,1.85,0,0,1,1.59.87,3.69,3.69,0,0,1,.59,2.13,3.82,3.82,0,0,1-.56,2.12,1.92,1.92,0,0,1-3.23,0,3.9,3.9,0,0,1-.56-2.12,3.8,3.8,0,0,1,.57-2.08A1.81,1.81,0,0,1,34,53.42ZM34,54a1.14,1.14,0,0,0-1.08.66,3.55,3.55,0,0,0-.35,1.66,4,4,0,0,0,.36,1.81,1.16,1.16,0,0,0,1.1.73,1.14,1.14,0,0,0,1.07-.66,4.51,4.51,0,0,0,0-3.53A1.16,1.16,0,0,0,34,54Z" style="fill:#d6002b"/><path d="M14.1,13.21a.76.76,0,0,0,.44-.13A49,49,0,0,0,18.81,9a.69.69,0,0,0,.26-.52.67.67,0,0,0-.25-.4C17.71,7,16.54,5.92,15.5,4.76c-.45-.5-1-1.08-1.31-1.1H14c-.34,0-.87.6-1.32,1.1-1,1.16-2.21,2.21-3.32,3.31a.78.78,0,0,0-.25.4A.69.69,0,0,0,9.39,9a49,49,0,0,0,4.27,4.09.76.76,0,0,0,.44.13Z" style="fill:#d6002b"/><path d="M26.83,13.21a.76.76,0,0,0,.44-.13A49,49,0,0,0,31.54,9a.69.69,0,0,0,.26-.52.78.78,0,0,0-.25-.4C30.44,7,29.27,5.92,28.23,4.76c-.45-.5-1-1.08-1.32-1.1h-.17c-.33,0-.86.6-1.31,1.1-1,1.16-2.21,2.21-3.32,3.31a.78.78,0,0,0-.25.4.69.69,0,0,0,.26.52,49,49,0,0,0,4.27,4.09.76.76,0,0,0,.44.13Z" style="fill:#d6002b"/><path d="M14.1,30a.76.76,0,0,0,.44-.13,49,49,0,0,0,4.27-4.09.69.69,0,0,0,.26-.52.65.65,0,0,0-.25-.39c-1.11-1.11-2.28-2.15-3.32-3.32-.45-.5-1-1.08-1.31-1.1H14c-.34,0-.87.6-1.32,1.1-1,1.17-2.21,2.21-3.32,3.32a.75.75,0,0,0-.25.39.69.69,0,0,0,.26.52,49,49,0,0,0,4.27,4.09.76.76,0,0,0,.44.13Z" style="fill:#d6002b"/><path d="M26.83,30a.76.76,0,0,0,.44-.13,49,49,0,0,0,4.27-4.09.69.69,0,0,0,.26-.52.75.75,0,0,0-.25-.39c-1.11-1.11-2.28-2.15-3.32-3.32-.45-.5-1-1.08-1.32-1.1h-.17c-.33,0-.86.6-1.31,1.1-1,1.17-2.21,2.21-3.32,3.32a.75.75,0,0,0-.25.39.69.69,0,0,0,.26.52,49,49,0,0,0,4.27,4.09.76.76,0,0,0,.44.13Z" style="fill:#d6002b"/><path d="M20.47,21.76a.87.87,0,0,0,.44-.13,50.48,50.48,0,0,0,4.27-4.09.71.71,0,0,0,.26-.52.74.74,0,0,0-.25-.4c-1.11-1.11-2.28-2.15-3.32-3.32-.45-.5-1-1.07-1.32-1.1h-.17c-.33,0-.86.6-1.31,1.1-1.05,1.17-2.22,2.21-3.32,3.32a.7.7,0,0,0-.26.4.71.71,0,0,0,.26.52A49.16,49.16,0,0,0,20,21.63a.83.83,0,0,0,.43.13Z" style="fill:#d6002b"/><path d="M26.83,49.08a.76.76,0,0,0-.44.13,47.57,47.57,0,0,0-4.27,4.09.69.69,0,0,0-.26.51.74.74,0,0,0,.25.4c1.11,1.11,2.28,2.15,3.32,3.32.45.5,1,1.08,1.31,1.1h.17c.34,0,.87-.6,1.32-1.1,1-1.17,2.21-2.21,3.32-3.32a.74.74,0,0,0,.25-.4.69.69,0,0,0-.26-.51,47.57,47.57,0,0,0-4.27-4.09.76.76,0,0,0-.44-.13Z" style="fill:#d6002b"/><path d="M14.1,49.08a.76.76,0,0,0-.44.13A47.57,47.57,0,0,0,9.39,53.3a.69.69,0,0,0-.26.51.74.74,0,0,0,.25.4c1.11,1.11,2.28,2.15,3.32,3.32.45.5,1,1.08,1.32,1.1h.17c.33,0,.86-.6,1.31-1.1,1-1.17,2.21-2.21,3.32-3.32a.64.64,0,0,0,.25-.4.69.69,0,0,0-.26-.51,47.57,47.57,0,0,0-4.27-4.09.76.76,0,0,0-.44-.13Z" style="fill:#d6002b"/><path d="M26.83,32.29a.84.84,0,0,0-.44.13,47.66,47.66,0,0,0-4.27,4.1.67.67,0,0,0-.26.51.74.74,0,0,0,.25.4c1.11,1.11,2.28,2.15,3.32,3.31.45.51,1,1.08,1.31,1.11h.17c.34,0,.87-.6,1.32-1.11,1-1.16,2.21-2.2,3.32-3.31a.74.74,0,0,0,.25-.4.67.67,0,0,0-.26-.51,47.66,47.66,0,0,0-4.27-4.1.84.84,0,0,0-.44-.13Z" style="fill:#d6002b"/><path d="M14.1,32.29a.84.84,0,0,0-.44.13,47.66,47.66,0,0,0-4.27,4.1.67.67,0,0,0-.26.51.74.74,0,0,0,.25.4c1.11,1.11,2.28,2.15,3.32,3.31.45.51,1,1.08,1.32,1.11h.17c.33,0,.86-.6,1.31-1.11,1-1.16,2.21-2.2,3.32-3.31a.64.64,0,0,0,.25-.4.67.67,0,0,0-.26-.51,47.66,47.66,0,0,0-4.27-4.1.84.84,0,0,0-.44-.13Z" style="fill:#d6002b"/><path d="M20.46,40.53a.75.75,0,0,0-.43.13,49.16,49.16,0,0,0-4.28,4.09.69.69,0,0,0-.26.52.74.74,0,0,0,.26.4c1.1,1.1,2.27,2.14,3.32,3.31.45.5,1,1.08,1.31,1.1h.17c.33,0,.87-.6,1.32-1.1,1-1.17,2.21-2.21,3.32-3.31a.78.78,0,0,0,.25-.4.69.69,0,0,0-.26-.52,50.48,50.48,0,0,0-4.27-4.09.78.78,0,0,0-.44-.13Z" style="fill:#d6002b"/></g></g></g></svg>