<svg xmlns="http://www.w3.org/2000/svg" viewBox="0 0 40.93 62.29"><title>d2</title><g id="Layer_2" data-name="Layer 2"><g id="Layer_1-2" data-name="Layer 1"><g id="d2"><rect x="0.09" y="0.09" width="40.74" height="62.1" rx="3.45" style="fill:#fff"/><path d="M37.39,62.29H3.54A3.55,3.55,0,0,1,0,58.74V3.54A3.55,3.55,0,0,1,3.54,0H37.39a3.55,3.55,0,0,1,3.54,3.54v55.2A3.55,3.55,0,0,1,37.39,62.29ZM3.54.19A3.35,3.35,0,0,0,.19,3.54v55.2A3.36,3.36,0,0,0,3.54,62.1H37.39a3.36,3.36,0,0,0,3.35-3.36V3.54A3.35,3.35,0,0,0,37.39.19Z" style="fill:#2d2d2d"/><path d="M5.29,12.71a.2.2,0,0,0,.13,0,15.45,15.45,0,0,0,1.3-1.24s.09-.1.08-.16a.2.2,0,0,0-.08-.12c-.33-.34-.69-.65-1-1-.13-.15-.3-.33-.4-.33h0c-.1,0-.26.18-.4.33-.31.36-.67.67-1,1a.19.19,0,0,0-.07.12c0,.06,0,.11.08.16a15.29,15.29,0,0,0,1.29,1.24.23.23,0,0,0,.14,0Z" style="fill:#d6002b"/><path d="M35.66,52.24a.2.2,0,0,0,.13,0A14,14,0,0,0,37.09,51a.21.21,0,0,0,.08-.16s0-.08-.08-.12c-.33-.33-.69-.65-1-1-.14-.15-.3-.32-.4-.33h-.06c-.1,0-.26.18-.39.33-.32.36-.68.68-1,1a.23.23,0,0,0-.08.12.21.21,0,0,0,.08.16,14,14,0,0,0,1.3,1.24.2.2,0,0,0,.13,0Z" style="fill:#d6002b"/><path d="M7.32,8.15v.59H3.24V8.15A22.13,22.13,0,0,0,6.12,5.76a1.81,1.81,0,0,0,.47-1.14,1,1,0,0,0-.4-.85,1.42,1.42,0,0,0-1.83,0,1.37,1.37,0,0,0-.45,1l-.67-.2A2,2,0,0,1,5.3,2.88a2.13,2.13,0,0,1,1.45.5A1.61,1.61,0,0,1,7.3,4.62a2,2,0,0,1-.26,1A4.88,4.88,0,0,1,6,6.69c-.49.43-1.12.91-1.89,1.46Z" style="fill:#d6002b"/><path d="M33.63,54.14v-.6h4.08v.6a21.3,21.3,0,0,0-2.88,2.39,1.81,1.81,0,0,0-.47,1.13,1,1,0,0,0,.4.86,1.4,1.4,0,0,0,.9.32A1.38,1.38,0,0,0,37,57.52l.67.2a2,2,0,0,1-2.06,1.69,2.07,2.07,0,0,1-1.45-.51,1.59,1.59,0,0,1-.55-1.23,2,2,0,0,1,.26-1,5.1,5.1,0,0,1,1-1.1,20.9,20.9,0,0,1,1.89-1.46Z" style="fill:#d6002b"/><path d="M20.47,13.21a.78.78,0,0,0,.44-.13A50.48,50.48,0,0,0,25.18,9a.69.69,0,0,0,.26-.52.78.78,0,0,0-.25-.4C24.08,7,22.91,5.92,21.87,4.76c-.45-.5-1-1.08-1.32-1.1h-.17c-.33,0-.86.6-1.31,1.1C18,5.92,16.85,7,15.75,8.07a.74.74,0,0,0-.26.4.73.73,0,0,0,.26.52A49.16,49.16,0,0,0,20,13.08a.75.75,0,0,0,.43.13Z" style="fill:#d6002b"/><path d="M20.46,49.08a.75.75,0,0,0-.43.13,47.72,47.72,0,0,0-4.28,4.09.73.73,0,0,0-.26.51.7.7,0,0,0,.26.4c1.1,1.11,2.27,2.15,3.32,3.32.45.5,1,1.08,1.31,1.1h.17c.33,0,.87-.6,1.32-1.1,1-1.17,2.21-2.21,3.32-3.32a.74.74,0,0,0,.25-.4.69.69,0,0,0-.26-.51,49,49,0,0,0-4.27-4.09.78.78,0,0,0-.44-.13Z" style="fill:#d6002b"/></g></g></g></svg>