<svg xmlns="http://www.w3.org/2000/svg" viewBox="0 0 40.93 62.29"><title>d3</title><g id="Layer_2" data-name="Layer 2"><g id="Layer_1-2" data-name="Layer 1"><g id="d3"><rect x="0.09" y="0.09" width="40.74" height="62.1" rx="3.45" style="fill:#fff"/><path d="M37.39,62.29H3.54A3.55,3.55,0,0,1,0,58.74V3.54A3.55,3.55,0,0,1,3.54,0H37.39a3.55,3.55,0,0,1,3.54,3.54v55.2A3.55,3.55,0,0,1,37.39,62.29ZM3.54.19A3.35,3.35,0,0,0,.19,3.54v55.2A3.36,3.36,0,0,0,3.54,62.1H37.39a3.36,3.36,0,0,0,3.35-3.36V3.54A3.35,3.35,0,0,0,37.39.19Z" style="fill:#2d2d2d"/><path d="M5.38,12.62a.33.33,0,0,0,.14,0,15.32,15.32,0,0,0,1.29-1.25s.09-.09.08-.15,0-.09-.07-.13c-.34-.33-.7-.65-1-1-.14-.15-.3-.33-.4-.34h0c-.11,0-.27.19-.4.34-.32.35-.68.67-1,1a.26.26,0,0,0-.08.13c0,.06,0,.11.08.15a14.08,14.08,0,0,0,1.3,1.25.28.28,0,0,0,.13,0Z" style="fill:#d6002b"/><path d="M35.75,52.15a.33.33,0,0,0,.14,0,17.14,17.14,0,0,0,1.3-1.24.21.21,0,0,0,.07-.16.19.19,0,0,0-.07-.12c-.34-.34-.69-.65-1-1-.14-.15-.3-.33-.4-.33h-.05c-.1,0-.27.18-.4.33-.32.36-.67.67-1,1a.25.25,0,0,0-.08.12.27.27,0,0,0,.08.16,17.14,17.14,0,0,0,1.3,1.24.33.33,0,0,0,.13,0Z" style="fill:#d6002b"/><path d="M4.55,6V5.38h.66a1.46,1.46,0,0,0,1-.3,1,1,0,0,0,.31-.72.91.91,0,0,0-.35-.74,1.37,1.37,0,0,0-.87-.27A1.34,1.34,0,0,0,4,4.29l-.65-.18A2,2,0,0,1,5.4,2.79a2,2,0,0,1,1.36.44,1.37,1.37,0,0,1,.52,1.08A1.26,1.26,0,0,1,7,5.17a1.34,1.34,0,0,1-.8.45,1.74,1.74,0,0,1,.94.46,1.33,1.33,0,0,1,.39,1,1.52,1.52,0,0,1-.58,1.21,2.48,2.48,0,0,1-1.61.49,2.41,2.41,0,0,1-1.38-.39,1.92,1.92,0,0,1-.79-1l.67-.23a1.38,1.38,0,0,0,1.49,1,1.58,1.58,0,0,0,1.12-.33,1.07,1.07,0,0,0,.33-.79,1,1,0,0,0-.4-.81A1.89,1.89,0,0,0,5.21,6Z" style="fill:#d6002b"/><path d="M36.58,56.15v.57h-.65a1.44,1.44,0,0,0-1,.3.92.92,0,0,0-.31.71.89.89,0,0,0,.34.74,1.32,1.32,0,0,0,.87.28,1.35,1.35,0,0,0,1.34-.94l.65.18a2.29,2.29,0,0,1-3.42.88,1.42,1.42,0,0,1-.52-1.08,1.27,1.27,0,0,1,.32-.86,1.38,1.38,0,0,1,.8-.46A1.63,1.63,0,0,1,34,56a1.3,1.3,0,0,1-.4-1,1.53,1.53,0,0,1,.59-1.21,2.39,2.39,0,0,1,1.6-.49,2.46,2.46,0,0,1,1.38.38,2,2,0,0,1,.8,1l-.67.22a1.38,1.38,0,0,0-1.5-1,1.57,1.57,0,0,0-1.11.33,1,1,0,0,0-.34.79,1,1,0,0,0,.41.8,1.82,1.82,0,0,0,1.14.31Z" style="fill:#d6002b"/><path d="M20.56,13.12A.84.84,0,0,0,21,13a47.66,47.66,0,0,0,4.27-4.1.67.67,0,0,0,.26-.51.74.74,0,0,0-.25-.4C24.17,6.87,23,5.83,22,4.66c-.45-.5-1-1.08-1.32-1.1h-.17c-.33,0-.86.6-1.31,1.1C18.12,5.83,17,6.87,15.84,8a.74.74,0,0,0-.25.4.67.67,0,0,0,.26.51A47.66,47.66,0,0,0,20.12,13a.84.84,0,0,0,.44.13Z" style="fill:#d6002b"/><path d="M20.56,49a.84.84,0,0,0-.44.13,49,49,0,0,0-4.27,4.09.71.71,0,0,0-.26.52.74.74,0,0,0,.25.4c1.11,1.1,2.28,2.15,3.32,3.31.45.51,1,1.08,1.31,1.11h.17c.34,0,.87-.6,1.32-1.11,1-1.16,2.21-2.21,3.32-3.31a.74.74,0,0,0,.25-.4.71.71,0,0,0-.26-.52A49,49,0,0,0,21,49.11a.84.84,0,0,0-.44-.13Z" style="fill:#d6002b"/><path d="M20.37,35.83a.84.84,0,0,0,.44-.13,47.66,47.66,0,0,0,4.27-4.1.53.53,0,0,0,0-.91c-1.1-1.11-2.28-2.15-3.32-3.31-.45-.51-1-1.09-1.31-1.11h-.17c-.34,0-.87.6-1.32,1.11-1,1.16-2.21,2.2-3.32,3.31a.74.74,0,0,0-.25.4.67.67,0,0,0,.26.51,47.66,47.66,0,0,0,4.27,4.1.84.84,0,0,0,.44.13Z" style="fill:#d6002b"/></g></g></g></svg>