<svg xmlns="http://www.w3.org/2000/svg" viewBox="0 0 40.93 62.29"><title>d7</title><g id="Layer_2" data-name="Layer 2"><g id="Layer_1-2" data-name="Layer 1"><g id="d7"><rect x="0.09" y="0.09" width="40.74" height="62.1" rx="3.45" style="fill:#fff"/><path d="M37.39,62.29H3.54A3.55,3.55,0,0,1,0,58.74V3.54A3.55,3.55,0,0,1,3.54,0H37.39a3.55,3.55,0,0,1,3.54,3.54v55.2A3.55,3.55,0,0,1,37.39,62.29ZM3.54.19A3.35,3.35,0,0,0,.19,3.54v55.2A3.36,3.36,0,0,0,3.54,62.1H37.39a3.36,3.36,0,0,0,3.35-3.36V3.54A3.35,3.35,0,0,0,37.39.19Z" style="fill:#2d2d2d"/><path d="M5.29,12.71a.2.2,0,0,0,.13,0,17.14,17.14,0,0,0,1.3-1.24.27.27,0,0,0,.08-.16.2.2,0,0,0-.08-.12c-.33-.34-.69-.65-1-1-.13-.15-.3-.33-.4-.33h0c-.1,0-.26.18-.4.33-.31.36-.67.67-1,1a.19.19,0,0,0-.07.12c0,.06,0,.11.08.16a15.29,15.29,0,0,0,1.29,1.24.23.23,0,0,0,.14,0Z" style="fill:#d6002b"/><path d="M35.66,52.24a.2.2,0,0,0,.13,0A14,14,0,0,0,37.09,51a.21.21,0,0,0,.08-.16s0-.08-.08-.12c-.33-.33-.69-.65-1-1-.14-.15-.3-.32-.4-.33h-.06c-.1,0-.26.18-.4.33-.31.36-.67.68-1,1a.23.23,0,0,0-.08.12.21.21,0,0,0,.08.16,14,14,0,0,0,1.3,1.24.2.2,0,0,0,.13,0Z" style="fill:#d6002b"/><path d="M5.4,8.74H4.66a6.92,6.92,0,0,1,.59-2.81,8.05,8.05,0,0,1,1.44-2.3H3.57L3.64,3h3.8v.43A9.19,9.19,0,0,0,5.9,6a7.11,7.11,0,0,0-.5,2.54Z" style="fill:#d6002b"/><path d="M35.36,53.54h.74a6.88,6.88,0,0,1-.59,2.81,8.25,8.25,0,0,1-1.44,2.31h3.12l-.07.63h-3.8v-.43a9.09,9.09,0,0,0,1.54-2.58,7.13,7.13,0,0,0,.51-2.54S35.36,53.63,35.36,53.54Z" style="fill:#d6002b"/><path d="M14.1,13.21a.76.76,0,0,0,.44-.13A49,49,0,0,0,18.81,9a.69.69,0,0,0,.26-.52.67.67,0,0,0-.25-.4C17.71,7,16.54,5.92,15.5,4.76c-.45-.5-1-1.08-1.31-1.1H14c-.34,0-.87.6-1.32,1.1-1,1.16-2.21,2.21-3.32,3.31a.78.78,0,0,0-.25.4A.69.69,0,0,0,9.39,9a49,49,0,0,0,4.27,4.09.76.76,0,0,0,.44.13Z" style="fill:#d6002b"/><path d="M26.83,13.21a.76.76,0,0,0,.44-.13A49,49,0,0,0,31.54,9a.69.69,0,0,0,.26-.52.78.78,0,0,0-.25-.4C30.44,7,29.27,5.92,28.23,4.76c-.45-.5-1-1.08-1.32-1.1h-.17c-.33,0-.86.6-1.31,1.1-1,1.16-2.21,2.21-3.32,3.31a.78.78,0,0,0-.25.4.69.69,0,0,0,.26.52,49,49,0,0,0,4.27,4.09.76.76,0,0,0,.44.13Z" style="fill:#d6002b"/><path d="M14.1,35.92a.76.76,0,0,0,.44-.13,49,49,0,0,0,4.27-4.09.69.69,0,0,0,.26-.52.67.67,0,0,0-.25-.4c-1.11-1.1-2.28-2.15-3.32-3.31-.45-.51-1-1.08-1.31-1.1H14c-.34,0-.87.59-1.32,1.1-1,1.16-2.21,2.21-3.32,3.31a.78.78,0,0,0-.25.4.69.69,0,0,0,.26.52,49,49,0,0,0,4.27,4.09.76.76,0,0,0,.44.13Z" style="fill:#d6002b"/><path d="M26.83,35.92a.76.76,0,0,0,.44-.13,49,49,0,0,0,4.27-4.09.69.69,0,0,0,.26-.52.78.78,0,0,0-.25-.4c-1.11-1.1-2.28-2.15-3.32-3.31-.45-.51-1-1.08-1.32-1.1h-.17c-.33,0-.86.59-1.31,1.1-1,1.16-2.21,2.21-3.32,3.31a.78.78,0,0,0-.25.4.69.69,0,0,0,.26.52,49,49,0,0,0,4.27,4.09.76.76,0,0,0,.44.13Z" style="fill:#d6002b"/><path d="M27.45,49.08a.78.78,0,0,0-.44.13,49,49,0,0,0-4.27,4.09.69.69,0,0,0-.26.51.74.74,0,0,0,.25.4c1.11,1.11,2.28,2.15,3.32,3.32.45.5,1,1.08,1.32,1.1h.17c.33,0,.86-.6,1.31-1.1,1-1.17,2.22-2.21,3.32-3.32a.64.64,0,0,0,.25-.4.66.66,0,0,0-.26-.51,46.27,46.27,0,0,0-4.27-4.09.75.75,0,0,0-.43-.13Z" style="fill:#d6002b"/><path d="M14.72,49.08a.75.75,0,0,0-.43.13A47.72,47.72,0,0,0,10,53.3a.69.69,0,0,0-.26.51.7.7,0,0,0,.26.4c1.1,1.11,2.27,2.15,3.32,3.32.44.5,1,1.08,1.31,1.1h.17c.33,0,.87-.6,1.32-1.1,1-1.17,2.21-2.21,3.32-3.32a.74.74,0,0,0,.25-.4.69.69,0,0,0-.26-.51,49,49,0,0,0-4.27-4.09.78.78,0,0,0-.44-.13Z" style="fill:#d6002b"/><path d="M20.28,24.31a.76.76,0,0,0,.44-.13A46.22,46.22,0,0,0,25,20.09a.67.67,0,0,0,.26-.51.74.74,0,0,0-.25-.4c-1.11-1.11-2.28-2.15-3.32-3.32-.45-.5-1-1.07-1.32-1.1h-.17c-.33,0-.86.6-1.31,1.1-1,1.17-2.21,2.21-3.32,3.32a.64.64,0,0,0-.25.4.67.67,0,0,0,.26.51,46.22,46.22,0,0,0,4.27,4.09.76.76,0,0,0,.44.13Z" style="fill:#d6002b"/><path d="M14.1,13.21a.76.76,0,0,0,.44-.13A49,49,0,0,0,18.81,9a.69.69,0,0,0,.26-.52.67.67,0,0,0-.25-.4C17.71,7,16.54,5.92,15.5,4.76c-.45-.5-1-1.08-1.31-1.1H14c-.34,0-.87.6-1.32,1.1-1,1.16-2.21,2.21-3.32,3.31a.78.78,0,0,0-.25.4A.69.69,0,0,0,9.39,9a49,49,0,0,0,4.27,4.09.76.76,0,0,0,.44.13Z" style="fill:#d6002b"/><path d="M26.83,13.21a.76.76,0,0,0,.44-.13A49,49,0,0,0,31.54,9a.69.69,0,0,0,.26-.52.78.78,0,0,0-.25-.4C30.44,7,29.27,5.92,28.23,4.76c-.45-.5-1-1.08-1.32-1.1h-.17c-.33,0-.86.6-1.31,1.1-1,1.16-2.21,2.21-3.32,3.31a.78.78,0,0,0-.25.4.69.69,0,0,0,.26.52,49,49,0,0,0,4.27,4.09.76.76,0,0,0,.44.13Z" style="fill:#d6002b"/><path d="M14.1,35.92a.76.76,0,0,0,.44-.13,49,49,0,0,0,4.27-4.09.69.69,0,0,0,.26-.52.67.67,0,0,0-.25-.4c-1.11-1.1-2.28-2.15-3.32-3.31-.45-.51-1-1.08-1.31-1.1H14c-.34,0-.87.59-1.32,1.1-1,1.16-2.21,2.21-3.32,3.31a.78.78,0,0,0-.25.4.69.69,0,0,0,.26.52,49,49,0,0,0,4.27,4.09.76.76,0,0,0,.44.13Z" style="fill:#d6002b"/><path d="M26.83,35.92a.76.76,0,0,0,.44-.13,49,49,0,0,0,4.27-4.09.69.69,0,0,0,.26-.52.78.78,0,0,0-.25-.4c-1.11-1.1-2.28-2.15-3.32-3.31-.45-.51-1-1.08-1.32-1.1h-.17c-.33,0-.86.59-1.31,1.1-1,1.16-2.21,2.21-3.32,3.31a.78.78,0,0,0-.25.4.69.69,0,0,0,.26.52,49,49,0,0,0,4.27,4.09.76.76,0,0,0,.44.13Z" style="fill:#d6002b"/><path d="M27.45,49.08a.78.78,0,0,0-.44.13,49,49,0,0,0-4.27,4.09.69.69,0,0,0-.26.51.74.74,0,0,0,.25.4c1.11,1.11,2.28,2.15,3.32,3.32.45.5,1,1.08,1.32,1.1h.17c.33,0,.86-.6,1.31-1.1,1-1.17,2.22-2.21,3.32-3.32a.64.64,0,0,0,.25-.4.66.66,0,0,0-.26-.51,46.27,46.27,0,0,0-4.27-4.09.75.75,0,0,0-.43-.13Z" style="fill:#d6002b"/><path d="M14.72,49.08a.75.75,0,0,0-.43.13A47.72,47.72,0,0,0,10,53.3a.69.69,0,0,0-.26.51.7.7,0,0,0,.26.4c1.1,1.11,2.27,2.15,3.32,3.32.44.5,1,1.08,1.31,1.1h.17c.33,0,.87-.6,1.32-1.1,1-1.17,2.21-2.21,3.32-3.32a.74.74,0,0,0,.25-.4.69.69,0,0,0-.26-.51,49,49,0,0,0-4.27-4.09.78.78,0,0,0-.44-.13Z" style="fill:#d6002b"/><path d="M20.28,24.31a.76.76,0,0,0,.44-.13A46.22,46.22,0,0,0,25,20.09a.67.67,0,0,0,.26-.51.74.74,0,0,0-.25-.4c-1.11-1.11-2.28-2.15-3.32-3.32-.45-.5-1-1.07-1.32-1.1h-.17c-.33,0-.86.6-1.31,1.1-1,1.17-2.21,2.21-3.32,3.32a.64.64,0,0,0-.25.4.67.67,0,0,0,.26.51,46.22,46.22,0,0,0,4.27,4.09.76.76,0,0,0,.44.13Z" style="fill:#d6002b"/></g></g></g></svg>