<svg xmlns="http://www.w3.org/2000/svg" viewBox="0 0 40.93 62.29"><title>d8</title><g id="Layer_2" data-name="Layer 2"><g id="Layer_1-2" data-name="Layer 1"><g id="d8"><rect x="0.09" y="0.09" width="40.74" height="62.1" rx="3.45" style="fill:#fff"/><path d="M37.39,62.29H3.54A3.55,3.55,0,0,1,0,58.74V3.54A3.55,3.55,0,0,1,3.54,0H37.39a3.55,3.55,0,0,1,3.54,3.54v55.2A3.55,3.55,0,0,1,37.39,62.29ZM3.54.19A3.35,3.35,0,0,0,.19,3.54v55.2A3.36,3.36,0,0,0,3.54,62.1H37.39a3.37,3.37,0,0,0,3.36-3.36V3.54A3.36,3.36,0,0,0,37.39.19Z" style="fill:#2d2d2d"/><path d="M5.29,12.71a.2.2,0,0,0,.13,0,15.45,15.45,0,0,0,1.3-1.24s.09-.1.08-.16a.2.2,0,0,0-.08-.12c-.33-.34-.69-.65-1-1-.13-.15-.3-.33-.4-.33h0c-.1,0-.26.18-.4.33-.31.36-.67.67-1,1a.19.19,0,0,0-.07.12c0,.06,0,.11.08.16a15.29,15.29,0,0,0,1.29,1.24.23.23,0,0,0,.14,0Z" style="fill:#d6002b"/><path d="M35.66,52.24a.2.2,0,0,0,.13,0A14,14,0,0,0,37.09,51a.21.21,0,0,0,.08-.16s0-.08-.08-.12c-.33-.33-.69-.65-1-1-.14-.15-.3-.32-.4-.33h0c-.11,0-.27.18-.4.33-.32.36-.68.68-1,1a.23.23,0,0,0-.08.12.21.21,0,0,0,.08.16,14,14,0,0,0,1.3,1.24.2.2,0,0,0,.13,0Z" style="fill:#d6002b"/><path d="M4.28,5.76A1.52,1.52,0,0,1,3.19,4.38,1.29,1.29,0,0,1,3.74,3.3a2.28,2.28,0,0,1,1.44-.42,2.14,2.14,0,0,1,1.4.41,1.26,1.26,0,0,1,.53,1.06c0,.6-.38,1-1.12,1.3a2.56,2.56,0,0,1,1.13.81,1.56,1.56,0,0,1,.23.78,1.42,1.42,0,0,1-.59,1.15,2.43,2.43,0,0,1-1.59.47,2.6,2.6,0,0,1-1.66-.47,1.42,1.42,0,0,1-.6-1.13C2.91,6.61,3.37,6.11,4.28,5.76Zm.8.3c-1,.24-1.46.64-1.46,1.23A.87.87,0,0,0,4,8a2,2,0,0,0,1.17.29A1.87,1.87,0,0,0,6.25,8a.87.87,0,0,0,.4-.73C6.65,6.75,6.12,6.34,5.08,6.06Zm.08-.66a2.74,2.74,0,0,0,1-.44.8.8,0,0,0,.3-.63.76.76,0,0,0-.36-.68,1.73,1.73,0,0,0-.93-.22,1.56,1.56,0,0,0-.91.24.74.74,0,0,0-.36.65.85.85,0,0,0,.4.7A2.12,2.12,0,0,0,5.16,5.4Z" style="fill:#d6002b"/><path d="M36.48,56.53a1.49,1.49,0,0,1,1.09,1.38A1.29,1.29,0,0,1,37,59a2.61,2.61,0,0,1-2.84,0,1.27,1.27,0,0,1-.52-1.06c0-.61.37-1,1.11-1.31a2.56,2.56,0,0,1-1.13-.81,1.49,1.49,0,0,1-.23-.77A1.44,1.44,0,0,1,34,53.89a2.49,2.49,0,0,1,1.59-.47,2.59,2.59,0,0,1,1.67.48A1.41,1.41,0,0,1,37.85,55C37.85,55.68,37.39,56.18,36.48,56.53Zm-.79-.31c1-.23,1.45-.64,1.45-1.22a.88.88,0,0,0-.39-.74A2,2,0,0,0,35.57,54a1.74,1.74,0,0,0-1,.28.85.85,0,0,0-.4.72C34.12,55.53,34.64,56,35.69,56.22Zm-.08.66a2.71,2.71,0,0,0-1,.45.8.8,0,0,0-.3.63.75.75,0,0,0,.36.67,1.74,1.74,0,0,0,.94.23,1.6,1.6,0,0,0,.91-.24.76.76,0,0,0,.35-.65.85.85,0,0,0-.39-.7A2.13,2.13,0,0,0,35.61,56.88Z" style="fill:#d6002b"/><path d="M14.1,13.21a.76.76,0,0,0,.44-.13A49,49,0,0,0,18.81,9a.69.69,0,0,0,.26-.52.67.67,0,0,0-.25-.4C17.72,7,16.54,5.92,15.5,4.76c-.45-.5-1-1.08-1.31-1.1H14c-.34,0-.87.6-1.32,1.1-1,1.16-2.21,2.21-3.32,3.31a.78.78,0,0,0-.25.4A.69.69,0,0,0,9.39,9a49,49,0,0,0,4.27,4.09.78.78,0,0,0,.44.13Z" style="fill:#d6002b"/><path d="M26.83,13.21a.76.76,0,0,0,.44-.13A49,49,0,0,0,31.54,9a.69.69,0,0,0,.26-.52.78.78,0,0,0-.25-.4C30.44,7,29.27,5.92,28.23,4.76c-.45-.5-1-1.08-1.32-1.1h-.16c-.34,0-.87.6-1.32,1.1-1,1.16-2.21,2.21-3.32,3.31a.78.78,0,0,0-.25.4.69.69,0,0,0,.26.52,49,49,0,0,0,4.27,4.09.76.76,0,0,0,.44.13Z" style="fill:#d6002b"/><path d="M14.1,35.92a.76.76,0,0,0,.44-.13,49,49,0,0,0,4.27-4.09.69.69,0,0,0,.26-.52.67.67,0,0,0-.25-.4c-1.1-1.1-2.28-2.15-3.32-3.31-.45-.51-1-1.08-1.31-1.1H14c-.34,0-.87.59-1.32,1.1-1,1.16-2.21,2.21-3.32,3.31a.78.78,0,0,0-.25.4.69.69,0,0,0,.26.52,49,49,0,0,0,4.27,4.09.78.78,0,0,0,.44.13Z" style="fill:#d6002b"/><path d="M26.83,35.92a.76.76,0,0,0,.44-.13,49,49,0,0,0,4.27-4.09.69.69,0,0,0,.26-.52.78.78,0,0,0-.25-.4c-1.11-1.1-2.28-2.15-3.32-3.31-.45-.51-1-1.08-1.32-1.1h-.16c-.34,0-.87.59-1.32,1.1-1,1.16-2.21,2.21-3.32,3.31a.78.78,0,0,0-.25.4.69.69,0,0,0,.26.52,49,49,0,0,0,4.27,4.09.76.76,0,0,0,.44.13Z" style="fill:#d6002b"/><path d="M26.83,49.08a.76.76,0,0,0-.44.13,47.57,47.57,0,0,0-4.27,4.09.69.69,0,0,0-.26.51.74.74,0,0,0,.25.4c1.11,1.11,2.28,2.15,3.32,3.32.45.5,1,1.08,1.32,1.1h.16c.34,0,.87-.6,1.32-1.1,1-1.17,2.21-2.21,3.32-3.32a.74.74,0,0,0,.25-.4.69.69,0,0,0-.26-.51,47.57,47.57,0,0,0-4.27-4.09.76.76,0,0,0-.44-.13Z" style="fill:#d6002b"/><path d="M14.1,49.08a.78.78,0,0,0-.44.13A47.57,47.57,0,0,0,9.39,53.3a.69.69,0,0,0-.26.51.74.74,0,0,0,.25.4c1.11,1.11,2.28,2.15,3.32,3.32.45.5,1,1.08,1.32,1.1h.17c.33,0,.86-.6,1.31-1.1,1-1.17,2.22-2.21,3.32-3.32a.64.64,0,0,0,.25-.4.69.69,0,0,0-.26-.51,47.57,47.57,0,0,0-4.27-4.09.76.76,0,0,0-.44-.13Z" style="fill:#d6002b"/><path d="M20.47,24.31a.78.78,0,0,0,.44-.13,47.52,47.52,0,0,0,4.27-4.09.67.67,0,0,0,.26-.51.74.74,0,0,0-.25-.4c-1.11-1.11-2.28-2.15-3.32-3.32-.45-.5-1-1.07-1.32-1.1h-.17c-.33,0-.86.6-1.31,1.1C18,17,16.85,18.07,15.75,19.18a.64.64,0,0,0-.25.4.66.66,0,0,0,.25.51A46.35,46.35,0,0,0,20,24.18a.75.75,0,0,0,.43.13Z" style="fill:#d6002b"/><path d="M20.47,47.15a.78.78,0,0,0,.44-.13,50.48,50.48,0,0,0,4.27-4.09.69.69,0,0,0,.26-.52.78.78,0,0,0-.25-.4c-1.11-1.1-2.28-2.15-3.32-3.31-.45-.5-1-1.08-1.32-1.1h-.17c-.33,0-.86.6-1.31,1.1C18,39.86,16.85,40.91,15.75,42a.67.67,0,0,0-.25.4.68.68,0,0,0,.25.52A49.16,49.16,0,0,0,20,47a.75.75,0,0,0,.43.13Z" style="fill:#d6002b"/></g></g></g></svg>