<svg xmlns="http://www.w3.org/2000/svg" viewBox="0 0 40.93 62.29"><title>d9</title><g id="Layer_2" data-name="Layer 2"><g id="Layer_1-2" data-name="Layer 1"><g id="d9"><rect x="0.09" y="0.09" width="40.74" height="62.1" rx="3.45" style="fill:#fff"/><path d="M37.39,62.29H3.54A3.55,3.55,0,0,1,0,58.74V3.54A3.55,3.55,0,0,1,3.54,0H37.39a3.55,3.55,0,0,1,3.54,3.54v55.2A3.55,3.55,0,0,1,37.39,62.29ZM3.54.19A3.35,3.35,0,0,0,.19,3.54v55.2A3.36,3.36,0,0,0,3.54,62.1H37.39a3.36,3.36,0,0,0,3.35-3.36V3.54A3.35,3.35,0,0,0,37.39.19Z" style="fill:#2d2d2d"/><path d="M5.29,12.71a.2.2,0,0,0,.13,0,15.45,15.45,0,0,0,1.3-1.24.27.27,0,0,0,.08-.16.2.2,0,0,0-.08-.12c-.33-.34-.69-.65-1-1-.13-.15-.29-.33-.4-.33h0c-.1,0-.26.18-.4.33-.31.36-.67.67-1,1a.19.19,0,0,0-.07.12c0,.06,0,.11.08.16a15.29,15.29,0,0,0,1.29,1.24.23.23,0,0,0,.14,0Z" style="fill:#d6002b"/><path d="M35.66,52.24a.2.2,0,0,0,.13,0A14,14,0,0,0,37.09,51a.21.21,0,0,0,.08-.16s0-.08-.08-.12c-.33-.33-.69-.65-1-1-.14-.15-.3-.32-.4-.33h-.06c-.1,0-.26.18-.39.33-.32.36-.68.68-1,1a.23.23,0,0,0-.08.12.21.21,0,0,0,.08.16,14,14,0,0,0,1.3,1.24.2.2,0,0,0,.13,0Z" style="fill:#d6002b"/><path d="M3.28,7.7l.58-.21a1.24,1.24,0,0,0,1.2.8,1.37,1.37,0,0,0,1.24-.7,3.67,3.67,0,0,0,.43-1.87,1.83,1.83,0,0,1-1.7,1,1.88,1.88,0,0,1-1.89-1.9,1.92,1.92,0,0,1,.57-1.4,2,2,0,0,1,1.46-.58,2,2,0,0,1,1.66.76,3.39,3.39,0,0,1,.58,2.09A3.93,3.93,0,0,1,6.8,8a2,2,0,0,1-1.74.86A1.75,1.75,0,0,1,3.28,7.7ZM5.19,6.18a1.4,1.4,0,0,0,1.4-1.39,1.26,1.26,0,0,0-.38-.92,1.36,1.36,0,0,0-1-.4,1.26,1.26,0,0,0-1,.41,1.34,1.34,0,0,0-.37,1,1.2,1.2,0,0,0,.41,1A1.37,1.37,0,0,0,5.19,6.18Z" style="fill:#d6002b"/><path d="M37.48,54.59l-.58.21a1.24,1.24,0,0,0-1.2-.8,1.36,1.36,0,0,0-1.24.69A3.71,3.71,0,0,0,34,56.57a1.83,1.83,0,0,1,1.7-1,1.88,1.88,0,0,1,1.89,1.9,1.94,1.94,0,0,1-.57,1.4,2.16,2.16,0,0,1-3.12-.18,3.45,3.45,0,0,1-.57-2.1A3.82,3.82,0,0,1,34,54.29a2,2,0,0,1,1.74-.87A1.74,1.74,0,0,1,37.48,54.59Zm-1.91,1.52a1.32,1.32,0,0,0-1,.41,1.39,1.39,0,0,0-.4,1,1.3,1.3,0,0,0,.38.93,1.36,1.36,0,0,0,1,.39,1.29,1.29,0,0,0,1-.4,1.4,1.4,0,0,0,.36-1,1.22,1.22,0,0,0-.41-1A1.4,1.4,0,0,0,35.57,56.11Z" style="fill:#d6002b"/><path d="M14.1,13.21a.76.76,0,0,0,.44-.13A49,49,0,0,0,18.81,9a.66.66,0,0,0,.26-.52.67.67,0,0,0-.25-.4C17.71,7,16.54,5.92,15.5,4.76c-.45-.5-1-1.08-1.31-1.1H14c-.34,0-.87.6-1.32,1.1-1,1.16-2.21,2.21-3.32,3.31a.78.78,0,0,0-.25.4A.69.69,0,0,0,9.39,9a49,49,0,0,0,4.27,4.09.76.76,0,0,0,.44.13Z" style="fill:#d6002b"/><path d="M26.83,13.21a.76.76,0,0,0,.44-.13A49,49,0,0,0,31.54,9a.69.69,0,0,0,.26-.52.78.78,0,0,0-.25-.4C30.44,7,29.27,5.92,28.23,4.76c-.45-.5-1-1.08-1.31-1.1h-.17c-.34,0-.87.6-1.32,1.1-1,1.16-2.21,2.21-3.32,3.31a.78.78,0,0,0-.25.4.69.69,0,0,0,.26.52,49,49,0,0,0,4.27,4.09.76.76,0,0,0,.44.13Z" style="fill:#d6002b"/><path d="M14.1,25.62a.76.76,0,0,0,.44-.13,47.57,47.57,0,0,0,4.27-4.09.53.53,0,0,0,0-.91c-1.11-1.11-2.28-2.15-3.32-3.32-.45-.5-1-1.08-1.31-1.1H14c-.34,0-.87.6-1.32,1.1-1,1.17-2.21,2.21-3.32,3.32a.74.74,0,0,0-.25.4.67.67,0,0,0,.26.51,47.57,47.57,0,0,0,4.27,4.09.76.76,0,0,0,.44.13Z" style="fill:#d6002b"/><path d="M26.83,25.62a.76.76,0,0,0,.44-.13,47.57,47.57,0,0,0,4.27-4.09.67.67,0,0,0,.26-.51.74.74,0,0,0-.25-.4c-1.11-1.11-2.28-2.15-3.32-3.32-.45-.5-1-1.08-1.31-1.1h-.17c-.34,0-.87.6-1.32,1.1-1,1.17-2.21,2.21-3.32,3.32a.74.74,0,0,0-.25.4.67.67,0,0,0,.26.51,47.57,47.57,0,0,0,4.27,4.09.76.76,0,0,0,.44.13Z" style="fill:#d6002b"/><path d="M20.47,35.92a.78.78,0,0,0,.44-.13,50.48,50.48,0,0,0,4.27-4.09.69.69,0,0,0,.26-.52.78.78,0,0,0-.25-.4c-1.11-1.1-2.28-2.15-3.32-3.31-.45-.51-1-1.08-1.32-1.1h-.17c-.33,0-.86.59-1.31,1.1-1.05,1.16-2.22,2.21-3.32,3.31a.67.67,0,0,0-.25.4.68.68,0,0,0,.25.52A49.16,49.16,0,0,0,20,35.79a.75.75,0,0,0,.43.13Z" style="fill:#d6002b"/><path d="M26.83,49.08a.76.76,0,0,0-.44.13,47.57,47.57,0,0,0-4.27,4.09.69.69,0,0,0-.26.51.74.74,0,0,0,.25.4c1.11,1.11,2.28,2.15,3.32,3.32.45.5,1,1.08,1.32,1.1h.17c.33,0,.86-.6,1.31-1.1,1-1.17,2.21-2.21,3.32-3.32a.74.74,0,0,0,.25-.4.69.69,0,0,0-.26-.51,47.57,47.57,0,0,0-4.27-4.09.76.76,0,0,0-.44-.13Z" style="fill:#d6002b"/><path d="M14.1,49.08a.76.76,0,0,0-.44.13A47.57,47.57,0,0,0,9.39,53.3a.69.69,0,0,0-.26.51.74.74,0,0,0,.25.4c1.11,1.11,2.28,2.15,3.32,3.32.45.5,1,1.08,1.32,1.1h.17c.33,0,.86-.6,1.31-1.1,1-1.17,2.21-2.21,3.32-3.32a.64.64,0,0,0,.25-.4.66.66,0,0,0-.26-.51,47.57,47.57,0,0,0-4.27-4.09.76.76,0,0,0-.44-.13Z" style="fill:#d6002b"/><path d="M26.83,36.66a.76.76,0,0,0-.44.13,49,49,0,0,0-4.27,4.09.71.71,0,0,0-.26.52.74.74,0,0,0,.25.4c1.11,1.1,2.28,2.15,3.32,3.31.45.51,1,1.08,1.32,1.1h.17c.33,0,.86-.59,1.31-1.1,1-1.16,2.21-2.21,3.32-3.31a.74.74,0,0,0,.25-.4.71.71,0,0,0-.26-.52,49,49,0,0,0-4.27-4.09.76.76,0,0,0-.44-.13Z" style="fill:#d6002b"/><path d="M14.1,36.66a.76.76,0,0,0-.44.13,49,49,0,0,0-4.27,4.09.71.71,0,0,0-.26.52.74.74,0,0,0,.25.4c1.11,1.1,2.28,2.15,3.32,3.31.45.51,1,1.08,1.32,1.1h.17c.33,0,.86-.59,1.31-1.1,1-1.16,2.21-2.21,3.32-3.31a.64.64,0,0,0,.25-.4.68.68,0,0,0-.26-.52,49,49,0,0,0-4.27-4.09.76.76,0,0,0-.44-.13Z" style="fill:#d6002b"/></g></g></g></svg>