<svg xmlns="http://www.w3.org/2000/svg" viewBox="0 0 40.93 62.29"><title>da</title><g id="Layer_2" data-name="Layer 2"><g id="Layer_1-2" data-name="Layer 1"><g id="da"><rect x="0.09" y="0.09" width="40.74" height="62.1" rx="3.45" style="fill:#fff"/><path d="M37.39,62.29H3.54A3.55,3.55,0,0,1,0,58.74V3.54A3.55,3.55,0,0,1,3.54,0H37.39a3.55,3.55,0,0,1,3.54,3.54v55.2A3.55,3.55,0,0,1,37.39,62.29ZM3.54.19A3.35,3.35,0,0,0,.19,3.54v55.2A3.36,3.36,0,0,0,3.54,62.1H37.39a3.36,3.36,0,0,0,3.35-3.36V3.54A3.35,3.35,0,0,0,37.39.19Z" style="fill:#2d2d2d"/><path d="M20.28,35.92a.76.76,0,0,0,.44-.13A49,49,0,0,0,25,31.7a.69.69,0,0,0,.26-.52.78.78,0,0,0-.25-.4c-1.11-1.1-2.28-2.15-3.32-3.31-.45-.51-1-1.08-1.32-1.1h-.17c-.33,0-.86.59-1.31,1.1-1,1.16-2.21,2.21-3.32,3.31a.67.67,0,0,0-.25.4.69.69,0,0,0,.26.52,49,49,0,0,0,4.27,4.09.76.76,0,0,0,.44.13Z" style="fill:#d6002b"/><path d="M5.29,12.71a.2.2,0,0,0,.13,0,17.14,17.14,0,0,0,1.3-1.24.27.27,0,0,0,.08-.16.2.2,0,0,0-.08-.12c-.33-.34-.69-.65-1-1-.13-.15-.3-.33-.4-.33h0c-.1,0-.26.18-.4.33-.31.36-.67.67-1,1a.19.19,0,0,0-.07.12c0,.06,0,.11.08.16a15.29,15.29,0,0,0,1.29,1.24.23.23,0,0,0,.14,0Z" style="fill:#d6002b"/><path d="M35.66,52.24a.2.2,0,0,0,.13,0A14,14,0,0,0,37.09,51a.21.21,0,0,0,.08-.16s0-.08-.08-.12c-.33-.33-.69-.65-1-1-.14-.15-.3-.32-.4-.33h-.06c-.1,0-.26.18-.4.33-.31.36-.67.68-1,1a.23.23,0,0,0-.08.12.21.21,0,0,0,.08.16,14,14,0,0,0,1.3,1.24.2.2,0,0,0,.13,0Z" style="fill:#d6002b"/><path d="M7.57,8.74H6.83L6.26,7.06H4.12L3.61,8.74H3L4.87,3h.82ZM6.1,6.53,5.21,3.76,4.32,6.53Z" style="fill:#d6002b"/><path d="M33.38,53.54h.73l.58,1.68h2.14l.51-1.68h.6l-1.87,5.75h-.81Zm1.47,2.22.89,2.76.89-2.76Z" style="fill:#d6002b"/></g></g></g></svg>