<svg xmlns="http://www.w3.org/2000/svg" xmlns:xlink="http://www.w3.org/1999/xlink" viewBox="0 0 40.93 62.29"><defs><clipPath id="clip-path"><path d="M19.57,16.44a.12.12,0,0,0,.13-.12,1,1,0,0,0-.19-.47l-.75-1.17a.87.87,0,0,0-.2-.23,1,1,0,0,0-.48-.15c-.62,0-1,0-1.66,0a.81.81,0,0,0-.38.07.69.69,0,0,0-.22.23,15,15,0,0,0-1.36,1.64C14.42,16.47,18,16.42,19.57,16.44Z" style="fill:none"/></clipPath><clipPath id="clip-path-2"><path d="M21.46,16.65a6.41,6.41,0,0,0,.21-.89c.08-.27.35-.54.62-.48a.08.08,0,0,1,.05.07,14.55,14.55,0,0,1,.06,1.87,1.83,1.83,0,0,1-.11.66,8,8,0,0,1-.9,1,17,17,0,0,1-1.95,1.63l-1.55,1.33a1.89,1.89,0,0,1-.5.33.58.58,0,0,1-.57-.07.87.87,0,0,1-.21-.53c-.12-1-.33-2.71-.44-3.64,0-.21.08,0,.58,0a11.6,11.6,0,0,0,3.39-.54A1.86,1.86,0,0,0,21.46,16.65Z" style="fill:none"/></clipPath><clipPath id="clip-path-3"><path d="M23.6,12.53c0,.51.11,1,.16,1.55.21,2,.41,4,.67,5.92,0,.09,0,.2.13.22a.25.25,0,0,0,.17,0c1.48-.78,3-1.56,4.35-2.48a1.44,1.44,0,0,0,.7-.78,1.41,1.41,0,0,0-.21-1,49,49,0,0,1-2.37-5.23,8.08,8.08,0,0,0-.58-1.46,1,1,0,0,0-.29-.36,1.21,1.21,0,0,0-.44-.18A13.5,13.5,0,0,0,23,8.33a2.91,2.91,0,0,0,.12,1A26.75,26.75,0,0,1,23.6,12.53Z" style="fill:none"/></clipPath><clipPath id="clip-path-4"><path d="M21.81,45.84a.12.12,0,0,0-.13.12.87.87,0,0,0,.19.47l.75,1.17a.63.63,0,0,0,.2.23,1,1,0,0,0,.47.15c.63,0,1.05,0,1.67,0a.77.77,0,0,0,.37-.07.69.69,0,0,0,.23-.22A13.72,13.72,0,0,0,26.91,46C27,45.81,23.37,45.86,21.81,45.84Z" style="fill:none"/></clipPath><clipPath id="clip-path-5"><path d="M19.92,45.63a6.77,6.77,0,0,0-.21.89c-.09.27-.35.54-.62.48a.07.07,0,0,1-.05-.06A14.76,14.76,0,0,1,19,45.06a1.67,1.67,0,0,1,.11-.66,8,8,0,0,1,.9-1,17,17,0,0,1,2-1.63l1.55-1.32a1.5,1.5,0,0,1,.5-.33.58.58,0,0,1,.57.06.89.89,0,0,1,.21.53c.12,1,.33,2.71.44,3.64,0,.21-.09,0-.58,0a11.6,11.6,0,0,0-3.39.54A1.84,1.84,0,0,0,19.92,45.63Z" style="fill:none"/></clipPath><clipPath id="clip-path-6"><path d="M17.78,49.76c-.05-.52-.11-1-.16-1.56-.21-2-.42-4-.68-5.92,0-.09,0-.2-.12-.22a.24.24,0,0,0-.18,0c-1.47.77-3,1.55-4.35,2.47a1.12,1.12,0,0,0-.48,1.76,48,48,0,0,1,2.37,5.22A8.08,8.08,0,0,0,14.76,53a1,1,0,0,0,.29.37,1.19,1.19,0,0,0,.44.17,13.42,13.42,0,0,0,2.89.4,2.91,2.91,0,0,0-.12-1A25,25,0,0,1,17.78,49.76Z" style="fill:none"/></clipPath></defs><title>dj</title><g id="Layer_2" data-name="Layer 2"><g id="Layer_1-2" data-name="Layer 1"><g id="dj"><rect x="0.09" y="0.09" width="40.74" height="62.1" rx="3.45" style="fill:#fff"/><path d="M37.39,62.29H3.54A3.55,3.55,0,0,1,0,58.74V3.54A3.55,3.55,0,0,1,3.54,0H37.39a3.55,3.55,0,0,1,3.54,3.54v55.2A3.55,3.55,0,0,1,37.39,62.29ZM3.54.19A3.35,3.35,0,0,0,.19,3.54v55.2A3.36,3.36,0,0,0,3.54,62.1H37.39a3.36,3.36,0,0,0,3.35-3.36V3.54A3.35,3.35,0,0,0,37.39.19Z" style="fill:#2d2d2d"/><path d="M21.64,20.19a7.94,7.94,0,0,1,2.31.49c1.79.57,3.22.72,4.93,1.38C32.61,23.49,37,24.14,36.51,32c-.21,3.26-1.47,3.45-4,6.7-.55.71-3.81-1.2-4.87-1.18-6.09.13-10.63.31-16.72.43-.17,0-.56.15-.66,0-.4-.47-3.92-5.7-4.25-8.58a5.49,5.49,0,0,1,.79-3.76,11.19,11.19,0,0,1,2.57-2.18,14.53,14.53,0,0,1,3.73-1.55c2-.59,4.46-.94,6.51-1.42A7.79,7.79,0,0,1,21.64,20.19Z" style="fill:#990028"/><path d="M19.74,42.1a8.3,8.3,0,0,1-2.31-.5c-1.8-.57-3.28-.06-5-.66-4.83-1.68-7.85-5-6.45-13.1.56-3.22,2.08.39,4.61-2.86.55-.71,2.11-.19,3.17-.21,6.09-.12,10.62-.31,16.72-.43.17,0,.56-.15.66,0,.4.47,3.92,5.71,4.25,8.58a5.49,5.49,0,0,1-.79,3.76A11.25,11.25,0,0,1,32,38.82a14.31,14.31,0,0,1-3.72,1.55c-2,.59-4.46.94-6.52,1.42A8.1,8.1,0,0,1,19.74,42.1Z" style="fill:#990028"/><path d="M19.83,20.62a4.91,4.91,0,0,0-4.29.25,2.06,2.06,0,0,0-.74,2.8,2.09,2.09,0,0,0,2.81.74,16.21,16.21,0,0,0,2.5-1.58,1.41,1.41,0,0,0-.28-2.21Z" style="fill:#0c0a35"/><path d="M21.06,19.77a4.38,4.38,0,0,0-1.65,2,4.27,4.27,0,0,0,.06,3.31,2.51,2.51,0,0,0,3.36,1.13A2.55,2.55,0,0,0,24,22.87c.29.67.06.13,0-.12a5.13,5.13,0,0,0-.36-1.23,3.91,3.91,0,0,0-.73-1.4,1.54,1.54,0,0,0-1.83-.35Z" style="fill:#0c0a35"/><path d="M21.86,22.09a4.24,4.24,0,0,0,1.61,1.19,5.46,5.46,0,0,0,2.7.9,2,2,0,0,0,1-3.72c-1.16-.89-4.12-.91-5.14.24a1.14,1.14,0,0,0-.18,1.39Z" style="fill:#0c0a35"/><path d="M22.87,1.55c-.27.37-.53.74-.77,1.11a.22.22,0,0,1-.19-.1,4.12,4.12,0,0,1-.76-1,.31.31,0,0,1,0-.26A5.25,5.25,0,0,1,21.81.6.4.4,0,0,1,22,.5a.43.43,0,0,1,.27.15l.34.37C22.77,1.16,23,1.4,22.87,1.55Z" style="fill:#b70027"/><path d="M24.74,18.22a11.9,11.9,0,0,0,0,1.58c.07.78,0,1.12,0,1.81a1.84,1.84,0,0,1-1.34,1.44,4.31,4.31,0,0,1-3.53-.12,1.7,1.7,0,0,1-.65-.52,2.5,2.5,0,0,1-.09-.91A7,7,0,0,0,18.85,19a.5.5,0,0,0-.17-.3.59.59,0,0,0-.37-.05,4.21,4.21,0,0,1-1.54-.14.88.88,0,0,1-.44-.22,1,1,0,0,1-.16-.71,10.34,10.34,0,0,1,.25-3.22,1.34,1.34,0,0,1-.63,0,.45.45,0,0,1-.33-.46.62.62,0,0,1,.21-.32,7.48,7.48,0,0,0,.83-1,1.51,1.51,0,0,0,.29-.58,2,2,0,0,0,0-.55c-.07-.56-.13-1.12-.2-1.69,0-.25.15-.35.39-.42a15.28,15.28,0,0,1,4.94-.63,2.38,2.38,0,0,1,.65.1A2,2,0,0,1,23.63,10,10.59,10.59,0,0,1,24,11.28c.16.78.33,1.56.5,2.34a13.82,13.82,0,0,1,.41,3.06C24.86,17.2,24.76,17.71,24.74,18.22Z" style="fill:#ffd6a1"/><path d="M19.57,16.44a.12.12,0,0,0,.13-.12,1,1,0,0,0-.19-.47l-.75-1.17a.87.87,0,0,0-.2-.23,1,1,0,0,0-.48-.15c-.62,0-1,0-1.66,0a.81.81,0,0,0-.38.07.69.69,0,0,0-.22.23,15,15,0,0,0-1.36,1.64C14.42,16.47,18,16.42,19.57,16.44Z" style="fill:#b70027"/><path d="M21.46,16.65a6.41,6.41,0,0,0,.21-.89c.08-.27.35-.54.62-.48a.08.08,0,0,1,.05.07,14.55,14.55,0,0,1,.06,1.87,1.83,1.83,0,0,1-.11.66,8,8,0,0,1-.9,1,17,17,0,0,1-1.95,1.63l-1.55,1.33a1.89,1.89,0,0,1-.5.33.58.58,0,0,1-.57-.07.87.87,0,0,1-.21-.53c-.12-1-.33-2.71-.44-3.64,0-.21.08,0,.58,0a11.6,11.6,0,0,0,3.39-.54A1.86,1.86,0,0,0,21.46,16.65Z" style="fill:#b70027"/><path d="M23.09,12a3.87,3.87,0,0,1-1.9.68,3.51,3.51,0,0,1-1.88-.47.2.2,0,0,1,.06-.16,1.24,1.24,0,0,1,.47-.34,3.39,3.39,0,0,1,3,.06A.61.61,0,0,1,23.09,12Z" style="fill:#fff"/><path d="M23.07,10.62a4.35,4.35,0,0,0-3.36-.08,2.1,2.1,0,0,0-.76.52.56.56,0,0,0-.14.29.22.22,0,0,0,.19.24.36.36,0,0,0,.19-.08,3.9,3.9,0,0,1,3.58-.42A.22.22,0,0,0,23,11l.09-.18A.15.15,0,0,0,23.07,10.62Z" style="fill:#0c0a35"/><path d="M20.71,11.84a.41.41,0,0,0,0,.44.44.44,0,0,0,.27.17.7.7,0,0,0,.53-.08.4.4,0,0,0,.14-.44c0-.12-.1-.33-.52-.32A.53.53,0,0,0,20.71,11.84Z" style="fill:#0c0a35"/><path d="M23.6,12.53c0,.51.11,1,.16,1.55.21,2,.41,4,.67,5.92,0,.09,0,.2.13.22a.25.25,0,0,0,.17,0c1.48-.78,3-1.56,4.35-2.48a1.44,1.44,0,0,0,.7-.78,1.41,1.41,0,0,0-.21-1,49,49,0,0,1-2.37-5.23,8.08,8.08,0,0,0-.58-1.46,1,1,0,0,0-.29-.36,1.21,1.21,0,0,0-.44-.18A13.5,13.5,0,0,0,23,8.33a2.91,2.91,0,0,0,.12,1A26.75,26.75,0,0,1,23.6,12.53Z" style="fill:#990028"/><path d="M25.23,6c.19.3.2.69.39,1s.41.51.42.82a1.12,1.12,0,0,1-.68.14h-8c-.14-.06-.1-.27,0-.41a30.39,30.39,0,0,1,2.88-3.93l.91-.9c.29-.28.65-.58,1-.47C22.31,2.29,23.11,2.76,25.23,6Z" style="fill:#990028"/><g style="clip-path:url(#clip-path)"><path d="M15.35,14.37a4.41,4.41,0,0,0-.4,1.14,16.33,16.33,0,0,0-.6,2c0,.07.08.15.13.08.69-.88.56-2.19,1-3.18,0-.06-.07-.09-.1,0Z" style="fill:#0c0a35"/><path d="M16,13.44a4.64,4.64,0,0,0-.53,1.8c-.15.83-.44,1.62-.61,2.45a.08.08,0,0,0,.14.06c.83-1.15.73-2.95,1-4.29a0,0,0,0,0,0,0Z" style="fill:#0c0a35"/><path d="M16.34,13.5c-.15,1.19-.38,2.36-.44,3.56a0,0,0,0,0,.08,0,2.53,2.53,0,0,0,.35-1.41,11.34,11.34,0,0,0,.11-2.18c0-.06-.09-.06-.1,0Z" style="fill:#0c0a35"/><path d="M16.88,13.56a6.52,6.52,0,0,0-.18,1.92c0,.63-.14,1.25-.16,1.88a.08.08,0,0,0,.14,0c.63-1.13.16-2.6.32-3.8,0-.08-.1-.12-.12,0Z" style="fill:#0c0a35"/><path d="M17.51,13.21a8.88,8.88,0,0,0-.12,2,8.35,8.35,0,0,0,.15,2.4.07.07,0,0,0,.14,0c.44-1.4-.22-2.94-.06-4.37,0-.06-.1-.08-.11,0Z" style="fill:#0c0a35"/><path d="M18.23,13.6A9.44,9.44,0,0,0,18.44,17c0,.06.12.06.13,0,.24-1.1-.19-2.32-.23-3.43a.06.06,0,0,0-.11,0Z" style="fill:#0c0a35"/><path d="M19,14.22A6.51,6.51,0,0,0,19.09,17a.07.07,0,0,0,.12,0,2.36,2.36,0,0,0,.06-1.18c-.06-.54-.06-1.08-.13-1.62a.06.06,0,1,0-.12,0Z" style="fill:#0c0a35"/></g><g style="clip-path:url(#clip-path-2)"><path d="M16.6,17.28a20.69,20.69,0,0,0,.22,3.51A5.69,5.69,0,0,0,17.18,23c0,.07.13,0,.12-.05-.38-1.84-.38-3.81-.61-5.68,0-.05-.09-.06-.09,0Z" style="fill:#0c0a35"/><path d="M17.28,17.56a13.17,13.17,0,0,0,.5,5.11.06.06,0,0,0,.11,0,6.23,6.23,0,0,0-.07-2c-.15-1-.28-2.07-.43-3.11,0-.07-.1,0-.11,0Z" style="fill:#0c0a35"/><path d="M18.13,17.48a24.16,24.16,0,0,0,.52,4.8.08.08,0,0,0,.16,0A7.23,7.23,0,0,0,18.62,20c-.11-.82-.32-1.66-.39-2.49a.05.05,0,0,0-.1,0Z" style="fill:#0c0a35"/><path d="M18.81,17.21a14.61,14.61,0,0,0,.55,4.61c.05.15.3.13.28,0-.15-1.54-.55-3.05-.69-4.58a.07.07,0,0,0-.14,0Z" style="fill:#0c0a35"/><path d="M19.54,17.08a9.13,9.13,0,0,0,.6,3.62s.07,0,.06,0c0-1.21-.43-2.39-.54-3.61a.06.06,0,0,0-.12,0Z" style="fill:#0c0a35"/><path d="M20.27,16.86A15.41,15.41,0,0,0,20.84,21c0,.16.26.11.26,0,0-1.4-.71-2.68-.77-4.06a0,0,0,0,0-.06,0Z" style="fill:#0c0a35"/><path d="M20.79,16.21a13,13,0,0,0,.59,4.15.07.07,0,0,0,.13,0,3.7,3.7,0,0,0-.08-1.65c-.17-.84-.38-1.67-.58-2.51a0,0,0,0,0-.06,0Z" style="fill:#0c0a35"/><path d="M21.27,15.83c.16.56.15,1.21.27,1.79a7.76,7.76,0,0,0,.55,1.95c0,.08.16,0,.16-.05a7.78,7.78,0,0,0-.42-2.28,3.41,3.41,0,0,0-.48-1.45s-.09,0-.08,0Z" style="fill:#0c0a35"/><path d="M21.91,14.85c-.13,1.55.4,3,.56,4.5,0,0,.07,0,.08,0,.25-1.48-.33-3.06-.53-4.51,0-.08-.11-.08-.11,0Z" style="fill:#0c0a35"/></g><g style="clip-path:url(#clip-path-3)"><path d="M23.62,8.36a24.59,24.59,0,0,0,.58,6.39c.18,1.09.3,2.19.46,3.29a7.84,7.84,0,0,0,.58,2.67c.1.19.38.06.34-.14-.42-1.84-.6-3.7-.92-5.55-.21-1.23-.46-2.44-.61-3.67a15.15,15.15,0,0,0-.41-3s0,0,0,0Z" style="fill:#0c0a35"/><path d="M24.14,9c.32,1.84.45,3.7.79,5.53.17,1,.29,1.93.48,2.88A19.88,19.88,0,0,1,26,20.44l.37-.21-.07,0a.16.16,0,0,0-.21,0l0,.07c-.24.32.47.55.45.13A12.8,12.8,0,0,0,26,17.92c-.27-1.05-.4-2.13-.61-3.19s-.5-2.19-.69-3.29a9.63,9.63,0,0,0-.55-2.5,0,0,0,0,0,0,0Z" style="fill:#0c0a35"/><path d="M24.69,8.5a19.43,19.43,0,0,0,.42,2.4c.14,1,.31,1.93.5,2.88s.46,2,.7,2.93.3,2.06.63,3.05a.23.23,0,0,0,.44-.12c-.4-1.89-.83-3.74-1.31-5.61A41.71,41.71,0,0,0,24.71,8.5Z" style="fill:#0c0a35"/><path d="M25.38,8.83a31.67,31.67,0,0,0,1.21,5.59c.28,1.1.65,2.17.94,3.27a5,5,0,0,0,.84,2.39c.12.14.4,0,.33-.19C28,18.11,27.59,16.14,27,14.3c-.31-1-.57-2-.87-3.05a11.08,11.08,0,0,0-.76-2.43s0,0,0,0Z" style="fill:#0c0a35"/><path d="M26.07,9.18a5.49,5.49,0,0,0,.36,2c.35,1.06.68,2.13,1.11,3.16.35.85.76,1.68,1.13,2.52a9.89,9.89,0,0,0,1.23,2.63c.07.09.19,0,.18-.1a20.26,20.26,0,0,0-2-4.86A26.59,26.59,0,0,1,27,11.77a10.49,10.49,0,0,1-.8-2.59c0-.06-.08-.06-.09,0Z" style="fill:#0c0a35"/><path d="M26.75,9.17c-.74.54.77,3.2,1,3.75.58,1.19,1.15,2.38,1.71,3.59a5.52,5.52,0,0,0,1.34,2.14.2.2,0,0,0,.28-.27A44.27,44.27,0,0,1,28.82,14c-.49-.92-1-1.83-1.41-2.8-.22-.53-.75-1.36-.61-1.94,0,0,0-.06-.05,0Z" style="fill:#0c0a35"/></g><path d="M29.14,7.27a22.71,22.71,0,0,1-1.87,3,.63.63,0,0,1-.24.22.64.64,0,0,1-.31,0c-3.39-.3-6.85-.85-10.18-.1A18.12,18.12,0,0,0,14.59,7.5a.59.59,0,0,1-.18-.36c0-.27.33-.39.59-.44a50.44,50.44,0,0,1,10.78-.21,20.21,20.21,0,0,1,3.38.37C29.27,7,29.21,7.14,29.14,7.27Z" style="fill:#b70027"/><path d="M14.43,7.24A12.58,12.58,0,0,0,16.57,8.5c.39.15.44-.23.54-.39a8.9,8.9,0,0,1,1.06-1.39.1.1,0,0,1,.09,0,3.66,3.66,0,0,1,.85.72,5.8,5.8,0,0,0,.59.63.31.31,0,0,0,.23.12c.09,0,.15-.07.21-.14.33-.4,1-1.43,1.38-1.4s.34.52,1,1.47c.13.18.24,0,.74-.4s.76-.63,1.26-1a.12.12,0,0,1,.13,0c.51.31.66,1,1,1.46a.36.36,0,0,0,.23.15.39.39,0,0,0,.29-.12l1.22-1a.09.09,0,0,1,.14,0c.3.59.6,1.68.68,1.56a11.16,11.16,0,0,0,1-1.56c.17-.37-.06-.55-.11-.56A77.16,77.16,0,0,0,19,5.87a16.2,16.2,0,0,0-4.66.68A.61.61,0,0,0,14.43,7.24Z" style="fill:#f70032"/><path d="M21.66,15.09a.91.91,0,1,0-.9-.91.91.91,0,0,0,.9.91Z" style="fill:#f70032"/><path d="M16.21,14.4a8.31,8.31,0,0,0,1.32,0,1,1,0,0,0,.78-.3.58.58,0,0,0,.07-.62c-.13-.21-.45-.34-.63-.14a.1.1,0,0,0,0,.15c.1.11.41.09.42.26s-.23.34-.42.37c-.51.1-1,.06-1.55.15a.06.06,0,0,0,0,.11Z" style="fill:#0c0a35"/><path d="M19.6,5.32a1.2,1.2,0,0,0,.38,0c.09,0,.3-.11.26-.24S20.06,5,20,5a2.87,2.87,0,0,1-.4.18c-.05,0-.05.1,0,.1Z" style="fill:#b70027"/><path d="M20.27,4.41a1.28,1.28,0,0,0,.14.21.26.26,0,0,0,.21.11s.06,0,.06-.07a.29.29,0,0,0-.13-.19,1.49,1.49,0,0,0-.2-.15c-.05,0-.11,0-.08.09Z" style="fill:#b70027"/><path d="M20.94,3.63a.62.62,0,0,0,.36.3.06.06,0,0,0,.07-.07A.53.53,0,0,0,21,3.54c-.05,0-.1,0-.07.09Z" style="fill:#b70027"/><path d="M21.57,4.65c.07,0,.14.08.22.07a.05.05,0,0,0,.05,0c0-.11-.14-.14-.23-.17a.08.08,0,1,0,0,.15Z" style="fill:#b70027"/><path d="M21,5.3a1.12,1.12,0,0,0,.21.17,1.16,1.16,0,0,0,.24.14c.11,0,.17-.08.13-.17s-.33-.19-.48-.26a.08.08,0,0,0-.1.12Z" style="fill:#b70027"/><path d="M21.89,3.53c.13-.06.29,0,.39-.14a.06.06,0,0,0,0-.09.45.45,0,0,0-.43.14c-.05.05,0,.11.07.09Z" style="fill:#b70027"/><path d="M21.54,3c.11-.08.38-.1.39-.27a.05.05,0,0,0,0,0c-.15-.11-.36.13-.43.25s0,.11.07.07Z" style="fill:#b70027"/><path d="M22.83,3.36a1.22,1.22,0,0,0,.1.23.39.39,0,0,0,.08.1s.06,0,.09,0,0,0,0-.05,0-.06,0-.09l-.07-.1a.59.59,0,0,0-.2-.15s0,0,0,0Z" style="fill:#b70027"/><path d="M22.51,4.23a3.65,3.65,0,0,0,.24.31.1.1,0,0,0,.09,0,.1.1,0,0,0,.05,0,.11.11,0,0,0,0-.11c-.08-.09-.18-.16-.27-.25a.06.06,0,0,0-.09.07Z" style="fill:#b70027"/><path d="M22.53,5.35a1.9,1.9,0,0,0,.21.19c.07.06.14.12.24.09A.06.06,0,0,0,23,5.57c0-.1-.08-.15-.16-.21a1.08,1.08,0,0,0-.26-.14c-.08,0-.13.08-.08.13Z" style="fill:#b70027"/><path d="M23.58,4.29a1.58,1.58,0,0,1-.09.31.25.25,0,0,0,0,.24.05.05,0,0,0,.08,0c.16-.09.06-.4.05-.55s-.06,0-.06,0Z" style="fill:#b70027"/><path d="M24,5.27c0,.13-.09.35,0,.43h0c.11-.08.07-.26.09-.38s-.15-.16-.17-.05Z" style="fill:#b70027"/><path d="M17,9.36l.14-.06a.33.33,0,0,0,0-.55L17,8.7a.34.34,0,1,0,0,.66Z" style="fill:#0c0a35"/><path d="M19.79,9.17a.34.34,0,0,0,.34-.34.34.34,0,0,0-.34-.34.34.34,0,0,0-.34.34.35.35,0,0,0,.34.34Z" style="fill:#0c0a35"/><path d="M22.5,9h0a.29.29,0,1,0-.1-.4h0a.29.29,0,0,0,.1.39Z" style="fill:#0c0a35"/><path d="M26.09,9.34l0,0a.28.28,0,0,0,0-.49h0a.3.3,0,0,0-.45.26.31.31,0,0,0,.45.26Z" style="fill:#0c0a35"/><path d="M15,24.67a.57.57,0,1,0-.57-.57.57.57,0,0,0,.57.57Z" style="fill:#b70027"/><path d="M21.8,27.1a.51.51,0,1,0,0-1,.51.51,0,0,0,0,1Z" style="fill:#b70027"/><path d="M28,23.61h0a.38.38,0,0,0,.17-.64l0,0a.4.4,0,0,0-.67.17.4.4,0,0,0,.1.39.42.42,0,0,0,.39.1Z" style="fill:#b70027"/><path d="M21.61,25a.32.32,0,0,0-.17.28c0,.19.25.36.41.23h0l-.15,0h0l-.14,0h0a.34.34,0,0,0,.31,0,.29.29,0,0,0,.14-.26.3.3,0,0,0-.45-.25Z" style="fill:#b70027"/><path d="M21.76,24.46a.16.16,0,0,0,0-.32.16.16,0,0,0,0,.32Z" style="fill:#b70027"/><path d="M16.15,23.42h0l-.1.06h0a.23.23,0,0,0,.05-.41A.32.32,0,0,0,16,23a.24.24,0,0,0-.3.29.25.25,0,0,0,.41.11Z" style="fill:#b70027"/><path d="M16.74,22.83a.13.13,0,0,0,0-.25.13.13,0,0,0,0,.25Z" style="fill:#b70027"/><path d="M27,23a.27.27,0,0,0,0-.53A.27.27,0,0,0,27,23Z" style="fill:#b70027"/><path d="M26.34,22.5a.19.19,0,0,0,0-.38.19.19,0,0,0,0,.38Z" style="fill:#b70027"/><path d="M16.43,9.75a1.08,1.08,0,0,1,.11.3c0,.15.28.08.24-.07a.8.8,0,0,0-.19-.35.1.1,0,0,0-.16.12Z" style="fill:#f70032"/><path d="M17,9.57a1.69,1.69,0,0,0,.15.37.11.11,0,0,0,.11,0l0,0s0-.07,0-.11-.11-.22-.17-.33-.17,0-.14.06Z" style="fill:#f70032"/><path d="M17.63,9.37a.59.59,0,0,0,.11.58A.15.15,0,0,0,18,9.84a.81.81,0,0,0-.1-.31.32.32,0,0,0-.19-.19.05.05,0,0,0-.07,0Z" style="fill:#f70032"/><path d="M18.23,9.4a1.08,1.08,0,0,0,.07.47.11.11,0,0,0,.21-.06,1,1,0,0,0-.13-.45.08.08,0,0,0-.15,0Z" style="fill:#f70032"/><path d="M18.85,9.32a.87.87,0,0,0,.07.48.14.14,0,0,0,.26-.07,1.25,1.25,0,0,0-.12-.43c0-.11-.21-.1-.21,0Z" style="fill:#f70032"/><path d="M19.48,9.38a.91.91,0,0,0,0,.4c0,.11.23.05.23-.06a1.11,1.11,0,0,0-.07-.37.1.1,0,0,0-.19,0Z" style="fill:#f70032"/><path d="M20.16,9.26a.49.49,0,0,0,0,.44c.06.17.33.15.32,0a.55.55,0,0,0-.17-.41.08.08,0,0,0-.12,0Z" style="fill:#f70032"/><path d="M20.81,9.35a.87.87,0,0,0,0,.36.1.1,0,0,0,.1.08.07.07,0,0,0,.06,0A.12.12,0,0,0,21,9.69c0-.11,0-.21,0-.31s-.15-.12-.17,0Z" style="fill:#f70032"/><path d="M21.28,9.35a2.81,2.81,0,0,0,0,.29c0,.09.06.25.19.21s.1-.42,0-.56a.11.11,0,0,0-.21.06Z" style="fill:#f70032"/><path d="M22.06,9.33c0,.14-.11.37,0,.48a.1.1,0,0,0,.17,0,.81.81,0,0,0,0-.46.08.08,0,0,0-.16,0Z" style="fill:#f70032"/><path d="M22.68,9.3a.54.54,0,0,0,0,.56.1.1,0,0,0,.17,0c.06-.14,0-.3,0-.44s-.12-.18-.17-.08Z" style="fill:#f70032"/><path d="M23.23,9.4c0,.13-.11.55.13.55s.09-.14.09-.2,0-.23,0-.35a.1.1,0,0,0-.2,0Z" style="fill:#f70032"/><path d="M23.77,9.42c-.06.15-.18.44,0,.57a.15.15,0,0,0,.2,0A.31.31,0,0,0,24,9.7.69.69,0,0,0,24,9.39c0-.09-.17,0-.2,0Z" style="fill:#f70032"/><path d="M24.46,9.5c-.1.15-.19.48,0,.6a.15.15,0,0,0,.13,0c.18-.12.09-.41.06-.58s-.14-.09-.19,0Z" style="fill:#f70032"/><path d="M25.07,9.55A2.2,2.2,0,0,0,25,10c0,.18.28.18.28,0a1.59,1.59,0,0,0,0-.43c0-.08-.15-.08-.16,0Z" style="fill:#f70032"/><path d="M25.69,9.6a.49.49,0,0,0-.15.56c.06.12.22.06.26,0a1,1,0,0,0,0-.29.34.34,0,0,0-.07-.22.06.06,0,0,0-.07,0Z" style="fill:#f70032"/><path d="M26.14,9.75a.76.76,0,0,0-.07.44.11.11,0,0,0,.2,0c.09-.12,0-.31,0-.45s-.12-.09-.15,0Z" style="fill:#f70032"/><path d="M26.72,9.75c-.09.17-.23.36-.14.57a.16.16,0,0,0,.25,0,.69.69,0,0,0,.08-.58.1.1,0,0,0-.19,0Z" style="fill:#f70032"/><path d="M29.71,30.06a2.16,2.16,0,0,1-1.25-.71,2.64,2.64,0,0,1-.66-1.23,2,2,0,0,1,.4-1.54c.42-.75,1.11-.92,1.91-1.24a16,16,0,0,1,4.34-1.11,2.21,2.21,0,0,1,1.71.52,1.85,1.85,0,0,1,.46,1.3,2.75,2.75,0,0,1-1.1,2.53,9.35,9.35,0,0,1-2.21.91C31.12,30.16,30.54,30.21,29.71,30.06Z" style="fill:#b70027"/><path d="M35,28.1a2.1,2.1,0,0,0,.77-1.74c0-.57-.31-1.61-1-1.54a.35.35,0,0,0-.33.44c.09.38.35.7.45,1.1a1.8,1.8,0,0,1-.2,1.38.27.27,0,0,0,.36.36Z" style="fill:#0c0a35"/><path d="M34.05,28.15c.09-.84.14-2.08-.58-2.67a.41.41,0,0,0-.67.4c.1.39.28.76.39,1.15a5.78,5.78,0,0,0,.43,1.23c.12.22.4.09.43-.11Z" style="fill:#0c0a35"/><path d="M32.81,28.52a3.87,3.87,0,0,0-.13-1.39c-.07-.47-.26-1.31-.82-1.43a.54.54,0,0,0-.65.66,2.42,2.42,0,0,0,.27.5l.36.75c.17.35.34.9.74,1a.19.19,0,0,0,.23-.13Z" style="fill:#0c0a35"/><path d="M31.71,28.59a1.73,1.73,0,0,1-.69-1,4.55,4.55,0,0,0-.24-1.24.3.3,0,0,0-.51,0c-.55.77.28,2.95,1.42,2.45a.15.15,0,0,0,0-.23Z" style="fill:#0c0a35"/><path d="M30.16,29.09c-.16-.39-.45-.67-.58-1.08s.27-1,.12-1.51a.27.27,0,0,0-.32-.18c-1.21.46-.62,2.82.57,3,.11,0,.27-.07.21-.21Z" style="fill:#0c0a35"/><path d="M35.31,26.48a.17.17,0,0,0-.09-.32.17.17,0,0,0,.09.32Z" style="fill:#f70032"/><path d="M33.55,27a.19.19,0,0,0-.1-.37.19.19,0,0,0,.1.37Z" style="fill:#f70032"/><path d="M32.25,27.1s0,0,0,0,0,0,0,0Z" style="fill:#f70032"/><path d="M32.06,27l0,0c-.17.15.1.43.27.26,0,0,0,0,0,0,.17-.17-.08-.41-.26-.26Z" style="fill:#f70032"/><path d="M30.56,27.31h0c-.24,0-.14.38.08.27h0a.14.14,0,0,0-.07-.26Z" style="fill:#f70032"/><path d="M29.24,28.05a.23.23,0,0,0-.13-.45.23.23,0,0,0,.13.45Z" style="fill:#f70032"/><path d="M34.42,28.51l0,0a.18.18,0,0,0,.08.29l.06,0c.15.06.3-.12.26-.27a.21.21,0,0,0-.36-.09Z" style="fill:#f70032"/><path d="M33.89,29a.18.18,0,0,0-.09-.34c-.22.06-.13.41.09.34Z" style="fill:#f70032"/><path d="M33.13,29.2a.2.2,0,0,0-.1-.38.2.2,0,0,0,.1.38Z" style="fill:#f70032"/><path d="M32.32,29.42c.25-.06.14-.44-.1-.38s-.14.45.1.38Z" style="fill:#f70032"/><path d="M31.29,29.36h0c-.11.16.08.36.24.31a.21.21,0,0,0,.05-.39h0a.2.2,0,0,0-.27.07Z" style="fill:#f70032"/><path d="M30.84,29.81c.23-.06.13-.42-.09-.35s-.14.42.09.35Z" style="fill:#f70032"/><path d="M30.2,29.9a.15.15,0,0,0-.08-.29.15.15,0,0,0,.08.29Z" style="fill:#f70032"/><path d="M34.09,24.82c.15,0,.08-.27-.07-.23a.12.12,0,0,0,.07.23Z" style="fill:#f70032"/><path d="M33.26,24.79h0c-.24,0-.12.44.09.35h0a.18.18,0,0,0-.09-.34Z" style="fill:#f70032"/><path d="M32.5,25.37a.19.19,0,0,0-.1-.36.19.19,0,0,0,.1.36Z" style="fill:#f70032"/><path d="M31.74,25.58a.19.19,0,0,0-.1-.36.19.19,0,0,0,.1.36Z" style="fill:#f70032"/><path d="M30.77,25.52h0a.16.16,0,0,0,.06.22h0a.18.18,0,0,0,.26-.2.18.18,0,0,0-.33,0Z" style="fill:#f70032"/><path d="M30.21,26a.18.18,0,0,0-.1-.35.18.18,0,0,0,.1.35Z" style="fill:#f70032"/><path d="M29.32,25.87h0a.12.12,0,0,0,.06.22h0c.21,0,.1-.36-.07-.23Z" style="fill:#f70032"/><path d="M12,32.32a2.16,2.16,0,0,1,1.25.71,2.64,2.64,0,0,1,.66,1.23,1.91,1.91,0,0,1-.4,1.54c-.42.74-1.11.92-1.91,1.24a16.4,16.4,0,0,1-4.34,1.11,2.25,2.25,0,0,1-1.71-.52,1.85,1.85,0,0,1-.46-1.3,2.75,2.75,0,0,1,1.1-2.53,9.35,9.35,0,0,1,2.21-.91C10.55,32.22,11.13,32.16,12,32.32Z" style="fill:#b70027"/><path d="M6.72,34.28A2.1,2.1,0,0,0,6,36c0,.57.31,1.61,1,1.53a.35.35,0,0,0,.33-.43c-.09-.39-.35-.7-.45-1.1a1.82,1.82,0,0,1,.2-1.39c.15-.2-.15-.49-.36-.35Z" style="fill:#0c0a35"/><path d="M7.62,34.23c-.09.83-.14,2.08.58,2.66a.4.4,0,0,0,.67-.39c-.1-.39-.28-.76-.39-1.15a5.78,5.78,0,0,0-.43-1.23c-.12-.22-.4-.09-.43.11Z" style="fill:#0c0a35"/><path d="M8.86,33.86A3.79,3.79,0,0,0,9,35.24c.07.48.26,1.32.82,1.44a.54.54,0,0,0,.65-.66,2.19,2.19,0,0,0-.27-.5l-.36-.75c-.17-.35-.34-.9-.74-1a.19.19,0,0,0-.23.13Z" style="fill:#0c0a35"/><path d="M10,33.79a1.68,1.68,0,0,1,.69,1A4.62,4.62,0,0,0,10.89,36a.3.3,0,0,0,.51,0c.55-.77-.28-3-1.42-2.45a.15.15,0,0,0,0,.23Z" style="fill:#0c0a35"/><path d="M11.51,33.29c.16.38.45.67.58,1.08s-.27,1-.12,1.51a.27.27,0,0,0,.32.18c1.21-.46.62-2.82-.57-3-.11,0-.27.08-.21.22Z" style="fill:#0c0a35"/><path d="M6.36,35.9a.17.17,0,0,0,.09.32.17.17,0,0,0-.09-.32Z" style="fill:#f70032"/><path d="M8.12,35.39a.2.2,0,0,0,.1.38.2.2,0,0,0-.1-.38Z" style="fill:#f70032"/><path d="M9.42,35.28s0,0,0,0,0,0,0,0Z" style="fill:#f70032"/><path d="M9.61,35.41h0c.18-.15-.1-.43-.27-.26h0a.18.18,0,0,0,.26.26Z" style="fill:#f70032"/><path d="M11.11,35.07h0c.24,0,.14-.38-.08-.27h0a.14.14,0,0,0,.07.26Z" style="fill:#f70032"/><path d="M12.44,34.33a.23.23,0,0,0,.12.45.23.23,0,0,0-.12-.45Z" style="fill:#f70032"/><path d="M7.25,33.87l0,0a.19.19,0,0,0-.08-.3l0,0c-.16-.06-.31.12-.27.27a.22.22,0,0,0,.36.09Z" style="fill:#f70032"/><path d="M7.78,33.4a.18.18,0,0,0,.09.34.18.18,0,0,0-.09-.34Z" style="fill:#f70032"/><path d="M8.54,33.18a.19.19,0,0,0,.1.37.19.19,0,0,0-.1-.37Z" style="fill:#f70032"/><path d="M9.35,33a.19.19,0,0,0,.1.37.19.19,0,0,0-.1-.37Z" style="fill:#f70032"/><path d="M10.38,33h0c.11-.16-.08-.36-.24-.31a.21.21,0,0,0-.05.39h0a.21.21,0,0,0,.27-.07Z" style="fill:#f70032"/><path d="M10.83,32.57a.18.18,0,0,0,.09.35c.23-.06.14-.42-.09-.35Z" style="fill:#f70032"/><path d="M11.47,32.48a.15.15,0,0,0,.08.29.15.15,0,0,0-.08-.29Z" style="fill:#f70032"/><path d="M7.58,37.56c-.15,0-.08.27.07.23a.12.12,0,0,0-.07-.23Z" style="fill:#f70032"/><path d="M8.41,37.59h0c.24,0,.13-.44-.09-.35h0a.18.18,0,0,0,.09.34Z" style="fill:#f70032"/><path d="M9.17,37a.19.19,0,0,0,.1.36.19.19,0,0,0-.1-.36Z" style="fill:#f70032"/><path d="M9.93,36.8a.19.19,0,0,0,.1.36.19.19,0,0,0-.1-.36Z" style="fill:#f70032"/><path d="M10.9,36.86h0a.18.18,0,0,0-.06-.23h0a.18.18,0,0,0-.26.2.18.18,0,0,0,.33,0Z" style="fill:#f70032"/><path d="M11.46,36.39a.18.18,0,0,0,.1.35.18.18,0,0,0-.1-.35Z" style="fill:#f70032"/><path d="M12.35,36.51h0a.12.12,0,0,0-.06-.22h0c-.21,0-.1.36.07.23Z" style="fill:#f70032"/><path d="M24.75,25.79h0a.16.16,0,0,0,.22,0h0a.18.18,0,0,0-.12-.3.17.17,0,0,0-.12.3Z" style="fill:#f70032"/><path d="M6.69,32.59h0a.16.16,0,0,0,.22,0h0a.17.17,0,0,0-.12-.3.18.18,0,0,0-.12.3Z" style="fill:#f70032"/><path d="M15.19,26.44h0a.16.16,0,0,0,.22,0h0a.17.17,0,0,0-.12-.3.18.18,0,0,0-.12.3Z" style="fill:#f70032"/><path d="M18.84,27.14h0a.16.16,0,0,0,.22,0h0a.17.17,0,0,0-.12-.3.18.18,0,0,0-.12.3Z" style="fill:#f70032"/><path d="M27.28,26.79h0a.12.12,0,0,0,0-.17s0,0,0,0a.14.14,0,0,0-.24.1.14.14,0,0,0,.24.1Z" style="fill:#f70032"/><path d="M10,31.74h0a.13.13,0,0,0,0-.18h0a.14.14,0,1,0,0,.2Z" style="fill:#f70032"/><path d="M25.9,29.29h0a.13.13,0,0,0,0-.18h0a.14.14,0,1,0,0,.2Z" style="fill:#f70032"/><path d="M18.25,25.54h0a.13.13,0,0,0,0-.18h0a.14.14,0,1,0,0,.2Z" style="fill:#f70032"/><path d="M13.7,22.7h0a.13.13,0,0,0,0-.18h0a.14.14,0,0,0-.24.1.14.14,0,0,0,.24.1Z" style="fill:#f70032"/><path d="M13.05,24.54h0a.13.13,0,0,0,0-.18h0a.14.14,0,1,0,0,.2Z" style="fill:#f70032"/><path d="M28.6,24.83v0a.11.11,0,0,0,.22,0v0c.08-.2-.32-.2-.24,0Z" style="fill:#f70032"/><path d="M33.67,30.44v0a.11.11,0,0,0,.22,0v0c.08-.2-.32-.2-.24,0Z" style="fill:#f70032"/><path d="M30.76,24.44a.28.28,0,0,0,0-.25.25.25,0,0,0-.39-.05.24.24,0,0,0,0,.35.25.25,0,0,0,.39,0Z" style="fill:#f70032"/><path d="M22.61,29.39a.28.28,0,0,0,0-.25.25.25,0,1,0,0,.25Z" style="fill:#f70032"/><path d="M24.11,28a.2.2,0,0,0,0-.39.2.2,0,0,0,0,.39Z" style="fill:#f70032"/><path d="M7,30.59a.2.2,0,0,0,0-.39.2.2,0,0,0,0,.39Z" style="fill:#f70032"/><path d="M21.55,41.66a4.88,4.88,0,0,0,4.29-.25,2,2,0,1,0-2.07-3.53,16,16,0,0,0-2.51,1.57,1.41,1.41,0,0,0,.29,2.21Z" style="fill:#0c0a35"/><path d="M20.31,42.52a4.33,4.33,0,0,0,1.65-2,4.23,4.23,0,0,0-.05-3.31,2.51,2.51,0,0,0-3.36-1.13,2.54,2.54,0,0,0-1.12,3.36c-.3-.67-.06-.13,0,.12a5.65,5.65,0,0,0,.37,1.23,3.91,3.91,0,0,0,.73,1.4,1.55,1.55,0,0,0,1.82.36Z" style="fill:#0c0a35"/><path d="M19.52,40.19A4.34,4.34,0,0,0,17.91,39a5.46,5.46,0,0,0-2.7-.9,2,2,0,0,0-1,3.72c1.16.89,4.12.91,5.14-.24a1.14,1.14,0,0,0,.18-1.39Z" style="fill:#0c0a35"/><path d="M18.5,60.73q.41-.54.78-1.11a.24.24,0,0,1,.19.1,4.12,4.12,0,0,1,.76,1c0,.08.09.18.05.26a5.25,5.25,0,0,1-.71.69.4.4,0,0,1-.22.1.41.41,0,0,1-.27-.15c-.12-.12-.23-.25-.34-.37S18.39,60.88,18.5,60.73Z" style="fill:#b70027"/><path d="M16.64,44.06a13.88,13.88,0,0,0,0-1.58c-.07-.78,0-1.11,0-1.81A1.88,1.88,0,0,1,18,39.23a4.35,4.35,0,0,1,3.53.12,1.8,1.8,0,0,1,.65.52,2.77,2.77,0,0,1,.09.91,7.09,7.09,0,0,0,.3,2.55.52.52,0,0,0,.18.29.59.59,0,0,0,.37.05,4.21,4.21,0,0,1,1.54.14.82.82,0,0,1,.44.23,1.06,1.06,0,0,1,.16.71A10.59,10.59,0,0,1,25,48a1.44,1.44,0,0,1,.62,0,.45.45,0,0,1,.34.46.69.69,0,0,1-.21.32,7.55,7.55,0,0,0-.84,1,1.61,1.61,0,0,0-.28.59,2,2,0,0,0,0,.54c.07.56.13,1.13.2,1.69,0,.25-.15.36-.39.43a15.56,15.56,0,0,1-4.94.62,2.05,2.05,0,0,1-.65-.1,2,2,0,0,1-1.07-1.27A9.21,9.21,0,0,1,17.42,51c-.17-.79-.33-1.57-.5-2.35a13.25,13.25,0,0,1-.41-3.06C16.52,45.09,16.61,44.58,16.64,44.06Z" style="fill:#ffd6a1"/><path d="M21.81,45.84a.12.12,0,0,0-.13.12.87.87,0,0,0,.19.47l.75,1.17a.63.63,0,0,0,.2.23,1,1,0,0,0,.47.15c.63,0,1.05,0,1.67,0a.77.77,0,0,0,.37-.07.69.69,0,0,0,.23-.22A13.72,13.72,0,0,0,26.91,46C27,45.81,23.37,45.86,21.81,45.84Z" style="fill:#b70027"/><path d="M19.92,45.63a6.77,6.77,0,0,0-.21.89c-.09.27-.35.54-.62.48a.07.07,0,0,1-.05-.06A14.76,14.76,0,0,1,19,45.06a1.67,1.67,0,0,1,.11-.66,8,8,0,0,1,.9-1,17,17,0,0,1,2-1.63l1.55-1.32a1.5,1.5,0,0,1,.5-.33.58.58,0,0,1,.57.06.89.89,0,0,1,.21.53c.12,1,.33,2.71.44,3.64,0,.21-.09,0-.58,0a11.6,11.6,0,0,0-3.39.54A1.84,1.84,0,0,0,19.92,45.63Z" style="fill:#b70027"/><path d="M18.29,50.29a3.75,3.75,0,0,1,1.9-.69,3.51,3.51,0,0,1,1.88.47.2.2,0,0,1-.06.16,1.32,1.32,0,0,1-.47.34,3.39,3.39,0,0,1-3-.06A.6.6,0,0,1,18.29,50.29Z" style="fill:#fff"/><path d="M18.31,51.66a4.35,4.35,0,0,0,3.36.08,2.1,2.1,0,0,0,.76-.52.53.53,0,0,0,.14-.29.22.22,0,0,0-.2-.24.3.3,0,0,0-.18.08,3.9,3.9,0,0,1-3.58.42.21.21,0,0,0-.27.1l-.09.17A.14.14,0,0,0,18.31,51.66Z" style="fill:#0c0a35"/><path d="M20.67,50.44a.39.39,0,0,0,0-.44.43.43,0,0,0-.26-.17.7.7,0,0,0-.53.08.43.43,0,0,0-.15.44c.05.12.11.33.52.32A.53.53,0,0,0,20.67,50.44Z" style="fill:#0c0a35"/><path d="M17.78,49.76c-.05-.52-.11-1-.16-1.56-.21-2-.42-4-.68-5.92,0-.09,0-.2-.12-.22a.24.24,0,0,0-.18,0c-1.47.77-3,1.55-4.35,2.47a1.12,1.12,0,0,0-.48,1.76,48,48,0,0,1,2.37,5.22A8.08,8.08,0,0,0,14.76,53a1,1,0,0,0,.29.37,1.19,1.19,0,0,0,.44.17,13.42,13.42,0,0,0,2.89.4,2.91,2.91,0,0,0-.12-1A25,25,0,0,1,17.78,49.76Z" style="fill:#990028"/><path d="M16.15,56.26c-.19-.3-.2-.69-.39-1s-.41-.5-.42-.82a1.12,1.12,0,0,1,.68-.14h8c.15.06.1.27,0,.41a30.39,30.39,0,0,1-2.88,3.93l-.92.9c-.28.28-.64.58-1,.47C19.07,60,18.27,59.52,16.15,56.26Z" style="fill:#990028"/><g style="clip-path:url(#clip-path-4)"><path d="M26,47.91a4.16,4.16,0,0,0,.39-1.14,14.38,14.38,0,0,0,.61-2c0-.07-.08-.15-.14-.08-.68.88-.55,2.19-1,3.18,0,.06.07.09.1,0Z" style="fill:#0c0a35"/><path d="M25.41,48.84a4.82,4.82,0,0,0,.53-1.8c.14-.83.44-1.62.61-2.44a.08.08,0,0,0-.14-.06c-.83,1.14-.74,2.94-1.06,4.28,0,0,0,.06.06,0Z" style="fill:#0c0a35"/><path d="M25,48.78c.15-1.19.38-2.36.44-3.56a0,0,0,0,0-.08,0,2.53,2.53,0,0,0-.35,1.41,11.43,11.43,0,0,0-.11,2.18c0,.06.09.06.1,0Z" style="fill:#0c0a35"/><path d="M24.5,48.72a6.49,6.49,0,0,0,.18-1.92c0-.63.14-1.25.16-1.88,0-.07-.11-.1-.14,0-.63,1.13-.16,2.6-.32,3.81a.06.06,0,0,0,.12,0Z" style="fill:#0c0a35"/><path d="M23.87,49.07a8.84,8.84,0,0,0,.12-2,8.75,8.75,0,0,0-.15-2.4.07.07,0,0,0-.14,0c-.44,1.4.22,2.94.06,4.37,0,.06.1.08.11,0Z" style="fill:#0c0a35"/><path d="M23.15,48.68a9.44,9.44,0,0,0-.21-3.43c0-.06-.12-.06-.13,0-.24,1.1.19,2.32.23,3.43,0,.07.1.07.11,0Z" style="fill:#0c0a35"/><path d="M22.36,48.06a6.51,6.51,0,0,0-.07-2.78.06.06,0,0,0-.12,0,2.2,2.2,0,0,0-.06,1.17c.06.54.06,1.08.13,1.62a.06.06,0,1,0,.12,0Z" style="fill:#0c0a35"/></g><g style="clip-path:url(#clip-path-5)"><path d="M24.78,45a20.69,20.69,0,0,0-.22-3.51,5.75,5.75,0,0,0-.36-2.22.07.07,0,0,0-.12,0c.38,1.84.38,3.81.61,5.68,0,0,.09.06.09,0Z" style="fill:#0c0a35"/><path d="M24.1,44.72a13,13,0,0,0-.51-5.11s-.09,0-.1,0a6.23,6.23,0,0,0,.07,2c.15,1,.28,2.07.43,3.11,0,.07.1,0,.11,0Z" style="fill:#0c0a35"/><path d="M23.25,44.8a24.16,24.16,0,0,0-.52-4.8.09.09,0,0,0-.16,0,7.21,7.21,0,0,0,.19,2.31c.11.82.31,1.66.38,2.49,0,.06.11.07.11,0Z" style="fill:#0c0a35"/><path d="M22.57,45.07A14.37,14.37,0,0,0,22,40.46c0-.15-.29-.13-.27,0,.15,1.53.55,3,.69,4.57a.07.07,0,1,0,.14,0Z" style="fill:#0c0a35"/><path d="M21.84,45.2a9.31,9.31,0,0,0-.6-3.62s-.07,0-.07,0c0,1.21.44,2.39.55,3.61a.06.06,0,0,0,.12,0Z" style="fill:#0c0a35"/><path d="M21.11,45.42a15.41,15.41,0,0,0-.57-4.09c0-.15-.26-.11-.26,0,0,1.39.71,2.67.77,4.05a0,0,0,0,0,.06,0Z" style="fill:#0c0a35"/><path d="M20.59,46.07A13.23,13.23,0,0,0,20,41.92a.07.07,0,0,0-.13,0A3.69,3.69,0,0,0,20,43.57c.16.84.38,1.67.58,2.51a0,0,0,0,0,.06,0Z" style="fill:#0c0a35"/><path d="M20.1,46.45c-.15-.56-.14-1.21-.26-1.79a7.76,7.76,0,0,0-.55-1.95c0-.08-.16,0-.16,0A7.78,7.78,0,0,0,19.55,45,3.36,3.36,0,0,0,20,46.5s.08,0,.07,0Z" style="fill:#0c0a35"/><path d="M19.47,47.44c.13-1.56-.4-3-.56-4.51,0,0-.07,0-.08,0-.26,1.48.33,3.06.53,4.52,0,.07.11.07.11,0Z" style="fill:#0c0a35"/></g><g style="clip-path:url(#clip-path-6)"><path d="M17.76,53.93a24.63,24.63,0,0,0-.58-6.4c-.19-1.09-.3-2.19-.46-3.28a7.84,7.84,0,0,0-.58-2.68c-.1-.19-.38-.06-.34.14.42,1.84.6,3.7.92,5.56.21,1.22.46,2.43.61,3.66a15.81,15.81,0,0,0,.4,3s0,0,0,0Z" style="fill:#0c0a35"/><path d="M17.24,53.33c-.32-1.83-.46-3.7-.79-5.53-.18-1-.29-1.92-.48-2.88a20,20,0,0,1-.57-3.07l-.36.2.07,0a.15.15,0,0,0,.21-.05l0-.07c.24-.32-.47-.55-.45-.12a12.7,12.7,0,0,0,.44,2.51c.26,1,.4,2.13.61,3.19s.49,2.18.69,3.29a9.63,9.63,0,0,0,.55,2.5,0,0,0,0,0,0,0Z" style="fill:#0c0a35"/><path d="M16.69,53.78a19.76,19.76,0,0,0-.42-2.4c-.14-1-.31-1.93-.5-2.88s-.46-2-.7-2.93-.3-2.06-.63-3a.23.23,0,0,0-.44.12c.4,1.88.83,3.73,1.3,5.6a41.36,41.36,0,0,0,1.37,5.53Z" style="fill:#0c0a35"/><path d="M16,53.45a31.87,31.87,0,0,0-1.21-5.59c-.28-1.1-.65-2.17-.94-3.26A5.12,5.12,0,0,0,13,42.2c-.13-.14-.4,0-.33.19.73,1.78,1.1,3.75,1.66,5.59.31,1,.57,2,.87,3.05A11.08,11.08,0,0,0,16,53.46s0,0,0,0Z" style="fill:#0c0a35"/><path d="M15.3,53.11a5.32,5.32,0,0,0-.35-2c-.36-1.06-.68-2.13-1.11-3.16-.35-.85-.76-1.68-1.13-2.52a10.36,10.36,0,0,0-1.23-2.63c-.07-.08-.19,0-.18.11a20,20,0,0,0,2,4.85,23.94,23.94,0,0,1,1.1,2.73,10.79,10.79,0,0,1,.8,2.59,0,0,0,0,0,.08,0Z" style="fill:#0c0a35"/><path d="M14.63,53.11c.74-.54-.77-3.2-1-3.74-.58-1.2-1.16-2.39-1.71-3.6a5.52,5.52,0,0,0-1.34-2.14c-.17-.12-.39.11-.28.28a45.14,45.14,0,0,1,2.3,4.42c.49.93,1,1.83,1.41,2.8.22.53.75,1.36.61,1.94,0,0,0,.06.05,0Z" style="fill:#0c0a35"/></g><path d="M12.24,55a23.4,23.4,0,0,1,1.87-3,.8.8,0,0,1,.23-.22.69.69,0,0,1,.32,0c3.39.31,6.85.85,10.17.11a19.15,19.15,0,0,0,2,2.87.57.57,0,0,1,.18.35c0,.27-.33.39-.6.44a50.34,50.34,0,0,1-10.77.21,19.11,19.11,0,0,1-3.38-.37C12.11,55.32,12.17,55.14,12.24,55Z" style="fill:#b70027"/><path d="M27,55a13.72,13.72,0,0,0-2.14-1.26c-.39-.15-.44.23-.55.4a8.64,8.64,0,0,1-1.05,1.38.08.08,0,0,1-.09,0,3.46,3.46,0,0,1-.85-.72,4.93,4.93,0,0,0-.59-.62c-.07-.07-.14-.14-.23-.13a.38.38,0,0,0-.21.14c-.34.4-1,1.43-1.38,1.4s-.35-.52-1-1.46c-.13-.19-.25,0-.74.39s-.76.63-1.26,1a.12.12,0,0,1-.13,0c-.51-.31-.67-1-1.05-1.46a.36.36,0,0,0-.23-.15.4.4,0,0,0-.29.12l-1.22,1a.09.09,0,0,1-.14,0c-.3-.6-.6-1.69-.68-1.57a11.77,11.77,0,0,0-1,1.56c-.17.37.06.55.11.56a77.14,77.14,0,0,0,10.16.83A15.93,15.93,0,0,0,27,55.73.61.61,0,0,0,27,55Z" style="fill:#f70032"/><path d="M19.71,47.19a.91.91,0,1,0,.91.91.92.92,0,0,0-.91-.91Z" style="fill:#f70032"/><path d="M25.17,47.88a8.31,8.31,0,0,0-1.32,0,1,1,0,0,0-.78.3.58.58,0,0,0-.07.62.41.41,0,0,0,.63.14.11.11,0,0,0,0-.15c-.1-.1-.41-.09-.42-.26s.23-.33.41-.37c.52-.1,1.05-.06,1.56-.15a.06.06,0,0,0,0-.11Z" style="fill:#0c0a35"/><path d="M21.78,57a1,1,0,0,0-.38,0c-.09,0-.31.1-.27.23s.19,0,.26,0a2.09,2.09,0,0,1,.4-.19c.05,0,.05-.1,0-.1Z" style="fill:#b70027"/><path d="M21.11,57.88a1,1,0,0,0-.14-.22.26.26,0,0,0-.21-.11.07.07,0,0,0-.06.07.28.28,0,0,0,.12.19L21,58s.11,0,.08-.08Z" style="fill:#b70027"/><path d="M20.44,58.65a.62.62,0,0,0-.36-.3.06.06,0,0,0-.07.07.53.53,0,0,0,.36.32.06.06,0,0,0,.07-.09Z" style="fill:#b70027"/><path d="M19.81,57.63c-.08,0-.14-.08-.22-.07a0,0,0,0,0-.05,0c0,.11.13.15.23.17s.14-.12,0-.15Z" style="fill:#b70027"/><path d="M20.37,57l-.21-.17a.8.8,0,0,0-.24-.13.11.11,0,0,0-.13.16c.08.18.33.19.48.26a.08.08,0,0,0,.1-.12Z" style="fill:#b70027"/><path d="M19.49,58.75c-.13.06-.29,0-.39.14a.05.05,0,0,0,0,.09.42.42,0,0,0,.42-.14.05.05,0,0,0-.06-.09Z" style="fill:#b70027"/><path d="M19.84,59.28c-.11.08-.38.1-.39.27a.09.09,0,0,0,0,.06c.15.1.36-.14.43-.26s0-.11-.07-.07Z" style="fill:#b70027"/><path d="M18.54,58.92a1.09,1.09,0,0,0-.09-.23.39.39,0,0,0-.08-.1s-.06,0-.09,0-.06,0-.05.06a.12.12,0,0,0,0,.08.61.61,0,0,0,.07.1.59.59,0,0,0,.2.15,0,0,0,0,0,0,0Z" style="fill:#b70027"/><path d="M18.87,58.05a2.43,2.43,0,0,0-.24-.3s-.06,0-.09,0a.1.1,0,0,0-.05,0,.09.09,0,0,0,0,.11l.28.25a.06.06,0,0,0,.09-.07Z" style="fill:#b70027"/><path d="M18.85,56.93l-.21-.19c-.07-.06-.14-.12-.24-.09a.06.06,0,0,0,0,.06c0,.1.08.16.15.21a1.38,1.38,0,0,0,.27.14c.08,0,.13-.08.08-.13Z" style="fill:#b70027"/><path d="M17.8,58a1.81,1.81,0,0,1,.09-.31.29.29,0,0,0,0-.24.06.06,0,0,0-.08,0c-.16.09-.06.41-.05.55s.06.05.06,0Z" style="fill:#b70027"/><path d="M17.33,57c0-.13.09-.35,0-.43h-.05c-.1.08-.06.26-.08.38s.14.16.16,0Z" style="fill:#b70027"/><path d="M24.4,52.93l-.14,0a.33.33,0,0,0,0,.55l.14,0a.34.34,0,1,0,0-.65Z" style="fill:#0c0a35"/><path d="M21.59,53.12a.34.34,0,1,0,0,.67.34.34,0,1,0,0-.67Z" style="fill:#0c0a35"/><path d="M18.88,53.27h0a.29.29,0,1,0,.1.4h0a.28.28,0,0,0-.1-.38Z" style="fill:#0c0a35"/><path d="M15.28,53h0a.28.28,0,0,0,0,.49h0a.3.3,0,1,0,0-.51Z" style="fill:#0c0a35"/><path d="M26.38,37.61a.57.57,0,0,0-.56.57.57.57,0,0,0,1.13,0,.58.58,0,0,0-.57-.57Z" style="fill:#b70027"/><path d="M19.58,35.19a.52.52,0,0,0-.52.51.52.52,0,0,0,1,0,.52.52,0,0,0-.51-.51Z" style="fill:#b70027"/><path d="M13.39,38.67h0a.38.38,0,0,0-.16.63l0,0a.4.4,0,0,0,.67-.17.4.4,0,0,0-.1-.39.42.42,0,0,0-.39-.1Z" style="fill:#b70027"/><path d="M19.76,37.3a.32.32,0,0,0,.17-.29c0-.19-.24-.36-.4-.23h0l.14,0h0l.14,0h0a.32.32,0,0,0-.3,0,.29.29,0,0,0-.14.26.3.3,0,0,0,.44.26Z" style="fill:#b70027"/><path d="M19.61,37.82a.16.16,0,0,0,0,.32.16.16,0,0,0,0-.32Z" style="fill:#b70027"/><path d="M25.23,38.86h0l.1-.06h0a.26.26,0,0,0-.16.15.24.24,0,0,0,.11.26l.09,0a.24.24,0,0,0,.3-.29.25.25,0,0,0-.41-.11Z" style="fill:#b70027"/><path d="M24.64,39.45a.13.13,0,1,0,0,.25.13.13,0,0,0,0-.25Z" style="fill:#b70027"/><path d="M14.34,39.31a.27.27,0,0,0,0,.53.27.27,0,0,0,0-.53Z" style="fill:#b70027"/><path d="M15,39.78a.2.2,0,0,0,0,.39.2.2,0,0,0,0-.39Z" style="fill:#b70027"/><path d="M25,52.54a.89.89,0,0,1-.11-.31c0-.15-.28-.08-.24.07a.8.8,0,0,0,.19.35c.08.08.22,0,.16-.11Z" style="fill:#f70032"/><path d="M24.39,52.71a2.28,2.28,0,0,0-.15-.36.1.1,0,0,0-.11-.05l0,0s0,.07,0,.11a2.59,2.59,0,0,0,.17.33c0,.07.17,0,.14-.06Z" style="fill:#f70032"/><path d="M23.75,52.91a.59.59,0,0,0-.11-.57.15.15,0,0,0-.26.1.94.94,0,0,0,.11.32.34.34,0,0,0,.19.18.06.06,0,0,0,.07,0Z" style="fill:#f70032"/><path d="M23.15,52.88a1.08,1.08,0,0,0-.07-.47.12.12,0,0,0-.21.06,1,1,0,0,0,.13.45.08.08,0,0,0,.15,0Z" style="fill:#f70032"/><path d="M22.53,53a.87.87,0,0,0-.07-.48.14.14,0,0,0-.26.07,1,1,0,0,0,.12.44c0,.1.21.1.21,0Z" style="fill:#f70032"/><path d="M21.9,52.91a.94.94,0,0,0,0-.41.13.13,0,0,0-.23.07,1.1,1.1,0,0,0,.07.36.1.1,0,0,0,.19,0Z" style="fill:#f70032"/><path d="M21.22,53a.49.49,0,0,0,0-.44c0-.16-.32-.15-.31,0a.59.59,0,0,0,.17.42.08.08,0,0,0,.12,0Z" style="fill:#f70032"/><path d="M20.56,52.93a.88.88,0,0,0,0-.36.11.11,0,0,0-.1-.08h-.06a.12.12,0,0,0-.05.1c0,.1,0,.2,0,.31s.15.11.16,0Z" style="fill:#f70032"/><path d="M20.1,52.93v-.29c0-.09-.07-.25-.19-.21s-.1.42,0,.56a.11.11,0,0,0,.21-.06Z" style="fill:#f70032"/><path d="M19.32,53c0-.14.11-.36,0-.48a.1.1,0,0,0-.17,0,.73.73,0,0,0,0,.46.08.08,0,0,0,.16,0Z" style="fill:#f70032"/><path d="M18.7,53a.56.56,0,0,0,0-.56c-.06-.07-.15,0-.18,0s0,.31,0,.45.12.18.17.07Z" style="fill:#f70032"/><path d="M18.15,52.88c0-.13.11-.55-.13-.55s-.09.14-.09.2,0,.24,0,.35a.1.1,0,0,0,.2,0Z" style="fill:#f70032"/><path d="M17.6,52.86c.07-.15.19-.44,0-.57a.17.17,0,0,0-.21,0,.37.37,0,0,0-.08.29.87.87,0,0,0,.07.31c0,.09.17,0,.19,0Z" style="fill:#f70032"/><path d="M16.92,52.78c.1-.15.19-.48,0-.6a.15.15,0,0,0-.13,0c-.18.12-.09.41-.06.58s.14.09.19,0Z" style="fill:#f70032"/><path d="M16.31,52.73a2.05,2.05,0,0,0,.09-.43c0-.18-.28-.18-.28,0a1.53,1.53,0,0,0,0,.43.08.08,0,0,0,.16,0Z" style="fill:#f70032"/><path d="M15.69,52.68a.46.46,0,0,0,.14-.55c-.05-.13-.22-.07-.25,0a1,1,0,0,0,0,.29.32.32,0,0,0,.07.22.06.06,0,0,0,.07,0Z" style="fill:#f70032"/><path d="M15.23,52.53a.77.77,0,0,0,.08-.44.11.11,0,0,0-.2,0c-.09.13,0,.31,0,.45s.11.09.14,0Z" style="fill:#f70032"/><path d="M14.65,52.54c.1-.18.24-.37.15-.58a.17.17,0,0,0-.26,0,.73.73,0,0,0-.08.58.11.11,0,0,0,.19,0Z" style="fill:#f70032"/><path d="M16.63,36.49h0a.16.16,0,0,0-.22,0h0a.17.17,0,1,0,.24,0Z" style="fill:#f70032"/><path d="M21.23,34.7h0a.16.16,0,0,0-.22,0h0a.18.18,0,1,0,.25,0Z" style="fill:#f70032"/><path d="M14.1,35.49h0a.15.15,0,0,0,0,.18h0a.14.14,0,1,0,0-.2Z" style="fill:#f70032"/><path d="M25.28,35.53h0a.13.13,0,0,0,0,.18h0a.14.14,0,1,0,0-.2Z" style="fill:#f70032"/><path d="M30,38.55h0a.13.13,0,0,0,0,.18h0a.14.14,0,0,0,.24-.1.14.14,0,0,0-.24-.1Z" style="fill:#f70032"/><path d="M22.87,36.89h0a.13.13,0,0,0,0,.18h0a.14.14,0,1,0,0-.2Z" style="fill:#f70032"/><path d="M14.76,33.19h0a.13.13,0,0,0,0,.18h0a.14.14,0,1,0,0-.2Z" style="fill:#f70032"/><path d="M12.78,37.45v0a.11.11,0,0,0-.22,0,0,0,0,0,0,0,0c-.08.2.32.2.24,0Z" style="fill:#f70032"/><path d="M10.56,38.49a.28.28,0,0,0,0,.25.26.26,0,0,0,.4,0,.25.25,0,1,0-.4-.3Z" style="fill:#f70032"/><path d="M17.26,34.44a.28.28,0,0,0,0,.25.25.25,0,0,0,.39.05.24.24,0,0,0,0-.35.25.25,0,0,0-.39,0Z" style="fill:#f70032"/><path d="M27.41,36.44a.28.28,0,0,0,0,.25.25.25,0,0,0,.39.05.24.24,0,0,0,0-.35.25.25,0,0,0-.39,0Z" style="fill:#f70032"/><path d="M28.16,38.75a.2.2,0,0,0,0,.39.2.2,0,0,0,0-.39Z" style="fill:#f70032"/><path d="M11.46,22.44a3,3,0,0,0,.7,2.68,7,7,0,0,0,2.17,1.71,29.41,29.41,0,0,0,11.8,3.69c1.6.14,3.49.49,5.08.77a6.48,6.48,0,0,1,3.8,1.8,3.71,3.71,0,0,1,.85,1.3c.21.8-.49,1.66-1,2.3a8.51,8.51,0,0,1-3.9,2.8c.5-.88.2-1.2-.65-2.3-1.08-1.4-3.55-2-5.3-2.3a53.29,53.29,0,0,1-9.75-2.35,37.13,37.13,0,0,1-4.55-1.75A11,11,0,0,1,7,28.34,2,2,0,0,1,6.51,26,5.61,5.61,0,0,1,8,24.39,10.31,10.31,0,0,1,11.46,22.44Z" style="fill:#222272"/><path d="M18.65,32.25l0,0a1.7,1.7,0,0,0,.64.61,1.74,1.74,0,0,0,2.33-.7A1.66,1.66,0,0,0,21,29.93a1.72,1.72,0,0,0-.89-.21,1.68,1.68,0,0,0-.84.25,1.62,1.62,0,0,0-.62.65l.25-.35v0a1.59,1.59,0,0,0-.4.73,1.65,1.65,0,0,0,.19,1.23Z" style="fill:#0c0a35"/><path d="M16.53,31.3a1.22,1.22,0,1,0-1.68-.41,1.24,1.24,0,0,0,1.68.41Z" style="fill:#0c0a35"/><path d="M13,29a.72.72,0,0,0-.75-1.24A.72.72,0,0,0,13,29Z" style="fill:#0c0a35"/><path d="M25.23,33.61a1.18,1.18,0,0,0-1.22-2,1.18,1.18,0,0,0,1.22,2Z" style="fill:#0c0a35"/><path d="M28.85,34.24a.7.7,0,0,0-.73-1.19.7.7,0,0,0,.73,1.19Z" style="fill:#0c0a35"/><path d="M20.4,31.65a.33.33,0,1,0-.35-.57.33.33,0,0,0,.35.57Z" style="fill:#990028"/><path d="M16,30.37A.21.21,0,0,0,15.8,30a.21.21,0,0,0,.22.36Z" style="fill:#990028"/><path d="M24.78,32.66a.13.13,0,0,0-.14-.22c-.15.08,0,.31.14.22Z" style="fill:#990028"/><path d="M14.1,29.45a.25.25,0,0,0-.26-.43.25.25,0,0,0,.26.43Z" style="fill:#990028"/><path d="M18.05,30.87a.28.28,0,1,0-.39-.1.28.28,0,0,0,.39.1Z" style="fill:#990028"/><path d="M22.26,32.37v0a.33.33,0,0,0,.44.11.33.33,0,0,0,.05-.51v0a.32.32,0,0,0-.49.4Z" style="fill:#990028"/><path d="M26.8,32.92h0a.31.31,0,0,0-.28,0,.28.28,0,1,0,.29.49l0,0a.27.27,0,0,0,0-.47Z" style="fill:#990028"/><path d="M12.73,28.58c.17-.1,0-.37-.17-.27a.16.16,0,0,0,.17.27Z" style="fill:#990028"/><path d="M28.66,33.74a.18.18,0,0,0-.18-.3c-.19.12,0,.42.18.3Z" style="fill:#990028"/><path d="M5.29,12.71a.2.2,0,0,0,.13,0,15.45,15.45,0,0,0,1.3-1.24.27.27,0,0,0,.08-.16.2.2,0,0,0-.08-.12c-.33-.34-.69-.65-1-1-.13-.15-.3-.33-.4-.33h0c-.1,0-.26.18-.4.33-.31.36-.67.67-1,1a.19.19,0,0,0-.07.12c0,.06,0,.11.08.16a15.29,15.29,0,0,0,1.29,1.24.23.23,0,0,0,.14,0Z" style="fill:#d6002b"/><path d="M35.66,52.24a.2.2,0,0,0,.13,0A14,14,0,0,0,37.09,51a.21.21,0,0,0,.08-.16.16.16,0,0,0-.08-.12c-.33-.33-.69-.65-1-1-.14-.15-.3-.32-.4-.33h-.06c-.1,0-.26.18-.4.33-.31.36-.67.68-1,1a.2.2,0,0,0-.08.12.21.21,0,0,0,.08.16,14,14,0,0,0,1.3,1.24.2.2,0,0,0,.13,0Z" style="fill:#d6002b"/><path d="M6.47,3V7A1.86,1.86,0,0,1,6,8.45a1.84,1.84,0,0,1-1.25.41,3,3,0,0,1-.84-.12V8.15a3.62,3.62,0,0,0,.75.09,1.33,1.33,0,0,0,.71-.14.79.79,0,0,0,.31-.37A2.64,2.64,0,0,0,5.75,7V3Z" style="fill:#d6002b"/><path d="M34.46,59.29v-4a1.83,1.83,0,0,1,.47-1.45,1.8,1.8,0,0,1,1.25-.42,3,3,0,0,1,.84.12v.59a3.62,3.62,0,0,0-.75-.09,1.32,1.32,0,0,0-.71.15.74.74,0,0,0-.31.37,2.56,2.56,0,0,0-.07.73v4Z" style="fill:#d6002b"/><path d="M15.93,59.11H6.19a3.1,3.1,0,0,1-3-3.19V15.66h.19V55.92a2.92,2.92,0,0,0,2.81,3h9.74Z" style="fill:#d6002b"/><rect x="22.58" y="58.93" width="10.2" height="0.19" style="fill:#d6002b"/><path d="M37.74,46.82h-.19V6.36a2.92,2.92,0,0,0-2.81-3H25.11V3.17h9.63a3.11,3.11,0,0,1,3,3.19Z" style="fill:#d6002b"/><rect x="8.45" y="3.17" width="10.2" height="0.19" style="fill:#d6002b"/></g></g></g></svg>