<svg xmlns="http://www.w3.org/2000/svg" xmlns:xlink="http://www.w3.org/1999/xlink" viewBox="0 0 41.06 62.29"><defs><clipPath id="clip-path"><path d="M22.9,13.5a9.72,9.72,0,0,0-2.77,1.43,25.79,25.79,0,0,1-2.38,1.27c-.77.46-2.36,1.17-2.34-.29,0-.23-.58.19-.81.22a.75.75,0,0,0-.43.34c-.3.4-.51.63-.45,1.13a3.06,3.06,0,0,0,.61,1.27,10.51,10.51,0,0,1,.74,1.41l1.23,2.4a2,2,0,0,0,.43.62.66.66,0,0,0,.7.14,1,1,0,0,0,.3-.28,9.09,9.09,0,0,1,1.68-1.6,31.76,31.76,0,0,1,4.65-2.27c1.55-.77,3.06-2,3.42-3.66A3.65,3.65,0,0,0,27,12.88a.91.91,0,0,0-.35-.35.86.86,0,0,0-.55,0A26.85,26.85,0,0,0,22.9,13.5Z" style="fill:none"/></clipPath><clipPath id="clip-path-2"><path d="M13.26,16.82a3.76,3.76,0,0,1,2-2.29,2.81,2.81,0,0,1,1.26-.39,2.81,2.81,0,0,1,1.22.52,5.28,5.28,0,0,1,1.73,1.48,6.15,6.15,0,0,1-3.43-.6A7.06,7.06,0,0,1,13.26,16.82Z" style="fill:#b70027"/></clipPath><clipPath id="clip-path-3"><path d="M21.52,8.06c.23,1,.45,2.1.68,3.16a14,14,0,0,1,.44,3.39.19.19,0,0,0,.24.21c2.32-.48,4.38-1.84,6.59-2.71a.19.19,0,0,0,.07-.3A6.93,6.93,0,0,1,27.69,8a.2.2,0,0,0-.19-.16l-5.77.19C21.56,8.05,21.41,7.94,21.52,8.06Z" style="fill:#b70027"/></clipPath><clipPath id="clip-path-4"><path d="M18.15,48.68a9.47,9.47,0,0,0,2.77-1.43c.72-.53,1.61-.8,2.38-1.26s2.36-1.17,2.34.28c0,.23.57-.19.81-.22a.7.7,0,0,0,.43-.33c.29-.41.51-.64.45-1.13a3.16,3.16,0,0,0-.61-1.28A9.93,9.93,0,0,1,26,41.9l-1.23-2.4a2.22,2.22,0,0,0-.43-.62.67.67,0,0,0-.7-.13.92.92,0,0,0-.31.28,9,9,0,0,1-1.67,1.59A31.76,31.76,0,0,1,17,42.89c-1.55.77-3.06,2-3.42,3.67a3.7,3.7,0,0,0,.51,2.75,1,1,0,0,0,.36.35,1,1,0,0,0,.55,0A26.9,26.9,0,0,0,18.15,48.68Z" style="fill:none"/></clipPath><clipPath id="clip-path-5"><path d="M27.79,45.37a3.79,3.79,0,0,1-2,2.29,2.67,2.67,0,0,1-1.26.38,2.92,2.92,0,0,1-1.22-.51A5.2,5.2,0,0,1,21.56,46a6.16,6.16,0,0,1,3.43.61A7.06,7.06,0,0,1,27.79,45.37Z" style="fill:#b70027"/></clipPath><clipPath id="clip-path-6"><path d="M19.53,54.13c-.23-1.06-.45-2.11-.68-3.16a14,14,0,0,1-.44-3.4.19.19,0,0,0-.24-.2c-2.32.47-4.38,1.84-6.59,2.71a.19.19,0,0,0-.07.3,6.89,6.89,0,0,1,1.85,3.79.19.19,0,0,0,.19.16l5.77-.19C19.49,54.13,19.64,54.25,19.53,54.13Z" style="fill:#b70027"/></clipPath></defs><title>dk</title><g id="Layer_2" data-name="Layer 2"><g id="Layer_1-2" data-name="Layer 1"><g id="dk"><path d="M37.39,62.19H3.54A3.45,3.45,0,0,1,.09,58.74V3.54A3.46,3.46,0,0,1,3.54.09H37.39A3.64,3.64,0,0,1,41,3.48v55.2A3.65,3.65,0,0,1,37.39,62.19Z" style="fill:#fff"/><path d="M37.39,62.29H3.54A3.55,3.55,0,0,1,0,58.74V3.54A3.55,3.55,0,0,1,3.54,0H37.39a3.72,3.72,0,0,1,3.67,3.47V58.68A3.77,3.77,0,0,1,37.39,62.29ZM3.54.19A3.35,3.35,0,0,0,.19,3.54v55.2A3.36,3.36,0,0,0,3.54,62.1H37.39a3.57,3.57,0,0,0,3.48-3.42V3.48A3.52,3.52,0,0,0,37.39.19Z" style="fill:#2d2d2d"/><path d="M32,36.24a23.37,23.37,0,0,1,2.47-4.19c1.32-1.7,1.27-4.8.53-5.61-2.15-2.35-2.88-1.41-5.6-3.5-.53-.4-1.78-1.54-2.3-2s.46-.75-.16-1.06a21.8,21.8,0,0,0-4.82-1.59,8.56,8.56,0,0,0-1.59-.29,7.22,7.22,0,0,0-1.54.11,19.47,19.47,0,0,0-6.64,3c-1.72,1.17-1,.52-5.6,3.65-2.2,1.5-1.93,5.31-1.62,6.1.85,2.17,4.3,4.55,4.47,5.55C15.43,37.38,32,38,32,36.24Z" style="fill:#f70032"/><path d="M9,26a23.37,23.37,0,0,1-2.47,4.19C5.24,31.91,5.29,35,6,35.82c2.15,2.35,2.88,1.41,5.6,3.5.52.4,1.78,1.54,2.3,2s-.47.75.15,1.07a22,22,0,0,0,4.82,1.58,8.82,8.82,0,0,0,1.6.29A7.26,7.26,0,0,0,22,44.1a19.56,19.56,0,0,0,6.64-3c1.71-1.17,1-.52,5.6-3.65,2.2-1.5,1.93-5.31,1.62-6.1-.86-2.17-4.3-4.54-4.47-5.55C25.6,24.88,9,24.25,9,26Z" style="fill:#f70032"/><path d="M17.33,24.47c.52.41,1.29.11,1.81-.3a3.6,3.6,0,0,1,1.66-1c.65-.07,1.25.33,1.9.4A1.89,1.89,0,0,0,24.19,23c.28-.29.48-.68.83-.88.59-.34,1.34,0,2-.09a2.63,2.63,0,0,0,1.44-.78.32.32,0,0,0,.1-.2c0-.14-.12-.26-.25-.33-.39-.19-.7-.35-1.85-1.68-.37-.41-.43-1.06-.87-1.39a2.54,2.54,0,0,0-1.36-.36,25.68,25.68,0,0,0-6.72.51,10.08,10.08,0,0,0-2.54.83,12.57,12.57,0,0,0-1.72,1.15c-1,.78-2.62,1.7-3.17,2.87a3.07,3.07,0,0,1,2.21-.35c.3.07.75,0,.92.29a6.26,6.26,0,0,1,.25.65,1.12,1.12,0,0,0,1.26.6c.43-.11.79-.48,1.23-.47a1.41,1.41,0,0,1,1,.7A2.07,2.07,0,0,0,17.33,24.47Z" style="fill:#990028"/><path d="M23.84,8.74a2.76,2.76,0,0,0-2.26-.92,9.87,9.87,0,0,0-4.4.31,2.13,2.13,0,0,0-1.24,1,5.47,5.47,0,0,0-.26.9,6.07,6.07,0,0,1-.74,1.54l-1.7,2.83a.35.35,0,0,0-.08.22c0,.18.29.21.47.18l2-.32c0,.33-.29.61-.33.95-.07.63-.31,1.12,0,1.68a2.87,2.87,0,0,0,2.45,1.1,4.74,4.74,0,0,0,2.1-1,15.11,15.11,0,0,0,3.24-3.39,5.43,5.43,0,0,0,.73-1.34,7.12,7.12,0,0,0,.26-2.21A2.73,2.73,0,0,0,23.84,8.74Z" style="fill:#ffd6a1"/><path d="M22.9,13.5a9.72,9.72,0,0,0-2.77,1.43,25.79,25.79,0,0,1-2.38,1.27c-.77.46-2.36,1.17-2.34-.29,0-.23-.58.19-.81.22a.75.75,0,0,0-.43.34c-.3.4-.51.63-.45,1.13a3.06,3.06,0,0,0,.61,1.27,10.51,10.51,0,0,1,.74,1.41l1.23,2.4a2,2,0,0,0,.43.62.66.66,0,0,0,.7.14,1,1,0,0,0,.3-.28,9.09,9.09,0,0,1,1.68-1.6,31.76,31.76,0,0,1,4.65-2.27c1.55-.77,3.06-2,3.42-3.66A3.65,3.65,0,0,0,27,12.88a.91.91,0,0,0-.35-.35.86.86,0,0,0-.55,0A26.85,26.85,0,0,0,22.9,13.5Z" style="fill:#b70027"/><path d="M16.67,7.48a.65.65,0,0,1,0-.31,8,8,0,0,1,.15-.83c.21-1,.4-2.19,1.26-2.8A3.7,3.7,0,0,1,19,3.11c.73-.25,1.56-.57,2.3-.82-.13-.18-.17-.34-.28-.51a.32.32,0,0,1,0-.35,5.8,5.8,0,0,0,.46-.77.12.12,0,0,1,.22,0,5.46,5.46,0,0,0,.38.72.42.42,0,0,1,.05.39A1.83,1.83,0,0,0,22,2.3s1.65.51,2.11.67a4.58,4.58,0,0,1,2.2,1.31,4.53,4.53,0,0,1,.6,1.23l.49,1.32L23.71,7c-.49,0-1,0-1.48.06s-.77,0-1.15,0c-1.42.06-2.81.52-4.23.46a.15.15,0,0,1-.13,0S16.62,7.49,16.67,7.48Z" style="fill:#990028"/><path d="M17.34,10.9A2.72,2.72,0,0,1,19,10.06a1.79,1.79,0,0,1,1.87.6,3.62,3.62,0,0,1-2.57.57A2.27,2.27,0,0,1,17.34,10.9Z" style="fill:#fff"/><path d="M18.62,10.37a.59.59,0,0,0,.35.86.54.54,0,0,0,.62-.26.53.53,0,0,0-.09-.66.32.32,0,0,0-.12-.11c-.17-.07-.18-.07,0,0l.19.19a0,0,0,0,0,0,0,.53.53,0,0,0-.91,0Z" style="fill:#0c0a35"/><g style="clip-path:url(#clip-path)"><path d="M14.56,14.94c0,1-.19,2-.19,3s.12,2,.15,3c0,.08.14.11.15,0a11.13,11.13,0,0,0,.15-2.64c-.05-1.11,0-2.21,0-3.32a.12.12,0,0,0-.24,0Z" style="fill:#0c0a35"/><path d="M15.58,14.68c0,.7-.18,1.38-.22,2.07,0,.86,0,1.71,0,2.57-.05,1.49-.4,3.18,0,4.64a.11.11,0,0,0,.21,0,23.49,23.49,0,0,0,.21-4.28c0-1.67,0-3.33,0-5,0-.11-.16-.1-.17,0Z" style="fill:#0c0a35"/><path d="M16.21,14.93a47.32,47.32,0,0,0,.51,11c0,.1.15.06.16,0a47.25,47.25,0,0,0-.24-5.44c-.05-1.84,0-3.67-.23-5.51a.1.1,0,0,0-.2,0Z" style="fill:#0c0a35"/><path d="M17.2,14.76a47.27,47.27,0,0,0,.52,11,.08.08,0,0,0,.15,0,49.6,49.6,0,0,0-.23-5.44c-.06-1.84-.05-3.67-.24-5.5a.1.1,0,1,0-.2,0Z" style="fill:#0c0a35"/><path d="M17.86,14.79a28.2,28.2,0,0,0,.35,5.87,15.14,15.14,0,0,0,1,4.82c0,.07.14,0,.14,0-.11-1.7-.44-3.43-.64-5.13s-.38-3.7-.66-5.54c0-.09-.15-.06-.15,0Z" style="fill:#0c0a35"/><path d="M18.77,13.86a10.07,10.07,0,0,0-.1,2.69,24.31,24.31,0,0,0,.27,3.07c.17,1.11.42,2.2.6,3.31.13.74,0,1.65.55,2.25a.11.11,0,0,0,.18-.08c-.22-1.64-.43-3.24-.74-4.87-.21-1.09-.33-2.2-.44-3.3a16.7,16.7,0,0,1-.25-3.06,0,0,0,0,0-.07,0Z" style="fill:#0c0a35"/><path d="M19.32,13.79a15.11,15.11,0,0,0,0,2.69c.1.8.3,1.58.45,2.37a32.64,32.64,0,0,0,1.41,5.69c0,.07.17.07.16,0a44,44,0,0,0-1.06-5.42c-.18-.89-.39-1.77-.57-2.66s-.15-1.77-.31-2.64c0,0-.05,0-.06,0Z" style="fill:#0c0a35"/><path d="M20.32,13.61c-.41,1.31.15,2.91.49,4.18.47,1.73,1.05,3.44,1.51,5.17a.1.1,0,0,0,.19,0,3.4,3.4,0,0,0-.18-1.51c-.21-.8-.43-1.6-.67-2.39s-.5-1.63-.74-2.45a6.11,6.11,0,0,1-.46-3,.07.07,0,0,0-.14,0Z" style="fill:#0c0a35"/><path d="M21.13,12.59a4,4,0,0,0,0,1.88,20.84,20.84,0,0,0,.75,3.12,44.45,44.45,0,0,0,2,5.61c0,.09.17,0,.17,0a9.68,9.68,0,0,0-.59-2.34c-.26-.91-.59-1.79-.92-2.68a28.39,28.39,0,0,1-.82-2.72,8.86,8.86,0,0,1-.5-2.82s-.08-.06-.09,0Z" style="fill:#0c0a35"/><path d="M21.9,12.53a15.3,15.3,0,0,0,.93,4.53A29.23,29.23,0,0,0,24.57,22c.05.1.18,0,.16-.07-.48-3.22-2.39-6.13-2.66-9.4,0-.1-.17-.11-.17,0Z" style="fill:#0c0a35"/><path d="M23.22,12.26a12.53,12.53,0,0,0,1,4.78c.26.76.61,1.49.89,2.25.22.59.19,1.22.62,1.71.08.09.2,0,.19-.11-.49-3-2.06-5.63-2.54-8.65,0-.08-.14-.06-.14,0Z" style="fill:#0c0a35"/><path d="M24.44,11.54c-.29,3.05,1.25,5.65,2.47,8.3,0,.08.15,0,.14-.06a19.62,19.62,0,0,0-1.47-4,24,24,0,0,1-1-4.27c0-.06-.09,0-.1,0Z" style="fill:#0c0a35"/><path d="M25.58,11.53c-.31,1.23.32,2.78.71,3.94a15.33,15.33,0,0,0,1.86,4.29c.06.07.21.07.19-.05A16.13,16.13,0,0,0,27,16c-.26-.67-.5-1.35-.73-2a5.68,5.68,0,0,1-.55-2.44c0-.1-.15-.12-.18,0Z" style="fill:#0c0a35"/><path d="M26.59,11.34c-.19,2.43,1.57,4.7,2.53,6.79,0,.09.15,0,.14-.05a9.51,9.51,0,0,0-1.19-2.92,12.28,12.28,0,0,1-1.34-3.84.07.07,0,0,0-.14,0Z" style="fill:#0c0a35"/></g><path d="M13.26,16.82a3.76,3.76,0,0,1,2-2.29,2.81,2.81,0,0,1,1.26-.39,2.81,2.81,0,0,1,1.22.52,5.28,5.28,0,0,1,1.73,1.48,6.15,6.15,0,0,1-3.43-.6A7.06,7.06,0,0,1,13.26,16.82Z" style="fill:#b70027"/><g style="clip-path:url(#clip-path-2)"><path d="M14.41,13.07A17.85,17.85,0,0,0,13,18.57a.08.08,0,0,0,.16,0c.47-1.83.78-3.67,1.36-5.48a.08.08,0,1,0-.15,0Z" style="fill:#0c0a35"/><path d="M15.14,13a15.08,15.08,0,0,0-1.47,6.11c0,.1.15.14.19.05a13.9,13.9,0,0,0,.55-2.56,15.63,15.63,0,0,1,.87-3.52c0-.09-.09-.17-.14-.08Z" style="fill:#0c0a35"/><path d="M15.93,12.57a27.53,27.53,0,0,0-.87,3,23.22,23.22,0,0,0-.73,3.07c0,.11.15.14.2.05,1.05-1.71,1.21-4.12,1.55-6.06a.08.08,0,1,0-.15,0Z" style="fill:#0c0a35"/><path d="M16.27,12.35a34.19,34.19,0,0,0,.34,5.9c0,.1.15.07.16,0a34.06,34.06,0,0,0-.32-5.88.09.09,0,0,0-.18,0Z" style="fill:#0c0a35"/><path d="M17,12.46c0,1.23.15,2.43.23,3.66a5.55,5.55,0,0,0,.63,2.66.09.09,0,0,0,.16-.07,25.61,25.61,0,0,1-.35-2.89c-.1-1.13-.35-2.24-.48-3.36a.1.1,0,0,0-.19,0Z" style="fill:#0c0a35"/><path d="M17.78,13.21a15.93,15.93,0,0,0,.5,3.14,13.26,13.26,0,0,0,.58,3.22.1.1,0,0,0,.19-.05c0-2.15-.92-4.19-1.06-6.31,0-.14-.22-.14-.21,0Z" style="fill:#0c0a35"/><path d="M18.66,13.77a15.81,15.81,0,0,0,.5,3.14,13.26,13.26,0,0,0,.58,3.22.1.1,0,0,0,.19-.05c0-2.15-.92-4.19-1.06-6.31,0-.14-.22-.14-.21,0Z" style="fill:#0c0a35"/></g><path d="M21.52,8.06c.23,1,.45,2.1.68,3.16a14,14,0,0,1,.44,3.39.19.19,0,0,0,.24.21c2.32-.48,4.38-1.84,6.59-2.71a.19.19,0,0,0,.07-.3A6.93,6.93,0,0,1,27.69,8a.2.2,0,0,0-.19-.16l-5.77.19C21.56,8.05,21.41,7.94,21.52,8.06Z" style="fill:#b70027"/><g style="clip-path:url(#clip-path-3)"><path d="M21.81,7.28a52.28,52.28,0,0,0,1,5.38C23,14,23,16.1,24.08,17a.12.12,0,0,0,.2-.12c-.11-.67-.44-1.31-.61-2s-.3-1.6-.46-2.39-.37-1.84-.56-2.75-.54-1.67-.74-2.52c0-.06-.11,0-.1,0Z" style="fill:#0c0a35"/><path d="M22.57,6.94a19.92,19.92,0,0,0,.9,5.07c.43,1.58.39,3.59,1.31,5A.13.13,0,0,0,25,17a3,3,0,0,0-.29-1.55c-.3-.92-.4-1.91-.61-2.84a42,42,0,0,1-1.36-5.63.1.1,0,0,0-.19,0Z" style="fill:#0c0a35"/><path d="M23.43,6.71c.43,1.74.61,3.51,1.18,5.23.3.9.55,1.82.82,2.73a2.37,2.37,0,0,0,.78,1.39c.07,0,.18,0,.15-.11-.53-1.47-.84-3-1.33-4.5s-.63-3.4-1.43-4.82c-.05-.09-.2,0-.17.08Z" style="fill:#0c0a35"/><path d="M24.64,6.51a12.44,12.44,0,0,0,.85,4.78c.29.88.61,1.75.88,2.63a8,8,0,0,0,.92,2.31.13.13,0,0,0,.24-.1,25.29,25.29,0,0,0-1.41-4.66,27.72,27.72,0,0,1-1.29-5c0-.11-.19-.08-.19,0Z" style="fill:#0c0a35"/><path d="M25.67,6.38a17.38,17.38,0,0,0,1.43,5.51c.42,1.21.3,3.41,1.47,4.18a.1.1,0,0,0,.15-.11c-.14-.68-.41-1.33-.55-2a16.31,16.31,0,0,0-.55-2.19A23.16,23.16,0,0,1,26,6.38c0-.18-.3-.19-.3,0Z" style="fill:#0c0a35"/><path d="M26.88,6.36a7.9,7.9,0,0,0,.72,4.35c.32.79.66,1.56,1,2.35a7.63,7.63,0,0,0,1.07,2.29c.07.08.19,0,.2-.08C30,14,29,12.45,28.47,11.35c-.67-1.52-1.54-3.25-1.36-5,0-.13-.21-.16-.23,0Z" style="fill:#0c0a35"/></g><path d="M14.57,6.46A12.37,12.37,0,0,0,15,4.36c0-.07.07-.17.14-.14l.05,0a28.67,28.67,0,0,1,2.25,2.89,0,0,0,0,0,.08,0l1.73-3s0-.07.08-.06A17,17,0,0,1,20.6,6.33a1.16,1.16,0,0,0,.51.63.11.11,0,0,0,.12,0,28,28,0,0,0,2.14-2.71c.46.84.93,1.67,1.4,2.51,0,.06.09.14.16.11a.18.18,0,0,0,.07,0c.71-.84,1.36-1.86,2-2.74a0,0,0,0,1,.09,0,1.75,1.75,0,0,0,.29.56c.29.47.87,1.65.93,1.73a.46.46,0,0,1,.06.5c-.12.26-.24,1.53-.55,1.72a2.06,2.06,0,0,1-.75.06c-2.17-.15-4.34.27-6.52.2-.71,0-1.41-.11-2.12-.08a11.88,11.88,0,0,0-2.64.46,11.58,11.58,0,0,1-1.5-1.11C13.91,7.71,14.39,6.9,14.57,6.46Z" style="fill:#f70032"/><path d="M14.84,2.4c0-.08.11-.19.2-.16l.06,0a6.26,6.26,0,0,1,.6.76,1.28,1.28,0,0,1,.27.62c0,.12-.22.28-.37.48a3,3,0,0,1-.32.4c-.11.09-.27,0-.38-.1L14.27,4c0-.05-.18-.23-.16-.29C14.17,3.43,14.68,2.78,14.84,2.4Z" style="fill:#b70027"/><path d="M15,2.93s.05-.09.09-.08l0,0a2.69,2.69,0,0,1,.3.37.65.65,0,0,1,.13.3c0,.06-.11.13-.18.24a2.16,2.16,0,0,1-.16.19c-.05,0-.13,0-.19,0l-.3-.25s-.09-.1-.08-.14S14.93,3.11,15,2.93Z" style="fill:#0c0a35"/><path d="M19.09,2.17c0-.08.11-.19.2-.15l.06,0a5.48,5.48,0,0,1,.6.75,1.32,1.32,0,0,1,.27.62c0,.12-.22.28-.37.49a2.65,2.65,0,0,1-.32.39c-.11.09-.27,0-.38-.1l-.62-.5c-.06-.05-.19-.22-.17-.29C18.42,3.2,18.93,2.55,19.09,2.17Z" style="fill:#b70027"/><path d="M19.26,2.7s0-.09.09-.08,0,0,0,0a3.47,3.47,0,0,1,.3.37.65.65,0,0,1,.13.3c0,.06-.11.13-.18.24a1.26,1.26,0,0,1-.16.19s-.13,0-.18,0L19,3.45s-.09-.1-.08-.13S19.18,2.88,19.26,2.7Z" style="fill:#0c0a35"/><path d="M23,2.32c0-.08.11-.19.2-.16l.06,0a6.26,6.26,0,0,1,.6.76,1.28,1.28,0,0,1,.27.61c0,.13-.22.28-.37.49a2.87,2.87,0,0,1-.32.4c-.11.08-.27,0-.38-.1l-.63-.51c-.05,0-.18-.22-.16-.28C22.32,3.35,22.83,2.7,23,2.32Z" style="fill:#b70027"/><path d="M23.16,2.85s.05-.09.09-.08l0,0c.1.12.2.24.29.37a.7.7,0,0,1,.13.3c0,.07-.11.14-.18.24l-.16.2c-.05,0-.13,0-.18,0l-.31-.25s-.09-.11-.08-.14S23.08,3,23.16,2.85Z" style="fill:#0c0a35"/><path d="M26.75,2.24c0-.08.11-.19.19-.15a.18.18,0,0,1,.07.05,5.48,5.48,0,0,1,.6.75,1.32,1.32,0,0,1,.27.62c0,.12-.22.28-.37.49s-.28.36-.32.39-.27,0-.39-.1l-.62-.5c-.05,0-.18-.22-.16-.29C26.08,3.27,26.59,2.62,26.75,2.24Z" style="fill:#b70027"/><path d="M26.92,2.77s0-.09.09-.07l0,0a2.69,2.69,0,0,1,.3.37.77.77,0,0,1,.13.3c0,.06-.11.14-.18.24a2.44,2.44,0,0,1-.16.19c-.06,0-.13,0-.19,0l-.3-.24s-.09-.11-.08-.15S26.84,3,26.92,2.77Z" style="fill:#0c0a35"/><path d="M19.87,11.6l-.25.11a1,1,0,0,0-.38.39,1,1,0,0,0-.15.53,1.1,1.1,0,0,0,.31.74,1.08,1.08,0,0,0,1.28.17l0,0a1,1,0,0,0,.37-1.41,1.39,1.39,0,0,0-.4-.4l.47.62h0a1.12,1.12,0,0,0-.47-.62,1,1,0,0,0-.8-.1Z" style="fill:#f70032"/><path d="M15,14.59c.66-.11,1.86-.05,2.16-.81a.63.63,0,0,0-.24-.87.72.72,0,0,0-.94.26.1.1,0,0,0,.08.15c.23,0,.49-.13.71,0s.09.53-.08.64a2.14,2.14,0,0,1-.66.22,9.94,9.94,0,0,0-1.05.35,0,0,0,0,0,0,.08Z" style="fill:#0c0a35"/><path d="M20.93,9.41c-.61-.55-3.61-1-3.63.28a.23.23,0,0,0,.16.21c.39.13.87-.16,1.26-.24a4.79,4.79,0,0,1,2,0,.18.18,0,0,0,.18-.29Z" style="fill:#0c0a35"/><path d="M15.16,5.15a3.1,3.1,0,0,0,0,1.25c0,.31.17.62.18.93a.45.45,0,0,0,.9,0A1.94,1.94,0,0,0,16,6.39c-.19-.42-.24-.88-.46-1.28a.19.19,0,0,0-.34,0Z" style="fill:#0c0a35"/><path d="M19.1,5.06a2.29,2.29,0,0,0-.27,1,3.89,3.89,0,0,0-.13,1.18c.09.53,1,.41.94-.13a11.43,11.43,0,0,0-.17-2,.21.21,0,0,0-.37-.05Z" style="fill:#0c0a35"/><path d="M23.11,5.27a17,17,0,0,0-.53,1.85c-.08.69,1.16.69,1.08,0a8.77,8.77,0,0,0-.1-1.85.23.23,0,0,0-.45,0Z" style="fill:#0c0a35"/><path d="M26.94,5.23a2,2,0,0,0-.41.73c-.11.32-.28.6-.36.93-.15.6.78.86.92.26a7.06,7.06,0,0,0,.19-.89,7.44,7.44,0,0,1,0-.81c.05-.21-.22-.4-.38-.22Z" style="fill:#0c0a35"/><path d="M15.67,8.71a1.75,1.75,0,0,0,.18.29c.08.17.34,0,.25-.15a1.12,1.12,0,0,1-.16-.22c-.07-.16-.33-.09-.27.08Z" style="fill:#990028"/><path d="M16.19,8.44a.45.45,0,0,0,0,.45.24.24,0,0,0,.25.1.23.23,0,0,0,.12-.35,1,1,0,0,0-.19-.22.13.13,0,0,0-.2,0Z" style="fill:#990028"/><path d="M16.76,8.3a.72.72,0,0,0,0,.25c0,.1.06.21.16.25a.18.18,0,0,0,.27-.1.53.53,0,0,0-.31-.52c-.08,0-.15.05-.15.12Z" style="fill:#990028"/><path d="M17.36,8.18c0,.18-.06.4.1.52a.18.18,0,0,0,.22,0,.29.29,0,0,0,0-.34.64.64,0,0,0-.2-.2.09.09,0,0,0-.14,0Z" style="fill:#990028"/><path d="M18.07,8.07c-.1,0-.14.13-.16.22a.33.33,0,0,0,.12.37.2.2,0,0,0,.26-.07.4.4,0,0,0,0-.34c0-.09-.1-.21-.21-.18Z" style="fill:#990028"/><path d="M18.65,8c-.12.05-.14.22-.15.33s.14.4.33.29.13-.27.08-.41-.12-.27-.26-.21Z" style="fill:#990028"/><path d="M19.27,8a.41.41,0,0,0,0,.63.17.17,0,0,0,.18,0c.15-.1.13-.23.1-.39s-.13-.28-.25-.24Z" style="fill:#990028"/><path d="M19.81,8a.5.5,0,0,0,0,.54.23.23,0,0,0,.41-.17A1.27,1.27,0,0,0,20,8a.15.15,0,0,0-.2,0Z" style="fill:#990028"/><path d="M20.44,8a.29.29,0,0,0-.12.27.41.41,0,0,0,.09.34.21.21,0,0,0,.33,0,.46.46,0,0,0,0-.38c0-.13-.15-.25-.29-.19Z" style="fill:#990028"/><path d="M21.05,8.05a.41.41,0,0,0-.06.58.15.15,0,0,0,.22,0,.31.31,0,0,0,.06-.31,1,1,0,0,0-.12-.26s-.08,0-.1,0Z" style="fill:#990028"/><path d="M21.51,8.13a.55.55,0,0,0,0,.45c.08.13.32.12.34,0a.71.71,0,0,0-.11-.43.12.12,0,0,0-.21,0Z" style="fill:#990028"/><path d="M22.18,8.05c-.09,0-.12.15-.14.23a.4.4,0,0,0,.14.39.2.2,0,0,0,.29-.12c.05-.12-.09-.59-.29-.5Z" style="fill:#990028"/><path d="M22.79,8.09a.47.47,0,0,0,0,.51.2.2,0,0,0,.36,0,.42.42,0,0,0-.22-.49.1.1,0,0,0-.1,0Z" style="fill:#990028"/><path d="M23.45,8.07a.34.34,0,0,0,0,.49.16.16,0,0,0,.2-.05.38.38,0,0,0-.15-.45.06.06,0,0,0-.09,0Z" style="fill:#990028"/><path d="M24,8c-.11.13-.16.45,0,.55s.1,0,.13,0,.1-.17.08-.3A.49.49,0,0,0,24.11,8,.09.09,0,0,0,24,8Z" style="fill:#990028"/><path d="M24.57,8l0,.18a.34.34,0,0,0,.07.32.2.2,0,0,0,.27,0,.34.34,0,0,0,.06-.35.37.37,0,0,0-.2-.24.14.14,0,0,0-.16.09Z" style="fill:#990028"/><path d="M25.21,7.92a1.71,1.71,0,0,0-.07.21.35.35,0,0,0,.07.33.16.16,0,0,0,.26-.07.76.76,0,0,0,0-.26c0-.08-.05-.14-.07-.21a.09.09,0,0,0-.17,0Z" style="fill:#990028"/><path d="M25.89,7.81c-.18.07-.18.31-.16.47s.08.11.14.13a.16.16,0,0,0,.15,0,.17.17,0,0,0,.1-.17.46.46,0,0,0-.06-.3s-.1-.14-.17-.11Z" style="fill:#990028"/><path d="M26.46,7.91c-.05.13-.18.36,0,.48a.13.13,0,0,0,.15,0c.2-.09.12-.39,0-.54s-.13,0-.16,0Z" style="fill:#990028"/><path d="M27,7.86c-.11.13-.27.4-.09.55a.15.15,0,0,0,.18,0,.41.41,0,0,0,.05-.56.09.09,0,0,0-.14,0Z" style="fill:#990028"/><path d="M27.58,8a1,1,0,0,0-.16.33.18.18,0,0,0,.34.09.55.55,0,0,0,0-.4.09.09,0,0,0-.15,0Z" style="fill:#990028"/><path d="M15.52,7.29A.23.23,0,0,0,16,7.17c-.08-.3-.55-.16-.45.12Z" style="fill:#f70032"/><path d="M15.6,6.84a.19.19,0,1,0,0-.39.19.19,0,0,0,0,.39Z" style="fill:#f70032"/><path d="M15.48,6.26a.14.14,0,0,0,0-.28.14.14,0,0,0,0,.28Z" style="fill:#f70032"/><path d="M19.18,7.36a.27.27,0,0,0,0-.53.27.27,0,0,0,0,.53Z" style="fill:#f70032"/><path d="M19.19,6.7a.18.18,0,0,0,0-.36.18.18,0,1,0,0,.36Z" style="fill:#f70032"/><path d="M19.22,6.2a.12.12,0,0,0,0-.23.12.12,0,0,0,0,.23Z" style="fill:#f70032"/><path d="M23.11,7.41a.25.25,0,0,0,0-.5.25.25,0,0,0,0,.5Z" style="fill:#f70032"/><path d="M23.22,6.7a.17.17,0,0,0,0-.33.17.17,0,0,0,0,.33Z" style="fill:#f70032"/><path d="M23.24,6.2a.1.1,0,0,0,0-.19.1.1,0,0,0,0,.19Z" style="fill:#f70032"/><path d="M26.66,7.17a.22.22,0,0,0,0-.43.22.22,0,0,0,0,.43Z" style="fill:#f70032"/><path d="M26.84,6.63a.16.16,0,0,0,0-.31.16.16,0,0,0,0,.31Z" style="fill:#f70032"/><path d="M27,6h0c-.11,0-.12.2,0,.13h0c.06,0,0-.11,0-.13Z" style="fill:#f70032"/><path d="M13.91,20c-.33,0-.58.29-.81.51a4.61,4.61,0,0,0-.88.94c-.24.4.35.88.65.51a11.13,11.13,0,0,0,1.19-1.71.17.17,0,0,0-.15-.25Z" style="fill:#f70032"/><path d="M14.81,21.36a2.27,2.27,0,0,1-.26.28,3.42,3.42,0,0,0-.36.4c-.21.27-.51.66-.37,1a.46.46,0,0,0,.88,0,8.3,8.3,0,0,1,.58-1.42c.16-.32-.31-.6-.47-.28Z" style="fill:#f70032"/><path d="M18.32,22.9a1.12,1.12,0,0,0-.07.88.35.35,0,0,0,.69-.09,1.64,1.64,0,0,0-.31-.79.18.18,0,0,0-.31,0Z" style="fill:#f70032"/><path d="M22.13,20.8c-.12.46.18.84.29,1.27s.42,1.06,1,.93a.54.54,0,0,0,.38-.65,1.12,1.12,0,0,0-.21-.38c-.07-.12-.13-.26-.21-.38a4.22,4.22,0,0,0-.85-.89.24.24,0,0,0-.4.1Z" style="fill:#f70032"/><path d="M25.05,19.43a1.84,1.84,0,0,0,.42,1.08,4.53,4.53,0,0,0,1,1.1.58.58,0,1,0,.58-1c-.32-.23-.61-.52-.92-.78s-.57-.55-.92-.55a.21.21,0,0,0-.2.15Z" style="fill:#f70032"/><path d="M18.71,24.93a.32.32,0,0,0,0-.64.32.32,0,0,0,0,.64Z" style="fill:#0c0a35"/><path d="M13.91,24.12a.32.32,0,0,0,0-.64.32.32,0,0,0,0,.64Z" style="fill:#0c0a35"/><path d="M10.31,22.85a.32.32,0,0,0,.32-.32.32.32,0,0,0-.64,0,.32.32,0,0,0,.32.32Z" style="fill:#0c0a35"/><path d="M23.59,23.87a.42.42,0,0,0,0-.83.42.42,0,0,0,0,.83Z" style="fill:#0c0a35"/><path d="M27.05,22.54a.4.4,0,0,0,.4-.11.41.41,0,1,0-.65-.5.43.43,0,0,0,.25.61Z" style="fill:#0c0a35"/><path d="M28.64,21.49a.4.4,0,0,0,.4-.11.42.42,0,0,0-.08-.65.42.42,0,1,0-.32.76Z" style="fill:#0c0a35"/><path d="M19.54,23.13a.11.11,0,0,0-.08.08.17.17,0,0,0,.23.23h-.11a.17.17,0,0,0,.23-.17.18.18,0,0,0-.27-.15Z" style="fill:#f70032"/><path d="M20.28,23.1a.17.17,0,0,0,0-.34.17.17,0,0,0,0,.34Z" style="fill:#f70032"/><path d="M21.07,23a.2.2,0,0,0,0-.39.2.2,0,0,0,0,.39Z" style="fill:#f70032"/><path d="M21.69,23.05h0a.15.15,0,0,0,.2-.15.16.16,0,0,0-.2-.15h0a.15.15,0,0,0,0,.28Z" style="fill:#f70032"/><path d="M22.15,23v0a.21.21,0,0,0,0,.23h0a.19.19,0,0,0,.31-.08.28.28,0,0,0,0-.13.19.19,0,0,0-.34-.05Z" style="fill:#f70032"/><path d="M24.19,22.58a.14.14,0,1,0,0-.28.14.14,0,0,0,0,.28Z" style="fill:#f70032"/><path d="M24.54,22.14a.17.17,0,0,0,0-.33.17.17,0,0,0,0,.33Z" style="fill:#f70032"/><path d="M25.24,21.78h0c.13,0,.26-.14.14-.25a.33.33,0,0,0-.1-.06.16.16,0,0,0-.2.15.17.17,0,0,0,.2.16Z" style="fill:#f70032"/><path d="M25.89,21.83a.17.17,0,0,0,0-.34.17.17,0,0,0,0,.34Z" style="fill:#f70032"/><path d="M28.07,21.14a.16.16,0,1,0,0-.31.16.16,0,0,0,0,.31Z" style="fill:#f70032"/><path d="M18,24.2c.13,0,.13-.22,0-.22a.11.11,0,0,0,0,.22Z" style="fill:#f70032"/><path d="M17.31,24v0a.18.18,0,0,0,.3-.12.18.18,0,0,0-.3-.13v0a.14.14,0,0,0,0,.21Z" style="fill:#f70032"/><path d="M15.88,23.14a.16.16,0,0,0,0-.32.16.16,0,0,0,0,.32Z" style="fill:#f70032"/><path d="M15.18,23.23a.2.2,0,0,0,0-.39.2.2,0,0,0,0,.39Z" style="fill:#f70032"/><path d="M13.49,22.34a.16.16,0,0,0,0-.31.16.16,0,0,0,0,.31Z" style="fill:#f70032"/><path d="M11.58,21.66h0l.13-.05h0a.2.2,0,0,0-.14.34.2.2,0,0,0,.34-.14.28.28,0,0,0-.06-.16.18.18,0,0,0-.25,0Z" style="fill:#f70032"/><path d="M29.42,27.12a8,8,0,0,0,1.23-.94c.39-.33.24-1.17.52-1.85,0-.12.21-.13.33-.14A4.34,4.34,0,0,1,35,25.79a5.48,5.48,0,0,1,1.12,3.46A4.19,4.19,0,0,1,36,30.52c-.14.43-1.45,1.13-1.63,1.55a5.42,5.42,0,0,0,0,3.62c-1.3.28-1.74-.1-3.07-.17a.55.55,0,0,1-.61-.64c0-.65.25-1.33,0-1.92S29,32.5,27.89,31.3a2.2,2.2,0,0,1-.33-2.41A4.25,4.25,0,0,1,29.42,27.12Z" style="fill:#990028"/><path d="M30.26,29.75a2.62,2.62,0,0,1-.1,1.27c-.12.47-.14.55-.26.52a.1.1,0,0,1-.07,0l-1.18-.84a.6.6,0,0,1-.28-.9l.54-1.3a.59.59,0,0,1,0-.08.27.27,0,0,1,.33,0A4.86,4.86,0,0,1,30.26,29.75Z" style="fill:#0c0a35"/><path d="M31.06,30.78a2.07,2.07,0,0,1-.49-1.33c0-.1.4-.85.63-1.31a.23.23,0,0,1,.39,0c.26.37.45.94.68,1.28a.2.2,0,0,1,0,.18c-.15.73-.29,1.17-.45,1.93h0a.22.22,0,0,1-.43,0A4.44,4.44,0,0,0,31.06,30.78Z" style="fill:#0c0a35"/><path d="M33,31.23,32.83,30a1.82,1.82,0,0,1,0-.33c0-.41.69-1.13,1.06-1.44a.19.19,0,0,1,.3.09c.11.34.2.74.31,1.1a.79.79,0,0,1-.15.74,16.6,16.6,0,0,0-1.12,1.39.12.12,0,0,1-.21,0A1,1,0,0,1,33,31.23Z" style="fill:#0c0a35"/><path d="M29.19,29.54h0a.37.37,0,0,0,0,.63.35.35,0,0,0,.37,0,.38.38,0,0,0,.19-.31v0a.36.36,0,0,0-.54-.31Z" style="fill:#f70032"/><path d="M31.44,30.05a.36.36,0,0,0,0-.71.36.36,0,1,0,0,.71Z" style="fill:#f70032"/><path d="M33.68,30.11a.4.4,0,0,0,0-.79.4.4,0,0,0,0,.79Z" style="fill:#f70032"/><path d="M29.36,28.21a.3.3,0,0,0,0-.59.3.3,0,0,0,0,.59Z" style="fill:#b70027"/><path d="M31.34,27.92a.3.3,0,0,0,0-.59.3.3,0,0,0,0,.59Z" style="fill:#b70027"/><path d="M34,28.07a.38.38,0,1,0-.38-.38.38.38,0,0,0,.38.38Z" style="fill:#b70027"/><path d="M30,32.12a.26.26,0,0,0,0-.52.26.26,0,0,0,0,.52Z" style="fill:#b70027"/><path d="M31.7,32.41a.28.28,0,0,0,0-.56.28.28,0,0,0,0,.56Z" style="fill:#b70027"/><path d="M33.08,32.33a.32.32,0,0,0,0-.63.32.32,0,0,0,0,.63Z" style="fill:#b70027"/><path d="M21.19,2.89a2,2,0,0,1,.2.28c0,.06.1.17.19.12s.06-.06.05-.09c0-.18-.21-.32-.37-.41s-.11,0-.07.1Z" style="fill:#b70027"/><path d="M20.78,3.92a.42.42,0,0,0,.1.39.05.05,0,0,0,.09,0,.42.42,0,0,0,0-.15c0-.08,0-.16,0-.23a.1.1,0,0,0-.2,0Z" style="fill:#b70027"/><path d="M21.78,4.29c0,.12.09.29.22.33a.05.05,0,0,0,.07,0,2.2,2.2,0,0,0-.15-.31.07.07,0,0,0-.14,0Z" style="fill:#b70027"/><path d="M20.91,5.22c.08.13.15.32.3.39s.21,0,.17-.13A.81.81,0,0,0,21,5.11c-.07-.05-.15,0-.11.11Z" style="fill:#b70027"/><path d="M18.07,4.47c.12,0,.26,0,.39,0s0,0,0-.07a.68.68,0,0,0-.42,0,0,0,0,1,0,0,.08Z" style="fill:#b70027"/><path d="M17.85,5.45a.69.69,0,0,0-.24.21c-.05.06-.14.2-.06.27s.32-.34.37-.41,0-.09-.07-.07Z" style="fill:#b70027"/><path d="M24.49,4.43a.15.15,0,0,0-.13,0h0a.11.11,0,0,1,.12,0Z" style="fill:#b70027"/><path d="M24.46,4.35l.29.07.13,0a.2.2,0,0,0,.11,0s0,0,0,0c-.06-.19-.36-.17-.53-.17a.07.07,0,0,0,0,.14Z" style="fill:#b70027"/><path d="M25.51,4.1a.83.83,0,0,0,0,.35c0,.09,0,.28.17.29s.12-.13.09-.21a1.89,1.89,0,0,1-.1-.41c0-.08-.15-.12-.17,0Z" style="fill:#b70027"/><path d="M24.81,5.19a.58.58,0,0,0,0,.32.38.38,0,0,0,.15.3.11.11,0,0,0,.16-.07.62.62,0,0,0-.06-.3.59.59,0,0,0-.15-.28.06.06,0,0,0-.11,0Z" style="fill:#b70027"/><path d="M24.46,3.6c.05,0,.09,0,.12,0s0-.05,0-.07a.14.14,0,0,0-.12,0,.08.08,0,1,0,0,.15Z" style="fill:#b70027"/><path d="M23.72,37.72c-.52-.41-1.29-.11-1.81.3a3.69,3.69,0,0,1-1.66,1c-.65.07-1.25-.34-1.9-.4a1.88,1.88,0,0,0-1.49.53,4.69,4.69,0,0,1-.83.89c-.59.34-1.34,0-2,.08a2.64,2.64,0,0,0-1.44.79.32.32,0,0,0-.1.19.38.38,0,0,0,.25.33c.39.2.7.36,1.85,1.68.37.42.43,1.06.87,1.4a2.45,2.45,0,0,0,1.36.35,25.26,25.26,0,0,0,6.72-.51,9.7,9.7,0,0,0,2.54-.83,11,11,0,0,0,1.72-1.15c1-.78,2.62-1.69,3.17-2.86a3,3,0,0,1-2.21.34c-.3-.06-.75,0-.92-.28a6.44,6.44,0,0,1-.25-.66,1.13,1.13,0,0,0-1.26-.6c-.43.11-.79.48-1.23.48a1.47,1.47,0,0,1-1-.7A1.79,1.79,0,0,0,23.72,37.72Z" style="fill:#990028"/><path d="M17.21,53.44a2.79,2.79,0,0,0,2.26.93,10.17,10.17,0,0,0,4.4-.31,2.21,2.21,0,0,0,1.24-1,5.36,5.36,0,0,0,.26-.89,6,6,0,0,1,.74-1.55c.57-.94,1.14-1.88,1.7-2.82a.37.37,0,0,0,.08-.22c0-.19-.29-.21-.47-.18l-2,.32c0-.34.29-.62.33-.95.07-.64.31-1.12,0-1.68A2.88,2.88,0,0,0,23.26,44a4.87,4.87,0,0,0-2.1,1,15.28,15.28,0,0,0-3.24,3.38,5.81,5.81,0,0,0-.73,1.34A7.19,7.19,0,0,0,16.93,52,2.7,2.7,0,0,0,17.21,53.44Z" style="fill:#ffd6a1"/><path d="M18.15,48.68a9.47,9.47,0,0,0,2.77-1.43c.72-.53,1.61-.8,2.38-1.26s2.36-1.17,2.34.28c0,.23.57-.19.81-.22a.7.7,0,0,0,.43-.33c.29-.41.51-.64.45-1.13a3.16,3.16,0,0,0-.61-1.28A9.93,9.93,0,0,1,26,41.9l-1.23-2.4a2.22,2.22,0,0,0-.43-.62.67.67,0,0,0-.7-.13.92.92,0,0,0-.31.28,9,9,0,0,1-1.67,1.59A31.76,31.76,0,0,1,17,42.89c-1.55.77-3.06,2-3.42,3.67a3.7,3.7,0,0,0,.51,2.75,1,1,0,0,0,.36.35,1,1,0,0,0,.55,0A26.9,26.9,0,0,0,18.15,48.68Z" style="fill:#b70027"/><path d="M24.37,54.71a.51.51,0,0,1,0,.3,8.22,8.22,0,0,1-.15.84c-.21.94-.4,2.18-1.26,2.8a4.07,4.07,0,0,1-.95.43l-2.29.81c.12.19.16.35.27.52a.3.3,0,0,1,0,.34,5.51,5.51,0,0,0-.46.78.12.12,0,0,1-.22,0,6,6,0,0,0-.38-.71.42.42,0,0,1-.05-.39,2.41,2.41,0,0,0,.18-.54s-1.65-.5-2.11-.67a4.64,4.64,0,0,1-2.2-1.3,4.53,4.53,0,0,1-.6-1.23l-.49-1.32,3.67-.21c.49,0,1-.06,1.48-.06H20c1.42-.06,2.81-.52,4.23-.47a.19.19,0,0,1,.13.05C24.38,54.71,24.43,54.7,24.37,54.71Z" style="fill:#990028"/><path d="M23.71,51.29a2.72,2.72,0,0,1-1.62.84,1.81,1.81,0,0,1-1.88-.61A3.66,3.66,0,0,1,22.79,51,2.29,2.29,0,0,1,23.71,51.29Z" style="fill:#fff"/><path d="M22.43,51.82a.59.59,0,0,0,.06-.45.58.58,0,0,0-.41-.41.54.54,0,0,0-.62.25.56.56,0,0,0,.08.67.41.41,0,0,0,.13.1c.17.07.18.08,0,0l-.19-.2v0a.55.55,0,0,0,.45.26.53.53,0,0,0,.46-.26Z" style="fill:#0c0a35"/><g style="clip-path:url(#clip-path-4)"><path d="M26.49,47.24c0-1,.19-2,.19-2.94s-.12-2-.15-3c0-.09-.14-.11-.16,0a12.15,12.15,0,0,0-.14,2.63c.05,1.11,0,2.22,0,3.32a.12.12,0,0,0,.24,0Z" style="fill:#0c0a35"/><path d="M25.46,47.5c.05-.69.19-1.37.23-2.07s0-1.71,0-2.56c.05-1.49.4-3.19,0-4.65,0-.09-.19-.1-.21,0a23.64,23.64,0,0,0-.21,4.29c0,1.66,0,3.33,0,5a.08.08,0,1,0,.16,0Z" style="fill:#0c0a35"/><path d="M24.84,47.25a46.83,46.83,0,0,0-.51-11c0-.09-.15-.06-.16,0a47.32,47.32,0,0,0,.24,5.45c.05,1.84,0,3.67.23,5.5a.1.1,0,0,0,.2,0Z" style="fill:#0c0a35"/><path d="M23.85,47.43a47.38,47.38,0,0,0-.52-11c0-.09-.15-.06-.15,0a49.6,49.6,0,0,0,.23,5.44c.06,1.85.05,3.67.24,5.51a.1.1,0,0,0,.2,0Z" style="fill:#0c0a35"/><path d="M23.19,47.39a28.06,28.06,0,0,0-.35-5.86,15.14,15.14,0,0,0-1-4.82c0-.07-.14,0-.14,0,.11,1.7.44,3.42.63,5.12.22,1.85.39,3.71.67,5.55,0,.09.15.06.15,0Z" style="fill:#0c0a35"/><path d="M22.28,48.33a10.16,10.16,0,0,0,.1-2.7,24.15,24.15,0,0,0-.27-3.06c-.17-1.11-.42-2.2-.61-3.31-.12-.75,0-1.65-.54-2.25-.06-.06-.19,0-.18.07.21,1.65.43,3.25.74,4.88.21,1.09.33,2.19.44,3.3a16.56,16.56,0,0,1,.25,3.06,0,0,0,0,0,.07,0Z" style="fill:#0c0a35"/><path d="M21.72,48.39a14.22,14.22,0,0,0,0-2.69c-.1-.79-.3-1.58-.45-2.37a32.31,32.31,0,0,0-1.41-5.68c0-.08-.17-.08-.16,0a44.12,44.12,0,0,0,1.06,5.43c.18.88.39,1.77.57,2.66s.15,1.77.31,2.64c0,0,0,0,0,0Z" style="fill:#0c0a35"/><path d="M20.73,48.58c.41-1.31-.15-2.91-.5-4.18-.46-1.74-1-3.44-1.5-5.18a.1.1,0,0,0-.19,0,3.44,3.44,0,0,0,.18,1.52c.21.8.43,1.59.67,2.38s.51,1.63.74,2.45a6.13,6.13,0,0,1,.46,3,.07.07,0,0,0,.14,0Z" style="fill:#0c0a35"/><path d="M19.92,49.6a4,4,0,0,0,0-1.89,20.72,20.72,0,0,0-.75-3.11,44.59,44.59,0,0,0-2-5.62c0-.08-.17,0-.17.05a10.09,10.09,0,0,0,.59,2.33c.26.91.59,1.8.92,2.68s.59,1.81.82,2.73a8.8,8.8,0,0,1,.5,2.81c0,.06.08.06.09,0Z" style="fill:#0c0a35"/><path d="M19.15,49.65a15.43,15.43,0,0,0-.93-4.53,29.55,29.55,0,0,0-1.74-4.94c-.05-.1-.18,0-.16.07.48,3.23,2.39,6.13,2.66,9.4a.09.09,0,0,0,.17,0Z" style="fill:#0c0a35"/><path d="M17.83,49.92a12.68,12.68,0,0,0-1-4.77c-.27-.76-.61-1.49-.89-2.25-.22-.59-.19-1.23-.62-1.72-.08-.09-.2,0-.19.11.49,3,2.06,5.64,2.54,8.65,0,.09.14.06.14,0Z" style="fill:#0c0a35"/><path d="M16.61,50.64c.29-3-1.25-5.64-2.47-8.29,0-.08-.15,0-.14.06a19.54,19.54,0,0,0,1.47,4,24.18,24.18,0,0,1,1,4.27c0,.06.09,0,.1,0Z" style="fill:#0c0a35"/><path d="M15.47,50.66c.31-1.23-.32-2.79-.71-3.94a15.56,15.56,0,0,0-1.86-4.3c-.06-.07-.21-.06-.19,0A16.21,16.21,0,0,0,14,46.18c.26.66.5,1.34.73,2a5.63,5.63,0,0,1,.55,2.43c0,.1.15.12.18,0Z" style="fill:#0c0a35"/><path d="M14.46,50.85c.19-2.43-1.57-4.7-2.53-6.8,0-.08-.15,0-.14.06A9.14,9.14,0,0,0,13,47a12.58,12.58,0,0,1,1.33,3.85c0,.08.14.05.14,0Z" style="fill:#0c0a35"/></g><path d="M27.79,45.37a3.79,3.79,0,0,1-2,2.29,2.67,2.67,0,0,1-1.26.38,2.92,2.92,0,0,1-1.22-.51A5.2,5.2,0,0,1,21.56,46a6.16,6.16,0,0,1,3.43.61A7.06,7.06,0,0,1,27.79,45.37Z" style="fill:#b70027"/><g style="clip-path:url(#clip-path-5)"><path d="M26.64,49.12A17.92,17.92,0,0,0,28,43.62c0-.1-.14-.12-.16,0-.47,1.83-.78,3.68-1.36,5.48a.08.08,0,0,0,.15,0Z" style="fill:#0c0a35"/><path d="M25.91,49.2a15,15,0,0,0,1.46-6.11c0-.09-.14-.14-.18-.05a13.82,13.82,0,0,0-.55,2.57,15.55,15.55,0,0,1-.87,3.51c0,.1.09.18.14.08Z" style="fill:#0c0a35"/><path d="M25.12,49.62a28.37,28.37,0,0,0,.87-3,23.45,23.45,0,0,0,.73-3.06c0-.12-.15-.14-.2-.06-1.05,1.71-1.21,4.12-1.55,6.07a.08.08,0,0,0,.15,0Z" style="fill:#0c0a35"/><path d="M24.78,49.83a34.3,34.3,0,0,0-.34-5.9c0-.1-.15-.06-.16,0a33.94,33.94,0,0,0,.32,5.87.09.09,0,1,0,.18,0Z" style="fill:#0c0a35"/><path d="M24,49.72c0-1.23-.14-2.43-.23-3.65a5.55,5.55,0,0,0-.63-2.66.09.09,0,0,0-.16.07,25.33,25.33,0,0,1,.35,2.89c.11,1.12.35,2.23.48,3.35a.1.1,0,0,0,.19,0Z" style="fill:#0c0a35"/><path d="M23.27,49a16,16,0,0,0-.5-3.15,13.18,13.18,0,0,0-.58-3.21.1.1,0,0,0-.19.05c0,2.15.92,4.19,1.06,6.31,0,.14.22.14.21,0Z" style="fill:#0c0a35"/><path d="M22.39,48.42a16,16,0,0,0-.5-3.15,13.27,13.27,0,0,0-.58-3.21.1.1,0,0,0-.19,0c0,2.15.92,4.18,1.06,6.31,0,.14.22.14.21,0Z" style="fill:#0c0a35"/></g><path d="M19.53,54.13c-.23-1.06-.45-2.11-.68-3.16a14,14,0,0,1-.44-3.4.19.19,0,0,0-.24-.2c-2.32.47-4.38,1.84-6.59,2.71a.19.19,0,0,0-.07.3,6.89,6.89,0,0,1,1.85,3.79.19.19,0,0,0,.19.16l5.77-.19C19.49,54.13,19.64,54.25,19.53,54.13Z" style="fill:#b70027"/><g style="clip-path:url(#clip-path-6)"><path d="M19.24,54.9a52.09,52.09,0,0,0-1-5.37c-.26-1.3-.22-3.45-1.31-4.37a.12.12,0,0,0-.2.11c.11.67.44,1.32.61,2s.3,1.6.46,2.4.37,1.83.56,2.75.54,1.67.74,2.52c0,.06.11,0,.1,0Z" style="fill:#0c0a35"/><path d="M18.48,55.25a20,20,0,0,0-.9-5.08c-.43-1.57-.39-3.58-1.31-5a.13.13,0,0,0-.24,0,3,3,0,0,0,.29,1.55c.3.91.4,1.9.61,2.84a43.54,43.54,0,0,1,1.36,5.63.1.1,0,0,0,.19,0Z" style="fill:#0c0a35"/><path d="M17.62,55.48c-.43-1.75-.61-3.51-1.18-5.23-.3-.9-.55-1.82-.82-2.73a2.27,2.27,0,0,0-.79-1.39c-.06-.05-.17,0-.14.11.53,1.47.84,3,1.33,4.49s.63,3.4,1.43,4.82a.09.09,0,0,0,.17-.07Z" style="fill:#0c0a35"/><path d="M16.41,55.68a12.62,12.62,0,0,0-.84-4.78c-.3-.88-.62-1.75-.89-2.64a7.81,7.81,0,0,0-.92-2.3.13.13,0,0,0-.24.1,25,25,0,0,0,1.41,4.66,27.61,27.61,0,0,1,1.29,5c0,.12.19.08.19,0Z" style="fill:#0c0a35"/><path d="M15.38,55.8A17.32,17.32,0,0,0,14,50.3c-.42-1.21-.3-3.42-1.47-4.19-.08,0-.16,0-.15.12.14.68.41,1.33.55,2a16.7,16.7,0,0,0,.55,2.19,23.09,23.09,0,0,1,1.65,5.36.15.15,0,0,0,.3,0Z" style="fill:#0c0a35"/><path d="M14.17,55.83a7.89,7.89,0,0,0-.72-4.35c-.32-.79-.66-1.57-1-2.35a7.54,7.54,0,0,0-1.06-2.3c-.07-.08-.19,0-.2.09-.13,1.23.89,2.81,1.38,3.92.67,1.52,1.54,3.25,1.35,4.95,0,.14.22.17.24,0Z" style="fill:#0c0a35"/></g><path d="M26.48,55.73A12.31,12.31,0,0,0,26,57.82c0,.08-.07.18-.14.14s0,0-.05,0A29.84,29.84,0,0,1,23.59,55s-.07,0-.08,0l-1.73,3s0,.06-.08.06a17.65,17.65,0,0,1-1.25-2.25,1.18,1.18,0,0,0-.51-.64.1.1,0,0,0-.12,0A29.14,29.14,0,0,0,17.68,58l-1.4-2.5c0-.07-.09-.14-.16-.12s-.05,0-.07.06c-.71.84-1.36,1.86-2,2.74a.05.05,0,0,1-.09,0,1.86,1.86,0,0,0-.29-.56c-.29-.46-.87-1.65-.93-1.72a.48.48,0,0,1-.07-.5c.13-.26.25-1.54.56-1.73a2.06,2.06,0,0,1,.75-.06c2.17.16,4.35-.27,6.52-.19.71,0,1.41.1,2.12.08A13.15,13.15,0,0,0,25.22,53a13.34,13.34,0,0,1,1.5,1.1C27.14,54.47,26.66,55.29,26.48,55.73Z" style="fill:#f70032"/><path d="M26.21,59.78c0,.09-.11.19-.2.16l-.06,0a7,7,0,0,1-.6-.75,1.32,1.32,0,0,1-.27-.62c0-.12.22-.28.37-.49a3.64,3.64,0,0,1,.32-.4c.11-.08.27,0,.38.1l.63.51s.18.22.16.29C26.88,58.76,26.37,59.41,26.21,59.78Z" style="fill:#b70027"/><path d="M26,59.26s-.05.09-.09.07l0,0a3.47,3.47,0,0,1-.3-.37.7.7,0,0,1-.13-.3c0-.06.11-.14.18-.24l.16-.2c.05,0,.13,0,.19,0l.3.25s.09.11.08.14S26.12,59.07,26,59.26Z" style="fill:#0c0a35"/><path d="M22,60c0,.09-.11.19-.2.16l-.06-.05a6.26,6.26,0,0,1-.6-.76,1.24,1.24,0,0,1-.27-.61c0-.13.22-.28.37-.49a2.87,2.87,0,0,1,.32-.4c.11-.08.27,0,.38.1l.62.51c.06,0,.19.22.17.29S22.12,59.64,22,60Z" style="fill:#b70027"/><path d="M21.79,59.48c0,.05-.05.1-.09.08a0,0,0,0,1,0,0,3.47,3.47,0,0,1-.3-.37.7.7,0,0,1-.13-.3c0-.06.11-.14.18-.24l.16-.2c.05,0,.13,0,.19,0l.3.25s.09.11.08.14S21.87,59.3,21.79,59.48Z" style="fill:#0c0a35"/><path d="M18.06,59.87c0,.08-.11.18-.2.15L17.8,60a6.16,6.16,0,0,1-.6-.75,1.32,1.32,0,0,1-.27-.62c0-.12.22-.28.37-.49a2.65,2.65,0,0,1,.32-.39c.11-.09.27,0,.38.1l.62.5c.06,0,.18.22.17.29C18.73,58.84,18.22,59.49,18.06,59.87Z" style="fill:#b70027"/><path d="M17.89,59.34s-.05.09-.09.07,0,0,0,0a2.69,2.69,0,0,1-.3-.37.6.6,0,0,1-.13-.3c0-.06.11-.14.18-.24a1.26,1.26,0,0,1,.16-.19c.05,0,.13,0,.19.05l.3.24s.09.11.08.14S18,59.15,17.89,59.34Z" style="fill:#0c0a35"/><path d="M14.3,59.94c0,.09-.11.19-.19.16a.18.18,0,0,1-.07-.05,6.26,6.26,0,0,1-.6-.76,1.24,1.24,0,0,1-.27-.61c0-.12.22-.28.37-.49a3.87,3.87,0,0,1,.32-.4c.11-.08.27,0,.38.1l.63.51c.05,0,.18.22.16.29S14.46,59.57,14.3,59.94Z" style="fill:#b70027"/><path d="M14.13,59.41s-.05.1-.09.08l0,0a3.47,3.47,0,0,1-.3-.37.7.7,0,0,1-.13-.3c0-.06.11-.14.18-.24a2.44,2.44,0,0,1,.16-.19c.06,0,.13,0,.19,0l.3.25s.09.11.08.14S14.21,59.23,14.13,59.41Z" style="fill:#0c0a35"/><path d="M21.18,50.58l.25-.1a1.09,1.09,0,0,0,.38-.39,1,1,0,0,0,.15-.53,1.06,1.06,0,0,0-.31-.74,1,1,0,0,0-1.28-.17h0A1,1,0,0,0,20,50.07a1.31,1.31,0,0,0,.4.41c-.15-.21-.31-.42-.47-.62h0a1.1,1.1,0,0,0,.47.61,1,1,0,0,0,.8.1Z" style="fill:#f70032"/><path d="M26.08,47.6c-.66.11-1.86,0-2.16.81a.62.62,0,0,0,.24.86A.71.71,0,0,0,25.1,49c0-.06,0-.15-.08-.14s-.49.12-.71,0-.09-.52.08-.63a1.91,1.91,0,0,1,.66-.22,9.23,9.23,0,0,0,1.05-.35,0,0,0,0,0,0-.08Z" style="fill:#0c0a35"/><path d="M20.12,52.78c.61.55,3.61,1,3.63-.28a.23.23,0,0,0-.16-.21c-.39-.14-.87.16-1.26.24a4.85,4.85,0,0,1-2-.05.18.18,0,0,0-.17.3Z" style="fill:#0c0a35"/><path d="M25.89,57a3.1,3.1,0,0,0,0-1.25c0-.31-.17-.61-.18-.92a.45.45,0,0,0-.9,0,2,2,0,0,0,.28.94c.19.41.24.87.46,1.28a.19.19,0,0,0,.34,0Z" style="fill:#0c0a35"/><path d="M22,57.12a2.21,2.21,0,0,0,.27-1,4,4,0,0,0,.13-1.18c-.09-.53-1-.41-.94.13a11.4,11.4,0,0,0,.17,2,.2.2,0,0,0,.37,0Z" style="fill:#0c0a35"/><path d="M17.94,56.92a17,17,0,0,0,.53-1.85c.08-.69-1.16-.69-1.08,0a8.77,8.77,0,0,0,.1,1.85.24.24,0,0,0,.45,0Z" style="fill:#0c0a35"/><path d="M14.11,57a2.07,2.07,0,0,0,.41-.74c.11-.31.28-.6.36-.92.15-.61-.78-.86-.92-.26a6.56,6.56,0,0,0-.19.88,7.2,7.2,0,0,1,0,.81c-.05.22.22.41.38.23Z" style="fill:#0c0a35"/><path d="M25.38,53.48a1.75,1.75,0,0,0-.18-.29c-.08-.17-.34,0-.25.14s.13.14.16.22.33.1.27-.07Z" style="fill:#990028"/><path d="M24.86,53.74a.45.45,0,0,0,0-.45.24.24,0,0,0-.25-.1.23.23,0,0,0-.12.35,1.06,1.06,0,0,0,.19.23.13.13,0,0,0,.2,0Z" style="fill:#990028"/><path d="M24.29,53.88a.72.72,0,0,0,0-.25.36.36,0,0,0-.16-.25.2.2,0,0,0-.27.11.51.51,0,0,0,.31.51c.08,0,.15,0,.15-.12Z" style="fill:#990028"/><path d="M23.69,54c0-.17.06-.4-.1-.51a.18.18,0,0,0-.22,0,.29.29,0,0,0,0,.33.58.58,0,0,0,.2.21.1.1,0,0,0,.14-.06Z" style="fill:#990028"/><path d="M23,54.12c.1,0,.14-.14.16-.23a.31.31,0,0,0-.12-.36.18.18,0,0,0-.26.06.43.43,0,0,0,0,.35c0,.09.1.2.21.18Z" style="fill:#990028"/><path d="M22.4,54.19c.12,0,.14-.23.15-.34s-.14-.4-.33-.29-.13.27-.08.41.12.28.26.22Z" style="fill:#990028"/><path d="M21.78,54.21a.41.41,0,0,0,0-.63.23.23,0,0,0-.18,0c-.15.11-.13.24-.1.39s.12.29.25.24Z" style="fill:#990028"/><path d="M21.24,54.17a.5.5,0,0,0,0-.54.23.23,0,0,0-.41.18,1.22,1.22,0,0,0,.18.36.13.13,0,0,0,.2,0Z" style="fill:#990028"/><path d="M20.61,54.19c.1,0,.11-.17.12-.27a.42.42,0,0,0-.09-.34.22.22,0,0,0-.33,0,.48.48,0,0,0,0,.39c0,.12.15.24.29.18Z" style="fill:#990028"/><path d="M20,54.13a.41.41,0,0,0,.06-.58c-.06,0-.17-.07-.22,0a.31.31,0,0,0-.06.31.77.77,0,0,0,.12.26.08.08,0,0,0,.1,0Z" style="fill:#990028"/><path d="M19.54,54.05a.51.51,0,0,0,0-.45c-.08-.13-.32-.12-.34,0a.75.75,0,0,0,.11.43c.05.1.18.05.21,0Z" style="fill:#990028"/><path d="M18.87,54.13A.3.3,0,0,0,19,53.9a.41.41,0,0,0-.14-.39.2.2,0,0,0-.29.12c0,.13.09.59.29.5Z" style="fill:#990028"/><path d="M18.26,54.1a.45.45,0,0,0,0-.51.19.19,0,0,0-.35,0,.43.43,0,0,0,.22.5.1.1,0,0,0,.1,0Z" style="fill:#990028"/><path d="M17.6,54.12c.11-.11.12-.42,0-.49a.16.16,0,0,0-.2,0,.38.38,0,0,0,.15.45.1.1,0,0,0,.09,0Z" style="fill:#990028"/><path d="M17,54.19c.11-.13.16-.45,0-.54a.1.1,0,0,0-.13,0c-.11.08-.1.17-.08.29a.45.45,0,0,0,.12.25.08.08,0,0,0,.1,0Z" style="fill:#990028"/><path d="M16.48,54.2s0-.13,0-.17a.33.33,0,0,0-.07-.32.2.2,0,0,0-.27,0,.3.3,0,0,0-.06.34.33.33,0,0,0,.2.24.13.13,0,0,0,.16-.09Z" style="fill:#990028"/><path d="M15.84,54.27a1.44,1.44,0,0,0,.07-.22.36.36,0,0,0-.07-.33.16.16,0,0,0-.26.07.76.76,0,0,0,0,.26c0,.08.05.15.07.22a.09.09,0,0,0,.17,0Z" style="fill:#990028"/><path d="M15.16,54.38c.18-.07.18-.31.16-.47a.2.2,0,0,0-.14-.14.19.19,0,0,0-.15,0,.19.19,0,0,0-.1.17.47.47,0,0,0,.06.31s.1.13.17.11Z" style="fill:#990028"/><path d="M14.59,54.28c.05-.14.18-.37,0-.49a.14.14,0,0,0-.16,0c-.18.09-.11.39,0,.53s.13.05.16,0Z" style="fill:#990028"/><path d="M14,54.33c.11-.13.27-.4.09-.55a.14.14,0,0,0-.18,0,.42.42,0,0,0,0,.56.09.09,0,0,0,.14,0Z" style="fill:#990028"/><path d="M13.47,54.23a1,1,0,0,0,.16-.33.18.18,0,0,0-.34-.09.55.55,0,0,0,0,.4.09.09,0,0,0,.15,0Z" style="fill:#990028"/><path d="M25.53,54.89a.23.23,0,0,0-.45.13.23.23,0,0,0,.45-.13Z" style="fill:#f70032"/><path d="M25.45,55.34a.2.2,0,0,0,0,.4.2.2,0,0,0,0-.4Z" style="fill:#f70032"/><path d="M25.57,55.93a.13.13,0,0,0,0,.27.13.13,0,0,0,0-.27Z" style="fill:#f70032"/><path d="M21.87,54.83a.26.26,0,0,0,0,.52.26.26,0,0,0,0-.52Z" style="fill:#f70032"/><path d="M21.86,55.48a.19.19,0,0,0,0,.37.19.19,0,0,0,0-.37Z" style="fill:#f70032"/><path d="M21.83,56a.12.12,0,0,0,0,.23.12.12,0,0,0,0-.23Z" style="fill:#f70032"/><path d="M17.93,54.77a.26.26,0,0,0,0,.51.26.26,0,0,0,0-.51Z" style="fill:#f70032"/><path d="M17.83,55.49a.16.16,0,0,0,0,.32.16.16,0,0,0,0-.32Z" style="fill:#f70032"/><path d="M17.81,56a.09.09,0,1,0,0,.18.09.09,0,0,0,0-.18Z" style="fill:#f70032"/><path d="M14.39,55a.21.21,0,1,0,0,.42.21.21,0,0,0,0-.42Z" style="fill:#f70032"/><path d="M14.21,55.56a.15.15,0,0,0,0,.3.15.15,0,0,0,0-.3Z" style="fill:#f70032"/><path d="M14.07,56.15h0c.11.05.12-.2,0-.14h0c-.06,0,0,.1,0,.13Z" style="fill:#f70032"/><path d="M27.14,42.18c.33,0,.58-.3.81-.51a4.67,4.67,0,0,0,.88-1c.24-.39-.35-.88-.65-.5A11,11,0,0,0,27,41.92a.17.17,0,0,0,.15.26Z" style="fill:#f70032"/><path d="M26.24,40.83a1.39,1.39,0,0,1,.26-.28,3.52,3.52,0,0,0,.36-.41c.21-.26.51-.66.37-1a.46.46,0,0,0-.88,0,8.08,8.08,0,0,1-.58,1.43c-.16.31.31.59.47.28Z" style="fill:#f70032"/><path d="M22.73,39.29a1.14,1.14,0,0,0,.07-.89.35.35,0,0,0-.69.1,1.64,1.64,0,0,0,.31.79.19.19,0,0,0,.31,0Z" style="fill:#f70032"/><path d="M18.92,41.38c.12-.46-.18-.84-.29-1.26s-.42-1.07-1-.94a.56.56,0,0,0-.38.66,1.16,1.16,0,0,0,.21.37c.07.13.13.26.21.39a4.47,4.47,0,0,0,.85.89.24.24,0,0,0,.4-.11Z" style="fill:#f70032"/><path d="M16,42.76a1.84,1.84,0,0,0-.42-1.08,4.36,4.36,0,0,0-1-1.1.58.58,0,0,0-.79.21.59.59,0,0,0,.21.79c.32.23.61.51.92.78s.57.54.92.55a.21.21,0,0,0,.2-.15Z" style="fill:#f70032"/><path d="M22.34,37.26a.32.32,0,0,0,0,.63.32.32,0,1,0,0-.63Z" style="fill:#0c0a35"/><path d="M27.14,38.06a.33.33,0,1,0,.32.32.32.32,0,0,0-.32-.32Z" style="fill:#0c0a35"/><path d="M30.74,39.33a.33.33,0,0,0-.32.32.32.32,0,0,0,.32.32.32.32,0,0,0,.32-.32.32.32,0,0,0-.32-.32Z" style="fill:#0c0a35"/><path d="M17.46,38.32a.41.41,0,0,0-.41.41.41.41,0,0,0,.41.41.42.42,0,0,0,.41-.41.41.41,0,0,0-.41-.41Z" style="fill:#0c0a35"/><path d="M14,39.65a.38.38,0,0,0-.4.11.42.42,0,0,0,.08.65.43.43,0,0,0,.57-.15.42.42,0,0,0-.25-.61Z" style="fill:#0c0a35"/><path d="M12.41,40.7a.37.37,0,0,0-.4.1.42.42,0,1,0,.65.51.42.42,0,0,0-.25-.61Z" style="fill:#0c0a35"/><path d="M21.51,39.06a.14.14,0,0,0,.08-.09.17.17,0,0,0-.23-.23h0l.13,0h0a.18.18,0,1,0,0,.33Z" style="fill:#f70032"/><path d="M20.77,39.09a.16.16,0,0,0,0,.33.16.16,0,0,0,0-.33Z" style="fill:#f70032"/><path d="M20,39.17a.2.2,0,0,0,0,.4.2.2,0,0,0,0-.4Z" style="fill:#f70032"/><path d="M19.36,39.13h0a.16.16,0,0,0-.2.15.16.16,0,0,0,.2.16l0,0a.15.15,0,0,0,0-.28Z" style="fill:#f70032"/><path d="M18.89,39.2l0,0a.2.2,0,0,0,0-.23h0a.19.19,0,0,0-.31.08.33.33,0,0,0,0,.14.18.18,0,0,0,.33,0Z" style="fill:#f70032"/><path d="M16.86,39.6a.15.15,0,0,0,0,.29.15.15,0,0,0,0-.29Z" style="fill:#f70032"/><path d="M16.51,40a.17.17,0,0,0,0,.34.17.17,0,0,0,0-.34Z" style="fill:#f70032"/><path d="M15.81,40.41h0c-.13,0-.26.13-.14.24a.21.21,0,0,0,.1.06c.1,0,.2-.05.2-.15a.16.16,0,0,0-.2-.15Z" style="fill:#f70032"/><path d="M15.16,40.36a.17.17,0,0,0,0,.34.17.17,0,0,0,0-.34Z" style="fill:#f70032"/><path d="M13,41a.16.16,0,0,0,0,.32A.16.16,0,0,0,13,41Z" style="fill:#f70032"/><path d="M23.08,38a.11.11,0,0,0,0,.21.11.11,0,0,0,0-.21Z" style="fill:#f70032"/><path d="M23.74,38.21h0a.17.17,0,1,0,0,.24h0a.16.16,0,0,0,0-.22Z" style="fill:#f70032"/><path d="M25.17,39.05a.16.16,0,0,0,0,.31.16.16,0,1,0,0-.31Z" style="fill:#f70032"/><path d="M25.87,39a.19.19,0,0,0,0,.38.19.19,0,0,0,0-.38Z" style="fill:#f70032"/><path d="M27.55,39.85a.16.16,0,0,0,0,.31.16.16,0,0,0,0-.31Z" style="fill:#f70032"/><path d="M29.47,40.52h0l-.13.06h0a.2.2,0,1,0-.2-.2.28.28,0,0,0,.06.15.18.18,0,0,0,.25,0Z" style="fill:#f70032"/><path d="M11.63,35.07A7.42,7.42,0,0,0,10.4,36c-.39.33-.37,1.11-.65,1.79-.05.12-.21.13-.33.14A4,4,0,0,1,6,36.4a5.5,5.5,0,0,1-1.12-3.46,4.19,4.19,0,0,1,.17-1.27c.14-.44,1.45-1.13,1.63-1.55a3.67,3.67,0,0,0,.13-2.94,8.45,8.45,0,0,1,2.92-.52.83.83,0,0,1,.32.07.66.66,0,0,1,.29.58c0,.64-.26,1.32,0,1.91s1.69.47,2.79,1.66a2.21,2.21,0,0,1,.33,2.42A4.3,4.3,0,0,1,11.63,35.07Z" style="fill:#990028"/><path d="M10.79,32.44a2.65,2.65,0,0,1,.1-1.28c.12-.46.14-.54.26-.52l.07,0,1.18.84a.83.83,0,0,1,.37.44.78.78,0,0,1-.09.47l-.54,1.29a.2.2,0,0,1,0,.08.26.26,0,0,1-.33,0A4.8,4.8,0,0,1,10.79,32.44Z" style="fill:#0c0a35"/><path d="M10,31.41a2.06,2.06,0,0,1,.49,1.32c0,.11-.4.85-.63,1.31a.23.23,0,0,1-.39,0c-.26-.37-.45-1-.68-1.29a.2.2,0,0,1,0-.18c.15-.73.29-1.16.45-1.92h0a.23.23,0,0,1,.43,0A4.54,4.54,0,0,0,10,31.41Z" style="fill:#0c0a35"/><path d="M8.1,31l.12,1.23a1.9,1.9,0,0,1,0,.34c0,.4-.69,1.12-1.06,1.43a.18.18,0,0,1-.3-.08c-.11-.34-.2-.75-.31-1.1A.81.81,0,0,1,6.71,32a13.88,13.88,0,0,0,1.12-1.39.12.12,0,0,1,.21,0A1.45,1.45,0,0,1,8.1,31Z" style="fill:#0c0a35"/><path d="M11.86,32.65h0a.38.38,0,0,0,0-.64.4.4,0,0,0-.37,0,.39.39,0,0,0-.19.32v0a.36.36,0,0,0,.54.31Z" style="fill:#f70032"/><path d="M9.61,32.13a.36.36,0,0,0-.35.36.36.36,0,1,0,.71,0,.36.36,0,0,0-.36-.36Z" style="fill:#f70032"/><path d="M7.37,32.08a.39.39,0,0,0,0,.78.39.39,0,0,0,0-.78Z" style="fill:#f70032"/><path d="M11.69,34a.3.3,0,0,0,0,.6.3.3,0,0,0,0-.6Z" style="fill:#b70027"/><path d="M9.71,34.27a.3.3,0,0,0,0,.59.3.3,0,0,0,0-.59Z" style="fill:#b70027"/><path d="M7.1,34.12a.38.38,0,0,0-.37.38.38.38,0,1,0,.75,0,.38.38,0,0,0-.38-.38Z" style="fill:#b70027"/><path d="M11,30.07a.26.26,0,0,0,0,.51.26.26,0,0,0,0-.51Z" style="fill:#b70027"/><path d="M9.35,29.78a.28.28,0,0,0,0,.56.28.28,0,0,0,0-.56Z" style="fill:#b70027"/><path d="M8,29.86a.32.32,0,0,0,0,.63.32.32,0,0,0,0-.63Z" style="fill:#b70027"/><path d="M19.86,59.3a3,3,0,0,1-.2-.29c0-.06-.1-.16-.19-.11s-.06.05,0,.08c0,.19.21.33.37.41s.11,0,.07-.09Z" style="fill:#b70027"/><path d="M20.27,58.27a.45.45,0,0,0-.1-.4.06.06,0,0,0-.09,0A.42.42,0,0,0,20,58c0,.07,0,.16,0,.23a.1.1,0,0,0,.2,0Z" style="fill:#b70027"/><path d="M19.26,57.89c0-.12-.08-.28-.21-.33a.06.06,0,0,0-.07,0c0,.12.11.21.14.32s.17,0,.14,0Z" style="fill:#b70027"/><path d="M20.14,57c-.08-.13-.15-.32-.3-.39s-.22,0-.17.14a.83.83,0,0,0,.36.36c.07,0,.15,0,.11-.11Z" style="fill:#b70027"/><path d="M23,57.71c-.13,0-.26,0-.39.06a0,0,0,0,0,0,.06.61.61,0,0,0,.42,0,0,0,0,0,0,0-.09Z" style="fill:#b70027"/><path d="M23.2,56.73a.66.66,0,0,0,.24-.2c0-.07.14-.2.06-.28s-.32.35-.37.42,0,.09.07.06Z" style="fill:#b70027"/><path d="M16.56,57.76a.13.13,0,0,0,.12,0h0a.13.13,0,0,1-.12,0Z" style="fill:#b70027"/><path d="M16.58,57.84l-.29-.07-.12,0a.13.13,0,0,0-.11,0,0,0,0,0,0,0,.05c.06.19.36.17.53.16a.07.07,0,0,0,0-.13Z" style="fill:#b70027"/><path d="M15.54,58.08a.78.78,0,0,0,0-.34c0-.1,0-.29-.17-.29s-.12.13-.09.21a2,2,0,0,1,.1.4c0,.09.15.13.17,0Z" style="fill:#b70027"/><path d="M16.24,57a.74.74,0,0,0,0-.33c0-.11,0-.24-.15-.29a.11.11,0,0,0-.16.07c0,.1,0,.19.06.29a.67.67,0,0,0,.15.29.07.07,0,0,0,.11,0Z" style="fill:#b70027"/><path d="M16.59,58.59c-.05,0-.09,0-.13,0s0,.06,0,.08a.21.21,0,0,0,.13,0c.09,0,.1-.15,0-.14Z" style="fill:#b70027"/><path d="M6.87,27.29c-.67-.22-1.33-.74-1.27-1a6,6,0,0,1,2.77-3.08,2.13,2.13,0,0,1,2.33.35c.81.48,6.22,3.32,9.07,4.79s5.7,3.11,7.54,4.16c1.29.74,3.92,1.59,5.16,2.15,2.32,1.05,2.93,1.4,2.8,1.63a16.52,16.52,0,0,1-2.17,2.79,1.58,1.58,0,0,1-.68.52,1.23,1.23,0,0,1-.86-.1c-4.29-2.15-8.48-4.79-12.88-7.21A65.52,65.52,0,0,0,6.87,27.29Z" style="fill:#222272"/><path d="M17.9,31.11a.18.18,0,0,1,0-.28,19.15,19.15,0,0,1,1.83-1.56.3.3,0,0,1,.36,0L21.8,30.5a.15.15,0,0,1,0,.25c-.54.36-1.11.95-1.63,1.27-.09,0-.19.13-.29.09A17.18,17.18,0,0,1,17.9,31.11Z" style="fill:#0c0a35"/><path d="M20,31.22a.54.54,0,0,0,.53-.54.54.54,0,1,0-1.07,0,.54.54,0,0,0,.54.54Z" style="fill:#f70032"/><path d="M20,32.8a.24.24,0,0,0,0-.48.24.24,0,1,0,0,.48Z" style="fill:#f70032"/><path d="M19.82,29a.16.16,0,0,0,0-.31.16.16,0,0,0,0,.31Z" style="fill:#f70032"/><path d="M17.32,31.2a.2.2,0,1,0,0-.39.2.2,0,1,0,0,.39Z" style="fill:#f70032"/><path d="M22.14,30.54a.27.27,0,0,0,.06.26.24.24,0,0,0,.31,0,.24.24,0,0,0,.11-.19.23.23,0,0,0-.11-.2l-.16,0,.12,0,0,0a.21.21,0,0,0-.35.09Z" style="fill:#f70032"/><path d="M16.35,28.1c0,.13,0,.48.24.44s.06-.15,0-.2a1.67,1.67,0,0,1-.08-.3c0-.13-.22-.07-.2.06Z" style="fill:#0c0a35"/><path d="M22.72,32.75c0,.13.05.48.25.44S23,33,23,33a1.67,1.67,0,0,1-.08-.3c0-.13-.22-.07-.2.06Z" style="fill:#0c0a35"/><path d="M32.19,35.22c0,.14.05.48.25.45s.05-.15,0-.2a1.67,1.67,0,0,1-.08-.3c0-.13-.22-.07-.2,0Z" style="fill:#0c0a35"/><path d="M9.52,23.8c0,.13.05.48.25.44s.06-.15,0-.2a1.67,1.67,0,0,1-.08-.3c0-.13-.22-.07-.2.06Z" style="fill:#0c0a35"/><path d="M29.1,35.51c-.08.11-.31.37-.15.49s.15-.06.17-.12a1.4,1.4,0,0,1,.16-.26c.07-.11-.1-.21-.18-.11Z" style="fill:#0c0a35"/><path d="M14.92,26.52c0,.13.05.48.25.44s.06-.14,0-.2a1.38,1.38,0,0,1-.08-.29c0-.14-.22-.08-.2.05Z" style="fill:#0c0a35"/><path d="M11.1,26.82c0,.13.05.48.24.44s.06-.14,0-.2a1.38,1.38,0,0,1-.08-.29c0-.14-.22-.08-.2.05Z" style="fill:#0c0a35"/><path d="M28.71,34c0,.13.05.48.25.44s.06-.15,0-.2a1.61,1.61,0,0,1-.09-.29c0-.14-.22-.08-.2,0Z" style="fill:#0c0a35"/><path d="M9.27,26.45c0,.13.05.48.25.44s.06-.15,0-.2a1.67,1.67,0,0,1-.08-.3c0-.13-.22-.07-.2.06Z" style="fill:#0c0a35"/><path d="M6.42,25.56c0,.13-.2.44,0,.51s.13-.1.13-.15a2.63,2.63,0,0,1,.08-.3c0-.13-.15-.18-.2-.06Z" style="fill:#0c0a35"/><path d="M15.42,29.4c0,.13.05.48.25.44s.06-.15,0-.2a1.67,1.67,0,0,1-.08-.3c0-.13-.22-.07-.2.06Z" style="fill:#0c0a35"/><path d="M13.89,29.15c0,.11,0,.39.2.36s.05-.12,0-.16a1.82,1.82,0,0,1-.07-.25c0-.11-.18-.06-.16,0Z" style="fill:#0c0a35"/><path d="M27.44,36.29c0,.11,0,.4.2.37s.05-.12,0-.17a2.17,2.17,0,0,1-.07-.24c0-.11-.18-.06-.16,0Z" style="fill:#0c0a35"/><path d="M26.21,35.31c-.09.06-.35.2-.25.34s.13,0,.16,0a1.06,1.06,0,0,1,.2-.17c.09-.06,0-.19-.11-.13Z" style="fill:#0c0a35"/><path d="M24.11,33c0,.11,0,.4.2.37s.05-.13,0-.17a2.17,2.17,0,0,1-.07-.24c0-.11-.18-.06-.16,0Z" style="fill:#0c0a35"/><path d="M24.88,34.61c0,.11,0,.4.21.37s0-.12,0-.17a2.17,2.17,0,0,1-.07-.24c0-.11-.18-.06-.16,0Z" style="fill:#0c0a35"/><path d="M30.34,34.64c0,.11,0,.4.2.37s.05-.13,0-.17a2.17,2.17,0,0,1-.07-.24c0-.11-.18-.06-.16,0Z" style="fill:#0c0a35"/><path d="M17.39,29.51c.11,0,.19.11.31.09a0,0,0,0,0,0-.06c0-.14-.18-.18-.29-.22s-.18.14-.06.19Z" style="fill:#0c0a35"/><path d="M21.32,31.92c.11,0,.19.11.31.09a.07.07,0,0,0,0-.07c0-.13-.18-.17-.3-.22s-.17.15-.05.2Z" style="fill:#0c0a35"/><path d="M23.25,34.21c.11,0,.19.12.31.1a.07.07,0,0,0,0-.07c0-.13-.18-.18-.3-.22s-.17.15-.05.19Z" style="fill:#0c0a35"/><path d="M21.47,33.22c.11,0,.19.11.31.09a.07.07,0,0,0,0-.07c0-.13-.18-.18-.3-.22s-.17.15-.05.2Z" style="fill:#0c0a35"/><path d="M14.72,28a.56.56,0,0,0,.31.09s0,0,0-.06-.17-.18-.29-.22-.17.14,0,.19Z" style="fill:#0c0a35"/><path d="M27.24,34.76c.11,0,.19.12.31.09s0,0,0-.06-.18-.18-.3-.22-.17.14-.05.19Z" style="fill:#0c0a35"/><path d="M29.62,37.51c.1,0,.19.11.3.09a0,0,0,0,0,0-.06c0-.14-.17-.18-.29-.22s-.17.14-.05.19Z" style="fill:#0c0a35"/><path d="M10.57,25.34c.1,0,.19.11.3.09a.05.05,0,0,0,0-.07c0-.13-.17-.17-.29-.22s-.17.15,0,.2Z" style="fill:#0c0a35"/><path d="M27,33.27c.11,0,.19.11.31.09a.06.06,0,0,0,0-.07c0-.13-.18-.17-.29-.22s-.17.15-.06.2Z" style="fill:#0c0a35"/><path d="M30.72,36.19c.11,0,.19.11.31.09a0,0,0,0,0,0-.06c0-.14-.18-.18-.29-.22s-.17.14-.06.19Z" style="fill:#0c0a35"/><path d="M12.27,25.41c.1,0,.19.12.31.09s0,0,0-.06-.17-.18-.29-.22-.17.14-.05.19Z" style="fill:#0c0a35"/><path d="M8.37,24.79c.1,0,.19.11.3.09a.05.05,0,0,0,0-.07c0-.13-.17-.18-.29-.22s-.17.15-.05.2Z" style="fill:#0c0a35"/><path d="M7.4,24.57c.1,0,.18.11.3.09a.06.06,0,0,0,0-.07c0-.13-.18-.17-.29-.22s-.17.15,0,.2Z" style="fill:#0c0a35"/><path d="M13.09,26.66c.11,0,.19.12.31.09a0,0,0,0,0,0-.06c0-.14-.18-.18-.29-.22s-.18.14-.06.19Z" style="fill:#0c0a35"/><path d="M33.42,36.92c.11,0,.19.11.31.09a.06.06,0,0,0,0-.07c0-.13-.18-.17-.29-.22s-.17.15-.06.2Z" style="fill:#0c0a35"/><path d="M25.85,33.77c.11,0,.19.11.31.09a.07.07,0,0,0,0-.07c0-.13-.18-.17-.3-.22s-.17.15,0,.2Z" style="fill:#0c0a35"/><path d="M7.69,26.19c.11,0,.19.11.31.09a.07.07,0,0,0,0-.07c0-.13-.18-.17-.29-.22s-.18.15-.06.2Z" style="fill:#0c0a35"/><path d="M18.32,28.46a.56.56,0,0,0,.31.09s0,0,0-.06-.17-.18-.29-.22-.17.14-.05.19Z" style="fill:#0c0a35"/><path d="M23.52,31.59a.56.56,0,0,0,.31.09.05.05,0,0,0,0-.07c0-.13-.17-.17-.29-.22s-.17.15-.05.2Z" style="fill:#0c0a35"/><path d="M25.52,32.44a.56.56,0,0,0,.31.09.05.05,0,0,0,0-.07c0-.13-.17-.17-.29-.22s-.17.15-.05.2Z" style="fill:#0c0a35"/><path d="M12.89,28.26c.11,0,.19.12.31.09a0,0,0,0,0,0-.06c0-.14-.18-.18-.29-.22s-.18.14-.06.19Z" style="fill:#0c0a35"/><path d="M8.47,27.38c.1.05.19.12.3.1a.05.05,0,0,0,0-.07c0-.13-.17-.18-.29-.22s-.17.15,0,.19Z" style="fill:#0c0a35"/><path d="M11.37,28.39c.1,0,.19.11.3.09a.05.05,0,0,0,0-.07c0-.13-.17-.18-.29-.22s-.17.15-.05.2Z" style="fill:#0c0a35"/><path d="M31.59,37.84c.11,0,.19.11.31.09a.06.06,0,0,0,0-.07c0-.13-.18-.17-.29-.22s-.18.15-.06.2Z" style="fill:#0c0a35"/><path d="M5.29,12.71a.2.2,0,0,0,.13,0,15.45,15.45,0,0,0,1.3-1.24.27.27,0,0,0,.08-.16.2.2,0,0,0-.08-.12c-.33-.34-.69-.65-1-1-.13-.15-.29-.33-.4-.33h0c-.1,0-.26.18-.4.33-.31.36-.67.67-1,1a.19.19,0,0,0-.07.12c0,.06,0,.11.08.16a15.29,15.29,0,0,0,1.29,1.24.23.23,0,0,0,.14,0Z" style="fill:#d6002b"/><path d="M35.66,52.24a.2.2,0,0,0,.13,0A14,14,0,0,0,37.09,51a.21.21,0,0,0,.08-.16s0-.08-.08-.12c-.33-.33-.69-.65-1-1-.14-.15-.3-.32-.4-.33h-.06c-.1,0-.26.18-.39.33-.32.36-.68.68-1,1a.23.23,0,0,0-.08.12.21.21,0,0,0,.08.16,14,14,0,0,0,1.3,1.24.2.2,0,0,0,.13,0Z" style="fill:#d6002b"/><path d="M7.87,8.74H7.08L5.36,5.57,4,7.21V8.74H3.32V3H4V6.33L6.65,3h.77L5.87,5Z" style="fill:#d6002b"/><path d="M33.06,53.54h.79l1.72,3.18,1.32-1.65V53.54h.72v5.75h-.72V56l-2.6,3.33h-.78l1.56-2Z" style="fill:#d6002b"/><path d="M12.25,59.11H6.19a3.1,3.1,0,0,1-3-3.19V15.66h.19V55.92a2.92,2.92,0,0,0,2.81,3h6.06Z" style="fill:#d6002b"/><rect x="27.62" y="58.93" width="5.16" height="0.19" style="fill:#d6002b"/><path d="M37.74,46.82h-.19V6.36a2.92,2.92,0,0,0-2.81-3H28.85V3.17h5.89a3.11,3.11,0,0,1,3,3.19Z" style="fill:#d6002b"/><rect x="8.45" y="3.17" width="4.8" height="0.19" style="fill:#d6002b"/><path d="M20.64,25.87a.35.35,0,0,0,.28.32A.11.11,0,0,0,21,26a1.18,1.18,0,0,0-.22-.28c-.08-.08-.2,0-.18.11Z" style="fill:#b70027"/><path d="M23.1,27.37a.61.61,0,0,0,.43.09c.1,0,.11-.15.06-.21a.35.35,0,0,0-.49,0,.09.09,0,0,0,0,.16Z" style="fill:#b70027"/><path d="M24.81,25.79a3.08,3.08,0,0,0,.69-.21.1.1,0,0,0,0-.18c-.27-.08-.51.14-.71.31,0,0,0,.09,0,.08Z" style="fill:#b70027"/><path d="M27,23.36a.85.85,0,0,0,.3.4c.07,0,.13-.05.1-.11a2.4,2.4,0,0,0-.25-.37c-.06-.06-.18,0-.15.08Z" style="fill:#b70027"/><path d="M28,25.2c.1.15.16.32.32.41a.07.07,0,0,0,.11-.07.67.67,0,0,0-.22-.46c-.09-.13-.3,0-.21.12Z" style="fill:#b70027"/><path d="M29.91,24.49a1.69,1.69,0,0,0,.31.13.09.09,0,0,0,.11-.1c0-.19-.18-.26-.34-.32s-.27.22-.08.29Z" style="fill:#b70027"/><path d="M26.16,28.19a.41.41,0,0,0,.1.34.05.05,0,0,0,.09,0c0-.1,0-.2,0-.3s-.17-.11-.17,0Z" style="fill:#b70027"/><path d="M24.32,29.54c0,.17,0,.3.21.36s.07,0,.08-.06,0-.2,0-.3-.26-.16-.25,0Z" style="fill:#b70027"/><path d="M26.49,31a.55.55,0,0,1,.2.17c.06.06.14,0,.13-.08a.35.35,0,0,0-.22-.27c-.12-.06-.23.13-.11.18Z" style="fill:#b70027"/><path d="M16.67,25.56a.92.92,0,0,0,.09.28.11.11,0,0,0,.16,0,.12.12,0,0,1,0-.05.17.17,0,0,0,0-.15c0-.14-.12-.22-.26-.21s-.1.05-.08.1Z" style="fill:#b70027"/><path d="M20.26,27.67a.39.39,0,0,0,.14.12.12.12,0,0,0,.13,0l0,0s.06-.09,0-.12a1.26,1.26,0,0,1-.17-.13c-.11-.11-.26,0-.17.16Z" style="fill:#b70027"/><path d="M15.87,33c.14,0,.27,0,.4-.06s.08-.15,0-.18a.58.58,0,0,0-.48,0c-.11.05,0,.23.08.19Z" style="fill:#b70027"/><path d="M6,28.66h0a.14.14,0,0,0-.13.11.31.31,0,0,0,.19.41.09.09,0,0,0,.12-.09A.88.88,0,0,0,6,28.7a.08.08,0,0,0-.06,0Z" style="fill:#b70027"/><path d="M34.77,33c.19.06.33.11.49,0a.09.09,0,0,0,0-.12c-.16-.14-.3-.09-.49,0a.09.09,0,0,0,0,.17Z" style="fill:#b70027"/><path d="M35,34.74c0,.13,0,.19,0,.3a.09.09,0,0,0,.16,0l0-.05a.15.15,0,0,0,0-.19.36.36,0,0,0-.15-.15.08.08,0,0,0-.13.07Z" style="fill:#b70027"/><path d="M29.26,33c.13,0,.23,0,.35,0a.06.06,0,0,0,0-.11.35.35,0,0,0-.41,0,.06.06,0,0,0,0,.11Z" style="fill:#b70027"/><path d="M14.25,31.16a.72.72,0,0,0,0,.5s.08.07.11,0a.56.56,0,0,0,.11-.53.11.11,0,0,0-.2,0Z" style="fill:#b70027"/><path d="M14,35c.1,0,.17.09.26.12a.09.09,0,0,0,.12-.09.29.29,0,0,0-.34-.27A.12.12,0,0,0,14,35Z" style="fill:#b70027"/><path d="M16.61,35.39a.9.9,0,0,0,.34.38c.08,0,.17,0,.12-.12s-.2-.23-.29-.36-.23,0-.17.1Z" style="fill:#b70027"/><path d="M14.5,37.22c.05.2,0,.44.21.57a.06.06,0,0,0,.09,0c.1-.19,0-.42-.1-.61s-.24-.07-.2.06Z" style="fill:#b70027"/><path d="M12.06,37.05a1.34,1.34,0,0,1-.09.26.13.13,0,0,0,.16.15.31.31,0,0,0,.2-.41.14.14,0,0,0-.27,0Z" style="fill:#b70027"/><path d="M12.75,39l.17.08s.11,0,.07-.08a.41.41,0,0,0-.15-.14c-.09-.06-.18.1-.09.14Z" style="fill:#b70027"/><path d="M19.21,34.2c.13.07.21.2.36.22a.09.09,0,0,0,.11-.08c0-.25-.25-.32-.45-.27a.07.07,0,0,0,0,.13Z" style="fill:#b70027"/><path d="M19.75,37.44a.69.69,0,0,0,.45-.2.07.07,0,0,0-.05-.12.73.73,0,0,0-.45.14c-.07.05-.06.19.05.18Z" style="fill:#b70027"/><path d="M22.86,35.71c.05.17.1.33.29.32,0,0,.08,0,.08-.07s-.1-.25-.24-.35a.09.09,0,0,0-.13.1Z" style="fill:#b70027"/><path d="M25.2,37.65a1,1,0,0,0,.49-.09c.06,0,0-.11,0-.14a.47.47,0,0,0-.55,0c-.09.06-.06.22.06.21Z" style="fill:#b70027"/><path d="M28.76,39a1.23,1.23,0,0,0,.36.25.08.08,0,0,0,.1-.1.49.49,0,0,0-.34-.34c-.11,0-.21.12-.12.19Z" style="fill:#b70027"/><path d="M11.17,35.93a.7.7,0,0,1,.23-.11,0,0,0,0,0,0-.06.33.33,0,0,0-.28.1s0,.09.05.07Z" style="fill:#b70027"/></g></g></g></svg>