<svg xmlns="http://www.w3.org/2000/svg" xmlns:xlink="http://www.w3.org/1999/xlink" viewBox="0 0 40.93 62.29"><defs><clipPath id="clip-path"><path d="M25,27.55a6.14,6.14,0,0,0-3.14.92,12.65,12.65,0,0,0-2.47,2.27,2.73,2.73,0,0,0-.92-1.3,6.21,6.21,0,0,0-1.27-.68L16,28.24c-.62-.27-1.37-.25-1.75-.79a1.54,1.54,0,0,1-.23-.58c-.59-2.44-1.16-5.09-.13-7.37a4.79,4.79,0,0,0-4.31,1.6,6,6,0,0,0-1.35,4.49,6.21,6.21,0,0,0,.58,2.1,7.33,7.33,0,0,0,1.41,1.91,10.51,10.51,0,0,0,5.45,2.89,18.4,18.4,0,0,0,3.24.27A18.35,18.35,0,0,0,26,32,21,21,0,0,0,28,31a5.47,5.47,0,0,0,1.52-1,5.22,5.22,0,0,0,.76-1.26,27.81,27.81,0,0,0,1.36-3.52,7.16,7.16,0,0,0,.42-2.23,4.67,4.67,0,0,0-1.81-3.5,6.2,6.2,0,0,0-3.79-1.25,1.8,1.8,0,0,0-1.63.66,1.68,1.68,0,0,0-.18.69,20.71,20.71,0,0,0,.48,4A10.09,10.09,0,0,1,25,27.55Z" style="fill:#b70027"/></clipPath><clipPath id="clip-path-2"><path d="M15.38,19.55a1.85,1.85,0,0,0,2.06.14.92.92,0,0,0,.28-.24,1.36,1.36,0,0,0,.18-.59,26.9,26.9,0,0,0-.18-7.28,4.47,4.47,0,0,0-.35-1.3A2.76,2.76,0,0,0,16,9.37a4.67,4.67,0,0,0-1.86,3,10.32,10.32,0,0,0,0,4,8.83,8.83,0,0,0,.42,1.83A2.77,2.77,0,0,0,15.38,19.55Z" style="fill:#b70027"/></clipPath><clipPath id="clip-path-3"><path d="M26.1,11.66a7.8,7.8,0,0,0-2.4-3.38,8.31,8.31,0,0,0-4.16-2,5.17,5.17,0,0,0-1.1-.19,3.11,3.11,0,0,0-2,.59c-2,1.48-1.33,2.89-1.2,3.18a11.37,11.37,0,0,0,2.32,3.35,7,7,0,0,0,1,.86,6.2,6.2,0,0,0,3.94.89l0,.1a9.81,9.81,0,0,1,.48,3.27c-.06,2.12-.35,2.73,0,3.13s1.25-.47,1.65-1.08a16.24,16.24,0,0,0,1.09-1.73A10.29,10.29,0,0,0,26.1,11.66Z" style="fill:none"/></clipPath><clipPath id="clip-path-4"><path d="M32.65,26.18c-.3.47-.9.45-1.42.45a3,3,0,0,1-2.06-.49,3.21,3.21,0,0,1-.66-1.06c-.83-1.76-2-3.45-2.16-5.4a.46.46,0,0,1,.06-.3,3.59,3.59,0,0,0,.88.54A.54.54,0,0,0,28,19.7l.64-1.16,1.27,1.08a.36.36,0,0,0,.47,0,10.57,10.57,0,0,1,1.39-1.11l.91,1.42a.33.33,0,0,0,.13.13A.28.28,0,0,0,33,20l1.42-.7.18,1.37a.2.2,0,0,0,.25.17,3,3,0,0,1,1.39-.07A9.66,9.66,0,0,1,34.73,23C34.3,23.54,33,25.58,32.65,26.18Z" style="fill:none"/></clipPath><clipPath id="clip-path-5"><path d="M16,34.72a6.07,6.07,0,0,0,3.14-.92,12.65,12.65,0,0,0,2.47-2.27,2.81,2.81,0,0,0,.92,1.31,6.41,6.41,0,0,0,1.27.67L25,34c.61.27,1.36.25,1.75.79a1.72,1.72,0,0,1,.23.58c.59,2.44,1.16,5.09.12,7.38a4.79,4.79,0,0,0,4.32-1.61,6,6,0,0,0,1.35-4.48,6.2,6.2,0,0,0-.58-2.11,7.5,7.5,0,0,0-1.41-1.91,10.62,10.62,0,0,0-5.45-2.89,19.5,19.5,0,0,0-3.24-.27,18.52,18.52,0,0,0-7.08.8,20,20,0,0,0-2.09,1,5.23,5.23,0,0,0-1.52,1.05,4.6,4.6,0,0,0-.76,1.26,29.47,29.47,0,0,0-1.37,3.52,7.38,7.38,0,0,0-.41,2.23,4.63,4.63,0,0,0,1.81,3.49,6.18,6.18,0,0,0,3.79,1.25,1.75,1.75,0,0,0,1.63-.66,1.64,1.64,0,0,0,.18-.69,20.82,20.82,0,0,0-.49-4A10.28,10.28,0,0,1,16,34.72Z" style="fill:#b70027"/></clipPath><clipPath id="clip-path-6"><path d="M25.54,42.72a1.83,1.83,0,0,0-2.05-.14.81.81,0,0,0-.28.24,1.14,1.14,0,0,0-.18.6,27.31,27.31,0,0,0,.17,7.28A4.76,4.76,0,0,0,23.56,52,2.76,2.76,0,0,0,25,52.9a4.67,4.67,0,0,0,1.86-3,10.51,10.51,0,0,0,0-4,9.53,9.53,0,0,0-.42-1.83A2.91,2.91,0,0,0,25.54,42.72Z" style="fill:#b70027"/></clipPath><clipPath id="clip-path-7"><path d="M14.83,50.61A7.8,7.8,0,0,0,17.22,54a8.23,8.23,0,0,0,4.17,2,5.17,5.17,0,0,0,1.1.19,3.13,3.13,0,0,0,2-.59c2-1.48,1.33-2.89,1.2-3.18a11.2,11.2,0,0,0-2.32-3.34,6.37,6.37,0,0,0-1-.86,6.16,6.16,0,0,0-3.94-.9,1,1,0,0,1,0-.1,10,10,0,0,1-.48-3.27c.07-2.12.36-2.72,0-3.12s-1.24.46-1.64,1.07a17.32,17.32,0,0,0-1.09,1.73A10.24,10.24,0,0,0,14.83,50.61Z" style="fill:none"/></clipPath><clipPath id="clip-path-8"><path d="M8.28,36.09c.29-.47.9-.45,1.42-.45a3,3,0,0,1,2.06.49,3.21,3.21,0,0,1,.66,1.06c.83,1.76,2,3.45,2.15,5.4a.44.44,0,0,1-.05.3,3.75,3.75,0,0,0-.88-.53.53.53,0,0,0-.69.22l-.64,1.16c-.41-.37-.84-.73-1.26-1.08a.34.34,0,0,0-.47,0,11.19,11.19,0,0,1-1.39,1.1l-.91-1.41a.24.24,0,0,0-.13-.13.26.26,0,0,0-.21,0L6.52,43l-.18-1.37a.2.2,0,0,0-.25-.17,3,3,0,0,1-1.39.07,9.87,9.87,0,0,1,1.5-2.26C6.62,38.74,7.9,36.69,8.28,36.09Z" style="fill:none"/></clipPath></defs><title>dq</title><g id="Layer_2" data-name="Layer 2"><g id="Layer_1-2" data-name="Layer 1"><g id="dq"><rect x="0.09" y="0.09" width="40.75" height="62.1" rx="3.45" style="fill:#fff"/><path d="M37.39,62.29H3.54A3.55,3.55,0,0,1,0,58.74V3.54A3.55,3.55,0,0,1,3.54,0H37.39a3.55,3.55,0,0,1,3.54,3.54v55.2A3.55,3.55,0,0,1,37.39,62.29ZM3.54.19A3.35,3.35,0,0,0,.19,3.54v55.2A3.36,3.36,0,0,0,3.54,62.1H37.39a3.37,3.37,0,0,0,3.36-3.36V3.54A3.36,3.36,0,0,0,37.39.19Z" style="fill:#2d2d2d"/><path d="M35.25,28.94a15.25,15.25,0,0,0-1.58-2.7A29.33,29.33,0,0,0,31,23.77c-1-.86-5.09,1.71-5.73.59-1.25-2.16-1.09-4.9-2.17-7.15-.07-.14-.15-.3-.3-.35a.69.69,0,0,0-.35,0,9.67,9.67,0,0,0-5,2.73,1.36,1.36,0,0,0-.34.48,1.81,1.81,0,0,0-.24,1,5.5,5.5,0,0,1,0,3.45,4.54,4.54,0,0,1-2.45,2.42c-1.42.55-3.1-4.69-4.52-4.15a19.76,19.76,0,0,0-2.33,1.88,9,9,0,0,0-2,3.37,8.66,8.66,0,0,0,.13,5.29A20.66,20.66,0,0,0,7.25,36,32.84,32.84,0,0,0,10,38.51c.95.85,5.08-1.71,5.73-.6,1.25,2.17,1.09,4.9,2.16,7.15a.65.65,0,0,0,.31.36.6.6,0,0,0,.35,0,9.67,9.67,0,0,0,5-2.73,1.57,1.57,0,0,0,.34-.47,2.06,2.06,0,0,0,.24-1,5.57,5.57,0,0,1,0-3.45,4.57,4.57,0,0,1,2.46-2.41c1.41-.55,3.1,4.68,4.52,4.14a19.77,19.77,0,0,0,2.32-1.87,8.91,8.91,0,0,0,2-3.38A12.72,12.72,0,0,0,35.25,28.94Z" style="fill:#990028"/><path d="M26.15,15.34A2.58,2.58,0,0,0,27.48,14,6.11,6.11,0,0,0,28,12.19a33.41,33.41,0,0,0-.17-7.41,6.4,6.4,0,0,0-.41-1.94c0-.06-.06-.12-.12-.14s-.23.07-.3.17a7.43,7.43,0,0,1-1.4,1.7.12.12,0,0,1-.18,0,16.92,16.92,0,0,0-1.32-2.07A.28.28,0,0,0,24,2.39c-.08,0-.14.07-.18.15-.41.74-.75,1.33-1.18,2a.15.15,0,0,1-.18.06c-.55-.26-1.6-1.54-2.19-1.95a.09.09,0,0,0-.14.08c0,.66.12,2.65.14,3.33s0,1.11.05,1.66a9.4,9.4,0,0,0,1.26,3.87,19.68,19.68,0,0,0,1.95,2.7,3.52,3.52,0,0,0,1.08,1A2.15,2.15,0,0,0,26.15,15.34Z" style="fill:#990028"/><path d="M25,27.55a6.14,6.14,0,0,0-3.14.92,12.65,12.65,0,0,0-2.47,2.27,2.73,2.73,0,0,0-.92-1.3,6.21,6.21,0,0,0-1.27-.68L16,28.24c-.62-.27-1.37-.25-1.75-.79a1.54,1.54,0,0,1-.23-.58c-.59-2.44-1.16-5.09-.13-7.37a4.79,4.79,0,0,0-4.31,1.6,6,6,0,0,0-1.35,4.49,6.21,6.21,0,0,0,.58,2.1,7.33,7.33,0,0,0,1.41,1.91,10.51,10.51,0,0,0,5.45,2.89,18.4,18.4,0,0,0,3.24.27A18.35,18.35,0,0,0,26,32,21,21,0,0,0,28,31a5.47,5.47,0,0,0,1.52-1,5.22,5.22,0,0,0,.76-1.26,27.81,27.81,0,0,0,1.36-3.52,7.16,7.16,0,0,0,.42-2.23,4.67,4.67,0,0,0-1.81-3.5,6.2,6.2,0,0,0-3.79-1.25,1.8,1.8,0,0,0-1.63.66,1.68,1.68,0,0,0-.18.69,20.71,20.71,0,0,0,.48,4A10.09,10.09,0,0,1,25,27.55Z" style="fill:#b70027"/><g style="clip-path:url(#clip-path)"><path d="M7.38,24.34a20.4,20.4,0,0,1,4.18-1.83c1-.23,2.54-.28,2.95-1.4a.37.37,0,0,0-.26-.45c-1-.36-2.71.28-3.7.65a21.69,21.69,0,0,0-3.61,2.28.44.44,0,0,0,.44.75Z" style="fill:#990028"/><path d="M7.2,28.37c.32-.8,2-1.36,2.67-1.8A11.21,11.21,0,0,0,13,24.26a.33.33,0,0,0-.28-.5C11.1,23.89,9.77,25.19,8.5,26c-.77.51-1.84,1.16-2,2.13a.38.38,0,0,0,.73.21Z" style="fill:#990028"/><path d="M9.65,30.76a21.06,21.06,0,0,1,3-2.31c.87-.67,2.12-1.35,2.6-2.38a.37.37,0,0,0-.41-.53c-1.2.27-2.3,1.38-3.26,2.13A9.56,9.56,0,0,0,9.1,30.33c-.19.34.28.73.55.43Z" style="fill:#990028"/><path d="M11.94,32.78c.81-.82,1.65-1.61,2.49-2.4s2-1.44,2.59-2.42a.42.42,0,0,0-.36-.62c-1.2-.05-2.2,1-3,1.82a11.75,11.75,0,0,0-2.23,3.25.31.31,0,0,0,.49.37Z" style="fill:#990028"/><path d="M19.47,28.6a6.37,6.37,0,0,1,1,1.36c.46.69,1,1.3,1.5,2a19.5,19.5,0,0,1,1.14,2c.32.61.55,1.24,1.28,1.35a.43.43,0,0,0,.48-.19,1.58,1.58,0,0,0-.23-1.61,22.15,22.15,0,0,0-1.56-2.38,22.86,22.86,0,0,0-1.69-1.86A8.69,8.69,0,0,0,20,27.86c-.45-.3-1,.39-.57.74Z" style="fill:#990028"/><path d="M21.53,27.5a6.32,6.32,0,0,1,1.2,1.17c.58.59,1.25,1.1,1.84,1.69A18.9,18.9,0,0,1,26,32.11c.42.53.76,1.12,1.5,1.1a.44.44,0,0,0,.44-.28,1.56,1.56,0,0,0-.52-1.54,21.1,21.1,0,0,0-1.95-2.06,22.39,22.39,0,0,0-2-1.53A9,9,0,0,0,22,26.67c-.49-.21-.89.56-.43.83Z" style="fill:#990028"/><path d="M23.93,26.2a7,7,0,0,1,1.2,1.17c.58.59,1.25,1.1,1.84,1.69a17.46,17.46,0,0,1,1.47,1.75c.42.53.76,1.12,1.51,1.1a.43.43,0,0,0,.43-.28,1.56,1.56,0,0,0-.52-1.54A21.1,21.1,0,0,0,27.91,28a21.16,21.16,0,0,0-2-1.53,9,9,0,0,0-1.55-1.13c-.49-.21-.9.56-.43.83Z" style="fill:#990028"/><path d="M28,21.76a13.54,13.54,0,0,1,3.91,1c.92.36,2.17,1.1,3.17.78a.34.34,0,0,0,.2-.49c-.59-.9-2.07-1.19-3-1.45A15.55,15.55,0,0,0,28,21c-.47,0-.45.68,0,.72Z" style="fill:#990028"/><path d="M14,33.53c1.82-1.52,3.9-2.86,5.27-4.85.18-.25-.11-.52-.36-.47a5.55,5.55,0,0,0-2.63,1.86c-.92,1-1.93,1.9-2.8,2.94a.37.37,0,0,0,.52.52Z" style="fill:#990028"/></g><path d="M16.61,24.69a3.53,3.53,0,0,1,.71-1.32,3,3,0,0,0,2.54.6,5.85,5.85,0,0,0,2.42-1.16l.36.83a.27.27,0,0,1,0,.15.26.26,0,0,1-.08.13,4.31,4.31,0,0,1-2.85,1.28A7.83,7.83,0,0,1,16.61,24.69Z" style="fill:#b70027"/><path d="M11.35,20.44a4.4,4.4,0,0,0-.56,1.82,7.62,7.62,0,0,0,.44,3.9A4.55,4.55,0,0,0,14,28.78a2.49,2.49,0,0,0,1.15.09,3.81,3.81,0,0,0,1-.38,3.79,3.79,0,0,0,1.32-.94,3.28,3.28,0,0,0,.38-2.76,16,16,0,0,1-.63-2.8,20.4,20.4,0,0,1,.15-2A3,3,0,0,0,17,18a1.94,1.94,0,0,0-1-.71,1.15,1.15,0,0,0-.55-.05,1.28,1.28,0,0,0-.38.16A12.89,12.89,0,0,0,12,19.63,4.36,4.36,0,0,0,11.35,20.44Z" style="fill:#f70032"/><path d="M20.92,26.33a5.32,5.32,0,0,0,.55,1.24A3.6,3.6,0,0,0,23,28.73a4.86,4.86,0,0,0,4.35,0,6.3,6.3,0,0,0,2.38-3.15,7.35,7.35,0,0,0,.7-3.25,7.9,7.9,0,0,0-1-3.19c-1.06-1.95-3.09-3-4-3.89A13.2,13.2,0,0,1,24.56,14a6.43,6.43,0,0,0-2.68-2,2.22,2.22,0,0,0-1.29-.18,1,1,0,0,0-.75,1,1.68,1.68,0,0,0,.52.83,4.5,4.5,0,0,1,1.13,2.76c.1,2.09-1.26,4-1.36,6.1A10.22,10.22,0,0,0,20.92,26.33Z" style="fill:#f70032"/><path d="M15.38,19.55a1.85,1.85,0,0,0,2.06.14.92.92,0,0,0,.28-.24,1.36,1.36,0,0,0,.18-.59,26.9,26.9,0,0,0-.18-7.28,4.47,4.47,0,0,0-.35-1.3A2.76,2.76,0,0,0,16,9.37a4.67,4.67,0,0,0-1.86,3,10.32,10.32,0,0,0,0,4,8.83,8.83,0,0,0,.42,1.83A2.77,2.77,0,0,0,15.38,19.55Z" style="fill:#b70027"/><g style="clip-path:url(#clip-path-2)"><path d="M15.64,10.11c-1.52.94-1.43,3.85-1.37,5.35s.46,4.32,2.39,4.74a.05.05,0,0,0,0-.1A3.81,3.81,0,0,1,15,18a12.23,12.23,0,0,1-.37-2.95,7.27,7.27,0,0,1,1.23-4.77c.09-.11-.08-.26-.19-.19Z" style="fill:#0c0a35"/><path d="M15.74,11a4.9,4.9,0,0,0-.71,2.9c0,.66,0,1.75.63,2.12a.1.1,0,0,0,.15-.11,7.64,7.64,0,0,1,.1-4.84.09.09,0,0,0-.17-.07Z" style="fill:#0c0a35"/></g><path d="M15.18,8.77c-.25,1.23.37,2.49.19,3.73a5.54,5.54,0,0,1-.76,1.91,7.5,7.5,0,0,1-1.11,1.28c-.06.07-.12.15-.09.23a.21.21,0,0,0,.08.11c.25.19.59.2.87.36a1.9,1.9,0,0,1,.71,1.08A11.92,11.92,0,0,1,15.56,19c.1.42.15.86.26,1.29a1.11,1.11,0,0,0,.19.43.91.91,0,0,0,.47.32,3.21,3.21,0,0,0,3-.76,7,7,0,0,0,2.64-5.26,3.83,3.83,0,0,0-.05-.76,4,4,0,0,0-.41-1.1,5.42,5.42,0,0,0-.4-.71,8.19,8.19,0,0,0-1.05-1.15L18.67,9.86a5.84,5.84,0,0,0-1-.84,3.17,3.17,0,0,0-1.72-.48C15.7,8.54,15.22,8.55,15.18,8.77Z" style="fill:#ffd6a1"/><path d="M17,18c-.16,0-.56.16-.72.16-.35,0-.52,0-.88,0a.71.71,0,0,1-.41-.06.3.3,0,0,1-.19-.37.32.32,0,0,1,.18-.16,1.14,1.14,0,0,1,.88.09l.5.2A1.22,1.22,0,0,0,17,18Z" style="fill:#f70032"/><path d="M16.45,18.51a1.07,1.07,0,0,1-.93.52c-.33,0-.74-.33-.49-.61a.62.62,0,0,1,.31-.16A5.48,5.48,0,0,1,17,18,1.58,1.58,0,0,0,16.45,18.51Z" style="fill:#f70032"/><path d="M19.88,18.86a1.16,1.16,0,0,0,1.19.47,1.64,1.64,0,0,0,.39-.14c.19-.09.77-.36.63-1.38a1.21,1.21,0,0,0-1.48-.92,1.19,1.19,0,0,0-.9.81,1.08,1.08,0,0,0-.06.5A1.5,1.5,0,0,0,19.88,18.86Z" style="fill:#0c0a35"/><path d="M21.53,18.35a.64.64,0,0,0-.1-.76.76.76,0,0,0-.73-.17.55.55,0,0,0-.37.24.82.82,0,0,0-.08.35.7.7,0,0,0,.17.43.65.65,0,0,0,.82.18A.69.69,0,0,0,21.53,18.35Z" style="fill:#b70027"/><path d="M19.66,14.38a3.54,3.54,0,0,1-2.2.7,6.72,6.72,0,0,1-1.63-.66,1.45,1.45,0,0,1,.71-.5,3.41,3.41,0,0,1,1.33-.27,4.18,4.18,0,0,1,.79.11,2.42,2.42,0,0,1,.5.27Z" style="fill:#fff"/><path d="M19.27,15.32a.77.77,0,0,0-.6.5.68.68,0,0,0,.23.73.92.92,0,0,0,.46.14,1,1,0,0,0,.37-.06.66.66,0,0,0,.42-.65A.73.73,0,0,0,19.27,15.32Z" style="fill:#b70027"/><path d="M18.35,14.16a.55.55,0,0,0-.75-.32.46.46,0,0,0-.32.44.6.6,0,0,0,.57.6A.54.54,0,0,0,18.35,14.16Z" style="fill:#0c0a35"/><path d="M21.51,8.33,21,7.55a1,1,0,0,1-.15-.27,1,1,0,0,1,0-.3,9.2,9.2,0,0,1,.09-2.18A8.17,8.17,0,0,1,22.59,7a2.18,2.18,0,0,1-.12,2.22A1.9,1.9,0,0,1,21.51,8.33Z" style="fill:#f70032"/><path d="M23.58,6.14c.17-.39.34-.87.52-1.27a.06.06,0,0,1,.1,0,9.77,9.77,0,0,1,1.51,2.36,1.28,1.28,0,0,1,.11.33,1.23,1.23,0,0,1-.15.55,14.14,14.14,0,0,0-.86,2.44c-.3,0-.27-.71-.44-.88a6.23,6.23,0,0,1-.88-1.47c-.27-.55-.38-.51-.24-1.08A6.4,6.4,0,0,1,23.58,6.14Z" style="fill:#f70032"/><path d="M27,9.82A5.13,5.13,0,0,0,27.52,11a.07.07,0,0,0,.12,0,10.43,10.43,0,0,0,.1-2.3,13,13,0,0,0-.45-3.75.06.06,0,0,0-.1,0A8.21,8.21,0,0,0,26.28,7a2.23,2.23,0,0,0-.13.44,1,1,0,0,0,0,.28C26.4,8.5,26.69,9.07,27,9.82Z" style="fill:#f70032"/><path d="M19.46,1c0-.09.1-.13.17-.07s.69.56.9.75a.16.16,0,0,1,.07.09.11.11,0,0,1,0,.08,6.09,6.09,0,0,1-.26,1,.08.08,0,0,1-.11,0c-.3-.17-.45-.34-.75-.54-.13-.09-.22-.18-.22-.23C19.29,1.91,19.37,1.44,19.46,1Z" style="fill:#b70027"/><path d="M23.71.6c.05-.08.13-.1.19,0s.5.73.65,1a.16.16,0,0,1,.05.11.19.19,0,0,1,0,.08,5.68,5.68,0,0,1-.54.92.07.07,0,0,1-.11,0,7.4,7.4,0,0,1-.57-.73c-.1-.12-.17-.23-.15-.27C23.3,1.44,23.5,1,23.71.6Z" style="fill:#b70027"/><path d="M27.59.84a.1.1,0,0,1,.18,0c.1.22.29.83.37,1.1a.25.25,0,0,1,0,.12.16.16,0,0,1,0,.07,6.7,6.7,0,0,1-.77.74.07.07,0,0,1-.11,0c-.17-.3-.21-.52-.36-.85-.06-.15-.09-.27-.06-.31S27.27,1.18,27.59.84Z" style="fill:#b70027"/><path d="M16,14.42a3.08,3.08,0,0,1,1.4-.51c.38,0,.85.1,1.16-.17a.15.15,0,0,0,0-.18c-.26-.44-1-.32-1.42-.23a2.18,2.18,0,0,0-1.3,1,.09.09,0,0,0,.13.13Z" style="fill:#0c0a35"/><path d="M26.1,11.66a7.8,7.8,0,0,0-2.4-3.38,8.31,8.31,0,0,0-4.16-2,5.17,5.17,0,0,0-1.1-.19,3.11,3.11,0,0,0-2,.59c-2,1.48-1.33,2.89-1.2,3.18a11.37,11.37,0,0,0,2.32,3.35,7,7,0,0,0,1,.86,6.2,6.2,0,0,0,3.94.89l0,.1a9.81,9.81,0,0,1,.48,3.27c-.06,2.12-.35,2.73,0,3.13s1.25-.47,1.65-1.08a16.24,16.24,0,0,0,1.09-1.73A10.29,10.29,0,0,0,26.1,11.66Z" style="fill:#b70027"/><path d="M19.84,2.76v0a.37.37,0,0,0,.18.31h0A.36.36,0,0,0,20.46,3a.35.35,0,0,0,.05-.42.44.44,0,0,0-.08-.11.35.35,0,0,0-.34-.09.35.35,0,0,0-.25.34Z" style="fill:#0c0a35"/><path d="M23.93,3a.4.4,0,1,0,0-.8.4.4,0,0,0,0,.8Z" style="fill:#0c0a35"/><path d="M27.31,3.17a.38.38,0,0,0,0-.76.38.38,0,0,0,0,.76Z" style="fill:#0c0a35"/><g style="clip-path:url(#clip-path-3)"><path d="M15.32,7.72c-.36.62,0,1.38.24,2a9,9,0,0,0,1.62,2.75c1.17,1.38,2.94,3.85,5,3.87a.09.09,0,0,0,.05-.16A13.6,13.6,0,0,1,20,14.8a20.5,20.5,0,0,1-1.81-1.91,11.5,11.5,0,0,1-1.85-2.42,7.46,7.46,0,0,1-1-2.74s0,0,0,0Z" style="fill:#0c0a35"/><path d="M15.55,6.7c-.27,1,.43,2.32.86,3.25a9.06,9.06,0,0,0,1.42,1.9,26.2,26.2,0,0,0,1.89,2.06c.72.68,2,1.25,2.49,2.16a.18.18,0,0,0,.33-.09c0-.6-.75-1-1.17-1.32a18.48,18.48,0,0,1-2.32-2.1c-1.54-1.67-3.19-3.47-3.43-5.86,0,0-.06,0-.07,0Z" style="fill:#0c0a35"/><path d="M16,6.42a4.57,4.57,0,0,0,1,3,20,20,0,0,0,2.75,3.4c.94.92,2.12,1.51,3.07,2.41a2.46,2.46,0,0,1,.63,2.42c-.16.71-.82,1-1.1,1.62,0,.06,0,.15.1.1a2.86,2.86,0,0,0,.19-4.84C19.8,12.44,16.9,9.94,16.08,6.4c0-.08-.12-.05-.13,0Z" style="fill:#0c0a35"/><path d="M22,15.53c0,.29.2.54.34.78.28.46.12.79-.06,1.26a.42.42,0,0,0,.19.46l.1,0a.41.41,0,0,0,.49-.28,1.92,1.92,0,0,0,.07-1.54c-.17-.34-.57-.85-1-.87a.15.15,0,0,0-.14.15Z" style="fill:#0c0a35"/><path d="M16.54,6c-.31,1.05.58,2.08,1,3,.75,1.4,2,2.29,3.06,3.44s2.53,1.91,3.4,3.35c1.1,1.83-.57,3-1.51,4.34-.11.16.11.28.23.19a4.73,4.73,0,0,0,2-2.93,4.17,4.17,0,0,0-1.5-3.19,17.25,17.25,0,0,0-1.85-1.57c-.72-.58-1.36-1.31-2-2A13.15,13.15,0,0,1,16.65,6s-.1-.06-.11,0Z" style="fill:#0c0a35"/><path d="M17.29,5.74A8.45,8.45,0,0,0,19,9.42a17.12,17.12,0,0,0,3.32,3.21c1.48,1.3,2.71,2.77,2.62,4.84-.08,1.86-1.64,2.62-2.61,4-.14.19.15.37.3.23a8.46,8.46,0,0,0,2.44-3.24,4.64,4.64,0,0,0-.88-4.35c-1-1.34-2.49-2.14-3.58-3.37a17.06,17.06,0,0,1-1.78-2.37c-.53-.85-.91-1.79-1.44-2.62a.07.07,0,0,0-.13,0Z" style="fill:#0c0a35"/><path d="M18.16,5.73a16.11,16.11,0,0,0,2.1,3.89c.74,1.22,2.19,2,3.2,3,1.35,1.3,2.62,3.4,2.31,5.32s-2,2.89-3.16,4.13a.21.21,0,0,0,.25.32A8.31,8.31,0,0,0,25.93,19c.72-1.71.22-3.09-.65-4.62a18.08,18.08,0,0,0-3.46-3.64,25.13,25.13,0,0,1-3.53-5.05.07.07,0,0,0-.13.05Z" style="fill:#0c0a35"/><path d="M19.25,6c.64,1.9,2.29,3.65,3.59,5.14.66.77,1.57,1.29,2.25,2.05A6.26,6.26,0,0,1,26.6,17a.07.07,0,0,0,.13,0c.22-2.12-1-3.79-2.5-5.1a18.39,18.39,0,0,1-2.38-2.61C21,8.28,20.08,7.14,19.32,6c0,0-.08,0-.07,0Z" style="fill:#0c0a35"/><path d="M19.94,5.7c.28.37.46.82.73,1.2s.6.72.87,1.11c.48.69,1,1.38,1.54,2a27,27,0,0,0,2.11,2.3,10.65,10.65,0,0,1,.91.87,6.59,6.59,0,0,1,1,1.91c0,.09.17.09.18,0,0-1.83-2.07-3.37-3.16-4.61C22.68,8.92,21.51,7.12,20,5.65a0,0,0,0,0,0,0Z" style="fill:#0c0a35"/><path d="M21.55,6.48a23,23,0,0,0,2.73,3.4c.51.55,1,1.07,1.58,1.59a5.67,5.67,0,0,1,1.36,2.39c0,.1.21.12.24,0,.34-1.45-1.42-2.74-2.31-3.6C23.89,9,22.83,7.67,21.64,6.41a.06.06,0,0,0-.09.07Z" style="fill:#0c0a35"/></g><path d="M23.61,7.31v0a.68.68,0,1,0,1.36,0v0a.68.68,0,1,0-1.36,0Z" style="fill:#b70027"/><path d="M27,7.93a.55.55,0,1,0-.55-.55.55.55,0,0,0,.55.55Z" style="fill:#b70027"/><path d="M22.7,5.46h0l-.09,0h0c.09,0,.18-.06.2-.16a.2.2,0,0,0-.14-.25.25.25,0,0,0-.32.19.2.2,0,0,0,.33.18Z" style="fill:#b70027"/><path d="M22.82,6h0c-.21-.13-.37.25-.13.31a.26.26,0,0,0,.15,0,.17.17,0,0,0,0-.32.25.25,0,0,0-.15,0c-.24.06-.08.44.13.31h0a.14.14,0,0,0,0-.27Z" style="fill:#b70027"/><path d="M25.58,5.28a.18.18,0,0,0,0-.36.18.18,0,1,0,0,.36Z" style="fill:#b70027"/><path d="M25.63,5.75l0,0a.15.15,0,0,0,.21-.21l0,0c-.13-.14-.35.08-.21.21Z" style="fill:#b70027"/><path d="M26,9.54s0,0,0,0l-.12-.08h0a.2.2,0,1,0,.27-.27.28.28,0,0,0-.18,0,.19.19,0,0,0-.14.18.18.18,0,0,0,.14.17Z" style="fill:#b70027"/><path d="M26.31,10.35a.21.21,0,0,0,0-.42.21.21,0,0,0,0,.42Z" style="fill:#b70027"/><path d="M26.41,11.16a.19.19,0,0,0,0-.37.19.19,0,0,0,0,.37Z" style="fill:#b70027"/><path d="M26.45,11.61v0a.17.17,0,1,0,.32,0v0a.16.16,0,0,0-.3,0Z" style="fill:#b70027"/><path d="M26.52,12.22a.23.23,0,0,0,.06.16c.11.09.31,0,.21-.17v0c.06-.19-.25-.25-.28,0Z" style="fill:#b70027"/><path d="M26.7,13a.21.21,0,0,0,.11.07c.14.05.2-.15.09-.22h0a.11.11,0,0,0-.12,0h0a.11.11,0,0,0,0,.15Z" style="fill:#b70027"/><path d="M26.89,13.81a.11.11,0,1,0,0-.22.11.11,0,1,0,0,.22Z" style="fill:#b70027"/><path d="M13.7,19.15a2.7,2.7,0,0,0,.12.47c0,.07.06.31.2.26.3-.13,0-.61-.11-.79a.11.11,0,0,0-.21.06Z" style="fill:#b70027"/><path d="M12.92,20.09a2.6,2.6,0,0,0-.09.78c0,.14.25.13.28,0a2.1,2.1,0,0,0,0-.75c0-.09-.15-.13-.16,0Z" style="fill:#b70027"/><path d="M14.1,20.84l.24.2a.3.3,0,0,0,.23.1s.07,0,.07-.06-.24-.3-.37-.41-.29.07-.17.17Z" style="fill:#b70027"/><path d="M14.89,20.23a1.36,1.36,0,0,1,.35.07c.07,0,.2,0,.2-.09,0-.25-.42-.23-.58-.21s-.1.23,0,.23Z" style="fill:#b70027"/><path d="M15.7,21.33a2.17,2.17,0,0,0,0,.44,1.93,1.93,0,0,0,.1.43.18.18,0,0,0,.32,0c.08-.29-.16-.58-.21-.86s-.23-.1-.24,0Z" style="fill:#b70027"/><path d="M14.71,22.16c-.12.22-.35.57-.21.82a.16.16,0,0,0,.27,0,.75.75,0,0,0,.1-.33,2.34,2.34,0,0,1,.09-.38c0-.15-.18-.25-.25-.11Z" style="fill:#b70027"/><path d="M13.09,21.92l-.27.37c-.08.09-.2.21-.15.35s0,.05.07.05.22-.14.29-.24.18-.27.26-.41a.12.12,0,0,0-.2-.12Z" style="fill:#b70027"/><path d="M11.78,21.59a2.44,2.44,0,0,0-.14.28.55.55,0,0,0-.07.28,0,0,0,0,0,.08,0,.48.48,0,0,0,.12-.22,2.59,2.59,0,0,1,.14-.29.07.07,0,1,0-.13-.07Z" style="fill:#b70027"/><path d="M11.71,23.3a3.61,3.61,0,0,1,.33.44c.09.11.21.29.38.28a.09.09,0,0,0,.08-.09c0-.16-.15-.28-.25-.4a3.13,3.13,0,0,0-.42-.39c-.09-.07-.19.08-.12.16Z" style="fill:#b70027"/><path d="M11.85,24.93c.14.14.22.36.43.42,0,0,.09,0,.08-.07a1,1,0,0,0-.33-.54c-.12-.12-.3.06-.18.19Z" style="fill:#b70027"/><path d="M13.71,24a2.59,2.59,0,0,1,.09.4c0,.11,0,.25.12.31a.09.09,0,0,0,.1,0c.1-.08.06-.22,0-.33a3.13,3.13,0,0,0-.1-.44c-.05-.16-.3-.09-.25.07Z" style="fill:#b70027"/><path d="M15.45,23.58c.05.21.13.53.35.62a.08.08,0,0,0,.1-.07.91.91,0,0,0-.1-.29,1.75,1.75,0,0,1-.12-.32.12.12,0,0,0-.23.06Z" style="fill:#b70027"/><path d="M16.45,22.93l.17.19a.21.21,0,0,0,.2.07.06.06,0,0,0,.06-.06.23.23,0,0,0-.09-.18l-.18-.19c-.1-.12-.26,0-.16.17Z" style="fill:#b70027"/><path d="M16.9,24.29a2.09,2.09,0,0,1-.08.5c0,.12,0,.26.09.33H17c.11-.07.11-.22.12-.34a2.27,2.27,0,0,0,0-.52c0-.13-.23-.1-.22,0Z" style="fill:#b70027"/><path d="M15,25.15a1.52,1.52,0,0,0,.09.67.06.06,0,0,0,.11,0c.12-.19,0-.45,0-.67S15,25,15,25.15Z" style="fill:#b70027"/><path d="M13.48,26h.28c.09,0,.2,0,.28,0a.06.06,0,0,0,0-.09c-.09-.18-.44-.11-.6-.11s-.13.21,0,.21Z" style="fill:#b70027"/><path d="M12.44,26.5l0,.26c0,.08,0,.18.07.23a0,0,0,0,0,.07,0c.15-.1.06-.35.05-.5s-.23-.14-.22,0Z" style="fill:#b70027"/><path d="M13.86,27.62a.51.51,0,0,1,.32.06,1,1,0,0,0,.3.06.05.05,0,0,0,0-.09.6.6,0,0,0-.31-.2.58.58,0,0,0-.39,0c-.12,0-.07.2,0,.18Z" style="fill:#b70027"/><path d="M15.39,26.93a3.07,3.07,0,0,0,.26.25,2.83,2.83,0,0,0,.28.23c.11.07.21-.06.17-.17a.77.77,0,0,0-.25-.26l-.32-.23c-.11-.07-.23.09-.14.18Z" style="fill:#b70027"/><path d="M16.7,26.26l.25.13a.75.75,0,0,0,.25.13.14.14,0,0,0,.13-.23c-.12-.15-.38-.17-.55-.21s-.18.13-.08.18Z" style="fill:#b70027"/><path d="M15.12,28.56a.81.81,0,0,0,.38,0c.11,0,.27-.08.26-.21s-.17-.12-.27-.09-.25.06-.37.09-.09.17,0,.2Z" style="fill:#b70027"/><path d="M22.16,17c.09.15.26.44.48.38,0,0,.05-.05,0-.09s-.12-.12-.2-.17a1.06,1.06,0,0,1-.23-.19s-.12,0-.09.07Z" style="fill:#b70027"/><path d="M22.46,18.32a1.85,1.85,0,0,0-.19.27.48.48,0,0,0-.09.32.07.07,0,0,0,.09,0,.4.4,0,0,0,.16-.22,1.49,1.49,0,0,1,.18-.3c.06-.08-.08-.19-.15-.11Z" style="fill:#b70027"/><path d="M21.49,19.81c.06.15,0,.37.17.47s.08,0,.09,0a2,2,0,0,0,0-.24.85.85,0,0,0-.08-.24c0-.09-.17,0-.14,0Z" style="fill:#b70027"/><path d="M22.37,19.79c-.06.14-.09.3-.16.43s0,.08.05.06.16-.27.23-.42-.08-.15-.12-.07Z" style="fill:#b70027"/><path d="M21.69,21.49c.12,0,.28,0,.39-.09a0,0,0,0,0,0-.06c-.1-.12-.31-.07-.44,0a.09.09,0,0,0,.05.18Z" style="fill:#b70027"/><path d="M25.92,28.46c.13,0,.29,0,.4-.09a.06.06,0,0,0,0-.06c-.11-.12-.32-.06-.45,0s-.06.22.05.18Z" style="fill:#b70027"/><path d="M25.48,27.33c.13,0,.29,0,.39-.09s0,0,0-.06-.31-.06-.44,0a.09.09,0,1,0,.05.18Z" style="fill:#b70027"/><path d="M26.7,25c.05.12,0,.29.13.38s0,0,.06,0,0-.32,0-.45-.22,0-.18.07Z" style="fill:#b70027"/><path d="M22.89,26.4c.13,0,.29,0,.4-.1a.06.06,0,0,0,0-.06c-.11-.12-.32-.06-.45,0s-.06.22.05.19Z" style="fill:#b70027"/><path d="M20.8,21.21c0,.18-.12.53.06.66a.05.05,0,0,0,.08,0,.39.39,0,0,0,0-.24,1.4,1.4,0,0,1,0-.35c0-.12-.16-.17-.18-.05Z" style="fill:#b70027"/><path d="M22.36,21l0,0s0,0,0,0l0,0s0,0,0,0Z" style="fill:#b70027"/><path d="M22.68,22.07a1,1,0,0,0,.11.29c0,.07.09.16.19.16a.06.06,0,0,0,.06-.05.24.24,0,0,0-.05-.18.73.73,0,0,1-.1-.28c0-.13-.24-.08-.21.06Z" style="fill:#b70027"/><path d="M21.78,22.55a.48.48,0,0,0,.14.47A.05.05,0,0,0,22,23a3.12,3.12,0,0,0,0-.43c0-.14-.2-.14-.21,0Z" style="fill:#b70027"/><path d="M20.89,23.29a1.17,1.17,0,0,0,.16.44s.05,0,.06,0c.08-.17,0-.33,0-.5s-.21-.07-.19.06Z" style="fill:#b70027"/><path d="M22.05,24.29c.16,0,.32,0,.48,0a.39.39,0,0,0,.32-.13.07.07,0,0,0,0-.1.65.65,0,0,0-.34,0l-.43,0a.1.1,0,1,0,0,.2Z" style="fill:#b70027"/><path d="M23,27.73h.48c.12,0,.25,0,.32-.12s0-.09,0-.1-.22,0-.34,0-.29,0-.43,0a.1.1,0,0,0,0,.2Z" style="fill:#b70027"/><path d="M23.37,23.41l.3.08c.1,0,.18.11.28.14a.11.11,0,0,0,.13-.16c-.1-.22-.48-.23-.69-.23s-.12.15,0,.17Z" style="fill:#b70027"/><path d="M23.4,24.85a.86.86,0,0,0-.18.62.12.12,0,0,0,.22,0,2.13,2.13,0,0,0,0-.25.64.64,0,0,1,.11-.27c.07-.12-.1-.2-.18-.1Z" style="fill:#b70027"/><path d="M21.72,25.31l0,0s0,0,0,0l0,0s0,0,0,0Z" style="fill:#b70027"/><path d="M21.29,25.73a1.23,1.23,0,0,0,.39-.16c.12-.05.3-.11.34-.24a.08.08,0,0,0,0-.08c-.12-.07-.24,0-.34.08a3.71,3.71,0,0,0-.41.28.07.07,0,0,0,.05.12Z" style="fill:#b70027"/><path d="M21.79,26.92a.76.76,0,0,0,.19.52s.08,0,.09,0-.08-.32-.08-.48-.21-.13-.2,0Z" style="fill:#b70027"/><path d="M24.35,22.38a2,2,0,0,1,.39-.13c.11,0,.25,0,.31-.15s0-.08,0-.09a.68.68,0,0,0-.36.08,1.08,1.08,0,0,0-.35.19c-.06,0,0,.13.05.1Z" style="fill:#b70027"/><path d="M25,21.08c.08.09.16.2.25.29a.75.75,0,0,0,.12.14.31.31,0,0,0,.16.06,0,0,0,0,0,.06-.06.5.5,0,0,0-.05-.13c0-.06-.1-.11-.14-.16L25.16,21a.09.09,0,0,0-.13.13Z" style="fill:#b70027"/><path d="M25.72,22.46a.84.84,0,0,0,.13.44.06.06,0,0,0,.1,0c.09-.13,0-.29,0-.44s-.23-.14-.22,0Z" style="fill:#b70027"/><path d="M24.85,23.73c.08.15.11.38.29.45s.07,0,.07,0-.1-.37-.19-.51a.1.1,0,1,0-.17.1Z" style="fill:#b70027"/><path d="M26,24.31a3.85,3.85,0,0,0,.48,0c.12,0,.1-.2,0-.23a.66.66,0,0,0-.51.13c-.05,0,0,.12,0,.11Z" style="fill:#b70027"/><path d="M26,26.15c.15,0,.32,0,.47,0s.11-.2,0-.23A.61.61,0,0,0,26,26a.06.06,0,0,0,0,.11Z" style="fill:#b70027"/><path d="M26.87,27.65c0-.15.1-.3.12-.46s-.16-.16-.22-.07a.65.65,0,0,0,0,.53.06.06,0,0,0,.12,0Z" style="fill:#b70027"/><path d="M25.17,24.81a4,4,0,0,0,.24.33c.09.09.24,0,.17-.13a1.1,1.1,0,0,0-.26-.31c-.08-.06-.21,0-.15.11Z" style="fill:#b70027"/><path d="M24.27,26.35a4,4,0,0,0,.24.33.12.12,0,0,0,.18-.14,1.53,1.53,0,0,0-.27-.3c-.08-.06-.21,0-.15.11Z" style="fill:#b70027"/><path d="M25.61,20.35H26a.27.27,0,0,0,.25-.09,0,0,0,0,0,0-.05c-.05-.08-.13-.08-.21-.08h-.38a.11.11,0,0,0,0,.21Z" style="fill:#b70027"/><path d="M24.07,28.6h.34c.09,0,.2,0,.25-.09a0,0,0,0,0,0-.05.23.23,0,0,0-.21-.08h-.38a.11.11,0,0,0,0,.21Z" style="fill:#b70027"/><path d="M26.62,18.55c0,.21.07.73.34.74a.09.09,0,0,0,.08-.07c0-.12-.07-.26-.12-.37s-.11-.27-.23-.33a0,0,0,0,0-.07,0Z" style="fill:#b70027"/><path d="M27.19,20.24a.89.89,0,0,0,.4.39s.05,0,0,0a.37.37,0,0,0-.13-.17,1.64,1.64,0,0,1-.21-.24c0-.06-.13,0-.1.06Z" style="fill:#b70027"/><path d="M26.82,21.57l.22.21a1.22,1.22,0,0,0,.25.2s.05,0,.06,0c0-.22-.26-.37-.39-.52s-.23,0-.14.15Z" style="fill:#b70027"/><path d="M27.66,18.6a2.73,2.73,0,0,1,.41.1c.07,0,.23.1.26,0s-.18-.17-.27-.18a1.15,1.15,0,0,0-.41.05,0,0,0,0,0,0,.05Z" style="fill:#b70027"/><path d="M26.86,17.67a.83.83,0,0,0,.54-.06.09.09,0,0,0,0-.12c-.15-.12-.36-.07-.54-.06a.12.12,0,1,0,0,.24Z" style="fill:#b70027"/><path d="M28.27,19.88c.17,0,.48,0,.54-.17a.05.05,0,0,0,0-.07.33.33,0,0,0-.22,0l-.31.07a.09.09,0,0,0,0,.17Z" style="fill:#b70027"/><path d="M29.36,20.28l0,.26a1.06,1.06,0,0,0,0,.25.05.05,0,0,0,.08.05c.2-.11.13-.4.1-.58s-.12-.05-.13,0Z" style="fill:#b70027"/><path d="M28.35,21.17a1.41,1.41,0,0,0,0,.29,1.06,1.06,0,0,0,.05.31s0,.09.09.09c.32.05.08-.56.07-.69a.11.11,0,0,0-.22,0Z" style="fill:#b70027"/><path d="M26.59,23.58c.1,0,.2.07.3.12s.19.13.28.11a.07.07,0,0,0,0,0c.05-.24-.44-.27-.59-.29a.06.06,0,0,0,0,.11Z" style="fill:#b70027"/><path d="M28.5,22.75a1.67,1.67,0,0,1,.38.06c.09,0,.2.07.28,0a0,0,0,0,0,0-.07c0-.1-.2-.1-.29-.12a1.71,1.71,0,0,0-.39,0,.07.07,0,1,0,0,.13Z" style="fill:#b70027"/><path d="M29.71,21.9l.06.3c0,.08,0,.17.11.21s.05,0,.06,0a.22.22,0,0,0,0-.22c0-.11-.08-.21-.12-.32s-.16-.06-.14,0Z" style="fill:#b70027"/><path d="M28.61,24.11c.14-.11.34-.16.46-.3s0-.08,0-.08a.64.64,0,0,0-.54.28.07.07,0,0,0,.1.1Z" style="fill:#b70027"/><path d="M29.77,23.38c.08,0,.43,0,.37-.17s-.33-.06-.44,0a.09.09,0,0,0,.07.17Z" style="fill:#b70027"/><path d="M18.1,24a.2.2,0,0,0,0-.4.2.2,0,0,0,0,.4Z" style="fill:#0c0a35"/><path d="M18.61,24.1a.2.2,0,1,0,0-.4.2.2,0,0,0,0,.4Z" style="fill:#0c0a35"/><path d="M19.16,24.22a.23.23,0,0,0,0-.45.23.23,0,0,0,0,.45Z" style="fill:#0c0a35"/><path d="M19.77,24.16a.16.16,0,0,0,0-.32.16.16,0,0,0,0,.32Z" style="fill:#0c0a35"/><path d="M18.36,25.38a.2.2,0,0,0,0-.39.2.2,0,0,0,0,.39Z" style="fill:#0c0a35"/><path d="M18.9,25.43a.22.22,0,0,0,0-.43.22.22,0,0,0,0,.43Z" style="fill:#0c0a35"/><path d="M19.45,25.41a.2.2,0,0,0,0-.39.2.2,0,0,0,0,.39Z" style="fill:#0c0a35"/><path d="M20,25.43A.22.22,0,0,0,20,25a.22.22,0,0,0,0,.43Z" style="fill:#0c0a35"/><path d="M17.62,22.62a.17.17,0,0,0,0-.33.17.17,0,0,0,0,.33Z" style="fill:#0c0a35"/><path d="M18.16,22.66a.18.18,0,0,0,0-.35.18.18,0,0,0,0,.35Z" style="fill:#0c0a35"/><path d="M18.65,22.7a.18.18,0,0,0,0-.36.18.18,0,0,0,0,.36Z" style="fill:#0c0a35"/><path d="M19.19,22.74a.22.22,0,0,0,0-.43.22.22,0,0,0,0,.43Z" style="fill:#0c0a35"/><path d="M14.52,16.33a.22.22,0,0,0,0-.43.22.22,0,0,0,0,.43Z" style="fill:#0c0a35"/><path d="M19.78,22.65a.19.19,0,0,0,0-.38.19.19,0,0,0,0,.38Z" style="fill:#0c0a35"/><path d="M17.3,28.53a.17.17,0,0,0,0-.33.17.17,0,0,0,0,.33Z" style="fill:#0c0a35"/><path d="M18,28.6a.18.18,0,0,0,0-.35.18.18,0,0,0,0,.35Z" style="fill:#0c0a35"/><path d="M18.61,28.6a.18.18,0,0,0,0-.35.18.18,0,0,0,0,.35Z" style="fill:#0c0a35"/><path d="M19.29,28.56a.17.17,0,0,0,0-.34.17.17,0,0,0,0,.34Z" style="fill:#0c0a35"/><path d="M19.87,28.57a.21.21,0,0,0,0-.42.21.21,0,0,0,0,.42Z" style="fill:#0c0a35"/><path d="M20.51,28.6a.21.21,0,0,0,0-.41.21.21,0,0,0,0,.41Z" style="fill:#0c0a35"/><path d="M21.15,28.55a.16.16,0,0,0,0-.32.16.16,0,0,0,0,.32Z" style="fill:#0c0a35"/><path d="M21.63,28.47a.15.15,0,0,0,0-.29.15.15,0,0,0,0,.29Z" style="fill:#0c0a35"/><path d="M32.65,26.18c-.3.47-.9.45-1.42.45a3,3,0,0,1-2.06-.49,3.21,3.21,0,0,1-.66-1.06c-.83-1.76-2-3.45-2.16-5.4a.46.46,0,0,1,.06-.3,3.59,3.59,0,0,0,.88.54A.54.54,0,0,0,28,19.7l.64-1.16,1.27,1.08a.36.36,0,0,0,.47,0,10.57,10.57,0,0,1,1.39-1.11c.3.47.61.94.91,1.42a.33.33,0,0,0,.13.13A.28.28,0,0,0,33,20l1.42-.7.18,1.37a.2.2,0,0,0,.25.17,3,3,0,0,1,1.39-.07A9.66,9.66,0,0,1,34.73,23C34.3,23.54,33,25.58,32.65,26.18Z" style="fill:#990028"/><path d="M27.57,26.82a.44.44,0,0,0,.11.52,1.2,1.2,0,0,0,.51.24l1.26.37a.43.43,0,0,1,.22.65,1,1,0,0,0-.15.26.8.8,0,0,0,.4.9,1.34,1.34,0,0,0,1,0,2.65,2.65,0,0,0,1.27-1,6.58,6.58,0,0,0,.71-1.49,2.93,2.93,0,0,0,.17-2.24,3.21,3.21,0,0,0-2-1.27A3.9,3.9,0,0,0,29,23.55a.35.35,0,0,0-.29.31c0,.15.21.26.27.28.75.22,1.41.37,1.83.55a.07.07,0,0,1,0,.13c-.7-.13-1.69-.26-2.48-.34a.36.36,0,0,0-.41.38.39.39,0,0,0,.26.32c.54.16,1.27.33,1.91.54.33.12.55.13.52.26s-.24,0-.59,0a15,15,0,0,0-1.72-.35c-.26,0-.54,0-.65.27s1.12.65,2.13.89c.21.05.43.07.41.15s-.34.05-.56,0A9.93,9.93,0,0,0,28,26.63.39.39,0,0,0,27.57,26.82Z" style="fill:#ffd6a1"/><path d="M28.58,23.87c0,.12.2.17.31.21a.55.55,0,0,0,.54,0,.27.27,0,0,0,.07-.31.39.39,0,0,0-.3-.2,1.15,1.15,0,0,0-.32,0c-.13,0-.37.11-.3.29Z" style="fill:#0c0a35"/><path d="M27.77,25a.83.83,0,0,0,.78.19.33.33,0,0,0,.1-.5.83.83,0,0,0-.77-.2.29.29,0,0,0-.11.51Z" style="fill:#0c0a35"/><path d="M27.44,25.93a.61.61,0,0,0,.79.27.23.23,0,0,0,.11-.31.59.59,0,0,0-.47-.28c-.17,0-.5.09-.43.32Z" style="fill:#0c0a35"/><path d="M27.33,27c0,.31.51.39.75.37a.3.3,0,0,0,.11-.53,1,1,0,0,0-.56-.1c-.15,0-.32.08-.3.26Z" style="fill:#0c0a35"/><path d="M32.93,24.94c0,.07-.18.29,0,.34s.17-.21.18-.29a.08.08,0,0,0-.15,0Z" style="fill:#0c0a35"/><path d="M32.69,26c-.14,0-.28.15-.32.26a.16.16,0,0,0,.26.18.47.47,0,0,0,.14-.27c0-.06,0-.15-.08-.17Z" style="fill:#0c0a35"/><path d="M32.09,27.09a.21.21,0,0,0-.13.1,1.15,1.15,0,0,0-.14.17c-.09.12.05.27.19.21a.36.36,0,0,0,.21-.25c0-.08,0-.25-.13-.23Z" style="fill:#0c0a35"/><path d="M31.3,28.07a1.54,1.54,0,0,0-.19.17.12.12,0,1,0,.18.16l.16-.16a.11.11,0,0,0-.15-.17Z" style="fill:#0c0a35"/><path d="M27.3,20.53l-.05-.06a.31.31,0,0,0-.49,0,.44.44,0,0,0-.07.19.35.35,0,0,0,.22.33h0a.32.32,0,0,0,.41-.36h0c0-.09,0-.11,0,0s-.07.2-.1.29h0L27.1,21h.06a.26.26,0,0,0,.14-.42Z" style="fill:#b70027"/><path d="M29,20.47a.45.45,0,1,0-.63-.31.44.44,0,0,0,.63.31Z" style="fill:#b70027"/><path d="M29,21.12h0a.3.3,0,0,0-.4.27.33.33,0,0,0,.33.35.3.3,0,0,0,.19-.54c.08.06,0,0,0,0s-.06,0-.07,0Z" style="fill:#b70027"/><path d="M29.05,22.35h0a.21.21,0,0,0,.12.37.21.21,0,0,0,.13-.38h0a.18.18,0,0,0-.23,0Z" style="fill:#b70027"/><path d="M27.35,21.88a.14.14,0,0,0,.09-.27.14.14,0,0,0-.09.27Z" style="fill:#b70027"/><path d="M27.57,22.59a.19.19,0,0,0,0,.08.14.14,0,0,0,.27,0h0c.08-.21-.28-.27-.28-.06Z" style="fill:#b70027"/><path d="M31.25,20.27a.47.47,0,1,0-.29-.6.48.48,0,0,0,.29.6Z" style="fill:#b70027"/><path d="M31.13,21.42a.31.31,0,0,0,.4-.19.32.32,0,0,0-.2-.41.33.33,0,0,0-.4.2.33.33,0,0,0,.2.4Z" style="fill:#b70027"/><path d="M31.13,22.41h0l-.16,0h0c.11,0,.22-.05.19-.17s0,0,0,0a.21.21,0,0,0-.07-.11.19.19,0,0,0-.26,0c-.12.17.12.4.27.25Z" style="fill:#b70027"/><path d="M33.93,20.6a.3.3,0,0,0-.2-.23.32.32,0,0,0-.41.22.31.31,0,0,0,.59.2.5.5,0,0,0,0-.21.76.76,0,0,1,0,.15l-.06.09a.22.22,0,0,0,.08-.22Z" style="fill:#b70027"/><path d="M33.17,21.8a.21.21,0,0,0,.13-.39.21.21,0,0,0-.13.39Z" style="fill:#b70027"/><path d="M32.75,22.66a.2.2,0,0,0,.09.05c.18.08.31-.12.25-.28a.21.21,0,0,0-.16-.13.2.2,0,0,0-.18.36Z" style="fill:#b70027"/><path d="M35.22,21.42h0a.27.27,0,1,0,.36.12v0a.24.24,0,0,0-.33-.11Z" style="fill:#b70027"/><path d="M34.67,22.78a.2.2,0,0,0,.13-.38.2.2,0,0,0-.13.38Z" style="fill:#b70027"/><path d="M34.17,23.51h0a.19.19,0,0,0,.12-.34l0,0a.2.2,0,0,0-.3.1.2.2,0,0,0,.18.26Z" style="fill:#b70027"/><g style="clip-path:url(#clip-path-4)"><path d="M27.53,19.16A6.61,6.61,0,0,0,28.4,23a.07.07,0,0,0,.14,0c-.15-1.28-.85-2.49-.88-3.78a.07.07,0,0,0-.13,0Z" style="fill:#0c0a35"/><path d="M29.81,18.16a5.54,5.54,0,0,0-.07,2,16.58,16.58,0,0,0,.34,2.72c0,.08.13.07.15,0,.29-1.52-.55-3.13-.19-4.65,0-.15-.19-.22-.23-.08Z" style="fill:#0c0a35"/><path d="M33,18.16c-.37,1.71-1,3.38-1.23,5.13,0,.05.08.08.1,0A9.25,9.25,0,0,0,32.57,21c.2-.93.46-1.85.61-2.79,0-.11-.17-.15-.19,0Z" style="fill:#0c0a35"/><path d="M35.37,19.67c-.84,1.3-2.14,2.53-2.63,4a.09.09,0,0,0,.13.1,5.5,5.5,0,0,0,1.5-2,14.17,14.17,0,0,0,1.15-2.09.08.08,0,0,0-.15-.07Z" style="fill:#0c0a35"/></g><path d="M19.9,32.29a.5.5,0,0,0,.5-.49.5.5,0,0,0-1,0,.5.5,0,0,0,.5.49Z" style="fill:#f70032"/><path d="M19.74,30.71h0l-.1-.06h0a.27.27,0,0,0,.44-.18.26.26,0,0,0-.44-.18h0l.1-.06h0a.24.24,0,0,0,0,.45Z" style="fill:#990028"/><path d="M18.29,32.19A.29.29,0,1,0,18,31.9a.29.29,0,0,0,.29.29Z" style="fill:#990028"/><path d="M21.36,32a.17.17,0,0,0,0-.34.17.17,0,0,0,0,.34Z" style="fill:#990028"/><path d="M20,33.22v0a.29.29,0,1,0,.51,0,0,0,0,0,0,0,0,.28.28,0,0,0-.49,0Z" style="fill:#990028"/><path d="M14.77,46.94a2.56,2.56,0,0,0-1.33,1.3A5.89,5.89,0,0,0,13,50.08a32.81,32.81,0,0,0,.17,7.41,6.06,6.06,0,0,0,.41,1.94.26.26,0,0,0,.12.15c.11.05.22-.07.3-.18a7.89,7.89,0,0,1,1.39-1.7.14.14,0,0,1,.19,0,17.3,17.3,0,0,0,1.31,2.07s.07.08.12.08.14-.07.18-.14c.41-.74.75-1.33,1.18-2a.15.15,0,0,1,.18-.06c.55.27,1.6,1.54,2.18,2a.1.1,0,0,0,.15-.07c0-.67-.12-2.66-.15-3.34s0-1.1,0-1.65a9.3,9.3,0,0,0-1.26-3.87,20.08,20.08,0,0,0-2-2.71,3.73,3.73,0,0,0-1.07-1A2.13,2.13,0,0,0,14.77,46.94Z" style="fill:#990028"/><path d="M16,34.72a6.07,6.07,0,0,0,3.14-.92,12.65,12.65,0,0,0,2.47-2.27,2.81,2.81,0,0,0,.92,1.31,6.41,6.41,0,0,0,1.27.67L25,34c.61.27,1.36.25,1.75.79a1.72,1.72,0,0,1,.23.58c.59,2.44,1.16,5.09.12,7.38a4.79,4.79,0,0,0,4.32-1.61,6,6,0,0,0,1.35-4.48,6.2,6.2,0,0,0-.58-2.11,7.5,7.5,0,0,0-1.41-1.91,10.62,10.62,0,0,0-5.45-2.89,19.5,19.5,0,0,0-3.24-.27,18.52,18.52,0,0,0-7.08.8,20,20,0,0,0-2.09,1,5.23,5.23,0,0,0-1.52,1.05,4.6,4.6,0,0,0-.76,1.26,29.47,29.47,0,0,0-1.37,3.52,7.38,7.38,0,0,0-.41,2.23,4.63,4.63,0,0,0,1.81,3.49,6.18,6.18,0,0,0,3.79,1.25,1.75,1.75,0,0,0,1.63-.66,1.64,1.64,0,0,0,.18-.69,20.82,20.82,0,0,0-.49-4A10.28,10.28,0,0,1,16,34.72Z" style="fill:#b70027"/><g style="clip-path:url(#clip-path-5)"><path d="M33.55,37.93a20.4,20.4,0,0,1-4.18,1.83c-1,.23-2.54.28-2.95,1.4a.38.38,0,0,0,.25.46c1,.35,2.72-.29,3.7-.66A21.37,21.37,0,0,0,34,38.68a.44.44,0,0,0-.44-.75Z" style="fill:#990028"/><path d="M33.72,33.91c-.31.79-2,1.35-2.66,1.79A11.62,11.62,0,0,0,28,38a.33.33,0,0,0,.29.5c1.58-.13,2.91-1.42,4.18-2.27.77-.5,1.83-1.16,2-2.13a.38.38,0,0,0-.73-.2Z" style="fill:#990028"/><path d="M31.27,31.52a21.65,21.65,0,0,1-3,2.3c-.88.67-2.12,1.35-2.6,2.38a.36.36,0,0,0,.4.53c1.21-.27,2.31-1.38,3.26-2.12a9.59,9.59,0,0,0,2.53-2.67c.19-.34-.28-.73-.55-.42Z" style="fill:#990028"/><path d="M29,29.49c-.82.82-1.66,1.61-2.49,2.41s-2,1.43-2.59,2.41a.43.43,0,0,0,.36.63c1.19,0,2.2-1,3-1.82a12.05,12.05,0,0,0,2.23-3.25.31.31,0,0,0-.49-.38Z" style="fill:#990028"/><path d="M21.46,33.68a6.91,6.91,0,0,1-1-1.36c-.46-.7-1-1.31-1.51-2a19.42,19.42,0,0,1-1.13-2c-.32-.6-.55-1.23-1.28-1.35a.42.42,0,0,0-.48.2,1.54,1.54,0,0,0,.23,1.6,22.15,22.15,0,0,0,1.56,2.38A19.83,19.83,0,0,0,19.56,33a8.73,8.73,0,0,0,1.33,1.39c.44.29,1-.39.57-.74Z" style="fill:#990028"/><path d="M19.4,34.77a6.28,6.28,0,0,1-1.2-1.16c-.59-.6-1.26-1.1-1.84-1.7a17.46,17.46,0,0,1-1.47-1.75c-.42-.53-.76-1.11-1.51-1.1a.43.43,0,0,0-.43.28,1.54,1.54,0,0,0,.52,1.54A21.14,21.14,0,0,0,15.42,33a24.45,24.45,0,0,0,2,1.53A8.23,8.23,0,0,0,19,35.6c.49.21.89-.56.43-.83Z" style="fill:#990028"/><path d="M17,36.07a6.28,6.28,0,0,1-1.2-1.16c-.59-.6-1.26-1.11-1.84-1.7a20.31,20.31,0,0,1-1.48-1.74c-.42-.54-.75-1.12-1.5-1.1a.44.44,0,0,0-.44.27,1.58,1.58,0,0,0,.52,1.54,24,24,0,0,0,2,2.07,24.45,24.45,0,0,0,2,1.53,9.47,9.47,0,0,0,1.56,1.12c.49.21.89-.56.43-.83Z" style="fill:#990028"/><path d="M12.91,40.52A13.58,13.58,0,0,1,9,39.47c-.92-.36-2.18-1.09-3.18-.77a.33.33,0,0,0-.2.48c.6.9,2.07,1.19,3.06,1.46a15.47,15.47,0,0,0,4.22.59.36.36,0,0,0,0-.71Z" style="fill:#990028"/><path d="M27,28.74c-1.82,1.52-3.91,2.86-5.28,4.85-.17.25.11.52.37.47a5.55,5.55,0,0,0,2.63-1.86c.92-1,1.93-1.89,2.8-2.94a.37.37,0,0,0-.52-.52Z" style="fill:#990028"/></g><path d="M24.32,37.58a3.59,3.59,0,0,1-.71,1.32,3,3,0,0,0-2.54-.6,6.21,6.21,0,0,0-2.43,1.16l-.35-.83a.42.42,0,0,1,0-.15.35.35,0,0,1,.08-.13,4.34,4.34,0,0,1,2.85-1.27A7.84,7.84,0,0,1,24.32,37.58Z" style="fill:#b70027"/><path d="M29.58,41.83A4.4,4.4,0,0,0,30.14,40a7.64,7.64,0,0,0-.44-3.91,4.57,4.57,0,0,0-2.82-2.62,2.59,2.59,0,0,0-1.14-.09,3.69,3.69,0,0,0-1,.38,3.72,3.72,0,0,0-1.32.95A3.26,3.26,0,0,0,23,37.48a17.14,17.14,0,0,1,.63,2.8,17.86,17.86,0,0,1-.16,2,3.12,3.12,0,0,0,.42,2,2,2,0,0,0,1,.71,1,1,0,0,0,.55.05,1.4,1.4,0,0,0,.38-.16,13.26,13.26,0,0,0,3.07-2.25A4.86,4.86,0,0,0,29.58,41.83Z" style="fill:#f70032"/><path d="M20,35.94a5,5,0,0,0-.56-1.24,3.57,3.57,0,0,0-1.52-1.16,4.86,4.86,0,0,0-4.35,0,6.16,6.16,0,0,0-2.38,3.14A7.35,7.35,0,0,0,10.5,40a7.84,7.84,0,0,0,1,3.19c1.07,2,3.09,3,4,3.89a11.6,11.6,0,0,1,.9,1.19,6.42,6.42,0,0,0,2.69,2,2.07,2.07,0,0,0,1.29.18.94.94,0,0,0,.75-1,1.77,1.77,0,0,0-.53-.83,4.47,4.47,0,0,1-1.12-2.76c-.1-2.09,1.26-4,1.36-6.1A10.42,10.42,0,0,0,20,35.94Z" style="fill:#f70032"/><path d="M25.54,42.72a1.83,1.83,0,0,0-2.05-.14.81.81,0,0,0-.28.24,1.14,1.14,0,0,0-.18.6,27.31,27.31,0,0,0,.17,7.28A4.76,4.76,0,0,0,23.56,52,2.76,2.76,0,0,0,25,52.9a4.67,4.67,0,0,0,1.86-3,10.51,10.51,0,0,0,0-4,9.53,9.53,0,0,0-.42-1.83A2.91,2.91,0,0,0,25.54,42.72Z" style="fill:#b70027"/><g style="clip-path:url(#clip-path-6)"><path d="M25.29,52.16c1.52-.94,1.43-3.84,1.37-5.35s-.46-4.31-2.39-4.73a0,0,0,0,0,0,.09A3.82,3.82,0,0,1,26,44.26a12.09,12.09,0,0,1,.38,2.94A7.25,7.25,0,0,1,25.1,52c-.09.11.07.26.19.19Z" style="fill:#0c0a35"/><path d="M25.18,51.31a4.9,4.9,0,0,0,.72-2.89c0-.67,0-1.76-.63-2.13-.08,0-.18,0-.15.11a7.64,7.64,0,0,1-.1,4.84.09.09,0,0,0,.16.07Z" style="fill:#0c0a35"/></g><path d="M25.75,53.5c.25-1.22-.38-2.49-.2-3.73a6.06,6.06,0,0,1,.76-1.91,8,8,0,0,1,1.12-1.28c.05-.07.11-.15.09-.23s-.05-.07-.08-.1c-.25-.2-.6-.21-.87-.37a1.82,1.82,0,0,1-.71-1.08,10.84,10.84,0,0,1-.49-1.56c-.1-.43-.15-.87-.26-1.3a1.11,1.11,0,0,0-.19-.43,1.1,1.1,0,0,0-.47-.32,3.23,3.23,0,0,0-3,.76,7,7,0,0,0-2.64,5.27,3.78,3.78,0,0,0,0,.75,4.69,4.69,0,0,0,.41,1.1,6.94,6.94,0,0,0,.41.71,7.63,7.63,0,0,0,1.05,1.15l1.56,1.48a6.24,6.24,0,0,0,1,.85,3.29,3.29,0,0,0,1.73.48C25.23,53.73,25.7,53.73,25.75,53.5Z" style="fill:#ffd6a1"/><path d="M23.91,44.3c.17,0,.56-.16.72-.16.36,0,.53,0,.88,0a.76.76,0,0,1,.42.06.32.32,0,0,1,.19.37.32.32,0,0,1-.18.16,1.17,1.17,0,0,1-.89-.09l-.5-.19A1.12,1.12,0,0,0,23.91,44.3Z" style="fill:#f70032"/><path d="M24.48,43.77a1,1,0,0,1,.93-.52c.33,0,.74.32.49.61a.69.69,0,0,1-.31.15,5.88,5.88,0,0,1-1.66.27A2.05,2.05,0,0,0,24.48,43.77Z" style="fill:#f70032"/><path d="M21,43.41a1.15,1.15,0,0,0-1.19-.47,3,3,0,0,0-.39.14c-.19.09-.76.36-.62,1.38a1.24,1.24,0,0,0,2.38.11,1.06,1.06,0,0,0,.06-.5A1.35,1.35,0,0,0,21,43.41Z" style="fill:#0c0a35"/><path d="M19.39,43.93a.64.64,0,0,0,.1.75.79.79,0,0,0,.74.18.61.61,0,0,0,.36-.25.69.69,0,0,0,.08-.35.6.6,0,0,0-.16-.42.64.64,0,0,0-.82-.19A.67.67,0,0,0,19.39,43.93Z" style="fill:#b70027"/><path d="M21.26,47.89a3.56,3.56,0,0,1,2.21-.7,7.36,7.36,0,0,1,1.63.66,1.49,1.49,0,0,1-.72.51,3.56,3.56,0,0,1-1.32.26,3.5,3.5,0,0,1-.79-.11,1.74,1.74,0,0,1-.5-.27Z" style="fill:#fff"/><path d="M21.66,47a.74.74,0,0,0,.59-.5.64.64,0,0,0-.22-.72.83.83,0,0,0-.46-.14.76.76,0,0,0-.37,0,.69.69,0,0,0-.43.65A.74.74,0,0,0,21.66,47Z" style="fill:#b70027"/><path d="M22.58,48.11a.55.55,0,0,0,.75.32.48.48,0,0,0,.32-.44.59.59,0,0,0-.58-.59A.53.53,0,0,0,22.58,48.11Z" style="fill:#0c0a35"/><path d="M19.42,54l.53.77a.82.82,0,0,1,.19.57,8.51,8.51,0,0,1-.1,2.18,8.19,8.19,0,0,1-1.7-2.17,2.2,2.2,0,0,1,.11-2.22A1.86,1.86,0,0,1,19.42,54Z" style="fill:#f70032"/><path d="M17.35,56.13c-.18.39-.35.88-.53,1.28a.06.06,0,0,1-.09,0,9.77,9.77,0,0,1-1.51-2.36,1,1,0,0,1-.11-.32,1.15,1.15,0,0,1,.14-.55,13.76,13.76,0,0,0,.87-2.45c.29,0,.26.71.43.88a6.27,6.27,0,0,1,.89,1.47c.26.55.37.51.24,1.09A6.68,6.68,0,0,1,17.35,56.13Z" style="fill:#f70032"/><path d="M14,52.45a4.87,4.87,0,0,0-.55-1.16.07.07,0,0,0-.12,0,10.32,10.32,0,0,0-.1,2.29,13.31,13.31,0,0,0,.44,3.75.07.07,0,0,0,.11,0,9.34,9.34,0,0,0,.91-2.12,3.81,3.81,0,0,0,.13-.45,1.26,1.26,0,0,0,0-.27C14.53,53.77,14.24,53.2,14,52.45Z" style="fill:#f70032"/><path d="M21.46,61.29a.1.1,0,0,1-.17.08c-.2-.15-.68-.56-.89-.75,0,0-.07-.06-.08-.1a.25.25,0,0,1,0-.08,5.46,5.46,0,0,1,.26-1,.08.08,0,0,1,.11,0c.29.17.44.34.75.55.13.08.22.17.21.22C21.63,60.36,21.56,60.84,21.46,61.29Z" style="fill:#b70027"/><path d="M17.21,61.68a.1.1,0,0,1-.18,0c-.15-.19-.51-.73-.66-1a.21.21,0,0,1,0-.11.13.13,0,0,1,0-.08,5.68,5.68,0,0,1,.54-.92.07.07,0,0,1,.11,0c.24.25.34.45.57.73.1.12.17.23.15.28C17.63,60.83,17.43,61.26,17.21,61.68Z" style="fill:#b70027"/><path d="M13.33,61.44a.11.11,0,0,1-.18,0c-.09-.23-.29-.84-.37-1.11a.25.25,0,0,1,0-.12.18.18,0,0,1,.05-.07,5.39,5.39,0,0,1,.77-.74.07.07,0,0,1,.11,0,6.71,6.71,0,0,1,.35.86c.07.14.1.27.07.3C14,60.73,13.66,61.1,13.33,61.44Z" style="fill:#b70027"/><path d="M24.93,47.85a3.08,3.08,0,0,1-1.4.51c-.38,0-.86-.09-1.16.17a.14.14,0,0,0,0,.18c.26.45,1,.32,1.41.23a2.13,2.13,0,0,0,1.31-1c.05-.08,0-.19-.13-.13Z" style="fill:#0c0a35"/><path d="M14.83,50.61A7.8,7.8,0,0,0,17.22,54a8.23,8.23,0,0,0,4.17,2,5.17,5.17,0,0,0,1.1.19,3.13,3.13,0,0,0,2-.59c2-1.48,1.33-2.89,1.2-3.18a11.2,11.2,0,0,0-2.32-3.34,6.37,6.37,0,0,0-1-.86,6.16,6.16,0,0,0-3.94-.9,1,1,0,0,1,0-.1,10,10,0,0,1-.48-3.27c.07-2.12.36-2.72,0-3.12s-1.24.46-1.64,1.07a17.32,17.32,0,0,0-1.09,1.73A10.24,10.24,0,0,0,14.83,50.61Z" style="fill:#b70027"/><path d="M21.09,59.51v0a.33.33,0,0,0-.18-.31h0a.38.38,0,0,0-.43.06.36.36,0,0,0-.06.43l.08.1a.36.36,0,0,0,.34.09.35.35,0,0,0,.26-.34Z" style="fill:#0c0a35"/><path d="M17,59.25a.4.4,0,1,0,.4.39.4.4,0,0,0-.4-.39Z" style="fill:#0c0a35"/><path d="M13.62,59.1a.38.38,0,0,0,0,.76.38.38,0,0,0,0-.76Z" style="fill:#0c0a35"/><g style="clip-path:url(#clip-path-7)"><path d="M25.61,54.55c.35-.62,0-1.37-.24-2a9.19,9.19,0,0,0-1.62-2.75c-1.17-1.38-2.94-3.85-5-3.87a.09.09,0,0,0,0,.17,12.4,12.4,0,0,1,2.16,1.35,21.75,21.75,0,0,1,1.81,1.91,11.1,11.1,0,0,1,1.85,2.42,7.31,7.31,0,0,1,1,2.74s0,0,.05,0Z" style="fill:#0c0a35"/><path d="M25.38,55.58c.27-1.06-.43-2.33-.87-3.26a8.72,8.72,0,0,0-1.42-1.9c-.6-.7-1.21-1.41-1.88-2.05s-2-1.25-2.5-2.16a.18.18,0,0,0-.33.08c0,.61.76,1,1.17,1.32a18.57,18.57,0,0,1,2.33,2.1c1.54,1.67,3.18,3.47,3.43,5.86a0,0,0,0,0,.07,0Z" style="fill:#0c0a35"/><path d="M25,55.86a4.64,4.64,0,0,0-1-3,19.71,19.71,0,0,0-2.76-3.41c-.93-.92-2.12-1.51-3.06-2.41a2.46,2.46,0,0,1-.63-2.42c.16-.71.82-1,1.1-1.61,0-.07,0-.16-.11-.11a2.86,2.86,0,0,0-.18,4.84c2.76,2.08,5.66,4.58,6.48,8.12,0,.08.12.05.13,0Z" style="fill:#0c0a35"/><path d="M18.93,46.75a1.36,1.36,0,0,0-.35-.78c-.28-.47-.11-.79.06-1.27a.4.4,0,0,0-.18-.46l-.1,0a.41.41,0,0,0-.49.29A1.9,1.9,0,0,0,17.8,46c.16.34.57.86,1,.87a.15.15,0,0,0,.15-.14Z" style="fill:#0c0a35"/><path d="M24.39,56.26c.31-1-.58-2.08-1-3-.75-1.4-2-2.28-3.06-3.44s-2.54-1.91-3.4-3.35c-1.1-1.82.56-3,1.51-4.34.11-.15-.11-.28-.24-.18a4.7,4.7,0,0,0-2,2.93,4.15,4.15,0,0,0,1.5,3.18,18.58,18.58,0,0,0,1.85,1.58,26.43,26.43,0,0,1,2,2,13,13,0,0,1,2.76,4.63.06.06,0,0,0,.11,0Z" style="fill:#0c0a35"/><path d="M23.63,56.53a8.35,8.35,0,0,0-1.73-3.67,17.4,17.4,0,0,0-3.32-3.21C17.1,48.34,15.86,46.88,16,44.8c.08-1.86,1.65-2.62,2.62-4,.13-.18-.15-.37-.31-.23a8.51,8.51,0,0,0-2.43,3.24,4.62,4.62,0,0,0,.88,4.35c1,1.34,2.49,2.14,3.58,3.38a17.79,17.79,0,0,1,1.78,2.36c.53.85.91,1.79,1.43,2.63,0,0,.14,0,.13,0Z" style="fill:#0c0a35"/><path d="M22.77,56.54a16.33,16.33,0,0,0-2.11-3.89c-.73-1.21-2.19-2-3.2-3-1.34-1.3-2.61-3.4-2.3-5.32s2-2.89,3.16-4.12a.21.21,0,0,0-.25-.33A8.31,8.31,0,0,0,15,43.28c-.73,1.71-.23,3.09.65,4.62a18,18,0,0,0,3.45,3.64,24.57,24.57,0,0,1,3.54,5.06.07.07,0,0,0,.13-.06Z" style="fill:#0c0a35"/><path d="M21.67,56.23c-.64-1.9-2.29-3.64-3.58-5.14-.66-.77-1.57-1.29-2.25-2.05a6.24,6.24,0,0,1-1.51-3.8.07.07,0,0,0-.13,0c-.22,2.11,1,3.79,2.5,5.09a19,19,0,0,1,2.38,2.61c.86,1.06,1.77,2.19,2.53,3.32,0,0,.08,0,.06,0Z" style="fill:#0c0a35"/><path d="M21,56.57c-.29-.37-.46-.81-.73-1.2s-.6-.72-.87-1.1c-.49-.7-1-1.39-1.54-2.05a28.75,28.75,0,0,0-2.11-2.3,10.65,10.65,0,0,1-.91-.87,6.62,6.62,0,0,1-1-1.91.09.09,0,0,0-.17,0c0,1.84,2.07,3.38,3.16,4.61,1.39,1.58,2.57,3.39,4.09,4.85a0,0,0,0,0,0,0Z" style="fill:#0c0a35"/><path d="M19.38,55.79a23.42,23.42,0,0,0-2.73-3.39c-.51-.56-1-1.07-1.58-1.6a5.8,5.8,0,0,1-1.37-2.39c0-.1-.2-.12-.23,0-.34,1.45,1.42,2.75,2.31,3.61,1.25,1.21,2.31,2.59,3.51,3.85,0,0,.13,0,.09-.08Z" style="fill:#0c0a35"/></g><path d="M17.32,55v0a.69.69,0,0,0-1.37,0v0a.69.69,0,0,0,1.37,0Z" style="fill:#b70027"/><path d="M13.91,54.35a.55.55,0,1,0,.55.54.55.55,0,0,0-.55-.54Z" style="fill:#b70027"/><path d="M18.23,56.81v0l.08,0h0a.22.22,0,0,0-.21.15.23.23,0,0,0,.15.26.26.26,0,0,0,.31-.19.19.19,0,0,0-.32-.19Z" style="fill:#b70027"/><path d="M18.11,56.31h0c.22.13.37-.25.13-.31a.23.23,0,0,0-.14,0,.17.17,0,0,0,0,.32.22.22,0,0,0,.14,0c.24-.06.09-.44-.13-.31h0a.14.14,0,0,0,0,.27Z" style="fill:#b70027"/><path d="M15.35,57a.18.18,0,0,0,0,.36.18.18,0,1,0,0-.36Z" style="fill:#b70027"/><path d="M15.29,56.52h0a.15.15,0,0,0-.21.2l0,0c.12.14.35-.08.2-.21Z" style="fill:#b70027"/><path d="M14.89,52.73h0l.11.09v0a.21.21,0,0,0-.31,0,.2.2,0,0,0,0,.31.22.22,0,0,0,.18,0A.17.17,0,0,0,15,52.9a.18.18,0,0,0-.13-.17Z" style="fill:#b70027"/><path d="M14.61,51.93a.21.21,0,0,0,0,.41.21.21,0,0,0,0-.41Z" style="fill:#b70027"/><path d="M14.52,51.12a.18.18,0,1,0,0,.36.18.18,0,0,0,0-.36Z" style="fill:#b70027"/><path d="M14.47,50.67v0a.17.17,0,0,0-.15-.21.18.18,0,0,0-.17.21l0,0a.15.15,0,0,0,.29,0Z" style="fill:#b70027"/><path d="M14.4,50.05a.17.17,0,0,0-.05-.15c-.11-.1-.31,0-.22.16a.09.09,0,0,0,0-.05.14.14,0,1,0,.28,0Z" style="fill:#b70027"/><path d="M14.22,49.26a.2.2,0,0,0-.1-.08c-.14,0-.2.15-.09.22l0,0a.13.13,0,0,0,.12,0l0,0a.1.1,0,0,0,0-.14Z" style="fill:#b70027"/><path d="M14,48.46a.12.12,0,0,0,0,.23.12.12,0,0,0,0-.23Z" style="fill:#b70027"/><path d="M27.23,43.12a2.7,2.7,0,0,0-.12-.47c0-.07-.07-.31-.2-.25-.3.12.05.6.11.78a.11.11,0,0,0,.21-.06Z" style="fill:#b70027"/><path d="M28,42.18a3.37,3.37,0,0,0,.09-.77c0-.15-.25-.13-.28,0a2.11,2.11,0,0,0,0,.75c0,.08.15.12.17,0Z" style="fill:#b70027"/><path d="M26.83,41.43l-.24-.2a.34.34,0,0,0-.23-.1.07.07,0,0,0-.07.07c0,.18.24.29.36.4s.3-.07.18-.17Z" style="fill:#b70027"/><path d="M26,42a1,1,0,0,1-.35-.07c-.07,0-.2,0-.21.09,0,.25.43.23.59.21s.09-.23,0-.23Z" style="fill:#b70027"/><path d="M25.23,40.94a2.17,2.17,0,0,0,0-.44,2.23,2.23,0,0,0-.1-.43.19.19,0,0,0-.33,0c-.07.3.17.58.22.86s.23.1.24,0Z" style="fill:#b70027"/><path d="M26.22,40.11c.12-.22.34-.57.2-.82a.16.16,0,0,0-.26,0,.84.84,0,0,0-.1.33A2.36,2.36,0,0,1,26,40a.14.14,0,0,0,.26.11Z" style="fill:#b70027"/><path d="M27.83,40.36c.09-.13.18-.25.28-.37s.2-.22.14-.35a.09.09,0,0,0-.07-.06c-.14,0-.21.14-.28.25l-.27.41a.12.12,0,0,0,.2.12Z" style="fill:#b70027"/><path d="M29.15,40.69a2.59,2.59,0,0,0,.14-.29.55.55,0,0,0,.06-.28s-.05,0-.08,0a.61.61,0,0,0-.11.23c0,.09-.09.19-.14.28a.08.08,0,0,0,.13.08Z" style="fill:#b70027"/><path d="M29.22,39c-.13-.13-.22-.29-.34-.43s-.21-.3-.38-.28a.08.08,0,0,0-.08.08c0,.16.16.29.26.4a2.21,2.21,0,0,0,.42.39c.09.07.19-.08.12-.16Z" style="fill:#b70027"/><path d="M29.08,37.35c-.14-.15-.22-.36-.43-.42a.07.07,0,0,0-.09.06,1.05,1.05,0,0,0,.33.55c.12.12.31-.07.19-.19Z" style="fill:#b70027"/><path d="M27.22,38.31a3,3,0,0,1-.09-.41c0-.11,0-.25-.12-.31a.09.09,0,0,0-.11,0c-.09.07,0,.21,0,.32a3.15,3.15,0,0,0,.11.44c.05.16.3.09.25-.06Z" style="fill:#b70027"/><path d="M25.48,38.69c-.06-.2-.14-.53-.36-.62a.08.08,0,0,0-.09.08.73.73,0,0,0,.1.28,2.19,2.19,0,0,1,.12.33c0,.15.27.08.23-.07Z" style="fill:#b70027"/><path d="M24.48,39.35a1.62,1.62,0,0,0-.18-.19.2.2,0,0,0-.19-.08.06.06,0,0,0-.06.06.22.22,0,0,0,.08.19l.18.18c.11.12.27,0,.17-.16Z" style="fill:#b70027"/><path d="M24,38a1.75,1.75,0,0,1,.08-.51c0-.12,0-.26-.09-.32a0,0,0,0,0-.07,0c-.12.06-.12.21-.13.33a3.13,3.13,0,0,0,0,.53c0,.12.22.09.22,0Z" style="fill:#b70027"/><path d="M26,37.12a1.39,1.39,0,0,0-.1-.67.06.06,0,0,0-.1,0c-.12.19,0,.45,0,.67s.22.15.23,0Z" style="fill:#b70027"/><path d="M27.45,36.31h-.28c-.09,0-.2,0-.29,0a.07.07,0,0,0,0,.1c.1.17.44.1.61.1a.11.11,0,0,0,0-.21Z" style="fill:#b70027"/><path d="M28.49,35.77l0-.26c0-.08,0-.17-.07-.23a.06.06,0,0,0-.08,0c-.14.11,0,.35,0,.5s.23.14.22,0Z" style="fill:#b70027"/><path d="M27.07,34.66a.6.6,0,0,1-.32-.07.76.76,0,0,0-.3-.05c-.05,0-.06.05,0,.08a.53.53,0,0,0,.31.2.68.68,0,0,0,.4,0,.09.09,0,0,0-.05-.18Z" style="fill:#b70027"/><path d="M25.54,35.34a3.2,3.2,0,0,0-.27-.25,3,3,0,0,0-.27-.23c-.12-.07-.22.06-.17.17a.77.77,0,0,0,.25.26l.32.23c.11.08.22-.09.14-.18Z" style="fill:#b70027"/><path d="M24.22,36,24,35.88a.82.82,0,0,0-.25-.12.14.14,0,0,0-.14.23c.12.14.39.16.56.2s.18-.13.07-.18Z" style="fill:#b70027"/><path d="M25.81,33.72a.86.86,0,0,0-.39,0c-.1,0-.26.08-.25.21s.17.13.26.1a1.62,1.62,0,0,1,.38-.09.11.11,0,0,0,0-.2Z" style="fill:#b70027"/><path d="M18.77,45.31c-.09-.16-.26-.44-.48-.39a.06.06,0,0,0,0,.09c0,.09.12.12.2.17a1.06,1.06,0,0,1,.23.19c0,.05.12,0,.09-.06Z" style="fill:#b70027"/><path d="M18.46,44a1.35,1.35,0,0,0,.2-.27.41.41,0,0,0,.08-.32s0,0-.08,0a.39.39,0,0,0-.17.21,1.11,1.11,0,0,1-.17.3c-.06.09.08.19.14.11Z" style="fill:#b70027"/><path d="M19.44,42.46c-.06-.15,0-.36-.17-.47a.05.05,0,0,0-.09,0,1.09,1.09,0,0,0,0,.25,2.17,2.17,0,0,0,.07.24c0,.08.18,0,.15-.06Z" style="fill:#b70027"/><path d="M18.55,42.48c.07-.14.1-.29.17-.43s0-.08,0,0-.16.26-.23.41.08.15.11.07Z" style="fill:#b70027"/><path d="M19.24,40.78c-.13,0-.29,0-.39.1s0,0,0,.06.31.06.44,0a.09.09,0,0,0-.05-.18Z" style="fill:#b70027"/><path d="M15,33.81c-.12,0-.29,0-.39.09a0,0,0,0,0,0,.06c.1.12.31.07.44,0a.09.09,0,0,0-.05-.18Z" style="fill:#b70027"/><path d="M15.45,34.94c-.13,0-.29,0-.4.09a.09.09,0,0,0,0,.07c.11.11.32.06.45,0a.09.09,0,0,0-.05-.18Z" style="fill:#b70027"/><path d="M14.23,37.32c-.05-.12,0-.28-.13-.38A0,0,0,0,0,14,37c-.11.11,0,.31,0,.44a.1.1,0,0,0,.18-.07Z" style="fill:#b70027"/><path d="M18,35.88c-.12,0-.28,0-.39.09s0,0,0,.06.31.07.44,0a.09.09,0,1,0,0-.18Z" style="fill:#b70027"/><path d="M20.13,41.06c0-.18.12-.53-.06-.66a.07.07,0,0,0-.09,0,.36.36,0,0,0,0,.23,1.38,1.38,0,0,1,0,.35c0,.12.16.17.19.05Z" style="fill:#b70027"/><path d="M18.57,41.25l0,0s0,0,0,0l0,0s0,0,0,0Z" style="fill:#b70027"/><path d="M18.25,40.2a1.78,1.78,0,0,0-.12-.29c0-.07-.09-.16-.18-.16s-.05,0-.06,0a.26.26,0,0,0,.05.19.79.79,0,0,1,.1.27c0,.13.23.08.21-.06Z" style="fill:#b70027"/><path d="M19.15,39.72c0-.16,0-.37-.15-.46a.05.05,0,0,0-.08,0c0,.14,0,.28,0,.43s.21.14.22,0Z" style="fill:#b70027"/><path d="M20,39a1.11,1.11,0,0,0-.16-.44s-.05,0-.06,0,0,.32,0,.49.2.07.18,0Z" style="fill:#b70027"/><path d="M18.88,38a3.85,3.85,0,0,0-.48,0c-.13,0-.25,0-.32.12s0,.09,0,.1.23,0,.35,0a3.1,3.1,0,0,1,.43,0c.13,0,.13-.21,0-.21Z" style="fill:#b70027"/><path d="M17.94,34.54h-.48c-.13,0-.25,0-.32.12a.08.08,0,0,0,0,.11.6.6,0,0,0,.35,0,3.1,3.1,0,0,1,.43,0,.11.11,0,0,0,0-.21Z" style="fill:#b70027"/><path d="M17.56,38.87l-.31-.09c-.1,0-.18-.11-.28-.14s-.16.08-.12.16c.09.23.48.24.68.24s.12-.16,0-.17Z" style="fill:#b70027"/><path d="M17.52,37.43a.85.85,0,0,0,.18-.63.11.11,0,0,0-.21,0,1.07,1.07,0,0,0,0,.25,1,1,0,0,1-.11.28c-.07.11.1.2.17.1Z" style="fill:#b70027"/><path d="M19.21,37l0,0h0s0,0,0,0,0,0,0,0Z" style="fill:#b70027"/><path d="M19.63,36.54a1.46,1.46,0,0,0-.39.16c-.11.06-.29.11-.33.24a.06.06,0,0,0,0,.08c.12.07.24,0,.34-.07a4,4,0,0,0,.4-.28.07.07,0,0,0-.05-.13Z" style="fill:#b70027"/><path d="M19.14,35.36a.74.74,0,0,0-.19-.52s-.08,0-.09,0a2.83,2.83,0,0,0,.08.48c0,.12.21.12.2,0Z" style="fill:#b70027"/><path d="M16.58,39.9a2.91,2.91,0,0,1-.39.12c-.11,0-.25,0-.32.15a.06.06,0,0,0,0,.09.69.69,0,0,0,.37-.08,1.19,1.19,0,0,0,.35-.19c.05,0,0-.12-.05-.09Z" style="fill:#b70027"/><path d="M15.89,41.2c-.08-.1-.15-.2-.24-.3l-.12-.13a.37.37,0,0,0-.16-.07.05.05,0,0,0-.07.06.84.84,0,0,0,.06.14,1,1,0,0,0,.14.15,3.44,3.44,0,0,0,.27.27.08.08,0,1,0,.12-.12Z" style="fill:#b70027"/><path d="M15.21,39.81a1,1,0,0,0-.13-.44s-.07,0-.1,0,0,.3,0,.44.24.15.23,0Z" style="fill:#b70027"/><path d="M16.08,38.55c-.08-.16-.12-.39-.3-.46,0,0-.06,0-.07,0s.1.37.2.52a.1.1,0,0,0,.17-.1Z" style="fill:#b70027"/><path d="M15,38c-.16,0-.33,0-.48,0s-.11.2,0,.23a.64.64,0,0,0,.51-.13S15,38,15,38Z" style="fill:#b70027"/><path d="M14.89,36.12c-.16,0-.32,0-.48,0s-.1.2,0,.24a.63.63,0,0,0,.51-.14.06.06,0,0,0,0-.11Z" style="fill:#b70027"/><path d="M14.06,34.62a4.48,4.48,0,0,0-.12.46c0,.13.16.16.22.07a.65.65,0,0,0,0-.53.06.06,0,0,0-.11,0Z" style="fill:#b70027"/><path d="M15.75,37.46a2.52,2.52,0,0,0-.24-.33c-.08-.09-.23,0-.17.14a1.27,1.27,0,0,0,.27.3c.07.06.21,0,.14-.11Z" style="fill:#b70027"/><path d="M16.65,35.92a1.49,1.49,0,0,0-.24-.32c-.08-.09-.23,0-.17.13a1,1,0,0,0,.27.3c.07.07.21,0,.14-.11Z" style="fill:#b70027"/><path d="M15.32,41.92H15c-.09,0-.2,0-.25.08a0,0,0,0,0,0,0c0,.08.13.08.21.08h.38a.11.11,0,0,0,0-.21Z" style="fill:#b70027"/><path d="M16.85,33.67h-.33c-.1,0-.2,0-.26.08a0,0,0,0,0,0,0c0,.08.13.08.22.08h.37a.1.1,0,1,0,0-.21Z" style="fill:#b70027"/><path d="M14.31,43.73c0-.21-.07-.74-.34-.75a.09.09,0,0,0-.08.07c0,.12.06.26.11.37a.74.74,0,0,0,.23.34s.08,0,.08,0Z" style="fill:#b70027"/><path d="M13.73,42a.92.92,0,0,0-.39-.39,0,0,0,0,0-.05,0,.7.7,0,0,0,.13.17,1.15,1.15,0,0,1,.21.23c0,.06.14,0,.1-.06Z" style="fill:#b70027"/><path d="M14.11,40.7l-.23-.21a1.5,1.5,0,0,0-.24-.2,0,0,0,0,0-.06,0c0,.22.25.37.38.52s.24-.05.15-.15Z" style="fill:#b70027"/><path d="M13.27,43.67c-.14,0-.28-.06-.41-.09s-.23-.1-.26,0,.18.17.26.18a1.13,1.13,0,0,0,.41-.05s0,0,0,0Z" style="fill:#b70027"/><path d="M14.07,44.6a.77.77,0,0,0-.54.07.08.08,0,0,0,0,.11.77.77,0,0,0,.54.07.13.13,0,0,0,0-.25Z" style="fill:#b70027"/><path d="M12.66,42.39c-.17,0-.48,0-.55.17,0,0,0,.06,0,.07a.36.36,0,0,0,.23,0l.31-.07c.1,0,.06-.16,0-.17Z" style="fill:#b70027"/><path d="M11.57,42l0-.27a1,1,0,0,0,0-.25s0-.06-.08,0c-.2.1-.13.39-.1.57s.12.06.13,0Z" style="fill:#b70027"/><path d="M12.57,41.1a1.31,1.31,0,0,0,0-.28,1.64,1.64,0,0,0-.05-.32.12.12,0,0,0-.09-.09c-.33,0-.08.56-.07.69a.1.1,0,0,0,.21,0Z" style="fill:#b70027"/><path d="M14.33,38.7,14,38.57c-.08,0-.19-.13-.28-.1a.07.07,0,0,0,0,0c-.05.25.44.28.59.3a.06.06,0,1,0,0-.11Z" style="fill:#b70027"/><path d="M12.43,39.53a2.66,2.66,0,0,1-.39-.07c-.08,0-.19-.07-.28,0a.06.06,0,0,0,0,.07c0,.1.2.1.3.12a1.7,1.7,0,0,0,.39,0,.06.06,0,1,0,0-.12Z" style="fill:#b70027"/><path d="M11.22,40.37l-.06-.3c0-.08,0-.16-.11-.2a.06.06,0,0,0-.07,0,.22.22,0,0,0,0,.21,1.75,1.75,0,0,0,.12.32.07.07,0,1,0,.14,0Z" style="fill:#b70027"/><path d="M12.32,38.16c-.15.12-.35.17-.47.31s0,.07,0,.07c.21.05.42-.13.55-.28s0-.15-.1-.1Z" style="fill:#b70027"/><path d="M11.16,38.89c-.08,0-.43,0-.37.18s.33,0,.44,0,0-.2-.07-.17Z" style="fill:#b70027"/><path d="M22.83,38.3a.2.2,0,0,0,0,.4.2.2,0,0,0,0-.4Z" style="fill:#0c0a35"/><path d="M22.31,38.17a.21.21,0,0,0,0,.41.21.21,0,0,0,0-.41Z" style="fill:#0c0a35"/><path d="M21.77,38.05a.23.23,0,0,0,0,.45.23.23,0,0,0,0-.45Z" style="fill:#0c0a35"/><path d="M21.16,38.12a.16.16,0,0,0,0,.32.16.16,0,0,0,0-.32Z" style="fill:#0c0a35"/><path d="M22.57,36.89a.2.2,0,0,0,0,.4.2.2,0,0,0,0-.4Z" style="fill:#0c0a35"/><path d="M22,36.84a.22.22,0,1,0,0,.43.22.22,0,0,0,0-.43Z" style="fill:#0c0a35"/><path d="M21.48,36.86a.2.2,0,0,0,0,.39.2.2,0,0,0,0-.39Z" style="fill:#0c0a35"/><path d="M20.93,36.84a.22.22,0,0,0,0,.43.22.22,0,0,0,0-.43Z" style="fill:#0c0a35"/><path d="M23.31,39.65a.16.16,0,1,0,0,.33.16.16,0,0,0,0-.33Z" style="fill:#0c0a35"/><path d="M22.76,39.61a.18.18,0,0,0,0,.35.18.18,0,0,0,0-.35Z" style="fill:#0c0a35"/><path d="M22.28,39.57a.18.18,0,0,0,0,.36.18.18,0,0,0,0-.36Z" style="fill:#0c0a35"/><path d="M21.74,39.54a.22.22,0,0,0,0,.43.22.22,0,0,0,0-.43Z" style="fill:#0c0a35"/><path d="M26.4,45.94a.22.22,0,0,0,0,.43.22.22,0,0,0,0-.43Z" style="fill:#0c0a35"/><path d="M21.14,39.63a.19.19,0,0,0,0,.37.19.19,0,0,0,0-.37Z" style="fill:#0c0a35"/><path d="M23.63,33.75a.16.16,0,0,0,0,.33.16.16,0,0,0,0-.33Z" style="fill:#0c0a35"/><path d="M23,33.68A.17.17,0,0,0,23,34a.17.17,0,0,0,0-.34Z" style="fill:#0c0a35"/><path d="M22.31,33.68a.17.17,0,0,0,0,.34.17.17,0,1,0,0-.34Z" style="fill:#0c0a35"/><path d="M21.64,33.71a.17.17,0,0,0,0,.34.17.17,0,0,0,0-.34Z" style="fill:#0c0a35"/><path d="M21.06,33.7a.21.21,0,0,0,0,.42.21.21,0,0,0,0-.42Z" style="fill:#0c0a35"/><path d="M20.42,33.68a.2.2,0,0,0,0,.4.2.2,0,0,0,0-.4Z" style="fill:#0c0a35"/><path d="M19.78,33.72a.16.16,0,0,0,0,.32.16.16,0,0,0,0-.32Z" style="fill:#0c0a35"/><path d="M19.3,33.8a.15.15,0,0,0,0,.29.15.15,0,0,0,0-.29Z" style="fill:#0c0a35"/><path d="M8.28,36.09c.29-.47.9-.45,1.42-.45a3,3,0,0,1,2.06.49,3.21,3.21,0,0,1,.66,1.06c.83,1.76,2,3.45,2.15,5.4a.44.44,0,0,1-.05.3,3.75,3.75,0,0,0-.88-.53.53.53,0,0,0-.69.22l-.64,1.16c-.41-.37-.84-.73-1.26-1.08a.34.34,0,0,0-.47,0,11.19,11.19,0,0,1-1.39,1.1c-.31-.47-.61-.94-.91-1.41a.24.24,0,0,0-.13-.13.26.26,0,0,0-.21,0L6.52,43l-.18-1.37a.2.2,0,0,0-.25-.17,3,3,0,0,1-1.39.07,9.87,9.87,0,0,1,1.5-2.26C6.62,38.74,7.9,36.69,8.28,36.09Z" style="fill:#990028"/><path d="M13.35,35.45a.42.42,0,0,0-.1-.51,1.35,1.35,0,0,0-.51-.25l-1.26-.37a.42.42,0,0,1-.22-.65,1.1,1.1,0,0,0,.15-.26.8.8,0,0,0-.41-.9,1.34,1.34,0,0,0-1,0,2.63,2.63,0,0,0-1.26,1A6.79,6.79,0,0,0,8,35a2.89,2.89,0,0,0-.17,2.24,3.22,3.22,0,0,0,2,1.27,3.83,3.83,0,0,0,2.1.23.32.32,0,0,0,.28-.31c0-.15-.2-.26-.26-.28-.76-.22-1.41-.36-1.84-.54a.07.07,0,0,1,0-.14c.71.13,1.7.26,2.49.35a.36.36,0,0,0,.41-.38.41.41,0,0,0-.26-.33c-.54-.16-1.27-.33-1.91-.54-.33-.11-.55-.13-.52-.26s.24,0,.59.05a17.37,17.37,0,0,0,1.72.34c.26,0,.54,0,.64-.27s-1.12-.65-2.12-.89c-.21-.05-.44-.07-.42-.15s.34,0,.56,0a10.1,10.1,0,0,0,1.66.27A.36.36,0,0,0,13.35,35.45Z" style="fill:#ffd6a1"/><path d="M12.35,38.41c0-.13-.2-.18-.31-.22a.54.54,0,0,0-.55,0,.26.26,0,0,0-.06.31.37.37,0,0,0,.3.19H12c.14,0,.37-.12.31-.29Z" style="fill:#0c0a35"/><path d="M13.15,37.29a.85.85,0,0,0-.77-.19.32.32,0,0,0-.1.5.8.8,0,0,0,.77.2.28.28,0,0,0,.1-.51Z" style="fill:#0c0a35"/><path d="M13.49,36.34a.62.62,0,0,0-.8-.27.23.23,0,0,0-.1.31.56.56,0,0,0,.47.28c.17,0,.49-.09.43-.32Z" style="fill:#0c0a35"/><path d="M13.6,35.3c0-.31-.51-.39-.75-.37a.3.3,0,0,0-.11.53.89.89,0,0,0,.55.1c.15,0,.33-.08.31-.26Z" style="fill:#0c0a35"/><path d="M8,37.34c0-.08.19-.3,0-.35s-.17.21-.18.3.11.12.14.05Z" style="fill:#0c0a35"/><path d="M8.24,36.28c.14,0,.28-.15.32-.26a.17.17,0,0,0-.26-.18.42.42,0,0,0-.14.27c0,.06,0,.15.08.17Z" style="fill:#0c0a35"/><path d="M8.83,35.18a.21.21,0,0,0,.14-.1,1.07,1.07,0,0,0,.14-.16.15.15,0,0,0-.19-.22.37.37,0,0,0-.21.25c0,.09,0,.25.12.23Z" style="fill:#0c0a35"/><path d="M9.63,34.2A.93.93,0,0,0,9.81,34a.12.12,0,1,0-.18-.16L9.48,34a.11.11,0,1,0,.15.17Z" style="fill:#0c0a35"/><path d="M13.62,41.74l.06.06a.3.3,0,0,0,.48,0,.28.28,0,0,0,.07-.19.3.3,0,0,0-.21-.32h0a.32.32,0,0,0-.4.36h0c0,.1,0,.11,0,0l.1-.29h0l.13-.06h-.05a.26.26,0,0,0-.15.42Z" style="fill:#b70027"/><path d="M11.92,41.8a.48.48,0,0,0-.24.37.45.45,0,1,0,.88-.06.46.46,0,0,0-.64-.31Z" style="fill:#b70027"/><path d="M11.93,41.16h0a.3.3,0,0,0,.4-.27.33.33,0,0,0-.34-.35.3.3,0,0,0-.18.55c-.08-.07,0,0,0,0s.05,0,.07,0Z" style="fill:#b70027"/><path d="M11.87,39.93l0,0a.21.21,0,1,0-.26,0h0a.2.2,0,0,0,.22,0Z" style="fill:#b70027"/><path d="M13.58,40.39c-.18-.06-.27.22-.09.27s.27-.21.09-.27Z" style="fill:#b70027"/><path d="M13.36,39.68a.22.22,0,0,0,0-.08.14.14,0,0,0-.27,0h0c-.08.2.28.27.28,0Z" style="fill:#b70027"/><path d="M9.67,42a.47.47,0,0,0-.3.89.49.49,0,0,0,.6-.29.48.48,0,0,0-.3-.6Z" style="fill:#b70027"/><path d="M9.8,40.85a.32.32,0,0,0-.41.2.33.33,0,0,0,.2.4.31.31,0,0,0,.4-.2.32.32,0,0,0-.19-.4Z" style="fill:#b70027"/><path d="M9.79,39.87h0l.15,0h0a.15.15,0,0,0-.19.17v0a.2.2,0,0,0,.08.12.2.2,0,0,0,.26,0c.11-.17-.13-.4-.28-.24Z" style="fill:#b70027"/><path d="M7,41.68a.29.29,0,0,0,.2.23.34.34,0,0,0,.41-.22.33.33,0,0,0-.2-.4.31.31,0,0,0-.39.19.75.75,0,0,0,0,.21.76.76,0,0,0,0-.15l.06-.09a.24.24,0,0,0-.07.23Z" style="fill:#b70027"/><path d="M7.75,40.48a.2.2,0,0,0-.13.38.2.2,0,0,0,.13-.38Z" style="fill:#b70027"/><path d="M8.18,39.61l-.09,0c-.18-.07-.31.13-.25.28A.22.22,0,0,0,8,40a.21.21,0,0,0,.19-.36Z" style="fill:#b70027"/><path d="M5.71,40.86h0a.28.28,0,1,0-.37-.13v0a.25.25,0,0,0,.34.12Z" style="fill:#b70027"/><path d="M6.26,39.5a.2.2,0,0,0-.13.37.2.2,0,0,0,.13-.37Z" style="fill:#b70027"/><path d="M6.76,38.76h0a.19.19,0,0,0-.12.34l0,0a.19.19,0,0,0,.29-.1.2.2,0,0,0-.17-.26Z" style="fill:#b70027"/><g style="clip-path:url(#clip-path-8)"><path d="M13.39,43.11a6.55,6.55,0,0,0-.87-3.83.08.08,0,0,0-.14,0c.16,1.28.86,2.48.89,3.77a.06.06,0,0,0,.12,0Z" style="fill:#0c0a35"/><path d="M11.11,44.11a5.55,5.55,0,0,0,.08-2,16.46,16.46,0,0,0-.34-2.71.08.08,0,0,0-.15,0c-.29,1.53.55,3.13.19,4.65,0,.15.18.23.22.08Z" style="fill:#0c0a35"/><path d="M7.94,44.11c.37-1.71,1-3.38,1.23-5.12a.06.06,0,0,0-.11,0,9.36,9.36,0,0,0-.7,2.33c-.2.93-.46,1.85-.61,2.79,0,.11.17.15.19,0Z" style="fill:#0c0a35"/><path d="M5.55,42.61c.85-1.31,2.14-2.54,2.64-4,0-.09-.07-.14-.14-.09a5.47,5.47,0,0,0-1.49,2A14.23,14.23,0,0,0,5.4,42.53c0,.09.1.16.15.08Z" style="fill:#0c0a35"/></g><path d="M35.61,34.56a7.44,7.44,0,0,1-2.56,4,.57.57,0,0,1-.89-.23,20.73,20.73,0,0,0-.79-2.47c-1.24-2.41-4.11-3.68-6.8-3.94-2.49-.24-4.59.25-7.09.41a18.56,18.56,0,0,1-5.61-.41,12.68,12.68,0,0,1-5.51-2.17,2,2,0,0,1-.78-.86,1.13,1.13,0,0,1-.13-.59A6.71,6.71,0,0,1,7.7,23.8a.45.45,0,0,1,.62.24,5.58,5.58,0,0,0,1.17,3.29,7.17,7.17,0,0,0,3.82,2,17.67,17.67,0,0,0,3,.26c1.37,0,2.73-.18,4.1-.26a30.2,30.2,0,0,1,12.77,2.3c1.75.85,2.67,2.19,2.62,2.52C35.77,34.27,35.65,34.4,35.61,34.56Z" style="fill:#222272"/><path d="M23.5,30.12a.33.33,0,0,1,.05.52,33.14,33.14,0,0,1-3.46,2.65.56.56,0,0,1-.64,0c-1-.79-2-1.61-3.06-2.39a.29.29,0,0,1,0-.47c1-.59,2.11-1.61,3.07-2.13.17-.09.37-.23.55-.15A37,37,0,0,1,23.5,30.12Z" style="fill:#0c0a35"/><path d="M19.85,30.35a.5.5,0,0,0-.5.49.5.5,0,0,0,1,0,.5.5,0,0,0-.5-.49Z" style="fill:#f70032"/><path d="M20,31.93h0l.1.06h0a.25.25,0,1,0,0,.36h0l-.1.06h0a.24.24,0,0,0,0-.45Z" style="fill:#990028"/><path d="M21.46,30.45a.29.29,0,1,0,.29.29.29.29,0,0,0-.29-.29Z" style="fill:#990028"/><path d="M18.09,30.46a.24.24,0,0,0,0,.47.24.24,0,0,0,0-.47Z" style="fill:#990028"/><path d="M20,29.48v0a.31.31,0,0,0-.26-.45.3.3,0,0,0-.25.45v0a.29.29,0,0,0,.49,0Z" style="fill:#990028"/><path d="M15.17,31.1a.31.31,0,0,0,0-.62.31.31,0,0,0,0,.62Z" style="fill:#990028"/><path d="M13.71,30.49l0,.05c-.12.18.15.37.3.23a.08.08,0,0,1,0,0c.19-.19-.14-.47-.3-.24Z" style="fill:#990028"/><path d="M12.68,30.25h0a.25.25,0,0,0-.37.28.25.25,0,0,0,.45.05l0,0a.23.23,0,0,0-.08-.3Z" style="fill:#990028"/><path d="M11.32,30.21a.17.17,0,0,0,0-.33.17.17,0,0,0,0,.33Z" style="fill:#990028"/><path d="M10.06,29.85c.12.06.27-.09.15-.2s-.32.12-.15.2Z" style="fill:#990028"/><path d="M9.12,29.38a.14.14,0,0,0,0-.28.14.14,0,0,0,0,.28Z" style="fill:#990028"/><path d="M8.27,28.81a.12.12,0,0,0,0-.23.12.12,0,0,0,0,.23Z" style="fill:#990028"/><path d="M24.62,30.71a.22.22,0,0,0,0-.44.22.22,0,0,0,0,.44Z" style="fill:#990028"/><path d="M25.82,30.81a.22.22,0,0,0,0-.44.22.22,0,0,0,0,.44Z" style="fill:#990028"/><path d="M26.92,31a.16.16,0,0,0,0-.33.16.16,0,0,0,0,.33Z" style="fill:#990028"/><path d="M28.12,31.44a.25.25,0,0,0,0-.49.25.25,0,0,0,0,.49Z" style="fill:#990028"/><path d="M29.42,32a.21.21,0,0,0,0-.41.21.21,0,0,0,0,.41Z" style="fill:#990028"/><path d="M30.57,32.61a.12.12,0,0,0,0-.24.12.12,0,0,0,0,.24Z" style="fill:#990028"/><path d="M31.67,33.49a.15.15,0,0,0,0-.29.15.15,0,0,0,0,.29Z" style="fill:#990028"/><path d="M5.29,12.71a.2.2,0,0,0,.13,0,15.45,15.45,0,0,0,1.3-1.24s.09-.1.08-.16a.2.2,0,0,0-.08-.12c-.33-.34-.69-.65-1-1-.13-.15-.3-.33-.4-.33h0c-.1,0-.26.18-.4.33-.31.36-.67.67-1,1a.19.19,0,0,0-.07.12c0,.06,0,.11.08.16a15.45,15.45,0,0,0,1.3,1.24.18.18,0,0,0,.13,0Z" style="fill:#d6002b"/><path d="M35.66,52.24a.2.2,0,0,0,.13,0A14,14,0,0,0,37.09,51a.21.21,0,0,0,.08-.16s0-.08-.08-.12c-.33-.33-.69-.65-1-1-.14-.16-.3-.33-.4-.34h-.06c-.1,0-.26.18-.39.34-.32.35-.68.67-1,1a.23.23,0,0,0-.08.12.21.21,0,0,0,.08.16,14,14,0,0,0,1.3,1.24.2.2,0,0,0,.13,0Z" style="fill:#d6002b"/><path d="M5,8.11a2.05,2.05,0,0,1-1.74-.84,3.45,3.45,0,0,1-.63-2.11A3.43,3.43,0,0,1,3.24,3,2.06,2.06,0,0,1,5,2.13a2.08,2.08,0,0,1,1.69.81,3.22,3.22,0,0,1,.67,2.13A3.73,3.73,0,0,1,6.81,7,2.08,2.08,0,0,1,5.54,8v.08c0,.42.25.63.76.63A4.23,4.23,0,0,0,7,8.7v.58a2.33,2.33,0,0,1-.59.08,1.67,1.67,0,0,1-1-.27A1.3,1.3,0,0,1,5,8.11Zm0-.58a1.32,1.32,0,0,0,1.18-.69,3.36,3.36,0,0,0,.42-1.77,3,3,0,0,0-.43-1.73A1.39,1.39,0,0,0,5,2.72a1.31,1.31,0,0,0-1.17.67,3.17,3.17,0,0,0-.44,1.75,3.07,3.07,0,0,0,.44,1.72A1.33,1.33,0,0,0,5,7.53Z" style="fill:#d6002b"/><path d="M36,54.36a2,2,0,0,1,1.73.84,3.93,3.93,0,0,1,0,4.3,2,2,0,0,1-1.71.84,2.1,2.1,0,0,1-1.69-.8,3.24,3.24,0,0,1-.67-2.14,3.73,3.73,0,0,1,.5-1.94,2.14,2.14,0,0,1,1.27-1v-.08c0-.42-.26-.63-.77-.63a3.37,3.37,0,0,0-.66.06V53.2a2,2,0,0,1,.59-.09,1.61,1.61,0,0,1,1,.28A1.26,1.26,0,0,1,36,54.36ZM36,55a1.32,1.32,0,0,0-1.18.68,3.36,3.36,0,0,0-.42,1.77,2.9,2.9,0,0,0,.44,1.73,1.34,1.34,0,0,0,1.17.62,1.33,1.33,0,0,0,1.17-.67,3.15,3.15,0,0,0,.43-1.75,3,3,0,0,0-.44-1.72A1.34,1.34,0,0,0,36,55Z" style="fill:#d6002b"/><path d="M11.82,59.11H6.19a3.1,3.1,0,0,1-3-3.19V15.66h.19V55.92a2.92,2.92,0,0,0,2.81,3h5.63Z" style="fill:#d6002b"/><rect x="22.21" y="58.93" width="10.57" height="0.19" style="fill:#d6002b"/><path d="M37.74,46.82h-.19V6.36a2.92,2.92,0,0,0-2.81-3H29V3.17h5.7a3.11,3.11,0,0,1,3,3.19Z" style="fill:#d6002b"/><rect x="8.45" y="3.17" width="10.01" height="0.19" style="fill:#d6002b"/></g></g></g></svg>