<svg xmlns="http://www.w3.org/2000/svg" viewBox="0 0 40.93 62.29"><title>h10</title><g id="Layer_2" data-name="Layer 2"><g id="Layer_1-2" data-name="Layer 1"><g id="h10"><rect x="0.09" y="0.09" width="40.74" height="62.1" rx="3.45" style="fill:#fff"/><path d="M37.39,62.29H3.54A3.55,3.55,0,0,1,0,58.75V3.54A3.55,3.55,0,0,1,3.54,0H37.39a3.55,3.55,0,0,1,3.54,3.54V58.75A3.55,3.55,0,0,1,37.39,62.29ZM3.54.19A3.35,3.35,0,0,0,.19,3.54V58.75A3.36,3.36,0,0,0,3.54,62.1H37.39a3.36,3.36,0,0,0,3.35-3.35V3.54A3.35,3.35,0,0,0,37.39.19Z" style="fill:#2d2d2d"/><path d="M5.38,12.71a5.25,5.25,0,0,1,.53-.4,3.7,3.7,0,0,0,.57-.46,1.38,1.38,0,0,0,.25-.5,1.16,1.16,0,0,0,0-.78A.94.94,0,0,0,5,10.73s0,0,0,0h0s0,0,0,0a.94.94,0,0,0-1.74-.16,1.22,1.22,0,0,0,0,.78,1.59,1.59,0,0,0,.26.5,3.7,3.7,0,0,0,.57.46c.18.13.36.25.53.4l.46.48S5.29,12.79,5.38,12.71Z" style="fill:#d6002b"/><path d="M35.59,49.65a5.25,5.25,0,0,1-.53.4,3.24,3.24,0,0,0-.57.47,1.27,1.27,0,0,0-.25.49,1.16,1.16,0,0,0,0,.78A.94.94,0,0,0,36,51.63a.05.05,0,0,1,0,0h0s0,0,0,0a.94.94,0,0,0,1.74.16,1.22,1.22,0,0,0,0-.78,1.44,1.44,0,0,0-.26-.49,3.24,3.24,0,0,0-.57-.47c-.18-.13-.36-.25-.53-.4l-.46-.48S35.68,49.57,35.59,49.65Z" style="fill:#d6002b"/><path d="M4.07,8.21v.53H1.91V8.21h.8V3.77A6.37,6.37,0,0,1,1.12,5V4.29A5.31,5.31,0,0,0,2.88,2.88H3.4V8.21Z" style="fill:#d6002b"/><path d="M6.57,8.86A1.81,1.81,0,0,1,5,8a3.65,3.65,0,0,1-.6-2.14A3.77,3.77,0,0,1,5,3.74a1.8,1.8,0,0,1,1.59-.86,1.81,1.81,0,0,1,1.64.9A4,4,0,0,1,8.74,5.9,3.74,3.74,0,0,1,8.17,8,1.8,1.8,0,0,1,6.57,8.86Zm0-.57a1.16,1.16,0,0,0,1.08-.65A3.58,3.58,0,0,0,8,6a4.1,4.1,0,0,0-.36-1.82A1.21,1.21,0,0,0,5.46,4.1a3.76,3.76,0,0,0-.35,1.74,3.78,3.78,0,0,0,.37,1.79A1.18,1.18,0,0,0,6.57,8.29Z" style="fill:#d6002b"/><path d="M36.86,54.08v-.54H39v.54h-.79v4.44a6.43,6.43,0,0,1,1.58-1.25V58a5.07,5.07,0,0,0-1.76,1.41h-.51V54.08Z" style="fill:#d6002b"/><path d="M34.37,53.42a1.82,1.82,0,0,1,1.58.87,3.62,3.62,0,0,1,.6,2.13A3.8,3.8,0,0,1,36,58.55a1.92,1.92,0,0,1-3.23,0,4,4,0,0,1-.56-2.12,3.74,3.74,0,0,1,.57-2.07A1.82,1.82,0,0,1,34.37,53.42Zm0,.57a1.15,1.15,0,0,0-1.08.66,3.55,3.55,0,0,0-.35,1.66,4,4,0,0,0,.36,1.81,1.17,1.17,0,0,0,1.11.73,1.16,1.16,0,0,0,1.07-.66,4.51,4.51,0,0,0,0-3.53A1.19,1.19,0,0,0,34.36,54Z" style="fill:#d6002b"/><path d="M16,12c.48-.42,1-.75,1.5-1.13a8.83,8.83,0,0,0,1.6-1.3,3.93,3.93,0,0,0,.72-1.41,3.32,3.32,0,0,0-.09-2.18c-.87-1.39-3.3-2.61-4.9.46a.14.14,0,0,1-.11.07h0a.14.14,0,0,1-.12-.07c-1.6-3.07-4-1.85-4.9-.46a3.32,3.32,0,0,0-.09,2.18,3.93,3.93,0,0,0,.72,1.41,9.18,9.18,0,0,0,1.6,1.3c.51.38,1,.71,1.5,1.13.23.22,1.29,1.35,1.29,1.35S15.78,12.17,16,12Z" style="fill:#d6002b"/><path d="M27.49,12c.47-.42,1-.75,1.5-1.13a8.83,8.83,0,0,0,1.6-1.3,3.93,3.93,0,0,0,.72-1.41,3.32,3.32,0,0,0-.09-2.18c-.87-1.39-3.3-2.61-4.9.46a.14.14,0,0,1-.11.07h0a.14.14,0,0,1-.12-.07c-1.6-3.07-4-1.85-4.9-.46a3.32,3.32,0,0,0-.09,2.18,3.93,3.93,0,0,0,.72,1.41,8.83,8.83,0,0,0,1.6,1.3c.51.38,1,.71,1.5,1.13.23.22,1.29,1.35,1.29,1.35S27.26,12.17,27.49,12Z" style="fill:#d6002b"/><path d="M16,29c.48-.42,1-.75,1.5-1.13a8.47,8.47,0,0,0,1.6-1.31,3.81,3.81,0,0,0,.72-1.4A3.32,3.32,0,0,0,19.74,23c-.87-1.4-3.3-2.62-4.9.45a.12.12,0,0,1-.11.07h0a.12.12,0,0,1-.12-.07c-1.6-3.07-4-1.85-4.9-.45a3.32,3.32,0,0,0-.09,2.18,3.81,3.81,0,0,0,.72,1.4,8.8,8.8,0,0,0,1.6,1.31c.51.38,1,.71,1.5,1.13.23.21,1.29,1.35,1.29,1.35S15.78,29.22,16,29Z" style="fill:#d6002b"/><path d="M24.39,28.58c.18.14.36.28.53.43s1.29,1.35,1.29,1.35,1.05-1.14,1.28-1.35c.47-.42,1-.75,1.5-1.13a8.47,8.47,0,0,0,1.6-1.31,3.81,3.81,0,0,0,.72-1.4A3.32,3.32,0,0,0,31.22,23c-.87-1.4-3.3-2.62-4.9.45a.12.12,0,0,1-.11.07h0a.12.12,0,0,1-.12-.07c-1.6-3.07-4-1.85-4.9-.45a3.32,3.32,0,0,0-.09,2.18,3.81,3.81,0,0,0,.72,1.4,8.47,8.47,0,0,0,1.6,1.31l1,.7" style="fill:#d6002b"/><path d="M21.75,20.19a17.83,17.83,0,0,1,1.5-1.13,8.88,8.88,0,0,0,1.6-1.31,3.89,3.89,0,0,0,.72-1.4,3.35,3.35,0,0,0-.09-2.19c-.87-1.39-3.3-2.61-4.9.46a.14.14,0,0,1-.11.07h0a.14.14,0,0,1-.11-.07c-1.6-3.07-4-1.85-4.89-.46a3.29,3.29,0,0,0-.1,2.19,3.89,3.89,0,0,0,.72,1.4,9.24,9.24,0,0,0,1.6,1.31,16.34,16.34,0,0,1,1.5,1.13c.23.21,1.28,1.34,1.28,1.34S21.52,20.4,21.75,20.19Z" style="fill:#d6002b"/><path d="M24.92,50.52a18.38,18.38,0,0,1-1.5,1.13A8.47,8.47,0,0,0,21.82,53a3.81,3.81,0,0,0-.72,1.4,3.32,3.32,0,0,0,.09,2.18c.88,1.4,3.3,2.62,4.9-.45a.14.14,0,0,1,.12-.07h0a.14.14,0,0,1,.11.07c1.6,3.07,4,1.85,4.9.45a3.32,3.32,0,0,0,.09-2.18,3.81,3.81,0,0,0-.72-1.4A8.47,8.47,0,0,0,29,51.65a18.38,18.38,0,0,1-1.5-1.13c-.23-.21-1.28-1.34-1.28-1.34S25.15,50.31,24.92,50.52Z" style="fill:#d6002b"/><path d="M13.44,50.52a18.38,18.38,0,0,1-1.5,1.13A8.8,8.8,0,0,0,10.34,53a3.81,3.81,0,0,0-.72,1.4,3.32,3.32,0,0,0,.09,2.18c.87,1.4,3.3,2.62,4.9-.45a.14.14,0,0,1,.12-.07h0a.14.14,0,0,1,.11.07c1.6,3.07,4,1.85,4.9.45a3.32,3.32,0,0,0,.09-2.18,3.81,3.81,0,0,0-.72-1.4,8.47,8.47,0,0,0-1.6-1.31c-.51-.38-1-.7-1.5-1.13-.23-.21-1.28-1.34-1.28-1.34S13.67,50.31,13.44,50.52Z" style="fill:#d6002b"/><path d="M24.92,33.46a16.34,16.34,0,0,1-1.5,1.13,8.88,8.88,0,0,0-1.6,1.31,3.89,3.89,0,0,0-.72,1.4,3.35,3.35,0,0,0,.09,2.19c.88,1.39,3.3,2.61,4.9-.46a.14.14,0,0,1,.12-.07h0a.14.14,0,0,1,.11.07c1.6,3.07,4,1.85,4.9.46a3.35,3.35,0,0,0,.09-2.19,3.89,3.89,0,0,0-.72-1.4A8.88,8.88,0,0,0,29,34.59a16.34,16.34,0,0,1-1.5-1.13c-.23-.21-1.28-1.34-1.28-1.34S25.15,33.25,24.92,33.46Z" style="fill:#d6002b"/><path d="M13.44,33.46a16.34,16.34,0,0,1-1.5,1.13,9.24,9.24,0,0,0-1.6,1.31,3.89,3.89,0,0,0-.72,1.4,3.35,3.35,0,0,0,.09,2.19c.87,1.39,3.3,2.61,4.9-.46a.14.14,0,0,1,.12-.07h0a.14.14,0,0,1,.11.07c1.6,3.07,4,1.85,4.9.46a3.35,3.35,0,0,0,.09-2.19,3.89,3.89,0,0,0-.72-1.4,8.88,8.88,0,0,0-1.6-1.31A17.83,17.83,0,0,1,16,33.46c-.23-.21-1.28-1.34-1.28-1.34S13.67,33.25,13.44,33.46Z" style="fill:#d6002b"/><path d="M19.18,42.48c-.47.42-1,.75-1.5,1.13a9.18,9.18,0,0,0-1.6,1.3,3.93,3.93,0,0,0-.72,1.41,3.25,3.25,0,0,0,.1,2.18c.87,1.39,3.29,2.61,4.89-.46a.14.14,0,0,1,.11-.07h0a.14.14,0,0,1,.11.07c1.6,3.07,4,1.85,4.9.46a3.32,3.32,0,0,0,.09-2.18,3.93,3.93,0,0,0-.72-1.41,8.83,8.83,0,0,0-1.6-1.3c-.51-.38-1-.71-1.5-1.13-.23-.22-1.29-1.35-1.29-1.35S19.41,42.26,19.18,42.48Z" style="fill:#d6002b"/></g></g></g></svg>