<svg xmlns="http://www.w3.org/2000/svg" viewBox="0 0 40.93 62.29"><title>h3</title><g id="Layer_2" data-name="Layer 2"><g id="Layer_1-2" data-name="Layer 1"><g id="h3"><rect x="0.09" y="0.09" width="40.74" height="62.1" rx="3.45" style="fill:#fff"/><path d="M37.39,62.29H3.54A3.55,3.55,0,0,1,0,58.75V3.54A3.55,3.55,0,0,1,3.54,0H37.39a3.55,3.55,0,0,1,3.54,3.54V58.75A3.55,3.55,0,0,1,37.39,62.29ZM3.54.19A3.35,3.35,0,0,0,.19,3.54V58.75A3.36,3.36,0,0,0,3.54,62.1H37.39a3.36,3.36,0,0,0,3.35-3.35V3.54A3.35,3.35,0,0,0,37.39.19Z" style="fill:#2d2d2d"/><path d="M5.75,12.71c.17-.15.35-.27.53-.4a3.7,3.7,0,0,0,.57-.46,1.59,1.59,0,0,0,.26-.5,1.22,1.22,0,0,0,0-.78.94.94,0,0,0-1.74.16s0,0,0,0h0a.05.05,0,0,1,0,0,.94.94,0,0,0-1.74-.16,1.22,1.22,0,0,0,0,.78,1.38,1.38,0,0,0,.25.5,4.25,4.25,0,0,0,.57.46c.18.13.37.25.54.4l.45.48Z" style="fill:#d6002b"/><path d="M35.22,49.65c-.17.15-.35.27-.53.4a3.24,3.24,0,0,0-.57.47,1.44,1.44,0,0,0-.26.49,1.22,1.22,0,0,0,0,.78.94.94,0,0,0,1.74-.16s0,0,0,0h0s0,0,0,0a.94.94,0,0,0,1.74.16,1.16,1.16,0,0,0,0-.78,1.27,1.27,0,0,0-.25-.49,3.24,3.24,0,0,0-.57-.47,5.25,5.25,0,0,1-.53-.4c-.09-.08-.46-.48-.46-.48Z" style="fill:#d6002b"/><path d="M4.46,6V5.47h.66a1.51,1.51,0,0,0,1-.29,1,1,0,0,0,.3-.72.89.89,0,0,0-.34-.74,1.37,1.37,0,0,0-.87-.27,1.35,1.35,0,0,0-1.34.94L3.25,4.2A2,2,0,0,1,5.31,2.88a2,2,0,0,1,1.36.45,1.4,1.4,0,0,1,.52,1.08,1.31,1.31,0,0,1-.31.85,1.39,1.39,0,0,1-.8.46A1.71,1.71,0,0,1,7,6.18a1.3,1.3,0,0,1,.39,1,1.52,1.52,0,0,1-.58,1.21,2.42,2.42,0,0,1-1.61.49,2.46,2.46,0,0,1-1.38-.38,2,2,0,0,1-.8-1l.67-.22a1.4,1.4,0,0,0,1.5,1A1.55,1.55,0,0,0,6.32,8a1.07,1.07,0,0,0,.34-.8.93.93,0,0,0-.41-.8A1.81,1.81,0,0,0,5.12,6Z" style="fill:#d6002b"/><path d="M36.49,56.25v.57h-.66a1.46,1.46,0,0,0-1,.29,1,1,0,0,0-.31.72.9.9,0,0,0,.35.74,1.37,1.37,0,0,0,.87.27,1.35,1.35,0,0,0,1.34-.94l.64.19a2,2,0,0,1-2,1.32A2,2,0,0,1,34.28,59a1.37,1.37,0,0,1-.52-1.08,1.24,1.24,0,0,1,.31-.85,1.33,1.33,0,0,1,.8-.46,1.74,1.74,0,0,1-.94-.46,1.3,1.3,0,0,1-.39-1,1.5,1.5,0,0,1,.58-1.21,2.42,2.42,0,0,1,1.61-.5,2.38,2.38,0,0,1,1.38.39,1.91,1.91,0,0,1,.79,1l-.66.22a1.4,1.4,0,0,0-1.5-1,1.53,1.53,0,0,0-1.11.33,1.06,1.06,0,0,0-.34.79,1,1,0,0,0,.4.81,1.88,1.88,0,0,0,1.14.31Z" style="fill:#d6002b"/><path d="M21.75,11.58c.48-.43,1-.75,1.5-1.13a8.47,8.47,0,0,0,1.6-1.31,3.81,3.81,0,0,0,.72-1.4,3.32,3.32,0,0,0-.09-2.18c-.87-1.4-3.3-2.62-4.9.45a.12.12,0,0,1-.11.07h0A.12.12,0,0,1,20.35,6c-1.6-3.07-4-1.85-4.89-.45a3.32,3.32,0,0,0-.1,2.18,3.81,3.81,0,0,0,.72,1.4,8.47,8.47,0,0,0,1.6,1.31,18.38,18.38,0,0,1,1.5,1.13c.23.21,1.29,1.35,1.29,1.35S21.52,11.79,21.75,11.58Z" style="fill:#d6002b"/><path d="M19.18,50.71c-.47.42-1,.75-1.5,1.13a8.47,8.47,0,0,0-1.6,1.31,3.81,3.81,0,0,0-.72,1.4,3.32,3.32,0,0,0,.1,2.18c.87,1.39,3.29,2.61,4.89-.45a.13.13,0,0,1,.11-.08h0a.13.13,0,0,1,.11.08c1.6,3.06,4,1.84,4.9.45a3.32,3.32,0,0,0,.09-2.18,3.81,3.81,0,0,0-.72-1.4,8.47,8.47,0,0,0-1.6-1.31c-.51-.38-1-.71-1.5-1.13-.23-.21-1.28-1.35-1.28-1.35S19.41,50.5,19.18,50.71Z" style="fill:#d6002b"/><path d="M21.75,34.21c.48-.42,1-.75,1.5-1.13a8.47,8.47,0,0,0,1.6-1.31,3.81,3.81,0,0,0,.72-1.4,3.32,3.32,0,0,0-.09-2.18c-.87-1.39-3.3-2.61-4.9.45a.12.12,0,0,1-.11.07h0a.12.12,0,0,1-.11-.07c-1.6-3.06-4-1.84-4.89-.45a3.32,3.32,0,0,0-.1,2.18,3.81,3.81,0,0,0,.72,1.4,8.47,8.47,0,0,0,1.6,1.31c.51.38,1,.71,1.5,1.13.23.21,1.29,1.35,1.29,1.35S21.52,34.42,21.75,34.21Z" style="fill:#d6002b"/></g></g></g></svg>