<svg xmlns="http://www.w3.org/2000/svg" viewBox="0 0 40.93 62.29"><title>h4</title><g id="Layer_2" data-name="Layer 2"><g id="Layer_1-2" data-name="Layer 1"><g id="h4"><rect x="0.09" y="0.09" width="40.74" height="62.1" rx="3.45" style="fill:#fff"/><path d="M37.39,62.29H3.54A3.55,3.55,0,0,1,0,58.75V3.54A3.55,3.55,0,0,1,3.54,0H37.39a3.55,3.55,0,0,1,3.54,3.54V58.75A3.55,3.55,0,0,1,37.39,62.29ZM3.54.19A3.35,3.35,0,0,0,.19,3.54V58.75A3.36,3.36,0,0,0,3.54,62.1H37.39a3.36,3.36,0,0,0,3.35-3.35V3.54A3.35,3.35,0,0,0,37.39.19Z" style="fill:#2d2d2d"/><path d="M5.75,12.71c.17-.15.35-.27.53-.4a3.7,3.7,0,0,0,.57-.46,1.59,1.59,0,0,0,.26-.5,1.22,1.22,0,0,0,0-.78.94.94,0,0,0-1.74.16s0,0,0,0h0a.05.05,0,0,1,0,0,.94.94,0,0,0-1.74-.16,1.22,1.22,0,0,0,0,.78,1.26,1.26,0,0,0,.26.5,3.61,3.61,0,0,0,.56.46c.18.13.37.25.54.4l.45.48Z" style="fill:#d6002b"/><path d="M35.22,49.65c-.17.15-.35.27-.53.4a3.24,3.24,0,0,0-.57.47,1.44,1.44,0,0,0-.26.49,1.22,1.22,0,0,0,0,.78.94.94,0,0,0,1.74-.16s0,0,0,0h0s0,0,0,0a.94.94,0,0,0,1.74.16,1.16,1.16,0,0,0,0-.78,1.27,1.27,0,0,0-.25-.49,3.24,3.24,0,0,0-.57-.47,5.25,5.25,0,0,1-.53-.4c-.09-.08-.46-.48-.46-.48Z" style="fill:#d6002b"/><path d="M7,8.29l-.69,0,0-1.37L3.47,6.81V6.32L6.26,2.4l.89,0L7,6.36l.93,0,0,.56L7,6.92Zm-.63-2,.09-2.71c0-.2,0-.41,0-.64a4.21,4.21,0,0,1-.33.53L4.24,6.26Z" style="fill:#d6002b"/><path d="M34,54l.69,0,0,1.37,2.84.09V56l-2.78,3.93-.89,0,.13-3.93-.93,0,0-.57.93,0Zm.63,2-.09,2.71c0,.2,0,.41,0,.64a6.06,6.06,0,0,1,.32-.53L36.71,56Z" style="fill:#d6002b"/><path d="M15.08,12c.47-.42,1-.75,1.5-1.13a9.57,9.57,0,0,0,1.6-1.3,3.93,3.93,0,0,0,.72-1.41,3.38,3.38,0,0,0-.1-2.18c-.87-1.39-3.3-2.61-4.89.46a.15.15,0,0,1-.12.07h0a.15.15,0,0,1-.12-.07c-1.59-3.07-4-1.85-4.89-.46a3.38,3.38,0,0,0-.1,2.18A3.93,3.93,0,0,0,9.4,9.52a9.57,9.57,0,0,0,1.6,1.3c.51.38,1,.71,1.5,1.13.24.22,1.29,1.35,1.29,1.35S14.84,12.17,15.08,12Z" style="fill:#d6002b"/><path d="M28.43,12c.47-.42,1-.75,1.5-1.13a9.18,9.18,0,0,0,1.6-1.3,3.93,3.93,0,0,0,.72-1.41,3.38,3.38,0,0,0-.1-2.18c-.87-1.39-3.29-2.61-4.89.46a.15.15,0,0,1-.12.07h0A.12.12,0,0,1,27,6.39c-1.6-3.07-4-1.85-4.9-.46A3.38,3.38,0,0,0,22,8.11a4.28,4.28,0,0,0,.72,1.41,9.57,9.57,0,0,0,1.6,1.3c.51.38,1,.71,1.5,1.13.24.22,1.29,1.35,1.29,1.35S28.19,12.17,28.43,12Z" style="fill:#d6002b"/><path d="M25.85,50.33a16.34,16.34,0,0,1-1.5,1.13,9.63,9.63,0,0,0-1.6,1.31,4.23,4.23,0,0,0-.72,1.4,3.42,3.42,0,0,0,.1,2.19C23,57.75,25.43,59,27,55.9a.12.12,0,0,1,.11-.07h0a.15.15,0,0,1,.12.07c1.6,3.07,4,1.85,4.89.46a3.42,3.42,0,0,0,.1-2.19,3.89,3.89,0,0,0-.72-1.4,9.24,9.24,0,0,0-1.6-1.31,16.34,16.34,0,0,1-1.5-1.13c-.24-.21-1.29-1.34-1.29-1.34S26.09,50.12,25.85,50.33Z" style="fill:#d6002b"/><path d="M12.5,50.33A16.34,16.34,0,0,1,11,51.46a9.63,9.63,0,0,0-1.6,1.31,3.89,3.89,0,0,0-.72,1.4,3.42,3.42,0,0,0,.1,2.19c.87,1.39,3.3,2.61,4.89-.46a.15.15,0,0,1,.12-.07h0a.15.15,0,0,1,.12.07c1.59,3.07,4,1.85,4.89.46a3.42,3.42,0,0,0,.1-2.19,3.89,3.89,0,0,0-.72-1.4,9.63,9.63,0,0,0-1.6-1.31,16.34,16.34,0,0,1-1.5-1.13c-.24-.21-1.29-1.34-1.29-1.34S12.74,50.12,12.5,50.33Z" style="fill:#d6002b"/></g></g></g></svg>