<svg xmlns="http://www.w3.org/2000/svg" viewBox="0 0 40.97 62.31"><title>h5</title><g id="Layer_2" data-name="Layer 2"><g id="Layer_1-2" data-name="Layer 1"><g id="h5"><path d="M37.39,62.22l-33.85,0A3.45,3.45,0,0,1,.09,58.74l0-55.2A3.46,3.46,0,0,1,3.58.09l33.85,0a3.45,3.45,0,0,1,3.45,3.45l0,55.2A3.46,3.46,0,0,1,37.39,62.22Z" style="fill:#fff"/><path d="M37.39,62.31h0l-33.85,0A3.55,3.55,0,0,1,0,58.74L0,3.54A3.55,3.55,0,0,1,3.58,0L37.43,0A3.56,3.56,0,0,1,41,3.57l0,55.2A3.55,3.55,0,0,1,37.39,62.31ZM3.58.19A3.35,3.35,0,0,0,.23,3.54l0,55.2A3.36,3.36,0,0,0,3.54,62.1l33.85,0v0a3.35,3.35,0,0,0,3.35-3.35l0-55.2a3.37,3.37,0,0,0-1-2.38,3.33,3.33,0,0,0-2.37-1Z" style="fill:#2d2d2d"/><path d="M5.77,12.72c.17-.15.35-.26.53-.4a3.7,3.7,0,0,0,.57-.46,1.59,1.59,0,0,0,.26-.5,1.22,1.22,0,0,0,0-.78.94.94,0,0,0-1.74.16s0,0,0,0h0a.05.05,0,0,1,0,0,.94.94,0,0,0-1.74-.16,1.22,1.22,0,0,0,0,.78,1.38,1.38,0,0,0,.25.5,3.7,3.7,0,0,0,.57.46c.18.14.37.25.54.4l.45.48Z" style="fill:#d6002b"/><path d="M35.24,49.66c-.17.15-.35.27-.53.4a3.24,3.24,0,0,0-.57.47,1.4,1.4,0,0,0-.26.5,1.19,1.19,0,0,0,0,.77.94.94,0,0,0,1.74-.16l0,0h0l0,0a.94.94,0,0,0,1.74.16,1.13,1.13,0,0,0,0-.77,1.24,1.24,0,0,0-.25-.5,3.24,3.24,0,0,0-.57-.47c-.18-.13-.37-.25-.54-.4s-.45-.48-.45-.48S35.32,49.59,35.24,49.66Z" style="fill:#d6002b"/><path d="M7,3,7,3.63H4.14L4,5.49a1.93,1.93,0,0,1,2.8-.06,1.89,1.89,0,0,1,.59,1.43,1.84,1.84,0,0,1-.64,1.45,2.23,2.23,0,0,1-1.56.56A2.29,2.29,0,0,1,3.92,8.5a1.81,1.81,0,0,1-.74-1l.61-.21a1.42,1.42,0,0,0,1.43,1A1.49,1.49,0,0,0,6.31,7.9a1.41,1.41,0,0,0,.4-1,1.31,1.31,0,0,0-.4-1,1.33,1.33,0,0,0-1-.37A1.6,1.6,0,0,0,4,6.24l-.57-.12L3.62,3Z" style="fill:#d6002b"/><path d="M34,59.3l.06-.62h2.83L37,56.82a2,2,0,0,1-1.41.63,2,2,0,0,1-1.39-.56,1.89,1.89,0,0,1-.59-1.44A1.84,1.84,0,0,1,34.22,54a2.28,2.28,0,0,1,1.56-.56,2.24,2.24,0,0,1,1.28.37,1.78,1.78,0,0,1,.75,1l-.62.21a1.41,1.41,0,0,0-1.42-1,1.47,1.47,0,0,0-1.09.41,1.42,1.42,0,0,0-.41,1,1.35,1.35,0,0,0,.4,1,1.37,1.37,0,0,0,1,.38A1.58,1.58,0,0,0,37,56.07l.57.12-.18,3.11Z" style="fill:#d6002b"/><path d="M15.1,12a18.5,18.5,0,0,1,1.5-1.14,9.1,9.1,0,0,0,1.6-1.3,4.33,4.33,0,0,0,.72-1.4,3.42,3.42,0,0,0-.1-2.19c-.87-1.39-3.3-2.61-4.9.46a.12.12,0,0,1-.11.07h0a.15.15,0,0,1-.12-.07c-1.6-3.07-4-1.85-4.89-.46a3.42,3.42,0,0,0-.1,2.19,4,4,0,0,0,.72,1.4,8.75,8.75,0,0,0,1.6,1.3A18.5,18.5,0,0,1,12.52,12c.24.21,1.29,1.34,1.29,1.34S14.86,12.18,15.1,12Z" style="fill:#d6002b"/><path d="M28.45,12A18.5,18.5,0,0,1,30,10.83a9.1,9.1,0,0,0,1.6-1.3,4,4,0,0,0,.72-1.4,3.42,3.42,0,0,0-.1-2.19c-.87-1.39-3.29-2.61-4.89.46a.15.15,0,0,1-.12.07h0a.12.12,0,0,1-.11-.07c-1.6-3.07-4-1.85-4.9-.46a3.42,3.42,0,0,0-.1,2.19,4.14,4.14,0,0,0,.72,1.4,9.1,9.1,0,0,0,1.6,1.3A18.5,18.5,0,0,1,25.87,12c.24.21,1.29,1.34,1.29,1.34S28.21,12.18,28.45,12Z" style="fill:#d6002b"/><path d="M25.87,50.34a18.5,18.5,0,0,1-1.5,1.14,9.1,9.1,0,0,0-1.6,1.3,4.05,4.05,0,0,0-.72,1.4,3.41,3.41,0,0,0,.1,2.19c.87,1.39,3.3,2.61,4.9-.46a.12.12,0,0,1,.11-.07h0a.15.15,0,0,1,.12.07c1.6,3.07,4,1.85,4.89.46a3.41,3.41,0,0,0,.1-2.19,3.89,3.89,0,0,0-.72-1.4,9.1,9.1,0,0,0-1.6-1.3,18.5,18.5,0,0,1-1.5-1.14c-.24-.21-1.29-1.34-1.29-1.34S26.11,50.13,25.87,50.34Z" style="fill:#d6002b"/><path d="M12.52,50.34A18.5,18.5,0,0,1,11,51.48a8.75,8.75,0,0,0-1.6,1.3,3.89,3.89,0,0,0-.72,1.4,3.41,3.41,0,0,0,.1,2.19c.87,1.39,3.29,2.61,4.89-.46a.15.15,0,0,1,.12-.07h0a.12.12,0,0,1,.11.07c1.6,3.07,4,1.85,4.9.46a3.41,3.41,0,0,0,.1-2.19,4.23,4.23,0,0,0-.72-1.4,9.1,9.1,0,0,0-1.6-1.3,18.5,18.5,0,0,1-1.5-1.14c-.24-.21-1.29-1.34-1.29-1.34S12.76,50.13,12.52,50.34Z" style="fill:#d6002b"/><path d="M21.77,34.22c.47-.42,1-.75,1.5-1.13a8.83,8.83,0,0,0,1.6-1.3,3.93,3.93,0,0,0,.72-1.41,3.32,3.32,0,0,0-.09-2.18c-.87-1.39-3.3-2.61-4.9.46a.14.14,0,0,1-.11.07h0a.14.14,0,0,1-.11-.07c-1.6-3.07-4-1.85-4.9-.46a3.32,3.32,0,0,0-.09,2.18,3.93,3.93,0,0,0,.72,1.41,8.83,8.83,0,0,0,1.6,1.3c.51.38,1,.71,1.5,1.13.23.22,1.28,1.35,1.28,1.35S21.54,34.44,21.77,34.22Z" style="fill:#d6002b"/></g></g></g></svg>