<svg xmlns="http://www.w3.org/2000/svg" viewBox="0 0 40.93 62.29"><title>h8</title><g id="Layer_2" data-name="Layer 2"><g id="Layer_1-2" data-name="Layer 1"><g id="h8"><rect x="0.09" y="0.09" width="40.74" height="62.1" rx="3.45" style="fill:#fff"/><path d="M37.39,62.29H3.54A3.55,3.55,0,0,1,0,58.75V3.54A3.55,3.55,0,0,1,3.54,0H37.39a3.55,3.55,0,0,1,3.54,3.54V58.75A3.55,3.55,0,0,1,37.39,62.29ZM3.54.19A3.35,3.35,0,0,0,.19,3.54V58.75A3.36,3.36,0,0,0,3.54,62.1H37.39a3.37,3.37,0,0,0,3.36-3.35V3.54A3.36,3.36,0,0,0,37.39.19Z" style="fill:#2d2d2d"/><path d="M5.75,12.62a5.39,5.39,0,0,1,.54-.4,3.58,3.58,0,0,0,.56-.47,1.49,1.49,0,0,0,.26-.5,1.26,1.26,0,0,0,0-.77,1,1,0,0,0-1.75.16l0,0h0l0,0a.94.94,0,0,0-1.74-.16,1.19,1.19,0,0,0,0,.77,1.33,1.33,0,0,0,.26.5,3.17,3.17,0,0,0,.56.47,5.39,5.39,0,0,1,.54.4c.08.07.45.48.45.48S5.67,12.69,5.75,12.62Z" style="fill:#d6002b"/><path d="M35.22,49.56c-.17.15-.35.26-.53.4a3.19,3.19,0,0,0-.57.46,1.59,1.59,0,0,0-.26.5,1.22,1.22,0,0,0,0,.78.94.94,0,0,0,1.74-.16s0,0,0,0h0s0,0,0,0a.94.94,0,0,0,1.74.16,1.16,1.16,0,0,0,0-.78,1.38,1.38,0,0,0-.25-.5,3.19,3.19,0,0,0-.57-.46c-.18-.14-.37-.25-.53-.4s-.46-.48-.46-.48Z" style="fill:#d6002b"/><path d="M4.28,5.67A1.52,1.52,0,0,1,3.19,4.29a1.29,1.29,0,0,1,.55-1.08,2.28,2.28,0,0,1,1.44-.42,2.2,2.2,0,0,1,1.4.4,1.29,1.29,0,0,1,.53,1.06c0,.61-.38,1-1.12,1.31a2.56,2.56,0,0,1,1.13.81,1.55,1.55,0,0,1,.23.77A1.42,1.42,0,0,1,6.76,8.3a2.49,2.49,0,0,1-1.59.47,2.55,2.55,0,0,1-1.66-.48,1.39,1.39,0,0,1-.6-1.12C2.91,6.52,3.37,6,4.28,5.67Zm.8.3c-1,.23-1.46.64-1.46,1.22a.88.88,0,0,0,.4.75,2,2,0,0,0,1.17.29,1.8,1.8,0,0,0,1.06-.29.87.87,0,0,0,.4-.72C6.65,6.66,6.12,6.25,5.08,6Zm.08-.66a2.92,2.92,0,0,0,1-.44.8.8,0,0,0,.3-.64.75.75,0,0,0-.36-.67,1.73,1.73,0,0,0-.93-.23,1.56,1.56,0,0,0-.91.24.76.76,0,0,0-.36.66.84.84,0,0,0,.4.69A2,2,0,0,0,5.16,5.31Z" style="fill:#d6002b"/><path d="M36.48,56.43a1.51,1.51,0,0,1,1.09,1.38A1.29,1.29,0,0,1,37,58.89a2.29,2.29,0,0,1-1.44.43,2.24,2.24,0,0,1-1.4-.41,1.28,1.28,0,0,1-.52-1.06c0-.61.37-1.05,1.11-1.31a2.56,2.56,0,0,1-1.13-.81,1.55,1.55,0,0,1-.23-.77A1.44,1.44,0,0,1,34,53.8a2.49,2.49,0,0,1,1.59-.47,2.59,2.59,0,0,1,1.67.48,1.4,1.4,0,0,1,.59,1.12C37.85,55.58,37.39,56.08,36.48,56.43Zm-.79-.3c1-.23,1.45-.64,1.45-1.22a.9.9,0,0,0-.39-.75,2,2,0,0,0-1.18-.29,1.74,1.74,0,0,0-1,.29.85.85,0,0,0-.4.72C34.12,55.44,34.64,55.85,35.69,56.13Zm-.08.66a2.71,2.71,0,0,0-1,.45.77.77,0,0,0-.3.63.75.75,0,0,0,.36.67,1.74,1.74,0,0,0,.94.23,1.6,1.6,0,0,0,.91-.24.77.77,0,0,0,.35-.65.85.85,0,0,0-.39-.7A2.13,2.13,0,0,0,35.61,56.79Z" style="fill:#d6002b"/><path d="M15.08,11.86c.47-.42,1-.75,1.5-1.13a9.15,9.15,0,0,0,1.6-1.31A3.81,3.81,0,0,0,18.9,8a3.38,3.38,0,0,0-.1-2.18c-.87-1.4-3.3-2.62-4.89.45a.13.13,0,0,1-.12.07h0a.13.13,0,0,1-.12-.07c-1.59-3.07-4-1.85-4.89-.45A3.38,3.38,0,0,0,8.68,8a4,4,0,0,0,.72,1.4A9.15,9.15,0,0,0,11,10.73c.51.38,1,.71,1.5,1.13.24.21,1.29,1.35,1.29,1.35S14.84,12.07,15.08,11.86Z" style="fill:#d6002b"/><path d="M28.43,11.86c.47-.42,1-.75,1.5-1.13a8.8,8.8,0,0,0,1.6-1.31A3.81,3.81,0,0,0,32.25,8a3.32,3.32,0,0,0-.1-2.18c-.87-1.4-3.29-2.62-4.89.45a.12.12,0,0,1-.12.07h0A.11.11,0,0,1,27,6.29c-1.6-3.07-4-1.85-4.9-.45A3.38,3.38,0,0,0,22,8a4.14,4.14,0,0,0,.72,1.4,9.15,9.15,0,0,0,1.6,1.31c.51.38,1,.71,1.5,1.13.24.21,1.29,1.35,1.29,1.35S28.19,12.07,28.43,11.86Z" style="fill:#d6002b"/><path d="M15.08,34.12A18.38,18.38,0,0,1,16.58,33a9.15,9.15,0,0,0,1.6-1.31,3.81,3.81,0,0,0,.72-1.4,3.42,3.42,0,0,0-.1-2.19c-.87-1.39-3.3-2.61-4.89.46a.15.15,0,0,1-.12.07h0a.15.15,0,0,1-.12-.07c-1.59-3.07-4-1.85-4.89-.46a3.42,3.42,0,0,0-.1,2.19,4,4,0,0,0,.72,1.4A9.15,9.15,0,0,0,11,33a18.38,18.38,0,0,1,1.5,1.13c.24.21,1.29,1.34,1.29,1.34S14.84,34.33,15.08,34.12Z" style="fill:#d6002b"/><path d="M28.43,34.12A18.38,18.38,0,0,1,29.93,33a8.8,8.8,0,0,0,1.6-1.31,3.81,3.81,0,0,0,.72-1.4,3.35,3.35,0,0,0-.1-2.19c-.87-1.39-3.29-2.61-4.89.46a.14.14,0,0,1-.12.07h0a.12.12,0,0,1-.11-.07c-1.6-3.07-4-1.85-4.9-.46a3.42,3.42,0,0,0-.1,2.19,4.14,4.14,0,0,0,.72,1.4A9.15,9.15,0,0,0,24.35,33a18.38,18.38,0,0,1,1.5,1.13c.24.21,1.29,1.34,1.29,1.34S28.19,34.33,28.43,34.12Z" style="fill:#d6002b"/><path d="M25.85,50.24a18.38,18.38,0,0,1-1.5,1.13,9.15,9.15,0,0,0-1.6,1.31,4.14,4.14,0,0,0-.72,1.4,3.38,3.38,0,0,0,.1,2.18c.87,1.4,3.3,2.62,4.9-.45a.11.11,0,0,1,.11-.07h0a.12.12,0,0,1,.12.07c1.6,3.07,4,1.85,4.89.45a3.32,3.32,0,0,0,.1-2.18,3.81,3.81,0,0,0-.72-1.4,8.8,8.8,0,0,0-1.6-1.31,18.38,18.38,0,0,1-1.5-1.13c-.24-.21-1.29-1.35-1.29-1.35S26.09,50,25.85,50.24Z" style="fill:#d6002b"/><path d="M12.5,50.24A18.38,18.38,0,0,1,11,51.37a9.15,9.15,0,0,0-1.6,1.31,4,4,0,0,0-.72,1.4,3.38,3.38,0,0,0,.1,2.18c.87,1.4,3.3,2.62,4.89-.45a.13.13,0,0,1,.12-.07h0a.13.13,0,0,1,.12.07c1.59,3.07,4,1.85,4.89.45a3.38,3.38,0,0,0,.1-2.18,3.81,3.81,0,0,0-.72-1.4,9.15,9.15,0,0,0-1.6-1.31,18.38,18.38,0,0,1-1.5-1.13c-.24-.21-1.29-1.35-1.29-1.35S12.74,50,12.5,50.24Z" style="fill:#d6002b"/><path d="M21.75,23.08c.48-.43,1-.76,1.5-1.14a8.42,8.42,0,0,0,1.6-1.3,4.12,4.12,0,0,0,.73-1.41,3.39,3.39,0,0,0-.1-2.18c-.87-1.39-3.3-2.61-4.9.46a.14.14,0,0,1-.11.07h0a.14.14,0,0,1-.12-.07c-1.6-3.07-4-1.85-4.89-.46a3.32,3.32,0,0,0-.1,2.18,3.93,3.93,0,0,0,.72,1.41,8.75,8.75,0,0,0,1.6,1.3,18.5,18.5,0,0,1,1.5,1.14c.23.21,1.29,1.34,1.29,1.34S21.52,23.29,21.75,23.08Z" style="fill:#d6002b"/><path d="M19.18,38.46a16.34,16.34,0,0,1-1.5,1.13,9.24,9.24,0,0,0-1.6,1.31,3.89,3.89,0,0,0-.72,1.4,3.35,3.35,0,0,0,.1,2.19c.87,1.39,3.29,2.61,4.89-.46a.14.14,0,0,1,.12-.07h0a.14.14,0,0,1,.11.07c1.6,3.07,4,1.85,4.9.46a3.42,3.42,0,0,0,.1-2.19,4.08,4.08,0,0,0-.73-1.4,8.88,8.88,0,0,0-1.6-1.31,17.83,17.83,0,0,1-1.5-1.13c-.23-.21-1.28-1.34-1.28-1.34S19.41,38.25,19.18,38.46Z" style="fill:#d6002b"/></g></g></g></svg>