<svg xmlns="http://www.w3.org/2000/svg" viewBox="0 0 40.93 62.29"><title>ha</title><g id="Layer_2" data-name="Layer 2"><g id="Layer_1-2" data-name="Layer 1"><g id="ha"><rect x="0.09" y="0.09" width="40.74" height="62.1" rx="3.45" style="fill:#fff"/><path d="M37.39,62.29H3.54A3.55,3.55,0,0,1,0,58.75V3.54A3.55,3.55,0,0,1,3.54,0H37.39a3.55,3.55,0,0,1,3.54,3.54V58.75A3.55,3.55,0,0,1,37.39,62.29ZM3.54.19A3.35,3.35,0,0,0,.19,3.54V58.75A3.36,3.36,0,0,0,3.54,62.1H37.39a3.36,3.36,0,0,0,3.35-3.35V3.54A3.35,3.35,0,0,0,37.39.19Z" style="fill:#2d2d2d"/><path d="M21.75,34.21c.48-.42,1-.75,1.5-1.13a8.47,8.47,0,0,0,1.6-1.31,3.81,3.81,0,0,0,.72-1.4,3.32,3.32,0,0,0-.09-2.18c-.87-1.39-3.3-2.61-4.9.45a.12.12,0,0,1-.11.07h0a.12.12,0,0,1-.12-.07c-1.6-3.06-4-1.84-4.9-.45a3.32,3.32,0,0,0-.09,2.18,3.81,3.81,0,0,0,.72,1.4,8.8,8.8,0,0,0,1.6,1.31c.51.38,1,.71,1.5,1.13.23.21,1.29,1.35,1.29,1.35S21.52,34.42,21.75,34.21Z" style="fill:#d6002b"/><path d="M5.75,12.71c.17-.15.35-.27.53-.4a3.7,3.7,0,0,0,.57-.46,1.59,1.59,0,0,0,.26-.5,1.22,1.22,0,0,0,0-.78.93.93,0,0,0-1.73.16.05.05,0,0,1,0,0h0a.05.05,0,0,1,0,0,.94.94,0,0,0-1.74-.16,1.22,1.22,0,0,0,0,.78,1.26,1.26,0,0,0,.26.5,3.61,3.61,0,0,0,.56.46c.18.13.37.25.54.4l.45.48Z" style="fill:#d6002b"/><path d="M35.22,49.65c-.17.15-.35.27-.53.4a3.24,3.24,0,0,0-.57.47,1.44,1.44,0,0,0-.26.49,1.22,1.22,0,0,0,0,.78.94.94,0,0,0,1.74-.16s0,0,0,0h0s0,0,0,0a.94.94,0,0,0,1.74.16,1.16,1.16,0,0,0,0-.78,1.27,1.27,0,0,0-.25-.49,3.24,3.24,0,0,0-.57-.47,5.25,5.25,0,0,1-.53-.4c-.09-.08-.46-.48-.46-.48Z" style="fill:#d6002b"/><path d="M7.57,8.74H6.83L6.26,7.06H4.12L3.61,8.74H3L4.87,3h.82ZM6.1,6.53,5.21,3.76,4.32,6.53Z" style="fill:#d6002b"/><path d="M33.38,53.54h.73l.58,1.68h2.14l.51-1.68h.6l-1.87,5.75h-.81Zm1.47,2.22.89,2.76.89-2.76Z" style="fill:#d6002b"/></g></g></g></svg>