<svg xmlns="http://www.w3.org/2000/svg" xmlns:xlink="http://www.w3.org/1999/xlink" viewBox="0 0 40.93 62.29"><defs><clipPath id="clip-path"><path d="M19.57,15.54c.07,0-.15-.36.34-.45.22,0,.34,0,.38.25a1.13,1.13,0,0,1-.58,1,1.78,1.78,0,0,1-1.11.34,5.53,5.53,0,0,1-3.27-1.3c-.32-.27-1-.8-1.14-.75s-.47.46-1.06,1.24c-.37.47-1,1.06-1.56,1a.71.71,0,0,1-.64-.44.56.56,0,0,1,.15-.73c.35-.24.49,0,.62.06s0-.23,0-.3a.89.89,0,0,0-1.29-.12,1.57,1.57,0,0,0-.58,1.06,2,2,0,0,0,.1,1c.25.67,1.08.81,1.8.84a2.13,2.13,0,0,0,2-1.12c.54-1.23.44-1.38.58-1.36s.23.93.43,1.28c1,1.7,3.29,1.56,4.31,1.3a2.88,2.88,0,0,0,2.11-1.86,1.69,1.69,0,0,0-.35-1.93,1.14,1.14,0,0,0-1-.37.7.7,0,0,0-.55.58C19.17,15.3,19.48,15.59,19.57,15.54Z" style="fill:none"/></clipPath><clipPath id="clip-path-2"><path d="M24.85,8.33c.33.45,1,1.6,1.29,2.05.63.87.88,1.88,1.84,2.36a7,7,0,0,0,1.58.47,1.47,1.47,0,0,1,1.09.81,2.18,2.18,0,0,1,.05,2c-.13.35-.74,1.09-2.43,1.26a11.85,11.85,0,0,1-2,.06,20.28,20.28,0,0,0-2.06-.09c-.74,0-.74,0-1-.7-.19-.45-.48-2.13-.7-2.89-.08-.27-1-4.25-1.18-4.84s-.25-.91-.38-1.37a1.08,1.08,0,0,1,0-.77c.17-.35.63-.42,1-.44l.82,0a.74.74,0,0,1,.33,0c.12,0,.05.34.15.44A11.89,11.89,0,0,1,24.85,8.33Z" style="fill:none"/></clipPath><clipPath id="clip-path-3"><path d="M21,46.92c-.07,0,.14.36-.35.45a.28.28,0,0,1-.38-.25,1.2,1.2,0,0,1,.58-1,1.82,1.82,0,0,1,1.12-.33,5.54,5.54,0,0,1,3.27,1.29c.32.27,1,.81,1.13.76s.47-.46,1.07-1.24c.36-.48,1-1.06,1.55-1a.72.72,0,0,1,.65.43.58.58,0,0,1-.16.74c-.34.24-.49,0-.62-.07s0,.23,0,.31a.89.89,0,0,0,1.29.12,1.61,1.61,0,0,0,.58-1.06,2.12,2.12,0,0,0-.1-1c-.25-.68-1.08-.81-1.8-.84a2.13,2.13,0,0,0-2,1.12c-.54,1.23-.44,1.38-.58,1.36s-.23-.94-.43-1.28c-1-1.7-3.29-1.56-4.31-1.3a2.87,2.87,0,0,0-2.11,1.85,1.69,1.69,0,0,0,.34,1.94,1.16,1.16,0,0,0,1,.37.7.7,0,0,0,.56-.58C21.36,47.16,21.06,46.87,21,46.92Z" style="fill:none"/></clipPath><clipPath id="clip-path-4"><path d="M15.68,54.13c-.32-.45-1-1.6-1.29-2.05-.62-.87-.87-1.88-1.83-2.36A6.71,6.71,0,0,0,11,49.24a1.46,1.46,0,0,1-1.09-.8,2.18,2.18,0,0,1-.05-2c.12-.35.73-1.09,2.43-1.26a11.8,11.8,0,0,1,2-.06,20.08,20.08,0,0,0,2,.09c.74,0,.74,0,1,.7.19.45.49,2.12.71,2.88.07.28,1,4.26,1.18,4.84s.25.92.38,1.38a1.13,1.13,0,0,1,0,.77c-.17.35-.64.42-1,.44l-.81,0a.92.92,0,0,1-.33,0c-.13,0-.06-.34-.15-.44A12.54,12.54,0,0,1,15.68,54.13Z" style="fill:none"/></clipPath></defs><title>hj</title><g id="Layer_2" data-name="Layer 2"><g id="Layer_1-2" data-name="Layer 1"><g id="hj"><rect x="0.09" y="0.09" width="40.74" height="62.1" rx="3.45" style="fill:#fff"/><path d="M37.39,62.29H3.54A3.55,3.55,0,0,1,0,58.75V3.54A3.55,3.55,0,0,1,3.54,0H37.39a3.55,3.55,0,0,1,3.54,3.54V58.75A3.55,3.55,0,0,1,37.39,62.29ZM3.54.19A3.35,3.35,0,0,0,.19,3.54V58.75A3.36,3.36,0,0,0,3.54,62.1H37.39a3.36,3.36,0,0,0,3.35-3.35V3.54A3.35,3.35,0,0,0,37.39.19Z" style="fill:#2d2d2d"/><path d="M33.43,27.17a11.86,11.86,0,0,1,.8,4.25c.05,1.77-.15,2.49-.1,4.25,0,.43-1.74,2.22-2,2.59-.5.65-.89,1.2-1.48,1.24-3.6.25-6.43,1.08-10,1-3.35-.1-5.53-.87-8.84-.51-.21,0-.13.28-.29.17C9.75,39,7,37.92,6.33,36.07c-1.23-3.26-2.16-3.71-1.4-7,.28-1.19,1.6-3.75,5.4-5.15,1.77-.65,3.55-2.11,5.74-2.33a31.9,31.9,0,0,1,8.62.3c2.35.4,6.21,2.11,7.61,3.55A5.41,5.41,0,0,1,33.43,27.17Z" style="fill:#d6002b"/><path d="M7.1,35.29A12.08,12.08,0,0,1,6.3,31c0-1.77.16-2.49.1-4.25,0-.43,1.75-2.22,2-2.6.49-.64.88-1.19,1.48-1.23,3.6-.25,6.43-1.09,10-1,3.35.1,5.53.87,8.85.51.21,0,.13-.28.29-.17,1.69,1.12,4.41,2.21,5.11,4.07,1.24,3.25,2.17,3.71,1.4,7-.27,1.18-1.6,3.75-5.4,5.14-1.77.66-3.54,2.12-5.73,2.34a32.3,32.3,0,0,1-8.62-.3c-2.35-.41-6.21-2.11-7.61-3.55A5.62,5.62,0,0,1,7.1,35.29Z" style="fill:#d6002b"/><path d="M5.56,27.51c.23-1.8,1.24-3.19,3.23-4.57a6.61,6.61,0,0,1,4.35-1.28c1.84.56,1.65,2.71,3.4,3.52s4.83,1.63,6.57,2.63c4.53,2.62,7.64,4.52,12.75,5.63-1.18,3.15-3.27,6.42-6.62,6.72-1.71.16-3.15-1.09-4.78-1.62C21.8,37.67,5.49,28.08,5.56,27.51Z" style="fill:#0c0a35"/><path d="M19.37.82a.35.35,0,0,1,.36.15,1.23,1.23,0,0,1,.16.85.08.08,0,0,1,0,.08.08.08,0,0,1-.07,0,1.46,1.46,0,0,1-.51,0,1.8,1.8,0,0,1-.13-.62C19.15,1.09,19.2.87,19.37.82Z" style="fill:#0c0a35"/><path d="M12.17,22.13c-.57.46-1.22.81-1.78,1.28a3.31,3.31,0,0,0-.9,1.17A.32.32,0,0,0,9.9,25a1.18,1.18,0,0,1,1,0c.4.24.51.76.74,1.18a2.18,2.18,0,0,0,2.44,1c1-.28,1.76-1.29,2.8-1.32,1.24,0,2.2,1.33,3.44,1.26,1.07-.06,1.83-1.17,2.89-1.3s2.34,1,3.45.58a1.32,1.32,0,0,0,.42-.27c1.38-1.3.95-2,2.78-1.55a.17.17,0,0,0,.12,0c.78-.46-1.9-2.52-3.1-3.56a6,6,0,0,1-2.22-3.72,4.6,4.6,0,0,0-.55-2.44.77.77,0,0,0-.23-.21c-.49-.3-1.09.09-1.56.42A13.18,13.18,0,0,1,16.88,17a12,12,0,0,0-2.52.58.57.57,0,0,0-.33.33c-.08.25.13.32.2.48a.57.57,0,0,1,0,.29A5.85,5.85,0,0,1,12.17,22.13Z" style="fill:#990028"/><path d="M16.88,6.15c-.77.5-1.93,1.16-2.25,2a23.1,23.1,0,0,1-1,2.56,14,14,0,0,1-1.5,2.09c-.28.34-.56.82-.31,1.19s.65.33,1,.26a1.66,1.66,0,0,1,1.1,0c-.08,1-.12,1.92-.21,2.92a3.09,3.09,0,0,0,.08,1.25,2.43,2.43,0,0,0,2.24,1.29,8.06,8.06,0,0,0,5.39-1.94,7.36,7.36,0,0,0,1-1,9.85,9.85,0,0,0,1.26-2.15,5.9,5.9,0,0,0,.43-1.15,4.61,4.61,0,0,0,.06-1.39,9.68,9.68,0,0,0-.75-3.27,5.38,5.38,0,0,0-2.2-2.49,5.63,5.63,0,0,0-1.79-.59A3.18,3.18,0,0,0,16.88,6.15Z" style="fill:#ffd6a1"/><path d="M18.92,1.27a3.67,3.67,0,0,1,1.36.14,4.16,4.16,0,0,1,2.34,1.75A3.84,3.84,0,0,1,23.13,6a17.49,17.49,0,0,0-7.38,0A4.92,4.92,0,0,1,16.36,3,3.51,3.51,0,0,1,18.92,1.27Z" style="fill:#f70032"/><path d="M21.35,10.33l-.23,0A15.13,15.13,0,0,0,17,10.28a2.41,2.41,0,0,0-.42.08c-.07,0,0,.18-.12.14a5,5,0,0,1-.29-2,.15.15,0,0,1,.1-.13,5.07,5.07,0,0,1,1.6-.08,5.29,5.29,0,0,1,1.8.42A3.37,3.37,0,0,1,21.35,10.33Z" style="fill:#0c0a35"/><path d="M16.45,10.46a.06.06,0,0,1,0,0,2.29,2.29,0,0,1,1.49-1,3.41,3.41,0,0,1,3.4.88c-1.28.66-2.18.74-4.26.41C16.88,10.71,16.52,10.65,16.45,10.46Z" style="fill:#fff"/><path d="M19.57,15.54c.07,0-.15-.36.34-.45.22,0,.34,0,.38.25a1.13,1.13,0,0,1-.58,1,1.78,1.78,0,0,1-1.11.34,5.53,5.53,0,0,1-3.27-1.3c-.32-.27-1-.8-1.14-.75s-.47.46-1.06,1.24c-.37.47-1,1.06-1.56,1a.71.71,0,0,1-.64-.44.56.56,0,0,1,.15-.73c.35-.24.49,0,.62.06s0-.23,0-.3a.89.89,0,0,0-1.29-.12,1.57,1.57,0,0,0-.58,1.06,2,2,0,0,0,.1,1c.25.67,1.08.81,1.8.84a2.13,2.13,0,0,0,2-1.12c.54-1.23.44-1.38.58-1.36s.23.93.43,1.28c1,1.7,3.29,1.56,4.31,1.3a2.88,2.88,0,0,0,2.11-1.86,1.69,1.69,0,0,0-.35-1.93,1.14,1.14,0,0,0-1-.37.7.7,0,0,0-.55.58C19.17,15.3,19.48,15.59,19.57,15.54Z" style="fill:#d6002b"/><path d="M24.85,8.33c.33.45,1,1.6,1.29,2.05.63.87.88,1.88,1.84,2.36a7,7,0,0,0,1.58.47,1.47,1.47,0,0,1,1.09.81,2.18,2.18,0,0,1,.05,2c-.13.35-.74,1.09-2.43,1.26a11.85,11.85,0,0,1-2,.06,20.28,20.28,0,0,0-2.06-.09c-.74,0-.74,0-1-.7-.19-.45-.48-2.13-.7-2.89-.08-.27-1-4.25-1.18-4.84s-.25-.91-.38-1.37a1.08,1.08,0,0,1,0-.77c.17-.35.63-.42,1-.44l.82,0a.74.74,0,0,1,.33,0c.12,0,.05.34.15.44A11.89,11.89,0,0,1,24.85,8.33Z" style="fill:#e20c3f"/><path d="M18.66,10.72a.63.63,0,0,0,.75-.7.6.6,0,0,0-.53-.53.64.64,0,0,0-.67.51A.6.6,0,0,0,18.66,10.72Z" style="fill:#0c0a35"/><g style="clip-path:url(#clip-path)"><path d="M14.72,14.21c-.51-.25-.88.27-1.06.69a1.35,1.35,0,0,0-.17.83,3.06,3.06,0,0,1,0,2.17,0,0,0,0,0,.07.05A1.49,1.49,0,0,0,14,16.54a7.15,7.15,0,0,1-.27-1.13,1.06,1.06,0,0,1,1-1.15s0,0,0,0Z" style="fill:#0c0a35"/><path d="M14.56,14.55c.5.95-.14,1.38-.15,2.29a2.34,2.34,0,0,0,.71,1.69s.09,0,.08,0c-.11-.38-.26-.75-.38-1.13-.18-.56.17-1.14.3-1.67a1.08,1.08,0,0,0-.48-1.2c-.05,0-.11,0-.08.06Z" style="fill:#0c0a35"/><path d="M13.17,15.19c-.5.23-.46.86-.4,1.32a1.77,1.77,0,0,1-.22,1.55c-.29.33-.73.26-1.09.45a.11.11,0,0,0,0,.2c.63.27,1.29-.32,1.53-.85a1.85,1.85,0,0,0,.08-1,2.15,2.15,0,0,1,.17-1.52.08.08,0,0,0-.1-.11Z" style="fill:#0c0a35"/><path d="M12.44,15.84a1.2,1.2,0,0,0-.55,1.06A2.45,2.45,0,0,1,11.57,18a3.64,3.64,0,0,1-1,.85c-.05,0,0,.1.05.09a2.07,2.07,0,0,0,1.28-1.13c.31-.59.09-1.38.59-1.88a.06.06,0,0,0-.07-.1Z" style="fill:#0c0a35"/><path d="M11.81,16.09c-.54-.06-.67.75-.84,1.1-.34.67-1.12.78-1.76.92a.08.08,0,0,0,0,.13c.35.38,1.14-.08,1.47-.29a1.62,1.62,0,0,0,.58-.61c.18-.3.22-1,.6-1.13.07,0,.05-.11,0-.12Z" style="fill:#0c0a35"/><path d="M11.25,15.84c-.31.53-.89.6-1.35.93a1.59,1.59,0,0,0-.71,1.07.07.07,0,0,0,.11.05c.19-.2.29-.47.47-.69a2,2,0,0,1,.76-.51c.37-.16.78-.38.79-.82a0,0,0,0,0-.07,0Z" style="fill:#0c0a35"/><path d="M11.85,15.67a1.32,1.32,0,0,0-1.45-.29c-.71.32-1,1-1.61,1.42a.08.08,0,0,0,0,.14,1.06,1.06,0,0,0,.85-.55,1.74,1.74,0,0,1,2.15-.69s0,0,0,0Z" style="fill:#0c0a35"/><path d="M15.35,15c.15.09.23.64.28.81a2.8,2.8,0,0,1-.1,1.62A1.24,1.24,0,0,0,16,18.61c.06.06.14,0,.13-.08-.1-.47-.34-.73-.19-1.25A2.48,2.48,0,0,0,16,16.2c-.06-.38-.15-1.24-.63-1.36-.08,0-.13.1-.06.15Z" style="fill:#0c0a35"/><path d="M16.46,15.72c.55.58.1,1.59.28,2.3a1.66,1.66,0,0,0,1.13,1.19c.07,0,.13-.05.09-.12a6,6,0,0,0-.65-.78A2,2,0,0,1,17,17.1a1.5,1.5,0,0,0-.55-1.41s0,0,0,0Z" style="fill:#0c0a35"/><path d="M17.46,16c.31.65,0,1.36.32,2a2,2,0,0,0,1,1.07A.05.05,0,0,0,18.9,19c-.2-.55-.78-.85-1-1.45s0-1.09-.41-1.62c0,0-.09,0-.07.05Z" style="fill:#0c0a35"/><path d="M18.21,16c.57,0,.45,1.17.57,1.58s.54,1.14,1.12,1.2a.07.07,0,0,0,.06-.12c-.22-.34-.58-.55-.8-.9a2.35,2.35,0,0,1-.29-.93c-.07-.36-.22-.9-.66-.91a0,0,0,0,0,0,.08Z" style="fill:#0c0a35"/><path d="M19.19,15.9c.39.17.5,1,.7,1.34s.61.9,1.14.89c.08,0,.1-.08.06-.14s-.42-.38-.61-.59a3.05,3.05,0,0,1-.5-.78c-.15-.31-.37-.79-.77-.8,0,0-.06.07,0,.08Z" style="fill:#0c0a35"/><path d="M19.68,14.07a1.4,1.4,0,0,0,.26,1.54,10.72,10.72,0,0,0,.83.82c.4.44.34.94.49,1.46a.09.09,0,0,0,.16,0,1.52,1.52,0,0,0-.26-1.52c-.56-.84-1.53-1.13-1.46-2.32Z" style="fill:#0c0a35"/><path d="M20.26,13.89a1.59,1.59,0,0,0,.54,1.34c.32.33.69.47.87.92.11.26.12.48.33.67a.09.09,0,0,0,.15-.06,2.06,2.06,0,0,0-.46-1.21c-.48-.58-1.21-.83-1.37-1.67,0,0-.05,0-.06,0Z" style="fill:#0c0a35"/></g><g style="clip-path:url(#clip-path-2)"><path d="M21.19,6.68c1.06.81.53,1.45.53,2.37a.88.88,0,0,0,.33.64c1.52.82.3,2.15.57,3.37a3.91,3.91,0,0,0,.73,1.07,2.82,2.82,0,0,1,.18,2.63,1.78,1.78,0,0,0,.82,1.85.1.1,0,0,0,.15-.11c-.25-.69-.65-1.12-.47-1.93a3,3,0,0,0,.24-1.3,3.86,3.86,0,0,0-.75-1.6c-.42-.58-.69-.63-.53-1.57.06-.33.22-.64.25-1,.1-1.25-1.36-1.76-1.1-2.93a1.22,1.22,0,0,0-.92-1.6c-.06,0-.06.06,0,.08Z" style="fill:#0c0a35"/><path d="M22.46,6.6c.44.08-.12,1.81.33,2.25.59.59,1.32,1.06,1,2.09a2.76,2.76,0,0,0-.22,1.38c.36,1.4,1.68,1.84,1.25,3.55-.21.81-.55,1.73.23,2.33.06.05.13-.05.1-.11-.68-1.26.47-2.55,0-3.9a3.37,3.37,0,0,0-.65-.94c-.72-.83-.56-1.56-.29-2.55.23-.84-.23-1.31-.87-1.74-1.05-.73.09-2-.69-2.53a.11.11,0,0,0-.11,0l-.1.06s0,.1,0,.11Z" style="fill:#0c0a35"/><path d="M23.61,6.38c-.59.47-.09,1.32.24,1.81s.83.74,1,1.38-.3,1.45-.21,2.22c.17,1.47,2.06,1.8,1.48,3.57-.42,1.28-1.09,2.11-.36,3.44a.07.07,0,0,0,.12,0,3.73,3.73,0,0,1,.25-2.37,4.71,4.71,0,0,0,.59-1.52,2.64,2.64,0,0,0-.91-2,1.92,1.92,0,0,1-.52-2.1,2.49,2.49,0,0,0,0-1.3c-.21-1.08-2.16-1.67-1.58-3a.08.08,0,0,0-.12-.09Z" style="fill:#0c0a35"/><path d="M26.37,9.66c-1,1.29-.18,2.72.8,3.67,1.31,1.27.12,2.44-.4,3.7a1.45,1.45,0,0,0,.35,1.79.1.1,0,0,0,.15-.11c-.73-1.8,1.28-2.88.83-4.71a3,3,0,0,0-1-1.31,2.7,2.7,0,0,1-.55-2.94c0-.08-.08-.16-.14-.09Z" style="fill:#0c0a35"/><path d="M27.46,11.91a1.87,1.87,0,0,0,.63,1.16c.78.8,1.18,1.55.56,2.6-.42.71-1.15,1.52-.55,2.35a.09.09,0,0,0,.16-.05,3.13,3.13,0,0,1,.63-1.88,2.42,2.42,0,0,0,.51-1.17c0-1.51-1.15-1.87-1.84-3,0-.05-.11,0-.1,0Z" style="fill:#0c0a35"/><path d="M29.2,12.46c.57.79,1.07,1.39.82,2.43-.17.69-.67,1.22-.8,1.94A1.38,1.38,0,0,0,30,18.5c.08,0,.15-.09.08-.14-1.22-1.1.14-2.5.38-3.68a2.4,2.4,0,0,0-1.14-2.29s-.13,0-.09.07Z" style="fill:#0c0a35"/></g><path d="M23.78,7.52a.36.36,0,0,0,.23,0,.41.41,0,0,0,.14-.15c.38-.58.58-1.12.92-1.7a.17.17,0,0,0-.1-.25,24.55,24.55,0,0,0-10.58-.09.29.29,0,0,0-.18.1c-.08.11,0,.26.07.37.28.4.57.8.84,1.2a.67.67,0,0,0,.26.24C15.5,7.28,22.14,7.19,23.78,7.52Z" style="fill:#990028"/><path d="M15.69,6.6a.51.51,0,1,0,0-1,.51.51,0,1,0,0,1Z" style="fill:#0c0a35"/><path d="M17.32,6.48a.62.62,0,0,0,.78-.11.61.61,0,0,0,.15-.55.6.6,0,0,0-.4-.39.64.64,0,0,0-.64.17.57.57,0,0,0,.11.88Z" style="fill:#0c0a35"/><path d="M20.2,6.34v0A.6.6,0,1,0,19.09,6V6a.62.62,0,0,0,.44.58.6.6,0,0,0,.67-.28Z" style="fill:#0c0a35"/><path d="M21.75,6.65a.54.54,0,0,0,0-1.08.54.54,0,1,0,0,1.08Z" style="fill:#0c0a35"/><path d="M23.67,6.78a.43.43,0,0,0,.42-.43.42.42,0,0,0-.42-.42.43.43,0,0,0-.43.42.44.44,0,0,0,.43.43Z" style="fill:#0c0a35"/><path d="M17.24,3.11c0,.13-.09.26,0,.39a.1.1,0,0,0,.18,0,.58.58,0,0,0,0-.43c0-.08-.14-.06-.15,0Z" style="fill:#0c0a35"/><path d="M18.75,3.88a.4.4,0,0,0-.05.26c0,.16.25.15.24,0a.5.5,0,0,0-.08-.26.07.07,0,0,0-.11,0Z" style="fill:#0c0a35"/><path d="M18.43,1.8a1.07,1.07,0,0,0-.07.5.12.12,0,0,0,.23,0,1,1,0,0,0-.07-.5,0,0,0,0,0-.09,0Z" style="fill:#0c0a35"/><path d="M19.83,2.66c0,.13-.07.34.05.43s.06,0,.08,0,0-.28,0-.4a.06.06,0,0,0-.11,0Z" style="fill:#0c0a35"/><path d="M20.71,1.84a.56.56,0,0,0,0,.36.14.14,0,0,0,.28,0,.37.37,0,0,0,0-.15c0-.06-.07-.1-.09-.16a.07.07,0,0,0-.12,0Z" style="fill:#0c0a35"/><path d="M21,4.11a1,1,0,0,0,0,.29c0,.15.23.15.22,0a1.5,1.5,0,0,0-.06-.29c0-.06-.11-.06-.13,0Z" style="fill:#0c0a35"/><path d="M21.85,3.06l0,.06a.68.68,0,0,0,0,.14.32.32,0,0,0,.07.25.13.13,0,0,0,.2,0,.36.36,0,0,0,0-.27.35.35,0,0,0-.14-.2.05.05,0,0,0-.09,0Z" style="fill:#0c0a35"/><path d="M22.62,4.31c0,.13,0,.3.05.42s.25,0,.21-.09a.61.61,0,0,0-.09-.18l-.09-.17a0,0,0,0,0-.08,0Z" style="fill:#0c0a35"/><path d="M16.39,4.3c0,.14-.11.37,0,.49a.06.06,0,0,0,.08,0c.12-.12,0-.35,0-.49s-.1-.06-.11,0Z" style="fill:#0c0a35"/><path d="M15.71,6.24a.16.16,0,0,0,0-.32.16.16,0,0,0,0,.32Z" style="fill:#f70032"/><path d="M17.67,6.09a.14.14,0,0,0,0-.28.14.14,0,0,0,0,.28Z" style="fill:#f70032"/><path d="M19.71,6.25a.2.2,0,0,0,0-.4.2.2,0,0,0,0,.4Z" style="fill:#f70032"/><path d="M21.77,6.3a.19.19,0,0,0,0-.37.19.19,0,0,0,0,.37Z" style="fill:#f70032"/><path d="M23.65,6.54a.19.19,0,0,0,0-.37.19.19,0,0,0,0,.37Z" style="fill:#f70032"/><path d="M15.38,21c-.53,1.25-.87,2.81-1.85,3.82-.57.59.34,1.49.9.9A6.29,6.29,0,0,0,15.69,21a.17.17,0,0,0-.31,0Z" style="fill:#f70032"/><path d="M19.76,21a8.09,8.09,0,0,0,.31,5c.34.71,1.36.09,1.05-.61a15.08,15.08,0,0,1-1-4.3c0-.21-.33-.29-.39,0Z" style="fill:#f70032"/><path d="M23.26,20.27A5,5,0,0,0,24,23c.33.64,1.07,2,1.93,1.95a.48.48,0,0,0,.47-.47c.06-.69-.83-1.35-1.21-1.86a19.07,19.07,0,0,1-1.44-2.48.25.25,0,0,0-.45.12Z" style="fill:#f70032"/><path d="M13.7,14.19a5.25,5.25,0,0,0,1.43-.1.77.77,0,0,0,.57-.79.74.74,0,0,0-.64-.6c-.23,0-.78.17-.56.49a.1.1,0,0,0,.1,0c.19,0,.24-.23.48-.2a.39.39,0,0,1,.21.69c-.38.42-1.14.13-1.6.42a0,0,0,0,0,0,0Z" style="fill:#0c0a35"/><path d="M17.42,20.65a11.29,11.29,0,0,0-.5,2.2,7.7,7.7,0,0,0-.2,2.13c.07.55,1,.81,1.07.15a28.37,28.37,0,0,0,.07-4.42.23.23,0,0,0-.44-.06Z" style="fill:#0c0a35"/><path d="M14.25,20.64c-.49,1.26-1.84,2.19-2.8,3.08-.53.49.25,1.24.78.78.92-.79,2.89-2.44,2.36-3.86a.18.18,0,0,0-.34,0Z" style="fill:#0c0a35"/><path d="M21.18,20.21a7.41,7.41,0,0,0,.34,3.23c.2.73.54,2,1.3,2.27s.95-.62.6-1A8.72,8.72,0,0,1,22.6,23a14.58,14.58,0,0,1-1-2.78.23.23,0,0,0-.44,0Z" style="fill:#0c0a35"/><path d="M25,20.5a2.6,2.6,0,0,0,1.09,2.14c.53.52,1,1.3,1.78,1.37s.79-1.24,0-1.22c-.29,0-.75-.58-1-.75-.45-.35-1.41-.91-1.48-1.54a.21.21,0,0,0-.41,0Z" style="fill:#0c0a35"/><path d="M20,22.62a.25.25,0,0,0,0-.49.25.25,0,0,0,0,.49Z" style="fill:#0c0a35"/><path d="M20,23.73a.28.28,0,0,0,0-.55.28.28,0,0,0,0,.55Z" style="fill:#0c0a35"/><path d="M20.36,24.66h0a.3.3,0,0,0,0-.41h0a.29.29,0,1,0,0,.42Z" style="fill:#0c0a35"/><path d="M20.35,25.28h0a.19.19,0,0,0,0,.28h0a.22.22,0,0,0,.37-.15.22.22,0,0,0-.37-.15Z" style="fill:#0c0a35"/><path d="M23.69,21.29a.23.23,0,0,0,0-.46.23.23,0,0,0,0,.46Z" style="fill:#0c0a35"/><path d="M24,22.19a.27.27,0,0,0,0-.54.27.27,0,0,0,0,.54Z" style="fill:#0c0a35"/><path d="M24.54,23.17a.35.35,0,0,0,.35-.34.35.35,0,0,0-.7,0,.35.35,0,0,0,.35.34Z" style="fill:#0c0a35"/><path d="M25.19,24a.32.32,0,0,0,.32-.32.32.32,0,0,0-.32-.32.32.32,0,0,0-.32.32.33.33,0,0,0,.32.32Z" style="fill:#0c0a35"/><path d="M25.75,24.47a.24.24,0,0,0,0-.47.24.24,0,0,0,0,.47Z" style="fill:#0c0a35"/><path d="M15.37,22.28a.23.23,0,0,0,0-.46.23.23,0,0,0,0,.46Z" style="fill:#0c0a35"/><path d="M15.18,23.26a.28.28,0,0,0,0-.56.28.28,0,0,0,0,.56Z" style="fill:#0c0a35"/><path d="M14.84,24.19a.3.3,0,0,0,0-.6.3.3,0,0,0,0,.6Z" style="fill:#0c0a35"/><path d="M14.42,24.94a.25.25,0,0,0,0-.5.25.25,0,0,0,0,.5Z" style="fill:#0c0a35"/><path d="M13.92,25.59a.19.19,0,0,0,0-.37.19.19,0,0,0,0,.37Z" style="fill:#0c0a35"/><path d="M26.91,33.75a1.81,1.81,0,0,0,.33.29c.08.05.22.18.32.09s-.11-.19-.16-.22a1.46,1.46,0,0,1-.38-.27.08.08,0,0,0-.11.11Z" style="fill:#222272"/><path d="M29.46,35.63a1.75,1.75,0,0,0,.33.28c.08.06.22.18.32.09s-.11-.18-.16-.21a1.46,1.46,0,0,1-.38-.27c-.07-.08-.18,0-.11.11Z" style="fill:#222272"/><path d="M18.5,33.73a1.75,1.75,0,0,0,.33.28c.08.06.22.18.32.09s-.11-.18-.16-.21a1.46,1.46,0,0,1-.38-.27c-.07-.07-.17,0-.11.11Z" style="fill:#222272"/><path d="M33.54,34a1.47,1.47,0,0,0,.32.29c.08.06.23.18.32.09s-.1-.19-.16-.21a1.72,1.72,0,0,1-.37-.28.08.08,0,0,0-.11.11Z" style="fill:#222272"/><path d="M24.24,33.79a1.2,1.2,0,0,0-.08.62c0,.15.25.11.25,0a1.48,1.48,0,0,0-.12-.59s0,0-.05,0Z" style="fill:#222272"/><path d="M16,31.65a1.2,1.2,0,0,0-.08.62c0,.15.25.11.25,0a1.48,1.48,0,0,0-.12-.59s0,0-.05,0Z" style="fill:#222272"/><path d="M8,27.19a1.2,1.2,0,0,0-.07.62c0,.15.25.11.25,0A1.48,1.48,0,0,0,8,27.19a0,0,0,0,0-.06,0Z" style="fill:#222272"/><path d="M22.14,34.31a1.24,1.24,0,0,0-.08.63c0,.14.25.11.25,0a1.71,1.71,0,0,0-.11-.59s-.05,0-.06,0Z" style="fill:#222272"/><path d="M23.6,29a2,2,0,0,1,.34,0c.09,0,.23,0,.27-.11a0,0,0,0,0,0,0c-.08-.07-.23,0-.32,0a.5.5,0,0,0-.33.12s0,.11.05.09Z" style="fill:#222272"/><path d="M11.08,28.68a1.75,1.75,0,0,1,.33,0c.1,0,.23,0,.27-.11a0,0,0,0,0,0-.05c-.08-.07-.22,0-.32,0a.47.47,0,0,0-.32.12s0,.11.05.09Z" style="fill:#222272"/><path d="M16.83,27.43a1,1,0,0,1,.34,0c.09,0,.23,0,.27-.11a0,0,0,0,0,0-.05c-.08-.07-.23,0-.32,0a.57.57,0,0,0-.33.13s0,.11,0,.09Z" style="fill:#222272"/><path d="M24.25,30.47a1.46,1.46,0,0,1,.31.14c.09,0,.21.12.29.05s0,0,0-.06-.18-.13-.27-.17a.51.51,0,0,0-.34-.06c-.05,0-.06.09,0,.1Z" style="fill:#222272"/><path d="M32,37.05a1.46,1.46,0,0,1,.31.14c.08,0,.2.12.29.05s0,0,0-.06-.18-.13-.27-.17A.51.51,0,0,0,32,37c-.05,0-.06.09,0,.1Z" style="fill:#222272"/><path d="M9.1,23.51a1.28,1.28,0,0,1,.33-.06c.1,0,.24,0,.27-.12s0,0,0-.06-.22,0-.31,0a.47.47,0,0,0-.32.14.05.05,0,0,0,0,.09Z" style="fill:#222272"/><path d="M31.76,35.43a1.46,1.46,0,0,1,.31.14c.09,0,.2.11.29,0a.07.07,0,0,0,0-.06c0-.1-.18-.13-.27-.17a.47.47,0,0,0-.35-.06s-.05.09,0,.1Z" style="fill:#222272"/><path d="M30,34.2a1.46,1.46,0,0,1,.31.14c.09,0,.2.12.29,0a.07.07,0,0,0,0-.06c0-.1-.18-.13-.27-.17A.53.53,0,0,0,30,34.1s-.05.09,0,.1Z" style="fill:#222272"/><path d="M24.94,32.6a.23.23,0,0,0,.27.09,1.42,1.42,0,0,0,.22-.07.63.63,0,0,0,.23-.08.1.1,0,0,0,0-.18.49.49,0,0,0-.37,0,2.11,2.11,0,0,0-.34.16s0,0,0,0Z" style="fill:#222272"/><path d="M10.14,27a.23.23,0,0,0,.27.09l.21-.07a1,1,0,0,0,.24-.08.11.11,0,0,0,0-.18.48.48,0,0,0-.37.05,3.49,3.49,0,0,0-.34.15,0,0,0,0,0,0,0Z" style="fill:#222272"/><path d="M14.52,28.78c.05.1.17.1.27.08A1.66,1.66,0,0,0,15,28.8a1.69,1.69,0,0,0,.24-.08s.07-.15,0-.18a.44.44,0,0,0-.37.05,3.49,3.49,0,0,0-.34.15s0,0,0,0Z" style="fill:#222272"/><path d="M21.11,28.3a.23.23,0,0,0,.27.09.81.81,0,0,0,.22-.07.63.63,0,0,0,.23-.08.1.1,0,0,0,0-.18.48.48,0,0,0-.37.05l-.34.16s0,0,0,0Z" style="fill:#222272"/><path d="M7.92,25.63c0,.1.17.1.27.08l.22-.06a2.09,2.09,0,0,0,.23-.08s.07-.15,0-.18a.44.44,0,0,0-.37.05,3.49,3.49,0,0,0-.34.15s0,0,0,0Z" style="fill:#222272"/><path d="M25.69,24.59l.23.2c.06.05.12.13.21.11a.07.07,0,0,0,.06-.07c0-.1-.09-.14-.16-.19l-.24-.18a.08.08,0,0,0-.1.13Z" style="fill:#0c0a35"/><path d="M28.4,25.42a1.59,1.59,0,0,1,.15-.29.27.27,0,0,0,0-.27s-.05-.05-.08,0-.12.12-.15.22a2,2,0,0,0-.09.33.07.07,0,0,0,.13,0Z" style="fill:#0c0a35"/><path d="M27.6,27.2l.36-.11a1.09,1.09,0,0,0,.33-.15.14.14,0,0,0-.06-.25c-.29,0-.48.25-.7.37s0,.17.07.14Z" style="fill:#0c0a35"/><path d="M35.17,28.73c.06-.13.11-.26.16-.39A.46.46,0,0,0,35.4,28s-.06-.05-.1,0-.17.16-.21.27-.08.27-.13.41.16.23.21.09Z" style="fill:#0c0a35"/><path d="M26.92,23.53a7.76,7.76,0,0,0-2.07,2.82,4.13,4.13,0,0,0,.1,2.12,7.23,7.23,0,0,0,.94,2.28,6,6,0,0,0,2.22,1.93,7.55,7.55,0,0,0,3.62.62,4.61,4.61,0,0,0,3.36-2.65,6.76,6.76,0,0,0,.6-4.61l-.17-.47a6.29,6.29,0,0,0-3.7-3.5C30.68,21.68,29,21.23,26.92,23.53Z" style="fill:#f70032"/><path d="M24.66,26.58a3.12,3.12,0,0,0,.47,1.94,15.75,15.75,0,0,0,3.46,3,.75.75,0,0,0,.31.15.26.26,0,0,0,.27-.14.09.09,0,0,0,0-.05.94.94,0,0,0-.2-.66c-.91-1.24-1.28-1.26-2.46-2.92-.34-.47.38-.74.62-.51.81.78,1.23,1.22,2,2a4.89,4.89,0,0,0,1.43,1c.18.08.45-.26.38-.45a3.84,3.84,0,0,0-1.25-1.61,8.52,8.52,0,0,1-1.83-1.63.59.59,0,0,1,.24-.82,23.93,23.93,0,0,0,3.58,2.34c.29.12.93-.43-.16-1.29a33.36,33.36,0,0,1-2.8-2.1c-.26-.25.17-.76.52-.66a16.75,16.75,0,0,0,3.07,1.81c.23.09.76.17.81-.06.11-.48-.62-1.1-1.21-1.49s-1.64-1.14-2.32-1.48a3.07,3.07,0,0,0-3,.38,3.76,3.76,0,0,0-1.42,1.46A3.65,3.65,0,0,0,24.66,26.58Z" style="fill:#b70027"/><path d="M34.29,26.87a.44.44,0,0,0-.69-.54.44.44,0,1,0,.69.54Z" style="fill:#0c0a35"/><path d="M34.39,27.54h0a.33.33,0,0,0,.41,0,.34.34,0,0,0,.07-.47v0A.35.35,0,0,0,34.4,27a.37.37,0,0,0-.14.22.39.39,0,0,0,.13.32Z" style="fill:#0c0a35"/><path d="M35.33,28.12a.19.19,0,0,0-.3-.24c-.16.19.15.43.3.24Z" style="fill:#0c0a35"/><path d="M33.11,28.82a.42.42,0,1,0-.59.07.43.43,0,0,0,.59-.07Z" style="fill:#0c0a35"/><path d="M33.89,29.4a.34.34,0,0,0-.53-.42.34.34,0,0,0,.53.42Z" style="fill:#0c0a35"/><path d="M34.5,29.69a.15.15,0,1,0-.24-.19c-.12.15.12.34.24.19Z" style="fill:#0c0a35"/><path d="M31.52,30.19h0a.42.42,0,0,0-.26.33.43.43,0,0,0,.15.38.41.41,0,0,0,.4.06.44.44,0,0,0,.26-.33v0a.41.41,0,0,0-.54-.43Z" style="fill:#0c0a35"/><path d="M32.7,31.15a.29.29,0,0,0,0-.39.28.28,0,0,0-.39,0,.27.27,0,0,0,0,.38.26.26,0,0,0,.38,0Z" style="fill:#0c0a35"/><path d="M30.3,32.33a.36.36,0,1,0-.5.06.36.36,0,0,0,.5-.06Z" style="fill:#0c0a35"/><path d="M31.1,32.53a.24.24,0,0,0-.37-.29.24.24,0,0,0,.37.29Z" style="fill:#0c0a35"/><path d="M31.91,32.6c.15-.19-.15-.43-.29-.24a.19.19,0,0,0,.29.24Z" style="fill:#0c0a35"/><path d="M27.11,25.93a1,1,0,0,0,.56-.5,1.15,1.15,0,0,0-.05-.89A1.35,1.35,0,0,0,26,23.75a1.77,1.77,0,0,0-1.09,1.64,1.22,1.22,0,0,0,1.36,1.33c1.19-.06,2.1-2.24.86-2.85a1.23,1.23,0,0,0-1.69,1,1.31,1.31,0,0,0,.15,1,.69.69,0,0,0,1,.26A1.55,1.55,0,0,0,27,25.06c.05-.72-1.05-.88-1.11-.16a.28.28,0,0,1,0,.09l.12-.27a.62.62,0,0,0-.12.41c0,.66,1,.62,1.11,0a.28.28,0,0,0,0-.09l-1.11-.16c0,.12,0,.25-.05.37,0-.09,0,.07,0,.07.11-.27.77.19.65-.13a.91.91,0,0,1,.1-.29s.08-.07,0-.05.1,0,0,0-.07-.11-.05,0a.92.92,0,0,1,0,.25,1.2,1.2,0,0,1-.16.32c-.07.09-.05.07-.1.11l-.1.07s0,0,0,0c.1,0,0,0-.06,0s0,0-.09,0,0-.07,0-.12a.75.75,0,0,1,.32-.66.19.19,0,0,1,.18,0,.73.73,0,0,1,.27.2.49.49,0,0,1,.09.57c-.16.16.06.45.25.35Z" style="fill:#0c0a35"/><path d="M26.5,25.38A.31.31,0,0,0,26,25a.31.31,0,0,0,.48.38Z" style="fill:#990028"/><path d="M27.29,25.19a.21.21,0,0,0-.33-.25.21.21,0,0,0,.33.25Z" style="fill:#990028"/><path d="M26.85,24.54a.19.19,0,0,0-.29-.23.19.19,0,0,0,.29.23Z" style="fill:#990028"/><path d="M25.68,24.29h0a.16.16,0,0,0,0,.28h0c.12.07.26-.06.25-.18s-.18-.22-.28-.12Z" style="fill:#990028"/><path d="M25.48,25.38a.17.17,0,0,0-.27-.21.17.17,0,0,0,.27.21Z" style="fill:#990028"/><path d="M25.8,26.13c.14-.16-.13-.37-.26-.2a.16.16,0,0,0,.26.2Z" style="fill:#990028"/><path d="M26.71,26.16a.17.17,0,0,0-.27-.21c-.13.17.14.38.27.21Z" style="fill:#990028"/><path d="M21.43,61.67a.36.36,0,0,1-.36-.15,1.27,1.27,0,0,1-.16-.84.12.12,0,0,1,0-.09.1.1,0,0,1,.07,0,1.75,1.75,0,0,1,.51,0,1.64,1.64,0,0,1,.13.62C21.66,61.4,21.61,61.62,21.43,61.67Z" style="fill:#0c0a35"/><path d="M28.37,40.33c.57-.46,1.22-.81,1.78-1.28A3.18,3.18,0,0,0,31,37.88a.32.32,0,0,0-.4-.42,1.21,1.21,0,0,1-1.05,0c-.4-.24-.51-.77-.73-1.18a2.17,2.17,0,0,0-2.44-1c-1,.28-1.76,1.28-2.8,1.32-1.24,0-2.2-1.33-3.44-1.26-1.07.06-1.83,1.17-2.89,1.29s-2.34-1-3.46-.58a1.25,1.25,0,0,0-.41.28c-1.38,1.29-.95,2-2.79,1.55a.14.14,0,0,0-.11,0c-.78.47,1.89,2.53,3.1,3.57a6.1,6.1,0,0,1,2.22,3.72,4.72,4.72,0,0,0,.54,2.44.81.81,0,0,0,.24.21c.48.3,1.08-.1,1.55-.43a13.35,13.35,0,0,1,5.49-1.88,12.12,12.12,0,0,0,2.52-.58.57.57,0,0,0,.33-.33c.08-.25-.13-.32-.2-.48a.48.48,0,0,1,0-.29A5.85,5.85,0,0,1,28.37,40.33Z" style="fill:#990028"/><path d="M23.66,56.31c.77-.5,1.93-1.16,2.25-2a20.79,20.79,0,0,1,.95-2.57,12.61,12.61,0,0,1,1.5-2.08c.28-.34.55-.83.31-1.2a1,1,0,0,0-1-.25,1.8,1.8,0,0,1-1.1,0c.08-1,.12-1.92.2-2.93A2.88,2.88,0,0,0,26.68,44a2.41,2.41,0,0,0-2.24-1.29A8.1,8.1,0,0,0,19,44.67a7.88,7.88,0,0,0-1,1,10.3,10.3,0,0,0-1.25,2.16,5.84,5.84,0,0,0-.44,1.14,4.69,4.69,0,0,0-.05,1.4A9.45,9.45,0,0,0,17,53.61a5.34,5.34,0,0,0,2.19,2.48,5.44,5.44,0,0,0,1.8.59A3.15,3.15,0,0,0,23.66,56.31Z" style="fill:#ffd6a1"/><path d="M21.62,61.18A3.52,3.52,0,0,1,20.25,61a4.16,4.16,0,0,1-2.33-1.74,3.84,3.84,0,0,1-.51-2.86,17.44,17.44,0,0,0,7.37,0,4.91,4.91,0,0,1-.6,3.08A3.51,3.51,0,0,1,21.62,61.18Z" style="fill:#f70032"/><path d="M19.19,52.13a.86.86,0,0,1,.23,0,15.13,15.13,0,0,0,4.08.07,2.13,2.13,0,0,0,.41-.08c.08,0,.05-.18.13-.15a4.89,4.89,0,0,1,.28,2,.13.13,0,0,1-.09.13,5.07,5.07,0,0,1-1.6.08,5.35,5.35,0,0,1-1.81-.42A3.36,3.36,0,0,1,19.19,52.13Z" style="fill:#0c0a35"/><path d="M24.08,52s0,0,0,0a2.32,2.32,0,0,1-1.49,1,3.4,3.4,0,0,1-3.4-.88c1.28-.67,2.17-.74,4.25-.41C23.65,51.75,24,51.8,24.08,52Z" style="fill:#fff"/><path d="M21,46.92c-.07,0,.14.36-.35.45a.28.28,0,0,1-.38-.25,1.2,1.2,0,0,1,.58-1,1.82,1.82,0,0,1,1.12-.33,5.54,5.54,0,0,1,3.27,1.29c.32.27,1,.81,1.13.76s.47-.46,1.07-1.24c.36-.48,1-1.06,1.55-1a.72.72,0,0,1,.65.43.58.58,0,0,1-.16.74c-.34.24-.49,0-.62-.07s0,.23,0,.31a.89.89,0,0,0,1.29.12,1.61,1.61,0,0,0,.58-1.06,2.12,2.12,0,0,0-.1-1c-.25-.68-1.08-.81-1.8-.84a2.13,2.13,0,0,0-2,1.12c-.54,1.23-.44,1.38-.58,1.36s-.23-.94-.43-1.28c-1-1.7-3.29-1.56-4.31-1.3a2.87,2.87,0,0,0-2.11,1.85,1.69,1.69,0,0,0,.34,1.94,1.16,1.16,0,0,0,1,.37.7.7,0,0,0,.56-.58C21.36,47.16,21.06,46.87,21,46.92Z" style="fill:#d6002b"/><path d="M15.68,54.13c-.32-.45-1-1.6-1.29-2.05-.62-.87-.87-1.88-1.83-2.36A6.71,6.71,0,0,0,11,49.24a1.46,1.46,0,0,1-1.09-.8,2.18,2.18,0,0,1-.05-2c.12-.35.73-1.09,2.43-1.26a11.8,11.8,0,0,1,2-.06,20.08,20.08,0,0,0,2,.09c.74,0,.74,0,1,.7.19.45.49,2.12.71,2.88.07.28,1,4.26,1.18,4.84s.25.92.38,1.38a1.13,1.13,0,0,1,0,.77c-.17.35-.64.42-1,.44l-.81,0a.92.92,0,0,1-.33,0c-.13,0-.06-.34-.15-.44A12.54,12.54,0,0,1,15.68,54.13Z" style="fill:#e20c3f"/><path d="M21.88,51.74c-.74-.05-.76.51-.75.7a.59.59,0,0,0,.52.53.66.66,0,0,0,.68-.52C22.38,52.15,22.19,51.76,21.88,51.74Z" style="fill:#0c0a35"/><g style="clip-path:url(#clip-path-3)"><path d="M25.82,48.25c.51.24.88-.28,1.06-.7a1.45,1.45,0,0,0,.17-.82,3.12,3.12,0,0,1,0-2.17s0-.09-.06-.05a1.49,1.49,0,0,0-.45,1.41A7,7,0,0,1,26.78,47a1.07,1.07,0,0,1-1,1.16,0,0,0,0,0,0,0Z" style="fill:#0c0a35"/><path d="M26,47.91c-.5-1,.14-1.38.15-2.29a2.32,2.32,0,0,0-.72-1.7,0,0,0,0,0-.07,0c.11.38.26.75.38,1.12.18.57-.17,1.15-.31,1.68A1.1,1.1,0,0,0,25.9,48a.05.05,0,0,0,.08-.06Z" style="fill:#0c0a35"/><path d="M27.37,47.26c.5-.22.46-.85.4-1.32A1.74,1.74,0,0,1,28,44.4c.29-.33.73-.27,1.08-.45.1-.05.06-.17,0-.21-.63-.26-1.29.32-1.54.86a1.93,1.93,0,0,0-.08,1,2.11,2.11,0,0,1-.17,1.52.08.08,0,0,0,.11.1Z" style="fill:#0c0a35"/><path d="M28.1,46.62a1.2,1.2,0,0,0,.54-1.06A2.56,2.56,0,0,1,29,44.45a3.48,3.48,0,0,1,1-.85c.05,0,0-.1-.05-.09a2.06,2.06,0,0,0-1.28,1.12c-.32.6-.09,1.39-.6,1.89-.05,0,0,.13.08.1Z" style="fill:#0c0a35"/><path d="M28.73,46.36c.54.07.67-.74.84-1.09.34-.67,1.11-.79,1.76-.92a.08.08,0,0,0,0-.13c-.35-.38-1.14.08-1.48.29a1.79,1.79,0,0,0-.58.61c-.17.3-.21,1-.59,1.12a.06.06,0,0,0,0,.12Z" style="fill:#0c0a35"/><path d="M29.29,46.61c.31-.53.88-.59,1.35-.93a1.62,1.62,0,0,0,.71-1.06.07.07,0,0,0-.11,0c-.2.2-.29.47-.48.69a2,2,0,0,1-.76.51c-.36.15-.78.38-.79.82a0,0,0,0,0,.08,0Z" style="fill:#0c0a35"/><path d="M28.69,46.79a1.29,1.29,0,0,0,1.44.28c.72-.31,1-1,1.61-1.42a.07.07,0,0,0,0-.13,1.06,1.06,0,0,0-.84.55,1.75,1.75,0,0,1-2.15.69s0,0,0,0Z" style="fill:#0c0a35"/><path d="M25.18,47.47c-.15-.09-.22-.65-.28-.81A2.8,2.8,0,0,1,25,45a1.24,1.24,0,0,0-.44-1.19.08.08,0,0,0-.13.07c.09.47.33.74.19,1.26a2.45,2.45,0,0,0-.13,1.07c.05.39.14,1.25.62,1.37a.08.08,0,0,0,.06-.15Z" style="fill:#0c0a35"/><path d="M24.08,46.74c-.55-.58-.1-1.59-.28-2.3a1.64,1.64,0,0,0-1.14-1.19.08.08,0,0,0-.09.11,8.27,8.27,0,0,0,.65.79,2,2,0,0,1,.29,1.21,1.53,1.53,0,0,0,.54,1.41s0,0,0,0Z" style="fill:#0c0a35"/><path d="M23.07,46.47c-.3-.65,0-1.36-.31-2a2.05,2.05,0,0,0-1.05-1.08.06.06,0,0,0-.07.08c.2.55.77.85,1,1.44s0,1.1.4,1.63a0,0,0,0,0,.07-.05Z" style="fill:#0c0a35"/><path d="M22.32,46.45c-.56,0-.44-1.18-.56-1.58s-.55-1.14-1.12-1.2c-.06,0-.1.07-.07.12.23.34.58.55.81.9a2.35,2.35,0,0,1,.29.93c.06.35.21.9.65.9.05,0,.05-.07,0-.07Z" style="fill:#0c0a35"/><path d="M21.35,46.56c-.39-.18-.5-1-.7-1.34s-.61-.91-1.14-.9a.08.08,0,0,0-.06.14c.18.22.41.39.61.6a3.35,3.35,0,0,1,.5.78c.15.31.36.78.76.8,0,0,.07-.07,0-.08Z" style="fill:#0c0a35"/><path d="M20.86,48.39a1.4,1.4,0,0,0-.26-1.54c-.23-.31-.57-.53-.83-.82s-.34-.94-.49-1.46c0-.07-.13-.1-.17,0a1.56,1.56,0,0,0,.27,1.53c.55.83,1.53,1.13,1.46,2.31,0,0,0,0,0,0Z" style="fill:#0c0a35"/><path d="M20.27,48.57a1.55,1.55,0,0,0-.54-1.34c-.31-.33-.68-.47-.87-.92a1.64,1.64,0,0,0-.32-.68.09.09,0,0,0-.15.07,1.94,1.94,0,0,0,.46,1.2c.48.58,1.2.84,1.36,1.68a0,0,0,0,0,.06,0Z" style="fill:#0c0a35"/></g><g style="clip-path:url(#clip-path-4)"><path d="M19.34,55.77c-1.05-.8-.52-1.44-.52-2.37a.84.84,0,0,0-.34-.63c-1.51-.82-.3-2.15-.57-3.38a4.28,4.28,0,0,0-.72-1.07c-.65-.9-.41-1.66-.19-2.63a1.78,1.78,0,0,0-.82-1.85c-.07-.05-.18,0-.15.12.25.69.66,1.12.48,1.92a3.1,3.1,0,0,0-.25,1.3A4,4,0,0,0,17,48.79c.42.57.69.62.53,1.57a9.83,9.83,0,0,0-.25,1c-.1,1.25,1.36,1.76,1.09,2.92a1.24,1.24,0,0,0,.93,1.61c.05,0,.05-.06,0-.09Z" style="fill:#0c0a35"/><path d="M18.07,55.86c-.44-.09.12-1.81-.32-2.25s-1.33-1.06-1-2.1a2.59,2.59,0,0,0,.21-1.37c-.35-1.4-1.68-1.84-1.24-3.55.2-.82.55-1.73-.23-2.33-.06,0-.14,0-.1.1.68,1.27-.48,2.56,0,3.91a3.21,3.21,0,0,0,.66.93,2.4,2.4,0,0,1,.29,2.55c-.23.85.23,1.31.87,1.75,1,.72-.1,2,.69,2.53a.09.09,0,0,0,.1,0l.11-.06a.06.06,0,0,0,0-.11Z" style="fill:#0c0a35"/><path d="M16.92,56.08c.6-.48.09-1.32-.24-1.81s-.82-.74-1-1.38.29-1.45.2-2.22c-.17-1.48-2-1.8-1.47-3.58.42-1.27,1.09-2.1.36-3.43,0-.06-.13,0-.12,0a3.76,3.76,0,0,1-.26,2.38,4.9,4.9,0,0,0-.59,1.51,2.61,2.61,0,0,0,.91,2,1.94,1.94,0,0,1,.53,2.11,2.49,2.49,0,0,0,0,1.3c.21,1.08,2.16,1.67,1.58,3a.07.07,0,0,0,.11.09Z" style="fill:#0c0a35"/><path d="M14.17,52.79c1-1.29.18-2.71-.8-3.66-1.32-1.27-.12-2.45.39-3.7a1.46,1.46,0,0,0-.34-1.8.11.11,0,0,0-.15.12c.73,1.8-1.28,2.88-.83,4.71a3,3,0,0,0,1,1.31A2.69,2.69,0,0,1,14,52.71a.09.09,0,0,0,.15.08Z" style="fill:#0c0a35"/><path d="M13.08,50.54a1.89,1.89,0,0,0-.63-1.15c-.79-.81-1.18-1.55-.57-2.6.43-.72,1.15-1.52.56-2.35,0-.06-.16,0-.16,0a3.08,3.08,0,0,1-.64,1.89,2.4,2.4,0,0,0-.5,1.17c0,1.51,1.15,1.87,1.84,3a.05.05,0,0,0,.1,0Z" style="fill:#0c0a35"/><path d="M11.33,50c-.56-.79-1.07-1.39-.82-2.43.17-.69.67-1.23.81-2A1.38,1.38,0,0,0,10.57,44a.09.09,0,0,0-.09.14c1.23,1.1-.13,2.5-.38,3.68a2.41,2.41,0,0,0,1.15,2.29s.12,0,.08-.07Z" style="fill:#0c0a35"/></g><path d="M16.76,54.93a.49.49,0,0,0-.24,0,.35.35,0,0,0-.13.14c-.38.59-.58,1.13-.92,1.7a.18.18,0,0,0,.09.26,24.76,24.76,0,0,0,10.59.09.35.35,0,0,0,.18-.1c.08-.11,0-.26-.08-.37l-.84-1.2a.55.55,0,0,0-.26-.24C25,55.18,18.4,55.27,16.76,54.93Z" style="fill:#990028"/><path d="M24.84,55.86a.52.52,0,0,0-.51.51.53.53,0,0,0,.51.51.52.52,0,0,0,.51-.51.51.51,0,0,0-.51-.51Z" style="fill:#0c0a35"/><path d="M23.21,56a.6.6,0,0,0-.77.11.57.57,0,0,0-.15.54.58.58,0,0,0,.39.4.65.65,0,0,0,.65-.17.57.57,0,0,0-.12-.88Z" style="fill:#0c0a35"/><path d="M20.33,56.12a0,0,0,0,1,0,0,.61.61,0,1,0,1.13.3v0a.63.63,0,0,0-.44-.58.6.6,0,0,0-.68.28Z" style="fill:#0c0a35"/><path d="M18.79,55.81a.54.54,0,0,0-.54.54.54.54,0,0,0,1.08,0,.54.54,0,0,0-.54-.54Z" style="fill:#0c0a35"/><path d="M16.87,55.68a.42.42,0,1,0,.42.42.42.42,0,0,0-.42-.42Z" style="fill:#0c0a35"/><path d="M23.29,59.34c0-.12.1-.25.05-.38a.1.1,0,0,0-.18,0,.55.55,0,0,0,0,.42.07.07,0,0,0,.14,0Z" style="fill:#0c0a35"/><path d="M21.79,58.57a.42.42,0,0,0,0-.25c0-.16-.24-.15-.23,0a.55.55,0,0,0,.07.25.07.07,0,0,0,.12,0Z" style="fill:#0c0a35"/><path d="M22.11,60.66a1.21,1.21,0,0,0,.07-.5c0-.12-.22-.12-.23,0a1.06,1.06,0,0,0,.06.5.05.05,0,0,0,.1,0Z" style="fill:#0c0a35"/><path d="M20.71,59.79c0-.12.07-.33-.06-.42s-.06,0-.08,0,0,.29,0,.4a.06.06,0,0,0,.12,0Z" style="fill:#0c0a35"/><path d="M19.82,60.61a.5.5,0,0,0,.05-.36.14.14,0,0,0-.28,0,.4.4,0,0,0,0,.15c0,.06.07.1.09.16s.08.07.11,0Z" style="fill:#0c0a35"/><path d="M19.5,58.35a1.54,1.54,0,0,0,0-.3c0-.14-.23-.14-.23,0a2.65,2.65,0,0,0,.06.3c0,.06.12.06.13,0Z" style="fill:#0c0a35"/><path d="M18.69,59.4a.21.21,0,0,1,0-.07.53.53,0,0,0,0-.13.3.3,0,0,0-.06-.26.13.13,0,0,0-.2,0,.36.36,0,0,0,0,.27.3.3,0,0,0,.14.19s.08,0,.09,0Z" style="fill:#0c0a35"/><path d="M17.92,58.15c0-.14,0-.3-.05-.42a.12.12,0,0,0-.22.09.48.48,0,0,0,.1.17l.08.18s.09,0,.09,0Z" style="fill:#0c0a35"/><path d="M24.15,58.16c0-.14.1-.37,0-.49a.06.06,0,0,0-.08,0c-.13.12,0,.35,0,.49a.06.06,0,0,0,.12,0Z" style="fill:#0c0a35"/><path d="M24.83,56.22a.16.16,0,0,0,0,.32.16.16,0,0,0,0-.32Z" style="fill:#f70032"/><path d="M22.87,56.37a.14.14,0,1,0,0,.28.14.14,0,0,0,0-.28Z" style="fill:#f70032"/><path d="M20.82,56.21a.2.2,0,0,0,0,.39.2.2,0,0,0,0-.39Z" style="fill:#f70032"/><path d="M18.77,56.16a.18.18,0,0,0,0,.36.18.18,0,0,0,0-.36Z" style="fill:#f70032"/><path d="M16.88,55.92a.18.18,0,0,0,0,.36.18.18,0,1,0,0-.36Z" style="fill:#f70032"/><path d="M20.78,41.43a8.16,8.16,0,0,0-.31-5c-.34-.71-1.36-.09-1,.61a15.43,15.43,0,0,1,1,4.3c0,.2.33.28.39,0Z" style="fill:#f70032"/><path d="M17.28,42.18a5.07,5.07,0,0,0-.71-2.73c-.32-.64-1.06-2.05-1.92-2a.5.5,0,0,0-.48.48c-.05.68.84,1.35,1.22,1.86a19.64,19.64,0,0,1,1.44,2.47.24.24,0,0,0,.45-.12Z" style="fill:#f70032"/><path d="M23.12,41.8a11.7,11.7,0,0,0,.5-2.2,8.42,8.42,0,0,0,.2-2.12c-.07-.56-1-.82-1.07-.15a27,27,0,0,0-.07,4.41.23.23,0,0,0,.44.06Z" style="fill:#0c0a35"/><path d="M19.35,42.25A7.25,7.25,0,0,0,19,39c-.19-.73-.54-2-1.29-2.27s-.95.61-.6,1a9.78,9.78,0,0,1,.82,1.69,14.58,14.58,0,0,1,1,2.78.22.22,0,0,0,.43,0Z" style="fill:#0c0a35"/><path d="M15.5,42a2.6,2.6,0,0,0-1.09-2.14c-.53-.52-1-1.3-1.78-1.37s-.8,1.24,0,1.22c.29,0,.74.58,1,.75.46.34,1.41.9,1.48,1.54a.21.21,0,0,0,.42,0Z" style="fill:#0c0a35"/><path d="M20.58,39.84a.25.25,0,0,0,0,.49.25.25,0,0,0,0-.49Z" style="fill:#0c0a35"/><path d="M20.51,38.73a.28.28,0,0,0,0,.55.28.28,0,0,0,0-.55Z" style="fill:#0c0a35"/><path d="M20.18,37.79h0a.3.3,0,0,0,0,.41h0a.29.29,0,1,0,0-.42Z" style="fill:#0c0a35"/><path d="M20.19,37.18h0a.19.19,0,0,0,0-.28v0a.23.23,0,0,0-.38.16.22.22,0,0,0,.38.15Z" style="fill:#0c0a35"/><path d="M16.84,41.17a.23.23,0,0,0,0,.46.23.23,0,0,0,0-.46Z" style="fill:#0c0a35"/><path d="M16.52,40.27a.27.27,0,0,0,0,.53.27.27,0,0,0,0-.53Z" style="fill:#0c0a35"/><path d="M16,39.28a.35.35,0,1,0,0,.7.35.35,0,0,0,0-.7Z" style="fill:#0c0a35"/><path d="M15.34,38.5a.32.32,0,0,0-.32.32.33.33,0,0,0,.32.32.32.32,0,0,0,.32-.32.32.32,0,0,0-.32-.32Z" style="fill:#0c0a35"/><path d="M14.78,38a.24.24,0,0,0,0,.47.24.24,0,0,0,0-.47Z" style="fill:#0c0a35"/><path d="M14.85,37.87l-.23-.2c-.07-.06-.13-.14-.22-.11s-.06,0-.06.07.09.14.16.18l.25.18a.08.08,0,1,0,.1-.12Z" style="fill:#0c0a35"/><path d="M12.14,37c0,.1-.1.19-.15.29s-.09.17,0,.26a.07.07,0,0,0,.08,0,.33.33,0,0,0,.14-.22,1.91,1.91,0,0,0,.1-.34c0-.08-.1-.11-.13,0Z" style="fill:#0c0a35"/><path d="M12.93,35.26l-.35.1a1.11,1.11,0,0,0-.33.15.14.14,0,0,0,.06.26c.28,0,.48-.25.7-.37s0-.17-.08-.14Z" style="fill:#0c0a35"/><path d="M5.36,33.73c-.05.13-.1.26-.16.39s-.11.22-.07.34a.09.09,0,0,0,.1,0c.13,0,.18-.17.22-.27l.12-.41c0-.14-.15-.23-.21-.09Z" style="fill:#0c0a35"/><path d="M13.62,38.93a7.76,7.76,0,0,0,2.07-2.82,4.13,4.13,0,0,0-.1-2.12,7.21,7.21,0,0,0-.95-2.29,5.87,5.87,0,0,0-2.22-1.92,7.51,7.51,0,0,0-3.61-.62,4.57,4.57,0,0,0-3.36,2.65,6.76,6.76,0,0,0-.6,4.61c.05.16.11.31.17.47a6.29,6.29,0,0,0,3.7,3.5C9.86,40.78,11.5,41.23,13.62,38.93Z" style="fill:#f70032"/><path d="M15.88,35.88a3.11,3.11,0,0,0-.47-1.94,16.08,16.08,0,0,0-3.47-3,.69.69,0,0,0-.3-.14.24.24,0,0,0-.27.14.06.06,0,0,0,0,0,.93.93,0,0,0,.2.66c.9,1.25,1.28,1.27,2.46,2.93.33.47-.38.74-.63.51-.81-.78-1.22-1.22-2-2a5,5,0,0,0-1.42-1c-.19-.08-.45.26-.38.45a3.9,3.9,0,0,0,1.25,1.61,8.23,8.23,0,0,1,1.82,1.63.59.59,0,0,1-.23.82,23.65,23.65,0,0,0-3.58-2.34c-.29-.13-.93.43.16,1.29a33.43,33.43,0,0,1,2.8,2.09c.26.25-.18.77-.52.67a16.75,16.75,0,0,0-3.07-1.81c-.23-.09-.76-.17-.81,0-.12.49.61,1.11,1.21,1.49a25.43,25.43,0,0,0,2.32,1.49,3.07,3.07,0,0,0,3-.38,3.87,3.87,0,0,0,1.41-1.46A3.6,3.6,0,0,0,15.88,35.88Z" style="fill:#b70027"/><path d="M6.25,35.59a.43.43,0,0,0,.07.61.44.44,0,0,0,.62-.07.45.45,0,0,0-.08-.62.43.43,0,0,0-.61.08Z" style="fill:#0c0a35"/><path d="M6.15,34.92l0,0a.34.34,0,0,0-.41,0,.34.34,0,0,0-.08.47l0,0a.36.36,0,0,0,.48.07.34.34,0,0,0,.13-.23.36.36,0,0,0-.12-.31Z" style="fill:#0c0a35"/><path d="M5.2,34.34a.2.2,0,0,0,.31.24.2.2,0,0,0-.31-.24Z" style="fill:#0c0a35"/><path d="M7.43,33.64A.42.42,0,1,0,8,33.57a.43.43,0,0,0-.59.07Z" style="fill:#0c0a35"/><path d="M6.65,33.06c-.27.34.26.76.52.42s-.26-.76-.52-.42Z" style="fill:#0c0a35"/><path d="M6,32.77c-.12.15.12.34.24.19A.15.15,0,0,0,6,32.77Z" style="fill:#0c0a35"/><path d="M9,32.27l0,0a.39.39,0,0,0,.26-.32.43.43,0,0,0-.15-.38.43.43,0,0,0-.41-.06.41.41,0,0,0-.25.33s0,0,0,0a.4.4,0,0,0,.54.43Z" style="fill:#0c0a35"/><path d="M7.84,31.31a.26.26,0,0,0,0,.38.27.27,0,0,0,.39,0,.28.28,0,0,0,0-.39.27.27,0,0,0-.38,0Z" style="fill:#0c0a35"/><path d="M10.24,30.13a.35.35,0,1,0,.55.44.35.35,0,1,0-.55-.44Z" style="fill:#0c0a35"/><path d="M9.44,29.93c-.19.23.18.52.37.28a.23.23,0,0,0-.37-.28Z" style="fill:#0c0a35"/><path d="M8.63,29.86c-.16.19.14.42.29.23a.19.19,0,0,0-.29-.23Z" style="fill:#0c0a35"/><path d="M13.42,36.53a1,1,0,0,0-.55.49,1.17,1.17,0,0,0,0,.9,1.34,1.34,0,0,0,1.65.78,1.76,1.76,0,0,0,1.09-1.63,1.24,1.24,0,0,0-1.36-1.34c-1.19.07-2.1,2.25-.86,2.86a1.24,1.24,0,0,0,1.69-1,1.32,1.32,0,0,0-.15-1,.7.7,0,0,0-1-.27,1.51,1.51,0,0,0-.44,1.09c-.06.72,1.05.88,1.1.16,0,0,0-.06,0-.09a2,2,0,0,1-.11.26.66.66,0,0,0,.12-.41c0-.65-1-.61-1.11,0a.28.28,0,0,0,0,.09l1.1.16a2.2,2.2,0,0,1,.06-.37c0,.09,0-.07,0-.07-.11.27-.78-.19-.65.13a1.06,1.06,0,0,1-.1.28s-.08.08,0,.06-.09,0,0,0,.06.1.05,0a.8.8,0,0,1,0-.24,1.58,1.58,0,0,1,.17-.32c.07-.09.05-.07.1-.11l.09-.07s0,0,0,0c-.1,0,0,0,.06,0s0,0,.08,0,0,.07,0,.11a.75.75,0,0,1-.33.67.22.22,0,0,1-.18,0,1.17,1.17,0,0,1-.27-.2c-.14-.16-.2-.45-.08-.57a.23.23,0,0,0-.26-.35Z" style="fill:#0c0a35"/><path d="M14,37.08a.31.31,0,0,0,.48.38c.24-.31-.24-.69-.48-.38Z" style="fill:#990028"/><path d="M13.25,37.27a.2.2,0,0,0,.32.25.2.2,0,0,0-.32-.25Z" style="fill:#990028"/><path d="M13.68,37.91c-.14.19.15.42.3.24s-.15-.42-.3-.24Z" style="fill:#990028"/><path d="M14.86,38.17h0a.16.16,0,0,0,0-.28h0c-.12-.07-.25.06-.24.18a.18.18,0,0,0,.28.12Z" style="fill:#990028"/><path d="M15.05,37.07a.18.18,0,0,0,.28.22c.14-.18-.14-.39-.28-.22Z" style="fill:#990028"/><path d="M14.73,36.32a.17.17,0,0,0,.27.21.17.17,0,0,0-.27-.21Z" style="fill:#990028"/><path d="M13.83,36.3a.17.17,0,0,0,.26.21.17.17,0,0,0-.26-.21Z" style="fill:#990028"/><path d="M17.56,30.17c.39,1.25,2.17,1.94,3.16,2.66a1.69,1.69,0,1,0,1.93-2.74c-1.15-.66-2.34-1.3-3.55-1.85a1.75,1.75,0,0,0-1.62,3.11,39.93,39.93,0,0,0,3.61,1.74c.38-1.05.76-2.1,1.13-3.15a20.72,20.72,0,0,0-2.09-.56,4,4,0,0,0-2.07-.17.76.76,0,0,0-.5,1Z" style="fill:#222272"/><path d="M19.93,31.39h0a.73.73,0,0,0,.65-1.25l0,0a.79.79,0,0,0-.54-.19.71.71,0,0,0-.61.39.75.75,0,0,0-.05.57.78.78,0,0,0,.54.5Z" style="fill:#b70027"/><path d="M18.85,30a.47.47,0,0,0-.84-.44.47.47,0,0,0,.84.44Z" style="fill:#b70027"/><path d="M22.26,31.59a.42.42,0,0,0-.74-.39.42.42,0,0,0,.74.39Z" style="fill:#b70027"/><path d="M5.75,12.71c.17-.15.35-.27.53-.4a3.7,3.7,0,0,0,.57-.46,1.59,1.59,0,0,0,.26-.5,1.22,1.22,0,0,0,0-.78.94.94,0,0,0-1.74.16s0,0,0,0h0a.05.05,0,0,1,0,0,.94.94,0,0,0-1.74-.16,1.22,1.22,0,0,0,0,.78,1.38,1.38,0,0,0,.25.5,4.25,4.25,0,0,0,.57.46c.18.13.37.25.54.4l.45.48Z" style="fill:#d6002b"/><path d="M35.22,49.65c-.17.15-.35.27-.53.4a3.24,3.24,0,0,0-.57.47,1.44,1.44,0,0,0-.26.49,1.22,1.22,0,0,0,0,.78.94.94,0,0,0,1.74-.16s0,0,0,0h0s0,0,0,0a.94.94,0,0,0,1.74.16,1.16,1.16,0,0,0,0-.78,1.27,1.27,0,0,0-.25-.49,3.24,3.24,0,0,0-.57-.47,5.25,5.25,0,0,1-.53-.4c-.09-.08-.46-.48-.46-.48Z" style="fill:#d6002b"/><path d="M6.47,3V7A1.86,1.86,0,0,1,6,8.45a1.8,1.8,0,0,1-1.25.41,3,3,0,0,1-.84-.12V8.16a4.36,4.36,0,0,0,.75.08,1.33,1.33,0,0,0,.71-.14.79.79,0,0,0,.31-.37A2.64,2.64,0,0,0,5.75,7V3Z" style="fill:#d6002b"/><path d="M34.46,59.29v-4a1.84,1.84,0,0,1,.47-1.46,1.8,1.8,0,0,1,1.25-.42,3,3,0,0,1,.84.12v.59a3.62,3.62,0,0,0-.75-.09,1.32,1.32,0,0,0-.71.15.74.74,0,0,0-.31.37,2.64,2.64,0,0,0-.07.74v4Z" style="fill:#d6002b"/><path d="M16.84,59.11H6.19a3.1,3.1,0,0,1-3-3.19V15.66h.19V55.92a2.92,2.92,0,0,0,2.81,3H16.84Z" style="fill:#d6002b"/><rect x="25.39" y="58.93" width="7.39" height="0.19" style="fill:#d6002b"/><path d="M37.74,46.82h-.19V6.36a2.92,2.92,0,0,0-2.81-3h-11V3.17h11a3.1,3.1,0,0,1,3,3.19Z" style="fill:#d6002b"/><rect x="8.45" y="3.17" width="6.84" height="0.19" style="fill:#d6002b"/></g></g></g></svg>