<svg xmlns="http://www.w3.org/2000/svg" xmlns:xlink="http://www.w3.org/1999/xlink" viewBox="0 0 40.93 62.29"><defs><clipPath id="clip-path"><path d="M26.84,20.88c-.16,2.4-.71,4.76-2.73,6.05a13.71,13.71,0,0,1-4.77,1.45,9.06,9.06,0,0,1-1.56.15,9.59,9.59,0,0,1-2.26-.35.62.62,0,0,1-.3-.12.65.65,0,0,1-.09-.64,11.06,11.06,0,0,1,.35-1.25A10.23,10.23,0,0,0,16,21.55a8,8,0,0,1-.11-1c.09-.24.32,0,.58-.07,2.94-.35,6.08.56,9,.09a2.64,2.64,0,0,1,.79-.06C26.54,20.58,26.86,20.62,26.84,20.88Z" style="fill:#d6002b"/></clipPath><clipPath id="clip-path-2"><path d="M24.27,21.82a2.42,2.42,0,0,1-.86-2,3.7,3.7,0,0,1,.78-1.24,1.3,1.3,0,0,0,.24-1.38c-.2-.32-.62-.44-.93-.67a1.49,1.49,0,0,1-.5-1.67,9.92,9.92,0,0,1,.53-.95,2.48,2.48,0,0,0-.12-2.17,4.87,4.87,0,0,0-1.53-1.63c.94.05,1.84,0,2.78.08a6.32,6.32,0,0,1,1.51.2,3.18,3.18,0,0,1,2,1.83c.2.51.27,1.07.47,1.59a9.32,9.32,0,0,0,.57,1.14c1.11,2.06,1.71,4.38,3,6.34.08.13.17.3.08.42a.32.32,0,0,1-.24.11,21.37,21.37,0,0,1-3.1.05c-1,0-2,.24-3.07.32A1.86,1.86,0,0,1,24.27,21.82Z" style="fill:none"/></clipPath><clipPath id="clip-path-3"><path d="M15.27,18.55a2.6,2.6,0,0,0,.29,1.93.87.87,0,0,0,.45.42.78.78,0,0,0,.52,0A2.15,2.15,0,0,0,17.87,19a2.79,2.79,0,0,0,2.36,1.8c1,.18,2.11.06,3.14.23a3.88,3.88,0,0,0-.87-1.65,4.15,4.15,0,0,0-1.28-1.29,4.49,4.49,0,0,0-1.82-.37,12.3,12.3,0,0,0-3.43.14,1,1,0,0,0-.37.14A.92.92,0,0,0,15.27,18.55Z" style="fill:#d6002b"/></clipPath><clipPath id="clip-path-4"><path d="M16.35,21.86a3.47,3.47,0,0,0,2.3.73l1.48.05a5.94,5.94,0,0,0,1-.06,5.13,5.13,0,0,0,1.34-.53c.83-.42,1.65-.87,2.45-1.35a3.8,3.8,0,0,0,.65-.46,3,3,0,0,0,.73-1.56A16.29,16.29,0,0,0,26,12.55a2.82,2.82,0,0,0-.25-.81,2.24,2.24,0,0,0-1.45-1,9.57,9.57,0,0,0-2.88-.21,14.53,14.53,0,0,0-4.66.89c0,.43.05.86.07,1.29a.57.57,0,0,1,0,.26.75.75,0,0,1-.29.35,10.13,10.13,0,0,0-2.25,3.24,3,3,0,0,0-.48,1.6,1,1,0,0,0,.85,0c.24-.11.49-.32.74-.23s.29.4.3.65c0,.57,0,1.13,0,1.69A2.52,2.52,0,0,0,16.35,21.86Z" style="fill:none"/></clipPath><clipPath id="clip-path-5"><path d="M6.85,14.63a2.49,2.49,0,0,0-2,2,4.58,4.58,0,0,0,.54,2.93.3.3,0,0,0,.09.13c.54-.62,3.45-3.11,4-4.08a2.09,2.09,0,0,0-.72-.56A3,3,0,0,0,6.85,14.63Z" style="fill:none"/></clipPath><clipPath id="clip-path-6"><path d="M13.83,41.33c.15-2.4.7-4.75,2.73-6a13.5,13.5,0,0,1,4.76-1.44,9.29,9.29,0,0,1,1.57-.16,10.32,10.32,0,0,1,2.26.35.49.49,0,0,1,.39.76A11.06,11.06,0,0,1,25.19,36a10.09,10.09,0,0,0-.52,4.62,8,8,0,0,1,.1,1c-.08.24-.32,0-.57.07-2.94.35-6.09-.56-9-.09a2.7,2.7,0,0,1-.8.06C14.13,41.63,13.81,41.6,13.83,41.33Z" style="fill:#d6002b"/></clipPath><clipPath id="clip-path-7"><path d="M16.4,40.39a2.42,2.42,0,0,1,.86,2,3.7,3.7,0,0,1-.78,1.24A1.3,1.3,0,0,0,16.24,45c.2.33.62.44.93.67a1.49,1.49,0,0,1,.5,1.67,9.92,9.92,0,0,1-.53,1,2.44,2.44,0,0,0,.12,2.17,4.87,4.87,0,0,0,1.53,1.63c-.94,0-1.84,0-2.78-.08a6.47,6.47,0,0,1-1.52-.2,3.2,3.2,0,0,1-2-1.82c-.21-.52-.28-1.08-.47-1.6a9.32,9.32,0,0,0-.57-1.14c-1.11-2.06-1.71-4.38-3-6.34-.09-.12-.17-.3-.08-.42a.34.34,0,0,1,.24-.11,24.64,24.64,0,0,1,3.1,0c1,0,2-.24,3.07-.31A1.83,1.83,0,0,1,16.4,40.39Z" style="fill:none"/></clipPath><clipPath id="clip-path-8"><path d="M25.4,43.67a2.67,2.67,0,0,0-.29-1.94.7.7,0,0,0-1-.37,2.14,2.14,0,0,0-1.33,1.88,2.79,2.79,0,0,0-2.37-1.8c-1-.18-2.1-.06-3.14-.23a4.11,4.11,0,0,0,.87,1.65,4.29,4.29,0,0,0,1.29,1.29,4.33,4.33,0,0,0,1.82.37,12.31,12.31,0,0,0,3.43-.14,1,1,0,0,0,.37-.14A1,1,0,0,0,25.4,43.67Z" style="fill:#d6002b"/></clipPath><clipPath id="clip-path-9"><path d="M24.32,40.35a3.41,3.41,0,0,0-2.3-.72c-.5,0-1-.05-1.48-.05a5,5,0,0,0-1,.05,5,5,0,0,0-1.34.53c-.84.42-1.65.88-2.46,1.35a3.63,3.63,0,0,0-.64.47,2.91,2.91,0,0,0-.73,1.55,16.09,16.09,0,0,0,.34,6.13,2.87,2.87,0,0,0,.24.82,2.24,2.24,0,0,0,1.45.94,9.62,9.62,0,0,0,2.88.22,14.49,14.49,0,0,0,4.66-.9l-.06-1.29a.75.75,0,0,1,0-.26.84.84,0,0,1,.3-.35,10.13,10.13,0,0,0,2.25-3.24,3,3,0,0,0,.47-1.6A1,1,0,0,0,26,44c-.25.11-.5.33-.75.23s-.29-.4-.29-.65c0-.57,0-1.13,0-1.69A2.58,2.58,0,0,0,24.32,40.35Z" style="fill:none"/></clipPath><clipPath id="clip-path-10"><path d="M33.82,47.58a2.49,2.49,0,0,0,2-2,4.65,4.65,0,0,0-.54-2.93.32.32,0,0,0-.1-.13c-.53.62-3.44,3.12-4,4.08a2.09,2.09,0,0,0,.72.56A3,3,0,0,0,33.82,47.58Z" style="fill:none"/></clipPath></defs><title>hk</title><g id="Layer_2" data-name="Layer 2"><g id="Layer_1-2" data-name="Layer 1"><g id="hk"><rect x="0.09" y="0.09" width="40.74" height="62.1" rx="3.45" style="fill:#fff"/><path d="M37.39,62.29H3.54A3.55,3.55,0,0,1,0,58.75V3.54A3.55,3.55,0,0,1,3.54,0H37.39a3.55,3.55,0,0,1,3.54,3.54V58.75A3.55,3.55,0,0,1,37.39,62.29ZM3.54.19A3.35,3.35,0,0,0,.19,3.54V58.75A3.36,3.36,0,0,0,3.54,62.1H37.39a3.36,3.36,0,0,0,3.35-3.35V3.54A3.35,3.35,0,0,0,37.39.19Z" style="fill:#2d2d2d"/><path d="M17.9,20.42a14.15,14.15,0,0,0-2.46.53,8.15,8.15,0,0,0-4,2.87,11.84,11.84,0,0,0-1.86,4,6.57,6.57,0,0,0-3.19,3.61c-1,4.36-.25,6.18,4.5,8.55,1.05.53,16.2,3.08,20.33-.15,2.64-2.06,3.65-3.16,3.75-6.52s1.45-6.94-.59-9.91A6.74,6.74,0,0,0,33,21.81C31.2,20.47,28.54,20.1,26.05,20A44.37,44.37,0,0,0,17.9,20.42Z" style="fill:#990028"/><path d="M22.76,41.79a13.21,13.21,0,0,0,2.47-.53,8.2,8.2,0,0,0,4-2.86,12.39,12.39,0,0,0,1.86-4,6.57,6.57,0,0,0,3.19-3.61c1-4.36.25-6.18-4.5-8.55-1-.53-13.48-3.59-20.83.84a6,6,0,0,0-3.15,5.46c-.1,3.36-1.55,7.31.49,10.29A6.87,6.87,0,0,0,7.7,40.4c1.77,1.34,4.43,1.72,6.92,1.81A44.26,44.26,0,0,0,22.76,41.79Z" style="fill:#990028"/><path d="M9.48,32.94c-1.48.85-2.92.55-4.4,1.4A6.58,6.58,0,0,0,5.46,39c1.27,2,4.68,2.33,5.7,2,2.16-.76,2.82-2,4.8-3.22,4.36-2.56,9.14-4.39,13.29-7.28,2.08-1.45,4.68-1.09,6.06-3.23.67-1.05-.08-2.85-1.13-4.27-.81-1.1-1.79-2.28-3.15-2.4A10.15,10.15,0,0,0,26,22c-1.19.76-2.24,1.74-3.38,2.58-2.77,2-6.08,3.24-8.82,5.31-.78.59-1.51,1.25-2.31,1.81A21.68,21.68,0,0,1,9.48,32.94Z" style="fill:#222272"/><path d="M14,36.36a3.84,3.84,0,0,0,1.63-2.59A4.56,4.56,0,0,0,14.78,31c-.33-.42-.68-.65-.69-1.37,0-.14.07-.26.08-.32.91-4.68.13-4.8-1.06-5.36a1.22,1.22,0,0,0-1.52.5C10.4,25.64,10.05,26.14,9.88,27c-.07.32,0,.68-.23.93a1.47,1.47,0,0,1-.57.33,4.51,4.51,0,0,0-.5.32,12.12,12.12,0,0,0-1.77,1.27,5.5,5.5,0,0,0-1.22,1,4.62,4.62,0,0,0-.92,2.79,3.19,3.19,0,0,0,1.64,2.75C7.72,37.08,11.56,38.21,14,36.36Z" style="fill:#f70032"/><path d="M26.79,26a3.83,3.83,0,0,0-1.65,2.57A4.53,4.53,0,0,0,26,31.36c.32.42.67.65.67,1.37,0,.14-.07.26-.08.31-.95,4.68-.16,4.81,1,5.38a1.21,1.21,0,0,0,1.52-.49c1.2-1.18,1.56-1.68,1.73-2.49.07-.32,0-.69.24-.94a1.59,1.59,0,0,1,.57-.32c.15-.08.32-.19.5-.31a12.46,12.46,0,0,0,1.79-1.27,5.18,5.18,0,0,0,1.22-1,4.61,4.61,0,0,0,.94-2.79,3.18,3.18,0,0,0-1.62-2.76C33.06,25.33,29.23,24.17,26.79,26Z" style="fill:#f70032"/><path d="M16.35,21.86a3.47,3.47,0,0,0,2.3.73l1.48.05a5.94,5.94,0,0,0,1-.06,5.13,5.13,0,0,0,1.34-.53c.83-.42,1.65-.87,2.45-1.35a3.8,3.8,0,0,0,.65-.46,3,3,0,0,0,.73-1.56A16.29,16.29,0,0,0,26,12.55a2.82,2.82,0,0,0-.25-.81,2.24,2.24,0,0,0-1.45-1,9.57,9.57,0,0,0-2.88-.21,14.53,14.53,0,0,0-4.66.89c0,.43.05.86.07,1.29a.57.57,0,0,1,0,.26.75.75,0,0,1-.29.35,10.13,10.13,0,0,0-2.25,3.24,3,3,0,0,0-.48,1.6,1,1,0,0,0,.85,0c.24-.11.49-.32.74-.23s.29.4.3.65c0,.57,0,1.13,0,1.69A2.52,2.52,0,0,0,16.35,21.86Z" style="fill:#ffd6a1"/><path d="M17.69,13.92a3.45,3.45,0,0,1-.08-1.47.52.52,0,0,1,.07-.21.39.39,0,0,1,.32-.11,16,16,0,0,1,3.23-.19c2.05.28,1.92,1,1.94,1.27,0,.07-.14.08-.21.12a.11.11,0,0,1-.08,0l-2.7.49-.94.16a9.17,9.17,0,0,1-1.27.24S17.76,14.27,17.69,13.92Z" style="fill:#0c0a35"/><path d="M19.33,13a4.86,4.86,0,0,1,3.84.22.55.55,0,0,1-.17.35,3.88,3.88,0,0,1-5.18.66A2.85,2.85,0,0,1,19.33,13Z" style="fill:#fff"/><path d="M20.44,14.52a.86.86,0,0,0,.76-.47.8.8,0,0,0-.34-1,1,1,0,0,0-.54,0,.9.9,0,0,0-.77.51.8.8,0,0,0,.19.78A.87.87,0,0,0,20.44,14.52Z" style="fill:#0c0a35"/><path d="M26.84,20.88c-.16,2.4-.71,4.76-2.73,6.05a13.71,13.71,0,0,1-4.77,1.45,9.06,9.06,0,0,1-1.56.15,9.59,9.59,0,0,1-2.26-.35.62.62,0,0,1-.3-.12.65.65,0,0,1-.09-.64,11.06,11.06,0,0,1,.35-1.25A10.23,10.23,0,0,0,16,21.55a8,8,0,0,1-.11-1c.09-.24.32,0,.58-.07,2.94-.35,6.08.56,9,.09a2.64,2.64,0,0,1,.79-.06C26.54,20.58,26.86,20.62,26.84,20.88Z" style="fill:#d6002b"/><g style="clip-path:url(#clip-path)"><path d="M14.59,28.71a1.8,1.8,0,0,0,1.19-1.06,7.65,7.65,0,0,0,1-2.27c.14-.88.17-1.84.25-2.74s-.26-1.83-.09-2.77a.15.15,0,0,0-.27-.11,2.23,2.23,0,0,0-.12,1.38A10.33,10.33,0,0,1,16.47,24a6.74,6.74,0,0,1-.52,2.5c-.39.75-.65,1.62-1.43,2.06a.1.1,0,0,0,.07.18Z" style="fill:#0c0a35"/><path d="M15.34,29.17a9.63,9.63,0,0,0,1.52-1.41,6.66,6.66,0,0,0,1-2.46,14.36,14.36,0,0,0-.09-5.58c0-.15-.23-.12-.27,0a3.1,3.1,0,0,0,.08,1.78,9.93,9.93,0,0,1-.12,3.35,7.1,7.1,0,0,1-1,2.68c-.36.57-1,.93-1.25,1.57,0,.08.08.12.13.07Z" style="fill:#0c0a35"/><path d="M16.6,29.27a5.88,5.88,0,0,0,2.46-4,14.14,14.14,0,0,0,.39-2.74c0-1.09-.47-2.08-.31-3.18a.17.17,0,0,0-.3-.13,2,2,0,0,0-.1,1.56,9,9,0,0,1,.09,3.44,9.29,9.29,0,0,1-2.29,5s0,.11.06.08Z" style="fill:#0c0a35"/><path d="M17.65,29.61a6.1,6.1,0,0,0,2.5-4.3,12.83,12.83,0,0,0,0-5.55c0-.09-.19-.1-.21,0A7.26,7.26,0,0,0,20,21.89a14.42,14.42,0,0,1-.2,3,8.2,8.2,0,0,1-.63,2.44c-.4.83-1.16,1.4-1.62,2.19,0,.05,0,.13.09.09Z" style="fill:#0c0a35"/><path d="M19,29.47c1.51-.83,2-2.36,2.36-3.93A12.38,12.38,0,0,0,21.68,23c0-1-.23-1.89-.29-2.84a.22.22,0,0,0-.44-.06,4.52,4.52,0,0,0,.1,1.86,11.4,11.4,0,0,1-.07,2.8,18.06,18.06,0,0,1-.5,2.32c-.29,1-1.06,1.49-1.56,2.33a.07.07,0,0,0,.09.1Z" style="fill:#0c0a35"/><path d="M20.32,29.46c1.34-.51,1.86-2.3,2.16-3.56a18.46,18.46,0,0,0,.38-2.67,10.19,10.19,0,0,0-.05-3.57.1.1,0,0,0-.2,0,10,10,0,0,0-.18,2.39,31.13,31.13,0,0,1-.26,3.2,7.55,7.55,0,0,1-1.9,4.12s0,.11.05.09Z" style="fill:#0c0a35"/><path d="M21.76,29.15a4.51,4.51,0,0,0,2-3.61,24.23,24.23,0,0,0,.37-6.35.13.13,0,0,0-.23,0,3.11,3.11,0,0,0-.18,1.64,26.2,26.2,0,0,1-.2,3.06c-.22,2-.36,3.73-1.83,5.24,0,0,0,.07,0,0Z" style="fill:#0c0a35"/><path d="M23.66,28.34a6.72,6.72,0,0,0,1.68-3.74,9.24,9.24,0,0,0,.09-2.1,5.43,5.43,0,0,0-.31-2.13c-.07-.14-.24-.05-.25.07-.16,1.25.1,2.49,0,3.75a9.14,9.14,0,0,1-.51,2.2,7.13,7.13,0,0,1-.73,1.93s0,0,0,0Z" style="fill:#0c0a35"/><path d="M25.68,26.56a6.05,6.05,0,0,0,.91-3.08,6.66,6.66,0,0,0-.27-3.35.11.11,0,0,0-.2,0,13.21,13.21,0,0,0,0,2.95c0,1.16-.42,2.27-.47,3.43a0,0,0,0,0,.07,0Z" style="fill:#0c0a35"/></g><path d="M24.27,21.82a2.42,2.42,0,0,1-.86-2,3.7,3.7,0,0,1,.78-1.24,1.3,1.3,0,0,0,.24-1.38c-.2-.32-.62-.44-.93-.67a1.49,1.49,0,0,1-.5-1.67,9.92,9.92,0,0,1,.53-.95,2.48,2.48,0,0,0-.12-2.17,4.87,4.87,0,0,0-1.53-1.63c.94.05,1.84,0,2.78.08a6.32,6.32,0,0,1,1.51.2,3.18,3.18,0,0,1,2,1.83c.2.51.27,1.07.47,1.59a9.32,9.32,0,0,0,.57,1.14c1.11,2.06,1.71,4.38,3,6.34.08.13.17.3.08.42a.32.32,0,0,1-.24.11,21.37,21.37,0,0,1-3.1.05c-1,0-2,.24-3.07.32A1.86,1.86,0,0,1,24.27,21.82Z" style="fill:#d6002b"/><path d="M26.75,9.17a23.08,23.08,0,0,0-.19-4.46c-.12-.92-.38-1.85-.44-2.49-.11-1.08-.83-.87-.86-.54a42.41,42.41,0,0,1-.54,5.59.51.51,0,0,1-.93.08,14.23,14.23,0,0,1-.43-2.73,8.38,8.38,0,0,0-.72-3.23c-.15-.18-.47-.19-.55,0-.74,2.09.21,5.83-1,6.27a.42.42,0,0,1-.54-.32c-.42-1.92.1-4.09-.83-5.83-.06-.11-.14-.23-.27-.25s-.31.17-.39.34c-.79,1.92.13,5.55-.61,6.21-.28.25-.5.1-.54-.27-.31-3.27-.6-5.46-1.27-5.73-.37-.15-.53,1-.52,1.44.07,2.33.2,4.66.33,7,0,0,0-.09,0,0s.09,0,.14,0l9.57-.68a.79.79,0,0,0,.34-.1A.44.44,0,0,0,26.75,9.17Z" style="fill:#f70032"/><path d="M16.42,11.46c.33.41,8.58-.45,10.35-.54a.47.47,0,0,0,.39-.27,1.64,1.64,0,0,0,0-1.07.38.38,0,0,0-.1-.21.47.47,0,0,0-.37-.08L19,9.77l-2.19.14a1,1,0,0,0-.47.14c-.37.22-.3.52-.23.79A1.69,1.69,0,0,0,16.42,11.46Z" style="fill:#0c0a35"/><path d="M16.58,1.87a.3.3,0,1,0-.3-.3.3.3,0,0,0,.3.3Z" style="fill:#0c0a35"/><path d="M19.44,1.47a.3.3,0,0,0,0-.59.3.3,0,0,0,0,.59Z" style="fill:#0c0a35"/><path d="M22.35,1.35A.33.33,0,0,0,22.67,1a.32.32,0,0,0-.32-.31A.31.31,0,0,0,22,1a.32.32,0,0,0,.31.32Z" style="fill:#0c0a35"/><path d="M25.61,1.59a.32.32,0,0,0,.32-.32A.33.33,0,0,0,25.61,1a.32.32,0,0,0-.32.32.32.32,0,0,0,.32.32Z" style="fill:#0c0a35"/><path d="M17,7.14A9.34,9.34,0,0,0,17,9.5a.22.22,0,0,0,.43,0,14.08,14.08,0,0,0-.34-2.33c0-.1-.16-.14-.18,0Z" style="fill:#0c0a35"/><path d="M19.55,7a4.78,4.78,0,0,0-.13,1.31c0,.34,0,.84.28,1.08A.2.2,0,0,0,20,9.34a3.47,3.47,0,0,0-.09-1.15A7.55,7.55,0,0,0,19.77,7a.11.11,0,0,0-.22,0Z" style="fill:#0c0a35"/><path d="M22.5,6.88c.1.7.11,1.41.15,2.12a.26.26,0,0,0,.51,0,7.52,7.52,0,0,0-.36-2.16c0-.17-.32-.14-.3,0Z" style="fill:#0c0a35"/><path d="M25.77,6.84a2.94,2.94,0,0,0-.27,1.83.3.3,0,0,0,.59,0,7.86,7.86,0,0,0,0-.84c0-.3,0-.61,0-.91a.15.15,0,0,0-.28-.08Z" style="fill:#0c0a35"/><g style="clip-path:url(#clip-path-2)"><path d="M23.78,10.73a4.39,4.39,0,0,1,.6,1.51A5.3,5.3,0,0,1,24,14.73c-.18.92.8,1.39,1.36,1.93,1.26,1.22-1.17,2.88-1.31,4.13a3.23,3.23,0,0,0,1.53,2.59c.07,0,.17,0,.11-.11a8,8,0,0,1-1.19-1.68c-.45-1.09.38-1.72.94-2.51s1-1.79.31-2.53a14,14,0,0,0-1.16-1c-.65-.63.15-1.66.17-2.34a2.79,2.79,0,0,0-1-2.49s0,0,0,0Z" style="fill:#0c0a35"/><path d="M24.9,10.84c1.4.9.24,2.17.39,3.35a1.47,1.47,0,0,0,.48.7,4.61,4.61,0,0,1,1.35,1.77c.52,1.63-1.2,2.48-1.68,3.81a1.88,1.88,0,0,0,.83,2.37c.1.06.24-.06.17-.17s-.3-.43-.46-.64c-.5-.66-.16-1.33.21-2s.89-1,1.2-1.64a2.8,2.8,0,0,0-.38-3c-.44-.5-1.41-1-1.26-1.82a8.31,8.31,0,0,0,.3-1.4c0-.69-.32-1.58-1.12-1.53a.06.06,0,0,0,0,.11Z" style="fill:#0c0a35"/><path d="M26.06,10.57a4.12,4.12,0,0,1,.73,1.27c.2.49-.2,1.44-.13,2a1.59,1.59,0,0,0,.62,1,3.8,3.8,0,0,1,1.46,1.76c.78,2.47-3.26,4.78-.46,6.88.15.12.37-.11.26-.26-.65-.92-1-1.55-.53-2.7.25-.57.64-1.07.85-1.66a3.44,3.44,0,0,0-.23-3.35,8.65,8.65,0,0,0-1.26-1.15c-.74-.69,0-1.61-.13-2.38-.09-.42-.58-1.59-1.17-1.47,0,0,0,.05,0,.07Z" style="fill:#0c0a35"/><path d="M28.42,10.62c-.84.17-.74,1.47-.73,2.12,0,1.39,1.21,1.81,2.08,2.7.5.52.33,1.25.28,1.9a10.5,10.5,0,0,1-.93,2.94c-.44,1.15-.14,3,1.34,3.18.11,0,.14-.13.08-.2-.68-.87-1.26-1.31-1-2.54.15-.71.57-1.4.78-2.11a5.41,5.41,0,0,0,.17-3c-.28-.77-1.24-1.23-1.85-1.69a1.84,1.84,0,0,1-.56-1.59c0-.34-.08-1.52.37-1.68a0,0,0,1,0,0-.05Z" style="fill:#0c0a35"/><path d="M32.19,18.25c-1.21-.84-2.86,3.84-1.06,4.92.07,0,.17-.05.12-.12a3.22,3.22,0,0,1-.44-2.76c.15-.69.63-1.69,1.36-1.88a.09.09,0,0,0,0-.16Z" style="fill:#0c0a35"/><path d="M32.73,19.34c-.57-.11-1,.58-1.23,1.05a2.31,2.31,0,0,0,.41,2.36c0,.05.14,0,.13-.05a6.39,6.39,0,0,1-.26-1.84,2.58,2.58,0,0,1,1-1.42.06.06,0,0,0,0-.1Z" style="fill:#0c0a35"/></g><path d="M15.27,18.55a2.6,2.6,0,0,0,.29,1.93.87.87,0,0,0,.45.42.78.78,0,0,0,.52,0A2.15,2.15,0,0,0,17.87,19a2.79,2.79,0,0,0,2.36,1.8c1,.18,2.11.06,3.14.23a3.88,3.88,0,0,0-.87-1.65,4.15,4.15,0,0,0-1.28-1.29,4.49,4.49,0,0,0-1.82-.37,12.3,12.3,0,0,0-3.43.14,1,1,0,0,0-.37.14A.92.92,0,0,0,15.27,18.55Z" style="fill:#d6002b"/><g style="clip-path:url(#clip-path-3)"><path d="M17.26,17.2a4.22,4.22,0,0,0,0,.94,2.9,2.9,0,0,1-1,2.13,2.62,2.62,0,0,0-.9,2.11.1.1,0,0,0,.18,0,16.72,16.72,0,0,1,.86-1.61c.26-.31.55-.58.79-.92a2.8,2.8,0,0,0,.13-2.69s-.07,0-.07,0Z" style="fill:#0c0a35"/><path d="M16.59,17.23c0,.31-.05.61-.06.93a2.75,2.75,0,0,1-.91,1.59,2.16,2.16,0,0,0-.72,1.76c0,.08.15.1.19,0a9.27,9.27,0,0,1,1.31-2c.62-.81.43-1.31.31-2.25,0-.06-.11-.09-.12,0Z" style="fill:#0c0a35"/><path d="M16.18,17.34c-.11.28-.18.56-.27.85a1.7,1.7,0,0,1-.74.89,1.7,1.7,0,0,0-.74.87.07.07,0,0,0,.11.07c.39-.38.88-.61,1.27-1s.36-1.09.44-1.67c0,0-.05-.06-.07,0Z" style="fill:#0c0a35"/><path d="M17.91,17.2c-.28,1,.62,1.92,1.16,2.63s1.7,1.8,2.7,1.64c.09,0,.09-.14,0-.19a8.92,8.92,0,0,1-2.38-1.72A6.19,6.19,0,0,1,18,17.2a0,0,0,0,0-.06,0Z" style="fill:#0c0a35"/><path d="M18.59,17.09c-.37.57.72,1.58,1,2a4.81,4.81,0,0,0,1.15,1.23c.42.28.87.53,1.27.85s.5.61.81.87a.09.09,0,0,0,.16-.09c-.3-1-1.2-1.46-2-2a7,7,0,0,1-1.45-1.58c-.29-.38-.76-.74-.86-1.24,0,0,0,0-.06,0Z" style="fill:#0c0a35"/><path d="M19.7,17.12c-.24.88.65,1.58,1.23,2.09a15.43,15.43,0,0,1,1.36,1.32,7.59,7.59,0,0,1,1.16,1.82.1.1,0,0,0,.18,0c.24-1.11-.53-1.66-1.21-2.41s-2.3-1.55-2.59-2.8c0-.07-.11-.06-.13,0Z" style="fill:#0c0a35"/></g><g style="clip-path:url(#clip-path-4)"><path d="M14.58,18.54a4,4,0,0,1,2-.75,1.66,1.66,0,0,0,1.14-.47c.49-.53-.06-1.2-.64-1.31-.16,0-.22.21-.07.24.34.09.67.22.68.62s-.53.61-.86.68a6.07,6.07,0,0,0-1.32.27,2.22,2.22,0,0,0-1,.7s0,0,0,0Z" style="fill:#0c0a35"/></g><path d="M16.92,6.56a.17.17,0,0,0,0-.33.17.17,0,1,0,0,.33Z" style="fill:#0c0a35"/><path d="M16.81,6h0a.16.16,0,1,0,0-.31h0c-.21,0-.21.35,0,.32Z" style="fill:#0c0a35"/><path d="M16.75,5.36a.15.15,0,0,0,0-.3.15.15,0,0,0,0,.3Z" style="fill:#0c0a35"/><path d="M19.66,6.49a.21.21,0,0,0,0-.41.21.21,0,0,0,0,.41Z" style="fill:#0c0a35"/><path d="M19.66,5.75h0l-.14,0h0a.2.2,0,1,0-.09-.34.22.22,0,0,0,0,.31.16.16,0,0,0,.22,0Z" style="fill:#0c0a35"/><path d="M19.55,5.14a.2.2,0,0,0,0-.39.2.2,0,0,0,0,.39Z" style="fill:#0c0a35"/><path d="M22.65,6.23h0a.28.28,0,0,0,.19-.34.27.27,0,0,0-.33-.19h0a.27.27,0,0,0-.19.33.27.27,0,0,0,.33.19Z" style="fill:#0c0a35"/><path d="M22.71,5.41l0,0a.21.21,0,0,0-.33-.25h0c-.23.21.19.53.33.26Z" style="fill:#0c0a35"/><path d="M22.66,4.71v0c.09-.26-.41-.26-.32,0v0a.16.16,0,0,0,.3,0Z" style="fill:#0c0a35"/><path d="M25.79,6.3a.28.28,0,0,0,0-.56.28.28,0,0,0,0,.56Z" style="fill:#0c0a35"/><path d="M25.79,5.49a.23.23,0,0,0,0-.45.23.23,0,0,0,0,.45Z" style="fill:#0c0a35"/><path d="M25.75,4.88h0A.17.17,0,0,0,26,4.73c0-.1-.11-.21-.21-.17h0a.16.16,0,0,0,0,.31Z" style="fill:#0c0a35"/><path d="M10.64,31.31h-.1l-.09-.05a.2.2,0,0,0,.18.06l-.1,0h0c.15.09.29-.08.25-.22h0a.2.2,0,0,0-.22-.19.22.22,0,0,0-.21.21c0,.13.14.29.27.18Z" style="fill:#0c0a35"/><path d="M10.52,32.2h0a.27.27,0,0,0,0-.53h0c-.34,0-.3.58,0,.53Z" style="fill:#0c0a35"/><path d="M10.37,33.16a.22.22,0,0,0,.19,0,.21.21,0,0,0,0-.35h0a.21.21,0,0,0-.25,0,.22.22,0,0,0,0,.3.2.2,0,0,0,.08,0Z" style="fill:#0c0a35"/><path d="M10.26,34h0a.18.18,0,0,0,.07-.36h0a.18.18,0,0,0-.07.35Z" style="fill:#0c0a35"/><path d="M10.18,34.69a.14.14,0,0,0,.05-.27.14.14,0,0,0-.05.27Z" style="fill:#0c0a35"/><path d="M12.13,35.22l0,0A.1.1,0,0,0,12,35l0,0c-.12.06,0,.26.12.17Z" style="fill:#0c0a35"/><path d="M12.35,34.67a.25.25,0,0,0,.14.08c.23.06.31-.33.07-.36a.29.29,0,0,0-.16,0,.16.16,0,0,0-.05.27Z" style="fill:#0c0a35"/><path d="M12.87,34.1a.23.23,0,0,0,.09-.45.23.23,0,0,0-.09.45Z" style="fill:#0c0a35"/><path d="M13.1,33.2a.21.21,0,0,0,.09-.42.21.21,0,0,0-.09.42Z" style="fill:#0c0a35"/><path d="M13.25,32.45a.2.2,0,0,0,.08-.4.2.2,0,0,0-.08.4Z" style="fill:#0c0a35"/><path d="M12,36.75c-.34,0-.44-.42,0-1.62a5.4,5.4,0,0,0,.28-2.92c-.18-.71-.4-1.86.18-1.85s1,1,1.1,2A7.32,7.32,0,0,1,13.22,35C13,35.75,12.37,36.8,12,36.75Z" style="fill:#990028"/><path d="M9.62,36.44c-.42,0-.75-.17-.59-1.7s.74-4.56,1.34-4.73.75.17.75.72S10.38,36.41,9.62,36.44Z" style="fill:#990028"/><path d="M12.59,35.14a.51.51,0,0,0-.17,0,.2.2,0,0,0-.08.37.51.51,0,0,0,.17,0,.2.2,0,0,0,.08-.37Z" style="fill:#0c0a35"/><path d="M12.64,34.6a.29.29,0,0,0,.34-.23.29.29,0,0,0-.23-.34.29.29,0,1,0-.11.57Z" style="fill:#0c0a35"/><path d="M13,33l0,0a.28.28,0,1,0-.1.54h0A.27.27,0,0,0,13,33Z" style="fill:#0c0a35"/><path d="M13.06,31.93a.29.29,0,0,0-.4,0,.23.23,0,0,0-.07.32.31.31,0,0,0,.39.12.24.24,0,0,0,.08-.4Z" style="fill:#0c0a35"/><path d="M12.75,30.91a.25.25,0,0,0-.12,0,.19.19,0,0,0-.07.38h.12a.19.19,0,0,0,.07-.35Z" style="fill:#0c0a35"/><path d="M10.36,30.46h0a.22.22,0,0,0,0,.37h0a.22.22,0,1,0,0-.38Z" style="fill:#0c0a35"/><path d="M10.25,31.3h0a.23.23,0,0,0-.06.32v0c.11.2.42.1.46-.1s-.22-.4-.39-.25Z" style="fill:#0c0a35"/><path d="M10.09,32.22a.67.67,0,0,0-.12.06.29.29,0,0,0-.11.34.29.29,0,0,0,.3.2h.06a.32.32,0,0,0,.28-.33.31.31,0,0,0-.41-.27Z" style="fill:#0c0a35"/><path d="M10,33.82a.31.31,0,0,0,.11-.6.31.31,0,0,0-.11.6Z" style="fill:#0c0a35"/><path d="M9.81,34.76a.23.23,0,0,0,.09-.46.23.23,0,0,0-.09.46Z" style="fill:#0c0a35"/><path d="M9.68,35.45a.19.19,0,0,0,.07-.37.19.19,0,0,0-.07.37Z" style="fill:#0c0a35"/><path d="M12.19,36.08a.16.16,0,0,0,.06-.32.16.16,0,0,0-.06.32Z" style="fill:#0c0a35"/><path d="M6.48,35.74c.33,0,.56-.23.63-1.5a5.23,5.23,0,0,1,.83-2.81c.43-.6,1.07-1.58.53-1.78s-1.31.55-1.77,1.43A7.76,7.76,0,0,0,6,33.64C5.9,34.48,6.1,35.71,6.48,35.74Z" style="fill:#990028"/><path d="M6.55,34a.34.34,0,0,1,.17,0,.2.2,0,0,1-.07.37.31.31,0,0,1-.17,0A.19.19,0,0,1,6.55,34Z" style="fill:#0c0a35"/><path d="M6.7,33.5a.29.29,0,0,1-.23-.34.3.3,0,0,1,.34-.23.29.29,0,0,1,.23.34.29.29,0,0,1-.34.23Z" style="fill:#0c0a35"/><path d="M7,31.84H7a.29.29,0,1,1-.11.54l0,0a.27.27,0,0,1,.1-.51Z" style="fill:#0c0a35"/><path d="M7.31,30.87a.33.33,0,0,1,.4.11.24.24,0,0,1-.07.33.31.31,0,0,1-.41,0,.24.24,0,0,1,.08-.4Z" style="fill:#0c0a35"/><path d="M8,30a.24.24,0,0,1,.12,0,.19.19,0,0,1-.07.38l-.11,0A.18.18,0,0,1,8,30Z" style="fill:#0c0a35"/><path d="M6.57,35a.16.16,0,1,1,.06-.31.16.16,0,0,1-.06.31Z" style="fill:#0c0a35"/><path d="M24.14,27.77c-.6-.5-1.47.27-1.82.76a.68.68,0,0,0,.1,1,1.16,1.16,0,0,0,1.16-.14,3.92,3.92,0,0,0,1.1-.88c.29-.36.4-1-.13-1.18a1.46,1.46,0,0,0-1.45.47c-.38.3-.88.79-.87,1.31a.47.47,0,0,0,.88.21,2.28,2.28,0,0,1,1.12-1.11s-.13,0,0,0c-.17,0-.2-.41-.22-.34,0-.11,0,0,0,0a.82.82,0,0,1-.11.12,4,4,0,0,1-.64.52c-.21.13-.24.17-.45.18A.28.28,0,0,1,23,29s0,.17,0,.08a.66.66,0,0,1,.1-.22,2.87,2.87,0,0,1,.45-.53c.06-.06.37-.41.47-.37s.22-.09.12-.17Z" style="fill:#0c0a35"/><path d="M18.09,32c-.4-.12-1,.25-1.29.47A1.68,1.68,0,0,0,16,33.69a.49.49,0,0,0,.33.48,2.59,2.59,0,0,0,2.58-1.73.5.5,0,0,0-.32-.63,1.67,1.67,0,0,0-1.45.42c-.38.29-.93.79-.92,1.32,0,.33.39.67.72.45L17,34a.44.44,0,0,0,.11-.68l0,0c0,.16.07.32.11.48a1.65,1.65,0,0,1,.49-.65c.15-.12.49-.35.62-.32-.11-.2-.21-.41-.32-.62a1.64,1.64,0,0,1-.6.73c-.15.13-.54.44-.74.4l.33.47c0-.69,1.08-.88,1.32-1.45a.23.23,0,0,0-.15-.28Z" style="fill:#0c0a35"/><path d="M20,29.58a1.56,1.56,0,0,0-.66.73,1.72,1.72,0,0,0,0,1.28,1.39,1.39,0,0,0,1.85.72,1.91,1.91,0,0,0,1-1.5,1.49,1.49,0,0,0-1-1.57,1.54,1.54,0,0,0-2.08,2.11,1.56,1.56,0,0,0,1.34,1A1.53,1.53,0,0,0,22,30.92a1.18,1.18,0,0,0-.72-1.28,1.22,1.22,0,0,0-1.46.53,1,1,0,0,0,.26,1.31c.54.33,1-.1,1.18-.61a.58.58,0,0,0-.82-.69,2.09,2.09,0,0,0-.63.55.58.58,0,0,0,.18.8l.05,0a.56.56,0,0,0,.81-.29c-.08.2,0-.16,0-.26a.58.58,0,0,0-.05-.14c.23.5-.16.5.16.33l-.82-.69c-.07.24.25-.27.63.07.08.07,0,.16,0,.08,0,.11,0,.06,0,.07s.08,0,.11,0-.1-.14-.07,0a.64.64,0,0,1,0,.22.33.33,0,0,1-.23.22c-.09,0,0,0-.13,0,.06,0,0,0-.05-.05s-.11-.11-.18-.25a.74.74,0,0,1-.07-.31c0-.15,0,0,0-.16,0,.05,0-.05.05-.06s.06,0,0,0a.5.5,0,0,1,.27,0,.78.78,0,0,1,.45.13.29.29,0,0,1,.09.24.83.83,0,0,1-.13.42c-.15.24-.3.3-.5.2-.4-.21-.44-1.1-.19-1.41a.19.19,0,0,0-.25-.27Z" style="fill:#0c0a35"/><path d="M20.59,31a.36.36,0,0,0,0-.72.36.36,0,0,0,0,.72Z" style="fill:#f70032"/><path d="M19.67,29.7c.1,0,.11-.16,0-.16s-.11.16,0,.16Z" style="fill:#f70032"/><path d="M19.39,30.26c.1,0,.11-.15,0-.16s-.11.16,0,.16Z" style="fill:#f70032"/><path d="M19.38,30.9a.11.11,0,1,0,0-.21c-.13,0-.14.21,0,.21Z" style="fill:#f70032"/><path d="M19.64,31.49a.11.11,0,0,0,0-.21c-.13,0-.14.2,0,.21Z" style="fill:#f70032"/><path d="M20.1,32h0a.08.08,0,0,0,0-.15h0c-.13-.06-.14.2,0,.15Z" style="fill:#f70032"/><path d="M20.76,32.17h0a.11.11,0,0,0,0-.2h0c-.17,0-.18.24,0,.2Z" style="fill:#f70032"/><path d="M21.4,31.9a.09.09,0,0,0,0-.17c-.11,0-.12.17,0,.17Z" style="fill:#f70032"/><path d="M21.81,31.37a.09.09,0,0,0,0-.17.09.09,0,0,0,0,.17Z" style="fill:#f70032"/><path d="M22,30.62c.09,0,.1-.15,0-.15a.07.07,0,0,0,0,.15Z" style="fill:#f70032"/><path d="M21.72,30a.1.1,0,0,0,0-.2.1.1,0,0,0,0,.2Z" style="fill:#f70032"/><path d="M21.16,29.59c.15,0,.16-.23,0-.23a.12.12,0,0,0,0,.23Z" style="fill:#f70032"/><path d="M20.46,29.49h0a.09.09,0,0,0,0-.18h0c-.11,0-.12.19,0,.18Z" style="fill:#f70032"/><path d="M12.45,12.25a.39.39,0,0,0-.17.11.65.65,0,0,0-.19.53.64.64,0,0,0,.28.49.46.46,0,0,0,.3.09c.23,0,.36-.29.42-.52a.5.5,0,0,0-.19-.57A.52.52,0,0,0,12.45,12.25Z" style="fill:#990028"/><path d="M12.92,12.64a7.26,7.26,0,0,1,.9.2,1.78,1.78,0,0,1-1.1.25c0-.14-.1-.33,0-.42A.21.21,0,0,1,12.92,12.64Z" style="fill:#990028"/><path d="M9.89,17.28a2.63,2.63,0,0,0,1.91-.2,1.66,1.66,0,0,0,.86-1.64,1.41,1.41,0,0,0-.31-.68,1.38,1.38,0,0,0-.57-.48,3.19,3.19,0,0,0-3,.89,1.24,1.24,0,0,0-.23.42,1.17,1.17,0,0,0,.31,1.13A2.2,2.2,0,0,0,9.89,17.28Z" style="fill:#990028"/><path d="M6.85,14.63a2.49,2.49,0,0,0-2,2,4.58,4.58,0,0,0,.54,2.93.3.3,0,0,0,.09.13c.54-.62,3.45-3.11,4-4.08a2.09,2.09,0,0,0-.72-.56A3,3,0,0,0,6.85,14.63Z" style="fill:#990028"/><path d="M12.14,16.07a.43.43,0,0,1-.21-.11c-.56-.46-1.43-.92-1.56-1.63a13,13,0,0,0,2.05-2,13.7,13.7,0,0,1,.25,3.44c0,.14-.12,0-.19.13A.35.35,0,0,1,12.14,16.07Z" style="fill:#990028"/><path d="M12.08,12a.41.41,0,0,0-.39-.21.44.44,0,0,0-.37.14.31.31,0,0,0,0,.31.57.57,0,0,0,.23.23.32.32,0,0,0-.43.18.37.37,0,0,0,.21.37,2.72,2.72,0,0,0,.43.15,2.09,2.09,0,0,1,.43.25l.38-.75a3.59,3.59,0,0,0,.17-.34,1,1,0,0,0,.1-.37.44.44,0,0,0-.13-.36.35.35,0,0,0-.12-.07.44.44,0,0,0-.44.05A.31.31,0,0,0,12.08,12Z" style="fill:#990028"/><path d="M9.42,15.85a1.5,1.5,0,0,0,1.75.51c.44-.23,1.08-.79.84-1.35a.08.08,0,0,0-.15,0,2,2,0,0,1-.73,1,1.43,1.43,0,0,1-1.63-.28c-.06,0-.14,0-.08.09Z" style="fill:#0c0a35"/><g style="clip-path:url(#clip-path-5)"><path d="M7.76,15.29c-1-.72-1.82.46-2.14,1.3a3.07,3.07,0,0,0,.94,3.32c.06.05.15,0,.13-.09a8,8,0,0,1-.78-2.18c0-1.05.63-2.38,1.83-2.28,0,0,0,0,0-.07Z" style="fill:#0c0a35"/><path d="M7.74,15.79c-1.48.12-1.43,2.65-.37,3.27A.09.09,0,0,0,7.5,19c-.13-.47-.37-.88-.46-1.36a1.59,1.59,0,0,1,.73-1.68c.05,0,0-.14,0-.13Z" style="fill:#0c0a35"/><path d="M8,16.27a1.17,1.17,0,0,0,.29,2c.08,0,.13-.06.1-.13-.28-.61-.86-1.11-.28-1.77.06-.08,0-.21-.11-.14Z" style="fill:#0c0a35"/></g><path d="M12.63,28.93a1.22,1.22,0,0,0,.38,0,.82.82,0,0,0,.53-.57,3.66,3.66,0,0,0,.1-.81,3.85,3.85,0,0,1,.28-1.11,4.6,4.6,0,0,0,.35-1,2.62,2.62,0,0,0-.88-1.92c-.49-.57-1-.67-1.51-1.91-.25-.63-.34-1-.47-1s-.38.14-.46.26A2,2,0,0,0,11,22a6.09,6.09,0,0,0,.43,1.65c.14.34.09.14.28.47-.31.33-.65.07-1.07.24s-.55.69-.59,1.14A7.23,7.23,0,0,0,10,27a2.17,2.17,0,0,0,.68,1.51,2.47,2.47,0,0,0,1.31.37Z" style="fill:#fcc07e"/><path d="M11.31,25.09c.23.28.68.59.6,1s-.61.15-.82.11c-.06,0-.1,0-.07.09.15.34.84.26,1,0a.7.7,0,0,0,0-.7,1.32,1.32,0,0,0-.67-.56s-.07,0,0,.06Z" style="fill:#0c0a35"/><path d="M11.18,26.42c.12.14.3.19.43.32s.25.43.1.6-.58.1-.82.06c-.05,0-.08,0-.06.07.17.34.79.23,1,0a.53.53,0,0,0,.06-.58.87.87,0,0,0-.23-.31c-.12-.11-.29-.13-.42-.23s-.12,0-.07.07Z" style="fill:#0c0a35"/><path d="M11.17,28.44c.29.09.63,0,.71-.3s-.16-.54-.44-.63c-.07,0-.39-.1-.35.08s.29.2.43.26.25.21.12.36-.33.14-.47.18a0,0,0,0,0,0,.05Z" style="fill:#0c0a35"/><path d="M11.34,24.42c-.24,0-.5-.36-.53-.58s0-.13,0-.48c-.12-1-.3-2.5-.32-3.48a23.56,23.56,0,0,1-.07-2.52,1.06,1.06,0,0,1,.21-.39.35.35,0,0,1,.35-.19,38.17,38.17,0,0,0,.09,5.69C11.08,23.12,11.37,23.77,11.34,24.42Z" style="fill:#990028"/><path d="M12,24.66a.58.58,0,0,1-.54.4,1.12,1.12,0,0,1-.6-.21l-.43-.26A2.63,2.63,0,0,1,9.75,24a.83.83,0,0,1-.15-.85.71.71,0,0,1,1.05-.45,5.74,5.74,0,0,1,1.29,1.37A.69.69,0,0,1,12,24.66Z" style="fill:#ffd6a1"/><path d="M11.07,25a.8.8,0,0,0,.88.22.51.51,0,0,0,.15-.79s-.06,0-.06,0,0,.5-.2.57a1,1,0,0,1-.71-.1,0,0,0,0,0-.06.07Z" style="fill:#0c0a35"/><path d="M12.47,12.88a.14.14,0,0,0,0-.28.14.14,0,0,0,0,.28Z" style="fill:#0c0a35"/><path d="M24.32,40.35a3.41,3.41,0,0,0-2.3-.72c-.5,0-1-.05-1.48-.05a5,5,0,0,0-1,.05,5,5,0,0,0-1.34.53c-.84.42-1.65.88-2.46,1.35a3.63,3.63,0,0,0-.64.47,2.91,2.91,0,0,0-.73,1.55,16.09,16.09,0,0,0,.34,6.13,2.87,2.87,0,0,0,.24.82,2.24,2.24,0,0,0,1.45.94,9.62,9.62,0,0,0,2.88.22,14.49,14.49,0,0,0,4.66-.9l-.06-1.29a.75.75,0,0,1,0-.26.84.84,0,0,1,.3-.35,10.13,10.13,0,0,0,2.25-3.24,3,3,0,0,0,.47-1.6A1,1,0,0,0,26,44c-.25.11-.5.33-.75.23s-.29-.4-.29-.65c0-.57,0-1.13,0-1.69A2.58,2.58,0,0,0,24.32,40.35Z" style="fill:#ffd6a1"/><path d="M23,48.29a3.45,3.45,0,0,1,.08,1.47A.52.52,0,0,1,23,50a.4.4,0,0,1-.32.12,16.82,16.82,0,0,1-3.24.18c-2.05-.28-1.91-1-1.93-1.27,0-.07.14-.08.2-.12a.16.16,0,0,1,.09,0l2.7-.49.94-.16A11.17,11.17,0,0,1,22.69,48C22.75,48,22.91,47.94,23,48.29Z" style="fill:#0c0a35"/><path d="M21.33,49.22A4.84,4.84,0,0,1,17.5,49a.52.52,0,0,1,.16-.34,3.93,3.93,0,0,1,2.47-1.34,4,4,0,0,1,2.72.67A2.84,2.84,0,0,1,21.33,49.22Z" style="fill:#fff"/><path d="M20.22,47.69a.9.9,0,0,0-.76.47.81.81,0,0,0,.35,1,1.16,1.16,0,0,0,1.3-.47.78.78,0,0,0-.18-.79A.89.89,0,0,0,20.22,47.69Z" style="fill:#0c0a35"/><path d="M13.83,41.33c.15-2.4.7-4.75,2.73-6a13.5,13.5,0,0,1,4.76-1.44,9.29,9.29,0,0,1,1.57-.16,10.32,10.32,0,0,1,2.26.35.49.49,0,0,1,.39.76A11.06,11.06,0,0,1,25.19,36a10.09,10.09,0,0,0-.52,4.62,8,8,0,0,1,.1,1c-.08.24-.32,0-.57.07-2.94.35-6.09-.56-9-.09a2.7,2.7,0,0,1-.8.06C14.13,41.63,13.81,41.6,13.83,41.33Z" style="fill:#d6002b"/><g style="clip-path:url(#clip-path-6)"><path d="M26.08,33.5a1.82,1.82,0,0,0-1.19,1.06,7.17,7.17,0,0,0-1,2.27c-.15.89-.18,1.84-.26,2.74s.27,1.83.1,2.77c0,.16.18.27.26.12a2.27,2.27,0,0,0,.13-1.39,10.32,10.32,0,0,1,.06-2.83,6.94,6.94,0,0,1,.52-2.5c.4-.75.66-1.62,1.44-2.06a.1.1,0,0,0-.07-.18Z" style="fill:#0c0a35"/><path d="M25.33,33a9.25,9.25,0,0,0-1.52,1.42,6.54,6.54,0,0,0-1,2.45,14.17,14.17,0,0,0,.09,5.58c0,.15.23.12.27,0a3.18,3.18,0,0,0-.08-1.78,10.19,10.19,0,0,1,.11-3.35,7.07,7.07,0,0,1,1-2.67c.36-.58,1-.94,1.25-1.58,0-.07-.08-.11-.13-.07Z" style="fill:#0c0a35"/><path d="M24.07,32.94a5.89,5.89,0,0,0-2.47,4,13.92,13.92,0,0,0-.38,2.73c0,1.09.47,2.08.31,3.18,0,.18.2.3.3.13a2,2,0,0,0,.1-1.56A9,9,0,0,1,21.84,38a9.21,9.21,0,0,1,2.29-5s0-.11-.06-.08Z" style="fill:#0c0a35"/><path d="M23,32.6a6.09,6.09,0,0,0-2.5,4.3,12.68,12.68,0,0,0,0,5.55.11.11,0,0,0,.21,0,7.55,7.55,0,0,0-.07-2.12,14.34,14.34,0,0,1,.21-3,8.19,8.19,0,0,1,.63-2.45c.4-.83,1.16-1.4,1.62-2.18,0-.06,0-.14-.09-.1Z" style="fill:#0c0a35"/><path d="M21.65,32.74c-1.5.83-2,2.36-2.35,3.93A11.89,11.89,0,0,0,19,39.25c0,1,.23,1.89.28,2.85a.23.23,0,0,0,.45.06,4.4,4.4,0,0,0-.11-1.87,11.41,11.41,0,0,1,.08-2.8,18.43,18.43,0,0,1,.5-2.32c.29-1,1.06-1.49,1.56-2.33,0-.06,0-.13-.1-.1Z" style="fill:#0c0a35"/><path d="M20.35,32.75c-1.34.51-1.87,2.31-2.17,3.56A19.94,19.94,0,0,0,17.81,39a10.18,10.18,0,0,0,.05,3.57.1.1,0,0,0,.2,0,10,10,0,0,0,.18-2.39A31.36,31.36,0,0,1,18.5,37a7.58,7.58,0,0,1,1.9-4.12s0-.11,0-.09Z" style="fill:#0c0a35"/><path d="M18.91,33.06a4.55,4.55,0,0,0-2,3.61A23.85,23.85,0,0,0,16.51,43c0,.11.18.11.23,0a3.06,3.06,0,0,0,.17-1.65,28.58,28.58,0,0,1,.2-3.06c.23-2,.37-3.73,1.84-5.23,0,0,0-.08,0-.06Z" style="fill:#0c0a35"/><path d="M17,33.87a6.73,6.73,0,0,0-1.69,3.75,9.13,9.13,0,0,0-.08,2.09,5.62,5.62,0,0,0,.3,2.13c.07.14.24,0,.26-.07.16-1.25-.1-2.49,0-3.75a9.14,9.14,0,0,1,.51-2.2A7.45,7.45,0,0,1,17,33.89s0,0,0,0Z" style="fill:#0c0a35"/><path d="M15,35.65a6.19,6.19,0,0,0-.91,3.09,6.75,6.75,0,0,0,.28,3.34.11.11,0,0,0,.2,0,13.83,13.83,0,0,0,0-2.95c0-1.16.42-2.27.47-3.43,0,0-.06,0-.08,0Z" style="fill:#0c0a35"/></g><path d="M16.4,40.39a2.42,2.42,0,0,1,.86,2,3.7,3.7,0,0,1-.78,1.24A1.3,1.3,0,0,0,16.24,45c.2.33.62.44.93.67a1.49,1.49,0,0,1,.5,1.67,9.92,9.92,0,0,1-.53,1,2.44,2.44,0,0,0,.12,2.17,4.87,4.87,0,0,0,1.53,1.63c-.94,0-1.84,0-2.78-.08a6.47,6.47,0,0,1-1.52-.2,3.2,3.2,0,0,1-2-1.82c-.21-.52-.28-1.08-.47-1.6a9.32,9.32,0,0,0-.57-1.14c-1.11-2.06-1.71-4.38-3-6.34-.09-.12-.17-.3-.08-.42a.34.34,0,0,1,.24-.11,24.64,24.64,0,0,1,3.1,0c1,0,2-.24,3.07-.31A1.83,1.83,0,0,1,16.4,40.39Z" style="fill:#d6002b"/><path d="M13.91,53a22.36,22.36,0,0,0,.2,4.46c.12.92.38,1.85.44,2.5.11,1.07.83.86.86.53A42.41,42.41,0,0,1,16,54.94a.51.51,0,0,1,.93-.07,15.08,15.08,0,0,1,.43,2.72A8.38,8.38,0,0,0,18,60.82c.15.18.47.2.55,0,.74-2.09-.21-5.82,1-6.27a.43.43,0,0,1,.54.32c.41,1.92-.1,4.09.83,5.83.06.11.14.23.26.25s.32-.17.39-.34c.8-1.92-.13-5.55.62-6.21.28-.24.5-.09.54.28.31,3.27.6,5.45,1.27,5.72.36.15.53-1,.52-1.44-.07-2.33-.21-4.66-.34-7,0,.05,0,.09,0,.05s-.09-.05-.14-.05l-9.58.68a.76.76,0,0,0-.33.11A.47.47,0,0,0,13.91,53Z" style="fill:#f70032"/><path d="M24.25,50.76c-.34-.41-8.58.44-10.35.53a.46.46,0,0,0-.39.28,1.61,1.61,0,0,0,0,1.06.38.38,0,0,0,.1.21.43.43,0,0,0,.37.08l7.67-.48,2.19-.14a1,1,0,0,0,.47-.14c.37-.22.3-.52.23-.79A1.58,1.58,0,0,0,24.25,50.76Z" style="fill:#0c0a35"/><path d="M24.09,60.34a.3.3,0,1,0,.3.3.31.31,0,0,0-.3-.3Z" style="fill:#0c0a35"/><path d="M21.22,60.74a.3.3,0,0,0,0,.59.3.3,0,0,0,0-.59Z" style="fill:#0c0a35"/><path d="M18.32,60.86a.32.32,0,0,0,0,.64.32.32,0,0,0,0-.64Z" style="fill:#0c0a35"/><path d="M15.06,60.62a.32.32,0,0,0-.32.32.32.32,0,0,0,.32.32.32.32,0,0,0,.32-.32.33.33,0,0,0-.32-.32Z" style="fill:#0c0a35"/><path d="M23.72,55.07a8.92,8.92,0,0,0-.1-2.36.21.21,0,0,0-.42,0,15.51,15.51,0,0,0,.33,2.34.1.1,0,0,0,.19,0Z" style="fill:#0c0a35"/><path d="M21.11,55.18a4.4,4.4,0,0,0,.14-1.3c0-.35,0-.85-.28-1.09a.2.2,0,0,0-.33.09A3.41,3.41,0,0,0,20.73,54a7.55,7.55,0,0,0,.17,1.16.11.11,0,0,0,.21,0Z" style="fill:#0c0a35"/><path d="M18.17,55.33c-.1-.7-.11-1.41-.15-2.11a.26.26,0,0,0-.52,0,8.27,8.27,0,0,0,.36,2.15c.05.17.33.14.31,0Z" style="fill:#0c0a35"/><path d="M14.89,55.37a2.94,2.94,0,0,0,.28-1.83.3.3,0,0,0-.59,0c0,.28,0,.56,0,.84s0,.61,0,.92a.15.15,0,0,0,.27.07Z" style="fill:#0c0a35"/><g style="clip-path:url(#clip-path-7)"><path d="M16.89,51.48A4.61,4.61,0,0,1,16.28,50a5.33,5.33,0,0,1,.36-2.49c.18-.92-.81-1.39-1.36-1.93-1.26-1.22,1.16-2.88,1.3-4.13a3.2,3.2,0,0,0-1.52-2.59c-.07,0-.17.05-.12.12a7.38,7.38,0,0,1,1.2,1.67c.45,1.09-.38,1.73-.94,2.51s-.95,1.79-.32,2.53a12.46,12.46,0,0,0,1.17,1c.65.63-.15,1.66-.17,2.34a2.83,2.83,0,0,0,1,2.5s0,0,0,0Z" style="fill:#0c0a35"/><path d="M15.77,51.37c-1.41-.9-.24-2.16-.39-3.35a1.47,1.47,0,0,0-.48-.7,4.63,4.63,0,0,1-1.36-1.77c-.51-1.62,1.21-2.47,1.69-3.81a1.9,1.9,0,0,0-.83-2.37.12.12,0,0,0-.17.17c.14.22.3.43.46.64.5.67.15,1.33-.21,2s-.89,1-1.2,1.64a2.8,2.8,0,0,0,.38,3c.43.51,1.41,1,1.26,1.82a8.21,8.21,0,0,0-.3,1.41c0,.68.31,1.57,1.12,1.53a.07.07,0,0,0,0-.12Z" style="fill:#0c0a35"/><path d="M14.61,51.64a4,4,0,0,1-.73-1.26c-.2-.5.19-1.45.12-2a1.49,1.49,0,0,0-.61-1,3.87,3.87,0,0,1-1.46-1.77c-.78-2.47,3.26-4.78.46-6.88-.16-.12-.37.11-.27.26.66.92,1,1.55.54,2.7-.25.57-.64,1.07-.85,1.66A3.44,3.44,0,0,0,12,46.71a8,8,0,0,0,1.25,1.15c.75.69,0,1.61.14,2.39.09.41.57,1.58,1.17,1.46a0,0,0,0,0,0-.07Z" style="fill:#0c0a35"/><path d="M12.24,51.59c.85-.16.75-1.47.73-2.12,0-1.39-1.2-1.81-2.07-2.7-.5-.52-.33-1.24-.28-1.9a10.64,10.64,0,0,1,.92-2.93c.45-1.15.15-3-1.33-3.19-.12,0-.14.13-.08.2.68.87,1.26,1.32,1,2.54-.15.72-.57,1.4-.78,2.11a5.41,5.41,0,0,0-.17,3c.28.77,1.24,1.23,1.84,1.7a1.84,1.84,0,0,1,.57,1.58c0,.34.08,1.53-.37,1.68a0,0,0,1,0,0,.05Z" style="fill:#0c0a35"/><path d="M8.48,44c1.21.84,2.86-3.84,1-4.91-.06,0-.16,0-.11.11a3.29,3.29,0,0,1,.44,2.76c-.15.69-.63,1.69-1.36,1.89a.08.08,0,0,0,0,.15Z" style="fill:#0c0a35"/><path d="M7.93,42.87c.58.11,1.05-.58,1.24-1a2.33,2.33,0,0,0-.41-2.36c0-.05-.14,0-.13,0a6.46,6.46,0,0,1,.26,1.85,2.64,2.64,0,0,1-1,1.41.06.06,0,0,0,0,.1Z" style="fill:#0c0a35"/></g><path d="M25.4,43.67a2.67,2.67,0,0,0-.29-1.94.7.7,0,0,0-1-.37,2.14,2.14,0,0,0-1.33,1.88,2.79,2.79,0,0,0-2.37-1.8c-1-.18-2.1-.06-3.14-.23a4.11,4.11,0,0,0,.87,1.65,4.29,4.29,0,0,0,1.29,1.29,4.33,4.33,0,0,0,1.82.37,12.31,12.31,0,0,0,3.43-.14,1,1,0,0,0,.37-.14A1,1,0,0,0,25.4,43.67Z" style="fill:#d6002b"/><g style="clip-path:url(#clip-path-8)"><path d="M23.41,45a3.7,3.7,0,0,0,0-.94,2.91,2.91,0,0,1,1-2.13,2.65,2.65,0,0,0,.9-2.1.1.1,0,0,0-.18-.05,16.72,16.72,0,0,1-.86,1.61c-.27.31-.55.59-.79.92A2.8,2.8,0,0,0,23.34,45s.07,0,.07,0Z" style="fill:#0c0a35"/><path d="M24.08,45c0-.31.05-.61.06-.92a2.64,2.64,0,0,1,.91-1.6,2.22,2.22,0,0,0,.72-1.75.1.1,0,0,0-.19,0,9.57,9.57,0,0,1-1.31,2c-.62.8-.43,1.31-.31,2.25,0,.06.11.09.12,0Z" style="fill:#0c0a35"/><path d="M24.49,44.87a8.34,8.34,0,0,0,.26-.85,1.7,1.7,0,0,1,.75-.88,1.76,1.76,0,0,0,.74-.88c0-.07-.07-.12-.11-.07-.39.38-.89.61-1.27,1s-.36,1.1-.44,1.67c0,0,0,.06.07,0Z" style="fill:#0c0a35"/><path d="M22.76,45c.28-1-.62-1.91-1.16-2.63s-1.7-1.8-2.7-1.64a.11.11,0,0,0,0,.19,9,9,0,0,1,2.39,1.72A6.19,6.19,0,0,1,22.7,45a0,0,0,0,0,.06,0Z" style="fill:#0c0a35"/><path d="M22.08,45.13c.37-.58-.72-1.58-1-2a4.77,4.77,0,0,0-1.15-1.22c-.43-.29-.87-.54-1.27-.86s-.51-.61-.81-.87a.09.09,0,0,0-.16.09c.3,1,1.2,1.46,2,2a6.76,6.76,0,0,1,1.44,1.58c.3.38.77.74.87,1.24,0,0,0,0,.06,0Z" style="fill:#0c0a35"/><path d="M21,45.09c.25-.88-.64-1.57-1.23-2.09a16.82,16.82,0,0,1-1.35-1.32,7.3,7.3,0,0,1-1.16-1.82.1.1,0,0,0-.18,0c-.25,1.11.52,1.67,1.21,2.41s2.29,1.56,2.58,2.8a.07.07,0,0,0,.13,0Z" style="fill:#0c0a35"/></g><g style="clip-path:url(#clip-path-9)"><path d="M26.08,43.67a3.94,3.94,0,0,1-2,.76,1.65,1.65,0,0,0-1.14.46c-.49.53.06,1.2.64,1.31.15,0,.22-.2.06-.24-.33-.08-.67-.22-.68-.61s.54-.62.87-.69a5.87,5.87,0,0,0,1.31-.27,2.12,2.12,0,0,0,1-.7s0,0,0,0Z" style="fill:#0c0a35"/></g><path d="M23.75,55.65a.17.17,0,0,0,0,.33.17.17,0,0,0,0-.33Z" style="fill:#0c0a35"/><path d="M23.86,56.25h0a.16.16,0,0,0,0,.32h0c.21,0,.21-.35,0-.32Z" style="fill:#0c0a35"/><path d="M23.91,56.85a.15.15,0,0,0,0,.3.15.15,0,0,0,0-.3Z" style="fill:#0c0a35"/><path d="M21,55.72a.21.21,0,0,0,0,.41.21.21,0,0,0,0-.41Z" style="fill:#0c0a35"/><path d="M21,56.46h0l.14,0h0a.2.2,0,0,0-.25.25.21.21,0,0,0,.34.09.21.21,0,0,0,0-.31.14.14,0,0,0-.21,0Z" style="fill:#0c0a35"/><path d="M21.12,57.07a.2.2,0,0,0,0,.4.2.2,0,0,0,0-.4Z" style="fill:#0c0a35"/><path d="M18,56h0a.27.27,0,1,0,.14.52h0a.27.27,0,0,0,.19-.33A.28.28,0,0,0,18,56Z" style="fill:#0c0a35"/><path d="M18,56.8v0a.21.21,0,0,0,.33.25l0,0c.22-.21-.19-.53-.34-.26Z" style="fill:#0c0a35"/><path d="M18,57.5s0,0,0,0c-.09.26.4.26.31,0v0a.15.15,0,0,0-.29,0Z" style="fill:#0c0a35"/><path d="M14.87,55.92a.28.28,0,0,0,0,.55.28.28,0,0,0,0-.55Z" style="fill:#0c0a35"/><path d="M14.87,56.73a.22.22,0,0,0,0,.44.22.22,0,0,0,0-.44Z" style="fill:#0c0a35"/><path d="M14.92,57.33h0c-.1,0-.21.06-.21.17a.17.17,0,0,0,.21.16h0a.16.16,0,0,0,0-.31Z" style="fill:#0c0a35"/><path d="M30.1,31.08h.09l.1.05a.21.21,0,0,0-.18-.06l.1,0h0a.18.18,0,0,0-.26.22h0a.22.22,0,0,0,.22.19.23.23,0,0,0,.22-.21c0-.13-.14-.29-.27-.18Z" style="fill:#0c0a35"/><path d="M30.22,30.19h0a.27.27,0,0,0,0,.53h0c.34,0,.3-.58,0-.53Z" style="fill:#0c0a35"/><path d="M30.38,29.23a.22.22,0,0,0-.18,0,.2.2,0,0,0,0,.35h0a.21.21,0,0,0,.25-.05.22.22,0,0,0,0-.3.2.2,0,0,0-.08,0Z" style="fill:#0c0a35"/><path d="M30.49,28.41h0a.18.18,0,0,0-.07.36h0a.18.18,0,1,0,.07-.35Z" style="fill:#0c0a35"/><path d="M30.58,27.7a.14.14,0,0,0,0,.27.14.14,0,0,0,0-.27Z" style="fill:#0c0a35"/><path d="M28.64,27.15l0,0a.1.1,0,0,0,.11.17l0,0c.12-.06,0-.27-.12-.18Z" style="fill:#0c0a35"/><path d="M28.41,27.7a.32.32,0,0,0-.14-.08C28,27.56,28,28,28.2,28a.29.29,0,0,0,.16,0,.16.16,0,0,0,.05-.27Z" style="fill:#0c0a35"/><path d="M27.89,28.27a.22.22,0,0,0-.09.44.22.22,0,0,0,.09-.44Z" style="fill:#0c0a35"/><path d="M27.65,29.17a.21.21,0,0,0-.09.42.21.21,0,0,0,.09-.42Z" style="fill:#0c0a35"/><path d="M27.5,29.92a.2.2,0,0,0-.08.4.2.2,0,0,0,.08-.4Z" style="fill:#0c0a35"/><path d="M28.77,25.62c.33.05.44.43,0,1.63a5.24,5.24,0,0,0-.3,2.92c.16.71.38,1.86-.2,1.84s-1-1-1.08-2a7.06,7.06,0,0,1,.35-2.62C27.76,26.62,28.41,25.58,28.77,25.62Z" style="fill:#990028"/><path d="M31.16,26c.41,0,.75.18.57,1.71s-.77,4.55-1.38,4.72-.74-.18-.74-.73S30.4,26,31.16,26Z" style="fill:#990028"/><path d="M28.18,27.23a.35.35,0,0,0,.17,0,.2.2,0,0,0,.08-.37.28.28,0,0,0-.18,0,.19.19,0,0,0-.07.36Z" style="fill:#0c0a35"/><path d="M28.12,27.77a.3.3,0,0,0-.34.23.29.29,0,0,0,.57.12.3.3,0,0,0-.23-.35Z" style="fill:#0c0a35"/><path d="M27.72,29.41l0,0a.28.28,0,1,0,.11-.54h0a.27.27,0,0,0-.1.51Z" style="fill:#0c0a35"/><path d="M27.68,30.44a.32.32,0,0,0,.41,0,.25.25,0,0,0,.06-.33.32.32,0,0,0-.39-.12.24.24,0,0,0-.08.4Z" style="fill:#0c0a35"/><path d="M28,31.46a.17.17,0,0,0,.12,0,.19.19,0,0,0,.07-.38h-.12a.19.19,0,0,0-.07.35Z" style="fill:#0c0a35"/><path d="M30.37,31.93h0a.22.22,0,0,0,0-.37h0a.22.22,0,1,0,0,.38Z" style="fill:#0c0a35"/><path d="M30.48,31.09h0a.24.24,0,0,0,.06-.32h0c-.1-.21-.41-.11-.45.08s.21.41.38.26Z" style="fill:#0c0a35"/><path d="M30.65,30.17a.34.34,0,0,0,.12-.06.29.29,0,0,0,.12-.34.29.29,0,0,0-.3-.2h-.06a.33.33,0,0,0-.29.33.31.31,0,0,0,.41.27Z" style="fill:#0c0a35"/><path d="M30.76,28.57a.31.31,0,0,0-.12.6.31.31,0,0,0,.12-.6Z" style="fill:#0c0a35"/><path d="M31,27.64a.23.23,0,0,0-.09.46.23.23,0,0,0,.09-.46Z" style="fill:#0c0a35"/><path d="M31.09,26.94a.19.19,0,0,0-.07.38c.24.05.31-.33.07-.38Z" style="fill:#0c0a35"/><path d="M31.24,26.65h0a.11.11,0,0,0,0-.15h0a.13.13,0,0,0-.23,0,.12.12,0,0,0,.19.13Z" style="fill:#0c0a35"/><path d="M28.59,26.3a.16.16,0,0,0-.07.31.16.16,0,0,0,.07-.31Z" style="fill:#0c0a35"/><path d="M34.29,26.68c-.33,0-.56.23-.64,1.49A5.22,5.22,0,0,1,32.79,31c-.43.59-1.08,1.57-.54,1.77s1.32-.54,1.78-1.41a7.78,7.78,0,0,0,.7-2.55C34.87,28,34.68,26.72,34.29,26.68Z" style="fill:#990028"/><path d="M34.21,28.39a.51.51,0,0,1-.17,0,.2.2,0,0,1,.07-.37.37.37,0,0,1,.18,0,.19.19,0,0,1-.08.36Z" style="fill:#0c0a35"/><path d="M34.05,28.92a.29.29,0,0,1,.23.34.29.29,0,1,1-.57-.12.29.29,0,0,1,.34-.22Z" style="fill:#0c0a35"/><path d="M33.79,30.58h0a.28.28,0,0,1-.29-.33.28.28,0,0,1,.4-.2l0,0a.27.27,0,0,1-.1.51Z" style="fill:#0c0a35"/><path d="M33.42,31.55a.32.32,0,0,1-.39-.12.24.24,0,0,1,.07-.33.31.31,0,0,1,.4,0,.25.25,0,0,1-.08.41Z" style="fill:#0c0a35"/><path d="M32.74,32.37h-.12A.19.19,0,0,1,32.7,32l.11,0a.19.19,0,0,1-.07.35Z" style="fill:#0c0a35"/><path d="M34.2,27.38a.16.16,0,0,1-.06.31.16.16,0,0,1,.06-.31Z" style="fill:#0c0a35"/><path d="M28.22,50a.48.48,0,0,0,.17-.1.67.67,0,0,0,.19-.54.66.66,0,0,0-.28-.49.48.48,0,0,0-.3-.09c-.24,0-.36.29-.42.52a.49.49,0,0,0,.18.57A.53.53,0,0,0,28.22,50Z" style="fill:#990028"/><path d="M27.75,49.57a7.26,7.26,0,0,1-.9-.2,1.78,1.78,0,0,1,1.1-.25c-.05.14.1.33,0,.42A.21.21,0,0,1,27.75,49.57Z" style="fill:#990028"/><path d="M30.78,44.93a2.68,2.68,0,0,0-1.91.2A1.66,1.66,0,0,0,28,46.77a1.49,1.49,0,0,0,.31.69,1.37,1.37,0,0,0,.57.47A3.17,3.17,0,0,0,31.94,47a1.44,1.44,0,0,0,.23-.42,1.19,1.19,0,0,0-.31-1.13A2.29,2.29,0,0,0,30.78,44.93Z" style="fill:#990028"/><path d="M33.82,47.58a2.49,2.49,0,0,0,2-2,4.65,4.65,0,0,0-.54-2.93.32.32,0,0,0-.1-.13c-.53.62-3.44,3.12-4,4.08a2.09,2.09,0,0,0,.72.56A3,3,0,0,0,33.82,47.58Z" style="fill:#990028"/><path d="M28.53,46.14a.38.38,0,0,1,.21.12c.56.45,1.43.92,1.56,1.63a12.56,12.56,0,0,0-2.05,2A13.21,13.21,0,0,1,28,46.46c0-.14.12,0,.19-.13A.34.34,0,0,1,28.53,46.14Z" style="fill:#990028"/><path d="M28.59,50.24c.05.15.23.2.39.21a.42.42,0,0,0,.37-.14.34.34,0,0,0,0-.31.63.63,0,0,0-.23-.23.32.32,0,0,0,.43-.18.38.38,0,0,0-.21-.37,3.12,3.12,0,0,0-.43-.15,2.09,2.09,0,0,1-.43-.25c-.13.25-.26.5-.38.75a3.59,3.59,0,0,0-.17.34,1.21,1.21,0,0,0-.11.37.47.47,0,0,0,.14.36.41.41,0,0,0,.11.07.45.45,0,0,0,.45-.05A.31.31,0,0,0,28.59,50.24Z" style="fill:#990028"/><path d="M31.25,46.36a1.5,1.5,0,0,0-1.75-.51c-.45.23-1.09.79-.84,1.35a.08.08,0,0,0,.15,0,2,2,0,0,1,.73-1,1.41,1.41,0,0,1,1.63.27c.06,0,.14,0,.08-.09Z" style="fill:#0c0a35"/><g style="clip-path:url(#clip-path-10)"><path d="M32.91,46.93c1,.71,1.82-.47,2.13-1.3a3.08,3.08,0,0,0-.94-3.33c-.05,0-.14,0-.12.09a7.66,7.66,0,0,1,.77,2.18c.06,1-.63,2.38-1.82,2.28,0,0,0,0,0,.08Z" style="fill:#0c0a35"/><path d="M32.93,46.42c1.48-.12,1.43-2.65.37-3.27a.09.09,0,0,0-.13.1c.13.47.37.89.46,1.36a1.58,1.58,0,0,1-.73,1.68s0,.14,0,.13Z" style="fill:#0c0a35"/><path d="M32.71,46a1.18,1.18,0,0,0-.29-2.05c-.08,0-.13.07-.1.13.27.61.86,1.12.28,1.77-.07.08,0,.21.11.15Z" style="fill:#0c0a35"/></g><path d="M28,33.28a1.2,1.2,0,0,0-.38,0,.84.84,0,0,0-.53.58,4.27,4.27,0,0,0-.11.81,3.77,3.77,0,0,1-.27,1.1,4.6,4.6,0,0,0-.35,1,2.65,2.65,0,0,0,.88,1.93c.48.56,1,.67,1.51,1.9.25.63.34,1,.47,1s.38-.14.46-.25a2,2,0,0,0,0-1.19,5.81,5.81,0,0,0-.42-1.64c-.14-.35-.1-.15-.28-.48.31-.33.65-.07,1.07-.24s.55-.69.59-1.14a7.9,7.9,0,0,0,0-1.46,2.15,2.15,0,0,0-.69-1.52,2.41,2.41,0,0,0-1.3-.37Z" style="fill:#fcc07e"/><path d="M29.35,37.12c-.23-.28-.67-.58-.59-1s.61-.15.82-.11a.06.06,0,0,0,.07-.09c-.16-.33-.84-.26-1,0a.68.68,0,0,0,0,.7,1.32,1.32,0,0,0,.67.56s.07,0,0-.06Z" style="fill:#0c0a35"/><path d="M29.49,35.79c-.12-.14-.3-.19-.43-.31a.48.48,0,0,1-.1-.61c.2-.24.57-.09.82,0,0,0,.08,0,.06-.08-.17-.34-.79-.22-1,0a.53.53,0,0,0-.06.58.87.87,0,0,0,.23.31c.12.11.29.13.42.23a0,0,0,0,0,.07-.07Z" style="fill:#0c0a35"/><path d="M29.5,33.77c-.29-.08-.63,0-.72.31s.16.53.45.62c.07,0,.39.1.34-.08s-.28-.2-.42-.25S28.9,34.16,29,34s.33-.14.47-.18a0,0,0,0,0,0,0Z" style="fill:#0c0a35"/><path d="M29.32,37.79c.25,0,.51.36.54.58s0,.14,0,.48c.13,1,.31,2.51.33,3.49s.13,1.67.06,2.51a1,1,0,0,1-.2.39.37.37,0,0,1-.35.19,39.42,39.42,0,0,0-.09-5.68C29.59,39.09,29.3,38.44,29.32,37.79Z" style="fill:#990028"/><path d="M28.63,37.55a.58.58,0,0,1,.54-.4,1.1,1.1,0,0,1,.59.22l.44.25a2.63,2.63,0,0,1,.72.56.83.83,0,0,1,.14.85.7.7,0,0,1-1,.45,5.89,5.89,0,0,1-1.3-1.36A.68.68,0,0,1,28.63,37.55Z" style="fill:#ffd6a1"/><path d="M29.6,37.25a.79.79,0,0,0-.88-.21.5.5,0,0,0-.15.78s.06,0,.05,0c0-.19,0-.51.21-.58a1,1,0,0,1,.71.1,0,0,0,0,0,.06-.07Z" style="fill:#0c0a35"/><path d="M28.2,49.34a.13.13,0,0,0,0,.27.13.13,0,0,0,0-.27Z" style="fill:#0c0a35"/><path d="M27.81,24.41l0,0a.3.3,0,0,0-.41.2.29.29,0,0,0,.3.34h0a.27.27,0,0,0,.1-.51Z" style="fill:#0c0a35"/><path d="M11.18,38.25l0,0a.28.28,0,1,0-.1.54h0a.27.27,0,0,0,.1-.51Z" style="fill:#0c0a35"/><path d="M8.63,39.38l0,0a.28.28,0,1,0-.1.53h0a.27.27,0,0,0,.1-.51Z" style="fill:#0c0a35"/><path d="M12.36,37.64l0,0a.3.3,0,0,0-.41.2.29.29,0,0,0,.3.34h0a.27.27,0,0,0,.1-.51Z" style="fill:#0c0a35"/><path d="M10,38.85l0,0a.28.28,0,1,0-.1.54h0a.27.27,0,0,0,.1-.51Z" style="fill:#0c0a35"/><path d="M29.08,23.61h0a.28.28,0,0,0-.4.2.27.27,0,0,0,.3.33h0a.28.28,0,0,0,.1-.52Z" style="fill:#0c0a35"/><path d="M30.36,22.86h0a.28.28,0,1,0-.11.53h0a.28.28,0,0,0,.1-.52Z" style="fill:#0c0a35"/><path d="M31.56,22.26h0a.29.29,0,0,0-.41.2.28.28,0,0,0,.3.33h0a.28.28,0,0,0,.1-.52Z" style="fill:#0c0a35"/><path d="M5.66,12.43c.17-.15.35-.27.53-.4a3.24,3.24,0,0,0,.57-.47A1.27,1.27,0,0,0,7,11.07a1.16,1.16,0,0,0,0-.78.94.94,0,0,0-1.74.16s0,0,0,0h0s0,0,0,0a.94.94,0,0,0-1.74-.16,1.22,1.22,0,0,0,0,.78,1.44,1.44,0,0,0,.26.49,3.24,3.24,0,0,0,.57.47c.18.13.36.25.53.4s.46.48.46.48S5.57,12.51,5.66,12.43Z" style="fill:#d6002b"/><path d="M35.13,49.37c-.17.15-.36.27-.54.4a3.17,3.17,0,0,0-.56.47,1.14,1.14,0,0,0-.26.5,1.19,1.19,0,0,0,0,.77.94.94,0,0,0,1.74-.16.05.05,0,0,1,0,0h0s0,0,0,0a.94.94,0,0,0,1.74.16,1.19,1.19,0,0,0,0-.77,1.4,1.4,0,0,0-.26-.5,3.58,3.58,0,0,0-.56-.47,5.39,5.39,0,0,1-.54-.4l-.46-.48Z" style="fill:#d6002b"/><path d="M7.77,8.46H7L5.27,5.29,4,6.93V8.46H3.23V2.72H4V6.05l2.6-3.33h.78l-1.56,2Z" style="fill:#d6002b"/><path d="M33,53.26h.79l1.72,3.18,1.31-1.64V53.26h.72V59h-.72V55.68L34.19,59h-.77L35,57Z" style="fill:#d6002b"/><path d="M13.18,58.83H6.1a3.1,3.1,0,0,1-3-3.19V15.38h.19V55.64a2.92,2.92,0,0,0,2.81,3h7.08Z" style="fill:#d6002b"/><rect x="25.61" y="58.65" width="7.08" height="0.19" style="fill:#d6002b"/><path d="M37.65,46.54h-.19V6.08a2.92,2.92,0,0,0-2.82-3H27.48V2.89h7.16a3.11,3.11,0,0,1,3,3.19Z" style="fill:#d6002b"/><rect x="8.35" y="2.89" width="6.43" height="0.19" style="fill:#d6002b"/></g></g></g></svg>