<svg xmlns="http://www.w3.org/2000/svg" xmlns:xlink="http://www.w3.org/1999/xlink" viewBox="0 0 40.93 62.29"><defs><clipPath id="clip-path"><path d="M14.59,20.53a2.59,2.59,0,0,1,.37-.37.82.82,0,0,1,.73,0,3.49,3.49,0,0,0,.7.27A1.31,1.31,0,0,0,17.5,20c.29-.3.5-.67.77-1s.41-.43.59-.66a3,3,0,0,0,.53-2.6,3.17,3.17,0,0,0-1.74-2,.54.54,0,0,0-.25-.06.52.52,0,0,0-.29.11,7.31,7.31,0,0,0-.7.43,4.61,4.61,0,0,0-1.62,2,2.38,2.38,0,0,1-.36.71,2.76,2.76,0,0,1-.84.47,2.58,2.58,0,0,0-1.28,1.45,1.4,1.4,0,0,0,.38,1.67,1.82,1.82,0,0,0,.61.2A1.55,1.55,0,0,0,14.59,20.53Z" style="fill:#990028"/></clipPath><clipPath id="clip-path-2"><path d="M27.7,14.92a4.77,4.77,0,0,1-.15,1.77c-.1.28-.25.53-.32.81a.86.86,0,0,0,.16.82,4.1,4.1,0,0,0,.4.29,1.07,1.07,0,0,1,.2,1.27,2.26,2.26,0,0,1-1,.93,4.2,4.2,0,0,1-2.39.59,2.7,2.7,0,0,1-2.08-1.21,1.62,1.62,0,0,1-.27-1,1.36,1.36,0,0,1,.36-.94c.68-.62,1.31-.39,1.3-1.05,0-.48-.68-.54-.91-.57-.76-.09-2.19-1.08-.91-2.45a5.62,5.62,0,0,1,1.1-.84.86.86,0,0,0,.26-.24c.19-.32-.15-.72-.5-.83a5.51,5.51,0,0,1-1.08-.27,1.44,1.44,0,0,1-.58-1.16c0-.45,0-.91,0-1.35a2.47,2.47,0,0,0-.48-1.14,1.18,1.18,0,0,0-.42-.35,1.38,1.38,0,0,0-.49-.1c-.59,0-1.19-.07-1.78-.08a2,2,0,0,0-.91.15c-.91.46-1,2-1.88,2.53a1.88,1.88,0,0,1-1.38.11,1.68,1.68,0,0,1-1.1-1.14,1.6,1.6,0,0,1,.94-1.9c.37-.17.87-.21,1.08-.56s0-.68.11-1a1.91,1.91,0,0,1,1.49-1c.55,0,1.16,0,1.39.48.05.11.09.23.14.34a1.09,1.09,0,0,0,1.23.45,3.68,3.68,0,0,0,1.23-.66,2.63,2.63,0,0,1,1.27-.55,1.92,1.92,0,0,1,1.11.3A7,7,0,0,1,25.4,8.7a20.49,20.49,0,0,1,1.25,2.89A13.26,13.26,0,0,1,27.7,14.92Z" style="fill:none"/></clipPath><clipPath id="clip-path-3"><path d="M27.34,16.9c.36,0,.6-.33.81-.62A19.53,19.53,0,0,1,30,14.14a4.37,4.37,0,0,0,.6-.69.5.5,0,0,0,.1-.28.51.51,0,0,0-.19-.34c-.55-.55-1.17-1-1.66-1.61a11.52,11.52,0,0,1-1.36-2.15c-.45-1.55-.58-2.24.34-4.82a.4.4,0,0,0-.35-.54l-2.59-.14a.42.42,0,0,0-.3.12,5.58,5.58,0,0,0-.54,1,7.26,7.26,0,0,0-.93,1.51,6.94,6.94,0,0,0,.44,5.61,11.52,11.52,0,0,0,2.51,3.62C26.24,15.61,27.29,16.8,27.34,16.9Z" style="fill:none"/></clipPath><clipPath id="clip-path-4"><path d="M27.37,41.94a2.59,2.59,0,0,1-.37.37.85.85,0,0,1-.73,0,3.12,3.12,0,0,0-.69-.28,1.36,1.36,0,0,0-1.12.47c-.29.3-.5.67-.77,1s-.41.43-.59.66a3,3,0,0,0-.53,2.61,3.16,3.16,0,0,0,1.74,2,.55.55,0,0,0,.25.07.61.61,0,0,0,.29-.11,8.18,8.18,0,0,0,.7-.43,4.66,4.66,0,0,0,1.62-2.05,2.27,2.27,0,0,1,.36-.71,2.78,2.78,0,0,1,.84-.48,2.59,2.59,0,0,0,1.28-1.44,1.4,1.4,0,0,0-.38-1.67,1.63,1.63,0,0,0-.61-.2A1.52,1.52,0,0,0,27.37,41.94Z" style="fill:#990028"/></clipPath><clipPath id="clip-path-5"><path d="M14.26,47.55a5.06,5.06,0,0,1,.15-1.78c.1-.27.25-.53.32-.8a.88.88,0,0,0-.15-.82c-.12-.12-.28-.18-.41-.29a1.08,1.08,0,0,1-.2-1.27,2.39,2.39,0,0,1,1-.94,4.21,4.21,0,0,1,2.39-.59,2.73,2.73,0,0,1,2.08,1.21,1.65,1.65,0,0,1,.27,1,1.39,1.39,0,0,1-.35.94c-.69.62-1.32.39-1.31,1,0,.48.68.54.91.57.76.09,2.19,1.07.91,2.44a5.32,5.32,0,0,1-1.09.85.69.69,0,0,0-.27.24c-.19.32.15.71.5.82a5.35,5.35,0,0,1,1.08.28,1.41,1.41,0,0,1,.58,1.16c0,.45,0,.9,0,1.35a2.51,2.51,0,0,0,.48,1.14,1.29,1.29,0,0,0,.42.35,1.71,1.71,0,0,0,.49.1c.59,0,1.19.07,1.78.07a2,2,0,0,0,.91-.14c.92-.47,1-2,1.89-2.54a1.8,1.8,0,0,1,1.37-.1,1.66,1.66,0,0,1,1.1,1.13,1.61,1.61,0,0,1-.94,1.91c-.37.17-.86.21-1.08.55-.32.51,0,.68-.11,1a1.85,1.85,0,0,1-1.49,1c-.55,0-1.16,0-1.39-.47-.05-.11-.08-.23-.14-.34a1.11,1.11,0,0,0-1.23-.46,3.87,3.87,0,0,0-1.23.66,2.56,2.56,0,0,1-1.27.56,2,2,0,0,1-1.11-.3,7.11,7.11,0,0,1-2.58-3.31,20.61,20.61,0,0,1-1.25-2.9A13.48,13.48,0,0,1,14.26,47.55Z" style="fill:none"/></clipPath><clipPath id="clip-path-6"><path d="M14.62,45.56c-.36,0-.59.34-.81.62A17,17,0,0,1,12,48.32a4.44,4.44,0,0,0-.6.7.56.56,0,0,0-.1.28.51.51,0,0,0,.2.34c.54.55,1.16,1,1.66,1.61a11.9,11.9,0,0,1,1.35,2.14c.45,1.55.59,2.24-.33,4.83a.4.4,0,0,0,.35.54l2.58.14a.42.42,0,0,0,.3-.12,5.58,5.58,0,0,0,.54-1,7.65,7.65,0,0,0,.94-1.51,7,7,0,0,0-.45-5.62,11.76,11.76,0,0,0-2.5-3.62C15.72,46.85,14.67,45.67,14.62,45.56Z" style="fill:none"/></clipPath></defs><title>hq</title><g id="Layer_2" data-name="Layer 2"><g id="Layer_1-2" data-name="Layer 1"><g id="hq"><rect x="0.09" y="0.09" width="40.74" height="62.1" rx="3.45" style="fill:#fff"/><path d="M37.39,62.29H3.54A3.55,3.55,0,0,1,0,58.75V3.54A3.55,3.55,0,0,1,3.54,0H37.39a3.55,3.55,0,0,1,3.54,3.54V58.75A3.55,3.55,0,0,1,37.39,62.29ZM3.54.19A3.35,3.35,0,0,0,.19,3.54V58.75A3.36,3.36,0,0,0,3.54,62.1H37.39a3.37,3.37,0,0,0,3.36-3.35V3.54A3.36,3.36,0,0,0,37.39.19Z" style="fill:#2d2d2d"/><path d="M31.37,38.73c0,.14-.35.47-.48.52-.85.35-3.81.53-4.7.75a3.66,3.66,0,0,0-2.43,1.6,2.81,2.81,0,0,0,0,2,2,2,0,0,1,.12.58,1.25,1.25,0,0,1-.22.62A4.29,4.29,0,0,1,22.25,46a5,5,0,0,1-3.05.91A2.33,2.33,0,0,1,18,46.5,3.36,3.36,0,0,1,17.19,44c-.05-.91.13-2.43-.66-2.89s-5.78-1.18-3-1.24a14.11,14.11,0,0,0,2.1-.2c.61-1,1.9-.55,2.7-1.38a5.9,5.9,0,0,1,2.1-1.54A6.92,6.92,0,0,1,23,36.46a5.16,5.16,0,0,1,1.42.16c1.15.36,1.92,1.49,3.05,1.9C27.9,38.68,31.36,38.67,31.37,38.73Z" style="fill:#ffd6a1"/><path d="M7.67,25.74A11.38,11.38,0,0,1,8,30.12a3.31,3.31,0,0,1-.2.88c-.34.83-1.22,1.5-1.58,2.32a2,2,0,0,0,.22,2A3.77,3.77,0,0,0,8.63,36.7a1.51,1.51,0,0,1,.3.1.58.58,0,0,1,.23.33c.18.47.31.63.49,1.1a5,5,0,0,0,.75,1.15,2.86,2.86,0,0,0,1.26.86,4.53,4.53,0,0,0,2.73.31,8.66,8.66,0,0,0,1.93-.48c.64-.26,3.48-1.56,4-1.93a5.36,5.36,0,0,1,5.07-.1,18.85,18.85,0,0,0,1.75,1.15,5.44,5.44,0,0,0,2.52.63,5.93,5.93,0,0,0,2.6-.73A3.16,3.16,0,0,0,34,37.19c.3-.82.59-1.65.89-2.48a8.08,8.08,0,0,0,.48-1.64,8,8,0,0,0,.08-1.38,35.47,35.47,0,0,0-.25-4.94,1.1,1.1,0,0,0-.23-.61.81.81,0,0,0-.76-.23,32.25,32.25,0,0,1-4.34.4,38.63,38.63,0,0,1-5.38,0l-5.86-.26-5.46-.25a17,17,0,0,1-1.9-.16c-.41-.07-.82-.17-1.24-.23A5.47,5.47,0,0,0,7.67,25.74Z" style="fill:#b70027"/><path d="M14.59,20.53a2.59,2.59,0,0,1,.37-.37.82.82,0,0,1,.73,0,3.49,3.49,0,0,0,.7.27A1.31,1.31,0,0,0,17.5,20c.29-.3.5-.67.77-1s.41-.43.59-.66a3,3,0,0,0,.53-2.6,3.17,3.17,0,0,0-1.74-2,.54.54,0,0,0-.25-.06.52.52,0,0,0-.29.11,7.31,7.31,0,0,0-.7.43,4.61,4.61,0,0,0-1.62,2,2.38,2.38,0,0,1-.36.71,2.76,2.76,0,0,1-.84.47,2.58,2.58,0,0,0-1.28,1.45,1.4,1.4,0,0,0,.38,1.67,1.82,1.82,0,0,0,.61.2A1.55,1.55,0,0,0,14.59,20.53Z" style="fill:#990028"/><g style="clip-path:url(#clip-path)"><path d="M12.68,21.6a2.91,2.91,0,0,1,.07-2.4c.38-.71,1.34-1.08,2-1.54a3.79,3.79,0,0,0,1.36-2.86s-.05-.07-.07,0c-.49.85-.44,1.76-1.2,2.5-.56.55-1.33.85-1.92,1.38a2.29,2.29,0,0,0-.24,3s.06,0,0,0Z" style="fill:#0c0a35"/><path d="M13.15,21.26A2.12,2.12,0,0,1,14,19.19c.5-.37,1-.69,1.54-1a2.27,2.27,0,0,0,1.24-2,.08.08,0,0,0-.15,0A3.63,3.63,0,0,1,15.13,18c-.51.35-1,.68-1.51,1.06a1.79,1.79,0,0,0-.56,2.2s.09,0,.09,0Z" style="fill:#0c0a35"/><path d="M13.56,21.48c.26-1.31,1.1-1.83,2.15-2.51a2.78,2.78,0,0,0,1.43-1.82c0-.09-.09-.14-.14-.06a4.84,4.84,0,0,1-1.17,1.46c-.47.36-1,.6-1.49,1a2.15,2.15,0,0,0-.87,1.93,0,0,0,0,0,.09,0Z" style="fill:#0c0a35"/><path d="M14.58,21.44a2.67,2.67,0,0,1,1.8-2,2.39,2.39,0,0,0,1.27-1.46c0-.06-.06-.11-.11-.08-.36.24-.49.67-.78,1s-1,.42-1.37.75a2.09,2.09,0,0,0-.88,1.84s.07,0,.07,0Z" style="fill:#0c0a35"/><path d="M15.61,21.47c.18-1.56,2.32-1.83,2.55-3.46,0-.07-.08-.12-.12-.05a6.18,6.18,0,0,1-.8,1.23,9.52,9.52,0,0,1-1,.79c-.41.32-1.11.94-.7,1.5,0,0,.06,0,.06,0Z" style="fill:#0c0a35"/></g><path d="M10.59,23.73c0-.13.36-.46.48-.52.85-.35,3.81-.52,4.7-.75a3.62,3.62,0,0,0,2.43-1.59,2.84,2.84,0,0,0,0-2,2.3,2.3,0,0,1-.12-.58,1.4,1.4,0,0,1,.22-.62,4.52,4.52,0,0,1,1.41-1.27,5,5,0,0,1,3.05-.9,2.12,2.12,0,0,1,1.16.44,3.35,3.35,0,0,1,.85,2.52c.05.91-.13,2.43.66,2.89s5.78,1.17,3,1.23a15.74,15.74,0,0,0-2.1.2c-.6,1-1.9.56-2.7,1.39a5.75,5.75,0,0,1-2.1,1.53A7.14,7.14,0,0,1,19,26a5.2,5.2,0,0,1-1.42-.16c-1.15-.36-1.92-1.49-3.05-1.91C14.06,23.79,10.6,23.8,10.59,23.73Z" style="fill:#ffd6a1"/><path d="M34.29,36.73a11.21,11.21,0,0,1-.36-4.38,3.45,3.45,0,0,1,.19-.89c.34-.82,1.23-1.49,1.59-2.31a2.06,2.06,0,0,0-.23-2,3.72,3.72,0,0,0-2.15-1.35,1.24,1.24,0,0,1-.29-.1.59.59,0,0,1-.24-.33c-.18-.47-.31-.63-.49-1.1a4.59,4.59,0,0,0-.75-1.16,2.94,2.94,0,0,0-1.26-.86,4.6,4.6,0,0,0-2.73-.31,9.41,9.41,0,0,0-1.93.49c-.64.25-3.47,1.55-4,1.92a5.33,5.33,0,0,1-5.07.11c-.62-.36-1.08-.85-1.75-1.16a5.42,5.42,0,0,0-2.51-.62,5.8,5.8,0,0,0-2.61.73A3.17,3.17,0,0,0,8,25.27c-.29.83-.59,1.66-.89,2.48a9.1,9.1,0,0,0-.48,1.65,9.12,9.12,0,0,0-.07,1.38,34,34,0,0,0,.24,4.94,1.1,1.1,0,0,0,.23.61.82.82,0,0,0,.76.23,32.4,32.4,0,0,1,4.34-.4,37.15,37.15,0,0,1,5.38,0l5.86.27,5.46.25a13.28,13.28,0,0,1,1.9.16c.42.07.82.17,1.24.22A5.47,5.47,0,0,0,34.29,36.73Z" style="fill:#b70027"/><path d="M23.05,18.41a1.29,1.29,0,0,1,.23,1,1.15,1.15,0,0,1-.36.43,5.82,5.82,0,0,1-4.84,1.17c.29-.39.3-1.05.36-1.05a4.88,4.88,0,0,0,4.42-1.77C23,18.24,23,18.33,23.05,18.41Z" style="fill:#990028"/><path d="M19.69,24a.46.46,0,0,1-.56-.07.78.78,0,0,1-.21-.57,2.58,2.58,0,0,1,.13-.6l.24-.76a1.87,1.87,0,0,1,.33-.68s.09-.06.12,0,0,0,0,.05a5.21,5.21,0,0,1,.15,2.25A.72.72,0,0,1,19.69,24Z" style="fill:#0c0a35"/><path d="M16.73,22.63a.42.42,0,0,1,0-.5,1.45,1.45,0,0,1,.38-.36,6.25,6.25,0,0,0,.88-.65c.14-.13.19,0,.19.14a2.54,2.54,0,0,1-.3.82,1.09,1.09,0,0,1-.7.63A.42.42,0,0,1,16.73,22.63Z" style="fill:#0c0a35"/><path d="M21.83,22.74a.57.57,0,0,0,.62-.1.93.93,0,0,0,.08-.62,1.72,1.72,0,0,0-.76-1.15c-.06-.06-.17-.12-.23-.05a.17.17,0,0,0,0,.12c0,.34,0,.68,0,1S21.62,22.62,21.83,22.74Z" style="fill:#0c0a35"/><path d="M16.31,7.72c-.07,0-.16,0-.21.09-.53.75-.28,1.78-.41,2.69A3.8,3.8,0,0,1,15.07,12c-.39.53-.91.92-1,1.54,0,.12.08.2.19.23.27.08.68,0,.87.2a.41.41,0,0,1,.08.31,9.22,9.22,0,0,0,0,1.57c.14.61.68,1.06.92,1.65a5.66,5.66,0,0,1,.23.9,3.69,3.69,0,0,0,.55,1.19,1,1,0,0,0,1.08.32,7.12,7.12,0,0,0,1.67-1A6,6,0,0,0,21.49,17c.11-.23.2-.47.31-.7.33-.63.87-1.14,1.25-1.74a6.33,6.33,0,0,0,.78-2.73,4.94,4.94,0,0,0,0-1.33,3.32,3.32,0,0,0-1.14-1.93,4.38,4.38,0,0,0-2.06-.95,10.65,10.65,0,0,0-2-.13H17C16.8,7.44,16.34,7.5,16.31,7.72Z" style="fill:#ffd6a1"/><path d="M20.26,8.09s0,0,.06.06l.42.64a4.65,4.65,0,0,1-2.19.52,3.11,3.11,0,0,1-2.06-.83l.58-.54a3.38,3.38,0,0,0,3.05.17A.18.18,0,0,1,20.26,8.09Z" style="fill:#0c0a35"/><path d="M21.29,12.67a1.15,1.15,0,0,0-.61-.28,1.09,1.09,0,0,0-.72.19,1.11,1.11,0,0,0-.58.94,1.23,1.23,0,0,0,.89,1,1.08,1.08,0,0,0,1-.08,1.12,1.12,0,0,0,.37-.58A1,1,0,0,0,21.29,12.67Z" style="fill:#f70032"/><path d="M15.51,15c.11-.27.25-.5.55-.53a.48.48,0,0,1,.47.57,7.54,7.54,0,0,1-.72,2,3.83,3.83,0,0,1-1.1-1.9.59.59,0,0,1,.14-.43.39.39,0,0,1,.43-.09A.39.39,0,0,1,15.51,15Z" style="fill:#f70032"/><path d="M27.7,14.92a4.77,4.77,0,0,1-.15,1.77c-.1.28-.25.53-.32.81a.86.86,0,0,0,.16.82,4.1,4.1,0,0,0,.4.29,1.07,1.07,0,0,1,.2,1.27,2.26,2.26,0,0,1-1,.93,4.2,4.2,0,0,1-2.39.59,2.7,2.7,0,0,1-2.08-1.21,1.62,1.62,0,0,1-.27-1,1.36,1.36,0,0,1,.36-.94c.68-.62,1.31-.39,1.3-1.05,0-.48-.68-.54-.91-.57-.76-.09-2.19-1.08-.91-2.45a5.62,5.62,0,0,1,1.1-.84.86.86,0,0,0,.26-.24c.19-.32-.15-.72-.5-.83a5.51,5.51,0,0,1-1.08-.27,1.44,1.44,0,0,1-.58-1.16c0-.45,0-.91,0-1.35a2.47,2.47,0,0,0-.48-1.14,1.18,1.18,0,0,0-.42-.35,1.38,1.38,0,0,0-.49-.1c-.59,0-1.19-.07-1.78-.08a2,2,0,0,0-.91.15c-.91.46-1,2-1.88,2.53a1.88,1.88,0,0,1-1.38.11,1.68,1.68,0,0,1-1.1-1.14,1.6,1.6,0,0,1,.94-1.9c.37-.17.87-.21,1.08-.56s0-.68.11-1a1.91,1.91,0,0,1,1.49-1c.55,0,1.16,0,1.39.48.05.11.09.23.14.34a1.09,1.09,0,0,0,1.23.45,3.68,3.68,0,0,0,1.23-.66,2.63,2.63,0,0,1,1.27-.55,1.92,1.92,0,0,1,1.11.3A7,7,0,0,1,25.4,8.7a20.49,20.49,0,0,1,1.25,2.89A13.26,13.26,0,0,1,27.7,14.92Z" style="fill:#d6002b"/><path d="M14.79,15.6c.22.37.9.25,1.25.19A2.36,2.36,0,0,0,17.47,15a0,0,0,0,0,0-.06,8.77,8.77,0,0,1-1.22.52,5.5,5.5,0,0,1-1.4.06s0,0,0,0Z" style="fill:#0c0a35"/><path d="M18.32,19.8a6.29,6.29,0,0,0,2.32-1.57,3.3,3.3,0,0,0,1.07-1.81s-.05-.06-.07,0A3.62,3.62,0,0,1,20.45,18c-.37.33-.73.66-1.12,1s-.74.41-1.08.65a.08.08,0,0,0,.07.15Z" style="fill:#0c0a35"/><path d="M16.61,10.1c0,.13.1.33.27.31s0,0,0-.06-.18-.17-.24-.28-.06,0-.06,0Z" style="fill:#0c0a35"/><path d="M18.39,9.46a.34.34,0,0,0,0,.2c0,.12.2.12.19,0a.34.34,0,0,0,0-.2.08.08,0,0,0-.12,0Z" style="fill:#0c0a35"/><path d="M17.37,9.72a.24.24,0,0,0,.08.21c.08.09.23,0,.17-.13a.3.3,0,0,0-.17-.14.06.06,0,0,0-.08.06Z" style="fill:#0c0a35"/><path d="M20.16,10.43c.07,0,.12,0,.18-.06a.31.31,0,0,0,.14-.23s0-.05-.07,0a.43.43,0,0,0-.16.14s-.11.08-.11.16,0,0,0,0Z" style="fill:#0c0a35"/><path d="M19.39,9.9a.89.89,0,0,0,.15-.27s0,0,0,0a.36.36,0,0,0-.28.24.09.09,0,0,0,.17.07Z" style="fill:#0c0a35"/><path d="M17,11.58a1.63,1.63,0,0,1,.17-.2c.05-.05.09-.08.09-.16s0,0,0,0-.26.23-.3.36.05.07.08,0Z" style="fill:#0c0a35"/><path d="M17.89,11.83a.47.47,0,0,0,.07-.36s-.05-.05-.08,0-.14.25-.11.37.09.06.12,0Z" style="fill:#0c0a35"/><path d="M18.59,11.91c.07-.09.14-.26,0-.35a.09.09,0,0,0-.1,0c-.11.09,0,.26,0,.35Z" style="fill:#0c0a35"/><path d="M19.75,11.59a.59.59,0,0,0-.05-.19c0-.08-.05-.12-.13-.14s0,0-.05,0,0,.11,0,.18.06.15.12.18a.06.06,0,0,0,.1-.05Z" style="fill:#0c0a35"/><path d="M20.5,11.37c0-.1-.09-.25-.17-.29a.1.1,0,0,0-.14.14c0,.07.25.32.31.15Z" style="fill:#0c0a35"/><path d="M20.75,10.8a4,4,0,0,1-4.36.18,2.37,2.37,0,0,1,3.09-1,4.94,4.94,0,0,1,.49.3Z" style="fill:#fff"/><path d="M18.94,10.41a.69.69,0,0,0-.69-.23.58.58,0,0,0-.45.51.6.6,0,0,0,.38.5.7.7,0,0,0,.53.05A.52.52,0,0,0,18.94,10.41Z" style="fill:#0c0a35"/><g style="clip-path:url(#clip-path-2)"><path d="M15.56,5.63a1,1,0,0,0-.22.83c0,1.23-1,1.45-1.91,1.92A1.61,1.61,0,0,0,13,10.64c0,.07.14,0,.13-.05-.18-.93-.26-1.77.85-2.19a3.34,3.34,0,0,0,1-.52c.84-.65.35-1.37.69-2.19,0-.06-.06-.1-.11-.06Z" style="fill:#0c0a35"/><path d="M16.06,6.06a3,3,0,0,1-1.25,2.31,12.58,12.58,0,0,0-1.22.84,1.64,1.64,0,0,0-.07,2.09c.05.06.13,0,.12-.07-.24-1-.17-1.72.83-2.29a9,9,0,0,0,1-.65,2.42,2.42,0,0,0,.71-2.23,0,0,0,0,0-.08,0Z" style="fill:#0c0a35"/><path d="M16.86,5.69a10.44,10.44,0,0,1-.64,2.5c-.4.67-1.17,1-1.72,1.47a1.74,1.74,0,0,0-.34,2.11c.09.1.24,0,.18-.14-.82-1.43,1.15-2.21,1.89-3a3.89,3.89,0,0,0,.71-2.89,0,0,0,0,0-.08,0Z" style="fill:#0c0a35"/><path d="M14.81,11.53c-.13-1.21,1.69-2.22,2.35-3.09a4.43,4.43,0,0,0,.5-2.84.14.14,0,0,0-.28,0,14.51,14.51,0,0,1-.11,1.86,4.31,4.31,0,0,1-1.48,2.12c-.58.56-1.26,1.07-1.08,2,0,0,.1,0,.1,0Z" style="fill:#0c0a35"/><path d="M18.18,5.56a2.62,2.62,0,0,0-.11,1.28c0,.66-.48,1.26-.42,1.91a.08.08,0,0,0,.15,0c.46-.71.91-2.45.4-3.23Z" style="fill:#0c0a35"/><path d="M19.14,5.67a1.92,1.92,0,0,0-.43,1.16,2.46,2.46,0,0,0,.15,1.61c0,.05.12,0,.11,0a6.75,6.75,0,0,1,0-1.27,2.85,2.85,0,0,1,.28-1.42s0-.09-.07,0Z" style="fill:#0c0a35"/><path d="M20.19,5.79c-.42.19-.45.85-.51,1.23A2.74,2.74,0,0,0,20,9.17a.07.07,0,0,0,.12-.05c-.06-.26-.17-.49-.25-.74a3.12,3.12,0,0,1,0-1.29,2.57,2.57,0,0,1,.3-1.23s0-.08,0-.07Z" style="fill:#0c0a35"/><path d="M21.21,6.13c-.41-.28-.55.62-.59.85-.12.76-.25,1.92.37,2.5,0,0,.11,0,.09-.05a5.25,5.25,0,0,1-.23-2c0-.31,0-1.2.36-1.32,0,0,0,0,0,0Z" style="fill:#0c0a35"/><path d="M21.79,6.29c-.11,1.42-.43,3.37.21,4.71a1.72,1.72,0,0,0,2.32.91c.07,0,0-.14,0-.14a3.29,3.29,0,0,1-1.42-.2c-.62-.26-.77-1.19-.82-1.77-.11-1.16-.12-2.34-.21-3.51,0,0,0,0,0,0Z" style="fill:#0c0a35"/><path d="M22.41,6.44a6,6,0,0,0,0,3.32,1.87,1.87,0,0,0,2.13,1.43,0,0,0,0,0,0-.09c-1.15-.24-1.83-.67-2-1.93a9.55,9.55,0,0,1-.14-2.72s0,0,0,0Z" style="fill:#0c0a35"/><path d="M24.84,12.92c-.81.34-2.35,1-2.4,2.08-.07,1.25,1.41,1.08,2.12,1.67,1,.78-1,1.93-1.47,2.28a1.81,1.81,0,0,0-.59,1.15,1.76,1.76,0,0,0,1.43,2c.06,0,.1-.06,0-.09-1.39-.87-1.4-2.23-.08-3.19.59-.42,1.2-.88,1.23-1.66s-.63-1-1.15-1.14a6.69,6.69,0,0,1-.86-.29c-.93-.42-.14-1.29.18-1.6.46-.46,1.08-.75,1.56-1.2Z" style="fill:#0c0a35"/><path d="M25.46,13.17a2.44,2.44,0,0,0-2,1.49c-.24.56.41.87.82,1,1.08.43,2.25,1.38,1.11,2.6-.43.46-1,.72-1.41,1.2A1.87,1.87,0,0,0,24.34,22c.06.07.16,0,.12-.1-.45-.93-.81-1.67.1-2.57.31-.3.71-.54,1-.83a1.71,1.71,0,0,0,.5-1.67,1.89,1.89,0,0,0-1.2-1.25c-.39-.16-1.47-.28-1.14-1a2.85,2.85,0,0,1,1.72-1.29.07.07,0,0,0,0-.13Z" style="fill:#0c0a35"/><path d="M25.29,13.78c-.52.13-1.13.45-.82,1.06.12.24.62.39.84.51a2,2,0,0,1,1.25,1.89c.09,1.59-1.14,1.9-1.77,3.07-.43.8.29,1.72.8,2.27.05.06.14,0,.1-.08-.37-.71-.91-1.36-.46-2.2a4.17,4.17,0,0,1,1-.95,2.62,2.62,0,0,0,.74-1.83,2.42,2.42,0,0,0-.48-1.81,2.92,2.92,0,0,0-.76-.54,3.22,3.22,0,0,0-.5-.23c-.69-.27-.46-.84.1-1.14,0,0,0,0,0,0Z" style="fill:#0c0a35"/><path d="M26.25,22a1.51,1.51,0,0,1-.11-1.26,3.46,3.46,0,0,1,.52-1c.31-.47.78-.8,1.11-1.25a2.11,2.11,0,0,0,0-2.23c0-.06-.14,0-.13,0a2.71,2.71,0,0,1-.44,2.45,7.93,7.93,0,0,0-.91,1.1,2,2,0,0,0-.14,2.28.07.07,0,0,0,.1,0,.15.15,0,0,0,0-.09Z" style="fill:#0c0a35"/><path d="M27,21.62c-.15-.17,0-.85,0-1a2.16,2.16,0,0,1,.82-1.15,2.27,2.27,0,0,0,.86-1.77c0-.05-.07-.07-.09,0a4.88,4.88,0,0,1-.79,1.45,4.51,4.51,0,0,0-.91,1,1.67,1.67,0,0,0-.05,1.52.1.1,0,0,0,.07,0l.08,0s0,0,0,0Z" style="fill:#0c0a35"/></g><path d="M27.34,16.9c.36,0,.6-.33.81-.62A19.53,19.53,0,0,1,30,14.14a4.37,4.37,0,0,0,.6-.69.5.5,0,0,0,.1-.28.51.51,0,0,0-.19-.34c-.55-.55-1.17-1-1.66-1.61a11.52,11.52,0,0,1-1.36-2.15c-.45-1.55-.58-2.24.34-4.82a.4.4,0,0,0-.35-.54l-2.59-.14a.42.42,0,0,0-.3.12,5.58,5.58,0,0,0-.54,1,7.26,7.26,0,0,0-.93,1.51,6.94,6.94,0,0,0,.44,5.61,11.52,11.52,0,0,0,2.51,3.62C26.24,15.61,27.29,16.8,27.34,16.9Z" style="fill:#b70027"/><path d="M27.12,4.62a.33.33,0,1,0-.33-.33.33.33,0,0,0,.33.33Z" style="fill:#0c0a35"/><path d="M26.67,5.75a.33.33,0,1,0-.33-.33.33.33,0,0,0,.33.33Z" style="fill:#0c0a35"/><path d="M26.44,7a.31.31,0,0,0,0-.62.31.31,0,0,0,0,.62Z" style="fill:#0c0a35"/><path d="M26.43,8.28a.35.35,0,0,0,0-.69.35.35,0,0,0,0,.69Z" style="fill:#0c0a35"/><path d="M26.66,9.47A.33.33,0,0,0,27,9.14a.33.33,0,0,0-.65,0,.33.33,0,0,0,.33.33Z" style="fill:#0c0a35"/><path d="M27.08,10.53a.29.29,0,1,0-.29-.29.29.29,0,0,0,.29.29Z" style="fill:#0c0a35"/><path d="M27.63,11.5a.33.33,0,0,0,0-.65.33.33,0,0,0,0,.65Z" style="fill:#0c0a35"/><path d="M28.28,12.36a.34.34,0,0,0,.34-.34.35.35,0,1,0-.69,0,.35.35,0,0,0,.35.34Z" style="fill:#0c0a35"/><path d="M29,13.1a.35.35,0,1,0,0-.7.35.35,0,0,0,0,.7Z" style="fill:#0c0a35"/><path d="M30.07,13.55h0a.28.28,0,0,0,0-.4h0a.28.28,0,0,0-.49.2.29.29,0,0,0,.49.21Z" style="fill:#0c0a35"/><g style="clip-path:url(#clip-path-3)"><path d="M23.14,4.56c-1.27,2.38-.69,5,.22,7.42a6.94,6.94,0,0,0,1.91,2.85c.86.76,1.44,2,2.48,2.55a.62.62,0,0,0,.74-.09l.1-.09a.5.5,0,0,0,0-.7,17.09,17.09,0,0,1-2-2.1,18.5,18.5,0,0,1-1.76-2.5,12,12,0,0,1-1.08-4.06,29.3,29.3,0,0,0,0-3.43c0-.2-.52,0-.6.15Z" style="fill:#0c0a35"/></g><path d="M14.87,6.55c-.12-.17-.23-.55-.73-1.67A4,4,0,0,1,13.76,3a1.2,1.2,0,0,1,.35-.92A.66.66,0,0,1,14.8,2c.24.06.45.19.69.27A1.64,1.64,0,0,0,17,2c.46-.37.71-1,1.24-1.25a1.53,1.53,0,0,1,1.84.64,1.75,1.75,0,0,0,.35.45,1.17,1.17,0,0,0,1.09.09,3.64,3.64,0,0,1,.88-.39,1.81,1.81,0,0,1,1.15.12A1.88,1.88,0,0,1,24.65,4a15.63,15.63,0,0,1-1.3,2.29c-.41.72-.54,1.13-.73,1.08a20.94,20.94,0,0,0-5.33-.75A12.14,12.14,0,0,1,14.87,6.55Z" style="fill:#f70032"/><path d="M18.6,2.1a.84.84,0,0,1,1.13.71,2.72,2.72,0,0,1-.07,1.06c-.08.39-.17.78-.27,1.16a1.76,1.76,0,0,1-.24.56h0a.42.42,0,0,1-.71-.1,5.66,5.66,0,0,1-.49-1.72,1.87,1.87,0,0,1,.29-1.42A.86.86,0,0,1,18.6,2.1Z" style="fill:#0c0a35"/><path d="M23.21,3.09a.58.58,0,0,1,.26.7,1.54,1.54,0,0,1-.48.65A16.55,16.55,0,0,1,21.48,6h0a.23.23,0,0,1-.32-.28,14.2,14.2,0,0,1,1.21-2.2,1.2,1.2,0,0,1,.36-.35A.58.58,0,0,1,23.21,3.09Z" style="fill:#0c0a35"/><path d="M15,2.93a.65.65,0,0,1,.43-.05c.15.06.36.13.44.73s.22,2.14,0,2.19-1-1.87-1.07-2.49a.36.36,0,0,1,0-.23A.38.38,0,0,1,15,2.93Z" style="fill:#0c0a35"/><path d="M17.2,22.41a.22.22,0,0,0,0-.44.22.22,0,0,0,0,.44Z" style="fill:#f70032"/><path d="M19.44,23.65a.26.26,0,0,0,0-.51.26.26,0,0,0,0,.51Z" style="fill:#f70032"/><path d="M22.05,22.47a.25.25,0,1,0,0-.49.25.25,0,0,0,0,.49Z" style="fill:#f70032"/><path d="M18.51,21.41a.19.19,0,0,0,0-.37.19.19,0,0,0,0,.37Z" style="fill:#f70032"/><path d="M19.09,21.44a.22.22,0,0,0,0-.43.22.22,0,0,0,0,.43Z" style="fill:#f70032"/><path d="M20.33,21.34a.22.22,0,0,0,0-.44.22.22,0,0,0,0,.44Z" style="fill:#f70032"/><path d="M21,21.18a.23.23,0,0,0,0-.46.23.23,0,0,0,0,.46Z" style="fill:#f70032"/><path d="M20.59,25.48c-.74-.06-1.55.42-1.35,1.25s1.38.92,2,.61a1,1,0,0,0-.4-1.89,1.31,1.31,0,0,0-1.09.4.71.71,0,0,0-.17.68.88.88,0,0,0,.62.55.52.52,0,0,0,.28-1c-.12,0,0,0,0,0a.36.36,0,0,1,.08.33s-.11.17-.05.1c-.09.1,0,0,.06,0s0,0,0,0l.09,0h0s.16,0,0,0l.1,0s0,0,0,0-.06-.07,0,0-.08-.16-.05-.07a.22.22,0,0,1,0-.08c0,.06,0,0,0,0s0,0,0,0,0,0,0,0l-.09.08c.09-.08,0,0-.08,0s0,0-.05,0l-.09,0h-.17s-.17,0,0,0l-.11,0c-.1,0,.08.05,0,0s-.11-.09,0,0c-.1-.09,0,.06,0,0s0-.12,0,0c-.05-.12,0,.1,0,0s0,.13,0,0,.05-.11,0,0c0,0,.08-.1,0,0,.09-.11-.06,0,0,0s.13-.06,0,0l.15,0c-.13,0,0,0,0,0h.2a.52.52,0,0,0,.52-.52.53.53,0,0,0-.52-.52Z" style="fill:#0c0a35"/><path d="M20.59,26.89a.49.49,0,0,0,.46-.25.45.45,0,0,0,0-.45.49.49,0,0,0-.46-.25.48.48,0,0,0,0,.95Z" style="fill:#f70032"/><path d="M18.5,26a.5.5,0,1,0,.11.78A.5.5,0,0,0,18.5,26Z" style="fill:#0c0a35"/><path d="M16.5,26.24h0a.34.34,0,1,0,.09-.62h0a.34.34,0,0,0-.08.61Z" style="fill:#0c0a35"/><path d="M15.23,25.79a.31.31,0,0,0,0-.62.31.31,0,0,0,0,.62Z" style="fill:#0c0a35"/><path d="M13.82,25.33a.27.27,0,0,0,0-.54.27.27,0,0,0,0,.54Z" style="fill:#0c0a35"/><path d="M12.68,25a.21.21,0,0,0,0-.41.21.21,0,0,0,0,.41Z" style="fill:#0c0a35"/><path d="M22.83,26.28a.47.47,0,0,0,.21-.21.4.4,0,0,0-.23-.57.53.53,0,0,0-.41.05.43.43,0,0,0-.15.58.41.41,0,0,0,.58.15Z" style="fill:#0c0a35"/><path d="M24.08,25.75h0a.37.37,0,0,0,.38-.37.38.38,0,0,0-.38-.38h0a.39.39,0,0,0-.38.38.38.38,0,0,0,.38.37Z" style="fill:#0c0a35"/><path d="M25.64,25.23h0a.31.31,0,0,0,0-.52h0a.32.32,0,1,0,0,.54Z" style="fill:#0c0a35"/><path d="M27,24.76h0a.32.32,0,0,0,0-.62h0a.33.33,0,0,0-.42.32.34.34,0,0,0,.42.32Z" style="fill:#0c0a35"/><path d="M28.14,24.33a.26.26,0,0,0,0-.51.26.26,0,0,0,0,.51Z" style="fill:#0c0a35"/><path d="M29.29,23.88a.26.26,0,0,0,0-.51.26.26,0,0,0,0,.51Z" style="fill:#0c0a35"/><path d="M30.58,23.63a.25.25,0,0,0,0-.51.25.25,0,0,0,0,.51Z" style="fill:#0c0a35"/><path d="M11.22,29.06a.14.14,0,0,1,0,.07.81.81,0,0,1,.45.69,2,2,0,0,1-.11.84,19.31,19.31,0,0,1-1.45,3.74,1.68,1.68,0,0,1-.83-.07l-3.1-.78a.73.73,0,0,1-.4-.18.8.8,0,0,1-.12-.66,17,17,0,0,1,.78-3.44c.17-.48.41-1,.9-1.17a1.63,1.63,0,0,1,.82,0A9.83,9.83,0,0,1,11.22,29.06Z" style="fill:#ffd6a1"/><path d="M9.87,24a4.36,4.36,0,0,0-2.21,0,3,3,0,0,0-1.55,1.41A1.37,1.37,0,0,0,6,26.73a2.81,2.81,0,0,0,.83.69c.29.22,0,1-.22,1.31,1,.42,2.26.75,3.34,1.06s1.73.84,1.82.43a4.24,4.24,0,0,1,.43-1.35c.28-.42.64-.53,1-.85a1.39,1.39,0,0,0,.29-1.6,3,3,0,0,0-1.17-1.27A6.88,6.88,0,0,0,9.87,24Z" style="fill:#f70032"/><path d="M8.91,24.34C8.2,24,7.35,24.87,7,25.4s-.38,1.76.28,2A.57.57,0,0,0,8,26.78c0-.22-.21-.64-.08-.89a8.12,8.12,0,0,1,1-1.3.18.18,0,0,0,0-.25Z" style="fill:#990028"/><path d="M10.05,24.53c-.47,0-.78.48-1.05.83a4.13,4.13,0,0,0-.78,1.81c-.11.62,1,.83,1.1.21a10.54,10.54,0,0,1,.41-1.46,5.8,5.8,0,0,0,.52-1.17.21.21,0,0,0-.2-.22Z" style="fill:#990028"/><path d="M10.8,25c-.37.86-.7,1.75-1.06,2.62-.26.62.75,1,1,.34a12.22,12.22,0,0,0,.52-1.76,1.46,1.46,0,0,0-.16-1.26.18.18,0,0,0-.29.06Z" style="fill:#990028"/><path d="M11.86,25.53a3.72,3.72,0,0,1,0,1.33,2.84,2.84,0,0,1-.67.94.54.54,0,0,0-.18.52c.07.21.14.35.36.41a.55.55,0,0,0,.54-.1A2.8,2.8,0,0,0,12.79,27,1.58,1.58,0,0,0,12,25.43a.11.11,0,0,0-.15.1Z" style="fill:#990028"/><path d="M7.2,28.13a.46.46,0,0,0-.16.23.45.45,0,0,0,0,.34.14.14,0,0,0,.24,0c.08-.13.15-.48,0-.58Z" style="fill:#990028"/><path d="M7.77,28.33c-.08,0-.18.06-.23.12a.48.48,0,0,0-.06.4.15.15,0,0,0,.26,0,.73.73,0,0,0,.09-.32c0-.05,0-.19-.06-.22Z" style="fill:#990028"/><path d="M8.21,28.49a.25.25,0,0,0-.21.15.75.75,0,0,0-.06.29c0,.15.19.25.29.1a.6.6,0,0,0,.06-.23.6.6,0,0,0,0-.23.11.11,0,0,0-.09-.08Z" style="fill:#990028"/><path d="M8.67,28.66c-.19,0-.25.31-.27.45s.27.21.3,0,.15-.46,0-.47Z" style="fill:#990028"/><path d="M9.05,28.87c-.11.1-.22.37-.1.49a.16.16,0,0,0,.22,0c.08-.05.08-.15.09-.24a.37.37,0,0,0,0-.25.11.11,0,0,0-.16,0Z" style="fill:#990028"/><path d="M9.65,29c-.18,0-.25.26-.24.41s.24.14.29,0,.12-.43,0-.43Z" style="fill:#990028"/><path d="M10,29.17a.42.42,0,0,0-.16.33.16.16,0,0,0,.31,0,.33.33,0,0,0-.08-.34.06.06,0,0,0-.07,0Z" style="fill:#990028"/><path d="M10.5,29.36a.39.39,0,0,0-.1.41.13.13,0,0,0,.15.05.35.35,0,0,0,.12-.43.11.11,0,0,0-.17,0Z" style="fill:#990028"/><path d="M10.92,29.5a.39.39,0,0,0,0,.47.15.15,0,0,0,.21,0,.34.34,0,0,0,0-.46.13.13,0,0,0-.18,0Z" style="fill:#990028"/><path d="M11.48,29.69c-.13,0-.2.2-.21.3s.17.18.23.08.14-.36,0-.38Z" style="fill:#990028"/><path d="M21,29.17a.32.32,0,0,0,.27,0,.27.27,0,0,0,0-.45.32.32,0,0,0-.27,0,.27.27,0,0,0,0,.51Z" style="fill:#990028"/><path d="M23.85,31.14l0,0a.33.33,0,0,0,0-.45l0,0a.33.33,0,0,0-.34-.09.35.35,0,0,0-.25.33.35.35,0,0,0,.17.3.33.33,0,0,0,.42-.05Z" style="fill:#990028"/><path d="M25.58,28.5l.15,0a.3.3,0,0,0,0-.58.57.57,0,0,0-.15,0,.32.32,0,0,0,0,.63Z" style="fill:#990028"/><path d="M28.52,30.77a.35.35,0,1,0-.35-.35.35.35,0,0,0,.35.35Z" style="fill:#990028"/><path d="M29.46,27.07a.36.36,0,0,0,.34.18.28.28,0,0,0,.14-.51.36.36,0,0,0-.24-.07.29.29,0,0,0-.24.13.29.29,0,0,0,0,.27Z" style="fill:#990028"/><path d="M31.67,29.39a.22.22,0,0,0,0-.43.22.22,0,0,0,0,.43Z" style="fill:#990028"/><path d="M24.93,35.29a.29.29,0,0,0,0-.57.29.29,0,0,0,0,.57Z" style="fill:#990028"/><path d="M26.54,33.94a.29.29,0,0,0,0-.57.29.29,0,0,0,0,.57Z" style="fill:#990028"/><path d="M27.11,35.66a.28.28,0,0,0,0-.56.28.28,0,0,0,0,.56Z" style="fill:#990028"/><path d="M15.23,13.72a.13.13,0,0,0,0-.25.13.13,0,1,0,0,.25Z" style="fill:#0c0a35"/><path d="M27.37,41.94a2.59,2.59,0,0,1-.37.37.85.85,0,0,1-.73,0,3.12,3.12,0,0,0-.69-.28,1.36,1.36,0,0,0-1.12.47c-.29.3-.5.67-.77,1s-.41.43-.59.66a3,3,0,0,0-.53,2.61,3.16,3.16,0,0,0,1.74,2,.55.55,0,0,0,.25.07.61.61,0,0,0,.29-.11,8.18,8.18,0,0,0,.7-.43,4.66,4.66,0,0,0,1.62-2.05,2.27,2.27,0,0,1,.36-.71,2.78,2.78,0,0,1,.84-.48,2.59,2.59,0,0,0,1.28-1.44,1.4,1.4,0,0,0-.38-1.67,1.63,1.63,0,0,0-.61-.2A1.52,1.52,0,0,0,27.37,41.94Z" style="fill:#990028"/><g style="clip-path:url(#clip-path-4)"><path d="M29.28,40.87a2.89,2.89,0,0,1-.07,2.39c-.38.71-1.34,1.09-2,1.54a3.82,3.82,0,0,0-1.36,2.87,0,0,0,0,0,.08,0c.48-.86.43-1.76,1.19-2.5.57-.56,1.33-.85,1.92-1.38a2.3,2.3,0,0,0,.25-3,0,0,0,0,0,0,0Z" style="fill:#0c0a35"/><path d="M28.81,41.21A2.1,2.1,0,0,1,28,43.28c-.5.37-1,.68-1.54,1a2.28,2.28,0,0,0-1.24,2,.08.08,0,0,0,.15,0,3.65,3.65,0,0,1,1.49-1.9c.5-.35,1-.69,1.5-1.06a1.8,1.8,0,0,0,.56-2.21,0,0,0,0,0-.09,0Z" style="fill:#0c0a35"/><path d="M28.4,41c-.26,1.31-1.1,1.82-2.14,2.51a2.77,2.77,0,0,0-1.44,1.82.08.08,0,0,0,.15.06,5,5,0,0,1,1.16-1.47c.48-.35,1.05-.6,1.49-1A2.15,2.15,0,0,0,28.49,41a0,0,0,0,0-.09,0Z" style="fill:#0c0a35"/><path d="M27.38,41a2.64,2.64,0,0,1-1.8,2,2.44,2.44,0,0,0-1.27,1.47s.06.11.11.08c.36-.25.49-.67.79-1s1-.42,1.37-.76A2.1,2.1,0,0,0,27.45,41s-.07,0-.07,0Z" style="fill:#0c0a35"/><path d="M26.35,41c-.18,1.55-2.32,1.82-2.54,3.46,0,.06.07.11.11,0a5.91,5.91,0,0,1,.8-1.23,9.26,9.26,0,0,1,1-.79c.41-.33,1.11-1,.7-1.51a0,0,0,0,0-.06,0Z" style="fill:#0c0a35"/></g><path d="M18.91,44.06A1.3,1.3,0,0,1,18.69,43a1.18,1.18,0,0,1,.35-.42,5.83,5.83,0,0,1,4.84-1.17c-.29.39-.3,1-.36,1a4.87,4.87,0,0,0-4.42,1.78C19,44.23,19,44.14,18.91,44.06Z" style="fill:#990028"/><path d="M22.27,38.52a.46.46,0,0,1,.57.07.8.8,0,0,1,.2.56,2.38,2.38,0,0,1-.13.6l-.24.77a1.75,1.75,0,0,1-.33.67s-.08.07-.11,0,0,0,0,0a5.54,5.54,0,0,1-.15-2.25A.66.66,0,0,1,22.27,38.52Z" style="fill:#0c0a35"/><path d="M25.24,39.84a.42.42,0,0,1,0,.49,1.31,1.31,0,0,1-.38.36,8.34,8.34,0,0,0-.88.65c-.14.14-.19,0-.19-.13a3,3,0,0,1,.3-.82,1.11,1.11,0,0,1,.7-.64A.47.47,0,0,1,25.24,39.84Z" style="fill:#0c0a35"/><path d="M20.13,39.73a.54.54,0,0,0-.61.1c-.12.1-.12.46-.09.62a1.75,1.75,0,0,0,.76,1.15c.07.06.17.11.23,0a.18.18,0,0,0,0-.13c0-.33,0-.67,0-1S20.34,39.85,20.13,39.73Z" style="fill:#0c0a35"/><path d="M25.66,54.74c.06.06.15,0,.2-.08.53-.76.28-1.78.41-2.7a3.67,3.67,0,0,1,.63-1.48c.38-.53.9-.91,1-1.54,0-.11-.07-.2-.19-.23s-.68,0-.87-.19-.07-.21-.08-.32a9.08,9.08,0,0,0,0-1.56c-.14-.62-.68-1.06-.92-1.65a8.65,8.65,0,0,1-.23-.91,3.62,3.62,0,0,0-.54-1.18,1,1,0,0,0-1.09-.32,7.15,7.15,0,0,0-1.67,1,5.84,5.84,0,0,0-1.9,1.93c-.12.22-.2.46-.32.69-.33.64-.87,1.14-1.25,1.75a6.29,6.29,0,0,0-.78,2.73,4.86,4.86,0,0,0,0,1.32A3.34,3.34,0,0,0,19.28,54a4.59,4.59,0,0,0,2.06.95,10.7,10.7,0,0,0,2,.12h1.64C25.16,55,25.62,55,25.66,54.74Z" style="fill:#ffd6a1"/><path d="M21.7,54.38l-.05-.06-.43-.64a4.53,4.53,0,0,1,2.19-.52,3.07,3.07,0,0,1,2.06.83l-.58.53a3.36,3.36,0,0,0-3-.16A.2.2,0,0,1,21.7,54.38Z" style="fill:#0c0a35"/><path d="M20.67,49.8a1.21,1.21,0,0,0,.61.27,1.19,1.19,0,0,0,.73-.18,1.1,1.1,0,0,0,.57-1,1.21,1.21,0,0,0-.89-1,.94.94,0,0,0-1.36.65A1,1,0,0,0,20.67,49.8Z" style="fill:#f70032"/><path d="M26.45,47.48c-.11.28-.25.51-.55.53a.48.48,0,0,1-.47-.56,7.3,7.3,0,0,1,.73-2,3.94,3.94,0,0,1,1.09,1.91.6.6,0,0,1-.14.43.38.38,0,0,1-.66-.29Z" style="fill:#f70032"/><path d="M14.26,47.55a5.06,5.06,0,0,1,.15-1.78c.1-.27.25-.53.32-.8a.88.88,0,0,0-.15-.82c-.12-.12-.28-.18-.41-.29a1.08,1.08,0,0,1-.2-1.27,2.39,2.39,0,0,1,1-.94,4.21,4.21,0,0,1,2.39-.59,2.73,2.73,0,0,1,2.08,1.21,1.65,1.65,0,0,1,.27,1,1.39,1.39,0,0,1-.35.94c-.69.62-1.32.39-1.31,1,0,.48.68.54.91.57.76.09,2.19,1.07.91,2.44a5.32,5.32,0,0,1-1.09.85.69.69,0,0,0-.27.24c-.19.32.15.71.5.82a5.35,5.35,0,0,1,1.08.28,1.41,1.41,0,0,1,.58,1.16c0,.45,0,.9,0,1.35a2.51,2.51,0,0,0,.48,1.14,1.29,1.29,0,0,0,.42.35,1.71,1.71,0,0,0,.49.1c.59,0,1.19.07,1.78.07a2,2,0,0,0,.91-.14c.92-.47,1-2,1.89-2.54a1.8,1.8,0,0,1,1.37-.1,1.66,1.66,0,0,1,1.1,1.13,1.61,1.61,0,0,1-.94,1.91c-.37.17-.86.21-1.08.55-.32.51,0,.68-.11,1a1.85,1.85,0,0,1-1.49,1c-.55,0-1.16,0-1.39-.47-.05-.11-.08-.23-.14-.34a1.11,1.11,0,0,0-1.23-.46,3.87,3.87,0,0,0-1.23.66,2.56,2.56,0,0,1-1.27.56,2,2,0,0,1-1.11-.3,7.11,7.11,0,0,1-2.58-3.31,20.61,20.61,0,0,1-1.25-2.9A13.48,13.48,0,0,1,14.26,47.55Z" style="fill:#d6002b"/><path d="M27.17,46.87c-.22-.37-.9-.25-1.25-.19a2.36,2.36,0,0,0-1.43.75s0,.06,0,0A10.9,10.9,0,0,1,25.75,47a6,6,0,0,1,1.4-.06s0,0,0,0Z" style="fill:#0c0a35"/><path d="M23.65,42.67a6.21,6.21,0,0,0-2.32,1.57A3.27,3.27,0,0,0,20.25,46a0,0,0,1,0,.07,0,3.81,3.81,0,0,1,1.19-1.64c.37-.32.74-.65,1.13-1s.73-.41,1.07-.65c.07,0,0-.18-.06-.15Z" style="fill:#0c0a35"/><path d="M25.35,52.37c0-.14-.09-.34-.27-.31,0,0,0,0,0,0s.17.18.23.28.07,0,.06,0Z" style="fill:#0c0a35"/><path d="M23.57,53a.28.28,0,0,0,0-.2c0-.13-.2-.13-.19,0a.28.28,0,0,0,0,.2.07.07,0,0,0,.11,0Z" style="fill:#0c0a35"/><path d="M24.6,52.74a.27.27,0,0,0-.09-.2c-.08-.1-.23,0-.17.13a.33.33,0,0,0,.17.14s.08,0,.09-.07Z" style="fill:#0c0a35"/><path d="M21.8,52c-.07,0-.12,0-.18.06a.33.33,0,0,0-.14.24s0,.05.07,0a.54.54,0,0,0,.16-.14c0-.06.11-.09.12-.16s0,0,0,0Z" style="fill:#0c0a35"/><path d="M22.57,52.57a1.35,1.35,0,0,0-.15.26,0,0,0,0,0,0,.05.36.36,0,0,0,.28-.24c0-.1-.12-.16-.17-.07Z" style="fill:#0c0a35"/><path d="M24.92,50.89a1.63,1.63,0,0,1-.17.2.24.24,0,0,0-.09.15,0,0,0,0,0,0,0c.16,0,.26-.23.3-.36s-.05-.07-.08,0Z" style="fill:#0c0a35"/><path d="M24.08,50.64A.39.39,0,0,0,24,51a.05.05,0,0,0,.07,0c.13-.06.14-.25.12-.37s-.09-.06-.12,0Z" style="fill:#0c0a35"/><path d="M23.37,50.56c-.07.09-.14.26,0,.34a.06.06,0,0,0,.09,0c.11-.08,0-.25,0-.34s0,0,0,0Z" style="fill:#0c0a35"/><path d="M22.21,50.88a.42.42,0,0,0,.06.19c0,.07,0,.12.12.14l.05,0c0-.08,0-.11,0-.19a.32.32,0,0,0-.12-.18.07.07,0,0,0-.1.06Z" style="fill:#0c0a35"/><path d="M21.46,51.1c0,.1.09.24.17.29a.1.1,0,0,0,.14-.14c0-.07-.24-.32-.31-.15Z" style="fill:#0c0a35"/><path d="M21.21,51.67a4,4,0,0,1,4.36-.19,2.36,2.36,0,0,1-1.35,1.11,2.39,2.39,0,0,1-1.74-.13,4.85,4.85,0,0,1-.49-.29Z" style="fill:#fff"/><path d="M23,52.06a.71.71,0,0,0,.69.23.57.57,0,0,0,.45-.51.61.61,0,0,0-.38-.51.78.78,0,0,0-.52-.05A.53.53,0,0,0,23,52.06Z" style="fill:#0c0a35"/><g style="clip-path:url(#clip-path-5)"><path d="M26.4,56.84a1.06,1.06,0,0,0,.23-.83c0-1.24,1-1.46,1.9-1.92A1.61,1.61,0,0,0,29,51.83c0-.08-.14,0-.13.05.18.92.26,1.76-.85,2.19a3.69,3.69,0,0,0-1,.51c-.84.66-.34,1.38-.69,2.2,0,.06.07.1.11.06Z" style="fill:#0c0a35"/><path d="M25.9,56.41a3,3,0,0,1,1.25-2.31,14.65,14.65,0,0,0,1.22-.84,1.63,1.63,0,0,0,.07-2.09c0-.06-.13,0-.11.07.23,1,.17,1.72-.84,2.29a6.14,6.14,0,0,0-.95.65,2.4,2.4,0,0,0-.72,2.23c0,.05.08.05.08,0Z" style="fill:#0c0a35"/><path d="M25.11,56.78a10,10,0,0,1,.63-2.5c.41-.67,1.17-1,1.73-1.48a1.73,1.73,0,0,0,.33-2.1c-.08-.1-.24,0-.18.13.82,1.44-1.15,2.22-1.89,3.05A3.94,3.94,0,0,0,25,56.77a0,0,0,0,0,.09,0Z" style="fill:#0c0a35"/><path d="M27.16,50.93c.12,1.21-1.69,2.22-2.36,3.09a4.46,4.46,0,0,0-.49,2.85.13.13,0,0,0,.27,0A14.66,14.66,0,0,1,24.69,55a4.28,4.28,0,0,1,1.48-2.11c.58-.57,1.26-1.07,1.08-2,0-.05-.1,0-.09,0Z" style="fill:#0c0a35"/><path d="M23.78,56.9a2.58,2.58,0,0,0,.11-1.27c0-.66.48-1.26.43-1.91a.08.08,0,0,0-.15,0c-.47.71-.92,2.45-.41,3.22Z" style="fill:#0c0a35"/><path d="M22.82,56.8a1.83,1.83,0,0,0,.43-1.16A2.39,2.39,0,0,0,23.1,54c0-.05-.12,0-.11,0a6.75,6.75,0,0,1,0,1.27,2.89,2.89,0,0,1-.28,1.42s0,.08.07,0Z" style="fill:#0c0a35"/><path d="M21.78,56.67c.41-.18.44-.84.5-1.22a2.66,2.66,0,0,0-.34-2.15.07.07,0,0,0-.12.05c.06.26.17.49.25.74a3.3,3.3,0,0,1,0,1.29,2.58,2.58,0,0,1-.31,1.23,0,0,0,0,0,.05.06Z" style="fill:#0c0a35"/><path d="M20.75,56.33c.41.28.55-.62.59-.84.12-.76.25-1.92-.37-2.5a.05.05,0,0,0-.09,0,5,5,0,0,1,.23,2c0,.32,0,1.21-.36,1.32,0,0,0,0,0,0Z" style="fill:#0c0a35"/><path d="M20.18,56.17c.1-1.41.42-3.36-.21-4.7a1.73,1.73,0,0,0-2.33-.91c-.07,0,0,.14,0,.13a3.45,3.45,0,0,1,1.42.2c.62.27.77,1.2.83,1.78.11,1.16.11,2.34.21,3.5,0,0,0,0,0,0Z" style="fill:#0c0a35"/><path d="M19.55,56a6,6,0,0,0,0-3.31,1.88,1.88,0,0,0-2.13-1.44s-.06.08,0,.09c1.16.24,1.83.68,2,1.94A9.14,9.14,0,0,1,19.52,56s0,0,0,0Z" style="fill:#0c0a35"/><path d="M17.12,49.54c.82-.34,2.35-1,2.41-2.07.06-1.26-1.41-1.09-2.13-1.68-.95-.77,1.05-1.92,1.47-2.28a1.83,1.83,0,0,0,.6-1.15,1.77,1.77,0,0,0-1.44-2,0,0,0,0,0,0,.09c1.4.86,1.4,2.23.09,3.18-.59.43-1.21.89-1.24,1.66s.63,1,1.15,1.14a6.74,6.74,0,0,1,.86.3c.93.42.14,1.29-.18,1.6s-1.07.75-1.55,1.19c0,0,0,0,0,0Z" style="fill:#0c0a35"/><path d="M16.5,49.29a2.4,2.4,0,0,0,2-1.48c.24-.57-.41-.88-.81-1-1.09-.44-2.26-1.39-1.12-2.6.43-.46,1-.72,1.41-1.21a1.85,1.85,0,0,0-.38-2.53c-.06-.07-.16,0-.12.09.46.94.81,1.67-.1,2.57-.31.31-.71.55-1,.84a1.67,1.67,0,0,0-.49,1.66,1.87,1.87,0,0,0,1.19,1.26c.39.16,1.47.27,1.14,1a2.89,2.89,0,0,1-1.72,1.29.06.06,0,0,0,0,.12Z" style="fill:#0c0a35"/><path d="M16.67,48.69c.52-.14,1.13-.45.83-1.06-.13-.25-.63-.4-.85-.51a2,2,0,0,1-1.25-1.89c-.09-1.59,1.14-1.9,1.77-3.07.43-.81-.28-1.72-.8-2.28-.05-.06-.14,0-.1.09.37.71.92,1.36.47,2.19a4.7,4.7,0,0,1-1,1A2.56,2.56,0,0,0,15,44.94a2.4,2.4,0,0,0,.47,1.82,3.38,3.38,0,0,0,.76.54,4.67,4.67,0,0,0,.51.23c.68.27.45.84-.11,1.13,0,0,0,0,0,0Z" style="fill:#0c0a35"/><path d="M15.71,40.45a1.47,1.47,0,0,1,.11,1.26,3.59,3.59,0,0,1-.52,1c-.31.46-.78.8-1.11,1.25a2.11,2.11,0,0,0,0,2.23.07.07,0,0,0,.13,0,2.72,2.72,0,0,1,.44-2.45,7.31,7.31,0,0,0,.91-1.09,2,2,0,0,0,.14-2.28s-.08,0-.1,0a.11.11,0,0,0,0,.1Z" style="fill:#0c0a35"/><path d="M15,40.85c.15.17,0,.85,0,1A2.24,2.24,0,0,1,14.15,43a2.23,2.23,0,0,0-.87,1.77.05.05,0,0,0,.1,0,4.68,4.68,0,0,1,.78-1.44,4.55,4.55,0,0,0,.92-1,1.67,1.67,0,0,0,0-1.52.07.07,0,0,0-.07,0H15a0,0,0,0,0,0,.05Z" style="fill:#0c0a35"/></g><path d="M14.62,45.56c-.36,0-.59.34-.81.62A17,17,0,0,1,12,48.32a4.44,4.44,0,0,0-.6.7.56.56,0,0,0-.1.28.51.51,0,0,0,.2.34c.54.55,1.16,1,1.66,1.61a11.9,11.9,0,0,1,1.35,2.14c.45,1.55.59,2.24-.33,4.83a.4.4,0,0,0,.35.54l2.58.14a.42.42,0,0,0,.3-.12,5.58,5.58,0,0,0,.54-1,7.65,7.65,0,0,0,.94-1.51,7,7,0,0,0-.45-5.62,11.76,11.76,0,0,0-2.5-3.62C15.72,46.85,14.67,45.67,14.62,45.56Z" style="fill:#b70027"/><path d="M14.85,57.85a.33.33,0,1,0,.33.33.33.33,0,0,0-.33-.33Z" style="fill:#0c0a35"/><path d="M15.29,56.72a.33.33,0,0,0,0,.65.33.33,0,1,0,0-.65Z" style="fill:#0c0a35"/><path d="M15.52,55.5a.32.32,0,0,0,0,.63.32.32,0,0,0,0-.63Z" style="fill:#0c0a35"/><path d="M15.53,54.19a.34.34,0,0,0,0,.68.34.34,0,0,0,0-.68Z" style="fill:#0c0a35"/><path d="M15.31,53a.33.33,0,1,0,0,.65.33.33,0,0,0,0-.65Z" style="fill:#0c0a35"/><path d="M14.88,51.93a.29.29,0,1,0,.29.29.29.29,0,0,0-.29-.29Z" style="fill:#0c0a35"/><path d="M14.33,51a.33.33,0,0,0,0,.65.33.33,0,0,0,0-.65Z" style="fill:#0c0a35"/><path d="M13.69,50.1a.35.35,0,0,0-.35.35.35.35,0,0,0,.69,0,.35.35,0,0,0-.34-.35Z" style="fill:#0c0a35"/><path d="M12.93,49.37a.35.35,0,1,0,.35.35.35.35,0,0,0-.35-.35Z" style="fill:#0c0a35"/><path d="M11.89,48.92h0a.28.28,0,0,0,0,.4h0a.29.29,0,0,0,.28.08.31.31,0,0,0,.22-.29.29.29,0,0,0-.15-.25.3.3,0,0,0-.35.05Z" style="fill:#0c0a35"/><g style="clip-path:url(#clip-path-6)"><path d="M18.82,57.91c1.28-2.38.69-5-.22-7.42a6.94,6.94,0,0,0-1.91-2.85c-.86-.77-1.44-2-2.48-2.56a.62.62,0,0,0-.74.1l-.09.08a.49.49,0,0,0,0,.7,18.76,18.76,0,0,1,2,2.1,18.8,18.8,0,0,1,1.75,2.51,11.51,11.51,0,0,1,1.08,4,29.5,29.5,0,0,0,0,3.44c0,.19.52,0,.6-.15Z" style="fill:#0c0a35"/></g><path d="M27.09,55.92c.12.17.24.54.74,1.67a4.13,4.13,0,0,1,.37,1.86,1.17,1.17,0,0,1-.35.92.68.68,0,0,1-.69.15c-.24-.06-.45-.2-.69-.28a1.62,1.62,0,0,0-1.5.26c-.47.37-.72,1-1.25,1.25a1.51,1.51,0,0,1-1.84-.63,2,2,0,0,0-.35-.46,1.23,1.23,0,0,0-1.09-.09,3.67,3.67,0,0,1-.88.4,1.81,1.81,0,0,1-1.15-.12,1.89,1.89,0,0,1-1.1-2.36,15.63,15.63,0,0,1,1.3-2.29c.41-.72.54-1.14.73-1.09a20.92,20.92,0,0,0,5.33.76A11.42,11.42,0,0,1,27.09,55.92Z" style="fill:#f70032"/><path d="M23.36,60.37a.84.84,0,0,1-1.13-.72,2.72,2.72,0,0,1,.07-1.06c.08-.38.17-.77.28-1.15a1.67,1.67,0,0,1,.23-.57h0a.42.42,0,0,1,.71.09A5.74,5.74,0,0,1,24,58.68a1.82,1.82,0,0,1-.29,1.42A.89.89,0,0,1,23.36,60.37Z" style="fill:#0c0a35"/><path d="M18.75,59.38a.59.59,0,0,1-.26-.71A1.6,1.6,0,0,1,19,58a19.56,19.56,0,0,1,1.51-1.51h0a.22.22,0,0,1,.31.28A12.7,12.7,0,0,1,19.59,59a1.17,1.17,0,0,1-.36.34A.58.58,0,0,1,18.75,59.38Z" style="fill:#0c0a35"/><path d="M26.94,59.54a.58.58,0,0,1-.43,0c-.15,0-.36-.13-.44-.72s-.22-2.15,0-2.19,1,1.86,1.07,2.49a.36.36,0,0,1,0,.23A.44.44,0,0,1,26.94,59.54Z" style="fill:#0c0a35"/><path d="M24.76,40.06a.22.22,0,0,0,0,.44.22.22,0,0,0,0-.44Z" style="fill:#f70032"/><path d="M22.52,38.82a.26.26,0,0,0,0,.51.26.26,0,0,0,0-.51Z" style="fill:#f70032"/><path d="M19.91,40a.25.25,0,0,0,0,.5.25.25,0,0,0,0-.5Z" style="fill:#f70032"/><path d="M23.45,41.05a.19.19,0,0,0,0,.38.19.19,0,0,0,0-.38Z" style="fill:#f70032"/><path d="M22.87,41a.21.21,0,1,0,0,.42.21.21,0,0,0,0-.42Z" style="fill:#f70032"/><path d="M21.63,41.12a.23.23,0,0,0,0,.45.23.23,0,0,0,0-.45Z" style="fill:#f70032"/><path d="M21,41.29a.23.23,0,0,0,0,.45.23.23,0,0,0,0-.45Z" style="fill:#f70032"/><path d="M21.37,37c.74.06,1.55-.43,1.36-1.26s-1.39-.92-2.05-.6a1.07,1.07,0,0,0-.63,1,1.08,1.08,0,0,0,1,.92,1.35,1.35,0,0,0,1.09-.4.76.76,0,0,0,.18-.69.9.9,0,0,0-.63-.54.52.52,0,0,0-.28,1c.12,0,0,0,0,0a.36.36,0,0,1-.08-.33s.12-.17.05-.11c.09-.09,0,0-.06,0,.11-.06,0,0,0,0l-.09,0c.07,0,.07,0,0,0s-.16,0,0,0l-.09,0s0,0,0,0,.06.06,0,0,.08.17.06.08a.15.15,0,0,0,0,.07c0-.05,0,0,0,0s0,0,0,0,0,0,0,0l.08-.09c-.09.08.05,0,.08,0s0,0,.05,0l.1,0c-.06,0-.05,0,0,0h.15s.17,0,0,0l.12,0c.09,0-.09,0,0,0s.11.08,0,0c.11.09,0-.06,0,0s.05.12,0,0c.05.13,0-.09,0,0s0-.13,0,0,0,.11,0,0c0,0-.08.1,0,0-.09.1.06,0,0,0s-.13.07,0,0l-.14,0c.13,0,0,0,0,0h-.2a.52.52,0,0,0-.52.52.54.54,0,0,0,.52.52Z" style="fill:#0c0a35"/><path d="M21.37,35.58a.51.51,0,0,0-.46.24.45.45,0,0,0,0,.45.5.5,0,0,0,.46.25.47.47,0,1,0,0-.94Z" style="fill:#f70032"/><path d="M23.46,36.45a.55.55,0,0,0,.5,0,.51.51,0,0,0,.11-.79.51.51,0,0,0-.71,0,.51.51,0,0,0,.1.79Z" style="fill:#0c0a35"/><path d="M25.46,36.22h0a.34.34,0,0,0-.5.2.34.34,0,0,0,.42.42h0a.34.34,0,0,0,.08-.61Z" style="fill:#0c0a35"/><path d="M26.73,36.68a.31.31,0,0,0,0,.61.31.31,0,0,0,0-.61Z" style="fill:#0c0a35"/><path d="M28.14,37.13a.27.27,0,0,0,0,.54.27.27,0,0,0,0-.54Z" style="fill:#0c0a35"/><path d="M29.29,37.51a.21.21,0,0,0,0,.41.21.21,0,0,0,0-.41Z" style="fill:#0c0a35"/><path d="M19.13,36.18a.7.7,0,0,0-.21.21.41.41,0,0,0,.24.58.52.52,0,0,0,.4-.06.42.42,0,0,0,.15-.58.43.43,0,0,0-.58-.15Z" style="fill:#0c0a35"/><path d="M17.89,36.72h0a.39.39,0,0,0-.38.38.39.39,0,0,0,.38.38h0a.38.38,0,0,0,.37-.38.37.37,0,0,0-.37-.37Z" style="fill:#0c0a35"/><path d="M16.32,37.23s0,0,0,0a.31.31,0,0,0,0,.52h0a.32.32,0,0,0,.48-.27c0-.22-.28-.43-.48-.28Z" style="fill:#0c0a35"/><path d="M14.94,37.71h0a.32.32,0,0,0,0,.62h0a.34.34,0,0,0,.42-.32.33.33,0,0,0-.42-.32Z" style="fill:#0c0a35"/><path d="M13.83,38.14a.26.26,0,0,0,0,.51.26.26,0,0,0,0-.51Z" style="fill:#0c0a35"/><path d="M12.68,38.59a.26.26,0,0,0,0,.51.26.26,0,0,0,0-.51Z" style="fill:#0c0a35"/><path d="M11.38,38.84a.26.26,0,0,0,0,.51.26.26,0,0,0,0-.51Z" style="fill:#0c0a35"/><path d="M30.74,33.4l0-.06a.85.85,0,0,1-.45-.69,2.37,2.37,0,0,1,.11-.84,19.31,19.31,0,0,1,1.45-3.74,1.68,1.68,0,0,1,.83.07l3.1.77a.61.61,0,0,1,.52.85,17.12,17.12,0,0,1-.78,3.44c-.17.48-.41,1-.9,1.16a1.75,1.75,0,0,1-.82,0A9.66,9.66,0,0,1,30.74,33.4Z" style="fill:#ffd6a1"/><path d="M32.09,38.44a4.36,4.36,0,0,0,2.21,0,3.11,3.11,0,0,0,1.56-1.41A1.4,1.4,0,0,0,36,35.74a2.86,2.86,0,0,0-.84-.7c-.29-.22,0-1,.22-1.3C34.3,33.32,33.09,33,32,32.67s-1.73-.84-1.82-.42a4.16,4.16,0,0,1-.43,1.34c-.28.42-.64.53-1,.85a1.41,1.41,0,0,0-.29,1.61,3,3,0,0,0,1.17,1.26A6.72,6.72,0,0,0,32.09,38.44Z" style="fill:#f70032"/><path d="M33.06,38.13c.7.35,1.55-.54,1.91-1.07s.38-1.76-.28-2a.57.57,0,0,0-.73.65c0,.22.2.63.07.89a7.59,7.59,0,0,1-1,1.3.17.17,0,0,0,.05.25Z" style="fill:#990028"/><path d="M31.91,37.94c.47,0,.79-.48,1.06-.83a4.29,4.29,0,0,0,.77-1.81c.11-.63-1-.83-1.1-.21a11.39,11.39,0,0,1-.41,1.46,6.65,6.65,0,0,0-.52,1.16.21.21,0,0,0,.2.23Z" style="fill:#990028"/><path d="M31.16,37.5c.37-.87.71-1.76,1.06-2.63.26-.62-.75-1-1-.33a10.12,10.12,0,0,0-.52,1.76,1.41,1.41,0,0,0,.15,1.25.17.17,0,0,0,.29,0Z" style="fill:#990028"/><path d="M30.1,36.94a3.77,3.77,0,0,1,0-1.34,2.8,2.8,0,0,1,.67-.93.55.55,0,0,0-.18-.94.56.56,0,0,0-.54.11,2.83,2.83,0,0,0-.87,1.58A1.58,1.58,0,0,0,30,37a.11.11,0,0,0,.14-.1Z" style="fill:#990028"/><path d="M34.76,34.33a.6.6,0,0,0,.19-.56.14.14,0,0,0-.24,0c-.08.12-.15.47,0,.58a0,0,0,0,0,0,0Z" style="fill:#990028"/><path d="M34.19,34.13c.08,0,.19-.05.23-.12a.42.42,0,0,0,.06-.39.15.15,0,0,0-.26,0,.66.66,0,0,0-.09.32s0,.19.06.21Z" style="fill:#990028"/><path d="M33.75,34a.23.23,0,0,0,.21-.15.73.73,0,0,0,.07-.29c0-.14-.2-.24-.29-.09a.48.48,0,0,0-.07.23.55.55,0,0,0,0,.22s.05.09.09.08Z" style="fill:#990028"/><path d="M33.29,33.8c.2,0,.25-.3.27-.44s-.27-.21-.3,0-.15.46,0,.46Z" style="fill:#990028"/><path d="M32.91,33.6c.11-.1.23-.37.1-.49a.17.17,0,0,0-.22,0c-.08.06-.07.16-.09.25a.37.37,0,0,0,0,.25.12.12,0,0,0,.16,0Z" style="fill:#990028"/><path d="M32.31,33.47c.18,0,.25-.27.24-.41s-.24-.14-.29,0-.12.43.05.43Z" style="fill:#990028"/><path d="M31.93,33.3a.39.39,0,0,0,.15-.34c0-.2-.28-.21-.31,0a.35.35,0,0,0,.08.34.08.08,0,0,0,.08,0Z" style="fill:#990028"/><path d="M31.46,33.11a.4.4,0,0,0,.1-.41.11.11,0,0,0-.15-.05.34.34,0,0,0-.12.43.11.11,0,0,0,.17,0Z" style="fill:#990028"/><path d="M31,33a.38.38,0,0,0,0-.46.14.14,0,0,0-.21,0,.35.35,0,0,0,0,.46c.05,0,.13.07.18,0Z" style="fill:#990028"/><path d="M30.48,32.77c.13,0,.2-.19.22-.29a.13.13,0,0,0-.24-.08c0,.07-.13.35,0,.37Z" style="fill:#990028"/><path d="M21,33.3a.29.29,0,0,0-.27,0,.25.25,0,0,0,0,.44.32.32,0,0,0,.27,0,.27.27,0,0,0,0-.51Z" style="fill:#990028"/><path d="M18.11,31.33l0,0a.33.33,0,0,0,0,.45l0,0a.35.35,0,0,0,.34.09.35.35,0,0,0,.25-.34.34.34,0,0,0-.17-.3.35.35,0,0,0-.42.06Z" style="fill:#990028"/><path d="M16.38,34a.39.39,0,0,0-.15,0,.3.3,0,0,0,0,.58.39.39,0,0,0,.15,0,.31.31,0,0,0,0-.62Z" style="fill:#990028"/><path d="M13.45,31.7a.35.35,0,0,0-.35.34.35.35,0,0,0,.69,0,.35.35,0,0,0-.34-.34Z" style="fill:#990028"/><path d="M12.5,35.39a.37.37,0,0,0-.34-.17.27.27,0,0,0-.13.51.32.32,0,0,0,.23.07.27.27,0,0,0,.24-.41Z" style="fill:#990028"/><path d="M9.82,32.54a.22.22,0,0,0,0,.43.22.22,0,0,0,0-.43Z" style="fill:#990028"/><path d="M15.94,28.79a.29.29,0,0,0,0,.57.29.29,0,0,0,0-.57Z" style="fill:#990028"/><path d="M15,27.14a.29.29,0,0,0,0,.57.29.29,0,0,0,0-.57Z" style="fill:#990028"/><path d="M13.73,29a.29.29,0,0,0,0,.57.29.29,0,0,0,0-.57Z" style="fill:#990028"/><path d="M26.73,48.74a.13.13,0,0,0,0,.26.13.13,0,0,0,0-.26Z" style="fill:#0c0a35"/><path d="M5.63,36.46c-.39-1.43-.53-3.31,0-3.62a23.74,23.74,0,0,1,5.85-2c3-.86,5.4-1.32,8.44-2.09,1.65-.41,3.12-1,4.42-1.46a45.06,45.06,0,0,0,7.77-3.79c.94-.52,4.23,2.85,4.35,5.4a.76.76,0,0,1-.05.34.72.72,0,0,1-.41.31,80.22,80.22,0,0,1-13.3,4.19c-1.28.32-3.65,1.11-4.92,1.46a36.29,36.29,0,0,0-7.88,3.07,2.69,2.69,0,0,1-1,.42,2.46,2.46,0,0,1-1.33-.35A3.21,3.21,0,0,1,5.63,36.46Z" style="fill:#222272"/><path d="M21.66,29.82c.33-.28.78-.54,1.16-.36a1.22,1.22,0,0,1,.62.94,2.11,2.11,0,0,1-.39.88,12.47,12.47,0,0,1-1.62,1.63.4.4,0,0,1-.22.14A.34.34,0,0,1,21,33a4,4,0,0,1-1.46-1.29,2.25,2.25,0,0,1-.44-1.18,1.19,1.19,0,0,1,.59-1.06,1.05,1.05,0,0,1,1,.08,1.3,1.3,0,0,1,.54.86A1.06,1.06,0,0,1,21.66,29.82Z" style="fill:#f70032"/><path d="M21.19,31.57a.23.23,0,0,0,0-.46.23.23,0,0,0,0,.46Z" style="fill:#0c0a35"/><path d="M18,30.69c-.83-.28-2.15-.92-2.86,0a.24.24,0,0,0,.17.4c.41,0,.81-.16,1.23-.16a13.67,13.67,0,0,1,1.43.05c.15,0,.16-.2,0-.25Z" style="fill:#0c0a35"/><path d="M17.75,31.82c-.86.2-1.71.37-2.55.63-.55.17-1.3.36-1.52.95,0,.1.06.19.16.2a4.76,4.76,0,0,0,1.78-.47c.77-.25,1.47-.62,2.25-.85a.24.24,0,0,0-.12-.46Z" style="fill:#0c0a35"/><path d="M25.12,30c.86-.21,1.71-.39,2.54-.67.55-.18,1.3-.38,1.51-1a.17.17,0,0,0-.16-.21,5.11,5.11,0,0,0-1.77.5c-.77.27-1.47.65-2.24.89a.24.24,0,0,0,.12.46Z" style="fill:#0c0a35"/><path d="M18.45,33.07a4,4,0,0,1-1.35.79c-.42.16-1,.3-1.13.75-.06.13,0,.25.16.3.48.19,1.12-.18,1.54-.4a2.52,2.52,0,0,0,1.11-1.19.21.21,0,0,0-.33-.25Z" style="fill:#0c0a35"/><path d="M24.36,28.93l1.11-.66a2.78,2.78,0,0,0,1.06-.72.15.15,0,0,0-.09-.22,2,2,0,0,0-1.31.36,1.76,1.76,0,0,0-.95,1.1c0,.1.09.2.18.14Z" style="fill:#0c0a35"/><path d="M25.09,31c.24.43,1,.42,1.44.44a2.46,2.46,0,0,0,1.78-.54.16.16,0,0,0,0-.24c-.51-.27-1.2.13-1.75.16s-1.12-.28-1.44.14c0,0,0,0,0,0Z" style="fill:#0c0a35"/><path d="M13,34a.41.41,0,0,0,0-.82A.41.41,0,0,0,13,34Z" style="fill:#990028"/><path d="M11.7,34.37a.41.41,0,0,0,0-.81.41.41,0,0,0,0,.81Z" style="fill:#990028"/><path d="M10.5,34.73a.32.32,0,0,0,0-.63.32.32,0,0,0,0,.63Z" style="fill:#990028"/><path d="M9.45,35.08a.3.3,0,0,0,0-.59.3.3,0,0,0,0,.59Z" style="fill:#990028"/><path d="M8.47,35.44a.28.28,0,0,0,0-.55.28.28,0,0,0,0,.55Z" style="fill:#990028"/><path d="M30.25,28.23v-.05a.37.37,0,0,0-.73,0v.05c0,.47.77.47.73,0Z" style="fill:#990028"/><path d="M31,28.1a.36.36,0,0,0,0-.72.36.36,0,0,0,0,.72Z" style="fill:#990028"/><path d="M32.19,27.48s0,0,0,0a.25.25,0,1,0-.43,0s0,0,0,0a.23.23,0,0,0,.4,0Z" style="fill:#990028"/><path d="M33,27.34a.28.28,0,0,0,0-.55.28.28,0,0,0,0,.55Z" style="fill:#990028"/><path d="M34,26.91a.22.22,0,0,0,0-.44.22.22,0,0,0,0,.44Z" style="fill:#990028"/><path d="M5.75,12.71a5.39,5.39,0,0,1,.54-.4,4.15,4.15,0,0,0,.56-.46,1.59,1.59,0,0,0,.26-.5,1.22,1.22,0,0,0,0-.78.94.94,0,0,0-1.74.16s0,0,0,0h0a.05.05,0,0,1,0,0,.94.94,0,0,0-1.74-.16,1.22,1.22,0,0,0,0,.78,1.26,1.26,0,0,0,.26.5,3.61,3.61,0,0,0,.56.46c.18.13.37.25.54.4l.45.48Z" style="fill:#d6002b"/><path d="M35.22,49.65c-.17.15-.35.27-.53.4a3.24,3.24,0,0,0-.57.47,1.44,1.44,0,0,0-.26.49,1.22,1.22,0,0,0,0,.78.94.94,0,0,0,1.74-.16s0,0,0,0h0s0,0,0,0a.94.94,0,0,0,1.74.16,1.16,1.16,0,0,0,0-.78,1.27,1.27,0,0,0-.25-.49,3.24,3.24,0,0,0-.57-.47,5.25,5.25,0,0,1-.53-.4c-.09-.08-.46-.48-.46-.48Z" style="fill:#d6002b"/><path d="M5,7.93a2,2,0,0,1-1.74-.85A3.4,3.4,0,0,1,2.59,5a3.44,3.44,0,0,1,.65-2.19A2.09,2.09,0,0,1,5,1.94a2.08,2.08,0,0,1,1.69.81,3.23,3.23,0,0,1,.67,2.14,3.7,3.7,0,0,1-.5,1.93,2.09,2.09,0,0,1-1.27,1v.08c0,.42.25.63.76.63A3.23,3.23,0,0,0,7,8.51v.58a2,2,0,0,1-.59.09,1.67,1.67,0,0,1-1-.28A1.27,1.27,0,0,1,5,7.93Zm0-.59a1.32,1.32,0,0,0,1.18-.69,3.31,3.31,0,0,0,.42-1.77,3,3,0,0,0-.43-1.73A1.39,1.39,0,0,0,5,2.53a1.35,1.35,0,0,0-1.18.67A3.27,3.27,0,0,0,3.34,5a3.11,3.11,0,0,0,.44,1.72A1.34,1.34,0,0,0,5,7.34Z" style="fill:#d6002b"/><path d="M36,54.36a2,2,0,0,1,1.73.85,3.4,3.4,0,0,1,.63,2.1,3.48,3.48,0,0,1-.65,2.19,2.17,2.17,0,0,1-3.4,0,3.24,3.24,0,0,1-.67-2.14,3.67,3.67,0,0,1,.5-1.93,2.12,2.12,0,0,1,1.27-1v-.08c0-.42-.26-.63-.77-.63a4.33,4.33,0,0,0-.66.05V53.2a2,2,0,0,1,.59-.09,1.61,1.61,0,0,1,1,.28A1.27,1.27,0,0,1,36,54.36ZM36,55a1.32,1.32,0,0,0-1.18.68,3.36,3.36,0,0,0-.42,1.77,2.93,2.93,0,0,0,.44,1.74,1.36,1.36,0,0,0,1.17.61,1.33,1.33,0,0,0,1.17-.67,3.15,3.15,0,0,0,.43-1.75,3,3,0,0,0-.44-1.72A1.34,1.34,0,0,0,36,55Z" style="fill:#d6002b"/><path d="M13.47,59.11H6.19a3.1,3.1,0,0,1-3-3.19V15.66h.19V55.92a2.92,2.92,0,0,0,2.81,3h7.28Z" style="fill:#d6002b"/><rect x="28.95" y="58.93" width="3.83" height="0.19" style="fill:#d6002b"/><path d="M37.74,46.82h-.19V6.36a2.92,2.92,0,0,0-2.81-3H29V3.17h5.79a3.1,3.1,0,0,1,3,3.19Z" style="fill:#d6002b"/><rect x="8.45" y="3.17" width="4.43" height="0.19" style="fill:#d6002b"/></g></g></g></svg>