<svg xmlns="http://www.w3.org/2000/svg" viewBox="0 0 40.93 62.29"><title>s10</title><g id="Layer_2" data-name="Layer 2"><g id="Layer_1-2" data-name="Layer 1"><g id="s10"><rect x="0.09" y="0.09" width="40.74" height="62.1" rx="3.45" style="fill:#fff"/><path d="M37.39,62.29H3.54A3.55,3.55,0,0,1,0,58.74V3.54A3.55,3.55,0,0,1,3.54,0H37.39a3.55,3.55,0,0,1,3.54,3.54v55.2A3.55,3.55,0,0,1,37.39,62.29ZM3.54.19A3.35,3.35,0,0,0,.19,3.54v55.2A3.36,3.36,0,0,0,3.54,62.1H37.39a3.36,3.36,0,0,0,3.35-3.36V3.54A3.35,3.35,0,0,0,37.39.19Z" style="fill:#2d2d2d"/><path d="M35.44,50.65c0-.1,0-.25,0-.35s0-.21,0-.32a1.42,1.42,0,0,0-.43-.92,9.73,9.73,0,0,1,1.08,0,1.37,1.37,0,0,0-.43.92c0,.11,0,.21,0,.32s0,.25,0,.35Z" style="fill:#0c0a35"/><path d="M35.53,50.26a1.16,1.16,0,0,0-1-.54.88.88,0,0,0-.84.68,1.08,1.08,0,0,0,.33.93,4.3,4.3,0,0,0,.84.61,4.62,4.62,0,0,1,.7.67,8.73,8.73,0,0,1,.7-.66,6.51,6.51,0,0,0,.84-.62,1.11,1.11,0,0,0,.33-.93.89.89,0,0,0-.84-.68,1.16,1.16,0,0,0-1,.54Z" style="fill:#0c0a35"/><path d="M5.36,11.36c0,.1,0,.25,0,.35s0,.21,0,.31a1.4,1.4,0,0,0,.43.93,9.73,9.73,0,0,1-1.08,0A1.45,1.45,0,0,0,5.11,12c0-.1,0-.2,0-.31s0-.25,0-.35Z" style="fill:#0c0a35"/><path d="M5.27,11.75a1.16,1.16,0,0,0,1,.54.9.9,0,0,0,.84-.68,1.11,1.11,0,0,0-.33-.93,4.3,4.3,0,0,0-.84-.61,4.62,4.62,0,0,1-.7-.67,8.73,8.73,0,0,1-.7.66,6.51,6.51,0,0,0-.84.62,1.08,1.08,0,0,0-.33.93.89.89,0,0,0,.84.68,1.16,1.16,0,0,0,1-.54Z" style="fill:#0c0a35"/><path d="M4.45,8.21v.53H2.29V8.21h.79V3.77A6.77,6.77,0,0,1,1.5,5V4.29A5.27,5.27,0,0,0,3.25,2.88h.52V8.21Z" style="fill:#0c0a35"/><path d="M6.94,8.86A1.86,1.86,0,0,1,5.35,8a3.72,3.72,0,0,1-.59-2.14,3.85,3.85,0,0,1,.56-2.12,1.82,1.82,0,0,1,1.6-.86,1.82,1.82,0,0,1,1.64.9,4,4,0,0,1,.55,2.11A3.75,3.75,0,0,1,8.54,8,1.81,1.81,0,0,1,6.94,8.86Zm0-.57A1.14,1.14,0,0,0,8,7.63,3.39,3.39,0,0,0,8.37,6,4.07,4.07,0,0,0,8,4.16a1.15,1.15,0,0,0-1.1-.72,1.14,1.14,0,0,0-1.07.66,3.64,3.64,0,0,0-.35,1.74,3.67,3.67,0,0,0,.37,1.79A1.18,1.18,0,0,0,6.94,8.29Z" style="fill:#0c0a35"/><path d="M36.48,54.08v-.54h2.16v.54h-.79v4.44a6.42,6.42,0,0,1,1.59-1.25V58a5,5,0,0,0-1.76,1.41h-.52V54.08Z" style="fill:#0c0a35"/><path d="M34,53.42a1.85,1.85,0,0,1,1.59.87,3.69,3.69,0,0,1,.59,2.13,3.82,3.82,0,0,1-.56,2.12,1.92,1.92,0,0,1-3.23,0,3.88,3.88,0,0,1-.56-2.12,3.8,3.8,0,0,1,.57-2.08A1.81,1.81,0,0,1,34,53.42ZM34,54a1.14,1.14,0,0,0-1.08.66,3.55,3.55,0,0,0-.35,1.66,4,4,0,0,0,.36,1.81,1.16,1.16,0,0,0,1.1.73,1.14,1.14,0,0,0,1.07-.66,4.51,4.51,0,0,0,0-3.53A1.16,1.16,0,0,0,34,54Z" style="fill:#0c0a35"/><path d="M14.6,8.19c0,.26-.1.62-.1.88a6.78,6.78,0,0,0,0,.78,3.51,3.51,0,0,0,1.08,2.33c-.6,0-2.11,0-2.72,0A3.51,3.51,0,0,0,14,9.85a6.78,6.78,0,0,0,0-.78c0-.26-.1-.62-.1-.88Z" style="fill:#0c0a35"/><path d="M14.38,9.16a2.9,2.9,0,0,0,2.45,1.36,2.24,2.24,0,0,0,2.11-1.7,2.73,2.73,0,0,0-.83-2.33A10.92,10.92,0,0,0,16,5a11.73,11.73,0,0,1-1.76-1.68A21.86,21.86,0,0,1,12.5,4.94a15.48,15.48,0,0,0-2.11,1.55,2.79,2.79,0,0,0-.83,2.33,2.24,2.24,0,0,0,2.11,1.7,2.9,2.9,0,0,0,2.45-1.36Z" style="fill:#0c0a35"/><path d="M27,8.19c0,.26-.1.62-.1.88a6.78,6.78,0,0,0,0,.78A3.51,3.51,0,0,0,28,12.18c-.6,0-2.12,0-2.72,0A3.51,3.51,0,0,0,26.4,9.85a6.78,6.78,0,0,0,0-.78c0-.26-.1-.62-.1-.88Z" style="fill:#0c0a35"/><path d="M26.81,9.16a2.9,2.9,0,0,0,2.45,1.36,2.24,2.24,0,0,0,2.11-1.7,2.73,2.73,0,0,0-.83-2.33A10.92,10.92,0,0,0,28.44,5a11.73,11.73,0,0,1-1.76-1.68,21.86,21.86,0,0,1-1.75,1.65,15.48,15.48,0,0,0-2.11,1.55A2.79,2.79,0,0,0,22,8.82a2.25,2.25,0,0,0,2.12,1.7,2.9,2.9,0,0,0,2.44-1.36Z" style="fill:#0c0a35"/><path d="M14.59,25.7c0,.26-.12.62-.12.88a6.77,6.77,0,0,0,0,.78,3.52,3.52,0,0,0,1,2.35c-.6,0-2.11,0-2.71-.07a3.47,3.47,0,0,0,1.13-2.29,5.11,5.11,0,0,0,.05-.78c0-.26-.08-.63-.08-.89Z" style="fill:#0c0a35"/><path d="M14.34,26.67a2.92,2.92,0,0,0,2.42,1.42,2.25,2.25,0,0,0,2.15-1.65,2.77,2.77,0,0,0-.77-2.36,10.94,10.94,0,0,0-2.06-1.56,11.7,11.7,0,0,1-1.72-1.73,21.15,21.15,0,0,1-1.79,1.61,17.12,17.12,0,0,0-2.15,1.49,2.77,2.77,0,0,0-.88,2.32A2.26,2.26,0,0,0,11.61,28a2.89,2.89,0,0,0,2.48-1.3Z" style="fill:#0c0a35"/><path d="M27,26c0,.25-.12.62-.13.88s0,.52,0,.78a3.57,3.57,0,0,0,1,2.35c-.6,0-2.11,0-2.71-.07a3.53,3.53,0,0,0,1.14-2.29,7,7,0,0,0,0-.78c0-.26-.09-.63-.08-.89Z" style="fill:#0c0a35"/><path d="M26.77,27a2.89,2.89,0,0,0,2.41,1.41,2.23,2.23,0,0,0,2.16-1.64,2.77,2.77,0,0,0-.77-2.36,11.06,11.06,0,0,0-2.07-1.57,12.11,12.11,0,0,1-1.71-1.72A23.12,23.12,0,0,1,25,22.71a15.5,15.5,0,0,0-2.15,1.49A2.79,2.79,0,0,0,22,26.52,2.26,2.26,0,0,0,24,28.27,2.92,2.92,0,0,0,26.52,27Z" style="fill:#0c0a35"/><path d="M20.82,17.1c0,.26-.11.62-.11.88a7,7,0,0,0,0,.79,3.58,3.58,0,0,0,1.08,2.32c-.6,0-2.11,0-2.71,0a3.58,3.58,0,0,0,1.08-2.32,7,7,0,0,0,0-.79c0-.26-.1-.62-.1-.88Z" style="fill:#0c0a35"/><path d="M20.59,18.08A2.94,2.94,0,0,0,23,19.44a2.26,2.26,0,0,0,2.11-1.71,2.76,2.76,0,0,0-.82-2.33,11.44,11.44,0,0,0-2.11-1.52,11.73,11.73,0,0,1-1.76-1.68,21.86,21.86,0,0,1-1.75,1.65A17.09,17.09,0,0,0,16.6,15.4a2.76,2.76,0,0,0-.82,2.33,2.27,2.27,0,0,0,2.11,1.71,2.93,2.93,0,0,0,2.45-1.36Z" style="fill:#0c0a35"/><path d="M26.33,54.1c0-.26.1-.63.1-.89a6.78,6.78,0,0,0,0-.78,3.49,3.49,0,0,0-1.08-2.32c.6,0,2.12,0,2.72,0A3.49,3.49,0,0,0,27,52.43a6.78,6.78,0,0,0,0,.78c0,.26.1.63.1.89Z" style="fill:#0c0a35"/><path d="M26.55,53.12a2.9,2.9,0,0,0-2.44-1.36A2.27,2.27,0,0,0,22,53.46a2.81,2.81,0,0,0,.83,2.34,11.37,11.37,0,0,0,2.1,1.52A11.73,11.73,0,0,1,26.68,59a21.86,21.86,0,0,1,1.75-1.65,16.37,16.37,0,0,0,2.11-1.55,2.75,2.75,0,0,0,.83-2.34,2.27,2.27,0,0,0-2.11-1.7,2.9,2.9,0,0,0-2.45,1.36Z" style="fill:#0c0a35"/><path d="M13.9,54.1c0-.26.1-.63.1-.89a6.78,6.78,0,0,0,0-.78,3.49,3.49,0,0,0-1.08-2.32c.61,0,2.12,0,2.72,0a3.49,3.49,0,0,0-1.08,2.32,6.78,6.78,0,0,0,0,.78c0,.26.1.63.1.89Z" style="fill:#0c0a35"/><path d="M14.12,53.12a2.9,2.9,0,0,0-2.45-1.36,2.27,2.27,0,0,0-2.11,1.7,2.81,2.81,0,0,0,.83,2.34,11.37,11.37,0,0,0,2.1,1.52A11.73,11.73,0,0,1,14.25,59,21.86,21.86,0,0,1,16,57.35a16.37,16.37,0,0,0,2.11-1.55,2.75,2.75,0,0,0,.83-2.34,2.27,2.27,0,0,0-2.11-1.7,2.9,2.9,0,0,0-2.45,1.36Z" style="fill:#0c0a35"/><path d="M26.34,36.59c0-.26.12-.63.12-.88a5.21,5.21,0,0,0,0-.79,3.54,3.54,0,0,0-1-2.35c.6,0,2.11,0,2.71.07A3.54,3.54,0,0,0,27,34.94a5.11,5.11,0,0,0-.05.78c0,.26.09.63.08.89Z" style="fill:#0c0a35"/><path d="M26.59,35.62a2.92,2.92,0,0,0-2.42-1.42A2.24,2.24,0,0,0,22,35.85a2.75,2.75,0,0,0,.77,2.35,11.32,11.32,0,0,0,2.06,1.57,11.81,11.81,0,0,1,1.72,1.72,23.12,23.12,0,0,1,1.79-1.61,15.24,15.24,0,0,0,2.15-1.49,2.75,2.75,0,0,0,.88-2.31,2.23,2.23,0,0,0-2.07-1.75,2.9,2.9,0,0,0-2.48,1.29Z" style="fill:#0c0a35"/><path d="M13.91,36.28c0-.26.12-.62.13-.88s0-.52,0-.78a3.57,3.57,0,0,0-1-2.35c.6,0,2.11,0,2.71.06a3.58,3.58,0,0,0-1.14,2.3c0,.26,0,.52-.05.78s.09.63.08.89Z" style="fill:#0c0a35"/><path d="M14.16,35.31a2.9,2.9,0,0,0-2.41-1.42,2.26,2.26,0,0,0-2.16,1.65,2.78,2.78,0,0,0,.77,2.35,10.65,10.65,0,0,0,2.07,1.57,11.45,11.45,0,0,1,1.71,1.73,21.15,21.15,0,0,1,1.79-1.61,15.57,15.57,0,0,0,2.15-1.5A2.77,2.77,0,0,0,19,35.77,2.25,2.25,0,0,0,16.9,34a2.9,2.9,0,0,0-2.49,1.3Z" style="fill:#0c0a35"/><path d="M20.12,45.19c0-.26.1-.63.1-.89a6.78,6.78,0,0,0,0-.78,3.56,3.56,0,0,0-1.08-2.32c.6,0,2.11,0,2.71,0a3.56,3.56,0,0,0-1.08,2.32,6.78,6.78,0,0,0,0,.78c0,.26.11.63.11.89Z" style="fill:#0c0a35"/><path d="M20.34,44.21a2.9,2.9,0,0,0-2.45-1.36,2.26,2.26,0,0,0-2.11,1.7,2.78,2.78,0,0,0,.82,2.34,10.94,10.94,0,0,0,2.11,1.51,11.88,11.88,0,0,1,1.75,1.69,24.19,24.19,0,0,1,1.76-1.66,16.05,16.05,0,0,0,2.11-1.54,2.78,2.78,0,0,0,.82-2.34A2.25,2.25,0,0,0,23,42.85a2.92,2.92,0,0,0-2.45,1.36Z" style="fill:#0c0a35"/></g></g></g></svg>