<svg xmlns="http://www.w3.org/2000/svg" viewBox="0 0 40.93 62.29"><title>s2</title><g id="Layer_2" data-name="Layer 2"><g id="Layer_1-2" data-name="Layer 1"><g id="s2"><rect x="0.09" y="0.09" width="40.74" height="62.1" rx="3.45" style="fill:#fff"/><path d="M37.39,62.29H3.54A3.55,3.55,0,0,1,0,58.74V3.54A3.55,3.55,0,0,1,3.54,0H37.39a3.55,3.55,0,0,1,3.54,3.54v55.2A3.55,3.55,0,0,1,37.39,62.29ZM3.54.19A3.35,3.35,0,0,0,.19,3.54v55.2A3.36,3.36,0,0,0,3.54,62.1H37.39a3.36,3.36,0,0,0,3.35-3.36V3.54A3.35,3.35,0,0,0,37.39.19Z" style="fill:#2d2d2d"/><path d="M35.44,50.65c0-.1,0-.25,0-.35s0-.21,0-.32a1.42,1.42,0,0,0-.43-.92,9.73,9.73,0,0,1,1.08,0,1.42,1.42,0,0,0-.43.92c0,.11,0,.21,0,.32s0,.25,0,.35Z" style="fill:#0c0a35"/><path d="M35.53,50.26a1.16,1.16,0,0,0-1-.54.88.88,0,0,0-.84.68,1.08,1.08,0,0,0,.33.93,4.3,4.3,0,0,0,.84.61,4.62,4.62,0,0,1,.7.67,8.73,8.73,0,0,1,.7-.66,6.51,6.51,0,0,0,.84-.62,1.11,1.11,0,0,0,.33-.93.88.88,0,0,0-.84-.68,1.16,1.16,0,0,0-1,.54Z" style="fill:#0c0a35"/><path d="M5.36,11.36c0,.1,0,.25,0,.35s0,.21,0,.31a1.4,1.4,0,0,0,.43.93,9.73,9.73,0,0,1-1.08,0A1.45,1.45,0,0,0,5.11,12c0-.1,0-.2,0-.31s0-.25,0-.35Z" style="fill:#0c0a35"/><path d="M5.27,11.75a1.16,1.16,0,0,0,1,.54.89.89,0,0,0,.84-.68,1.11,1.11,0,0,0-.33-.93,4.3,4.3,0,0,0-.84-.61,4.62,4.62,0,0,1-.7-.67,8.73,8.73,0,0,1-.7.66,6.51,6.51,0,0,0-.84.62,1.08,1.08,0,0,0-.33.93.89.89,0,0,0,.84.68,1.16,1.16,0,0,0,1-.54Z" style="fill:#0c0a35"/><path d="M7.32,8.15v.59H3.24V8.15A22.13,22.13,0,0,0,6.12,5.76a1.81,1.81,0,0,0,.47-1.14,1,1,0,0,0-.4-.85,1.42,1.42,0,0,0-1.83,0,1.37,1.37,0,0,0-.45,1l-.67-.2A2,2,0,0,1,5.3,2.88a2.13,2.13,0,0,1,1.45.5A1.61,1.61,0,0,1,7.3,4.62a2,2,0,0,1-.26,1A4.88,4.88,0,0,1,6,6.69c-.49.43-1.12.91-1.89,1.46Z" style="fill:#0c0a35"/><path d="M33.63,54.14v-.6h4.08v.6a21.3,21.3,0,0,0-2.88,2.39,1.81,1.81,0,0,0-.47,1.14,1,1,0,0,0,.4.85,1.4,1.4,0,0,0,.9.32A1.38,1.38,0,0,0,37,57.52l.67.2a2,2,0,0,1-2.06,1.69,2.07,2.07,0,0,1-1.45-.51,1.59,1.59,0,0,1-.55-1.23,2,2,0,0,1,.26-1,4.88,4.88,0,0,1,1-1.11,20.9,20.9,0,0,1,1.89-1.46Z" style="fill:#0c0a35"/><path d="M20.82,8.19c0,.26-.11.62-.11.88a6.78,6.78,0,0,0,0,.78,3.61,3.61,0,0,0,1.08,2.33c-.6,0-2.11,0-2.71,0a3.61,3.61,0,0,0,1.08-2.33,6.78,6.78,0,0,0,0-.78c0-.26-.1-.62-.1-.88Z" style="fill:#0c0a35"/><path d="M20.59,9.16A2.93,2.93,0,0,0,23,10.52a2.23,2.23,0,0,0,2.11-1.7,2.75,2.75,0,0,0-.82-2.33A11,11,0,0,0,22.22,5a11.48,11.48,0,0,1-1.75-1.68,22.61,22.61,0,0,1-1.76,1.65A16.12,16.12,0,0,0,16.6,6.49a2.75,2.75,0,0,0-.82,2.33,2.24,2.24,0,0,0,2.11,1.7,2.9,2.9,0,0,0,2.45-1.36Z" style="fill:#0c0a35"/><path d="M20.12,54.1c0-.26.1-.63.1-.89a6.78,6.78,0,0,0,0-.78,3.58,3.58,0,0,0-1.08-2.32c.6,0,2.11,0,2.71,0a3.58,3.58,0,0,0-1.08,2.32,6.78,6.78,0,0,0,0,.78c0,.26.11.63.11.89Z" style="fill:#0c0a35"/><path d="M20.34,53.12a2.9,2.9,0,0,0-2.45-1.36,2.27,2.27,0,0,0-2.11,1.7,2.77,2.77,0,0,0,.82,2.34,11.44,11.44,0,0,0,2.11,1.52A11.73,11.73,0,0,1,20.47,59a21.86,21.86,0,0,1,1.75-1.65,17.09,17.09,0,0,0,2.11-1.55,2.77,2.77,0,0,0,.82-2.34A2.25,2.25,0,0,0,23,51.76a2.93,2.93,0,0,0-2.45,1.36Z" style="fill:#0c0a35"/></g></g></g></svg>