<svg xmlns="http://www.w3.org/2000/svg" viewBox="0 0 40.93 62.29"><title>s6</title><g id="Layer_2" data-name="Layer 2"><g id="Layer_1-2" data-name="Layer 1"><g id="s6"><rect x="0.09" y="0.09" width="40.74" height="62.1" rx="3.45" style="fill:#fff"/><path d="M37.39,62.29H3.54A3.55,3.55,0,0,1,0,58.74V3.54A3.55,3.55,0,0,1,3.54,0H37.39a3.55,3.55,0,0,1,3.54,3.54v55.2A3.55,3.55,0,0,1,37.39,62.29ZM3.54.19A3.35,3.35,0,0,0,.19,3.54v55.2A3.36,3.36,0,0,0,3.54,62.1H37.39a3.36,3.36,0,0,0,3.35-3.36V3.54A3.35,3.35,0,0,0,37.39.19Z" style="fill:#2d2d2d"/><path d="M35.44,50.65c0-.1,0-.25,0-.35s0-.21,0-.32a1.42,1.42,0,0,0-.43-.92,9.73,9.73,0,0,1,1.08,0,1.37,1.37,0,0,0-.43.92c0,.11,0,.21,0,.32s0,.25,0,.35Z" style="fill:#0c0a35"/><path d="M35.53,50.26a1.17,1.17,0,0,0-1-.54.88.88,0,0,0-.84.68,1.08,1.08,0,0,0,.33.93,4.3,4.3,0,0,0,.84.61,4.62,4.62,0,0,1,.7.67,8.73,8.73,0,0,1,.7-.66,6.51,6.51,0,0,0,.84-.62,1.11,1.11,0,0,0,.33-.93.88.88,0,0,0-.84-.68,1.16,1.16,0,0,0-1,.54Z" style="fill:#0c0a35"/><path d="M5.36,11.36c0,.1,0,.25,0,.35s0,.21,0,.31a1.4,1.4,0,0,0,.43.93,9.73,9.73,0,0,1-1.08,0A1.45,1.45,0,0,0,5.11,12c0-.1,0-.2,0-.31s0-.25,0-.35Z" style="fill:#0c0a35"/><path d="M5.27,11.75a1.16,1.16,0,0,0,1,.54.9.9,0,0,0,.84-.68,1.11,1.11,0,0,0-.33-.93,4.3,4.3,0,0,0-.84-.61,4.62,4.62,0,0,1-.7-.67,8.73,8.73,0,0,1-.7.66,6.51,6.51,0,0,0-.84.62,1.08,1.08,0,0,0-.33.93.89.89,0,0,0,.84.68,1.17,1.17,0,0,0,1-.54Z" style="fill:#0c0a35"/><path d="M7.22,4.17l-.65.18a1.2,1.2,0,0,0-1.21-.88c-1.08,0-1.63.89-1.65,2.68A1.83,1.83,0,0,1,5.43,5a1.79,1.79,0,0,1,1.34.56,1.83,1.83,0,0,1,.55,1.34,2,2,0,0,1-2.05,2,1.93,1.93,0,0,1-1.62-.77A3.25,3.25,0,0,1,3,6a4.11,4.11,0,0,1,.57-2.21,1.93,1.93,0,0,1,1.77-.91A1.79,1.79,0,0,1,7.22,4.17Zm-2,4.12A1.38,1.38,0,0,0,6.27,6a1.25,1.25,0,0,0-.95-.4A1.42,1.42,0,0,0,4.3,6a1.34,1.34,0,0,0-.43,1,1.3,1.3,0,0,0,.39.92A1.33,1.33,0,0,0,5.26,8.29Z" style="fill:#0c0a35"/><path d="M33.54,58.12l.65-.18a1.21,1.21,0,0,0,1.21.87q1.62,0,1.65-2.67a1.79,1.79,0,0,1-.73.88,1.87,1.87,0,0,1-1,.29A1.79,1.79,0,0,1,34,56.75a1.83,1.83,0,0,1-.55-1.34,2.06,2.06,0,0,1,3.67-1.22,3.28,3.28,0,0,1,.61,2.1,4.07,4.07,0,0,1-.57,2.2,1.94,1.94,0,0,1-1.77.92A1.79,1.79,0,0,1,33.54,58.12Zm2-4.12a1.37,1.37,0,0,0-1,2.33,1.25,1.25,0,0,0,.94.4,1.42,1.42,0,0,0,1-.42,1.36,1.36,0,0,0,.43-1,1.28,1.28,0,0,0-.39-.92A1.33,1.33,0,0,0,35.5,54Z" style="fill:#0c0a35"/><path d="M14.6,8.19c0,.26-.1.62-.1.88a6.78,6.78,0,0,0,0,.78,3.51,3.51,0,0,0,1.08,2.33c-.6,0-2.11,0-2.72,0A3.51,3.51,0,0,0,14,9.85a6.78,6.78,0,0,0,0-.78c0-.26-.1-.62-.1-.88Z" style="fill:#0c0a35"/><path d="M14.38,9.16a2.9,2.9,0,0,0,2.45,1.36,2.24,2.24,0,0,0,2.11-1.7,2.73,2.73,0,0,0-.83-2.33A10.92,10.92,0,0,0,16,5a11.73,11.73,0,0,1-1.76-1.68A21.86,21.86,0,0,1,12.5,4.94a15.48,15.48,0,0,0-2.11,1.55,2.79,2.79,0,0,0-.83,2.33,2.25,2.25,0,0,0,2.12,1.7,2.9,2.9,0,0,0,2.44-1.36Z" style="fill:#0c0a35"/><path d="M27,8.19c0,.26-.1.62-.1.88a6.78,6.78,0,0,0,0,.78A3.51,3.51,0,0,0,28,12.18c-.61,0-2.12,0-2.72,0A3.51,3.51,0,0,0,26.4,9.85a6.78,6.78,0,0,0,0-.78c0-.26-.1-.62-.1-.88Z" style="fill:#0c0a35"/><path d="M26.81,9.16a2.9,2.9,0,0,0,2.45,1.36,2.24,2.24,0,0,0,2.11-1.7,2.73,2.73,0,0,0-.83-2.33A10.92,10.92,0,0,0,28.44,5a11.73,11.73,0,0,1-1.76-1.68,21.86,21.86,0,0,1-1.75,1.65,15.48,15.48,0,0,0-2.11,1.55A2.76,2.76,0,0,0,22,8.82a2.24,2.24,0,0,0,2.11,1.7,2.9,2.9,0,0,0,2.45-1.36Z" style="fill:#0c0a35"/><path d="M14.6,31.58c0,.26-.1.63-.1.89a6.78,6.78,0,0,0,0,.78,3.49,3.49,0,0,0,1.08,2.32c-.6,0-2.11,0-2.72,0A3.49,3.49,0,0,0,14,33.25a6.78,6.78,0,0,0,0-.78c0-.26-.1-.63-.1-.89Z" style="fill:#0c0a35"/><path d="M14.38,32.56a2.9,2.9,0,0,0,2.45,1.36,2.24,2.24,0,0,0,2.11-1.7,2.76,2.76,0,0,0-.83-2.34A10.87,10.87,0,0,0,16,28.37a12.28,12.28,0,0,1-1.76-1.68,21.86,21.86,0,0,1-1.75,1.65,15.42,15.42,0,0,0-2.11,1.54,2.82,2.82,0,0,0-.83,2.34,2.25,2.25,0,0,0,2.12,1.7,2.9,2.9,0,0,0,2.44-1.36Z" style="fill:#0c0a35"/><path d="M27,31.58c0,.26-.1.63-.1.89a6.78,6.78,0,0,0,0,.78A3.49,3.49,0,0,0,28,35.57c-.61,0-2.12,0-2.72,0a3.49,3.49,0,0,0,1.08-2.32,6.78,6.78,0,0,0,0-.78c0-.26-.1-.63-.1-.89Z" style="fill:#0c0a35"/><path d="M26.81,32.56a2.9,2.9,0,0,0,2.45,1.36,2.24,2.24,0,0,0,2.11-1.7,2.76,2.76,0,0,0-.83-2.34,10.87,10.87,0,0,0-2.1-1.51,12.28,12.28,0,0,1-1.76-1.68,21.86,21.86,0,0,1-1.75,1.65,15.42,15.42,0,0,0-2.11,1.54A2.79,2.79,0,0,0,22,32.22a2.24,2.24,0,0,0,2.11,1.7,2.9,2.9,0,0,0,2.45-1.36Z" style="fill:#0c0a35"/><path d="M26.33,54.1c0-.26.1-.63.1-.89a6.78,6.78,0,0,0,0-.78,3.49,3.49,0,0,0-1.08-2.32c.6,0,2.11,0,2.72,0A3.49,3.49,0,0,0,27,52.43a6.78,6.78,0,0,0,0,.78c0,.26.1.63.1.89Z" style="fill:#0c0a35"/><path d="M26.55,53.12a2.9,2.9,0,0,0-2.45-1.36A2.27,2.27,0,0,0,22,53.46a2.78,2.78,0,0,0,.83,2.34,11.37,11.37,0,0,0,2.1,1.52A11.73,11.73,0,0,1,26.68,59a21.86,21.86,0,0,1,1.75-1.65,16.37,16.37,0,0,0,2.11-1.55,2.75,2.75,0,0,0,.83-2.34,2.27,2.27,0,0,0-2.11-1.7,2.9,2.9,0,0,0-2.45,1.36Z" style="fill:#0c0a35"/><path d="M13.9,54.1c0-.26.1-.63.1-.89a6.78,6.78,0,0,0,0-.78,3.49,3.49,0,0,0-1.08-2.32c.61,0,2.12,0,2.72,0a3.49,3.49,0,0,0-1.08,2.32,6.78,6.78,0,0,0,0,.78c0,.26.1.63.1.89Z" style="fill:#0c0a35"/><path d="M14.12,53.12a2.9,2.9,0,0,0-2.44-1.36,2.27,2.27,0,0,0-2.12,1.7,2.81,2.81,0,0,0,.83,2.34,11.37,11.37,0,0,0,2.1,1.52A11.73,11.73,0,0,1,14.25,59,21.86,21.86,0,0,1,16,57.35a16.37,16.37,0,0,0,2.11-1.55,2.75,2.75,0,0,0,.83-2.34,2.27,2.27,0,0,0-2.11-1.7,2.9,2.9,0,0,0-2.45,1.36Z" style="fill:#0c0a35"/></g></g></g></svg>