<svg xmlns="http://www.w3.org/2000/svg" viewBox="0 0 40.93 62.29"><title>s9</title><g id="Layer_2" data-name="Layer 2"><g id="Layer_1-2" data-name="Layer 1"><g id="s9"><rect x="0.09" y="0.09" width="40.74" height="62.1" rx="3.45" style="fill:#fff"/><path d="M37.39,62.29H3.54A3.55,3.55,0,0,1,0,58.74V3.54A3.55,3.55,0,0,1,3.54,0H37.39a3.55,3.55,0,0,1,3.54,3.54v55.2A3.55,3.55,0,0,1,37.39,62.29ZM3.54.19A3.35,3.35,0,0,0,.19,3.54v55.2A3.36,3.36,0,0,0,3.54,62.1H37.39a3.36,3.36,0,0,0,3.35-3.36V3.54A3.35,3.35,0,0,0,37.39.19Z" style="fill:#2d2d2d"/><path d="M35.44,50.65c0-.1,0-.25,0-.35s0-.21,0-.32a1.42,1.42,0,0,0-.43-.92,9.73,9.73,0,0,1,1.08,0,1.42,1.42,0,0,0-.43.92c0,.11,0,.21,0,.32s0,.25,0,.35Z" style="fill:#0c0a35"/><path d="M35.53,50.26a1.16,1.16,0,0,0-1-.54.88.88,0,0,0-.84.68,1.08,1.08,0,0,0,.33.93,4.3,4.3,0,0,0,.84.61,4.62,4.62,0,0,1,.7.67,8.73,8.73,0,0,1,.7-.66,6.51,6.51,0,0,0,.84-.62,1.11,1.11,0,0,0,.33-.93.88.88,0,0,0-.84-.68,1.16,1.16,0,0,0-1,.54Z" style="fill:#0c0a35"/><path d="M5.36,11.36c0,.1,0,.25,0,.35s0,.21,0,.31a1.4,1.4,0,0,0,.43.93,9.73,9.73,0,0,1-1.08,0A1.45,1.45,0,0,0,5.11,12c0-.1,0-.2,0-.31s0-.25,0-.35Z" style="fill:#0c0a35"/><path d="M5.27,11.75a1.16,1.16,0,0,0,1,.54.89.89,0,0,0,.84-.68,1.11,1.11,0,0,0-.33-.93,4.3,4.3,0,0,0-.84-.61,4.62,4.62,0,0,1-.7-.67,8.73,8.73,0,0,1-.7.66,6.51,6.51,0,0,0-.84.62,1.08,1.08,0,0,0-.33.93.89.89,0,0,0,.84.68,1.16,1.16,0,0,0,1-.54Z" style="fill:#0c0a35"/><path d="M3.28,7.7l.58-.21a1.24,1.24,0,0,0,1.2.8,1.37,1.37,0,0,0,1.24-.7,3.67,3.67,0,0,0,.43-1.87,1.83,1.83,0,0,1-1.7,1,1.88,1.88,0,0,1-1.89-1.9,1.92,1.92,0,0,1,.57-1.4,2,2,0,0,1,1.46-.58,2,2,0,0,1,1.66.76,3.41,3.41,0,0,1,.58,2.09A3.93,3.93,0,0,1,6.8,8a2,2,0,0,1-1.74.86A1.75,1.75,0,0,1,3.28,7.7ZM5.19,6.18a1.4,1.4,0,0,0,1.4-1.39,1.3,1.3,0,0,0-.38-.93,1.39,1.39,0,0,0-1-.38,1.28,1.28,0,0,0-1,.39,1.38,1.38,0,0,0-.37,1,1.2,1.2,0,0,0,.41,1A1.37,1.37,0,0,0,5.19,6.18Z" style="fill:#0c0a35"/><path d="M37.48,54.59l-.58.21a1.24,1.24,0,0,0-1.2-.8,1.36,1.36,0,0,0-1.24.69A3.71,3.71,0,0,0,34,56.57a1.83,1.83,0,0,1,1.7-1,1.88,1.88,0,0,1,1.89,1.9,1.94,1.94,0,0,1-.57,1.4,2.16,2.16,0,0,1-3.12-.18,3.45,3.45,0,0,1-.57-2.1A3.82,3.82,0,0,1,34,54.29a2,2,0,0,1,1.74-.87A1.74,1.74,0,0,1,37.48,54.59Zm-1.91,1.52a1.36,1.36,0,0,0-1,.41,1.39,1.39,0,0,0-.4,1,1.3,1.3,0,0,0,.38.93,1.36,1.36,0,0,0,1,.39,1.29,1.29,0,0,0,1-.4,1.39,1.39,0,0,0,.36-1,1.22,1.22,0,0,0-.41-1A1.4,1.4,0,0,0,35.57,56.11Z" style="fill:#0c0a35"/><path d="M14.6,8.19c0,.26-.1.62-.1.88a6.78,6.78,0,0,0,0,.78,3.51,3.51,0,0,0,1.08,2.33c-.6,0-2.11,0-2.71,0A3.61,3.61,0,0,0,14,9.85c0-.26,0-.52,0-.78s-.1-.62-.1-.88Z" style="fill:#0c0a35"/><path d="M14.38,9.16a2.9,2.9,0,0,0,2.45,1.36,2.24,2.24,0,0,0,2.11-1.7,2.73,2.73,0,0,0-.83-2.33A10.92,10.92,0,0,0,16,5a11.73,11.73,0,0,1-1.76-1.68A21.86,21.86,0,0,1,12.5,4.94a15.48,15.48,0,0,0-2.11,1.55,2.79,2.79,0,0,0-.83,2.33,2.25,2.25,0,0,0,2.12,1.7,2.9,2.9,0,0,0,2.44-1.36Z" style="fill:#0c0a35"/><path d="M27,8.19c0,.26-.1.62-.1.88a6.78,6.78,0,0,0,0,.78A3.51,3.51,0,0,0,28,12.18c-.6,0-2.11,0-2.72,0a3.57,3.57,0,0,0,1.09-2.33c0-.26,0-.52,0-.78s-.1-.62-.1-.88Z" style="fill:#0c0a35"/><path d="M26.81,9.16a2.9,2.9,0,0,0,2.45,1.36,2.24,2.24,0,0,0,2.11-1.7,2.73,2.73,0,0,0-.83-2.33A10.92,10.92,0,0,0,28.44,5a11.73,11.73,0,0,1-1.76-1.68,21.86,21.86,0,0,1-1.75,1.65,15.48,15.48,0,0,0-2.11,1.55A2.79,2.79,0,0,0,22,8.82a2.25,2.25,0,0,0,2.12,1.7,2.9,2.9,0,0,0,2.44-1.36Z" style="fill:#0c0a35"/><path d="M14.6,20.45c0,.26-.1.62-.1.88a6.78,6.78,0,0,0,0,.78,3.51,3.51,0,0,0,1.08,2.33c-.6,0-2.11,0-2.71,0A3.61,3.61,0,0,0,14,22.11c0-.26,0-.52,0-.78s-.1-.62-.1-.88Z" style="fill:#0c0a35"/><path d="M14.38,21.42a2.88,2.88,0,0,0,2.45,1.36,2.24,2.24,0,0,0,2.11-1.7,2.73,2.73,0,0,0-.83-2.33A10.92,10.92,0,0,0,16,17.23a11.73,11.73,0,0,1-1.76-1.68A21.86,21.86,0,0,1,12.5,17.2a15.48,15.48,0,0,0-2.11,1.55,2.79,2.79,0,0,0-.83,2.33,2.25,2.25,0,0,0,2.12,1.7,2.88,2.88,0,0,0,2.44-1.36Z" style="fill:#0c0a35"/><path d="M27,20.45c0,.26-.1.62-.1.88a6.78,6.78,0,0,0,0,.78A3.51,3.51,0,0,0,28,24.44c-.6,0-2.11,0-2.72,0a3.57,3.57,0,0,0,1.09-2.33c0-.26,0-.52,0-.78s-.1-.62-.1-.88Z" style="fill:#0c0a35"/><path d="M26.81,21.42a2.88,2.88,0,0,0,2.45,1.36,2.24,2.24,0,0,0,2.11-1.7,2.73,2.73,0,0,0-.83-2.33,10.92,10.92,0,0,0-2.1-1.52,11.73,11.73,0,0,1-1.76-1.68,21.86,21.86,0,0,1-1.75,1.65,15.48,15.48,0,0,0-2.11,1.55A2.79,2.79,0,0,0,22,21.08a2.25,2.25,0,0,0,2.12,1.7,2.88,2.88,0,0,0,2.44-1.36Z" style="fill:#0c0a35"/><path d="M20.82,31.4c0,.25-.11.62-.11.88a6.78,6.78,0,0,0,0,.78,3.61,3.61,0,0,0,1.08,2.33c-.6,0-2.11,0-2.71,0a3.61,3.61,0,0,0,1.08-2.33,6.78,6.78,0,0,0,0-.78c0-.26-.1-.63-.1-.88Z" style="fill:#0c0a35"/><path d="M20.59,32.37A2.93,2.93,0,0,0,23,33.73,2.23,2.23,0,0,0,25.15,32a2.75,2.75,0,0,0-.82-2.33,11,11,0,0,0-2.11-1.52,11.48,11.48,0,0,1-1.75-1.68,22.61,22.61,0,0,1-1.76,1.65A16.12,16.12,0,0,0,16.6,29.7,2.75,2.75,0,0,0,15.78,32a2.24,2.24,0,0,0,2.11,1.7,2.9,2.9,0,0,0,2.45-1.36Z" style="fill:#0c0a35"/><path d="M26.33,54.1c0-.26.1-.63.1-.89s0-.52,0-.78a3.55,3.55,0,0,0-1.09-2.32c.61,0,2.12,0,2.72,0A3.49,3.49,0,0,0,27,52.43a6.78,6.78,0,0,0,0,.78c0,.26.1.63.1.89Z" style="fill:#0c0a35"/><path d="M26.55,53.12a2.9,2.9,0,0,0-2.44-1.36A2.27,2.27,0,0,0,22,53.46a2.81,2.81,0,0,0,.83,2.34,11.37,11.37,0,0,0,2.1,1.52A11.73,11.73,0,0,1,26.68,59a21.86,21.86,0,0,1,1.75-1.65,16.37,16.37,0,0,0,2.11-1.55,2.75,2.75,0,0,0,.83-2.34,2.27,2.27,0,0,0-2.11-1.7,2.9,2.9,0,0,0-2.45,1.36Z" style="fill:#0c0a35"/><path d="M13.9,54.1c0-.26.1-.63.1-.89s0-.52,0-.78a3.58,3.58,0,0,0-1.08-2.32c.6,0,2.11,0,2.71,0a3.49,3.49,0,0,0-1.08,2.32,6.78,6.78,0,0,0,0,.78c0,.26.1.63.1.89Z" style="fill:#0c0a35"/><path d="M14.12,53.12a2.9,2.9,0,0,0-2.44-1.36,2.27,2.27,0,0,0-2.12,1.7,2.81,2.81,0,0,0,.83,2.34,11.37,11.37,0,0,0,2.1,1.52A11.73,11.73,0,0,1,14.25,59,21.86,21.86,0,0,1,16,57.35a16.37,16.37,0,0,0,2.11-1.55,2.75,2.75,0,0,0,.83-2.34,2.27,2.27,0,0,0-2.11-1.7,2.9,2.9,0,0,0-2.45,1.36Z" style="fill:#0c0a35"/><path d="M26.33,41.84c0-.26.1-.63.1-.88s0-.53,0-.79a3.55,3.55,0,0,0-1.09-2.32c.61,0,2.12,0,2.72,0A3.49,3.49,0,0,0,27,40.17a6.87,6.87,0,0,0,0,.79c0,.25.1.62.1.88Z" style="fill:#0c0a35"/><path d="M26.55,40.86a2.9,2.9,0,0,0-2.44-1.36A2.27,2.27,0,0,0,22,41.2a2.82,2.82,0,0,0,.83,2.34,10.87,10.87,0,0,0,2.1,1.51,12.15,12.15,0,0,1,1.76,1.69,21.86,21.86,0,0,1,1.75-1.65,16.37,16.37,0,0,0,2.11-1.55,2.76,2.76,0,0,0,.83-2.34,2.27,2.27,0,0,0-2.11-1.7,2.9,2.9,0,0,0-2.45,1.36Z" style="fill:#0c0a35"/><path d="M13.9,41.84c0-.26.1-.63.1-.88s0-.53,0-.79a3.58,3.58,0,0,0-1.08-2.32c.6,0,2.11,0,2.71,0a3.49,3.49,0,0,0-1.08,2.32,6.87,6.87,0,0,0,0,.79c0,.25.1.62.1.88Z" style="fill:#0c0a35"/><path d="M14.12,40.86a2.9,2.9,0,0,0-2.44-1.36,2.27,2.27,0,0,0-2.12,1.7,2.82,2.82,0,0,0,.83,2.34,10.87,10.87,0,0,0,2.1,1.51,12.15,12.15,0,0,1,1.76,1.69A21.86,21.86,0,0,1,16,45.09a16.37,16.37,0,0,0,2.11-1.55,2.76,2.76,0,0,0,.83-2.34,2.27,2.27,0,0,0-2.11-1.7,2.9,2.9,0,0,0-2.45,1.36Z" style="fill:#0c0a35"/></g></g></g></svg>