<svg xmlns="http://www.w3.org/2000/svg" viewBox="0 0 40.93 62.29"><title>sa</title><g id="Layer_2" data-name="Layer 2"><g id="Layer_1-2" data-name="Layer 1"><g id="sa"><rect x="0.09" y="0.09" width="40.74" height="62.1" rx="3.45" style="fill:#fff"/><path d="M37.39,62.29H3.54A3.55,3.55,0,0,1,0,58.74V3.54A3.55,3.55,0,0,1,3.54,0H37.39a3.55,3.55,0,0,1,3.54,3.54v55.2A3.55,3.55,0,0,1,37.39,62.29ZM3.54.19A3.35,3.35,0,0,0,.19,3.54v55.2A3.36,3.36,0,0,0,3.54,62.1H37.39a3.36,3.36,0,0,0,3.35-3.36V3.54A3.35,3.35,0,0,0,37.39.19Z" style="fill:#2d2d2d"/><path d="M35.44,50.65c0-.1,0-.25,0-.35s0-.21,0-.32a1.42,1.42,0,0,0-.43-.92,9.73,9.73,0,0,1,1.08,0,1.37,1.37,0,0,0-.43.92c0,.11,0,.21,0,.32s0,.25,0,.35Z" style="fill:#0c0a35"/><path d="M35.53,50.26a1.16,1.16,0,0,0-1-.54.88.88,0,0,0-.84.68,1.08,1.08,0,0,0,.33.93,4.3,4.3,0,0,0,.84.61,4.62,4.62,0,0,1,.7.67,8.73,8.73,0,0,1,.7-.66,6.51,6.51,0,0,0,.84-.62,1.11,1.11,0,0,0,.33-.93.88.88,0,0,0-.84-.68,1.16,1.16,0,0,0-1,.54Z" style="fill:#0c0a35"/><path d="M33.3,53.54H34l.58,1.68h2.13l.52-1.68h.6L36,59.29h-.81Zm1.46,2.22.89,2.76.89-2.76Z" style="fill:#0c0a35"/><path d="M5.36,11.36c0,.1,0,.25,0,.35s0,.21,0,.31a1.4,1.4,0,0,0,.43.93,9.73,9.73,0,0,1-1.08,0A1.45,1.45,0,0,0,5.11,12c0-.1,0-.2,0-.31s0-.25,0-.35Z" style="fill:#0c0a35"/><path d="M5.27,11.75a1.16,1.16,0,0,0,1,.54.9.9,0,0,0,.84-.68,1.11,1.11,0,0,0-.33-.93,4.3,4.3,0,0,0-.84-.61,4.62,4.62,0,0,1-.7-.67,8.73,8.73,0,0,1-.7.66,6.51,6.51,0,0,0-.84.62,1.08,1.08,0,0,0-.33.93.89.89,0,0,0,.84.68,1.16,1.16,0,0,0,1-.54Z" style="fill:#0c0a35"/><path d="M20.82,31.58c0,.26-.11.63-.11.89a6.78,6.78,0,0,0,0,.78,3.58,3.58,0,0,0,1.08,2.32c-.6,0-2.11,0-2.71,0a3.58,3.58,0,0,0,1.08-2.32,6.78,6.78,0,0,0,0-.78c0-.26-.1-.63-.1-.89Z" style="fill:#0c0a35"/><path d="M20.59,32.56A2.93,2.93,0,0,0,23,33.92a2.23,2.23,0,0,0,2.11-1.7,2.78,2.78,0,0,0-.82-2.34,10.94,10.94,0,0,0-2.11-1.51,12,12,0,0,1-1.75-1.68,22.61,22.61,0,0,1-1.76,1.65,16.05,16.05,0,0,0-2.11,1.54,2.78,2.78,0,0,0-.82,2.34,2.24,2.24,0,0,0,2.11,1.7,2.9,2.9,0,0,0,2.45-1.36Z" style="fill:#0c0a35"/><path d="M7.5,8.74H6.76L6.19,7.06H4.05L3.54,8.74h-.6L4.81,3h.81ZM6,6.53,5.14,3.76,4.25,6.53Z" style="fill:#0c0a35"/></g></g></g></svg>