<svg xmlns="http://www.w3.org/2000/svg" viewBox="0 0 40.93 62.29"><title>sj</title><g id="Layer_2" data-name="Layer 2"><g id="Layer_1-2" data-name="Layer 1"><g id="sj"><rect x="0.09" y="0.09" width="40.74" height="62.1" rx="3.45" style="fill:#fff"/><path d="M37.39,62.29H3.54A3.55,3.55,0,0,1,0,58.74V3.54A3.55,3.55,0,0,1,3.54,0H37.39a3.55,3.55,0,0,1,3.54,3.54v55.2A3.55,3.55,0,0,1,37.39,62.29ZM3.54.19A3.35,3.35,0,0,0,.19,3.54v55.2A3.36,3.36,0,0,0,3.54,62.1H37.39a3.36,3.36,0,0,0,3.35-3.36V3.54A3.35,3.35,0,0,0,37.39.19Z" style="fill:#2d2d2d"/><path d="M28.08,21.75a11.15,11.15,0,0,1,4.12,1.08,6.79,6.79,0,0,1,2.36,2.31c1.69,2.57,1,9.31.67,9.32l-22.93.43a18.8,18.8,0,0,1-3.44-.14,1,1,0,0,1-.39-.14.52.52,0,0,1-.14-.31c-.21-1-.41-2-.62-3a8.49,8.49,0,0,1-.24-3.64,6.59,6.59,0,0,1,3-3.78,17.19,17.19,0,0,1,5-2.11,18.55,18.55,0,0,1,3.09-.6,25.16,25.16,0,0,1,4.25.08C24.54,21.41,26.32,21.54,28.08,21.75Z" style="fill:#141247"/><path d="M13.16,41A11.2,11.2,0,0,1,9,39.93a6.79,6.79,0,0,1-2.36-2.31C5,35.05,5.68,28.31,6,28.31l22.93-.44a18.76,18.76,0,0,1,3.44.14.9.9,0,0,1,.39.14.52.52,0,0,1,.14.31l.63,3a8.64,8.64,0,0,1,.23,3.64,6.61,6.61,0,0,1-2.94,3.78,17.25,17.25,0,0,1-5,2.11,18.64,18.64,0,0,1-3.08.6,25.15,25.15,0,0,1-4.25-.08C16.71,41.35,14.93,41.22,13.16,41Z" style="fill:#141247"/><path d="M9.51,26a5.35,5.35,0,0,0-2,.56,6.64,6.64,0,0,0-2.26,2.18,6.06,6.06,0,0,0-.48,5.15,5.19,5.19,0,0,0,2.48,2.74,9.51,9.51,0,0,0,3.62,1,72.8,72.8,0,0,0,.34-8.22,6.87,6.87,0,0,0-.33-2.6,1.25,1.25,0,0,0-.65-.78A1.55,1.55,0,0,0,9.51,26Z" style="fill:#0c0a35"/><path d="M31.73,36.74a5.35,5.35,0,0,0,2-.56A6.67,6.67,0,0,0,36,34a6.1,6.1,0,0,0,.48-5.15A5.23,5.23,0,0,0,34,26.11a9.69,9.69,0,0,0-3.62-1,68.4,68.4,0,0,0-.34,8.22,7.07,7.07,0,0,0,.32,2.6,1.26,1.26,0,0,0,.66.78A1.51,1.51,0,0,0,31.73,36.74Z" style="fill:#0c0a35"/><path d="M33.62,33.48c.76-1.14.58-4.13-.64-4.94a.14.14,0,0,0-.21.12A18.23,18.23,0,0,0,33.15,31c.09.81-.06,1.67.11,2.46a.2.2,0,0,0,.36,0Z" style="fill:#990028"/><path d="M34.83,33.3c1-.16,1-1.71.93-2.45s-.45-2.12-1.33-2.46c-.1,0-.2.08-.17.17.2.74.56,1.41.73,2.17a3.83,3.83,0,0,1-.31,2.41c0,.1.07.17.15.16Z" style="fill:#990028"/><path d="M8.21,28.66c.45-.12.86-.33,1.31-.46a1.9,1.9,0,0,1,1.37,0c.39.2.55.59.78.91A2.91,2.91,0,0,0,14,30.33c1.09,0,2.15-.64,3.2-.38.83.2,1.34.89,2.14,1.15,1.32.43,2.74-.45,4.16-.47a10.11,10.11,0,0,1,2.37.44,11.7,11.7,0,0,0,2.44.28A3.8,3.8,0,0,0,30.14,31a9.15,9.15,0,0,1,1.25-.85,2.89,2.89,0,0,1,1.67.05,5.52,5.52,0,0,0,1.66.29c.57,0,1.91-.55,1.92-1a6,6,0,0,0-1.15-3.66A11.45,11.45,0,0,0,32,22.74a16.41,16.41,0,0,0-6.35-1.41c-1.07-.06-2.13,0-3.19,0a33.64,33.64,0,0,0-5.77.09c-5.06.91-6.54.51-8.74,3.11C6.72,26,6.62,27.73,6.89,28.17A1.1,1.1,0,0,0,8.21,28.66Z" style="fill:#191956"/><path d="M22.67,1.23c0-.08.06-.17.14-.17s.11.06.15.12a7.67,7.67,0,0,1,.63,1.44,9.23,9.23,0,0,1-1.05-.05.15.15,0,0,1-.14-.07s0-.06,0-.1C22.48,2,22.56,1.62,22.67,1.23Z" style="fill:#0c0a35"/><path d="M25.62,19.48a6.07,6.07,0,0,0-.21-1,12.34,12.34,0,0,1-.28-4.53,7.23,7.23,0,0,0-4.72,2.54c-.31.37-.63.8-1.11.87a7.12,7.12,0,0,1-.23,2.79,33.55,33.55,0,0,0,6.33-.39.26.26,0,0,0,.19-.09A.27.27,0,0,0,25.62,19.48Z" style="fill:#fcc07e"/><path d="M25.71,18.87a.31.31,0,0,0-.36-.17,16.1,16.1,0,0,1-3.26.35c-2.09.12-2.78-.05-2.94.18A12.74,12.74,0,0,1,15,23.47a.14.14,0,0,0,0,.25,5.14,5.14,0,0,0,1.88.09c1.82-.26,2.29-.91,3.31-2a3.92,3.92,0,0,0,1.95,3.07,5.6,5.6,0,0,0,1.43-3,4.32,4.32,0,0,0,.59.83,6.1,6.1,0,0,0,4.16,1.6.1.1,0,0,0,.09-.07c.06-.34-.81-1.18-1.34-2.13A14.89,14.89,0,0,1,25.71,18.87Z" style="fill:#0c0a35"/><path d="M17.13,14A15.07,15.07,0,0,0,17,15.8a3,3,0,0,0,.48,1.69,2.25,2.25,0,0,0,1.82,1,4.55,4.55,0,0,0,2.13-.57,8.57,8.57,0,0,0,2-1.45,7.2,7.2,0,0,0,1.3-2.52,10.52,10.52,0,0,0,.77-6.36.44.44,0,0,0-.1-.22.52.52,0,0,0-.26-.12c-2.23-.5-4.6,0-6.84-.46-.42,1.19,0,2.59-.59,3.72A5.93,5.93,0,0,1,16.34,12c-.25.24-.51.6-.33.9s.89.26,1.08.64A.77.77,0,0,1,17.13,14Z" style="fill:#ffd6a1"/><path d="M22.5,17.67A4.25,4.25,0,0,1,19.84,16,7.42,7.42,0,0,1,19,13.8c-.06-.2-.09-.38-.15-.55s-.24-.13-.36-.11c-.83.11-.92.14-1.62.24a3.92,3.92,0,0,1-1.33,3.07,7.3,7.3,0,0,1-2,1.23,8.35,8.35,0,0,0,2.7-.95,4.31,4.31,0,0,0,1.53-2.2,7,7,0,0,0,1.47,2.1,2.63,2.63,0,0,0,.45.36c.18.1.49.27.68.35A5.48,5.48,0,0,0,22.5,17.67Z" style="fill:#0c0a35"/><path d="M17.55,17.6a2,2,0,0,0,1.84.66,5.06,5.06,0,0,1-1,1.55,2.56,2.56,0,0,1-1.43.66A12.43,12.43,0,0,0,17.55,17.6Z" style="fill:#0c0a35"/><path d="M27.79,18.14a5.54,5.54,0,0,0,2,.32,14.2,14.2,0,0,1-.89-3.34c-.05-.34-.29-2.21-.31-2.56a30.9,30.9,0,0,1,0-4.81.36.36,0,0,0,0-.15.26.26,0,0,0-.19-.08c-1.4-.12-2.79.37-4.19.23a21.31,21.31,0,0,0-.28,5.8,4.57,4.57,0,0,0,.57,1.89C25.85,17.54,26.87,17.86,27.79,18.14Z" style="fill:#141247"/><path d="M23.56,9.06s.07.5,0,.48a5.39,5.39,0,0,0-.87-.07,11.8,11.8,0,0,0-3.39.11,2.22,2.22,0,0,1,0-.63,39,39,0,0,0,4.19,0,.1.1,0,0,1,.13.09Z" style="fill:#0c0a35"/><path d="M23.27,13.71a.65.65,0,0,0,.05-.59.63.63,0,0,0-.19-.24.65.65,0,0,0-.83,0,.63.63,0,1,0,1,.79Z" style="fill:#d6002b"/><path d="M18,5.13a1.49,1.49,0,0,1,.14-.51,4.4,4.4,0,0,1,2.43-2.21,6.41,6.41,0,0,1,3.31-.28,4.15,4.15,0,0,1,1.38.45,4.74,4.74,0,0,1,.94.73,3.57,3.57,0,0,1,1.31,2.07,31.17,31.17,0,0,1-9.3,0,.39.39,0,0,1-.16-.07A.26.26,0,0,1,18,5.13Z" style="fill:#222272"/><path d="M17.48,13a10.63,10.63,0,0,1-.39,2.31,7.49,7.49,0,0,1-1.46,2.3c0,.06,0,.12.1.08a5.55,5.55,0,0,0,1.87-4.71c0-.07-.11,0-.12,0Z" style="fill:#b70027"/><path d="M18.2,12.5c-.51,1.63,0,3.95,1.6,4.81a2.88,2.88,0,0,0,.54.13,5.14,5.14,0,0,1-1.81-2.25,6.87,6.87,0,0,1-.19-2.67c0-.09-.12-.1-.14,0Z" style="fill:#b70027"/><path d="M13.32,17.69c2.23-.06,4.29-2.73,3.64-4.88a.08.08,0,0,0-.15,0c-.09.43,0,.82-.1,1.26a6.54,6.54,0,0,1-.56,1.61c-.53,1.09-1.88,1.43-2.85,1.94a0,0,0,0,0,0,.07Z" style="fill:#b70027"/><path d="M18.67,12.53a5,5,0,0,0,1,3.77c.8,1,2,2.17,3.41,1.83a.12.12,0,0,0,0-.21c-.44-.23-.92-.31-1.37-.52A5.7,5.7,0,0,1,20.22,16a7.23,7.23,0,0,1-1.45-3.48.05.05,0,0,0-.1,0Z" style="fill:#b70027"/><path d="M22.5,17.67A4.25,4.25,0,0,1,19.84,16,7.42,7.42,0,0,1,19,13.8c-.06-.2-.09-.38-.15-.55s-.24-.13-.36-.11c-.83.11-.92.14-1.62.24a3.92,3.92,0,0,1-1.33,3.07,7.3,7.3,0,0,1-2,1.23,8.35,8.35,0,0,0,2.7-.95,4.31,4.31,0,0,0,1.53-2.2,7,7,0,0,0,1.47,2.1,2.63,2.63,0,0,0,.45.36c.18.1.49.27.68.35A5.48,5.48,0,0,0,22.5,17.67Z" style="fill:none"/><path d="M16.7,20.85a7,7,0,0,0,1.37-3.47c0-.05-.07-.07-.09,0-.23.59-.29,1.23-.48,1.83a6.9,6.9,0,0,1-.81,1.66Z" style="fill:#b70027"/><path d="M17.22,20.79A2.64,2.64,0,0,0,18,19.56a7.73,7.73,0,0,0,.5-2.07.06.06,0,0,0-.12,0c-.25.59-.23,1.26-.47,1.85s-.51,1-.73,1.46c0,0,0,0,0,0Z" style="fill:#b70027"/><path d="M18.14,20.51a5.66,5.66,0,0,0,.89-3c0-.07-.12-.09-.14,0-.17.49-.22,1-.35,1.5s-.39.94-.48,1.45c0,.05.06.06.08,0Z" style="fill:#b70027"/><path d="M17.55,17.6a2,2,0,0,0,1.84.66,5.06,5.06,0,0,1-1,1.55,2.56,2.56,0,0,1-1.43.66A12.43,12.43,0,0,0,17.55,17.6Z" style="fill:none"/><path d="M25,17.26a27.57,27.57,0,0,1-.27-4.72,39.66,39.66,0,0,1,.54-5.21c0-.07-.12-.11-.15,0a12.46,12.46,0,0,0-.66,5.25c0,1.55-.15,3.29.52,4.73,0,0,0,0,0,0Z" style="fill:#b70027"/><path d="M25.85,17.74a20.2,20.2,0,0,1-.2-5.76,16.4,16.4,0,0,1,.7-4.52.08.08,0,0,0-.14-.08c-.93,1-.71,3-.82,4.25a15.38,15.38,0,0,0,.43,6.12s0,0,0,0Z" style="fill:#b70027"/><path d="M26.6,18.29A31.64,31.64,0,0,1,27.09,7.7a.09.09,0,0,0-.16-.07c-.83,1.44-.64,3.31-.73,4.9a14.74,14.74,0,0,0,.33,5.77s.08,0,.07,0Z" style="fill:#b70027"/><path d="M28.07,18.81A23.87,23.87,0,0,1,27.55,16c-.07-1-.1-1.91-.12-2.85a19.69,19.69,0,0,1,.32-5.09A.07.07,0,0,0,27.63,8c-.72,1.41-.47,3.25-.48,4.78a17.39,17.39,0,0,0,.84,6,0,0,0,0,0,.08,0Z" style="fill:#b70027"/><path d="M29.13,19.06c-.35-1.64-.5-3.31-.75-5a21.21,21.21,0,0,1-.27-3.18c0-1,.23-2,.14-3,0-.07-.13-.1-.14,0A20.63,20.63,0,0,0,28,13.45a21.88,21.88,0,0,0,1.05,5.63s.05,0,0,0Z" style="fill:#b70027"/><path d="M27.79,18.14a5.54,5.54,0,0,0,2,.32,14.2,14.2,0,0,1-.89-3.34c-.05-.34-.29-2.21-.31-2.56a30.9,30.9,0,0,1,0-4.81.36.36,0,0,0,0-.15.26.26,0,0,0-.19-.08c-1.4-.12-2.79.37-4.19.23a21.31,21.31,0,0,0-.28,5.8,4.57,4.57,0,0,0,.57,1.89C25.85,17.54,26.87,17.86,27.79,18.14Z" style="fill:none"/><path d="M30.28,5a8,8,0,0,0-1.7,3.49c-1.29.12-2.59.11-3.88.11l-1.61-.05c-1.75,0-2.44-.14-4.82-.11A.86.86,0,0,1,17.59,8a29.52,29.52,0,0,0-1.93-3s-.1-.1-.06-.15a.24.24,0,0,1,.15-.07,19.53,19.53,0,0,1,4.83-.43c3.11,0,6.21.09,9.31.29a.65.65,0,0,1,.31.08C30.29,4.78,30.35,4.89,30.28,5Z" style="fill:#0c0a35"/><path d="M16.77,5.28l.64.3a.93.93,0,0,0,.4.12.18.18,0,0,0,.12,0A12.49,12.49,0,0,0,19,4.13a7.44,7.44,0,0,0-2.78.49.11.11,0,0,0-.09.07.13.13,0,0,0,0,.12A1.15,1.15,0,0,0,16.77,5.28Z" style="fill:#990028"/><path d="M21.54,5.46c.5-.45.79-.83,1.28-1.29L20.15,4a.88.88,0,0,0-.64.13c.61.38,1,1.05,1.65,1.4C21.18,5.55,21.27,5.69,21.54,5.46Z" style="fill:#990028"/><path d="M23.29,4.34l.45.74c.09.14.18.28.28.41a2,2,0,0,0,.4.36.21.21,0,0,0,.28-.07,8.88,8.88,0,0,1,1.07-1.2c.13-.13.18-.13.25-.3L24.81,4.2a5.3,5.3,0,0,0-1.59.07A.08.08,0,0,0,23.29,4.34Z" style="fill:#990028"/><path d="M26.79,4.11c-.13.1-.06.31,0,.46A8.45,8.45,0,0,0,28,6.22a.18.18,0,0,0,.29,0c.18-.29,1.21-1.4,1.39-1.77a14.23,14.23,0,0,1-2.6-.33A.35.35,0,0,0,26.79,4.11Z" style="fill:#990028"/><path d="M30.28,5a8,8,0,0,0-1.7,3.49c-1.29.12-2.59.11-3.88.11l-1.61-.05a42.49,42.49,0,0,1-4.82-.11A1.27,1.27,0,0,1,17.59,8a.83.83,0,0,1-.18-.3A11.42,11.42,0,0,0,15.66,5s-.1-.1-.06-.15a.24.24,0,0,1,.15-.07,19.53,19.53,0,0,1,4.83-.43c3.11,0,6.21.09,9.31.29a.65.65,0,0,1,.31.08C30.29,4.78,30.35,4.89,30.28,5Z" style="fill:none"/><path d="M19.1,4.06a.18.18,0,0,0,0-.36.18.18,0,0,0,0,.36Z" style="fill:#0c0a35"/><path d="M19.79,3.38a.12.12,0,0,0,0-.23.12.12,0,0,0,0,.23Z" style="fill:#0c0a35"/><path d="M20.38,4.07a.14.14,0,0,0,0-.27.14.14,0,1,0,0,.27Z" style="fill:#0c0a35"/><path d="M21,3.22a.17.17,0,0,0,0-.34.17.17,0,0,0,0,.34Z" style="fill:#0c0a35"/><path d="M20.39,2.82a.13.13,0,0,0,0-.26.13.13,0,0,0,0,.26Z" style="fill:#0c0a35"/><path d="M21.68,2.53a.15.15,0,0,0,0-.3.15.15,0,0,0,0,.3Z" style="fill:#0c0a35"/><path d="M22,3.47a.11.11,0,0,0,0-.22.11.11,0,1,0,0,.22Z" style="fill:#0c0a35"/><path d="M21.48,4.2a.19.19,0,0,0,0-.38.19.19,0,0,0,0,.38Z" style="fill:#0c0a35"/><path d="M22.69,4.23a.19.19,0,0,0,0-.37.19.19,0,0,0,0,.37Z" style="fill:#0c0a35"/><path d="M22.59,2.86a.12.12,0,1,0,0-.24.12.12,0,0,0,0,.24Z" style="fill:#0c0a35"/><path d="M23.32,2.45a.14.14,0,0,0,0-.27.14.14,0,0,0,0,.27Z" style="fill:#0c0a35"/><path d="M23.53,3.29h0c.2.06.2-.3,0-.24h0a.12.12,0,0,0,0,.23Z" style="fill:#0c0a35"/><path d="M24,4.23a.17.17,0,0,0,0-.34.17.17,0,0,0,0,.34Z" style="fill:#0c0a35"/><path d="M24.41,2.77a.15.15,0,0,0,0-.29.15.15,0,0,0,0,.29Z" style="fill:#0c0a35"/><path d="M24.86,3.6a.17.17,0,0,0,0-.34.17.17,0,0,0,0,.34Z" style="fill:#0c0a35"/><path d="M25.69,3.3a.13.13,0,0,0,0-.25.13.13,0,1,0,0,.25Z" style="fill:#0c0a35"/><path d="M25.44,4.27a.15.15,0,0,0,0-.3.15.15,0,0,0,0,.3Z" style="fill:#0c0a35"/><path d="M26.3,4.09a.18.18,0,0,0,0-.36.18.18,0,0,0,0,.36Z" style="fill:#0c0a35"/><path d="M19.2,4.76a4.07,4.07,0,0,0,0,1.87A.37.37,0,0,0,20,6.54a5.64,5.64,0,0,0-.36-1.78c-.06-.18-.35-.21-.39,0Z" style="fill:#f70032"/><path d="M16.19,5.38a.87.87,0,0,0,.19.67,3.18,3.18,0,0,0,.51.73.29.29,0,0,0,.46-.35,3.42,3.42,0,0,0-.47-.61c-.16-.17-.37-.3-.53-.48a.1.1,0,0,0-.16,0Z" style="fill:#f70032"/><path d="M22.72,5a5.42,5.42,0,0,0-.29,1,4.52,4.52,0,0,1-.08.63c-.13.53.72.74.81.22A4.85,4.85,0,0,0,23,5a.17.17,0,0,0-.32,0Z" style="fill:#f70032"/><path d="M26.16,5.09A2,2,0,0,0,25.8,6c0,.27-.16.64,0,.88a.39.39,0,0,0,.44.18h0a.45.45,0,0,0,.31-.32,3.66,3.66,0,0,0,0-.81,1.52,1.52,0,0,0-.17-.84.15.15,0,0,0-.26,0Z" style="fill:#f70032"/><path d="M29.56,5.42a1.58,1.58,0,0,0-.6.63,1.58,1.58,0,0,0-.39.86c0,.27.42.43.55.15a6.73,6.73,0,0,0,.65-1.48.15.15,0,0,0-.21-.16Z" style="fill:#f70032"/><path d="M19.67,7.33a.16.16,0,0,0,0-.31.16.16,0,0,0,0,.31Z" style="fill:#f70032"/><path d="M17.4,7.26a.16.16,0,0,0,0-.31.16.16,0,0,0,0,.31Z" style="fill:#f70032"/><path d="M22.7,7.47a.14.14,0,0,0,0-.27.14.14,0,1,0,0,.27Z" style="fill:#f70032"/><path d="M26.1,7.36h0a.11.11,0,0,0,0,.15s0,0,0,0a.13.13,0,1,0,0-.18Z" style="fill:#f70032"/><path d="M28.73,7.67a.18.18,0,0,0,0-.35.18.18,0,0,0,0,.35Z" style="fill:#f70032"/><path d="M19.49,6.09a.22.22,0,0,0,0-.44.22.22,0,0,0,0,.44Z" style="fill:#0c0a35"/><path d="M16.84,6.18h0Z" style="fill:#0c0a35"/><path d="M16.77,6.34a.18.18,0,0,0,0-.35.18.18,0,0,0,0,.35Z" style="fill:#0c0a35"/><path d="M22.77,6.23a.22.22,0,0,0,0-.44.22.22,0,0,0,0,.44Z" style="fill:#0c0a35"/><path d="M26.17,6.33a.24.24,0,0,0,0-.47.24.24,0,0,0,0,.47Z" style="fill:#0c0a35"/><path d="M29.14,6.64a.25.25,0,0,0,0-.5.25.25,0,0,0,0,.5Z" style="fill:#0c0a35"/><path d="M22.72,6.58a.1.1,0,0,0,0-.19.1.1,0,0,0,0,.19Z" style="fill:#0c0a35"/><path d="M19.54,6.42a.11.11,0,0,0,0-.22.11.11,0,0,0,0,.22Z" style="fill:#0c0a35"/><path d="M17,6.39h0c-.16,0-.09.25,0,.13h0a.07.07,0,0,0,0-.12Z" style="fill:#0c0a35"/><path d="M16.56,6a.1.1,0,0,0,0-.19.1.1,0,0,0,0,.19Z" style="fill:#0c0a35"/><path d="M19.44,5.55a.13.13,0,0,0,0-.25.13.13,0,0,0,0,.25Z" style="fill:#0c0a35"/><path d="M22.85,5.72a.15.15,0,0,0,0-.29.15.15,0,0,0,0,.29Z" style="fill:#0c0a35"/><path d="M26.14,6.67a.12.12,0,0,0,0-.23.12.12,0,0,0,0,.23Z" style="fill:#0c0a35"/><path d="M26.17,5.74a.1.1,0,1,0,0-.2.1.1,0,0,0,0,.2Z" style="fill:#0c0a35"/><path d="M29.07,6.72c-.06-.14-.3,0-.21.13s.28,0,.21-.13Z" style="fill:#0c0a35"/><path d="M29.34,6.14a.1.1,0,0,0,0-.19.1.1,0,1,0,0,.19Z" style="fill:#0c0a35"/><path d="M20.34,10.05c0,.08.06.16.16.17s0,0,.05,0,0-.12,0-.18-.23-.06-.18.05Z" style="fill:#0c0a35"/><path d="M21.64,9.71c-.05.1-.08.25,0,.33s.14.05.17,0a.41.41,0,0,0,0-.29.1.1,0,0,0-.18,0Z" style="fill:#0c0a35"/><path d="M22.86,9.9a.8.8,0,0,1-.08.16c-.07.12.12.22.17.11A2,2,0,0,0,23,10c0-.11-.13-.15-.17,0Z" style="fill:#0c0a35"/><path d="M20.56,11.48c.08,0,.19-.12.18-.21s0,0,0,0-.21.12-.2.21,0,.05,0,0Z" style="fill:#0c0a35"/><path d="M21.7,11.2c-.1.08-.1.29-.07.41a.12.12,0,0,0,.24,0c0-.12,0-.33-.07-.41a.07.07,0,0,0-.1,0Z" style="fill:#0c0a35"/><path d="M22.74,11.05a.35.35,0,0,0,.12.29.08.08,0,0,0,.11,0h0a.11.11,0,0,0,0-.12c0-.07-.11-.13-.16-.2a.06.06,0,0,0-.11,0Z" style="fill:#0c0a35"/><path d="M21,9.81c-.12.07-.08.23,0,.33s.25.08.21-.05,0-.22-.12-.28Z" style="fill:#0c0a35"/><path d="M22.36,9.79c0,.07-.17.42,0,.41s.11-.13.12-.2a.2.2,0,0,0-.09-.22Z" style="fill:#0c0a35"/><path d="M21.07,11.64c.16,0,.26-.23.26-.37a.11.11,0,0,0-.17-.1.45.45,0,0,0-.17.39.07.07,0,0,0,.08.08Z" style="fill:#0c0a35"/><path d="M22.22,11.22a.32.32,0,0,0,.09.44.12.12,0,0,0,.17-.07c.05-.16-.09-.27-.18-.38a0,0,0,0,0-.08,0Z" style="fill:#0c0a35"/><path d="M19.58,10.76s0-.08.07-.12a2.58,2.58,0,0,1,1.22-.56A8.67,8.67,0,0,1,22.22,10a4,4,0,0,1,1.54.52,3.26,3.26,0,0,1-4.08.38A.17.17,0,0,1,19.58,10.76Z" style="fill:#fff"/><path d="M21.22,10.83a.54.54,0,0,0,.52.18.52.52,0,0,0,.4-.37.3.3,0,0,0,0-.13c0-.25-.56-.5-.92-.14A.34.34,0,0,0,21.22,10.83Z" style="fill:#0c0a35"/><path d="M21.65,24.48l-.09.05A.85.85,0,0,0,22,26.1h.09a.85.85,0,1,0-.43-1.61Z" style="fill:#f70032"/><path d="M14.78,24.63a.77.77,0,0,0,0-1.54.77.77,0,0,0,0,1.54Z" style="fill:#f70032"/><path d="M16.37,23.6a5.71,5.71,0,0,0,1.68-1c.42-.35-.21-1-.62-.62a5.61,5.61,0,0,1-1.28,1.1c-.28.14-.08.63.22.52Z" style="fill:#990028"/><path d="M22.11,24a3.41,3.41,0,0,0,.2-.76c.06-.32.15-.65.19-1,.08-.64-1.07-.66-1,0,0,.3.06.59.08.88a1.71,1.71,0,0,0,.21.86.2.2,0,0,0,.33,0Z" style="fill:#990028"/><path d="M27.48,23.41a4.83,4.83,0,0,1-.35-.64c-.06-.1-.12-.19-.17-.29s-.05-.11-.08-.16c.06.11,0-.09-.06-.13a.51.51,0,0,0-.59-.24.53.53,0,0,0-.36.64c.06.33.4.52.65.7s.21.2.32.29a1.47,1.47,0,0,0,.42.2c.23.09.36-.22.22-.37Z" style="fill:#990028"/><path d="M19.39,19.86h0c.2.08.35-.17.26-.34v0a.25.25,0,0,0-.38-.05.24.24,0,0,0,.11.4Z" style="fill:#990028"/><path d="M20.41,19.88h0a.24.24,0,0,0,0-.33h0a.25.25,0,1,0,0,.35Z" style="fill:#990028"/><path d="M20.94,20a.26.26,0,0,0,0-.52.26.26,0,0,0,0,.52Z" style="fill:#990028"/><path d="M21.65,19.92a.24.24,0,0,0,0-.48.24.24,0,0,0,0,.48Z" style="fill:#990028"/><path d="M22.34,19.84a.24.24,0,0,0,0-.47.24.24,0,0,0,0,.47Z" style="fill:#990028"/><path d="M23,19.76a.21.21,0,0,0,0-.41.21.21,0,0,0,0,.41Z" style="fill:#990028"/><path d="M23.58,19.73h0a.24.24,0,0,0,.31-.23.25.25,0,0,0-.31-.24h0a.24.24,0,0,0,0,.45Z" style="fill:#990028"/><path d="M24.48,19.72a.26.26,0,0,0,0-.52.26.26,0,0,0,0,.52Z" style="fill:#990028"/><path d="M25.2,19.59a.21.21,0,0,0,0-.41.21.21,0,0,0,0,.41Z" style="fill:#990028"/><path d="M22,22.66a.29.29,0,1,0,0-.57.29.29,0,0,0,0,.57Z" style="fill:#f70032"/><path d="M17.73,22.64a.28.28,0,0,0,.2-.21.29.29,0,1,0-.2.21Z" style="fill:#f70032"/><path d="M26.11,22.56a0,0,0,0,0,0,0,.27.27,0,0,0,.3.13.29.29,0,0,0,.2-.26v0a.28.28,0,0,0-.35-.27.28.28,0,0,0-.16.41Z" style="fill:#f70032"/><path d="M18.33,21.83l.23-.18c.07-.07.17-.15.16-.26a.1.1,0,0,0-.1-.1c-.21,0-.3.31-.4.46s.05.13.11.08Z" style="fill:#f70032"/><path d="M17.94,21.64l.11-.05.09-.08a.42.42,0,0,0,.15-.22.16.16,0,0,0-.24-.19.39.39,0,0,0-.16.23l0,.12a.33.33,0,0,1,0,.1c0,.06,0,.13.08.09Z" style="fill:#f70032"/><path d="M18.47,22.16a.42.42,0,0,0,.27-.05A.47.47,0,0,0,19,21.9c.06-.1,0-.27-.17-.22a.69.69,0,0,0-.22.16.44.44,0,0,0-.09.11.75.75,0,0,0-.07.12.06.06,0,0,0,0,.09Z" style="fill:#f70032"/><path d="M21.53,21.79a.37.37,0,0,0,.08-.15.58.58,0,0,0,0-.23c-.05-.14-.28-.17-.31,0a.34.34,0,0,0,.16.39.09.09,0,0,0,.09,0Z" style="fill:#f70032"/><path d="M22.07,21.6a.26.26,0,0,0,0-.24.66.66,0,0,0,0-.24.09.09,0,0,0-.08-.05c-.24,0-.21.45,0,.54a.12.12,0,0,0,.1,0Z" style="fill:#f70032"/><path d="M22.39,21.66a.5.5,0,0,0,.15-.14.72.72,0,0,0,.14-.2.13.13,0,0,0-.16-.15c-.15.07-.3.31-.21.47a.05.05,0,0,0,.08,0Z" style="fill:#f70032"/><path d="M25.85,21.92a.39.39,0,0,0-.15-.43.15.15,0,0,0-.22.08.36.36,0,0,0,.28.4.06.06,0,0,0,.09,0Z" style="fill:#f70032"/><path d="M25.57,22.16a.62.62,0,0,0-.18-.14.28.28,0,0,0-.29,0,.14.14,0,0,0,0,.22c.1.12.32.06.46.05a.05.05,0,0,0,0-.09Z" style="fill:#f70032"/><path d="M26.29,21.68a.85.85,0,0,1,0-.22c0-.2-.28-.21-.26,0a.59.59,0,0,0,.09.3.07.07,0,0,0,.13,0Z" style="fill:#f70032"/><path d="M18.6,25.12a.15.15,0,0,0,0-.3.15.15,0,1,0,0,.3Z" style="fill:#f70032"/><path d="M16.06,25.78a.15.15,0,0,0,0-.3.15.15,0,0,0,0,.3Z" style="fill:#f70032"/><path d="M5.79,34.41a.15.15,0,0,0,0-.3.15.15,0,1,0,0,.3Z" style="fill:#f70032"/><path d="M15.76,27.43a.15.15,0,0,0,0-.3.15.15,0,0,0,0,.3Z" style="fill:#f70032"/><path d="M13.51,26.51a.18.18,0,0,0,0-.35.18.18,0,0,0,0,.35Z" style="fill:#f70032"/><path d="M10.44,25.48a.21.21,0,0,0,0-.41.21.21,0,0,0,0,.41Z" style="fill:#f70032"/><path d="M8.86,27.1a.21.21,0,0,0,0-.42.21.21,0,0,0,0,.42Z" style="fill:#f70032"/><path d="M17.57,27.86v0a.17.17,0,0,0,.23.23h0a.18.18,0,0,0,0-.28.17.17,0,0,0-.27,0Z" style="fill:#f70032"/><path d="M12.19,24.09v0a.17.17,0,0,0,.23.22h0c.1,0,.1-.2,0-.27s-.23-.07-.27,0Z" style="fill:#f70032"/><path d="M21,27.18a.23.23,0,0,0,0-.45.23.23,0,0,0,0,.45Z" style="fill:#f70032"/><path d="M14.26,29.38a.23.23,0,1,0,0-.45.23.23,0,0,0,0,.45Z" style="fill:#f70032"/><path d="M10.68,27.59h0l-.11,0h0a.15.15,0,0,0,.2-.2.19.19,0,0,0-.08-.07.15.15,0,0,0-.22.09.15.15,0,0,0,.18.19Z" style="fill:#f70032"/><path d="M5.75,33.49h0l-.12,0h0a.14.14,0,0,0,.19-.2.16.16,0,0,0-.07-.07.16.16,0,0,0-.23.09.16.16,0,0,0,.19.19Z" style="fill:#f70032"/><path d="M22.45,29.75a.16.16,0,0,0,0-.31.16.16,0,0,0,0,.31Z" style="fill:#f70032"/><path d="M25,24.92a.15.15,0,0,0,0-.29.15.15,0,0,0,0,.29Z" style="fill:#f70032"/><path d="M33.13,29.41a.21.21,0,0,0,0-.41.21.21,0,0,0,0,.41Z" style="fill:#f70032"/><path d="M35.11,28.26a.21.21,0,0,0,0-.41.21.21,0,0,0,0,.41Z" style="fill:#f70032"/><path d="M35.34,29.61a.21.21,0,0,0,0-.41.21.21,0,0,0,0,.41Z" style="fill:#f70032"/><path d="M10.53,29.33a.52.52,0,0,0,.5-.51.51.51,0,1,0-1,0,.52.52,0,0,0,.51.51Z" style="fill:#990028"/><path d="M10.09,30v0a.37.37,0,0,0,.68-.29v0a.39.39,0,0,0-.46-.26.38.38,0,0,0-.23.55Z" style="fill:#990028"/><path d="M15.25,31.7v0a.22.22,0,0,0,.31.08.16.16,0,0,0,.08-.08.22.22,0,0,0-.08-.31h0a.22.22,0,0,0-.29.3Z" style="fill:#990028"/><path d="M20.43,32.7l0,0a.23.23,0,0,0,.31.09l.08-.09a.24.24,0,0,0-.08-.31h0a.22.22,0,0,0-.3.3Z" style="fill:#990028"/><path d="M7.62,29.28c-.76,1.14-.58,4.14.64,4.94a.14.14,0,0,0,.21-.12,18.49,18.49,0,0,0-.37-2.31C8,31,8.16,30.12,8,29.33c0-.18-.27-.18-.36,0Z" style="fill:#990028"/><path d="M6.41,29.46c-1,.16-1,1.71-.93,2.45S5.94,34,6.81,34.38c.11,0,.21-.09.18-.18-.21-.74-.57-1.41-.74-2.17a3.83,3.83,0,0,1,.32-2.41c0-.1-.07-.17-.16-.16Z" style="fill:#990028"/><path d="M32.81,34.18c-.45.12-.86.33-1.31.46a1.9,1.9,0,0,1-1.37,0,2.47,2.47,0,0,1-.78-.92A2.93,2.93,0,0,0,27,32.5c-1.09,0-2.15.64-3.2.39-.83-.2-1.34-.89-2.14-1.16-1.32-.43-2.74.45-4.16.48a10.11,10.11,0,0,1-2.37-.44,11.07,11.07,0,0,0-2.44-.28,3.68,3.68,0,0,0-1.79.34c-.45.25-.75.66-1.25.84a2.89,2.89,0,0,1-1.67,0,5.86,5.86,0,0,0-1.66-.3c-.57,0-1.38.4-1.39.86a9,9,0,0,0,1.15,3.67c.85,2,4.23,4.9,9.3,4.65,1.06-.06,2.13,0,3.19,0,1.93,0,6.8.06,8.71-.08,4.3-.3,4.7-1.2,6.2-3.4a3.56,3.56,0,0,0,.66-3.36A1.07,1.07,0,0,0,32.81,34.18Z" style="fill:#191956"/><path d="M18.58,61.53c0,.08-.07.17-.15.17s-.11-.06-.14-.12a7.52,7.52,0,0,1-.64-1.45,9.24,9.24,0,0,1,1.05.06c.06,0,.13,0,.15.07a.34.34,0,0,1,0,.1C18.77,60.75,18.69,61.14,18.58,61.53Z" style="fill:#0c0a35"/><path d="M15.63,43.29a6.13,6.13,0,0,0,.2,1,12.35,12.35,0,0,1,.29,4.53,7.23,7.23,0,0,0,4.71-2.54c.31-.37.64-.8,1.11-.87a7.11,7.11,0,0,1,.24-2.79,33.66,33.66,0,0,0-6.34.39.24.24,0,0,0-.18.09A.2.2,0,0,0,15.63,43.29Z" style="fill:#fcc07e"/><path d="M15.54,43.89a.31.31,0,0,0,.36.17,16,16,0,0,1,3.26-.35c2.08-.12,2.78,0,2.93-.18a12.83,12.83,0,0,1,4.18-4.24.14.14,0,0,0,0-.25A5.13,5.13,0,0,0,24.35,39c-1.82.26-2.29.91-3.31,2a3.94,3.94,0,0,0-1.94-3.08,5.6,5.6,0,0,0-1.44,3,4.32,4.32,0,0,0-.59-.83,6.1,6.1,0,0,0-4.16-1.6.08.08,0,0,0-.08.07c-.07.33.8,1.18,1.33,2.13A14.91,14.91,0,0,1,15.54,43.89Z" style="fill:#0c0a35"/><path d="M24.11,48.74A13.21,13.21,0,0,0,24.25,47a3.12,3.12,0,0,0-.47-1.69,2.31,2.31,0,0,0-1.83-1,4.6,4.6,0,0,0-2.13.58,8.45,8.45,0,0,0-2,1.44,7.35,7.35,0,0,0-1.29,2.52,10.46,10.46,0,0,0-.78,6.36.55.55,0,0,0,.1.22.52.52,0,0,0,.26.12c2.24.5,4.61,0,6.85.46.41-1.19,0-2.59.58-3.72a6.11,6.11,0,0,1,1.38-1.54c.25-.24.51-.6.34-.9s-.89-.26-1.09-.64A.77.77,0,0,1,24.11,48.74Z" style="fill:#ffd6a1"/><path d="M18.75,45.09A4.21,4.21,0,0,1,21.4,46.8,7.86,7.86,0,0,1,22.23,49a3.63,3.63,0,0,0,.15.55c0,.12.23.13.36.11.82-.11.91-.14,1.61-.24a4,4,0,0,1,1.33-3.07,7.3,7.3,0,0,1,2-1.23A8.38,8.38,0,0,0,25,46a4.27,4.27,0,0,0-1.54,2.2A7,7,0,0,0,22,46.13a2.71,2.71,0,0,0-.46-.36,7.06,7.06,0,0,0-.67-.35A5.72,5.72,0,0,0,18.75,45.09Z" style="fill:#0c0a35"/><path d="M23.69,45.16a2,2,0,0,0-1.84-.66,4.91,4.91,0,0,1,1-1.55,2.56,2.56,0,0,1,1.42-.66A13,13,0,0,0,23.69,45.16Z" style="fill:#0c0a35"/><path d="M13.45,44.62a5.48,5.48,0,0,0-2-.32,14.44,14.44,0,0,1,.88,3.34c.06.34.29,2.21.31,2.56a32.18,32.18,0,0,1,0,4.81.19.19,0,0,0,0,.15.26.26,0,0,0,.19.08c1.39.12,2.79-.36,4.18-.23a21.72,21.72,0,0,0,.29-5.8,4.63,4.63,0,0,0-.58-1.89C15.39,45.22,14.37,44.9,13.45,44.62Z" style="fill:#141247"/><path d="M17.68,53.7c0-.05-.06-.5,0-.48a4.34,4.34,0,0,0,.86.07,12.29,12.29,0,0,0,3.4-.1,3.18,3.18,0,0,1,0,.62,39.23,39.23,0,0,0-4.2,0s-.08,0-.1,0S17.69,53.72,17.68,53.7Z" style="fill:#0c0a35"/><path d="M18,49.05a.62.62,0,0,0,0,.59.63.63,0,0,0,.19.24.65.65,0,0,0,.83,0,.63.63,0,1,0-1-.79Z" style="fill:#d6002b"/><path d="M23.24,57.63a1.15,1.15,0,0,1-.14.51,4.41,4.41,0,0,1-2.42,2.21,6.43,6.43,0,0,1-3.31.28A4.13,4.13,0,0,1,16,60.19a5.64,5.64,0,0,1-1-.74,3.62,3.62,0,0,1-1.31-2.07,31.17,31.17,0,0,1,9.3,0,.28.28,0,0,1,.16.06A.26.26,0,0,1,23.24,57.63Z" style="fill:#222272"/><path d="M23.76,49.8a11.27,11.27,0,0,1,.39-2.31,7.69,7.69,0,0,1,1.46-2.3c0-.06-.05-.12-.1-.07a5.58,5.58,0,0,0-1.87,4.7c0,.07.12,0,.12,0Z" style="fill:#b70027"/><path d="M23.05,50.26c.51-1.63-.05-3.95-1.61-4.81a3.67,3.67,0,0,0-.54-.13,5.14,5.14,0,0,1,1.81,2.25,6.68,6.68,0,0,1,.19,2.67c0,.09.12.1.15,0Z" style="fill:#b70027"/><path d="M27.93,45.08c-2.23.05-4.29,2.71-3.64,4.87,0,.06.13.07.14,0,.09-.42,0-.83.11-1.26a6.54,6.54,0,0,1,.56-1.61C25.63,46,27,45.65,28,45.14a0,0,0,0,0,0-.06Z" style="fill:#b70027"/><path d="M22.58,50.23a5,5,0,0,0-1-3.77c-.8-1-2-2.17-3.4-1.83a.11.11,0,0,0,0,.21c.44.23.92.31,1.37.52A5.74,5.74,0,0,1,21,46.75a7.23,7.23,0,0,1,1.45,3.48.05.05,0,0,0,.1,0Z" style="fill:#b70027"/><path d="M18.75,45.09A4.21,4.21,0,0,1,21.4,46.8,7.86,7.86,0,0,1,22.23,49a3.63,3.63,0,0,0,.15.55c0,.12.23.13.36.11.82-.11.91-.14,1.61-.24a4,4,0,0,1,1.33-3.07,7.3,7.3,0,0,1,2-1.23A8.38,8.38,0,0,0,25,46a4.27,4.27,0,0,0-1.54,2.2A7,7,0,0,0,22,46.13a2.71,2.71,0,0,0-.46-.36,7.06,7.06,0,0,0-.67-.35A5.72,5.72,0,0,0,18.75,45.09Z" style="fill:none"/><path d="M24.55,41.91a6.78,6.78,0,0,0-1.37,3.47,0,0,0,0,0,.08,0c.23-.59.29-1.23.48-1.83a7.22,7.22,0,0,1,.81-1.65Z" style="fill:#b70027"/><path d="M24,42a2.66,2.66,0,0,0-.78,1.23,8.1,8.1,0,0,0-.5,2.08c0,.06.09.09.12,0,.25-.6.23-1.26.48-1.85s.5-1,.72-1.45a0,0,0,0,0,0,0Z" style="fill:#b70027"/><path d="M23.1,42.25a5.85,5.85,0,0,0-.89,3c0,.07.12.09.14,0,.17-.49.22-1,.36-1.5s.39-.94.48-1.44c0-.06-.06-.07-.09,0Z" style="fill:#b70027"/><path d="M23.69,45.16a2,2,0,0,0-1.84-.66,4.91,4.91,0,0,1,1-1.55,2.56,2.56,0,0,1,1.42-.66A13,13,0,0,0,23.69,45.16Z" style="fill:none"/><path d="M16.23,45.51a26.43,26.43,0,0,1,.27,4.71A41.43,41.43,0,0,1,16,55.43c0,.07.11.11.15,0a12.61,12.61,0,0,0,.65-5.25c0-1.55.15-3.29-.52-4.73,0,0,0,0,0,0Z" style="fill:#b70027"/><path d="M15.4,45a20.57,20.57,0,0,1,.2,5.76,16.93,16.93,0,0,1-.71,4.53c0,.07.09.14.14.08.93-1,.72-3,.82-4.26A15.56,15.56,0,0,0,15.43,45s0,0,0,0Z" style="fill:#b70027"/><path d="M14.64,44.47a31.64,31.64,0,0,1-.48,10.59.08.08,0,0,0,.15.07c.83-1.44.65-3.31.74-4.9a15.13,15.13,0,0,0-.33-5.77s-.09,0-.08,0Z" style="fill:#b70027"/><path d="M13.17,44a23.65,23.65,0,0,1,.52,2.79c.07.94.11,1.89.12,2.84a19.79,19.79,0,0,1-.32,5.1c0,.06.09.11.12,0,.73-1.41.48-3.25.48-4.78a16.93,16.93,0,0,0-.84-6s-.08,0-.08,0Z" style="fill:#b70027"/><path d="M12.11,43.7c.36,1.64.5,3.31.76,5a24.22,24.22,0,0,1,.27,3.18c0,1-.24,2-.14,3,0,.07.12.1.13,0a20.23,20.23,0,0,0,.08-5.55,22.31,22.31,0,0,0-1.05-5.63s-.05,0-.05,0Z" style="fill:#b70027"/><path d="M13.45,44.62a5.48,5.48,0,0,0-2-.32,14.44,14.44,0,0,1,.88,3.34c.06.34.29,2.21.31,2.56a32.18,32.18,0,0,1,0,4.81.19.19,0,0,0,0,.15.26.26,0,0,0,.19.08c1.39.12,2.79-.36,4.18-.23a21.72,21.72,0,0,0,.29-5.8,4.63,4.63,0,0,0-.58-1.89C15.39,45.22,14.37,44.9,13.45,44.62Z" style="fill:none"/><path d="M11,57.79a7.92,7.92,0,0,0,1.69-3.48,36,36,0,0,1,3.89-.11c.53,0,1.07,0,1.6,0,1.76,0,2.45.14,4.82.11a.85.85,0,0,1,.68.39,28.44,28.44,0,0,0,1.93,3s.1.1.07.15a.3.3,0,0,1-.15.07,19.65,19.65,0,0,1-4.84.43q-4.66,0-9.31-.29A.82.82,0,0,1,11,58C11,58,10.9,57.87,11,57.79Z" style="fill:#0c0a35"/><path d="M24.47,57.48l-.63-.3a1,1,0,0,0-.4-.12.16.16,0,0,0-.12,0,12.5,12.5,0,0,0-1.09,1.54A7.53,7.53,0,0,0,25,58.14s.07,0,.09-.07a.16.16,0,0,0,0-.12A1.22,1.22,0,0,0,24.47,57.48Z" style="fill:#990028"/><path d="M19.71,57.3c-.5.45-.79.83-1.28,1.29l2.66.16a.88.88,0,0,0,.64-.13c-.61-.38-1-1-1.64-1.39C20.06,57.21,20,57.07,19.71,57.3Z" style="fill:#990028"/><path d="M18,58.42c-.15-.25-.3-.49-.46-.73a2.36,2.36,0,0,0-.28-.42,1.72,1.72,0,0,0-.4-.36.2.2,0,0,0-.27.07,8.31,8.31,0,0,1-1.08,1.2c-.13.13-.18.13-.25.31l1.21.07A5.63,5.63,0,0,0,18,58.5.06.06,0,0,0,18,58.42Z" style="fill:#990028"/><path d="M14.45,58.66c.14-.11.06-.32,0-.47a8.83,8.83,0,0,0-1.18-1.65.19.19,0,0,0-.3,0c-.17.3-1.21,1.4-1.39,1.78a13.5,13.5,0,0,1,2.61.32A.36.36,0,0,0,14.45,58.66Z" style="fill:#990028"/><path d="M11,57.79a7.92,7.92,0,0,0,1.69-3.48,36,36,0,0,1,3.89-.11c.53,0,1.07,0,1.6,0a42.44,42.44,0,0,1,4.82.11,1.24,1.24,0,0,1,.68.39.85.85,0,0,1,.19.3,10.9,10.9,0,0,0,1.74,2.71s.1.1.07.15a.3.3,0,0,1-.15.07,19.65,19.65,0,0,1-4.84.43q-4.66,0-9.31-.29A.82.82,0,0,1,11,58C11,58,10.9,57.87,11,57.79Z" style="fill:none"/><path d="M22.14,58.7a.18.18,0,0,0,0,.36.18.18,0,0,0,0-.36Z" style="fill:#0c0a35"/><path d="M21.46,59.39a.11.11,0,1,0,0,.22.11.11,0,1,0,0-.22Z" style="fill:#0c0a35"/><path d="M20.87,58.7a.13.13,0,1,0,0,.26.13.13,0,0,0,0-.26Z" style="fill:#0c0a35"/><path d="M20.27,59.54a.17.17,0,0,0,0,.34.17.17,0,0,0,0-.34Z" style="fill:#0c0a35"/><path d="M20.86,59.94a.13.13,0,0,0,0,.26.13.13,0,0,0,0-.26Z" style="fill:#0c0a35"/><path d="M19.57,60.23a.15.15,0,0,0,0,.3.15.15,0,0,0,0-.3Z" style="fill:#0c0a35"/><path d="M19.26,59.29a.11.11,0,0,0,0,.22.11.11,0,0,0,0-.22Z" style="fill:#0c0a35"/><path d="M19.76,58.56a.19.19,0,0,0,0,.38.19.19,0,0,0,0-.38Z" style="fill:#0c0a35"/><path d="M18.56,58.53a.19.19,0,0,0,0,.37.19.19,0,0,0,0-.37Z" style="fill:#0c0a35"/><path d="M18.66,59.9a.12.12,0,0,0,0,.24.12.12,0,0,0,0-.24Z" style="fill:#0c0a35"/><path d="M17.92,60.31a.14.14,0,0,0,0,.27.14.14,0,0,0,0-.27Z" style="fill:#0c0a35"/><path d="M17.71,59.46h0c-.2-.06-.2.3,0,.24h0a.12.12,0,0,0,0-.24Z" style="fill:#0c0a35"/><path d="M17.22,58.53a.17.17,0,0,0,0,.34.17.17,0,0,0,0-.34Z" style="fill:#0c0a35"/><path d="M16.83,60a.15.15,0,0,0,0,.29.15.15,0,0,0,0-.29Z" style="fill:#0c0a35"/><path d="M16.39,59.17a.16.16,0,0,0,0,.33.16.16,0,0,0,0-.33Z" style="fill:#0c0a35"/><path d="M15.56,59.46a.13.13,0,0,0,0,.25.13.13,0,0,0,0-.25Z" style="fill:#0c0a35"/><path d="M15.8,58.49a.15.15,0,0,0,0,.3.15.15,0,0,0,0-.3Z" style="fill:#0c0a35"/><path d="M14.94,58.67a.18.18,0,0,0,0,.36.18.18,0,0,0,0-.36Z" style="fill:#0c0a35"/><path d="M22,58a4.16,4.16,0,0,0,0-1.89.37.37,0,0,0-.72.1A5.24,5.24,0,0,0,21.66,58c.05.17.34.2.38,0Z" style="fill:#f70032"/><path d="M25.06,57.38a1,1,0,0,0-.19-.67,3.45,3.45,0,0,0-.52-.73.29.29,0,0,0-.45.35,2.72,2.72,0,0,0,.46.61c.17.17.38.3.53.48a.11.11,0,0,0,.17,0Z" style="fill:#f70032"/><path d="M18.52,57.82a4.82,4.82,0,0,0,.3-1c0-.21,0-.42.07-.63.13-.53-.72-.74-.81-.22a5.13,5.13,0,0,0,.12,1.83c0,.17.27.14.32,0Z" style="fill:#f70032"/><path d="M15.09,57.67a2.17,2.17,0,0,0,.36-.92c0-.27.15-.64,0-.88a.4.4,0,0,0-.43-.18l0,0a.44.44,0,0,0-.31.31,3.66,3.66,0,0,0,0,.81,1.43,1.43,0,0,0,.16.84.16.16,0,0,0,.27,0Z" style="fill:#f70032"/><path d="M11.69,57.34a1.56,1.56,0,0,0,.59-.63,1.51,1.51,0,0,0,.39-.86c0-.27-.42-.42-.55-.14a6.18,6.18,0,0,0-.64,1.47.14.14,0,0,0,.21.16Z" style="fill:#f70032"/><path d="M21.57,55.44a.15.15,0,0,0,0,.3.15.15,0,1,0,0-.3Z" style="fill:#f70032"/><path d="M23.85,55.5a.16.16,0,0,0,0,.31.16.16,0,0,0,0-.31Z" style="fill:#f70032"/><path d="M18.54,55.29a.14.14,0,0,0,0,.28.14.14,0,0,0,0-.28Z" style="fill:#f70032"/><path d="M15.14,55.4h0a.11.11,0,0,0,0-.15s0,0,0,0a.13.13,0,0,0-.21.09.12.12,0,0,0,.21.09Z" style="fill:#f70032"/><path d="M12.51,55.09a.18.18,0,0,0,0,.35.18.18,0,0,0,0-.35Z" style="fill:#f70032"/><path d="M21.75,56.67a.23.23,0,0,0,0,.45.23.23,0,0,0,0-.45Z" style="fill:#0c0a35"/><path d="M24.41,56.59h0Z" style="fill:#0c0a35"/><path d="M24.48,56.42a.18.18,0,0,0,0,.36.18.18,0,0,0,0-.36Z" style="fill:#0c0a35"/><path d="M18.48,56.53a.22.22,0,0,0,0,.44.22.22,0,0,0,0-.44Z" style="fill:#0c0a35"/><path d="M15.07,56.43a.24.24,0,0,0,0,.47.24.24,0,0,0,0-.47Z" style="fill:#0c0a35"/><path d="M12.1,56.12a.25.25,0,0,0,0,.5.25.25,0,0,0,0-.5Z" style="fill:#0c0a35"/><path d="M18.53,56.18a.1.1,0,1,0,0,.19.1.1,0,0,0,0-.19Z" style="fill:#0c0a35"/><path d="M21.7,56.34a.11.11,0,0,0,0,.22.11.11,0,1,0,0-.22Z" style="fill:#0c0a35"/><path d="M24.27,56.38h0c.15,0,.09-.25,0-.13h0s0,.1,0,.12Z" style="fill:#0c0a35"/><path d="M24.69,56.79a.09.09,0,0,0,0,.18.09.09,0,0,0,0-.18Z" style="fill:#0c0a35"/><path d="M21.8,57.21a.13.13,0,0,0,0,.25.13.13,0,0,0,0-.25Z" style="fill:#0c0a35"/><path d="M18.39,57a.15.15,0,0,0,0,.29.15.15,0,0,0,0-.29Z" style="fill:#0c0a35"/><path d="M15.1,56.09a.12.12,0,0,0,0,.23.12.12,0,0,0,0-.23Z" style="fill:#0c0a35"/><path d="M15.07,57a.1.1,0,0,0,0,.2.1.1,0,0,0,0-.2Z" style="fill:#0c0a35"/><path d="M12.17,56c.07.14.3,0,.22-.13s-.28,0-.22.13Z" style="fill:#0c0a35"/><path d="M11.91,56.62a.1.1,0,1,0,0,.19.1.1,0,0,0,0-.19Z" style="fill:#0c0a35"/><path d="M20.91,52.71c0-.08-.07-.16-.17-.17a.07.07,0,0,0,0,0,.28.28,0,0,0,0,.18c0,.12.23.06.19,0Z" style="fill:#0c0a35"/><path d="M19.6,53.05a.26.26,0,0,0,0-.33s-.14,0-.17,0a.48.48,0,0,0,0,.29.1.1,0,0,0,.18,0Z" style="fill:#0c0a35"/><path d="M18.38,52.86c0-.06.05-.11.08-.16s-.12-.22-.17-.1a1.8,1.8,0,0,0-.08.21c0,.11.13.15.17,0Z" style="fill:#0c0a35"/><path d="M20.68,51.28c-.07,0-.19.12-.18.21s0,0,0,0,.21-.11.2-.21a0,0,0,0,0-.05,0Z" style="fill:#0c0a35"/><path d="M19.54,51.56c.1-.08.1-.29.07-.41a.12.12,0,0,0-.23,0,.43.43,0,0,0,.07.41.06.06,0,0,0,.09,0Z" style="fill:#0c0a35"/><path d="M18.5,51.71a.35.35,0,0,0-.12-.29.09.09,0,0,0-.11,0h0a.09.09,0,0,0,0,.12c0,.08.11.13.15.2a.06.06,0,0,0,.11,0Z" style="fill:#0c0a35"/><path d="M20.2,53c.12-.07.09-.23.05-.33s-.26-.08-.21.05,0,.22.12.28Z" style="fill:#0c0a35"/><path d="M18.88,53c0-.07.17-.41,0-.41s-.12.13-.13.2a.19.19,0,0,0,.1.22,0,0,0,0,0,0,0Z" style="fill:#0c0a35"/><path d="M20.18,51.12c-.17,0-.27.23-.27.37a.12.12,0,0,0,.17.1.46.46,0,0,0,.18-.39s0-.08-.08-.08Z" style="fill:#0c0a35"/><path d="M19,51.54c.07-.13.06-.37-.1-.44a.12.12,0,0,0-.17.07c-.05.16.1.27.18.38s.07,0,.09,0Z" style="fill:#0c0a35"/><path d="M21.66,52s0,.08-.07.12a2.54,2.54,0,0,1-1.22.56,7.6,7.6,0,0,1-1.35.09,4,4,0,0,1-1.54-.52,3.34,3.34,0,0,1,2-.91,3.27,3.27,0,0,1,2.11.53A.17.17,0,0,1,21.66,52Z" style="fill:#fff"/><path d="M20,51.93a.54.54,0,0,0-.52-.18.57.57,0,0,0-.4.37.59.59,0,0,0,0,.13c0,.25.56.5.92.15A.34.34,0,0,0,20,51.93Z" style="fill:#0c0a35"/><path d="M19.6,38.28l.08-.05a.85.85,0,0,0-.43-1.57h-.09a.85.85,0,1,0,.44,1.61Z" style="fill:#f70032"/><path d="M26.46,38.13a.77.77,0,0,0,0,1.54.77.77,0,0,0,0-1.54Z" style="fill:#f70032"/><path d="M24.87,39.16a6,6,0,0,0-1.67,1c-.43.35.21,1,.61.62a6.11,6.11,0,0,1,1.28-1.1c.28-.14.09-.63-.22-.52Z" style="fill:#990028"/><path d="M19.14,38.81a3.08,3.08,0,0,0-.21.75c-.06.33-.15.65-.19,1-.08.64,1.07.66,1,0,0-.3-.06-.58-.08-.88a1.66,1.66,0,0,0-.22-.85.18.18,0,0,0-.32,0Z" style="fill:#990028"/><path d="M13.76,39.35a4.86,4.86,0,0,1,.36.64l.16.29.09.16c-.06-.11,0,.09.05.13a.52.52,0,0,0,.59.24.53.53,0,0,0,.36-.64c0-.33-.39-.52-.64-.7s-.22-.2-.33-.29A1.25,1.25,0,0,0,14,39c-.22-.09-.36.22-.22.37Z" style="fill:#990028"/><path d="M21.86,42.9h0c-.2-.08-.35.18-.26.34l0,0a.24.24,0,0,0,.37,0,.24.24,0,0,0-.1-.4Z" style="fill:#990028"/><path d="M20.84,42.88h0a.24.24,0,0,0,0,.33h0a.25.25,0,1,0,0-.35Z" style="fill:#990028"/><path d="M20.3,42.8a.26.26,0,0,0,0,.52.26.26,0,0,0,0-.52Z" style="fill:#990028"/><path d="M19.59,42.84a.24.24,0,0,0,0,.48.24.24,0,0,0,0-.48Z" style="fill:#990028"/><path d="M18.91,42.92a.24.24,0,0,0,0,.47.24.24,0,0,0,0-.47Z" style="fill:#990028"/><path d="M18.3,43a.21.21,0,0,0,0,.41.21.21,0,0,0,0-.41Z" style="fill:#990028"/><path d="M17.67,43h0a.24.24,0,0,0-.31.23.25.25,0,0,0,.31.24h0a.24.24,0,0,0,0-.45Z" style="fill:#990028"/><path d="M16.77,43a.26.26,0,0,0,0,.52.26.26,0,0,0,0-.52Z" style="fill:#990028"/><path d="M16.05,43.17a.21.21,0,0,0,0,.41.21.21,0,0,0,0-.41Z" style="fill:#990028"/><path d="M19.27,40.1a.29.29,0,0,0-.29.29.29.29,0,0,0,.58,0,.29.29,0,0,0-.29-.29Z" style="fill:#f70032"/><path d="M6.31,37.78c-.23-.27-1.25-1.57-1.11-1.9a.9.9,0,0,1,.44-.42C14,30.88,23,27.4,31.11,22.59a1.06,1.06,0,0,1,.48-.19,1,1,0,0,1,.44.13c1.51.69,3.12,1.5,3.87,3A.94.94,0,0,1,36,26a.89.89,0,0,1-.4.6,77.49,77.49,0,0,1-12.07,6.76c-4.37,2.12-9.61,4-13.87,6.33a1.52,1.52,0,0,1-.95.27A11.12,11.12,0,0,1,6.31,37.78Z" style="fill:#990028"/><path d="M23.52,40.12a.32.32,0,0,0-.21.21.3.3,0,0,0,.28.37.29.29,0,1,0-.07-.58Z" style="fill:#f70032"/><path d="M15.14,40.2l0,0a.26.26,0,0,0-.3-.12.28.28,0,0,0-.2.26v0a.28.28,0,0,0,.35.27.29.29,0,0,0,.17-.41Z" style="fill:#f70032"/><path d="M22.92,40.93c-.08.07-.16.11-.24.19a.36.36,0,0,0-.16.25.12.12,0,0,0,.1.1c.21,0,.3-.31.41-.46s-.06-.13-.11-.08Z" style="fill:#f70032"/><path d="M23.3,41.12l-.11.05-.09.08a.57.57,0,0,0-.15.23.16.16,0,0,0,.24.18.36.36,0,0,0,.17-.23.5.5,0,0,1,0-.12s0-.08,0-.1,0-.13-.09-.09Z" style="fill:#f70032"/><path d="M22.77,40.6a.53.53,0,0,0-.5.26c-.05.1,0,.27.17.22a.63.63,0,0,0,.23-.16l.09-.11a.67.67,0,0,0,.06-.12.06.06,0,0,0-.05-.09Z" style="fill:#f70032"/><path d="M19.71,41a.39.39,0,0,0-.08.14.45.45,0,0,0,0,.23.16.16,0,0,0,.31,0A.36.36,0,0,0,19.8,41a.08.08,0,0,0-.09,0Z" style="fill:#f70032"/><path d="M19.17,41.17a.3.3,0,0,0,0,.23,2,2,0,0,0,0,.24.09.09,0,0,0,.08,0c.24,0,.21-.45,0-.54a.11.11,0,0,0-.11,0Z" style="fill:#f70032"/><path d="M18.85,41.1a.49.49,0,0,0-.15.14.53.53,0,0,0-.13.2.12.12,0,0,0,.15.15c.15-.06.31-.31.22-.47a.07.07,0,0,0-.09,0Z" style="fill:#f70032"/><path d="M15.39,40.84a.42.42,0,0,0,.16.43.14.14,0,0,0,.21-.08.36.36,0,0,0-.28-.4.07.07,0,0,0-.09.05Z" style="fill:#f70032"/><path d="M15.67,40.6a.67.67,0,0,0,.19.14.26.26,0,0,0,.28,0,.14.14,0,0,0,0-.22c-.1-.12-.32-.06-.46,0a0,0,0,0,0,0,.08Z" style="fill:#f70032"/><path d="M15,41.08a1.66,1.66,0,0,1,0,.22c0,.2.28.21.26,0a.63.63,0,0,0-.1-.3.07.07,0,0,0-.13,0Z" style="fill:#f70032"/><path d="M22.65,37.64a.15.15,0,0,0,0,.3.15.15,0,0,0,0-.3Z" style="fill:#f70032"/><path d="M24.93,35.5a.18.18,0,0,0,0,.35.18.18,0,0,0,0-.35Z" style="fill:#f70032"/><path d="M28.35,36.15a.21.21,0,0,0,0,.41.21.21,0,0,0,0-.41Z" style="fill:#f70032"/><path d="M28.89,38.76a.21.21,0,0,0,0,.41.21.21,0,0,0,0-.41Z" style="fill:#f70032"/><path d="M23.25,35.25v0A.16.16,0,0,0,23,35h0a.19.19,0,0,0,0,.28.17.17,0,0,0,.27,0Z" style="fill:#f70032"/><path d="M20.24,35.58a.23.23,0,1,0,0,.45.23.23,0,0,0,0-.45Z" style="fill:#f70032"/><path d="M30.56,35.17h0l.12,0h0a.14.14,0,0,0-.19.2.16.16,0,0,0,.07.07.16.16,0,0,0,.23-.09.16.16,0,0,0-.19-.19Z" style="fill:#f70032"/><path d="M28.77,34h0l.12,0h0a.15.15,0,0,0-.2.2.19.19,0,0,0,.08.07.15.15,0,1,0,0-.28Z" style="fill:#f70032"/><path d="M31.55,37.29h.08a.14.14,0,0,0-.2.19.2.2,0,0,0,.08.08.17.17,0,0,0,.23-.1.16.16,0,0,0-.19-.19Z" style="fill:#f70032"/><path d="M33.5,35.18h0l.11,0h0a.15.15,0,0,0-.12.27.16.16,0,0,0,.23-.09.16.16,0,0,0-.19-.19Z" style="fill:#f70032"/><path d="M26.26,34a.15.15,0,0,0,0,.3.15.15,0,0,0,0-.3Z" style="fill:#f70032"/><path d="M26.11,37.18a.16.16,0,0,0,0,.31.16.16,0,0,0,0-.31Z" style="fill:#f70032"/><path d="M16.28,37.84a.15.15,0,0,0,0,.29.15.15,0,0,0,0-.29Z" style="fill:#f70032"/><path d="M11.94,39.88a.15.15,0,0,0,0,.29.15.15,0,0,0,0-.29Z" style="fill:#f70032"/><path d="M30.72,33.44a.51.51,0,1,0,.51.51.51.51,0,0,0-.51-.51Z" style="fill:#990028"/><path d="M31.15,32.75v0a.37.37,0,0,0-.42-.17.37.37,0,0,0-.26.45v0a.37.37,0,1,0,.68-.29Z" style="fill:#990028"/><path d="M26,31.07l0,0a.22.22,0,0,0-.31-.08.3.3,0,0,0-.08.08.24.24,0,0,0,.08.31l0,0a.22.22,0,0,0,.3-.3Z" style="fill:#990028"/><path d="M20.81,30.06v0a.22.22,0,0,0-.31-.08.16.16,0,0,0-.08.08.22.22,0,0,0,.08.31h0a.22.22,0,0,0,.3-.3Z" style="fill:#990028"/><path d="M20.87,31.06h0a.59.59,0,0,0-.88.5.57.57,0,0,0,.29.5A.59.59,0,0,0,21,32h0a.58.58,0,0,0,.17-.41.58.58,0,0,0-.28-.49Z" style="fill:#990028"/><path d="M27.84,24.14a1,1,0,0,0-.11.24.71.71,0,0,0,1.2.69l0,0-.14.11h0a.73.73,0,0,0-.37-1.36.82.82,0,0,0-.37.1.92.92,0,0,0-.26.26Z" style="fill:#f70032"/><path d="M13.4,38.62a1,1,0,0,0,.11-.24.7.7,0,0,0-.33-.8.71.71,0,0,0-.86.11l0,0,.15-.11h0A.73.73,0,0,0,12.77,39a.69.69,0,0,0,.37-.1.72.72,0,0,0,.26-.26Z" style="fill:#f70032"/><path d="M6.39,34.26a.21.21,0,0,0,0,.41.21.21,0,0,0,0-.41Z" style="fill:#f70032"/><path d="M7.36,33.43a.21.21,0,0,0,0,.42.21.21,0,0,0,0-.42Z" style="fill:#f70032"/><path d="M28.89,22.26a.21.21,0,0,0,0,.41.21.21,0,0,0,0-.41Z" style="fill:#f70032"/><path d="M20.1,34.17a2.44,2.44,0,1,0-2.43-2.43,2.45,2.45,0,0,0,2.43,2.43Z" style="fill:#f70032"/><path d="M15.87,34.53a.86.86,0,1,0-.86-.86.86.86,0,0,0,.86.86Z" style="fill:#f70032"/><path d="M13.06,35.27a.54.54,0,0,0,0-1.07.54.54,0,0,0,0,1.07Z" style="fill:#f70032"/><path d="M24.46,31a.92.92,0,0,0,0-1.83.92.92,0,0,0,0,1.83Z" style="fill:#f70032"/><path d="M27,29a.31.31,0,0,0,0-.62A.31.31,0,0,0,27,29Z" style="fill:#f70032"/><path d="M20.06,32.55a.82.82,0,0,0,0-1.63.82.82,0,0,0,0,1.63Z" style="fill:#191956"/><path d="M20.16,30.73a.4.4,0,0,0,0-.8.4.4,0,0,0,0,.8Z" style="fill:#191956"/><path d="M19,31a.38.38,0,0,0,0-.76A.38.38,0,0,0,19,31Z" style="fill:#191956"/><path d="M18.56,32.23a.4.4,0,0,0,0-.8.4.4,0,0,0,0,.8Z" style="fill:#191956"/><path d="M19.36,33.36a.33.33,0,0,0,0-.65.33.33,0,0,0,0,.65Z" style="fill:#191956"/><path d="M20.89,32.9l-.05,0a.25.25,0,0,0-.36,0l-.05,0a.33.33,0,1,0,.46,0Z" style="fill:#191956"/><path d="M21.46,32.51a.38.38,0,0,0,0-.76.38.38,0,0,0,0,.76Z" style="fill:#191956"/><path d="M21.36,31.26a.43.43,0,0,0,0-.85.43.43,0,0,0,0,.85Z" style="fill:#191956"/><path d="M10.35,36.09c.2.42.89.13.77-.32s-1-.24-.77.32Z" style="fill:#191956"/><path d="M9.16,37.1a.57.57,0,0,0,0-1.13.57.57,0,0,0,0,1.13Z" style="fill:#191956"/><path d="M7.56,37.6a.37.37,0,0,0,0-.73.37.37,0,0,0,0,.73Z" style="fill:#191956"/><path d="M29.31,27.43a.18.18,0,0,1,0,.07.37.37,0,0,0-.52-.52.35.35,0,0,0-.14.35.36.36,0,0,0,.71.1Z" style="fill:#191956"/><path d="M30.66,27.07a.54.54,0,0,0,0-1.08.54.54,0,0,0,0,1.08Z" style="fill:#191956"/><path d="M32.26,26.1a.47.47,0,0,0,0-.93.47.47,0,0,0,0,.93Z" style="fill:#191956"/><path d="M35.44,50.65c0-.1,0-.25,0-.35s0-.21,0-.32a1.42,1.42,0,0,0-.43-.92,9.73,9.73,0,0,1,1.08,0,1.37,1.37,0,0,0-.43.92c0,.11,0,.21,0,.32s0,.25,0,.35Z" style="fill:#0c0a35"/><path d="M35.53,50.26a1.17,1.17,0,0,0-1-.54.88.88,0,0,0-.84.68,1.08,1.08,0,0,0,.33.93,4.3,4.3,0,0,0,.84.61,4.62,4.62,0,0,1,.7.67,8.73,8.73,0,0,1,.7-.66,6.51,6.51,0,0,0,.84-.62,1.11,1.11,0,0,0,.33-.93.89.89,0,0,0-.84-.68,1.16,1.16,0,0,0-1,.54Z" style="fill:#0c0a35"/><path d="M5.36,11.36c0,.1,0,.25,0,.35s0,.21,0,.31a1.4,1.4,0,0,0,.43.93,9.73,9.73,0,0,1-1.08,0A1.45,1.45,0,0,0,5.11,12c0-.1,0-.2,0-.31s0-.25,0-.35Z" style="fill:#0c0a35"/><path d="M5.27,11.75a1.16,1.16,0,0,0,1,.54.91.91,0,0,0,.84-.68,1.11,1.11,0,0,0-.33-.93,4.3,4.3,0,0,0-.84-.61,4.62,4.62,0,0,1-.7-.67,8.73,8.73,0,0,1-.7.66,6.51,6.51,0,0,0-.84.62,1.08,1.08,0,0,0-.33.93.89.89,0,0,0,.84.68,1.17,1.17,0,0,0,1-.54Z" style="fill:#0c0a35"/><path d="M6.47,3V7A1.86,1.86,0,0,1,6,8.45a1.84,1.84,0,0,1-1.25.41,3,3,0,0,1-.84-.12V8.15a3.62,3.62,0,0,0,.75.09,1.33,1.33,0,0,0,.71-.14.79.79,0,0,0,.31-.37A2.64,2.64,0,0,0,5.75,7V3Z" style="fill:#0c0a35"/><path d="M34.46,59.29v-4a1.83,1.83,0,0,1,.47-1.45,1.8,1.8,0,0,1,1.25-.42,3,3,0,0,1,.84.12v.59a3.62,3.62,0,0,0-.75-.09,1.32,1.32,0,0,0-.71.15.74.74,0,0,0-.31.37,2.61,2.61,0,0,0-.07.73v4Z" style="fill:#0c0a35"/><path d="M13.2,59.11h-7a3.1,3.1,0,0,1-3-3.19V15.66a.09.09,0,0,1,.1-.09.09.09,0,0,1,.09.09V55.92a2.92,2.92,0,0,0,2.81,3h7a.09.09,0,0,1,0,.18Z" style="fill:none"/><path d="M32.78,59.11H25.65a.09.09,0,0,1,0-.18h7.13a.09.09,0,1,1,0,.18Z" style="fill:none"/><path d="M37.65,46.92a.09.09,0,0,1-.1-.1V6.36a2.92,2.92,0,0,0-2.81-3H28.07a.09.09,0,0,1-.1-.09.09.09,0,0,1,.1-.1h6.67a3.1,3.1,0,0,1,3,3.19V46.82A.09.09,0,0,1,37.65,46.92Z" style="fill:none"/><path d="M17.41,3.36h-9a.1.1,0,0,1-.1-.09.1.1,0,0,1,.1-.1h9a.09.09,0,0,1,.1.1A.09.09,0,0,1,17.41,3.36Z" style="fill:none"/></g></g></g></svg>