<svg xmlns="http://www.w3.org/2000/svg" xmlns:xlink="http://www.w3.org/1999/xlink" viewBox="0 0 40.93 62.29"><defs><clipPath id="clip-path"><path d="M23.24,15.1A1.65,1.65,0,0,0,22,14.55a3.36,3.36,0,0,0-1.35.3,5.13,5.13,0,0,0-1.85,1.23,3.32,3.32,0,0,0-.9,2,2.43,2.43,0,0,0-2.51-.17,2.06,2.06,0,0,0-.62.91,21.49,21.49,0,0,0-1.29,7.86,6.09,6.09,0,0,1-.28,1.91,4,4,0,0,0-.38,1.09.31.31,0,0,0,0,.21c.09.12.27.07.41,0l3.56-1.57c2.32-1,4.77-2.14,6.14-4.28a10.42,10.42,0,0,0,1.09-2.46,9.67,9.67,0,0,0,.58-3.27A6,6,0,0,0,23.24,15.1Z" style="fill:#0c0a35"/></clipPath><clipPath id="clip-path-2"><path d="M22.9,18.84a.69.69,0,0,0,.47.09,15.29,15.29,0,0,0,3.31-.4,3.14,3.14,0,0,0,2.13-1.39,1.29,1.29,0,0,0-.23-1.45,2.85,2.85,0,0,0-.87-.44,2.28,2.28,0,0,1-1.21-2.13,5.29,5.29,0,0,0-.38-2.54A2.64,2.64,0,0,0,24.5,9.44a8,8,0,0,0-2-.19,1,1,0,0,0-.79.24.93.93,0,0,0-.05.8,16.2,16.2,0,0,1,.77,5c0,.48-.13.95-.13,1.43a4.72,4.72,0,0,0,.37,1.74A.73.73,0,0,0,22.9,18.84Z" style="fill:none"/></clipPath><clipPath id="clip-path-3"><path d="M16.14,15.43a1.77,1.77,0,0,1,1.47.28,4.4,4.4,0,0,1,1.7,2.19,8.39,8.39,0,0,1,.46,2.77A2.89,2.89,0,0,1,19.58,22a1.26,1.26,0,0,1-1-.3,4.83,4.83,0,0,1-2.32-3.62,4.42,4.42,0,0,1-2.7,4.21c.14-.9.68-1.71.8-2.62.14-1.19-.46-2.47,0-3.58a.51.51,0,0,1,.18-.25c.22-.17.53,0,.81-.05A3.3,3.3,0,0,0,16.14,15.43Z" style="fill:#191956"/></clipPath><clipPath id="clip-path-4"><path d="M17.17,47.39a1.63,1.63,0,0,0,1.23.55,3.21,3.21,0,0,0,1.36-.3,5,5,0,0,0,1.84-1.23,3.28,3.28,0,0,0,.91-2,2.43,2.43,0,0,0,2.51.17,2.15,2.15,0,0,0,.62-.91,21.7,21.7,0,0,0,1.29-7.86,5.82,5.82,0,0,1,.28-1.91,4.39,4.39,0,0,0,.37-1.09.31.31,0,0,0,0-.21c-.09-.11-.28-.07-.41,0l-3.57,1.57c-2.32,1-4.77,2.15-6.13,4.28a10.61,10.61,0,0,0-1.09,2.46,9.68,9.68,0,0,0-.59,3.27A6,6,0,0,0,17.17,47.39Z" style="fill:#0c0a35"/></clipPath><clipPath id="clip-path-5"><path d="M17.51,43.65a.79.79,0,0,0-.48-.09,16,16,0,0,0-3.31.4,3.16,3.16,0,0,0-2.13,1.39,1.31,1.31,0,0,0,.24,1.45,3,3,0,0,0,.87.45,2.27,2.27,0,0,1,1.21,2.12,5.31,5.31,0,0,0,.37,2.55,2.69,2.69,0,0,0,1.63,1.13,8,8,0,0,0,2,.19,1,1,0,0,0,.79-.24.94.94,0,0,0,.06-.79,16,16,0,0,1-.77-5c0-.48.13-1,.13-1.43A4.94,4.94,0,0,0,17.75,44,.75.75,0,0,0,17.51,43.65Z" style="fill:none"/></clipPath><clipPath id="clip-path-6"><path d="M24.27,47.06a1.79,1.79,0,0,1-1.48-.28,4.39,4.39,0,0,1-1.69-2.19,8.14,8.14,0,0,1-.47-2.77,3.21,3.21,0,0,1,.19-1.31,1.26,1.26,0,0,1,1.05.3,4.77,4.77,0,0,1,2.32,3.62,4.45,4.45,0,0,1,2.7-4.21c-.14.9-.68,1.71-.79,2.62-.15,1.19.46,2.47,0,3.58a.67.67,0,0,1-.18.25c-.22.17-.54,0-.82,0A3.65,3.65,0,0,0,24.27,47.06Z" style="fill:#191956"/></clipPath></defs><title>sk</title><g id="Layer_2" data-name="Layer 2"><g id="Layer_1-2" data-name="Layer 1"><g id="sk"><rect x="0.09" y="0.09" width="40.74" height="62.1" rx="3.45" style="fill:#fff"/><path d="M37.39,62.29H3.54A3.55,3.55,0,0,1,0,58.74V3.54A3.55,3.55,0,0,1,3.54,0H37.39a3.55,3.55,0,0,1,3.54,3.54v55.2A3.55,3.55,0,0,1,37.39,62.29ZM3.54.19A3.35,3.35,0,0,0,.19,3.54v55.2A3.36,3.36,0,0,0,3.54,62.1H37.39a3.36,3.36,0,0,0,3.35-3.36V3.54A3.35,3.35,0,0,0,37.39.19Z" style="fill:#2d2d2d"/><path d="M32.13,39.57c-.06-1.32-.13-2.64-.19-4a1.53,1.53,0,0,1,.09-.79,3.09,3.09,0,0,1,1-.9,3.66,3.66,0,0,0,1.4-2.72,4.85,4.85,0,0,0-.93-2.88,3.1,3.1,0,0,1-.43-.74c-.2-.6.12-1.22.14-1.84,0-1.26-1.12-2.33-2.33-3.13a15.29,15.29,0,0,0-5-2.24,26,26,0,0,0-3.08-.46,36.39,36.39,0,0,0-6.08-.3,12.7,12.7,0,0,0-5.72,1.51c-1.75,1-4.48,1.43-5.32,4.68-1,3.8,1.54,12.23,1.9,12.65,7.57,8.94,17.42,1.11,18.3,1.06a12.07,12.07,0,0,1,3.8.07,9.73,9.73,0,0,0,1.2.35A1.77,1.77,0,0,0,32.13,39.57Z" style="fill:#0c0a35"/><path d="M8.27,22.92c.07,1.32.13,2.64.2,4a1.65,1.65,0,0,1-.1.79c-.17.37-.6.62-.95.9A3.7,3.7,0,0,0,6,31.29a4.85,4.85,0,0,0,.93,2.88,3.14,3.14,0,0,1,.44.74c.2.6-.12,1.22-.14,1.84,0,1.26,1.11,2.33,2.32,3.13a15.44,15.44,0,0,0,5,2.24,26.11,26.11,0,0,0,3.07.46,37.61,37.61,0,0,0,6.09.31,13,13,0,0,0,5.72-1.51c1.75-1,4.48-1.44,5.31-4.69,1-3.8.7-9.44.68-10,0-.37-.77-5.81-8.72-6.57-7.41-.7-16.9,2.48-17.15,2.44A1.79,1.79,0,0,0,8.27,22.92Z" style="fill:#0c0a35"/><path d="M19.94.83a.32.32,0,0,1,.34,0,.9.9,0,0,1,.24.27A3.91,3.91,0,0,1,21,2.59a3.14,3.14,0,0,1-1.84.19A10.19,10.19,0,0,1,19.81,1,.5.5,0,0,1,19.94.83Z" style="fill:#222272"/><path d="M7.07,37.44a4.69,4.69,0,0,0,3.47,3.89,1,1,0,0,0,.42.09,1.17,1.17,0,0,0,.57-.3c7.34-5.85,15.77-9.49,22.72-15.84a4.78,4.78,0,0,0,.66-.84.53.53,0,0,0-.13-.33,12.94,12.94,0,0,0-2-2.39,3.48,3.48,0,0,0-2.59-.91c-1.73,0-4,2.27-6,3.63-4.79,3.31-8.33,5-13,8.55A35,35,0,0,0,7.39,36.4a1.2,1.2,0,0,0-.36.53A1.1,1.1,0,0,0,7.07,37.44Z" style="fill:#222272"/><path d="M22.1,17.3a10.51,10.51,0,0,0,1.69-6.88,2.52,2.52,0,0,0-.32-1.33,2.43,2.43,0,0,0-1.29-.81,9.91,9.91,0,0,0-7.93.82c-.21.12-.43.28-.45.51a.73.73,0,0,0,.3.55,11.87,11.87,0,0,0,1.34,1.12c-1.49,1.64-3,3.47-3.24,5.67a8.54,8.54,0,0,0,2.54-1.23,12,12,0,0,0-.41,2.59,2.13,2.13,0,0,0,.2,1.25,2.39,2.39,0,0,0,2,.83,5.09,5.09,0,0,0,2-.1A4.74,4.74,0,0,0,20,19.34,12.61,12.61,0,0,0,22.1,17.3Z" style="fill:#ffd6a1"/><path d="M12.77,27.27A4.58,4.58,0,0,1,14.2,28a6.43,6.43,0,0,1,1.5,2.48,5.84,5.84,0,0,1,.54,2,3.81,3.81,0,0,1-1.35,2.87,9.84,9.84,0,0,1-2.72,1.57,10.93,10.93,0,0,1-2.85.93,3.75,3.75,0,0,1-2.85-.67,4.36,4.36,0,0,1-1.41-2.5A6.89,6.89,0,0,1,6.11,29.2a5.57,5.57,0,0,1,4.72-2.36A6.89,6.89,0,0,1,12.77,27.27Z" style="fill:#b70027"/><path d="M20.87,12.7a4.46,4.46,0,0,1-.56.41,2.53,2.53,0,0,1-1.47.22,2.6,2.6,0,0,1-1.29-.65,2.68,2.68,0,0,1-.79-.9,4.51,4.51,0,0,1,4.33-.71c.2.09.55.29.72.39A3.35,3.35,0,0,1,20.87,12.7Z" style="fill:#fff"/><path d="M27.63,35.22a4.64,4.64,0,0,1-1.42-.76A6.2,6.2,0,0,1,24.71,32,5.62,5.62,0,0,1,24.17,30a3.77,3.77,0,0,1,1.34-2.87,9.68,9.68,0,0,1,2.73-1.58,10.81,10.81,0,0,1,2.85-.93,3.79,3.79,0,0,1,2.85.67,4.41,4.41,0,0,1,1.41,2.5,6.89,6.89,0,0,1-1.05,5.47,5.57,5.57,0,0,1-4.72,2.36A6.56,6.56,0,0,1,27.63,35.22Z" style="fill:#b70027"/><path d="M26.24,28.66a3.47,3.47,0,0,0-.39,3.61c.51,1.11,1.7,2.53,3.07,2.35.2,0,.36-.27.18-.44-.73-.69-1.6-1-2.19-1.89a4.1,4.1,0,0,1-.31-3.42c0-.2-.22-.39-.36-.21Z" style="fill:#222272"/><path d="M28.59,29.13c-1,1.34.16,5.17,1.8,5.55a.33.33,0,0,0,.41-.4c-.21-.87-1-1.6-1.34-2.47a3.79,3.79,0,0,1-.39-2.48c.12-.29-.32-.42-.48-.2Z" style="fill:#222272"/><path d="M30.68,29.09a5.1,5.1,0,0,1,.95,2.81c0,.72-.35,1.58,0,2.22a.33.33,0,0,0,.44.11c.84-.44.73-1.81.64-2.62a4.75,4.75,0,0,0-1.51-2.95c-.28-.28-.81.09-.56.43Z" style="fill:#222272"/><path d="M33.71,32.38c1.52-.15,1.17-2.6.93-3.62-.17-.7-1.27-3.91-2.39-2.38a.52.52,0,0,0,.32.76c.66.1,1,1.42,1.16,2a4.16,4.16,0,0,1-.14,3,.14.14,0,0,0,.12.21Z" style="fill:#222272"/><path d="M27.5,32.12a.23.23,0,0,0,0-.46.23.23,0,0,0,0,.46Z" style="fill:#222272"/><path d="M30.28,32a.31.31,0,0,0,0-.61.31.31,0,0,0,0,.61Z" style="fill:#222272"/><path d="M33.26,30.26a.29.29,0,0,0,0-.58.29.29,0,0,0,0,.58Z" style="fill:#222272"/><path d="M34.72,27.52a.13.13,0,1,0,0-.25.13.13,0,0,0,0,.25Z" style="fill:#222272"/><path d="M24.78,31a.2.2,0,0,0,0-.4.2.2,0,0,0,0,.4Z" style="fill:#222272"/><path d="M27.35,31.17a.13.13,0,1,0,0-.27.13.13,0,0,0,0,.27Z" style="fill:#222272"/><path d="M27.4,30.39a.12.12,0,1,0,0-.24.12.12,0,0,0,0,.24Z" style="fill:#222272"/><path d="M27.55,29.78a.12.12,0,0,0,0-.23.12.12,0,0,0,0,.23Z" style="fill:#222272"/><path d="M28,32.47c-.07-.19-.35-.13-.3.07s.36.1.3-.07Z" style="fill:#222272"/><path d="M28.29,33h-.05a.11.11,0,1,0,0,.21h.05c.09,0,.09-.18,0-.19Z" style="fill:#222272"/><path d="M30.08,31.14a.21.21,0,0,0,0-.42.21.21,0,0,0,0,.42Z" style="fill:#222272"/><path d="M29.93,30.46a.19.19,0,0,0,0-.37.19.19,0,0,0,0,.37Z" style="fill:#222272"/><path d="M29.88,29.67a.1.1,0,0,0,0-.2.1.1,0,0,0,0,.2Z" style="fill:#222272"/><path d="M30.43,32.5h.05a.1.1,0,1,0,0-.21h-.05a.11.11,0,0,0,0,.21Z" style="fill:#222272"/><path d="M30.68,33.07a.12.12,0,0,0,0-.24.12.12,0,0,0,0,.24Z" style="fill:#222272"/><path d="M30.91,33.37l0,0a.11.11,0,0,0,0,.11l0,0c.06.08.19,0,.19-.08s-.13-.17-.19-.09Z" style="fill:#222272"/><path d="M33,29.28a.22.22,0,0,0,0-.43.22.22,0,0,0,0,.43Z" style="fill:#222272"/><path d="M32.71,28.78a.17.17,0,0,0,0-.34.17.17,0,0,0,0,.34Z" style="fill:#222272"/><path d="M32.3,28.25a.15.15,0,0,0,0-.3.15.15,0,0,0,0,.3Z" style="fill:#222272"/><path d="M31.85,27.9a.15.15,0,0,0,0-.3.15.15,0,1,0,0,.3Z" style="fill:#222272"/><path d="M33.36,30.94a.16.16,0,0,0,0-.32.16.16,0,0,0,0,.32Z" style="fill:#222272"/><path d="M33.36,31.63a.15.15,0,0,0,0-.29.15.15,0,0,0,0,.29Z" style="fill:#222272"/><path d="M33.31,32.19a.1.1,0,0,0,0-.2.1.1,0,0,0,0,.2Z" style="fill:#222272"/><path d="M34.47,26.61a.13.13,0,0,0,0-.25.13.13,0,0,0,0,.25Z" style="fill:#222272"/><path d="M34,26a.13.13,0,0,0,0-.26A.13.13,0,0,0,34,26Z" style="fill:#222272"/><path d="M33.56,25.71a.13.13,0,0,0,0-.26.13.13,0,0,0,0,.26Z" style="fill:#222272"/><path d="M32.88,25.3l0,0s0,.06,0,.1a0,0,0,0,0,0,0c.21.26.21-.41,0-.15Z" style="fill:#222272"/><path d="M35.08,28h0a0,0,0,1,0,0,0h0s0-.06,0-.06Z" style="fill:#222272"/><path d="M35,28.21a.16.16,0,0,0,0-.31.16.16,0,0,0,0,.31Z" style="fill:#222272"/><path d="M35.16,28.69l0,0a.06.06,0,0,0,0,.08l0,0c.19.2.19-.32,0-.13Z" style="fill:#222272"/><path d="M35.18,29.48a.12.12,0,0,0,0-.23.12.12,0,0,0,0,.23Z" style="fill:#222272"/><path d="M24.83,30.19a.12.12,0,0,0,0-.24.12.12,0,1,0,0,.24Z" style="fill:#222272"/><path d="M25,29.58a.12.12,0,0,0,0-.23.12.12,0,0,0,0,.23Z" style="fill:#222272"/><path d="M25.38,29a.16.16,0,0,0,0-.31.16.16,0,0,0,0,.31Z" style="fill:#222272"/><path d="M25.74,28.45c.05,0,.05-.09,0-.09a0,0,0,1,0,0,.09Z" style="fill:#222272"/><path d="M25,31.79a.1.1,0,0,0,0-.2.1.1,0,0,0,0,.2Z" style="fill:#222272"/><path d="M25.23,32.4a.1.1,0,1,0,0-.21.1.1,0,1,0,0,.21Z" style="fill:#222272"/><path d="M25.48,33a.13.13,0,0,0,0-.26.13.13,0,0,0,0,.26Z" style="fill:#222272"/><path d="M25.77,33.43l0,0a.07.07,0,0,0,.09,0l0,0c.21-.21-.36-.21-.14,0Z" style="fill:#222272"/><path d="M26.24,34a.13.13,0,0,0,0-.25.13.13,0,0,0,0,.25Z" style="fill:#222272"/><path d="M14.17,33.83a3.49,3.49,0,0,0,.39-3.61c-.51-1.11-1.7-2.53-3.07-2.35-.2,0-.36.27-.18.44.73.69,1.6,1,2.19,1.9a4.11,4.11,0,0,1,.3,3.41c0,.2.22.39.37.21Z" style="fill:#222272"/><path d="M11.82,33.36c1-1.34-.16-5.17-1.81-5.55a.33.33,0,0,0-.41.4c.22.87,1,1.6,1.35,2.47a3.79,3.79,0,0,1,.38,2.48c-.11.3.33.42.49.2Z" style="fill:#222272"/><path d="M9.73,33.4a5.11,5.11,0,0,1-1-2.81c0-.72.35-1.57,0-2.22a.32.32,0,0,0-.43-.11c-.85.45-.73,1.81-.64,2.62a4.84,4.84,0,0,0,1.5,3c.29.27.81-.1.57-.44Z" style="fill:#222272"/><path d="M6.69,30.11c-1.52.15-1.16,2.6-.92,3.62.16.7,1.27,3.91,2.38,2.39a.53.53,0,0,0-.31-.77c-.67-.1-1-1.42-1.16-2a4.16,4.16,0,0,1,.13-3,.14.14,0,0,0-.12-.21Z" style="fill:#222272"/><path d="M12.9,30.83a.23.23,0,0,0,0-.46.23.23,0,0,0,0,.46Z" style="fill:#222272"/><path d="M10.12,31.11a.31.31,0,0,0,0-.61.31.31,0,0,0,0,.61Z" style="fill:#222272"/><path d="M7.15,32.81a.29.29,0,0,0,0-.58.29.29,0,0,0,0,.58Z" style="fill:#222272"/><path d="M5.68,35.22a.13.13,0,0,0,0-.25.13.13,0,0,0,0,.25Z" style="fill:#222272"/><path d="M15.63,31.86a.2.2,0,0,0,0-.4.2.2,0,0,0,0,.4Z" style="fill:#222272"/><path d="M13.05,31.59a.13.13,0,0,0,0-.27.13.13,0,0,0,0,.27Z" style="fill:#222272"/><path d="M13,32.34a.12.12,0,0,0,0-.24.12.12,0,0,0,0,.24Z" style="fill:#222272"/><path d="M12.85,32.94a.12.12,0,0,0,0-.23.12.12,0,0,0,0,.23Z" style="fill:#222272"/><path d="M12.4,30c.06.19.35.14.3-.06s-.36-.11-.3.06Z" style="fill:#222272"/><path d="M12.12,29.48h.05a.1.1,0,1,0,0-.2h-.05c-.1,0-.1.18,0,.19Z" style="fill:#222272"/><path d="M10.33,31.77a.21.21,0,0,0,0-.42.21.21,0,0,0,0,.42Z" style="fill:#222272"/><path d="M10.48,32.4a.19.19,0,0,0,0-.37.19.19,0,0,0,0,.37Z" style="fill:#222272"/><path d="M10.53,33a.11.11,0,0,0,0-.21.11.11,0,0,0,0,.21Z" style="fill:#222272"/><path d="M10,30H9.92a.11.11,0,0,0,0,.21H10A.11.11,0,0,0,10,30Z" style="fill:#222272"/><path d="M9.72,29.67a.13.13,0,0,0,0-.25.13.13,0,0,0,0,.25Z" style="fill:#222272"/><path d="M9.5,29.12l0,0a.08.08,0,0,0,0-.11l0,0a.11.11,0,0,0-.2.08.12.12,0,0,0,.2.08Z" style="fill:#222272"/><path d="M7.45,33.65a.22.22,0,0,0,0-.44.22.22,0,0,0,0,.44Z" style="fill:#222272"/><path d="M7.7,34.05a.17.17,0,0,0,0-.34.17.17,0,0,0,0,.34Z" style="fill:#222272"/><path d="M8.11,34.54a.15.15,0,0,0,0-.3.15.15,0,1,0,0,.3Z" style="fill:#222272"/><path d="M8.56,34.89a.15.15,0,0,0,0-.3.15.15,0,0,0,0,.3Z" style="fill:#222272"/><path d="M7,31.88a.16.16,0,0,0,0-.33.16.16,0,0,0,0,.33Z" style="fill:#222272"/><path d="M7,31.15a.15.15,0,0,0,0-.29.15.15,0,0,0,0,.29Z" style="fill:#222272"/><path d="M7.1,30.5a.1.1,0,0,0,0-.2.1.1,0,1,0,0,.2Z" style="fill:#222272"/><path d="M5.93,36.13a.13.13,0,1,0,0-.25.13.13,0,0,0,0,.25Z" style="fill:#222272"/><path d="M6.39,36.74a.13.13,0,0,0,0-.26.13.13,0,0,0,0,.26Z" style="fill:#222272"/><path d="M6.84,37a.13.13,0,1,0,0-.25.13.13,0,0,0,0,.25Z" style="fill:#222272"/><path d="M7.53,37.19l0,0a.08.08,0,0,0,0-.11,0,0,0,0,1,0,0c-.22-.26-.22.41,0,.15Z" style="fill:#222272"/><path d="M5.33,34.47h0a0,0,0,1,0,0,0h0a0,0,0,1,0,0,.06Z" style="fill:#222272"/><path d="M5.38,34.59a.15.15,0,1,0,0-.3.15.15,0,0,0,0,.3Z" style="fill:#222272"/><path d="M5.24,33.8l0,0a.06.06,0,0,0,0-.08l0,0c-.18-.2-.18.32,0,.13Z" style="fill:#222272"/><path d="M5.23,33.24a.12.12,0,0,0,0-.23.12.12,0,0,0,0,.23Z" style="fill:#222272"/><path d="M15.58,32.54a.12.12,0,0,0,0-.24.12.12,0,0,0,0,.24Z" style="fill:#222272"/><path d="M15.38,33.14a.12.12,0,0,0,0-.23.12.12,0,0,0,0,.23Z" style="fill:#222272"/><path d="M15,33.84a.16.16,0,0,0,0-.31.16.16,0,0,0,0,.31Z" style="fill:#222272"/><path d="M14.67,34.13c.05,0,.05-.09,0-.09s-.05.09,0,.09Z" style="fill:#222272"/><path d="M15.43,30.9a.1.1,0,0,0,0-.2.1.1,0,0,0,0,.2Z" style="fill:#222272"/><path d="M15.17,30.3a.11.11,0,0,0,0-.21.11.11,0,0,0,0,.21Z" style="fill:#222272"/><path d="M14.92,29.77a.13.13,0,1,0,0-.25.13.13,0,0,0,0,.25Z" style="fill:#222272"/><path d="M14.64,29.06l0,0a.07.07,0,0,0-.09,0l0,0c-.21.21.35.21.14,0Z" style="fill:#222272"/><path d="M14.17,28.76a.13.13,0,0,0,0-.25.13.13,0,1,0,0,.25Z" style="fill:#222272"/><path d="M23.24,15.1A1.65,1.65,0,0,0,22,14.55a3.36,3.36,0,0,0-1.35.3,5.13,5.13,0,0,0-1.85,1.23,3.32,3.32,0,0,0-.9,2,2.43,2.43,0,0,0-2.51-.17,2.06,2.06,0,0,0-.62.91,21.49,21.49,0,0,0-1.29,7.86,6.09,6.09,0,0,1-.28,1.91,4,4,0,0,0-.38,1.09.31.31,0,0,0,0,.21c.09.12.27.07.41,0l3.56-1.57c2.32-1,4.77-2.14,6.14-4.28a10.42,10.42,0,0,0,1.09-2.46,9.67,9.67,0,0,0,.58-3.27A6,6,0,0,0,23.24,15.1Z" style="fill:#0c0a35"/><g style="clip-path:url(#clip-path)"><path d="M12.56,30.46a3.66,3.66,0,0,0,1.77-2.56c.38-1.42.64-2.84,1.1-4.24a26.7,26.7,0,0,0,1.15-4.32c.2-1.3-.86-2.13-1.29-3.26a.15.15,0,0,0-.3,0c-.14,1.23,1.21,1.87,1.13,3.16a16,16,0,0,1-1,4,35.21,35.21,0,0,0-1,3.79,7.79,7.79,0,0,1-.44,1.57,4.15,4.15,0,0,1-.77,1.21c-.37.4-.31.16-.47.5a.07.07,0,0,0,.09.09Z" style="fill:#b70027"/><path d="M13.39,30.52c.8-.22,1.22-1,1.56-1.71a20.1,20.1,0,0,0,1.17-3.17q.7-2.41,1.39-4.84a13.53,13.53,0,0,0,.11-5.38c0-.21-.32-.13-.34,0-.23,1.75.23,3.47-.21,5.22-.37,1.42-.72,2.83-1.19,4.22-.31,1-.6,1.92-1,2.87-.3.79-.67,2.33-1.55,2.71a0,0,0,0,0,0,0Z" style="fill:#b70027"/><path d="M15.17,30.26c.11-.58.56-.91.87-1.37s.65-1.13,1-1.7a26.24,26.24,0,0,0,1.54-3.91,22.58,22.58,0,0,0,.94-4.68c.1-.83.19-1.66.23-2.5a6.73,6.73,0,0,0,.06-2.28.22.22,0,0,0-.43.12,8.72,8.72,0,0,1-.09,2.16c0,.84-.13,1.67-.24,2.5a22.37,22.37,0,0,1-1,4.81,33,33,0,0,1-1.55,4.13,10.28,10.28,0,0,1-1,1.64,2.33,2.33,0,0,0-.52,1c0,.17.23.24.26.07Z" style="fill:#b70027"/><path d="M16.5,29.32a13.21,13.21,0,0,0,2.61-3.51,29,29,0,0,0,1.3-3.95,30.11,30.11,0,0,0,.84-4.1A15.88,15.88,0,0,1,22,13.52c.06-.14,0-.32-.2-.27-.77.25-.63,1.64-.71,2.26-.22,1.61-.47,3.2-.76,4.79a39,39,0,0,1-1.15,4.1,12.65,12.65,0,0,1-2.79,4.77c-.09.1.06.25.15.15Z" style="fill:#b70027"/><path d="M18.79,28.19c.92-.54,1.16-1.57,1.62-2.47a19.63,19.63,0,0,0,1.23-3.39,28.93,28.93,0,0,0,1.07-4.41c.09-.69.14-1.38.18-2.08a9.24,9.24,0,0,0,.2-2.39.14.14,0,0,0-.27,0A20.51,20.51,0,0,0,22.36,17a25.36,25.36,0,0,1-.94,4.55,32.83,32.83,0,0,1-1.06,3.27c-.38,1-.85,2.51-1.68,3.15a.11.11,0,0,0,.11.19Z" style="fill:#b70027"/><path d="M20.22,27.5a7.83,7.83,0,0,0,1.85-2.65c.6-1.09,1.05-2.2,1.55-3.33a9.13,9.13,0,0,0,.54-2.89c.11-1.16.5-2.43-.23-3.47-.05-.08-.2-.06-.19.05a16.91,16.91,0,0,1-.09,3.18,10.09,10.09,0,0,1-.59,3.13c-.42.95-.78,1.91-1.28,2.82s-.89,2.31-1.68,3c-.1.08,0,.24.12.17Z" style="fill:#b70027"/></g><path d="M22.9,18.84a.69.69,0,0,0,.47.09,15.29,15.29,0,0,0,3.31-.4,3.14,3.14,0,0,0,2.13-1.39,1.29,1.29,0,0,0-.23-1.45,2.85,2.85,0,0,0-.87-.44,2.28,2.28,0,0,1-1.21-2.13,5.29,5.29,0,0,0-.38-2.54A2.64,2.64,0,0,0,24.5,9.44a8,8,0,0,0-2-.19,1,1,0,0,0-.79.24.93.93,0,0,0-.05.8,16.2,16.2,0,0,1,.77,5c0,.48-.13.95-.13,1.43a4.72,4.72,0,0,0,.37,1.74A.73.73,0,0,0,22.9,18.84Z" style="fill:#191956"/><path d="M26.2,6.88a1,1,0,0,1-.12.49,1.08,1.08,0,0,1-.75.37,28,28,0,0,1-10.75.4,1,1,0,0,1-.64-.32.85.85,0,0,1-.1-.47,3.81,3.81,0,0,1,.27-1.84,5.67,5.67,0,0,1,1-1.49,6.17,6.17,0,0,1,3-1.63,8.49,8.49,0,0,1,4.63.28,6.39,6.39,0,0,1,2.29,1.44A3.78,3.78,0,0,1,26.2,6.88Z" style="fill:#0c0a35"/><path d="M28.56,25.11l.28.07Z" style="fill:#fcc07e"/><g style="clip-path:url(#clip-path-2)"><path d="M21.92,8.62a18.43,18.43,0,0,1,1.17,7.63c0,1.63-.53,4,1.1,5.1.1.06.2-.06.15-.16a6.21,6.21,0,0,1-.84-2.85c0-1.18.1-2.35,0-3.53a17,17,0,0,0-1.39-6.33c-.07-.15-.29,0-.22.14Z" style="fill:#b70027"/><path d="M23,8.68c1.23,2,.66,4.78.89,7,.19,1.84.13,3.91,2,4.91a.11.11,0,0,0,.15-.15,8,8,0,0,1-1.41-3.08c-.14-1.11-.26-2.25-.33-3.36-.11-1.94-.07-3.71-1.18-5.38,0-.08-.17,0-.12.06Z" style="fill:#b70027"/><path d="M23.84,8.6c.78.62.83,2.68.89,3.53a23.42,23.42,0,0,0,.32,3.93c.37,1.5.81,3.14,2.07,4.12.08.06.21,0,.15-.11a11.14,11.14,0,0,1-2-5.79,21.64,21.64,0,0,0-.38-4c-.13-.64-.28-1.5-.92-1.82-.1-.06-.22.08-.13.16Z" style="fill:#b70027"/><path d="M25.66,8.14c0,.72-.69,1.14-.49,1.94a37.91,37.91,0,0,1,.64,4,17.3,17.3,0,0,0,1,3.89A4.53,4.53,0,0,0,28.7,20.5c.07,0,.18,0,.12-.13-.31-.46-.72-.84-1-1.3A6.68,6.68,0,0,1,27,17.29a20.57,20.57,0,0,1-.83-3.89,14.26,14.26,0,0,0-.56-3.26c-.3-.77.45-1.31.25-2,0-.1-.18-.08-.17,0Z" style="fill:#b70027"/><path d="M26.7,9.38c-.67,2-.09,4.49.62,6.41.46,1.25,1.37,4.06,3.17,3.72a.12.12,0,0,0,.05-.21c-.6-.49-1.2-.63-1.62-1.37a17.77,17.77,0,0,1-1.16-2.6c-.65-1.71-1.35-4.07-.89-5.9a.09.09,0,0,0-.17,0Z" style="fill:#b70027"/></g><path d="M25.6,10.41A4.12,4.12,0,0,0,27.21,7.6a8,8,0,0,0-.3-3.29,15.47,15.47,0,0,0-3.19,3.51,16.26,16.26,0,0,0-1.51-4,47,47,0,0,0-2.84,3.88c-.35-.83-.7-1.66-1.06-2.49a5.47,5.47,0,0,0-1-1.47,13.61,13.61,0,0,0-2.25,4.13,6.78,6.78,0,0,0-1.57-2.52c-.23-.28-.69-.65-.95-.9a11.29,11.29,0,0,0-.5,3.25,3.76,3.76,0,0,0,1.36,2.88,2,2,0,0,0,1.47.21,30.62,30.62,0,0,1,8.55-.19c.87.1,1.91.18,2.46-.5Z" style="fill:#222272"/><path d="M12.79,7.42a11.65,11.65,0,0,1,2,2c-.63,0-1.12,0-1.75,0A6.37,6.37,0,0,1,12.79,7.42Z" style="fill:#f70032"/><path d="M17.26,7.07s.06,0,.08,0a13.86,13.86,0,0,1,1.24,2.27l-2.33-.08a.75.75,0,0,1,.12-.5l.86-1.7Z" style="fill:#f70032"/><path d="M22.81,9.5c-.71-.07-1.66-.14-2.38-.14A18.51,18.51,0,0,1,21.89,7,6.14,6.14,0,0,1,22.81,9.5Z" style="fill:#f70032"/><path d="M24.17,9.56c.28-.35.5-.57.8-.9s.89-.79,1.34-1.19a4.33,4.33,0,0,1-.42,1.87.48.48,0,0,1-.12.17.44.44,0,0,1-.34.07C25.05,9.57,24.54,9.58,24.17,9.56Z" style="fill:#f70032"/><path d="M30.83,21.43c.27-1.47.44-3.11.71-4.58.07-.39.62-4,.73-4.61.12,0,.55.07.67.07a5.52,5.52,0,0,1-.31-1.2.94.94,0,0,0,1.12.14c.28-.15.26-.58.23-.83-.21-1.76-.57-3-.79-4.5a22.09,22.09,0,0,1-2.25,3.49,2.28,2.28,0,0,0-.44.71.71.71,0,0,0,.17.78,1.21,1.21,0,0,0,1.07.12c-.18.35-.51.68-.67,1,.25,0,.44.1.69.11-.18,1.29-.44,2.37-.64,3.64-.33,2-.68,4.25-1,6.25-.12.8-.88,4.81-.9,4.91a4.15,4.15,0,0,0,.65.13C30,26.66,30.7,22.17,30.83,21.43Z" style="fill:#141247"/><path d="M16.14,15.43a1.77,1.77,0,0,1,1.47.28,4.4,4.4,0,0,1,1.7,2.19,8.39,8.39,0,0,1,.46,2.77A2.89,2.89,0,0,1,19.58,22a1.26,1.26,0,0,1-1-.3,4.83,4.83,0,0,1-2.32-3.62,4.42,4.42,0,0,1-2.7,4.21c.14-.9.68-1.71.8-2.62.14-1.19-.46-2.47,0-3.58a.51.51,0,0,1,.18-.25c.22-.17.53,0,.81-.05A3.3,3.3,0,0,0,16.14,15.43Z" style="fill:#0c0a35"/><path d="M16.14,15.43a1.77,1.77,0,0,1,1.47.28,4.4,4.4,0,0,1,1.7,2.19,8.39,8.39,0,0,1,.46,2.77A2.89,2.89,0,0,1,19.58,22a1.26,1.26,0,0,1-1-.3,4.83,4.83,0,0,1-2.32-3.62,4.42,4.42,0,0,1-2.7,4.21c.14-.9.68-1.71.8-2.62.14-1.19-.46-2.47,0-3.58a.51.51,0,0,1,.18-.25c.22-.17.53,0,.81-.05A3.3,3.3,0,0,0,16.14,15.43Z" style="fill:#191956"/><g style="clip-path:url(#clip-path-3)"><path d="M14.93,15.19c-.7.3-.51,1.37-.51,2A18.32,18.32,0,0,1,14.35,20c-.12.81-.56,1.49-.73,2.26,0,.1.08.16.15.09a4.63,4.63,0,0,0,1.08-3,20,20,0,0,0,0-2.19c0-.51-.15-1.38.21-1.8a.12.12,0,0,0-.14-.18Z" style="fill:#b70027"/><path d="M15.61,15c-.63,1-.15,2-.17,3.12a12.12,12.12,0,0,1-.15,2c-.11.7-.52,1.29-.66,2,0,.09.08.18.16.12.91-.55,1-2,1.06-3a14,14,0,0,0,0-1.94A4.55,4.55,0,0,1,15.79,15c0-.11-.12-.17-.18-.08Z" style="fill:#b70027"/><path d="M15.77,15.09c.22.23.27.7.39,1s.33.87.48,1.31c.31.89.31,1.85.58,2.75a4.94,4.94,0,0,0,1,1.75c.41.47.85,1.07,1.48,1.18a.2.2,0,0,0,.19-.33,6.79,6.79,0,0,1-2.52-4c-.19-1.14-.62-2.92-1.54-3.72a.07.07,0,0,0-.1.11Z" style="fill:#b70027"/><path d="M16.71,14.88a4.55,4.55,0,0,1,1.11,2.17c.29.9.51,1.81.84,2.69s1.19,2.93,2.4,2.7a.14.14,0,0,0,.06-.23,17.21,17.21,0,0,1-1.46-1.72,10.93,10.93,0,0,1-1.05-2.58c-.35-1.13-.65-2.59-1.79-3.18-.09-.05-.2.08-.11.15Z" style="fill:#b70027"/></g><path d="M19.34,12.67A.65.65,0,0,0,20,12a.65.65,0,1,0-1.3,0,.65.65,0,0,0,.65.64Z" style="fill:#0c0a35"/><path d="M14.53,15.85c.46-.18,1,.08,1.45-.16a1,1,0,0,0,.54-.8.74.74,0,0,0-.25-.72c-.22-.13-.64-.07-.66.24a.12.12,0,0,0,.08.1c.16.06.34-.11.47,0s.07.41,0,.56c-.12.35-.52.42-.84.43a1.42,1.42,0,0,0-.86.21c-.06,0,0,.16,0,.13Z" style="fill:#0c0a35"/><path d="M15.18,4.63a.15.15,0,0,0,0-.3.15.15,0,0,0,0,.3Z" style="fill:#b70027"/><path d="M15.9,4.3a.11.11,0,0,0-.05.09.15.15,0,0,0,.18.18h0l-.12,0h0a.17.17,0,0,0,.25-.14.17.17,0,0,0-.29-.12Z" style="fill:#f70032"/><path d="M18.57,4.53a.15.15,0,0,0,0-.3.15.15,0,0,0,0,.3Z" style="fill:#f70032"/><path d="M19.61,4.54a.19.19,0,0,0,0-.38.19.19,0,0,0,0,.38Z" style="fill:#f70032"/><path d="M20.75,4.59a.24.24,0,0,0,0-.47.24.24,0,0,0,0,.47Z" style="fill:#f70032"/><path d="M23.43,4.54a.19.19,0,0,0,0-.38.19.19,0,0,0,0,.38Z" style="fill:#f70032"/><path d="M24.37,4.47a.22.22,0,0,0,0-.44.22.22,0,0,0,0,.44Z" style="fill:#f70032"/><path d="M18.5,29.54h0l2.57-.76h0l.52.28,0,0L21,28.76a2.18,2.18,0,0,0-1.16-.11,2.23,2.23,0,0,0-.93,4,2.31,2.31,0,0,0,1.1.41h.06l.58,0a2.26,2.26,0,0,0,1-.46l.4-.42a2.31,2.31,0,0,0,.41-1.1v0a2.22,2.22,0,0,0-.19-1.11,2.2,2.2,0,0,0-2.38-1.27l-.54.17a2.11,2.11,0,0,0-.88.71Z" style="fill:#b70027"/><path d="M21.29,28.47a.41.41,0,0,0,.26-.68.44.44,0,0,0-.4-.15.42.42,0,0,0-.26.68.44.44,0,0,0,.4.15Z" style="fill:#b70027"/><path d="M17.22,30.24a.43.43,0,0,0,.3-.8.43.43,0,0,0-.3.8Z" style="fill:#b70027"/><path d="M22.91,32a.4.4,0,1,0-.23-.52.4.4,0,0,0,.23.52Z" style="fill:#b70027"/><path d="M19.65,33.85a.62.62,0,0,0-.12-.29l-.12-.11a.52.52,0,0,0-.37-.08l.34.08h0a.46.46,0,0,0-.44,0,.46.46,0,0,0-.26.47h0a3.38,3.38,0,0,0,.08-.34.58.58,0,0,0-.09.25.47.47,0,0,0,.05.26.57.57,0,0,0,.21.25.43.43,0,0,0,.46.05.47.47,0,0,0,.27-.5Z" style="fill:#b70027"/><path d="M19.57,31.4a1,1,0,0,0,.43.31,1,1,0,0,0,.79,0,1,1,0,0,0,.38-1.58,1,1,0,0,0-1.6,1.29Z" style="fill:#0c0a35"/><path d="M20.71,29.62a.39.39,0,0,0,.27-.73.39.39,0,0,0-.27.73Z" style="fill:#0c0a35"/><path d="M18.67,30.6a.33.33,0,0,0,.42-.19.33.33,0,1,0-.42.19Z" style="fill:#0c0a35"/><path d="M19.7,32.63a.38.38,0,0,0,.26-.71.38.38,0,0,0-.26.71Z" style="fill:#0c0a35"/><path d="M21.61,31.63a.35.35,0,1,0,.25-.65.35.35,0,0,0-.45.2.35.35,0,0,0,.2.45Z" style="fill:#0c0a35"/><path d="M18.23,10.85a2.24,2.24,0,0,0,1.15.1,3.42,3.42,0,0,0,1.36-.16.12.12,0,0,0,0-.21,2.43,2.43,0,0,0-1.17-.06,3,3,0,0,0-1.34.21.07.07,0,0,0,0,.12Z" style="fill:#0c0a35"/><path d="M28.36,38.09a20.76,20.76,0,0,1-.48-2.82,22.11,22.11,0,0,1,0-2.7c0-.83.06-1.66.1-2.5,0-.67.05-1.34.08-2a.69.69,0,0,1,.14-.47.62.62,0,0,1,.29-.15c.42-.11,2.19-2.48,2.62-2.39.67,3.92-.2,7.52.22,10.34a9.25,9.25,0,0,0,2.88-1.92c-.15,1.11-.23,2.31-.38,3.42a8.35,8.35,0,0,1-.38,1.55c-.31,1-.62,2.08-.94,3.12-.11.37-.27.79-.63.92a1.19,1.19,0,0,1-.42.06A2.42,2.42,0,0,1,29.53,42a2.37,2.37,0,0,1-.4-.9C28.85,40.09,28.59,39.1,28.36,38.09Z" style="fill:#191956"/><path d="M30.2,24.38c-2.49-.86-3.2-.45-3.08,0,.07.29.58.41.88.49s.11.07.39.14a8.08,8.08,0,0,0-1.25.08.48.48,0,0,0-.4.47c0,.55,1.19.61,1.36.76a3.87,3.87,0,0,0-1,.08.44.44,0,0,0-.25.48.54.54,0,0,0,.39.38c.33.09.74.14,1.09.2-.23.05-.51,0-.73.07a1.41,1.41,0,0,0-.44.14c-.12.08-.13.3-.1.44s.26.27.45.32a7.46,7.46,0,0,0,2.67.22c.55-.36.6-.76.89-1.52A3.47,3.47,0,0,0,31.12,25,1.46,1.46,0,0,0,30.2,24.38Z" style="fill:#ffd6a1"/><path d="M30.36,24.89a.3.3,0,0,0-.2.36.16.16,0,0,0,.31,0c0-.06,0-.11,0-.15s0-.21-.13-.17Z" style="fill:#0c0a35"/><path d="M30.08,26a.58.58,0,0,0,0,.39.15.15,0,0,0,.29,0,.58.58,0,0,0,0-.39.12.12,0,0,0-.21,0Z" style="fill:#0c0a35"/><path d="M30,27.05c-.09.12-.21.34-.09.47s.12.05.15,0,.05-.2.12-.29-.08-.3-.18-.18Z" style="fill:#0c0a35"/><path d="M29.65,28.11a1.66,1.66,0,0,0-.06.21c0,.15.18.26.26.11a.68.68,0,0,0,.07-.28c0-.16-.23-.18-.27,0Z" style="fill:#0c0a35"/><path d="M20.46,61.66a.32.32,0,0,1-.34,0,.68.68,0,0,1-.23-.27,3.6,3.6,0,0,1-.52-1.48,3.13,3.13,0,0,1,1.84-.19,10.23,10.23,0,0,1-.62,1.76A.36.36,0,0,1,20.46,61.66Z" style="fill:#222272"/><path d="M18.31,45.19a10.55,10.55,0,0,0-1.7,6.89,2.58,2.58,0,0,0,.32,1.32,2.37,2.37,0,0,0,1.29.81,9.93,9.93,0,0,0,7.94-.82c.21-.12.43-.27.44-.51a.76.76,0,0,0-.29-.55A12.16,12.16,0,0,0,25,51.21c1.5-1.64,3-3.47,3.25-5.67a8.54,8.54,0,0,0-2.54,1.23,13.43,13.43,0,0,0,.41-2.59,2.17,2.17,0,0,0-.2-1.24,2.38,2.38,0,0,0-2-.84,4.89,4.89,0,0,0-2,.11,4.69,4.69,0,0,0-1.49.94A13,13,0,0,0,18.31,45.19Z" style="fill:#ffd6a1"/><path d="M19.54,49.79a4.36,4.36,0,0,1,.55-.41,2.46,2.46,0,0,1,1.47-.21,2.66,2.66,0,0,1,1.3.64,2.79,2.79,0,0,1,.79.9,4.51,4.51,0,0,1-4.33.71A8,8,0,0,1,18.6,51,3.25,3.25,0,0,1,19.54,49.79Z" style="fill:#fff"/><path d="M17.17,47.39a1.63,1.63,0,0,0,1.23.55,3.21,3.21,0,0,0,1.36-.3,5,5,0,0,0,1.84-1.23,3.28,3.28,0,0,0,.91-2,2.43,2.43,0,0,0,2.51.17,2.15,2.15,0,0,0,.62-.91,21.7,21.7,0,0,0,1.29-7.86,5.82,5.82,0,0,1,.28-1.91,4.39,4.39,0,0,0,.37-1.09.31.31,0,0,0,0-.21c-.09-.11-.28-.07-.41,0l-3.57,1.57c-2.32,1-4.77,2.15-6.13,4.28a10.61,10.61,0,0,0-1.09,2.46,9.68,9.68,0,0,0-.59,3.27A6,6,0,0,0,17.17,47.39Z" style="fill:#0c0a35"/><g style="clip-path:url(#clip-path-4)"><path d="M27.84,32a3.69,3.69,0,0,0-1.77,2.56c-.38,1.42-.63,2.84-1.1,4.24a27,27,0,0,0-1.14,4.32c-.2,1.3.86,2.13,1.29,3.26a.15.15,0,0,0,.3,0c.14-1.23-1.21-1.87-1.13-3.16a16,16,0,0,1,1-4,35.61,35.61,0,0,0,1-3.78,8.61,8.61,0,0,1,.44-1.58,4.56,4.56,0,0,1,.78-1.21c.36-.4.3-.15.47-.5,0-.06,0-.12-.1-.09Z" style="fill:#b70027"/><path d="M27,32c-.8.22-1.22,1-1.56,1.71a19.2,19.2,0,0,0-1.18,3.17q-.71,2.41-1.38,4.84a13.35,13.35,0,0,0-.12,5.38c0,.22.32.13.35,0,.23-1.75-.24-3.47.21-5.22.36-1.42.72-2.83,1.18-4.22.32-1,.61-1.92,1-2.86S26.15,32.39,27,32c0,0,0,0,0,0Z" style="fill:#b70027"/><path d="M25.24,32.23c-.12.58-.57.91-.88,1.37s-.65,1.13-1,1.7a27,27,0,0,0-1.53,3.92,21.73,21.73,0,0,0-.94,4.67c-.11.83-.2,1.66-.24,2.5a7,7,0,0,0-.06,2.28.22.22,0,0,0,.43-.12,8.72,8.72,0,0,1,.1-2.16c0-.84.13-1.67.23-2.5a22.37,22.37,0,0,1,1-4.81A31.57,31.57,0,0,1,24,35a9.61,9.61,0,0,1,1-1.64,2.33,2.33,0,0,0,.52-1c0-.17-.23-.24-.26-.07Z" style="fill:#b70027"/><path d="M23.91,33.17a13,13,0,0,0-2.61,3.51,30.46,30.46,0,0,0-1.31,4,32.37,32.37,0,0,0-.83,4.1A16.23,16.23,0,0,1,18.44,49c-.05.14,0,.32.21.27.76-.25.62-1.64.71-2.26.22-1.6.46-3.19.76-4.79a41.49,41.49,0,0,1,1.14-4.1,12.67,12.67,0,0,1,2.8-4.77c.09-.1-.06-.25-.15-.15Z" style="fill:#b70027"/><path d="M21.62,34.3c-.92.54-1.17,1.58-1.63,2.48a20,20,0,0,0-1.22,3.38,26.75,26.75,0,0,0-1.07,4.41c-.09.69-.14,1.38-.18,2.08a8.44,8.44,0,0,0-.2,2.39.13.13,0,0,0,.26,0A19.61,19.61,0,0,0,18,45.47,26.2,26.2,0,0,1,19,40.91a31.16,31.16,0,0,1,1.06-3.27c.38-1,.84-2.51,1.68-3.15.11-.08,0-.26-.11-.19Z" style="fill:#b70027"/><path d="M20.18,35a7.9,7.9,0,0,0-1.84,2.65c-.6,1.09-1.05,2.21-1.56,3.34a9.06,9.06,0,0,0-.53,2.88c-.11,1.17-.5,2.44.23,3.47.05.08.2.06.19,0a16.11,16.11,0,0,1,.09-3.18A10.09,10.09,0,0,1,17.35,41c.41-.95.78-1.91,1.27-2.82s.9-2.31,1.69-3c.09-.08,0-.24-.13-.17Z" style="fill:#b70027"/></g><path d="M17.51,43.65a.79.79,0,0,0-.48-.09,16,16,0,0,0-3.31.4,3.16,3.16,0,0,0-2.13,1.39,1.31,1.31,0,0,0,.24,1.45,3,3,0,0,0,.87.45,2.27,2.27,0,0,1,1.21,2.12,5.31,5.31,0,0,0,.37,2.55,2.69,2.69,0,0,0,1.63,1.13,8,8,0,0,0,2,.19,1,1,0,0,0,.79-.24.94.94,0,0,0,.06-.79,16,16,0,0,1-.77-5c0-.48.13-1,.13-1.43A4.94,4.94,0,0,0,17.75,44,.75.75,0,0,0,17.51,43.65Z" style="fill:#191956"/><path d="M14.21,55.61a.94.94,0,0,1,.12-.49,1,1,0,0,1,.74-.37,28.23,28.23,0,0,1,10.75-.4.71.71,0,0,1,.75.79A3.94,3.94,0,0,1,26.3,57a5.33,5.33,0,0,1-1,1.49,6.06,6.06,0,0,1-3,1.63,8.49,8.49,0,0,1-4.63-.28,6.31,6.31,0,0,1-2.29-1.44A3.76,3.76,0,0,1,14.21,55.61Z" style="fill:#0c0a35"/><path d="M11.85,37.38l-.28-.07A1.28,1.28,0,0,0,11.85,37.38Z" style="fill:#fcc07e"/><g style="clip-path:url(#clip-path-5)"><path d="M18.49,53.88a18.16,18.16,0,0,1-1.17-7.63c0-1.63.52-4-1.1-5.1-.1-.07-.2.06-.16.15a6.14,6.14,0,0,1,.85,2.85c0,1.18-.11,2.35,0,3.53A17.23,17.23,0,0,0,18.26,54c.08.15.3,0,.23-.13Z" style="fill:#b70027"/><path d="M17.38,53.81c-1.23-2-.66-4.78-.89-7-.19-1.84-.13-3.91-2-4.91a.11.11,0,0,0-.15.15,8,8,0,0,1,1.42,3.08c.14,1.11.26,2.25.32,3.36.12,1.94.08,3.71,1.19,5.39,0,.07.16,0,.12-.07Z" style="fill:#b70027"/><path d="M16.56,53.89c-.78-.62-.82-2.68-.88-3.53a23.42,23.42,0,0,0-.33-3.93c-.36-1.5-.8-3.14-2.06-4.12-.08-.06-.22,0-.15.11a11,11,0,0,1,2,5.8,22.51,22.51,0,0,0,.39,4c.13.64.28,1.5.92,1.83.1,0,.22-.09.12-.17Z" style="fill:#b70027"/><path d="M14.75,54.35c-.05-.72.69-1.14.48-1.93a38.07,38.07,0,0,1-.63-4,17.32,17.32,0,0,0-1-3.89A4.47,4.47,0,0,0,11.71,42c-.08,0-.19,0-.13.13.31.46.73.84,1.05,1.3a7.16,7.16,0,0,1,.81,1.78,21.48,21.48,0,0,1,.83,3.9,13.75,13.75,0,0,0,.56,3.25c.3.77-.46,1.31-.25,2a.09.09,0,0,0,.17,0Z" style="fill:#b70027"/><path d="M13.71,53.11c.67-2,.08-4.49-.62-6.4-.46-1.26-1.38-4.07-3.17-3.73a.14.14,0,0,0-.06.22c.6.48,1.2.62,1.63,1.36a18.9,18.9,0,0,1,1.16,2.6c.65,1.71,1.34,4.07.89,5.9a.09.09,0,1,0,.17,0Z" style="fill:#b70027"/></g><path d="M14.81,52.08a4.17,4.17,0,0,0-1.62,2.81,8.33,8.33,0,0,0,.3,3.29,15.51,15.51,0,0,0,3.2-3.51,15.35,15.35,0,0,0,1.51,4C19.3,57.46,20.07,56,21,54.76c.35.83.69,1.66,1.06,2.48a5.25,5.25,0,0,0,1,1.47,13.83,13.83,0,0,0,2.25-4.13A6.53,6.53,0,0,0,26.9,57.1a10.17,10.17,0,0,0,1,.9,11,11,0,0,0,.49-3.25A3.73,3.73,0,0,0,27,51.87a2,2,0,0,0-1.46-.2,30.68,30.68,0,0,1-8.56.18c-.86-.1-1.9-.18-2.45.5Z" style="fill:#222272"/><path d="M27.62,55.07a11.65,11.65,0,0,1-2-2c.62,0,1.12,0,1.74,0A6.44,6.44,0,0,1,27.62,55.07Z" style="fill:#f70032"/><path d="M23.14,55.42s-.06,0-.08,0a15.24,15.24,0,0,1-1.24-2.28l2.34.09a.72.72,0,0,1-.12.49l-.87,1.71Z" style="fill:#f70032"/><path d="M17.6,53c.71.07,1.65.14,2.38.14a17.84,17.84,0,0,1-1.46,2.36A6.14,6.14,0,0,1,17.6,53Z" style="fill:#f70032"/><path d="M16.24,52.93c-.28.35-.5.57-.81.9A16.54,16.54,0,0,1,14.09,55a4.34,4.34,0,0,1,.43-1.87.62.62,0,0,1,.11-.17.6.6,0,0,1,.35-.07C15.36,52.92,15.86,52.91,16.24,52.93Z" style="fill:#f70032"/><path d="M9.58,41.06c-.27,1.48-.45,3.11-.72,4.59-.07.39-.61,4-.73,4.6-.11,0-.54-.07-.66-.07a6.16,6.16,0,0,1,.31,1.2,1,1,0,0,0-1.12-.14c-.28.15-.26.58-.23.83.2,1.76.57,3,.78,4.5a21.61,21.61,0,0,1,2.26-3.48,2.68,2.68,0,0,0,.44-.72.71.71,0,0,0-.18-.78,1.15,1.15,0,0,0-1.06-.11c.18-.36.51-.69.67-1-.25,0-.45-.1-.7-.11.18-1.29.44-2.37.65-3.63.33-2,.68-4.26,1-6.26.13-.8.88-4.81.91-4.91-.13,0-.54-.11-.66-.13C10.39,35.83,9.71,40.32,9.58,41.06Z" style="fill:#141247"/><path d="M24.27,47.06a1.79,1.79,0,0,1-1.48-.28,4.39,4.39,0,0,1-1.69-2.19,8.14,8.14,0,0,1-.47-2.77,3.21,3.21,0,0,1,.19-1.31,1.26,1.26,0,0,1,1.05.3,4.77,4.77,0,0,1,2.32,3.62,4.45,4.45,0,0,1,2.7-4.21c-.14.9-.68,1.71-.79,2.62-.15,1.19.46,2.47,0,3.58a.67.67,0,0,1-.18.25c-.22.17-.54,0-.82,0A3.65,3.65,0,0,0,24.27,47.06Z" style="fill:#0c0a35"/><path d="M24.27,47.06a1.79,1.79,0,0,1-1.48-.28,4.39,4.39,0,0,1-1.69-2.19,8.14,8.14,0,0,1-.47-2.77,3.21,3.21,0,0,1,.19-1.31,1.26,1.26,0,0,1,1.05.3,4.77,4.77,0,0,1,2.32,3.62,4.45,4.45,0,0,1,2.7-4.21c-.14.9-.68,1.71-.79,2.62-.15,1.19.46,2.47,0,3.58a.67.67,0,0,1-.18.25c-.22.17-.54,0-.82,0A3.65,3.65,0,0,0,24.27,47.06Z" style="fill:#191956"/><g style="clip-path:url(#clip-path-6)"><path d="M25.47,47.3c.71-.3.52-1.37.51-2a18.35,18.35,0,0,1,.08-2.87c.12-.8.56-1.49.73-2.26a.1.1,0,0,0-.16-.09,4.68,4.68,0,0,0-1.08,3c-.06.73,0,1.47,0,2.19,0,.51.15,1.39-.22,1.8a.12.12,0,0,0,.14.18Z" style="fill:#b70027"/><path d="M24.79,47.53c.63-1,.16-2,.18-3.12a13.09,13.09,0,0,1,.14-2c.12-.71.52-1.3.66-2a.11.11,0,0,0-.16-.12c-.9.56-1,2-1.06,3a12.57,12.57,0,0,0,0,1.94,4.68,4.68,0,0,1,.05,2.23.09.09,0,0,0,.17.08Z" style="fill:#b70027"/><path d="M24.64,47.4a3,3,0,0,1-.39-1c-.17-.43-.33-.87-.48-1.31-.31-.89-.31-1.85-.59-2.75a4.66,4.66,0,0,0-1-1.75,2.9,2.9,0,0,0-1.48-1.18.2.2,0,0,0-.18.33,6.87,6.87,0,0,1,2.52,4c.18,1.14.61,2.92,1.53,3.72.08.06.18,0,.11-.11Z" style="fill:#b70027"/><path d="M23.7,47.61a4.47,4.47,0,0,1-1.11-2.17c-.29-.89-.51-1.81-.84-2.69s-1.2-2.92-2.41-2.69c-.11,0-.11.15-.06.23A16.13,16.13,0,0,1,20.75,42a11.33,11.33,0,0,1,1,2.58c.35,1.13.66,2.6,1.79,3.19.09,0,.21-.09.12-.16Z" style="fill:#b70027"/></g><path d="M21.07,49.82a.65.65,0,1,0,.64.64.65.65,0,0,0-.64-.64Z" style="fill:#0c0a35"/><path d="M25.87,46.64c-.45.18-1-.08-1.44.16a1,1,0,0,0-.55.8c0,.24,0,.59.26.72s.64.07.65-.24a.11.11,0,0,0-.08-.1c-.15-.06-.33.12-.46,0s-.07-.41,0-.56c.12-.35.51-.42.84-.43a1.45,1.45,0,0,0,.86-.21c.06,0,0-.16-.06-.13Z" style="fill:#0c0a35"/><path d="M25.22,57.86a.15.15,0,0,0,0,.3.15.15,0,0,0,0-.3Z" style="fill:#b70027"/><path d="M24.5,58.2a.21.21,0,0,0,.06-.1.15.15,0,0,0-.18-.18h0l.12,0h0a.17.17,0,0,0-.26.14.18.18,0,0,0,.29.13Z" style="fill:#f70032"/><path d="M21.84,58a.15.15,0,0,0,0,.3.15.15,0,0,0,0-.3Z" style="fill:#f70032"/><path d="M20.8,58a.19.19,0,0,0,0,.38.19.19,0,0,0,0-.38Z" style="fill:#f70032"/><path d="M19.66,57.91a.24.24,0,0,0,0,.47.24.24,0,0,0,0-.47Z" style="fill:#f70032"/><path d="M17,58a.19.19,0,0,0,0,.38A.19.19,0,0,0,17,58Z" style="fill:#f70032"/><path d="M16,58a.22.22,0,0,0,0,.44A.22.22,0,0,0,16,58Z" style="fill:#f70032"/><path d="M22.17,51.64a2.19,2.19,0,0,0-1.14-.1,3.49,3.49,0,0,0-1.37.16.12.12,0,0,0,0,.21,2.35,2.35,0,0,0,1.18.06,3,3,0,0,0,1.33-.21.07.07,0,0,0,0-.12Z" style="fill:#0c0a35"/><path d="M12,24.4a18.06,18.06,0,0,1,.48,2.82,22.11,22.11,0,0,1,0,2.7c0,.83-.07,1.66-.1,2.5,0,.67-.06,1.35-.08,2a.69.69,0,0,1-.14.47.66.66,0,0,1-.3.15c-.42.11-2.19,2.48-2.61,2.4-.68-3.93.19-7.53-.23-10.34A8.76,8.76,0,0,0,6.19,29c.15-1.12.22-2.32.37-3.43a10.31,10.31,0,0,1,.38-1.55c.32-1,.63-2.08.95-3.12.11-.37.26-.79.63-.92A1.13,1.13,0,0,1,8.93,20a2.41,2.41,0,0,1,1.94.55,2.24,2.24,0,0,1,.41.9C11.56,22.4,11.81,23.4,12,24.4Z" style="fill:#191956"/><path d="M10.21,38.11c2.49.86,3.19.45,3.08,0-.07-.3-.58-.42-.88-.49s-.11-.07-.39-.14a11.68,11.68,0,0,0,1.24-.09.48.48,0,0,0,.41-.47c0-.55-1.19-.61-1.36-.76a3.91,3.91,0,0,0,1-.08.41.41,0,0,0,.24-.48.5.5,0,0,0-.38-.37A10.46,10.46,0,0,0,12.1,35c.22,0,.5,0,.72-.07a1.08,1.08,0,0,0,.44-.14c.13-.08.14-.29.1-.44s-.26-.26-.44-.32a7.46,7.46,0,0,0-2.67-.22c-.56.37-.6.76-.9,1.52a3.57,3.57,0,0,0-.06,2.12A1.49,1.49,0,0,0,10.21,38.11Z" style="fill:#ffd6a1"/><path d="M10.05,37.6a.28.28,0,0,0,.19-.35c0-.18-.31-.13-.3,0a.22.22,0,0,1,0,.14c-.06.08,0,.21.13.17Z" style="fill:#0c0a35"/><path d="M10.32,36.55a.56.56,0,0,0,0-.4.15.15,0,0,0-.28,0,.62.62,0,0,0,0,.4.12.12,0,0,0,.2,0Z" style="fill:#0c0a35"/><path d="M10.45,35.44c.09-.12.2-.33.08-.47a.1.1,0,0,0-.15,0c-.07.08,0,.2-.12.29s.08.3.19.18Z" style="fill:#0c0a35"/><path d="M10.76,34.38l.06-.2c0-.16-.19-.27-.27-.12a.89.89,0,0,0-.07.28c0,.16.23.19.28,0Z" style="fill:#0c0a35"/><path d="M35.44,50.65c0-.1,0-.25,0-.35s0-.21,0-.32a1.42,1.42,0,0,0-.43-.92,9.73,9.73,0,0,1,1.08,0,1.37,1.37,0,0,0-.43.92c0,.11,0,.21,0,.32s0,.25,0,.35Z" style="fill:#0c0a35"/><path d="M35.53,50.26a1.17,1.17,0,0,0-1-.54.88.88,0,0,0-.84.68,1.08,1.08,0,0,0,.33.93,4.3,4.3,0,0,0,.84.61,4.62,4.62,0,0,1,.7.67,8.73,8.73,0,0,1,.7-.66,6.51,6.51,0,0,0,.84-.62,1.11,1.11,0,0,0,.33-.93.89.89,0,0,0-.84-.68,1.16,1.16,0,0,0-1,.54Z" style="fill:#0c0a35"/><path d="M5.36,11.36c0,.1,0,.25,0,.35s0,.21,0,.31a1.4,1.4,0,0,0,.43.93,9.73,9.73,0,0,1-1.08,0A1.45,1.45,0,0,0,5.11,12c0-.1,0-.2,0-.31s0-.25,0-.35Z" style="fill:#0c0a35"/><path d="M5.27,11.75a1.16,1.16,0,0,0,1,.54.91.91,0,0,0,.84-.68,1.11,1.11,0,0,0-.33-.93,4.3,4.3,0,0,0-.84-.61,4.62,4.62,0,0,1-.7-.67,8.73,8.73,0,0,1-.7.66,7.39,7.39,0,0,0-.85.62,1.1,1.1,0,0,0-.32.93.89.89,0,0,0,.84.68,1.17,1.17,0,0,0,1-.54Z" style="fill:#0c0a35"/><path d="M7.87,8.74H7.08L5.36,5.57,4,7.21V8.74H3.32V3H4V6.33L6.64,3h.78L5.86,5Z" style="fill:#0c0a35"/><path d="M33.06,53.54h.79l1.72,3.18,1.32-1.65V53.54h.72v5.75h-.72V56l-2.6,3.33h-.78l1.56-2Z" style="fill:#0c0a35"/><path d="M14.92,59.11H6.19a3.1,3.1,0,0,1-3-3.19V15.66a.09.09,0,0,1,.1-.09.09.09,0,0,1,.09.09V55.92a2.92,2.92,0,0,0,2.81,3h8.73a.09.09,0,1,1,0,.18Z" style="fill:#191956"/><path d="M32.78,59.11h-6.2a.09.09,0,0,1,0-.18h6.2a.09.09,0,1,1,0,.18Z" style="fill:#191956"/><path d="M37.65,46.92a.09.09,0,0,1-.1-.1V6.36a2.92,2.92,0,0,0-2.81-3H26.12a.1.1,0,0,1-.1-.09.1.1,0,0,1,.1-.1h8.62a3.11,3.11,0,0,1,3,3.19V46.82A.09.09,0,0,1,37.65,46.92Z" style="fill:#191956"/><path d="M14.45,3.36h-6a.09.09,0,0,1-.1-.09.09.09,0,0,1,.1-.1h6a.1.1,0,0,1,.1.1A.1.1,0,0,1,14.45,3.36Z" style="fill:#191956"/></g></g></g></svg>