<svg xmlns="http://www.w3.org/2000/svg" xmlns:xlink="http://www.w3.org/1999/xlink" viewBox="0 0 40.93 62.29"><defs><clipPath id="clip-path"><path d="M25.8,55a13.85,13.85,0,0,0,.29-2.12,6.11,6.11,0,0,0,0-1.21c0-.36-.13-.71-.18-1.07a11,11,0,0,1,0-2.22,73.79,73.79,0,0,0,0-7.87A10.54,10.54,0,0,1,26,38.69a9,9,0,0,1,.36-2c.22-.61.59-1.47,1.17-1.52l0-.06c0-.1-.29-.18-.48-.16a3.11,3.11,0,0,0-3.17,2.57,21.42,21.42,0,0,0-.78,4.18A26.41,26.41,0,0,0,23,46.32a33.61,33.61,0,0,0,.69,4l.36,1.62A16.92,16.92,0,0,0,24.62,54c.19.5.57,1.08,1.11,1a1.46,1.46,0,0,1,.05-.2Z" style="fill:none"/></clipPath><clipPath id="clip-path-2"><path d="M16.36,43.06c-.08.76-.23,1.51-.31,2.27a27.74,27.74,0,0,0-.13,3.16c0,.82,0,1.64,0,2.47a9.69,9.69,0,0,0,.1,1.42A4.78,4.78,0,0,0,19.12,56c.47.16,1.1.19,1.36-.24s0-.87-.11-1.31a5,5,0,0,1-.14-1.34c-.06-5.56.13-11.14-.67-16.64a4.31,4.31,0,0,0-.7-2.11,3.09,3.09,0,0,0-1.44-1A4.48,4.48,0,0,0,15,33.23a5.16,5.16,0,0,1,.94,2.7A28,28,0,0,1,16.36,43.06Z" style="fill:none"/></clipPath><clipPath id="clip-path-3"><path d="M15.43,7.28a15.21,15.21,0,0,0-.29,2.12,6.11,6.11,0,0,0,0,1.21c0,.36.13.71.18,1.07a11,11,0,0,1,0,2.22c-.14,2.62-.15,5.25,0,7.87a11.58,11.58,0,0,1-.08,1.86,9.66,9.66,0,0,1-.37,2c-.21.61-.58,1.47-1.16,1.52l-.06.06c0,.1.29.18.48.16A3.1,3.1,0,0,0,17.3,24.8a21.42,21.42,0,0,0,.78-4.18A25.49,25.49,0,0,0,18.21,16a30,30,0,0,0-.69-4l-.36-1.62a16.92,16.92,0,0,0-.55-2.09c-.19-.51-.57-1.08-1.1-1l-.06.2Z" style="fill:none"/></clipPath><clipPath id="clip-path-4"><path d="M24.87,19.26c.09-.76.23-1.51.31-2.27a27.83,27.83,0,0,0,.13-3.16q0-1.23,0-2.46a8.52,8.52,0,0,0-.1-1.43,4.76,4.76,0,0,0-3.07-3.58c-.47-.16-1.1-.19-1.36.23s0,.88.12,1.32A5,5,0,0,1,21,9.25c.06,5.55-.13,11.14.67,16.64A4.32,4.32,0,0,0,22.38,28a3,3,0,0,0,1.44,1,4.53,4.53,0,0,0,2.45.13,5.16,5.16,0,0,1-.94-2.7A28,28,0,0,1,24.87,19.26Z" style="fill:none"/></clipPath></defs><title>sq</title><g id="Layer_2" data-name="Layer 2"><g id="Layer_1-2" data-name="Layer 1"><g id="sq"><rect x="0.09" y="0.09" width="40.75" height="62.1" rx="3.45" style="fill:#fff"/><path d="M37.39,62.29H3.54A3.55,3.55,0,0,1,0,58.74V3.54A3.55,3.55,0,0,1,3.54,0H37.39a3.55,3.55,0,0,1,3.54,3.54v55.2A3.55,3.55,0,0,1,37.39,62.29ZM3.54.19A3.35,3.35,0,0,0,.19,3.54v55.2A3.36,3.36,0,0,0,3.54,62.1H37.39a3.37,3.37,0,0,0,3.36-3.36V3.54A3.36,3.36,0,0,0,37.39.19Z" style="fill:#2d2d2d"/><path d="M17.09,34.68l1.7-.91a32.51,32.51,0,0,0,6.92-4.48,27.09,27.09,0,0,0,3.37-4.1l2.09-2.92c.17,0,.09.24.27.22.41,1.08,2,1.41,2.71,2.39a4.64,4.64,0,0,1,.62,1.43c.51,1.75,1,6.56.35,13.77-.37,4.35-2.8,5.1-3.83,4.53-.81-.46-3.21-5.89-4.21-5.82a18.22,18.22,0,0,1-7.94-1.36,5,5,0,0,1-1.7-1A1.57,1.57,0,0,1,17.09,34.68Z" style="fill:#222272"/><path d="M7.15,25.51a5.81,5.81,0,0,0-1,2.48,23.75,23.75,0,0,0,0,7.24c.77,7.5,1.59,9.16,2.7,9.3,3,.39,4.56-5.73,7.58-5.69,2.83,0,5.75.33,8.43-.39.13-.39-.27-.76-.64-1a24.61,24.61,0,0,0-2.94-2c-2.68-1.53-5.88-2.18-8.71-4.42C9.52,28.58,8.27,25.88,7.15,25.51Z" style="fill:#222272"/><path d="M24.14,27.64l-1.7.91A32.51,32.51,0,0,0,15.52,33a27.09,27.09,0,0,0-3.37,4.1l-2.09,2.92c-.17,0-.09-.24-.27-.23-.41-1.07-2-1.4-2.71-2.38A4.83,4.83,0,0,1,6.46,36c-.51-1.74-.92-6.89-.29-14.1.38-4.35,3.38-4.35,3.77-4.19,1.83.77,3.21,5.89,4.21,5.82a18.24,18.24,0,0,1,8,1.36,5.07,5.07,0,0,1,1.7,1A1.59,1.59,0,0,1,24.14,27.64Z" style="fill:#222272"/><path d="M34.08,36.81a5.57,5.57,0,0,0,1-2.48,23.75,23.75,0,0,0,0-7.24c-.76-7.5-.74-9.41-2.74-9.51-3.43-.17-4.52,5.94-7.54,5.9-2.83,0-5.75-.33-8.43.39-.13.39.27.75.64,1a26.34,26.34,0,0,0,2.94,2c2.68,1.53,5.89,2.18,8.71,4.42C31.72,33.74,33,36.44,34.08,36.81Z" style="fill:#222272"/><path d="M20.93,17.2A2.68,2.68,0,0,1,22,17.15a2,2,0,0,1,.94.58,4.71,4.71,0,0,1,.74.94,1.6,1.6,0,0,0,.36.47,1.89,1.89,0,0,0,.83.31A24.07,24.07,0,0,1,29.55,21a5.09,5.09,0,0,1,2,1.33.51.51,0,0,1,.13.29c0,.26-.33.43-.63.56-3.58,1.51-5.51,4.75-8.73,6.72a3.78,3.78,0,0,1-3.12.63,4,4,0,0,1-1-.64l-4.53-3.7A11.39,11.39,0,0,0,12,25a14.17,14.17,0,0,1-2.49-1.26c-.22-.17-.51-.4-.78-.28-.08-.17.06-.36.21-.5a10.34,10.34,0,0,1,6.93-2.62,1.68,1.68,0,0,0,.85-.15c.52-.32.25-1,.51-1.47a1.86,1.86,0,0,1,.83-.63A12.2,12.2,0,0,1,20.93,17.2Z" style="fill:#fcc07e"/><path d="M7.64,32.82a.4.4,0,0,1,.15.17c0,.12,0,.24-.11.35a1,1,0,0,0,.37,1.29,1.72,1.72,0,0,0,1.42.2,5.16,5.16,0,0,0,1.32-.63c1.71-1,3.38-2.14,5-3.28.09-.06.19-.14.18-.26s-.08-.15-.15-.21a22.87,22.87,0,0,0-7-4.43c-.46-.15-1-.24-1.35.12a1.07,1.07,0,0,0-.21.65,3,3,0,0,0,.26,1.35,3.06,3.06,0,0,0,.06,4.68Z" style="fill:#f70032"/><path d="M33.82,32.82a.4.4,0,0,0-.15.17c0,.12,0,.24.11.35a1.06,1.06,0,0,1-.37,1.29,1.72,1.72,0,0,1-1.42.2,5.16,5.16,0,0,1-1.32-.63c-1.71-1-3.38-2.14-5-3.28-.09-.06-.19-.14-.18-.26s.08-.15.15-.21a22.75,22.75,0,0,1,7-4.43c.46-.15,1-.24,1.35.12a1.07,1.07,0,0,1,.2.65,2.85,2.85,0,0,1-.25,1.35,3.06,3.06,0,0,1-.06,4.68Z" style="fill:#f70032"/><path d="M19.94,30.32a.28.28,0,0,1-.15.06.35.35,0,0,1-.18-.06,5.49,5.49,0,0,1-2.27-2.52,39.57,39.57,0,0,1,4.86-.14c-.48.61-1,1.23-1.43,1.85A3.37,3.37,0,0,1,19.94,30.32Z" style="fill:#990028"/><path d="M7,25.13a1.52,1.52,0,0,1,.29-1.34,3.15,3.15,0,0,1,2.18-1.36,5.56,5.56,0,0,1,1.29-.07,9.92,9.92,0,0,1,4.62,1.21,11.33,11.33,0,0,1,3.59,3.24,3.76,3.76,0,0,0,.57.53.3.3,0,0,0,.36,0,10,10,0,0,1,1.63-1.77,20.11,20.11,0,0,1,6.57-3.28,6.55,6.55,0,0,1,4.09-.22c1.21.38,2.09,1.53,1.94,2.36a8.25,8.25,0,0,1-.79,1.53,12.42,12.42,0,0,1-3,2.74,21.54,21.54,0,0,1-3,1.72,15.58,15.58,0,0,1-7.42,1.48,14.46,14.46,0,0,1-6.24-1.79c-.54-.29-2.13-1.24-2.62-1.56C10.06,27.87,7.38,26.23,7,25.13Z" style="fill:#141247"/><path d="M7.94,28.86c-.36,1-.48,2.74.3,3.6a.35.35,0,0,0,.41.06c.39-.19,0-.77-.11-1A5.15,5.15,0,0,1,8.34,29a.21.21,0,0,0-.4-.11Z" style="fill:#990028"/><path d="M9.17,30.09a2,2,0,0,0,.34,2.07.29.29,0,0,0,.45-.34,3,3,0,0,1-.51-1.66.15.15,0,0,0-.28-.07Z" style="fill:#990028"/><path d="M10.56,31.13c0,.35.07.88.43,1.07a.24.24,0,0,0,.35-.28,1.25,1.25,0,0,0-.29-.44,2.43,2.43,0,0,1-.26-.44c-.06-.15-.25,0-.23.09Z" style="fill:#990028"/><path d="M33.11,29a5.37,5.37,0,0,1-.21,2.51c-.06.24-.49.81-.1,1a.33.33,0,0,0,.4,0c.78-.85.66-2.57.3-3.56a.2.2,0,1,0-.39.11Z" style="fill:#990028"/><path d="M31.85,30.58a3,3,0,0,1-.51,1.64.29.29,0,0,0,.45.34,2,2,0,0,0,.33-2.05.15.15,0,0,0-.27.07Z" style="fill:#990028"/><path d="M30.56,31.41a2.43,2.43,0,0,1-.26.44,1.6,1.6,0,0,0-.29.44.24.24,0,0,0,.35.27c.36-.18.38-.72.43-1.06,0-.12-.17-.24-.23-.09Z" style="fill:#990028"/><path d="M20.59,34.59a2.36,2.36,0,1,0-2.35-2.36,2.38,2.38,0,0,0,2.35,2.36Z" style="fill:#990028"/><path d="M20.61,32.7a.58.58,0,0,0,0-1.15.58.58,0,0,0,0,1.15Z" style="fill:#0c0a35"/><path d="M19.19,31.3h0a.24.24,0,1,0-.44-.12h0a.24.24,0,0,0,.44.12Z" style="fill:#f70032"/><path d="M19.69,31.89a.27.27,0,0,0,0-.54.27.27,0,0,0,0,.54Z" style="fill:#f70032"/><path d="M21.44,31.87a.25.25,0,0,0,0-.5.25.25,0,0,0,0,.5Z" style="fill:#f70032"/><path d="M22,31.41a.28.28,0,0,0,0-.56.28.28,0,0,0,0,.56Z" style="fill:#f70032"/><path d="M19.9,33.19a.29.29,0,1,0-.29-.29.29.29,0,0,0,.29.29Z" style="fill:#f70032"/><path d="M19.27,33.79a.25.25,0,0,0,0-.5.25.25,0,0,0,0,.5Z" style="fill:#f70032"/><path d="M21.52,33.19h0a.25.25,0,0,0,0-.43h0a.27.27,0,0,0-.39.23.26.26,0,0,0,.39.22Z" style="fill:#f70032"/><path d="M22.1,33.38h0c-.12-.09-.29,0-.29.17a.2.2,0,0,0,.29.17l0,0a.19.19,0,0,0,0-.31Z" style="fill:#f70032"/><path d="M16.8,31.14c.44,0,.44-.54,0-.54s-.44.54,0,.54Z" style="fill:#990028"/><path d="M17.54,31.88c.47,0,.47-.58,0-.58s-.47.58,0,.58Z" style="fill:#990028"/><path d="M23.4,32.22c.37,0,.37-.46,0-.46s-.37.46,0,.46Z" style="fill:#990028"/><path d="M24.31,31.68c.3,0,.3-.36,0-.36s-.29.36,0,.36Z" style="fill:#990028"/><path d="M25.08,31.22c.4,0,.4-.49,0-.49s-.4.49,0,.49Z" style="fill:#990028"/><path d="M20.3,45.12a2.68,2.68,0,0,1-1.09.05,2.08,2.08,0,0,1-.94-.58,4.71,4.71,0,0,1-.74-.94,1.6,1.6,0,0,0-.35-.47,1.93,1.93,0,0,0-.84-.31,24.3,24.3,0,0,1-4.66-1.56,5,5,0,0,1-2-1.34.45.45,0,0,1-.13-.28c0-.27.33-.44.63-.56,3.58-1.51,5.51-4.75,8.73-6.72a3.79,3.79,0,0,1,3.12-.63,3.77,3.77,0,0,1,1,.64l4.54,3.7a10.13,10.13,0,0,0,1.63,1.15,14.82,14.82,0,0,1,2.48,1.27c.22.17.52.4.78.28.08.17-.06.36-.2.5a10.36,10.36,0,0,1-6.94,2.62,1.82,1.82,0,0,0-.85.15c-.51.32-.24,1-.51,1.47a1.86,1.86,0,0,1-.83.63A12.36,12.36,0,0,1,20.3,45.12Z" style="fill:#fcc07e"/><path d="M21.29,32a.44.44,0,0,1,.15,0,.35.35,0,0,1,.18.06,5.49,5.49,0,0,1,2.27,2.52,39.4,39.4,0,0,1-4.85.14l1.42-1.85A3.41,3.41,0,0,1,21.29,32Z" style="fill:#990028"/><path d="M32.24,31.55a2,2,0,0,0-.34-2.06.28.28,0,0,0-.44.34,2.93,2.93,0,0,1,.5,1.64c0,.14.22.21.28.08Z" style="fill:#990028"/><path d="M30.86,30.51c0-.34-.07-.87-.42-1.05a.24.24,0,0,0-.35.27,1.23,1.23,0,0,0,.28.43,2,2,0,0,1,.26.45c.07.14.25,0,.23-.1Z" style="fill:#990028"/><path d="M34.27,37.15a1.83,1.83,0,0,1-.3,1.48,3.18,3.18,0,0,1-2.18,1.49,6.17,6.17,0,0,1-1.29.08,9.43,9.43,0,0,1-4.62-1.34,11.9,11.9,0,0,1-3.59-3.54,3.43,3.43,0,0,0-.57-.59.28.28,0,0,0-.36,0,10.5,10.5,0,0,1-1.63,1.94,19.56,19.56,0,0,1-6.57,3.59,6,6,0,0,1-4.09.24A2.77,2.77,0,0,1,7.13,38a9.83,9.83,0,0,1,.79-1.68,13,13,0,0,1,3-3,21.89,21.89,0,0,1,3-1.89,14.42,14.42,0,0,1,7.42-1.62,13.52,13.52,0,0,1,6.24,2c.54.32,2.13,1.36,2.62,1.72C31.17,34.15,33.85,36,34.27,37.15Z" style="fill:#141247"/><path d="M34.46,23.82a.61.61,0,0,1-.06.71,3.37,3.37,0,0,1-.29.35C30.86,27.53,28,28.46,24,31.13c-1.09.71-2.55,1.57-3.66,2.22s-2.37,1.55-3.56,2.32L11.4,39.28a16.06,16.06,0,0,0-2.05,1.53c-.19.19-.42.42-.7.37a.7.7,0,0,1-.4-.26A4.54,4.54,0,0,1,7.12,38a.51.51,0,0,1,.13-.51c4.23-3.79,8.49-6.37,13.35-9.36l2.75-1.65c2.59-1.55,4.89-2.75,7.48-4.3a1.46,1.46,0,0,1,.86-.29,2.19,2.19,0,0,1,1.11.31A4.61,4.61,0,0,1,34.46,23.82Z" style="fill:#f70032"/><path d="M20.74,28.18a2.36,2.36,0,1,0,2.35,2.36,2.38,2.38,0,0,0-2.35-2.36Z" style="fill:#990028"/><path d="M20.72,30.07a.58.58,0,0,0,0,1.15.58.58,0,0,0,0-1.15Z" style="fill:#0c0a35"/><path d="M22.15,31.47h0a.24.24,0,0,0,.14.35.24.24,0,0,0,.3-.23v0a.23.23,0,0,0-.43-.11Z" style="fill:#f70032"/><path d="M21.64,30.88a.27.27,0,0,0,0,.54.27.27,0,0,0,0-.54Z" style="fill:#f70032"/><path d="M19.9,30.9a.25.25,0,0,0,0,.5.25.25,0,0,0,0-.5Z" style="fill:#f70032"/><path d="M19.3,31.36a.28.28,0,0,0,0,.56.28.28,0,0,0,0-.56Z" style="fill:#f70032"/><path d="M21.43,29.58a.29.29,0,0,0,0,.58.29.29,0,1,0,0-.58Z" style="fill:#f70032"/><path d="M22.06,29a.25.25,0,0,0,0,.5.25.25,0,0,0,0-.5Z" style="fill:#f70032"/><path d="M19.82,29.58h0a.24.24,0,0,0,0,.42l0,0a.26.26,0,0,0,.38-.23.26.26,0,0,0-.38-.22Z" style="fill:#f70032"/><path d="M19.23,29.38l0,0c.12.09.29,0,.29-.17a.2.2,0,0,0-.29-.17l0,0a.18.18,0,0,0,0,.3Z" style="fill:#f70032"/><path d="M9.56,31.06a3,3,0,0,1,.51-1.65.29.29,0,0,0-.45-.35,2,2,0,0,0-.33,2.07.14.14,0,0,0,.27-.07Z" style="fill:#990028"/><path d="M10.87,30.23a2.51,2.51,0,0,1,.26-.45,1.76,1.76,0,0,0,.29-.44.24.24,0,0,0-.36-.27c-.35.18-.38.72-.42,1.06,0,.13.17.24.23.1Z" style="fill:#990028"/><path d="M19.77,43.11a3.57,3.57,0,0,0,0-.73,17.93,17.93,0,0,1,3.94-.13c-.05.17-.1.33-.16.49l-.05.07a.19.19,0,0,1-.14,0Z" style="fill:#222272"/><path d="M22,39.42a3.49,3.49,0,0,1-.79,0,3.61,3.61,0,0,0,.19,1,.67.67,0,0,0-.3-.19.41.41,0,0,0-.42.11.36.36,0,0,0-.06.3,5.9,5.9,0,0,0,1.06,1.51l.74-1.12c.07-.11.15-.22.21-.33s0-.49-.3-.55a.48.48,0,0,0-.3.09c-.09.05-.14.13-.2.15s.07-.19.09-.33S22.06,39.52,22,39.42Z" style="fill:#0c0a35"/><path d="M25.8,55a13.85,13.85,0,0,0,.29-2.12,6.11,6.11,0,0,0,0-1.21c0-.36-.13-.71-.18-1.07a11,11,0,0,1,0-2.22,73.79,73.79,0,0,0,0-7.87A10.54,10.54,0,0,1,26,38.69a9,9,0,0,1,.36-2c.22-.61.59-1.47,1.17-1.52l0-.06c0-.1-.29-.18-.48-.16a3.11,3.11,0,0,0-3.17,2.57,21.42,21.42,0,0,0-.78,4.18A26.41,26.41,0,0,0,23,46.32a33.61,33.61,0,0,0,.69,4l.36,1.62A16.92,16.92,0,0,0,24.62,54c.19.5.57,1.08,1.11,1a1.46,1.46,0,0,1,.05-.2Z" style="fill:#0c0a35"/><path d="M16.36,43.06c-.08.76-.23,1.51-.31,2.27a27.74,27.74,0,0,0-.13,3.16c0,.82,0,1.64,0,2.47a9.69,9.69,0,0,0,.1,1.42A4.78,4.78,0,0,0,19.12,56c.47.16,1.1.19,1.36-.24s0-.87-.11-1.31a5,5,0,0,1-.14-1.34c-.06-5.56.13-11.14-.67-16.64a4.31,4.31,0,0,0-.7-2.11,3.09,3.09,0,0,0-1.44-1A4.48,4.48,0,0,0,15,33.23a5.16,5.16,0,0,1,.94,2.7A28,28,0,0,1,16.36,43.06Z" style="fill:#0c0a35"/><g style="clip-path:url(#clip-path)"><path d="M28.13,34.83a3.46,3.46,0,0,0-2.91,2.42,8.69,8.69,0,0,0-.47,3c-.05,1.39,0,2.82.05,4.21a.09.09,0,0,0,.17,0c.2-3.1-1-8.65,3.18-9.49.08,0,.06-.15,0-.14Z" style="fill:#f70032"/><path d="M26.74,34.72c-1.35-.18-2.3,1.74-2.66,2.77A5.45,5.45,0,0,0,23.94,39c0,.5-.15,1-.19,1.49a34.66,34.66,0,0,0-.16,3.67s.09.07.1,0c.25-1.61.21-3.26.4-4.88a6.85,6.85,0,0,1,.69-2.74,3.07,3.07,0,0,1,2-1.71s0-.06,0-.07Z" style="fill:#f70032"/></g><g style="clip-path:url(#clip-path-2)"><path d="M18.94,48.55a14,14,0,0,0,.55-3.89,30.77,30.77,0,0,0,0-5.43c-.14-2.18-.61-6-3.08-6.8,0,0-.05,0,0,0,2.42,1.68,2.77,4.83,2.92,7.54a33.81,33.81,0,0,1,0,4.27c-.05.74-.15,1.47-.23,2.2a13.94,13.94,0,0,1-.16,2s0,0,0,0Z" style="fill:#f70032"/><path d="M18.1,48.05a15.22,15.22,0,0,0,.63-4.89,30.66,30.66,0,0,0-.36-5c-.33-2.2-1.14-5-3.7-5.31a.06.06,0,0,0,0,.12,4.7,4.7,0,0,1,2.62,2.56,14.8,14.8,0,0,1,.86,3.59A41.3,41.3,0,0,1,18,48c0,.09.12.09.15,0Z" style="fill:#f70032"/><path d="M17,47.5c.62-.14.59-1.19.65-1.69a25.49,25.49,0,0,0-.09-5.59c-.35-2.95-1.17-5.79-3.78-7.5-.09-.06-.18.06-.14.14a2.68,2.68,0,0,0,.82.92,6.57,6.57,0,0,1,1.37,1.56,11.59,11.59,0,0,1,1.32,4.2,22.31,22.31,0,0,1,.3,4.4c0,.67-.07,1.33-.13,2,0,.49,0,1.11-.37,1.48a0,0,0,0,0,0,.08Z" style="fill:#f70032"/><path d="M16.58,46.29a11.51,11.51,0,0,0-.75-7.69c0-.05-.1,0-.08,0,.94,2.38.81,5.14.72,7.65a.06.06,0,0,0,.11,0Z" style="fill:#f70032"/></g><path d="M19.65,55.08a3.86,3.86,0,0,0,1.35,1,4.15,4.15,0,0,0,.78.16,6.6,6.6,0,0,0,3.45-.16,1.07,1.07,0,0,0,.32-.2.87.87,0,0,0,.22-.37,4.85,4.85,0,0,0-.28-3.48,1.06,1.06,0,0,1-.12-.42,1.27,1.27,0,0,1,.27-.71,10.6,10.6,0,0,0,1.8-4.22.17.17,0,0,0-.11-.19,1.06,1.06,0,0,0-.73.12l-1.24.54a13.73,13.73,0,0,0-.68-3.86,1.13,1.13,0,0,0-.29-.54,1.1,1.1,0,0,0-1.16,0,9.07,9.07,0,0,0-1.67,1.16,5.81,5.81,0,0,0-1,.93,5.19,5.19,0,0,0-.7,1.34,15.72,15.72,0,0,0-1,7.34,2.28,2.28,0,0,0,.13.64A2.72,2.72,0,0,0,19.65,55.08Z" style="fill:#ffd6a1"/><path d="M23.73,46a5.19,5.19,0,0,1,1.54.15.29.29,0,0,0,.36-.14c.07-.09,0-.21-.14-.24a.58.58,0,0,1-.23-.09c.09-.12.2-.17.2-.32a.23.23,0,0,0-.25-.18.65.65,0,0,0-.31.13A6.54,6.54,0,0,1,23.73,46Z" style="fill:#f70032"/><path d="M24,46.94a.3.3,0,0,0-.46,0,.23.23,0,0,0,.16.36A.31.31,0,0,0,24,46.94Z" style="fill:#0c0a35"/><path d="M20.41,51.85a6.36,6.36,0,0,1,.95-.53,3,3,0,0,1,2.77.31,1.57,1.57,0,0,1-1,.76A2.82,2.82,0,0,1,20.41,51.85Z" style="fill:#fff"/><path d="M22.12,51.47a.41.41,0,0,0-.31.44.4.4,0,0,0,.42.33c.14,0,.56-.1.45-.52,0-.15-.21-.21-.36-.24A.46.46,0,0,0,22.12,51.47Z" style="fill:#0c0a35"/><path d="M20.42,53.71a2.43,2.43,0,0,0,1.5.41,4.63,4.63,0,0,0,1.49-.2,3.71,3.71,0,0,0,1.09-.52c.32-.29.27-.41.08-.74a.17.17,0,0,0-.18-.08,1.9,1.9,0,0,0-.49.3,4.32,4.32,0,0,1-3.34.54A.17.17,0,0,0,20.42,53.71Z" style="fill:#0c0a35"/><path d="M20.71,58c.12.1.26.25.18.38s0,.18-.11.2a5.36,5.36,0,0,1-3-.15,3.93,3.93,0,0,1-2.23-1.85,6.32,6.32,0,0,1-.6-2.62c-.2-3.19,1.22-6.27-.64-9.94a4.33,4.33,0,0,1,2.6,1.42,13.38,13.38,0,0,1,1.83,1.81c.08.09.62.5.6.62A8.53,8.53,0,0,0,19,49.45c-.1.86,0,1,0,1.84a28.07,28.07,0,0,0,.24,3.54,6.41,6.41,0,0,0,.13,1A4.12,4.12,0,0,0,20.71,58Z" style="fill:#222272"/><path d="M14.48,43.48a.48.48,0,0,0-.49.06.42.42,0,0,0-.13.46.41.41,0,0,0,.51.24.45.45,0,0,0,.25-.24.4.4,0,0,0,0-.41A.49.49,0,0,0,14.48,43.48Z" style="fill:#f70032"/><path d="M18.93,50a41.46,41.46,0,0,0-.35,4.72,7.5,7.5,0,0,0,.11,1.64,7.65,7.65,0,0,0,.49,1.39l1.05,2.51c.63-.92,1.24-1.84,1.84-2.78a8.61,8.61,0,0,0,1.28,2.93c.32-.81.74-2,1.06-2.83a7.12,7.12,0,0,0,1.54,2,12.71,12.71,0,0,0,.47-3.93c0-.17-.3-1.26-.47-1.21a3,3,0,0,1-.21.8.73.73,0,0,1-.31.36.57.57,0,0,1-.63-.2,1.49,1.49,0,0,1-.26-.65A2.2,2.2,0,0,1,23,55.93a2.39,2.39,0,0,1-1.9-.51,5.07,5.07,0,0,1-1.37-2.62C19.41,51.85,19.21,51,18.93,50Z" style="fill:#141247"/><path d="M26,60.88a.11.11,0,0,0,.06-.07,3.89,3.89,0,0,0,.44-1.28l-1.14.11A6.34,6.34,0,0,0,26,60.88Z" style="fill:#f70032"/><path d="M23.27,61.69a.19.19,0,0,0,.06-.07,3.86,3.86,0,0,0,.52-1.26l-1.14,0A6.9,6.9,0,0,0,23.27,61.69Z" style="fill:#f70032"/><path d="M20,61.5s0,0,.06-.07a3.86,3.86,0,0,0,.62-1.21l-1.14,0A6.37,6.37,0,0,0,20,61.5Z" style="fill:#f70032"/><path d="M25.47,46.88a2.79,2.79,0,0,0-.33.19c-.12.08-.24.16-.35.25a1,1,0,0,0-.43.68.53.53,0,0,0,.26.49.28.28,0,0,0,.43-.2A.08.08,0,0,0,25,48.2c-.11,0-.24.06-.32,0s.06-.42.18-.55a2.58,2.58,0,0,1,.41-.33.89.89,0,0,0,.27-.34s0-.08-.06-.06Z" style="fill:#0c0a35"/><path d="M21.39,47.78c-1.57-.36-2.57,1.19-2.5,2.61,0,0,.08.06.09,0a3.78,3.78,0,0,1,.9-2.06,1.87,1.87,0,0,1,1.5-.45.06.06,0,0,0,0-.11Z" style="fill:#0c0a35"/><path d="M25.21,56.41a3.87,3.87,0,0,1,.08.77,3.53,3.53,0,0,0,0,.65c.07.31.61.24.57-.08a5.73,5.73,0,0,0-.42-1.41.12.12,0,0,0-.23.07Z" style="fill:#990028"/><path d="M23.4,56.61a5.28,5.28,0,0,0-.35,1.62c0,.19.29.36.44.18a1.08,1.08,0,0,0,.14-.69c0-.35.1-.71.14-1.06s-.31-.24-.37,0Z" style="fill:#990028"/><path d="M20.87,56.2a2.09,2.09,0,0,0-.55.88,1.56,1.56,0,0,0-.3,1c.08.36.55.29.66,0a5.53,5.53,0,0,0,.44-1.79c0-.14-.16-.18-.25-.1Z" style="fill:#990028"/><path d="M18.12,57.69a.52.52,0,0,0,0-.21.09.09,0,1,0-.17.07.23.23,0,0,1,0,.14.1.1,0,0,0,.19,0Z" style="fill:#f70032"/><path d="M16.76,56.21a.76.76,0,0,0,0-.3.14.14,0,1,0-.25.11.29.29,0,0,1,0,.16c0,.14.22.17.24,0Z" style="fill:#f70032"/><path d="M17.9,54.32a.71.71,0,0,0,0-.29c0-.2-.34-.12-.31.08a.55.55,0,0,0,.12.27c.05.07.16,0,.19-.06Z" style="fill:#f70032"/><path d="M15.55,54.22a.65.65,0,0,0,0-.31c0-.15-.26-.09-.24.07a.57.57,0,0,0,.11.28.08.08,0,0,0,.14,0Z" style="fill:#f70032"/><path d="M16.44,52.31a.47.47,0,0,0,0-.4.09.09,0,0,0-.16.05.61.61,0,0,1,0,.3c0,.11.14.16.18.05Z" style="fill:#f70032"/><path d="M18,51.38a.9.9,0,0,0,0-.4c0-.11-.24-.15-.27,0a.56.56,0,0,0,.13.45c.05,0,.12,0,.13,0Z" style="fill:#f70032"/><path d="M16.81,49.24a.62.62,0,0,0,0-.38.14.14,0,0,0-.26,0,.46.46,0,0,0,.1.42.08.08,0,0,0,.13,0Z" style="fill:#f70032"/><path d="M18.75,47.78a.86.86,0,0,0,0-.32.14.14,0,0,0-.18-.1c-.09,0-.12.1-.11.19a.37.37,0,0,0,.16.26.08.08,0,0,0,.13,0Z" style="fill:#f70032"/><path d="M15.48,50.27a.42.42,0,0,0,0-.31.06.06,0,0,0-.09,0,.69.69,0,0,0-.09.31c0,.14.21.14.22,0Z" style="fill:#f70032"/><path d="M15.88,46.37c0-.14,0-.29,0-.42a.11.11,0,0,0-.21,0,.61.61,0,0,0,.08.49.08.08,0,0,0,.15-.07Z" style="fill:#f70032"/><path d="M22.63,42.67h0a.15.15,0,0,0,.18-.18.15.15,0,0,0-.25-.06h0a.14.14,0,0,0,.06.22Z" style="fill:#f70032"/><path d="M22.14,42.39a.18.18,0,0,0,0,.35.18.18,0,0,0,0-.35Z" style="fill:#f70032"/><path d="M21.62,42.42a.17.17,0,1,0,0,.34.17.17,0,0,0,0-.34Z" style="fill:#f70032"/><path d="M21,42.47a.2.2,0,0,0,0,.39.2.2,0,0,0,0-.39Z" style="fill:#f70032"/><path d="M20.47,42.51a.18.18,0,0,0,0,.35.18.18,0,0,0,0-.35Z" style="fill:#f70032"/><path d="M26,55.17a.12.12,0,0,0,0,.23.12.12,0,0,0,0-.23Z" style="fill:#f70032"/><path d="M25.73,55.64a.13.13,0,0,0,0,.25.13.13,0,1,0,0-.25Z" style="fill:#f70032"/><path d="M25.15,55.82a.15.15,0,0,0,0,.3.15.15,0,0,0,0-.3Z" style="fill:#f70032"/><path d="M24.62,55.68a.18.18,0,0,0,0,.36.18.18,0,0,0,0-.36Z" style="fill:#f70032"/><path d="M24.48,55.24a.16.16,0,0,0,0,.31.16.16,0,0,0,0-.31Z" style="fill:#f70032"/><path d="M24.07,55.61a.16.16,0,0,0,0,.31.16.16,0,0,0,0-.31Z" style="fill:#f70032"/><path d="M23.57,55.87a.19.19,0,0,0,0,.37.19.19,0,0,0,0-.37Z" style="fill:#f70032"/><path d="M23,56a.16.16,0,0,0,0,.33A.16.16,0,0,0,23,56Z" style="fill:#f70032"/><path d="M22.42,56.12a.18.18,0,0,0,0,.35.18.18,0,0,0,0-.35Z" style="fill:#f70032"/><path d="M21.84,56a.17.17,0,0,0,0,.34.17.17,0,0,0,0-.34Z" style="fill:#f70032"/><path d="M21.27,55.76a.21.21,0,0,0,0,.41.21.21,0,0,0,0-.41Z" style="fill:#f70032"/><path d="M20.75,55.5a.18.18,0,0,0,0,.36.18.18,0,1,0,0-.36Z" style="fill:#f70032"/><path d="M20.32,55.06a.17.17,0,0,0,0,.33.17.17,0,0,0,0-.33Z" style="fill:#f70032"/><path d="M20.05,54.63a.14.14,0,0,0,0,.28.14.14,0,0,0,0-.28Z" style="fill:#f70032"/><path d="M19.82,54.07a.15.15,0,0,0,0,.3.15.15,0,0,0,0-.3Z" style="fill:#f70032"/><path d="M19.64,53.57a.16.16,0,0,0,0,.32.16.16,0,0,0,0-.32Z" style="fill:#f70032"/><path d="M19.5,53a.14.14,0,0,0,0,.27.14.14,0,0,0,0-.27Z" style="fill:#f70032"/><path d="M19.34,52.5a.12.12,0,0,0,0,.23.12.12,0,0,0,0-.23Z" style="fill:#f70032"/><path d="M19.15,51.84a.18.18,0,0,0,0,.36.18.18,0,0,0,0-.36Z" style="fill:#f70032"/><path d="M19,51.35a.14.14,0,0,0,0,.28.14.14,0,0,0,0-.28Z" style="fill:#f70032"/><path d="M20.16,52a3.6,3.6,0,0,1,1.05.38,3.53,3.53,0,0,0,1.2.21,2,2,0,0,0,1.84-.91.11.11,0,1,0-.19-.12c-.7,1-1.94.84-2.93.46-.34-.12-.65-.29-1-.08,0,0,0,.06,0,.06Z" style="fill:#141247"/><path d="M21.46,19.21a4.42,4.42,0,0,0,0,.73,17.82,17.82,0,0,1-3.93.13,2.81,2.81,0,0,1,.16-.49.3.3,0,0,1,0-.08.23.23,0,0,1,.14,0Z" style="fill:#222272"/><path d="M19.24,22.9a3.55,3.55,0,0,1,.8,0,3.69,3.69,0,0,0-.2-1,.66.66,0,0,0,.3.2.4.4,0,0,0,.42-.11.36.36,0,0,0,.06-.3,5.51,5.51,0,0,0-1.06-1.51l-.74,1.12c-.07.11-.15.22-.21.33s0,.49.3.55a.46.46,0,0,0,.3-.09c.09-.05.14-.13.2-.15s-.07.19-.09.33S19.18,22.8,19.24,22.9Z" style="fill:#0c0a35"/><path d="M15.43,7.28a15.21,15.21,0,0,0-.29,2.12,6.11,6.11,0,0,0,0,1.21c0,.36.13.71.18,1.07a11,11,0,0,1,0,2.22c-.14,2.62-.15,5.25,0,7.87a11.58,11.58,0,0,1-.08,1.86,9.66,9.66,0,0,1-.37,2c-.21.61-.58,1.47-1.16,1.52l-.06.06c0,.1.29.18.48.16A3.1,3.1,0,0,0,17.3,24.8a21.42,21.42,0,0,0,.78-4.18A25.49,25.49,0,0,0,18.21,16a30,30,0,0,0-.69-4l-.36-1.62a16.92,16.92,0,0,0-.55-2.09c-.19-.51-.57-1.08-1.1-1l-.06.2Z" style="fill:#0c0a35"/><path d="M24.87,19.26c.09-.76.23-1.51.31-2.27a27.83,27.83,0,0,0,.13-3.16q0-1.23,0-2.46a8.52,8.52,0,0,0-.1-1.43,4.76,4.76,0,0,0-3.07-3.58c-.47-.16-1.1-.19-1.36.23s0,.88.12,1.32A5,5,0,0,1,21,9.25c.06,5.55-.13,11.14.67,16.64A4.32,4.32,0,0,0,22.38,28a3,3,0,0,0,1.44,1,4.53,4.53,0,0,0,2.45.13,5.16,5.16,0,0,1-.94-2.7A28,28,0,0,1,24.87,19.26Z" style="fill:#0c0a35"/><g style="clip-path:url(#clip-path-3)"><path d="M13.1,27.49A3.46,3.46,0,0,0,16,25.07a8.69,8.69,0,0,0,.47-3,37,37,0,0,0-.05-4.21.09.09,0,0,0-.17,0c-.2,3.1,1,8.65-3.18,9.49-.08,0-.06.15,0,.14Z" style="fill:#f70032"/><path d="M14.49,27.6c1.35.18,2.3-1.74,2.67-2.77a5.89,5.89,0,0,0,.13-1.45c0-.51.15-1,.19-1.5a32.19,32.19,0,0,0,.16-3.67c0-.05-.09-.07-.1,0-.25,1.61-.21,3.26-.4,4.88a6.85,6.85,0,0,1-.69,2.74,3.1,3.1,0,0,1-2,1.71s0,.06,0,.07Z" style="fill:#f70032"/></g><g style="clip-path:url(#clip-path-4)"><path d="M22.29,13.77a13.64,13.64,0,0,0-.54,3.89,29.85,29.85,0,0,0,0,5.43c.14,2.18.61,6,3.09,6.8,0,0,0,0,0-.05C22.46,28.16,22.11,25,22,22.3a32,32,0,0,1,0-4.27c0-.74.16-1.47.23-2.2a12.48,12.48,0,0,1,.17-2s0,0-.05,0Z" style="fill:#f70032"/><path d="M23.13,14.27a15.19,15.19,0,0,0-.63,4.89,30.66,30.66,0,0,0,.36,5c.34,2.2,1.15,5,3.7,5.32.07,0,.1-.1,0-.13A4.74,4.74,0,0,1,24,26.77a14.79,14.79,0,0,1-.85-3.59,40.66,40.66,0,0,1,.15-8.89c0-.09-.12-.09-.15,0Z" style="fill:#f70032"/><path d="M24.25,14.82c-.63.14-.6,1.19-.65,1.69a24.8,24.8,0,0,0,.08,5.58c.35,3,1.17,5.8,3.78,7.51.09.06.18-.06.14-.14a2.68,2.68,0,0,0-.82-.92A7,7,0,0,1,25.41,27a11.85,11.85,0,0,1-1.32-4.2,23.15,23.15,0,0,1-.3-4.4c0-.67.07-1.33.13-2,0-.49,0-1.11.37-1.49a0,0,0,0,0,0-.07Z" style="fill:#f70032"/><path d="M24.65,16a11.51,11.51,0,0,0,.75,7.69c0,.05.1,0,.08,0-.94-2.38-.81-5.14-.72-7.65a.06.06,0,0,0-.11,0Z" style="fill:#f70032"/></g><path d="M21.59,7.24a3.75,3.75,0,0,0-1.36-1,4.15,4.15,0,0,0-.78-.16A6.56,6.56,0,0,0,16,6.22a1,1,0,0,0-.33.2,1,1,0,0,0-.22.37,4.8,4.8,0,0,0,.29,3.48,1.45,1.45,0,0,1,.12.42,1.23,1.23,0,0,1-.28.7,10.85,10.85,0,0,0-1.8,4.23.18.18,0,0,0,.11.19,1.06,1.06,0,0,0,.73-.12l1.24-.54A14.1,14.1,0,0,0,16.55,19a1.07,1.07,0,0,0,.3.54,1.1,1.1,0,0,0,1.16,0,9.35,9.35,0,0,0,1.66-1.16,6.23,6.23,0,0,0,1-.93,5.55,5.55,0,0,0,.71-1.34,15.71,15.71,0,0,0,1-7.34,2.68,2.68,0,0,0-.12-.64A2.87,2.87,0,0,0,21.59,7.24Z" style="fill:#ffd6a1"/><path d="M17.51,16.3A5.62,5.62,0,0,1,16,16.15a.29.29,0,0,0-.36.14c-.06.09,0,.21.15.24a.54.54,0,0,1,.22.09c-.09.12-.2.17-.19.32a.22.22,0,0,0,.24.18.65.65,0,0,0,.31-.13A6.07,6.07,0,0,1,17.51,16.3Z" style="fill:#f70032"/><path d="M17.29,15.38a.29.29,0,0,0,.45,0,.23.23,0,0,0-.16-.36A.29.29,0,0,0,17.29,15.38Z" style="fill:#0c0a35"/><path d="M20.82,10.47a5.9,5.9,0,0,1-.95.53,3,3,0,0,1-2.77-.31,1.6,1.6,0,0,1,1-.76A2.82,2.82,0,0,1,20.82,10.47Z" style="fill:#fff"/><path d="M19.11,10.84a.39.39,0,0,0,.31-.43.4.4,0,0,0-.42-.33c-.13,0-.56.1-.45.52,0,.15.22.21.36.24A.45.45,0,0,0,19.11,10.84Z" style="fill:#0c0a35"/><path d="M20.81,8.61a2.51,2.51,0,0,0-1.5-.42,4.93,4.93,0,0,0-1.49.21,3.58,3.58,0,0,0-1.09.52c-.32.29-.27.41-.08.74a.17.17,0,0,0,.18.08,1.54,1.54,0,0,0,.49-.3,4.29,4.29,0,0,1,3.35-.54A.16.16,0,0,0,20.81,8.61Z" style="fill:#0c0a35"/><path d="M20.52,4.3c-.12-.1-.25-.25-.18-.38s0-.18.11-.2a5.36,5.36,0,0,1,3,.15,4,4,0,0,1,2.24,1.84,6.56,6.56,0,0,1,.59,2.63c.2,3.19-1.22,6.27.64,9.94a4.33,4.33,0,0,1-2.6-1.42,13.38,13.38,0,0,1-1.83-1.81c-.07-.09-.62-.5-.6-.62a7.73,7.73,0,0,0,.35-1.56c.1-.86,0-1,0-1.84A28.07,28.07,0,0,0,22,7.49a6.41,6.41,0,0,0-.13-1A4.12,4.12,0,0,0,20.52,4.3Z" style="fill:#222272"/><path d="M26.76,18.84a.46.46,0,0,0,.48-.06.45.45,0,0,0,.14-.46.41.41,0,0,0-.51-.24.44.44,0,0,0-.26.24.38.38,0,0,0,0,.41A.31.31,0,0,0,26.76,18.84Z" style="fill:#f70032"/><path d="M22.3,12.31a39.44,39.44,0,0,0,.35-4.72A6.93,6.93,0,0,0,22.54,6a8,8,0,0,0-.49-1.4L21,2.05c-.63.92-1.24,1.84-1.83,2.78A9,9,0,0,0,17.89,1.9c-.33.81-.74,2-1.07,2.83a7.28,7.28,0,0,0-1.53-2,12.69,12.69,0,0,0-.48,3.93c0,.17.3,1.26.47,1.21a3,3,0,0,1,.21-.8.73.73,0,0,1,.31-.36.57.57,0,0,1,.63.2,1.63,1.63,0,0,1,.27.65,2.16,2.16,0,0,1,1.57-1.16,2.38,2.38,0,0,1,1.9.51,5.09,5.09,0,0,1,1.38,2.62C21.82,10.46,22,11.36,22.3,12.31Z" style="fill:#141247"/><path d="M15.19,1.43a.24.24,0,0,0-.06.08,4.14,4.14,0,0,0-.44,1.28l1.14-.11A6.72,6.72,0,0,0,15.19,1.43Z" style="fill:#f70032"/><path d="M18,.63A.13.13,0,0,0,17.9.7,4.1,4.1,0,0,0,17.38,2l1.14,0A6.63,6.63,0,0,0,18,.63Z" style="fill:#f70032"/><path d="M21.21.82a.23.23,0,0,0-.07.07,4.08,4.08,0,0,0-.62,1.21l1.14,0A6.14,6.14,0,0,0,21.21.82Z" style="fill:#f70032"/><path d="M15.76,15.43a3.79,3.79,0,0,0,.34-.18l.34-.25a1,1,0,0,0,.43-.69.52.52,0,0,0-.26-.48.28.28,0,0,0-.43.2.1.1,0,0,0,.06.09c.11,0,.24-.06.32,0s-.06.42-.18.55A3.29,3.29,0,0,1,16,15a.91.91,0,0,0-.27.34,0,0,0,0,0,.06,0Z" style="fill:#0c0a35"/><path d="M19.84,14.54c1.57.36,2.57-1.19,2.5-2.61a0,0,0,0,0-.09,0,3.71,3.71,0,0,1-.9,2.06,1.86,1.86,0,0,1-1.5.45.06.06,0,0,0,0,.11Z" style="fill:#0c0a35"/><path d="M16,5.91a3.94,3.94,0,0,1-.08-.77,3.53,3.53,0,0,0,0-.65c-.07-.31-.6-.25-.57.08A5.53,5.53,0,0,0,15.79,6,.12.12,0,0,0,16,5.91Z" style="fill:#990028"/><path d="M17.83,5.71a5.06,5.06,0,0,0,.35-1.62c0-.2-.29-.36-.43-.18a1,1,0,0,0-.15.69c0,.35-.1.7-.13,1.06,0,.21.31.24.36,0Z" style="fill:#990028"/><path d="M20.37,6.12a2.17,2.17,0,0,0,.54-.88c.16-.33.39-.63.3-1s-.54-.29-.65,0A5.82,5.82,0,0,0,20.11,6a.15.15,0,0,0,.26.1Z" style="fill:#990028"/><path d="M23.11,4.63a.52.52,0,0,0,0,.21.09.09,0,1,0,.17-.07.34.34,0,0,1,0-.14.1.1,0,0,0-.19,0Z" style="fill:#f70032"/><path d="M24.48,6.11a.48.48,0,0,0,0,.29.13.13,0,1,0,.24-.1.45.45,0,0,1,0-.16.12.12,0,0,0-.23,0Z" style="fill:#f70032"/><path d="M23.33,8a.71.71,0,0,0,0,.29c0,.2.34.12.31-.08A.56.56,0,0,0,23.53,8c-.06-.08-.17,0-.2,0Z" style="fill:#f70032"/><path d="M25.68,8.1a.65.65,0,0,0,0,.31c0,.15.26.09.24-.07a.67.67,0,0,0-.1-.28.09.09,0,0,0-.15,0Z" style="fill:#f70032"/><path d="M24.79,10a.51.51,0,0,0,0,.4c0,.07.17,0,.16,0a.65.65,0,0,1,0-.31c0-.11-.14-.16-.18-.05Z" style="fill:#f70032"/><path d="M22.94,11.21a.86.86,0,0,0,0,.39c0,.12.25.15.27,0a.54.54,0,0,0-.12-.44c-.05-.06-.12,0-.13.05Z" style="fill:#f70032"/><path d="M24.42,13.08a.81.81,0,0,0,0,.38.14.14,0,0,0,.26,0,.46.46,0,0,0-.1-.42.08.08,0,0,0-.13,0Z" style="fill:#f70032"/><path d="M22.48,14.54a1.07,1.07,0,0,0,0,.31.15.15,0,0,0,.19.11.15.15,0,0,0,.1-.19.38.38,0,0,0-.16-.27s-.12,0-.13,0Z" style="fill:#f70032"/><path d="M25.75,12.05a.47.47,0,0,0,0,.31.06.06,0,0,0,.09,0,.59.59,0,0,0,.09-.31c0-.14-.21-.14-.22,0Z" style="fill:#f70032"/><path d="M25.35,16c0,.14,0,.29,0,.42a.11.11,0,0,0,.21,0,.61.61,0,0,0-.08-.49.08.08,0,0,0-.15.07Z" style="fill:#f70032"/><path d="M18.6,19.65h0c-.1,0-.2.08-.18.18a.15.15,0,0,0,.25.06h0a.14.14,0,0,0-.06-.22Z" style="fill:#f70032"/><path d="M19.09,19.93a.18.18,0,0,0,0-.35.18.18,0,0,0,0,.35Z" style="fill:#f70032"/><path d="M19.62,19.9a.17.17,0,0,0,0-.34.17.17,0,1,0,0,.34Z" style="fill:#f70032"/><path d="M20.21,19.85a.2.2,0,0,0,0-.39.2.2,0,0,0,0,.39Z" style="fill:#f70032"/><path d="M20.76,19.8a.17.17,0,1,0,0-.34.17.17,0,0,0,0,.34Z" style="fill:#f70032"/><path d="M15.2,7.15a.12.12,0,0,0,0-.23.12.12,0,0,0,0,.23Z" style="fill:#f70032"/><path d="M15.5,6.68a.13.13,0,0,0,0-.25.13.13,0,1,0,0,.25Z" style="fill:#f70032"/><path d="M16.09,6.5a.15.15,0,0,0,0-.3.15.15,0,1,0,0,.3Z" style="fill:#f70032"/><path d="M16.61,6.64a.18.18,0,0,0,0-.36.18.18,0,0,0,0,.36Z" style="fill:#f70032"/><path d="M16.76,7.08a.16.16,0,0,0,0-.31.16.16,0,1,0,0,.31Z" style="fill:#f70032"/><path d="M17.16,6.71a.16.16,0,0,0,0-.31.16.16,0,0,0,0,.31Z" style="fill:#f70032"/><path d="M17.66,6.46a.19.19,0,0,0,0-.38.19.19,0,0,0,0,.38Z" style="fill:#f70032"/><path d="M18.22,6.29a.17.17,0,0,0,0-.33.17.17,0,1,0,0,.33Z" style="fill:#f70032"/><path d="M18.81,6.2a.18.18,0,0,0,0-.35.18.18,0,0,0,0,.35Z" style="fill:#f70032"/><path d="M19.39,6.32a.17.17,0,0,0,0-.34.17.17,0,0,0,0,.34Z" style="fill:#f70032"/><path d="M20,6.55a.2.2,0,0,0,0-.4.2.2,0,0,0,0,.4Z" style="fill:#f70032"/><path d="M20.48,6.82a.18.18,0,0,0,0-.36.18.18,0,1,0,0,.36Z" style="fill:#f70032"/><path d="M20.91,7.25a.16.16,0,0,0,0-.32.16.16,0,0,0,0,.32Z" style="fill:#f70032"/><path d="M21.18,7.69a.14.14,0,0,0,0-.28.14.14,0,0,0,0,.28Z" style="fill:#f70032"/><path d="M21.41,8.25a.15.15,0,0,0,0-.3.15.15,0,0,0,0,.3Z" style="fill:#f70032"/><path d="M21.59,8.75a.16.16,0,0,0,0-.32.16.16,0,0,0,0,.32Z" style="fill:#f70032"/><path d="M21.73,9.29a.13.13,0,0,0,0-.26.13.13,0,0,0,0,.26Z" style="fill:#f70032"/><path d="M21.89,9.81a.11.11,0,1,0,0-.22.11.11,0,1,0,0,.22Z" style="fill:#f70032"/><path d="M22.08,10.48a.18.18,0,0,0,0-.36.18.18,0,0,0,0,.36Z" style="fill:#f70032"/><path d="M22.25,11a.14.14,0,0,0,0-.28.14.14,0,0,0,0,.28Z" style="fill:#f70032"/><path d="M21.08,10.29A3.55,3.55,0,0,1,20,9.91a3.47,3.47,0,0,0-1.19-.21,2,2,0,0,0-1.85.91.12.12,0,0,0,.2.12c.69-1,1.93-.84,2.92-.46.35.12.65.28,1,.08,0,0,0-.06,0-.06Z" style="fill:#141247"/><path d="M4.62,16.24s0,0,0,0Z" style="fill:#141247"/><path d="M5.22,16.39h0Z" style="fill:#141247"/><path d="M8.66,19.46v0a.22.22,0,0,0,.08.29h0a.25.25,0,0,0,.36-.27.25.25,0,0,0-.45-.06Z" style="fill:#141247"/><path d="M9.79,20V20c0,.29.37.42.45.12,0,0,0,0,0,0,.08-.3-.41-.42-.46-.13Z" style="fill:#141247"/><path d="M9.77,19.12a.19.19,0,0,0,0-.37.19.19,0,0,0,0,.37Z" style="fill:#141247"/><path d="M8.22,21.39h0a.13.13,0,0,0,.17,0v0a.15.15,0,0,0-.05-.21h0c-.24-.11-.33.28-.08.29Z" style="fill:#141247"/><path d="M7.57,20.32h0c.17,0,.15-.24,0-.32l0,0c-.26-.2-.45.42,0,.35Z" style="fill:#141247"/><path d="M9.41,21.32l0,0a.15.15,0,0,0,.06.25h0c.33.08.2-.5-.07-.27Z" style="fill:#141247"/><path d="M8.8,20.71l0,0c.21-.13-.07-.44-.22-.22a.08.08,0,0,0,0,0c-.09.12.07.27.2.2Z" style="fill:#141247"/><path d="M11.17,20.84s0,0,0,0,0,0,0,0Z" style="fill:#141247"/><path d="M11.12,21.11a.18.18,0,0,0,0-.36.18.18,0,0,0,0,.36Z" style="fill:#141247"/><path d="M10.87,19.76a.18.18,0,0,0,0-.35.18.18,0,0,0,0,.35Z" style="fill:#141247"/><path d="M8.12,18.8l0,0a.09.09,0,0,0,.12,0l0,0a.19.19,0,1,0-.2,0Z" style="fill:#141247"/><path d="M7.18,22.26a.22.22,0,0,0,0-.43.22.22,0,0,0,0,.43Z" style="fill:#141247"/><path d="M8.22,22.4s0,.05,0,.06a.08.08,0,0,0,.09.09h.06c.23-.06-.07-.36-.13-.14Z" style="fill:#141247"/><path d="M6.77,23.52h0c-.22,0-.22.37,0,.35h0a.17.17,0,0,0,0-.33Z" style="fill:#141247"/><path d="M6.62,27.4a.17.17,0,0,0,0-.33.17.17,0,0,0,0,.33Z" style="fill:#141247"/><path d="M7,28.05a.17.17,0,0,0,0-.34.17.17,0,0,0,0,.34Z" style="fill:#141247"/><path d="M6.55,28.62H6.46a.06.06,0,0,0,0,.11h.09a.07.07,0,1,0,0-.13Z" style="fill:#141247"/><path d="M6.77,25.79h0c-.23,0-.15.38,0,.3h0c.15-.06.14-.31,0-.29Z" style="fill:#141247"/><path d="M6.7,33a.11.11,0,0,0,0,0c0-.45-.62.13-.17.18h.05A.12.12,0,0,0,6.7,33Z" style="fill:#141247"/><path d="M7.17,33.56a.13.13,0,0,0,0-.26.13.13,0,0,0,0,.26Z" style="fill:#141247"/><path d="M6.67,34.77a.19.19,0,0,0,0-.37.19.19,0,0,0,0,.37Z" style="fill:#141247"/><path d="M7.36,35.24l0,0a.15.15,0,0,0,0-.25l0,0c-.33-.22-.33.53,0,.31Z" style="fill:#141247"/><path d="M8,35.17a.36.36,0,0,0,0,.09.1.1,0,0,0,.19,0l0-.09C8.38,35,8,35,8,35.17Z" style="fill:#141247"/><path d="M7.52,36.33a.15.15,0,0,0,0-.29.15.15,0,0,0,0,.29Z" style="fill:#141247"/><path d="M6.82,36a.13.13,0,1,0,0-.25.13.13,0,0,0,0,.25Z" style="fill:#141247"/><path d="M6.83,36.82h0c-.22,0-.13.4.09.33l0,0a.17.17,0,0,0-.09-.32Z" style="fill:#141247"/><path d="M7.72,41.15a.17.17,0,0,0,0-.33.17.17,0,0,0,0,.33Z" style="fill:#141247"/><path d="M8.22,42.1a.16.16,0,1,0,0-.33.16.16,0,0,0,0,.33Z" style="fill:#141247"/><path d="M9,41.9a.17.17,0,0,0,0-.33.17.17,0,0,0,0,.33Z" style="fill:#141247"/><path d="M9.82,41.38a.15.15,0,0,0,0-.3.15.15,0,0,0,0,.3Z" style="fill:#141247"/><path d="M9.92,42.32a.14.14,0,0,0,0-.28.14.14,0,0,0,0,.28Z" style="fill:#141247"/><path d="M9.17,43a.15.15,0,0,0,0-.3.15.15,0,0,0,0,.3Z" style="fill:#141247"/><path d="M8.22,43.34a.16.16,0,0,0,0-.31.16.16,0,0,0,0,.31Z" style="fill:#141247"/><path d="M9.07,44a.13.13,0,0,0,0-.27.13.13,0,0,0,0,.27Z" style="fill:#141247"/><path d="M10.07,43.68a.15.15,0,0,0,0-.29.15.15,0,0,0,0,.29Z" style="fill:#141247"/><path d="M10.77,43.11a.18.18,0,0,0,0-.35.18.18,0,0,0,0,.35Z" style="fill:#141247"/><path d="M10.82,42a.15.15,0,0,0,0-.29.15.15,0,0,0,0,.29Z" style="fill:#141247"/><path d="M11.47,42.46a.13.13,0,0,0,0-.25.13.13,0,0,0,0,.25Z" style="fill:#141247"/><path d="M11.67,41.94a.11.11,0,0,0,0-.22.11.11,0,0,0,0,.22Z" style="fill:#141247"/><path d="M30.12,20.25a.22.22,0,0,0,0-.43.22.22,0,0,0,0,.43Z" style="fill:#141247"/><path d="M30.82,19.43a.2.2,0,0,0,0-.39.2.2,0,0,0,0,.39Z" style="fill:#141247"/><path d="M31.62,20.3a.22.22,0,0,0,0-.43.22.22,0,0,0,0,.43Z" style="fill:#141247"/><path d="M31.12,21.08a.2.2,0,0,0,0-.39.2.2,0,0,0,0,.39Z" style="fill:#141247"/><path d="M32,19.1a.12.12,0,0,0,0-.23.12.12,0,0,0,0,.23Z" style="fill:#141247"/><path d="M32,18.45a.12.12,0,0,0,0-.23.12.12,0,0,0,0,.23Z" style="fill:#141247"/><path d="M32.89,18.14l0,0a.16.16,0,0,0,.07.29h0c.27,0,.16-.47-.08-.31Z" style="fill:#141247"/><path d="M33.07,19.42a.19.19,0,0,0,0-.37.19.19,0,0,0,0,.37Z" style="fill:#141247"/><path d="M32.51,20V20a.07.07,0,0,0,.09.08h.06c.25-.05-.09-.38-.14-.14Z" style="fill:#141247"/><path d="M32.37,21.2a.22.22,0,0,0,0-.43.22.22,0,0,0,0,.43Z" style="fill:#141247"/><path d="M33.42,21.26a.18.18,0,0,0,0-.35.18.18,0,0,0,0,.35Z" style="fill:#141247"/><path d="M33.72,20.45a.22.22,0,0,0,0-.43.22.22,0,0,0,0,.43Z" style="fill:#141247"/><path d="M34,22.05l-.08,0a.11.11,0,0,0,0,.19l.08,0c.29.13.29-.4,0-.27Z" style="fill:#141247"/><path d="M32.62,21.91a.13.13,0,0,0,0-.26.13.13,0,0,0,0,.26Z" style="fill:#141247"/><path d="M34.24,25.51h-.06c-.39.05.15.6.21.21v-.06a.13.13,0,0,0-.16-.16Z" style="fill:#141247"/><path d="M34.55,26.55a.13.13,0,0,0,.23.1.13.13,0,1,0-.23-.1Z" style="fill:#141247"/><path d="M34.79,28a.09.09,0,0,1,0-.05.14.14,0,0,0-.1-.1h0a.15.15,0,0,0-.15.25.05.05,0,0,0,0,0s.11.05.06,0a.12.12,0,0,0,.18-.14Z" style="fill:#141247"/><path d="M34.93,32.45c0,.15.18.25.27.11s-.2-.32-.27-.11Z" style="fill:#141247"/><path d="M34.52,33.3a.12.12,0,0,0,0-.23.12.12,0,0,0,0,.23Z" style="fill:#141247"/><path d="M34.87,34.33a.15.15,0,1,0,0-.29.15.15,0,0,0,0,.29Z" style="fill:#141247"/><path d="M34.17,35a.18.18,0,0,0,0-.35.18.18,0,0,0,0,.35Z" style="fill:#141247"/><path d="M33.72,35.54a.11.11,0,0,0,0-.22.11.11,0,0,0,0,.22Z" style="fill:#141247"/><path d="M34.42,36.23a.2.2,0,0,0,0-.39.2.2,0,0,0,0,.39Z" style="fill:#141247"/><path d="M35,35.42a.14.14,0,0,0,0-.28.14.14,0,0,0,0,.28Z" style="fill:#141247"/><path d="M34.84,37l-.09,0a.1.1,0,0,0,0,.19l.09,0c.21.07.21-.32,0-.25Z" style="fill:#141247"/><path d="M34.72,38.75a.16.16,0,0,0,0-.33.16.16,0,0,0,0,.33Z" style="fill:#141247"/><path d="M34.22,39.53a.15.15,0,0,0,0-.3.15.15,0,0,0,0,.3Z" style="fill:#141247"/><path d="M34.68,40.17l0,0a.11.11,0,0,0,.13,0l0,0c.27-.25-.45-.25-.18,0Z" style="fill:#141247"/><path d="M33.82,40.49a.21.21,0,0,0,0-.41.21.21,0,0,0,0,.41Z" style="fill:#141247"/><path d="M32.57,40.75a.17.17,0,0,0,0-.34.17.17,0,0,0,0,.34Z" style="fill:#141247"/><path d="M33.12,41.66a.23.23,0,0,0,0-.45.23.23,0,0,0,0,.45Z" style="fill:#141247"/><path d="M34.17,41.66a.18.18,0,0,0,0-.35.18.18,0,0,0,0,.35Z" style="fill:#141247"/><path d="M33.43,42.47l0,0a.18.18,0,0,0,.08.33h0c.3,0,.19-.51-.09-.35Z" style="fill:#141247"/><path d="M32.12,42.54a.21.21,0,0,0,0-.41.21.21,0,0,0,0,.41Z" style="fill:#141247"/><path d="M31.85,41.4a.13.13,0,0,0,.23.1c.09-.16-.17-.27-.23-.1Z" style="fill:#141247"/><path d="M31,42.06a.23.23,0,0,0,0-.45.23.23,0,0,0,0,.45Z" style="fill:#141247"/><path d="M31.62,43.47a.24.24,0,0,0,0-.48.24.24,0,0,0,0,.48Z" style="fill:#141247"/><path d="M30.82,42.85a.17.17,0,0,0,0-.33.17.17,0,0,0,0,.33Z" style="fill:#141247"/><path d="M32.52,43.94a.16.16,0,0,0,0-.31.16.16,0,0,0,0,.31Z" style="fill:#141247"/><path d="M30.37,41.82a.19.19,0,0,0,0-.38.19.19,0,0,0,0,.38Z" style="fill:#141247"/><path d="M35.44,50.65c0-.1,0-.25,0-.35s0-.21,0-.32a1.42,1.42,0,0,0-.43-.92,9.73,9.73,0,0,1,1.08,0,1.42,1.42,0,0,0-.43.92c0,.11,0,.21,0,.32s0,.25,0,.35Z" style="fill:#0c0a35"/><path d="M35.53,50.26a1.16,1.16,0,0,0-1-.54.88.88,0,0,0-.84.68,1.08,1.08,0,0,0,.33.93,4.3,4.3,0,0,0,.84.61,4.62,4.62,0,0,1,.7.67,8.73,8.73,0,0,1,.7-.66,6.51,6.51,0,0,0,.84-.62,1.11,1.11,0,0,0,.33-.93.88.88,0,0,0-.84-.68,1.16,1.16,0,0,0-1,.54Z" style="fill:#0c0a35"/><path d="M5.36,11.36c0,.1,0,.25,0,.35s0,.21,0,.31a1.4,1.4,0,0,0,.43.93,9.73,9.73,0,0,1-1.08,0A1.45,1.45,0,0,0,5.11,12c0-.1,0-.2,0-.31s0-.25,0-.35Z" style="fill:#0c0a35"/><path d="M5.27,11.75a1.16,1.16,0,0,0,1,.54.89.89,0,0,0,.84-.68,1.11,1.11,0,0,0-.33-.93,4.3,4.3,0,0,0-.84-.61,4.62,4.62,0,0,1-.7-.67,8.73,8.73,0,0,1-.7.66,6.51,6.51,0,0,0-.84.62,1.08,1.08,0,0,0-.33.93.89.89,0,0,0,.84.68,1.16,1.16,0,0,0,1-.54Z" style="fill:#0c0a35"/><path d="M5,7.93a2.06,2.06,0,0,1-1.74-.85A3.4,3.4,0,0,1,2.59,5a3.44,3.44,0,0,1,.65-2.19A2.06,2.06,0,0,1,5,1.94a2.08,2.08,0,0,1,1.69.81,3.23,3.23,0,0,1,.67,2.14,3.7,3.7,0,0,1-.5,1.93,2.09,2.09,0,0,1-1.27,1v.07c0,.43.25.64.76.64A3.23,3.23,0,0,0,7,8.51v.58a2,2,0,0,1-.59.09,1.67,1.67,0,0,1-1-.28A1.27,1.27,0,0,1,5,7.93Zm0-.59a1.32,1.32,0,0,0,1.18-.69,3.31,3.31,0,0,0,.42-1.77,3,3,0,0,0-.43-1.73A1.39,1.39,0,0,0,5,2.53a1.35,1.35,0,0,0-1.18.67A3.27,3.27,0,0,0,3.34,5a3.11,3.11,0,0,0,.44,1.72A1.34,1.34,0,0,0,5,7.34Z" style="fill:#0c0a35"/><path d="M36,54.36a2,2,0,0,1,1.73.85,3.4,3.4,0,0,1,.63,2.1,3.48,3.48,0,0,1-.65,2.19,2,2,0,0,1-1.71.84,2.1,2.1,0,0,1-1.69-.8,3.24,3.24,0,0,1-.67-2.14,3.73,3.73,0,0,1,.5-1.94,2.14,2.14,0,0,1,1.27-1v-.08c0-.42-.26-.63-.77-.63a3.37,3.37,0,0,0-.66.06V53.2a2,2,0,0,1,.59-.09,1.61,1.61,0,0,1,1,.28A1.26,1.26,0,0,1,36,54.36ZM36,55a1.32,1.32,0,0,0-1.18.68,3.36,3.36,0,0,0-.42,1.77,2.9,2.9,0,0,0,.44,1.73,1.34,1.34,0,0,0,1.17.62,1.33,1.33,0,0,0,1.17-.67,3.15,3.15,0,0,0,.43-1.75,3,3,0,0,0-.44-1.72A1.34,1.34,0,0,0,36,55Z" style="fill:#0c0a35"/><path d="M16.38,59.11H6.19a3.1,3.1,0,0,1-3-3.19V15.66a.09.09,0,0,1,.1-.09.09.09,0,0,1,.09.09V55.92a2.92,2.92,0,0,0,2.81,3H16.38a.09.09,0,1,1,0,.18Z" style="fill:#191956"/><path d="M32.78,59.11H27.26a.09.09,0,1,1,0-.18h5.52a.09.09,0,1,1,0,.18Z" style="fill:#191956"/><path d="M37.65,46.92a.09.09,0,0,1-.1-.1V6.36a2.92,2.92,0,0,0-2.81-3H24.06A.09.09,0,0,1,24,3.27a.09.09,0,0,1,.09-.1H34.74a3.1,3.1,0,0,1,3,3.19V46.82A.09.09,0,0,1,37.65,46.92Z" style="fill:#191956"/><path d="M13.78,3.36H8.45a.1.1,0,0,1-.1-.09.1.1,0,0,1,.1-.1h5.33a.09.09,0,0,1,.09.1A.09.09,0,0,1,13.78,3.36Z" style="fill:#191956"/></g></g></g></svg>